<svg width="1426" height="526" viewBox="0 0 1426 526" fill="none" xmlns="http://www.w3.org/2000/svg">
<g clip-path="url(#clip0_313_6141)">
<path d="M5.23608 280.329L11.1629 277.23" stroke="#253A74" stroke-width="7" stroke-linecap="round" stroke-linejoin="round"/>
<path d="M22.9832 271.068L460.03 42.9823C499.969 22.1429 549.233 37.6332 570.066 77.5735C590.899 117.525 575.413 166.804 535.485 187.643L332.748 293.445C292.809 314.285 277.335 363.564 298.168 403.515C319.001 443.467 368.265 458.946 408.204 438.106L1023.16 117.18C1063.09 96.3401 1112.36 111.83 1133.19 151.771C1154.02 191.711 1138.54 241.001 1098.61 261.841L932.359 348.597C892.42 369.437 876.945 418.716 897.778 458.667C918.611 498.619 967.875 514.098 1007.81 493.258L1414.96 280.786" stroke="#253A74" stroke-width="7" stroke-linecap="round" stroke-linejoin="round" stroke-dasharray="11.97 11.97"/>
<path d="M1420.85 277.698L1426.78 274.611" stroke="#253A74" stroke-width="7" stroke-linecap="round" stroke-linejoin="round"/>
<path d="M333.383 129.828C345.227 129.828 354.829 120.224 354.829 108.376C354.829 96.5284 345.227 86.9238 333.383 86.9238C321.539 86.9238 311.938 96.5284 311.938 108.376C311.938 120.224 321.539 129.828 333.383 129.828Z" fill="#7ECDCE"/>
<path d="M949.46 177.747C961.304 177.747 970.905 168.143 970.905 156.295C970.905 144.447 961.304 134.843 949.46 134.843C937.616 134.843 928.014 144.447 928.014 156.295C928.014 168.143 937.616 177.747 949.46 177.747Z" fill="#7ECDCE"/>
<path d="M456.487 430.161C468.331 430.161 477.933 420.556 477.933 408.708C477.933 396.86 468.331 387.256 456.487 387.256C444.643 387.256 435.041 396.86 435.041 408.708C435.041 420.556 444.643 430.161 456.487 430.161Z" fill="#7ECDCE"/>
<path d="M1082.03 474.18C1093.88 474.18 1103.48 464.576 1103.48 452.728C1103.48 440.88 1093.88 431.275 1082.03 431.275C1070.19 431.275 1060.59 440.88 1060.59 452.728C1060.59 464.576 1070.19 474.18 1082.03 474.18Z" fill="#7ECDCE"/>
<mask id="mask0_313_6141" style="mask-type:alpha" maskUnits="userSpaceOnUse" x="529" y="230" width="145" height="145">
<rect x="530.045" y="278.653" width="106.647" height="106.647" transform="rotate(-26.3004 530.045 278.653)" fill="#FEFEFE" stroke="#253A74"/>
</mask>
<g mask="url(#mask0_313_6141)">
<path d="M573.246 336.796L573.24 336.784L573.229 336.79L565.198 340.759L547.318 304.581C546.226 302.373 546.078 300.094 546.874 297.744C547.669 295.394 549.171 293.673 551.38 292.581L607.669 264.761L643.709 276.96L653.638 297.049L645.607 301.018L645.596 301.023L645.601 301.035C647.256 304.383 647.491 307.807 646.305 311.309C645.12 314.81 642.854 317.388 639.506 319.043C636.158 320.698 632.734 320.932 629.232 319.747C625.73 318.562 623.152 316.295 621.498 312.948L621.492 312.936L621.481 312.942L597.355 324.866L597.344 324.871L597.349 324.883C599.004 328.231 599.239 331.655 598.053 335.157C596.868 338.658 594.602 341.236 591.254 342.891C587.906 344.546 584.482 344.78 580.98 343.595C577.478 342.41 574.901 340.143 573.246 336.796ZM609.551 288.833L609.557 288.844L609.568 288.838L625.652 280.889L625.679 280.876L625.65 280.866L607.626 274.765L607.627 274.76L607.616 274.766L603.595 276.753L603.584 276.759L603.589 276.77L609.551 288.833ZM585.425 300.757L585.431 300.768L585.442 300.762L601.526 292.813L601.537 292.808L601.532 292.796L595.57 280.733L595.564 280.722L595.553 280.728L579.469 288.677L579.458 288.683L579.463 288.694L585.425 300.757ZM561.299 312.681L561.305 312.692L561.316 312.686L577.4 304.737L577.411 304.732L577.406 304.72L571.444 292.657L571.438 292.646L571.427 292.652L555.343 300.601L555.332 300.607L555.337 300.618L561.299 312.681ZM569.249 328.765L569.254 328.776L569.266 328.77L572.482 327.18L572.485 327.186L572.489 327.173C573.031 325.405 573.857 323.789 574.966 322.324C576.075 320.86 577.533 319.681 579.341 318.787C581.149 317.894 582.971 317.451 584.808 317.46C586.645 317.468 588.431 317.794 590.165 318.437L590.163 318.442L590.175 318.436L620.734 303.332L620.737 303.338L620.741 303.325C621.283 301.557 622.109 299.941 623.218 298.476C624.327 297.012 625.785 295.833 627.593 294.939C629.401 294.046 631.223 293.603 633.06 293.612C634.897 293.62 636.683 293.946 638.417 294.589L638.415 294.594L638.427 294.588L641.643 292.998L641.655 292.993L641.649 292.982L637.674 284.94L637.669 284.928L637.658 284.934L565.28 320.706L565.269 320.712L565.274 320.723L569.249 328.765ZM587.787 335.877C589.198 335.18 590.149 334.103 590.642 332.648C591.134 331.193 591.032 329.76 590.335 328.349C589.638 326.939 588.562 325.987 587.107 325.495C585.651 325.002 584.218 325.105 582.808 325.802C581.398 326.499 580.446 327.575 579.953 329.03C579.461 330.485 579.563 331.919 580.26 333.329C580.957 334.739 582.034 335.691 583.489 336.183C584.944 336.676 586.377 336.574 587.787 335.877ZM636.039 312.029C637.449 311.332 638.401 310.255 638.894 308.8C639.386 307.345 639.284 305.912 638.587 304.501C637.89 303.091 636.814 302.139 635.358 301.647C633.903 301.154 632.47 301.257 631.06 301.954C629.65 302.651 628.698 303.727 628.205 305.182C627.713 306.637 627.815 308.071 628.512 309.481C629.209 310.891 630.285 311.843 631.741 312.335C633.196 312.828 634.629 312.726 636.039 312.029Z" fill="#253A74" stroke="#253A74" stroke-width="0.025"/>
</g>
<path d="M136.468 155.567L136.468 155.567C135.551 153.046 135.551 150.528 136.471 148.014C137.39 145.499 139.028 143.625 141.385 142.393C143.742 141.161 146.215 140.885 148.805 141.565C151.394 142.246 153.462 143.682 155.008 145.874L157.362 149.232L161.389 148.922C161.389 148.922 161.389 148.922 161.389 148.922C163.5 148.751 165.504 149.171 167.398 150.181C169.293 151.191 170.734 152.639 171.72 154.524C173.088 157.143 173.336 159.848 172.461 162.639C171.586 165.43 169.839 167.511 167.221 168.879L148.389 178.724C145.771 180.093 143.065 180.34 140.274 179.466C137.483 178.591 135.403 176.844 134.034 174.226C133.048 172.34 132.681 170.331 132.934 168.199C133.186 166.067 133.984 164.182 135.329 162.545L136.468 155.567ZM136.468 155.567L137.882 159.416L135.329 162.545L136.468 155.567ZM170.789 190.993L172.751 189.967L175.287 194.819L165.118 200.135L162.582 195.283L164.511 194.275L164.522 194.269L164.517 194.258L157.953 181.703L157.948 181.692L157.936 181.698L151.659 184.98C147.32 187.248 142.823 187.652 138.166 186.193C133.509 184.734 130.047 181.835 127.779 177.496C126.139 174.359 125.492 171.02 125.837 167.479C126.182 163.937 127.503 160.8 129.802 158.067L129.812 158.076L129.804 158.055C128.225 153.888 128.222 149.713 129.796 145.529C131.369 141.345 134.142 138.215 138.115 136.138C142.088 134.061 146.241 133.571 150.574 134.667C154.908 135.762 158.335 138.147 160.855 141.822L160.844 141.83L160.866 141.827C164.422 141.499 167.752 142.204 170.857 143.942C173.963 145.68 176.335 148.118 177.975 151.254C180.243 155.593 180.647 160.09 179.188 164.747C177.729 169.404 174.83 172.866 170.491 175.135L164.214 178.416L164.203 178.422L164.208 178.433L170.772 190.988L170.778 190.999L170.789 190.993Z" fill="#253A74" stroke="#253A74" stroke-width="0.025"/>
<path d="M757.468 199.567L757.468 199.567C756.551 197.046 756.551 194.528 757.471 192.014C758.39 189.499 760.028 187.625 762.385 186.393C764.742 185.161 767.215 184.885 769.805 185.565C772.394 186.246 774.462 187.682 776.008 189.874L778.362 193.232L782.389 192.922C782.389 192.922 782.389 192.922 782.389 192.922C784.5 192.751 786.504 193.171 788.398 194.181C790.293 195.191 791.734 196.639 792.72 198.524C794.088 201.143 794.336 203.848 793.461 206.639C792.586 209.43 790.839 211.511 788.221 212.879L769.389 222.724C766.771 224.093 764.065 224.34 761.274 223.466C758.483 222.591 756.403 220.844 755.034 218.226C754.048 216.34 753.681 214.331 753.934 212.199C754.186 210.067 754.984 208.182 756.329 206.545L757.468 199.567ZM757.468 199.567L758.882 203.416L756.329 206.545L757.468 199.567ZM791.789 234.993L793.751 233.967L796.287 238.819L786.118 244.135L783.582 239.283L785.511 238.275L785.522 238.269L785.517 238.258L778.953 225.703L778.948 225.692L778.936 225.698L772.659 228.98C768.32 231.248 763.823 231.652 759.166 230.193C754.509 228.734 751.047 225.835 748.779 221.496C747.139 218.359 746.492 215.02 746.837 211.479C747.182 207.937 748.503 204.8 750.802 202.067L750.812 202.076L750.804 202.055C749.225 197.888 749.222 193.713 750.796 189.529C752.369 185.345 755.142 182.215 759.115 180.138C763.088 178.061 767.241 177.571 771.574 178.667C775.908 179.762 779.335 182.147 781.855 185.822L781.844 185.83L781.866 185.827C785.422 185.499 788.752 186.204 791.857 187.942C794.963 189.68 797.335 192.118 798.975 195.254C801.243 199.593 801.647 204.09 800.188 208.747C798.729 213.404 795.83 216.866 791.491 219.135L785.214 222.416L785.203 222.422L785.208 222.433L791.772 234.988L791.778 234.999L791.789 234.993Z" fill="#253A74" stroke="#253A74" stroke-width="0.025"/>
<path d="M899.468 309.567L899.468 309.567C898.551 307.046 898.551 304.528 899.471 302.014C900.39 299.499 902.028 297.625 904.385 296.393C906.742 295.161 909.215 294.885 911.805 295.565C914.394 296.246 916.462 297.682 918.008 299.874L920.362 303.232L924.389 302.922C924.389 302.922 924.389 302.922 924.389 302.922C926.5 302.751 928.504 303.171 930.398 304.181C932.293 305.191 933.734 306.639 934.72 308.524C936.088 311.143 936.336 313.848 935.461 316.639C934.586 319.43 932.839 321.511 930.221 322.879L911.389 332.724C908.771 334.093 906.065 334.34 903.274 333.466C900.483 332.591 898.403 330.844 897.034 328.226C896.048 326.34 895.681 324.331 895.934 322.199C896.186 320.067 896.984 318.182 898.329 316.545L899.468 309.567ZM899.468 309.567L900.882 313.416L898.329 316.545L899.468 309.567ZM933.789 344.993L935.751 343.967L938.287 348.819L928.118 354.135L925.582 349.283L927.511 348.275L927.522 348.269L927.517 348.258L920.953 335.703L920.948 335.692L920.936 335.698L914.659 338.98C910.32 341.248 905.823 341.652 901.166 340.193C896.509 338.734 893.047 335.835 890.779 331.496C889.139 328.359 888.492 325.02 888.837 321.479C889.182 317.937 890.503 314.8 892.802 312.067L892.812 312.076L892.804 312.055C891.225 307.888 891.222 303.713 892.796 299.529C894.369 295.345 897.142 292.215 901.115 290.138C905.088 288.061 909.241 287.571 913.574 288.667C917.908 289.762 921.335 292.147 923.855 295.822L923.844 295.83L923.866 295.827C927.422 295.499 930.752 296.204 933.857 297.942C936.963 299.68 939.335 302.118 940.975 305.254C943.243 309.593 943.647 314.09 942.188 318.747C940.729 323.404 937.83 326.866 933.491 329.135L927.214 332.416L927.203 332.422L927.208 332.433L933.772 344.988L933.778 344.999L933.789 344.993Z" fill="#253A74" stroke="#253A74" stroke-width="0.025"/>
<path d="M1232.47 319.567L1232.47 319.567C1231.55 317.046 1231.55 314.528 1232.47 312.014C1233.39 309.499 1235.03 307.625 1237.38 306.393C1239.74 305.161 1242.22 304.885 1244.8 305.565C1247.39 306.246 1249.46 307.682 1251.01 309.874L1253.36 313.232L1257.39 312.922C1257.39 312.922 1257.39 312.922 1257.39 312.922C1259.5 312.751 1261.5 313.171 1263.4 314.181C1265.29 315.191 1266.73 316.639 1267.72 318.524C1269.09 321.143 1269.34 323.848 1268.46 326.639C1267.59 329.43 1265.84 331.511 1263.22 332.879L1244.39 342.724C1241.77 344.093 1239.07 344.34 1236.27 343.466C1233.48 342.591 1231.4 340.844 1230.03 338.226C1229.05 336.34 1228.68 334.331 1228.93 332.199C1229.19 330.067 1229.98 328.182 1231.33 326.545L1232.47 319.567ZM1232.47 319.567L1233.88 323.416L1231.33 326.545L1232.47 319.567ZM1266.79 354.993L1268.75 353.967L1271.29 358.819L1261.12 364.135L1258.58 359.283L1260.51 358.275L1260.52 358.269L1260.52 358.258L1253.95 345.703L1253.95 345.692L1253.94 345.698L1247.66 348.98C1243.32 351.248 1238.82 351.652 1234.17 350.193C1229.51 348.734 1226.05 345.835 1223.78 341.496C1222.14 338.359 1221.49 335.02 1221.84 331.479C1222.18 327.937 1223.5 324.8 1225.8 322.067L1225.81 322.076L1225.8 322.055C1224.23 317.888 1224.22 313.713 1225.8 309.529C1227.37 305.345 1230.14 302.215 1234.11 300.138C1238.09 298.061 1242.24 297.571 1246.57 298.667C1250.91 299.762 1254.33 302.147 1256.85 305.822L1256.84 305.83L1256.87 305.827C1260.42 305.499 1263.75 306.204 1266.86 307.942C1269.96 309.68 1272.33 312.118 1273.97 315.254C1276.24 319.593 1276.65 324.09 1275.19 328.747C1273.73 333.404 1270.83 336.866 1266.49 339.135L1260.21 342.416L1260.2 342.422L1260.21 342.433L1266.77 354.988L1266.78 354.999L1266.79 354.993Z" fill="#253A74" stroke="#253A74" stroke-width="0.025"/>
</g>
<defs>
<clipPath id="clip0_313_6141">
<rect width="1426" height="526" fill="white"/>
</clipPath>
</defs>
</svg>
