<svg width="453" height="453" viewBox="0 0 453 453" fill="none" xmlns="http://www.w3.org/2000/svg">
<path d="M71.873 404.574C70.6499 403.514 67.9047 400.18 70.061 396.303C70.8401 394.871 72.48 394.174 73.9749 393.585C75.5075 393.062 76.9523 392.311 78.2603 391.356C80.5796 389.381 81.2229 386.101 82.7903 383.465C84.6023 380.43 87.8729 378.165 91.361 378.328C95.3655 378.509 98.6996 381.77 100.213 385.494C101.726 389.218 101.771 393.358 101.807 397.381C101.807 399.6 101.726 402.11 100.095 403.605C98.4641 405.1 96.3168 405.009 94.2783 404.946L72.4256 404.275" fill="#F5F5F5"/>
<path d="M113.676 344.47H56.1719L66.5275 406.205C66.7408 407.491 67.3146 408.69 68.1821 409.664C69.0497 410.637 70.1755 411.345 71.4289 411.704L71.6373 411.758C71.8004 411.758 71.9725 411.858 72.1447 411.894C72.5301 411.969 72.921 412.011 73.3134 412.021V412.085H73.5943H99.2159C99.6874 412.086 100.158 412.04 100.62 411.949C102.116 411.716 103.494 411 104.544 409.91C105.594 408.821 106.259 407.418 106.437 405.915L111.438 363.305L111.655 361.611L113.63 344.769L113.676 344.47ZM102.804 383.854H96.9419L97.5398 365.933H104.371L102.804 383.854ZM104.906 365.933H110.55L108.448 383.854H103.374L104.906 365.933ZM88.054 403.713L87.7007 388.148H96.1899L95.6735 403.713H88.054ZM78.9034 388.148H87.1571L87.5104 403.713H80.1084L78.9034 388.148ZM79.5376 403.713H72.6158C71.9635 399.509 71.1028 394.046 70.1786 388.148H78.3326L79.5376 403.713ZM78.5682 383.854L77.173 365.933H86.6407L87.0574 383.854H78.5682ZM87.6282 383.854L87.2114 365.933H96.9419L96.3439 383.854H87.6282ZM87.1118 361.638L86.7313 345.05H97.6033L97.0506 361.638H87.1118ZM86.541 361.638H76.8377L75.5512 345.05H86.1605L86.541 361.638ZM76.267 361.638H66.002C65.6396 359.346 65.2953 357.181 64.9873 355.224C63.9091 348.52 63.5105 345.992 63.284 345.05H74.9804L76.267 361.638ZM76.6022 365.933L77.9974 383.854H69.5082C69.2183 382.042 68.9284 380.23 68.6022 378.354C67.9408 374.123 67.2704 369.901 66.6452 365.933H76.6022ZM68.9284 383.854H63.4199L60.3757 365.933H66.1379C66.9805 371.459 67.9499 377.638 68.9284 383.854ZM69.5988 388.148C70.4504 393.539 71.284 398.848 72.045 403.713H66.7087L64.0994 388.148H69.5988ZM96.2714 403.713L96.7879 388.148H102.468L101.137 403.713H96.2714ZM97.6667 361.638L98.2193 345.05H106.147L104.733 361.638H97.6667ZM62.7404 345.05C62.9669 346.245 64.0178 352.778 65.4584 361.638H59.66L56.8695 345.05H62.7404ZM106.147 403.713H101.707L103.039 388.148H107.977L106.147 403.713ZM111.085 361.638H105.304L106.718 345.05H113.06L111.085 361.638Z" fill="#E0E0E0"/>
<path d="M50.736 213.988C52.5011 212.924 54.399 212.099 56.3804 211.532L57.5491 205.951L67.044 205.779L68.403 211.324C70.4066 211.817 72.3353 212.576 74.138 213.58L78.9035 210.454L85.6985 217.005L82.7359 221.888C83.7936 223.653 84.6103 225.551 85.164 227.532L90.754 228.692L90.9171 238.133L85.3724 239.492C84.8806 241.491 84.125 243.417 83.1255 245.217L86.2512 249.992L79.728 256.778L74.8537 253.824C73.0886 254.888 71.1907 255.713 69.2093 256.28L68.0043 261.834L58.5638 262.006L57.2048 256.461C55.2046 255.966 53.2791 255.207 51.4789 254.205L46.7133 257.331L39.9183 250.78L42.881 245.897C41.8101 244.136 40.9841 242.237 40.4257 240.253L34.8357 239.093L34.6726 229.652L40.2173 228.293C40.7051 226.292 41.4609 224.366 42.4642 222.567L39.3385 217.793L45.8979 211.007L50.736 213.988ZM55.7733 226.563C54.381 228.004 53.4474 229.826 53.0905 231.797C52.7337 233.769 52.9697 235.802 53.7687 237.64C54.5678 239.478 55.8939 241.037 57.5793 242.121C59.2647 243.205 61.2337 243.764 63.2372 243.729C65.2407 243.693 67.1886 243.064 68.8346 241.921C70.4805 240.779 71.7506 239.173 72.484 237.308C73.2174 235.444 73.3812 233.403 72.9547 231.445C72.5283 229.487 71.5307 227.7 70.0881 226.309C68.1572 224.457 65.5718 223.444 62.8966 223.492C60.2213 223.539 57.6735 224.643 55.8096 226.563H55.7733Z" fill="#E0E0E0"/>
<path d="M255.365 39.1025H24.8606V227.931H255.365V39.1025Z" fill="white"/>
<path d="M255.365 227.922C255.365 226.282 255.293 152.896 255.175 39.1027L255.365 39.293L24.8878 39.3383L25.1233 39.1027C25.1233 107.406 25.1233 171.895 25.1233 227.922L24.9059 227.714L255.41 227.922L24.9059 228.131H24.6975V227.913C24.6975 171.886 24.6975 107.415 24.6975 39.0937V38.8672H24.9602H255.438H255.637V39.0665C255.492 152.896 255.374 226.282 255.365 227.922Z" fill="#E0E0E0"/>
<path d="M208.38 55.2658C208.38 55.3927 167.293 55.5014 116.611 55.5014C65.9296 55.5014 24.8606 55.4199 24.8606 55.2658C24.8606 55.1118 65.9477 55.0303 116.647 55.0303C167.347 55.0303 208.38 55.1571 208.38 55.2658Z" fill="#E0E0E0"/>
<path d="M35.796 47.4834C35.7978 47.9766 35.6532 48.4592 35.3805 48.8701C35.1078 49.281 34.7193 49.6017 34.2642 49.7917C33.8091 49.9817 33.3079 50.0323 32.824 49.9372C32.3401 49.8421 31.8953 49.6055 31.5459 49.2574C31.1966 48.9094 30.9584 48.4654 30.8615 47.9819C30.7647 47.4983 30.8135 46.9969 31.0018 46.5411C31.1901 46.0853 31.5094 45.6957 31.9193 45.4215C32.3293 45.1473 32.8113 45.001 33.3045 45.001C33.9637 45.001 34.596 45.2622 35.063 45.7275C35.53 46.1928 35.7936 46.8242 35.796 47.4834Z" fill="#E0E0E0"/>
<path d="M43.0531 47.4834C43.0548 47.9766 42.9102 48.4592 42.6376 48.8701C42.3649 49.281 41.9764 49.6017 41.5213 49.7917C41.0662 49.9817 40.565 50.0323 40.0811 49.9372C39.5972 49.8421 39.1524 49.6055 38.803 49.2574C38.4537 48.9094 38.2155 48.4654 38.1186 47.9819C38.0217 47.4983 38.0705 46.9969 38.2589 46.5411C38.4472 46.0853 38.7665 45.6957 39.1764 45.4215C39.5863 45.1473 40.0684 45.001 40.5616 45.001C41.2208 45.001 41.8531 45.2622 42.3201 45.7275C42.7871 46.1928 43.0507 46.8242 43.0531 47.4834Z" fill="#E0E0E0"/>
<path d="M50.3101 47.4834C50.3119 47.9766 50.1673 48.4592 49.8947 48.8701C49.622 49.281 49.2335 49.6017 48.7784 49.7917C48.3233 49.9817 47.822 50.0323 47.3381 49.9372C46.8542 49.8421 46.4095 49.6055 46.0601 49.2574C45.7108 48.9094 45.4726 48.4654 45.3757 47.9819C45.2788 47.4983 45.3276 46.9969 45.5159 46.5411C45.7042 46.0853 46.0236 45.6957 46.4335 45.4215C46.8434 45.1473 47.3255 45.001 47.8186 45.001C48.4779 45.001 49.1102 45.2622 49.5772 45.7275C50.0442 46.1928 50.3077 46.8242 50.3101 47.4834Z" fill="#E0E0E0"/>
<path d="M255.365 55.293H24.8606V74.7539H255.365V55.293Z" fill="#E0E0E0"/>
<path d="M255.365 86.0332H25.2139V149.988H255.365V86.0332Z" fill="#EBEBEB"/>
<path d="M253.29 160.996C253.29 161.123 203.968 161.232 143.139 161.232C82.31 161.232 32.9783 161.123 32.9783 160.996C32.9783 160.869 82.2918 160.761 143.139 160.761C203.986 160.761 253.29 160.86 253.29 160.996Z" fill="#E0E0E0"/>
<path d="M253.29 166.866C253.29 166.993 203.968 167.102 143.139 167.102C82.31 167.102 32.9783 166.993 32.9783 166.866C32.9783 166.74 82.2918 166.631 143.139 166.631C203.986 166.631 253.29 166.703 253.29 166.866Z" fill="#E0E0E0"/>
<path d="M118.858 196.602C118.858 196.738 100.022 196.837 76.7924 196.837C53.5626 196.837 34.7178 196.738 34.7178 196.602C34.7178 196.466 53.5535 196.366 76.7924 196.366C100.031 196.366 118.858 196.439 118.858 196.602Z" fill="#E0E0E0"/>
<path d="M118.858 202.437C118.858 202.573 100.022 202.672 76.7924 202.672C53.5626 202.672 34.7178 202.573 34.7178 202.437C34.7178 202.301 53.5535 202.201 76.7924 202.201C100.031 202.201 118.858 202.31 118.858 202.437Z" fill="#E0E0E0"/>
<path d="M118.858 208.307C118.858 208.443 100.022 208.542 76.7924 208.542C53.5626 208.542 34.7178 208.443 34.7178 208.307C34.7178 208.171 53.5535 208.071 76.7924 208.071C100.031 208.071 118.858 208.18 118.858 208.307Z" fill="#E0E0E0"/>
<path d="M118.858 214.441C118.858 214.567 100.022 214.676 76.7924 214.676C53.5626 214.676 34.7178 214.567 34.7178 214.441C34.7178 214.314 53.5535 214.205 76.7924 214.205C100.031 214.205 118.858 214.314 118.858 214.441Z" fill="#E0E0E0"/>
<path d="M49.568 187.332C50.156 183.737 47.7184 180.346 44.1235 179.758C40.5286 179.17 37.1377 181.608 36.5496 185.203C35.9616 188.798 38.3991 192.189 41.994 192.777C45.5889 193.365 48.9799 190.927 49.568 187.332Z" fill="#EBEBEB"/>
<path d="M78.1245 187.795C78.1245 187.931 73.0871 188.031 66.8719 188.031C60.6568 188.031 55.6104 187.931 55.6104 187.795C55.6104 187.659 60.6477 187.56 66.8719 187.56C73.0961 187.56 78.1245 187.668 78.1245 187.795Z" fill="#E0E0E0"/>
<path d="M230.949 193.884C230.949 194.02 213.735 194.12 192.434 194.12C171.134 194.12 153.92 194.02 153.92 193.884C153.92 193.748 171.134 193.648 192.434 193.648C213.735 193.648 230.949 193.73 230.949 193.884Z" fill="#E0E0E0"/>
<path d="M230.949 199.728C230.949 199.864 213.735 199.963 192.434 199.963C171.134 199.963 153.92 199.864 153.92 199.728C153.92 199.592 171.134 199.492 192.434 199.492C213.735 199.492 230.949 199.601 230.949 199.728Z" fill="#E0E0E0"/>
<path d="M230.949 205.599C230.949 205.735 213.735 205.834 192.434 205.834C171.134 205.834 153.92 205.735 153.92 205.599C153.92 205.463 171.134 205.363 192.434 205.363C213.735 205.363 230.949 205.472 230.949 205.599Z" fill="#E0E0E0"/>
<path d="M230.949 211.732C230.949 211.858 213.735 211.967 192.434 211.967C171.134 211.967 153.92 211.858 153.92 211.732C153.92 211.605 171.134 211.496 192.434 211.496C213.735 211.496 230.949 211.605 230.949 211.732Z" fill="#E0E0E0"/>
<path d="M168.665 185.072C169.504 181.527 167.311 177.973 163.766 177.134C160.221 176.295 156.667 178.488 155.828 182.033C154.989 185.578 157.182 189.132 160.727 189.971C164.272 190.81 167.825 188.617 168.665 185.072Z" fill="#EBEBEB"/>
<path d="M197.327 185.086C197.327 185.222 192.28 185.322 186.065 185.322C179.85 185.322 174.804 185.222 174.804 185.086C174.804 184.95 179.841 184.851 186.065 184.851C192.29 184.851 197.327 184.959 197.327 185.086Z" fill="#E0E0E0"/>
<path d="M171.488 148.583C171.373 148.493 171.27 148.39 171.18 148.275L170.328 147.315L167.13 143.564L155.497 129.666C150.595 123.759 144.779 116.756 138.283 108.991C137.56 107.981 136.683 107.091 135.683 106.355C134.642 105.672 133.438 105.281 132.194 105.222C130.934 105.176 129.684 105.464 128.57 106.056C127.462 106.781 126.451 107.646 125.563 108.629L113.304 120.497L104.589 128.896L104.344 129.141L104.063 128.941L91.8956 120.352L88.9964 118.305C88.1211 117.592 87.1516 117.004 86.1153 116.556C85.1187 116.181 84.0493 116.038 82.9891 116.14C81.929 116.242 80.9063 116.586 79.9998 117.145C79.1338 117.729 78.3558 118.434 77.6895 119.238L75.5423 121.512L71.4381 125.852L64.1086 133.598L53.5627 144.633L50.736 147.596C50.428 147.895 50.1743 148.14 49.975 148.348C49.8931 148.439 49.7985 148.519 49.6941 148.583C49.7578 148.478 49.8338 148.381 49.9206 148.294L50.6182 147.487L53.3362 144.425L63.7099 133.181L70.9579 125.372L75.0258 120.996L77.164 118.685C77.8737 117.837 78.6969 117.09 79.6102 116.466C80.6124 115.842 81.7442 115.455 82.9188 115.336C84.0935 115.216 85.2798 115.367 86.3871 115.777C86.9559 115.986 87.4973 116.263 87.9998 116.602L89.4313 117.598L92.3486 119.646L104.543 128.207H104.009L112.715 119.809L124.983 108.031C125.926 106.986 127.005 106.072 128.19 105.313C129.425 104.644 130.818 104.324 132.221 104.387C133.623 104.449 134.983 104.891 136.154 105.666C137.22 106.447 138.156 107.392 138.926 108.466C145.322 116.285 151.094 123.324 155.959 129.258C160.824 135.193 164.647 139.949 167.383 143.329L170.455 147.179C170.781 147.587 171.035 147.922 171.243 148.194C171.342 148.312 171.424 148.443 171.488 148.583Z" fill="white"/>
<path d="M110.532 102.731C110.46 102.731 110.532 102.025 110.152 100.829C109.681 99.1506 108.664 97.6775 107.261 96.6429C106.132 95.7968 104.789 95.2819 103.383 95.1558C101.978 95.0297 100.565 95.2974 99.3028 95.9289C98.0407 96.5604 96.9793 97.5308 96.2375 98.7314C95.4958 99.932 95.1029 101.315 95.1029 102.727C95.1029 104.138 95.4958 105.521 96.2375 106.722C96.9793 107.923 98.0407 108.893 99.3028 109.525C100.565 110.156 101.978 110.424 103.383 110.298C104.789 110.172 106.132 109.657 107.261 108.81C108.665 107.777 109.683 106.304 110.152 104.625C110.487 103.429 110.46 102.722 110.532 102.731C110.605 102.74 110.532 102.903 110.577 103.239C110.58 103.726 110.525 104.213 110.414 104.688C110.026 106.487 109.016 108.092 107.56 109.218C106.353 110.143 104.91 110.712 103.396 110.86C101.882 111.008 100.357 110.73 98.9926 110.056C97.6285 109.383 96.48 108.341 95.6769 107.049C94.8738 105.757 94.4482 104.266 94.4482 102.745C94.4482 101.224 94.8738 99.7326 95.6769 98.4405C96.48 97.1484 97.6285 96.1068 98.9926 95.4333C100.357 94.7599 101.882 94.4814 103.396 94.6296C104.91 94.7777 106.353 95.3464 107.56 96.2715C109.014 97.3996 110.024 99.0032 110.414 100.801C110.525 101.28 110.58 101.769 110.577 102.26C110.532 102.55 110.532 102.731 110.532 102.731Z" fill="white"/>
<path d="M364.737 51.1255C365.825 50.4702 366.995 49.9615 368.217 49.6125L368.932 46.1788L374.74 46.0791L375.573 49.4857C376.804 49.789 377.99 50.2552 379.098 50.8718L382.033 48.9239L386.21 52.9556L384.398 55.9545C385.049 57.0436 385.554 58.2132 385.902 59.4335L389.344 60.1493L389.444 65.9567L386.028 66.7903C385.728 68.0224 385.262 69.2081 384.642 70.3146L386.572 73.25L382.531 77.4358L379.532 75.6238C378.449 76.2799 377.282 76.7859 376.062 77.1277L375.347 80.5705L369.539 80.6702L368.742 77.2817C367.513 76.9704 366.329 76.5046 365.218 75.8956L362.282 77.8163L358.106 73.7846L359.918 70.7767C359.262 69.6918 358.754 68.525 358.405 67.3067L354.971 66.5909L354.862 60.7835L358.278 59.9409C358.579 58.7121 359.046 57.5297 359.664 56.4256L357.707 53.4539L361.739 49.2773L364.737 51.0893V51.1255ZM367.836 58.8899C366.98 59.7769 366.406 60.8977 366.187 62.1108C365.968 63.3239 366.113 64.5748 366.605 65.7052C367.096 66.8356 367.912 67.7949 368.949 68.4617C369.986 69.1285 371.197 69.4729 372.43 69.4514C373.662 69.4299 374.861 69.0434 375.873 68.3407C376.886 67.6381 377.668 66.6509 378.12 65.504C378.572 64.3571 378.674 63.1019 378.412 61.8972C378.151 60.6925 377.538 59.5924 376.651 58.7359C376.063 58.1671 375.367 57.7198 374.606 57.4197C373.844 57.1196 373.03 56.9725 372.212 56.9868C371.393 57.0011 370.585 57.1765 369.835 57.503C369.084 57.8296 368.405 58.3009 367.836 58.8899Z" fill="#F5F5F5"/>
<path d="M384.878 329.693C384.743 322.626 382.015 315.854 377.213 310.667C374.894 320.198 384.878 329.693 384.878 329.693Z" fill="#EBEBEB"/>
<path d="M373.752 324.348C367.211 321.645 359.904 321.442 353.222 323.777C361.059 329.666 373.752 324.348 373.752 324.348Z" fill="#EBEBEB"/>
<path d="M372.484 318.105C373.545 312.625 372.552 306.945 369.693 302.15C366.332 309.154 372.484 318.105 372.484 318.105Z" fill="#EBEBEB"/>
<path d="M415.528 295.764C399.22 300.094 390.531 314.246 390.531 314.246C404.438 314.255 415.528 295.764 415.528 295.764Z" fill="#EBEBEB"/>
<path d="M389.58 302.432C390.432 284.891 373.272 265.041 373.272 265.041C375.854 286.785 389.58 302.432 389.58 302.432Z" fill="#EBEBEB"/>
<path d="M389.625 252.475C389.283 261.261 391.418 269.967 395.786 277.598C398.205 266.364 389.625 252.475 389.625 252.475Z" fill="#EBEBEB"/>
<path d="M396.23 288.108C409.059 286.731 416.035 273.975 416.035 273.975C400.524 278.323 396.23 288.108 396.23 288.108Z" fill="#EBEBEB"/>
<path d="M423.89 341.734C417.875 338.01 410.699 336.629 403.732 337.857C410.5 344.978 423.89 341.734 423.89 341.734Z" fill="#EBEBEB"/>
<path d="M390.658 347.496C392.295 351.649 395.351 355.087 399.283 357.199C398.731 351.283 390.658 347.496 390.658 347.496Z" fill="#EBEBEB"/>
<path d="M392.298 345.603C396.932 348.286 402.363 349.248 407.636 348.321C402.708 343.193 392.298 345.603 392.298 345.603Z" fill="#EBEBEB"/>
<path d="M385.757 369.213C385.769 369.126 385.769 369.037 385.757 368.95V368.189C385.757 367.473 385.757 366.486 385.757 365.253C385.757 364.021 385.757 362.418 385.757 360.606C385.757 358.794 385.757 356.728 385.883 354.445C385.992 349.915 386.318 344.479 386.789 338.454C387.261 332.429 388.04 325.861 389.045 318.975C390.801 307.22 393.145 295.56 396.067 284.04C397.181 279.618 398.133 276.049 398.785 273.593C399.102 272.397 399.365 271.446 399.546 270.758L399.736 270.015C399.761 269.929 399.777 269.841 399.781 269.752C399.736 269.828 399.703 269.911 399.682 269.997C399.609 270.196 399.537 270.431 399.437 270.721C399.229 271.41 398.93 272.343 398.531 273.53C397.779 275.967 396.719 279.528 395.596 283.94C392.606 295.459 390.253 307.134 388.547 318.912C387.541 325.815 386.826 332.42 386.327 338.436C385.829 344.452 385.612 349.897 385.548 354.463C385.485 356.746 385.503 358.812 385.503 360.624C385.503 362.436 385.503 364.003 385.575 365.281C385.648 366.558 385.657 367.5 385.684 368.216C385.684 368.524 385.684 368.778 385.684 368.986C385.695 369.065 385.719 369.142 385.757 369.213Z" fill="#E0E0E0"/>
<path d="M409.295 332.085C409.204 331.959 404.022 335.356 397.716 339.678C391.41 343.999 386.373 347.605 386.463 347.741C386.554 347.877 391.736 344.47 398.042 340.149C404.348 335.827 409.385 332.221 409.295 332.085Z" fill="#E0E0E0"/>
<path d="M386.463 333.96C386.241 333.623 385.973 333.318 385.666 333.054L383.356 330.826L375.655 323.578L367.945 316.33L365.607 314.137C365.339 313.846 365.034 313.59 364.701 313.376C364.911 313.709 365.164 314.014 365.453 314.282C365.951 314.853 366.712 315.641 367.664 316.61C369.557 318.54 372.239 321.14 375.256 323.967C378.273 326.794 381.054 329.285 383.084 331.07C384.099 331.976 384.896 332.683 385.521 333.163C385.8 333.468 386.116 333.736 386.463 333.96Z" fill="#E0E0E0"/>
<path d="M425.756 323.777C425.756 323.777 412.502 323.523 406.894 333.96C410.614 333.851 414.257 332.873 417.532 331.105C420.807 329.337 423.624 326.827 425.756 323.777Z" fill="#EBEBEB"/>
<path d="M407.7 318.459C407.7 318.459 396.91 326.151 398.64 337.875C401.558 335.568 403.897 332.611 405.47 329.24C407.043 325.869 407.807 322.177 407.7 318.459Z" fill="#EBEBEB"/>
<path d="M350.821 299.496C350.821 299.496 355.079 314.327 368.606 316.991C367.209 312.891 364.874 309.174 361.786 306.137C358.698 303.1 354.944 300.826 350.821 299.496Z" fill="#EBEBEB"/>
<path d="M413.544 244.339C413.544 244.339 396.638 255.374 398.504 273.331C403.098 270.006 406.85 265.652 409.462 260.618C412.073 255.584 413.471 250.009 413.544 244.339Z" fill="#EBEBEB"/>
<path d="M357.272 342.468C357.602 342.811 357.969 343.115 358.368 343.374C359.102 343.908 360.135 344.697 361.403 345.693C364.679 348.292 367.74 351.153 370.554 354.246C373.349 357.372 375.883 360.724 378.128 364.266C378.989 365.634 379.659 366.749 380.112 367.537C380.321 367.957 380.573 368.355 380.864 368.724C380.726 368.272 380.538 367.837 380.303 367.428C379.922 366.613 379.297 365.453 378.491 364.058C374.168 356.768 368.451 350.401 361.666 345.322C360.361 344.352 359.283 343.609 358.513 343.138C358.122 342.876 357.706 342.652 357.272 342.468Z" fill="#E0E0E0"/>
<path d="M371.986 353.457C373.209 346.489 371.826 339.313 368.099 333.299C366.278 345.865 371.986 353.457 371.986 353.457Z" fill="#EBEBEB"/>
<path d="M360.588 347.252C356.115 344.705 350.862 343.892 345.829 344.969C354.01 349.299 360.588 347.252 360.588 347.252Z" fill="#EBEBEB"/>
<path d="M410.409 370.599L404.067 412.284H367.211L358.658 371.197L410.409 370.599Z" fill="#EBEBEB"/>
<path d="M363.813 397.317C363.813 397.435 373.254 397.525 384.896 397.525C396.538 397.525 405.988 397.435 405.988 397.317C405.988 397.199 396.547 397.1 384.896 397.1C373.245 397.1 363.813 397.19 363.813 397.317Z" fill="#FAFAFA"/>
<path d="M363.668 395.26C363.668 395.378 373.172 395.478 384.896 395.478C396.62 395.478 406.133 395.378 406.133 395.26C406.133 395.143 396.629 395.043 384.896 395.043C373.163 395.043 363.668 395.143 363.668 395.26Z" fill="#FAFAFA"/>
<path d="M363.741 392.95C363.741 393.068 373.245 393.167 384.968 393.167C396.692 393.167 406.205 393.068 406.205 392.95C406.205 392.832 396.701 392.732 384.968 392.732C373.236 392.732 363.741 392.823 363.741 392.95Z" fill="#FAFAFA"/>
<path d="M399.827 409.901C400.714 406.431 401.32 402.895 401.639 399.328C400.753 402.798 400.147 406.334 399.827 409.901Z" fill="#FAFAFA"/>
<path d="M397.326 409.457C397.584 407.762 397.735 406.052 397.779 404.338C397.965 402.632 398.047 400.917 398.024 399.201C397.622 400.876 397.394 402.589 397.344 404.311C397.159 406.021 397.153 407.746 397.326 409.457Z" fill="#FAFAFA"/>
<path d="M392.751 409.457C393.259 407.748 393.581 405.989 393.711 404.211C393.99 402.447 394.084 400.659 393.992 398.875C393.659 400.621 393.423 402.385 393.286 404.157C393.006 405.912 392.828 407.682 392.751 409.457Z" fill="#FAFAFA"/>
<path d="M389.58 409.684C389.934 407.928 390.107 406.14 390.096 404.348C390.216 402.559 390.162 400.763 389.933 398.984C389.737 400.759 389.646 402.544 389.661 404.33C389.536 406.112 389.509 407.899 389.58 409.684Z" fill="#FAFAFA"/>
<path d="M383.872 409.457C384.142 407.786 384.269 406.095 384.253 404.402C384.389 402.71 384.374 401.009 384.207 399.319C383.939 400.994 383.811 402.688 383.827 404.384C383.69 406.073 383.705 407.771 383.872 409.457Z" fill="#FAFAFA"/>
<path d="M379.723 409.684C379.924 407.943 379.982 406.189 379.895 404.439C379.954 402.692 379.867 400.943 379.632 399.211C379.436 400.949 379.378 402.7 379.46 404.448C379.406 406.197 379.494 407.949 379.723 409.684Z" fill="#FAFAFA"/>
<path d="M375.836 409.122C375.869 407.305 375.763 405.487 375.519 403.686C375.414 401.857 375.166 400.04 374.776 398.25C374.735 400.082 374.838 401.915 375.084 403.731C375.19 405.545 375.441 407.348 375.836 409.122Z" fill="#FAFAFA"/>
<path d="M370.817 408.606C370.812 407.034 370.605 405.468 370.201 403.949C369.942 402.385 369.479 400.862 368.823 399.419C369.056 400.963 369.374 402.494 369.775 404.003C370.038 405.555 370.386 407.092 370.817 408.606Z" fill="#FAFAFA"/>
<path d="M414.64 362.336V370.137C414.64 370.951 414.316 371.732 413.74 372.308C413.164 372.884 412.383 373.208 411.569 373.208H358.196C357.382 373.208 356.6 372.884 356.024 372.308C355.448 371.732 355.125 370.951 355.125 370.137V362.336H414.64Z" fill="#EBEBEB"/>
<path d="M410.01 373.208L409.566 375.7L360.325 379.206L359.075 373.208H410.01Z" fill="#E0E0E0"/>
<path d="M385.44 88.4621C387.141 87.4401 388.968 86.6451 390.876 86.0975L391.999 80.7158L401.104 80.5527L402.418 85.8981C404.345 86.3754 406.201 87.1066 407.936 88.0725L412.538 85.0555L419.088 91.3975L416.244 96.0997C417.263 97.8019 418.058 99.6291 418.608 101.536L424.008 102.65L424.171 111.71L418.826 113.015C418.35 114.945 417.619 116.804 416.651 118.541L419.668 123.144L413.326 129.694L408.606 126.886C406.908 127.913 405.079 128.708 403.17 129.25L402.047 134.686L392.987 134.849L391.673 129.504C389.745 129.027 387.89 128.295 386.155 127.33L381.553 130.346L375.002 124.004L377.856 119.293C376.829 117.595 376.033 115.767 375.492 113.857L370.056 112.734L369.893 103.629L375.238 102.315C375.714 100.387 376.445 98.5314 377.412 96.7973L374.395 92.1948L380.737 85.6445L385.449 88.4893L385.44 88.4621ZM390.287 100.566C388.946 101.956 388.048 103.713 387.705 105.614C387.363 107.514 387.591 109.474 388.362 111.245C389.133 113.015 390.412 114.518 392.037 115.562C393.661 116.606 395.559 117.145 397.49 117.111C399.421 117.077 401.298 116.471 402.885 115.37C404.472 114.269 405.696 112.722 406.404 110.925C407.112 109.128 407.271 107.162 406.862 105.274C406.452 103.387 405.492 101.664 404.103 100.322C402.237 98.5252 399.734 97.5422 397.144 97.5881C394.554 97.6339 392.088 98.7049 390.287 100.566Z" fill="#EBEBEB"/>
<path d="M418.681 411.986C418.681 412.112 332.611 412.221 226.509 412.221C120.407 412.221 34.3193 412.112 34.3193 411.986C34.3193 411.859 120.389 411.75 226.509 411.75C332.629 411.75 418.681 411.859 418.681 411.986Z" fill="#263238"/>
<path d="M315.587 411.189L194.709 411.116C187.734 411.099 181.052 408.317 176.126 403.38C171.201 398.442 168.435 391.753 168.435 384.779L168.498 81.7307C168.498 74.7543 171.267 68.063 176.197 63.1265C181.126 58.1901 187.814 55.4119 194.79 55.4023L315.669 55.4748C322.65 55.4772 329.344 58.2522 334.28 63.1894C339.215 68.1267 341.988 74.822 341.988 81.8032L341.925 384.86C341.925 388.318 341.243 391.743 339.92 394.938C338.596 398.133 336.656 401.035 334.21 403.48C331.764 405.925 328.861 407.864 325.665 409.187C322.47 410.51 319.045 411.19 315.587 411.189Z" fill="#263238"/>
<path d="M315.551 66.193H292.113C290.571 66.2287 289.106 66.8744 288.039 67.9885C286.972 69.1027 286.391 70.5943 286.423 72.1364V76.3946C286.454 77.9367 285.873 79.4283 284.807 80.5425C283.74 81.6566 282.275 82.3023 280.733 82.338H235.044C233.5 82.3023 232.034 81.6554 230.967 80.5393C229.9 79.4231 229.32 77.9291 229.354 76.3855V72.0911C229.388 70.5475 228.808 69.0535 227.741 67.9374C226.674 66.8213 225.208 66.1743 223.664 66.1387H194.908C192.485 66.1363 190.086 66.6115 187.848 67.5371C185.61 68.4627 183.575 69.8205 181.862 71.5329C180.149 73.2453 178.79 75.2787 177.863 77.5167C176.937 79.7547 176.46 82.1535 176.462 84.5758L176.398 380.376C176.398 385.266 178.34 389.957 181.798 393.416C185.255 396.875 189.945 398.819 194.835 398.822L315.469 398.894C317.892 398.897 320.291 398.422 322.53 397.496C324.769 396.571 326.804 395.213 328.518 393.501C330.232 391.788 331.592 389.755 332.519 387.517C333.447 385.279 333.924 382.88 333.924 380.457L333.979 84.6483C333.982 82.226 333.508 79.8267 332.584 77.5878C331.659 75.3489 330.302 73.3142 328.591 71.6001C326.879 69.886 324.847 68.5262 322.609 67.5984C320.372 66.6706 317.973 66.193 315.551 66.193Z" fill="white"/>
<path d="M333.943 140.611H176.444V243.551H333.943V140.611Z" fill="#AA7FBE"/>
<path d="M295.637 105.857H196.104C190.665 105.857 186.256 110.267 186.256 115.706V117.78C186.256 123.219 190.665 127.629 196.104 127.629H295.637C301.076 127.629 305.485 123.219 305.485 117.78V115.706C305.485 110.267 301.076 105.857 295.637 105.857Z" fill="#EBEBEB"/>
<path d="M318.64 112.308C320.081 112.308 321.25 111.14 321.25 109.699C321.25 108.258 320.081 107.09 318.64 107.09C317.199 107.09 316.031 108.258 316.031 109.699C316.031 111.14 317.199 112.308 318.64 112.308Z" fill="#263238"/>
<path d="M321.24 116.747C321.244 117.265 321.094 117.771 320.809 118.203C320.524 118.635 320.117 118.972 319.64 119.172C319.163 119.372 318.638 119.426 318.13 119.326C317.622 119.227 317.156 118.979 316.789 118.614C316.423 118.249 316.173 117.783 316.072 117.276C315.971 116.768 316.023 116.243 316.221 115.765C316.42 115.287 316.756 114.879 317.186 114.593C317.617 114.306 318.123 114.154 318.64 114.156C319.328 114.156 319.988 114.429 320.476 114.915C320.963 115.4 321.238 116.059 321.24 116.747Z" fill="#263238"/>
<path d="M318.64 126.405C320.081 126.405 321.25 125.237 321.25 123.796C321.25 122.355 320.081 121.187 318.64 121.187C317.199 121.187 316.031 122.355 316.031 123.796C316.031 125.237 317.199 126.405 318.64 126.405Z" fill="#263238"/>
<path d="M320.724 262.351C320.724 262.487 291.37 262.586 255.166 262.586C218.962 262.586 189.608 262.487 189.608 262.351C189.608 262.215 218.953 262.115 255.166 262.115C291.379 262.115 320.724 262.224 320.724 262.351Z" fill="#263238"/>
<path d="M320.724 272.706C320.724 272.842 291.37 272.942 255.166 272.942C218.962 272.942 189.608 272.842 189.608 272.706C189.608 272.57 218.953 272.471 255.166 272.471C291.379 272.471 320.724 272.561 320.724 272.706Z" fill="#263238"/>
<path d="M320.724 283.026C320.724 283.162 291.37 283.261 255.166 283.261C218.962 283.261 189.608 283.162 189.608 283.026C189.608 282.89 218.953 282.79 255.166 282.79C291.379 282.79 320.724 282.899 320.724 283.026Z" fill="#263238"/>
<path d="M320.724 293.363C320.724 293.499 291.37 293.599 255.166 293.599C218.962 293.599 189.608 293.499 189.608 293.363C189.608 293.228 218.953 293.128 255.166 293.128C291.379 293.128 320.724 293.237 320.724 293.363Z" fill="#263238"/>
<path d="M320.724 303.7C320.724 303.836 291.37 303.936 255.166 303.936C218.962 303.936 189.608 303.836 189.608 303.7C189.608 303.564 218.953 303.465 255.166 303.465C291.379 303.465 320.724 303.574 320.724 303.7Z" fill="#263238"/>
<path d="M320.724 314.038C320.724 314.174 291.37 314.274 255.166 314.274C218.962 314.274 189.608 314.174 189.608 314.038C189.608 313.902 218.953 313.803 255.166 313.803C291.379 313.803 320.724 313.911 320.724 314.038Z" fill="#263238"/>
<path d="M320.724 359.139C320.724 359.275 291.37 359.374 255.166 359.374C218.962 359.374 189.608 359.275 189.608 359.139C189.608 359.003 218.953 358.903 255.166 358.903C291.379 358.903 320.724 359.012 320.724 359.139Z" fill="#263238"/>
<path d="M320.724 367.954C320.724 368.081 291.37 368.19 255.166 368.19C218.962 368.19 189.608 368.081 189.608 367.954C189.608 367.827 218.953 367.719 255.166 367.719C291.379 367.719 320.724 367.837 320.724 367.954Z" fill="#263238"/>
<path d="M320.724 376.761C320.724 376.897 291.37 376.997 255.166 376.997C218.962 376.997 189.608 376.897 189.608 376.761C189.608 376.625 218.953 376.525 255.166 376.525C291.379 376.525 320.724 376.634 320.724 376.761Z" fill="#263238"/>
<path d="M204.14 351.093C210.124 351.093 214.976 346.242 214.976 340.258C214.976 334.273 210.124 329.422 204.14 329.422C198.156 329.422 193.304 334.273 193.304 340.258C193.304 346.242 198.156 351.093 204.14 351.093Z" fill="#AA7FBE"/>
<path d="M266.944 338.056C266.944 338.192 257.431 338.291 245.698 338.291C233.966 338.291 224.462 338.192 224.462 338.056C224.462 337.92 233.966 337.82 245.698 337.82C257.431 337.82 266.944 337.938 266.944 338.056Z" fill="#263238"/>
<path d="M318.169 230.514C318.05 230.42 317.941 230.314 317.843 230.197L316.937 229.2L313.63 225.323L301.598 210.963L283.85 189.581C283.089 188.541 282.172 187.624 281.132 186.863C280.051 186.153 278.799 185.75 277.508 185.694C276.197 185.635 274.894 185.932 273.739 186.555C272.593 187.302 271.548 188.195 270.631 189.21C266.527 193.16 262.287 197.255 257.947 201.45L248.942 210.129L248.679 210.383L248.389 210.174L235.814 201.296L232.815 199.185C231.908 198.448 230.905 197.839 229.834 197.373C228.8 196.985 227.691 196.84 226.592 196.946C225.493 197.053 224.432 197.41 223.492 197.989C222.604 198.596 221.802 199.322 221.109 200.145L218.89 202.501C217.431 204.05 216.009 205.545 214.65 207.031L207.075 215.031L196.203 226.482L193.232 229.536L192.443 230.315C192.363 230.41 192.268 230.493 192.163 230.559C192.223 230.449 192.299 230.348 192.389 230.26L193.114 229.427L195.977 226.265L206.686 214.641L214.187 206.569L218.391 202.039L220.602 199.665C221.337 198.787 222.187 198.013 223.13 197.364C224.166 196.721 225.336 196.323 226.55 196.201C227.763 196.078 228.989 196.234 230.133 196.657C230.724 196.873 231.286 197.159 231.809 197.509L233.286 198.541L236.294 200.652L248.905 209.504L248.362 209.549L257.358 200.861L270.042 188.648C271.022 187.576 272.137 186.635 273.358 185.848C274.655 185.159 276.113 184.831 277.58 184.897C279.011 184.969 280.397 185.423 281.594 186.211C282.697 187.018 283.664 187.996 284.457 189.11L302.069 210.6C307.025 216.707 311.048 221.663 313.847 225.142L317.028 229.128L317.834 230.179C317.96 230.275 318.073 230.388 318.169 230.514Z" fill="white"/>
<path d="M258.129 167.257C258.038 167.257 258.065 166.351 257.657 164.865C257.068 162.752 255.793 160.894 254.033 159.583C252.606 158.523 250.912 157.88 249.141 157.726C247.369 157.572 245.59 157.913 244.001 158.712C242.412 159.511 241.077 160.736 240.143 162.249C239.21 163.763 238.716 165.506 238.716 167.284C238.716 169.063 239.21 170.806 240.143 172.319C241.077 173.833 242.412 175.058 244.001 175.856C245.59 176.655 247.369 176.997 249.141 176.843C250.912 176.689 252.606 176.046 254.033 174.985C255.79 173.671 257.064 171.815 257.657 169.703C258.065 168.19 258.038 167.302 258.129 167.302C258.219 167.302 258.183 167.529 258.192 167.946C258.191 168.556 258.122 169.164 257.984 169.758C257.48 172.021 256.197 174.034 254.36 175.447C253.276 176.291 252.034 176.908 250.707 177.264C249.38 177.619 247.996 177.705 246.635 177.517C245.275 177.329 243.966 176.87 242.786 176.167C241.606 175.465 240.578 174.533 239.764 173.427C238.446 171.648 237.735 169.493 237.735 167.28C237.735 165.066 238.446 162.911 239.764 161.133C240.578 160.027 241.605 159.095 242.785 158.393C243.965 157.69 245.274 157.231 246.634 157.041C247.994 156.852 249.378 156.937 250.705 157.291C252.032 157.645 253.274 158.261 254.36 159.103C256.194 160.523 257.476 162.538 257.984 164.802C258.122 165.396 258.191 166.004 258.192 166.614C258.21 167.04 258.21 167.257 258.129 167.257Z" fill="white"/>
<path d="M333.943 382.532C332.964 389.227 330.011 392.942 326.233 395.415V140.104H333.943V382.532Z" fill="#F5F5F5"/>
<path d="M330.355 143.085H329.63C327.754 143.085 326.233 144.606 326.233 146.482V163.253C326.233 165.129 327.754 166.65 329.63 166.65H330.355C332.231 166.65 333.752 165.129 333.752 163.253V146.482C333.752 144.606 332.231 143.085 330.355 143.085Z" fill="#E0E0E0"/>
<path d="M356.864 382.703C376.174 382.703 391.827 367.05 391.827 347.741C391.827 328.432 376.174 312.778 356.864 312.778C337.555 312.778 321.902 328.432 321.902 347.741C321.902 367.05 337.555 382.703 356.864 382.703Z" fill="white"/>
<path d="M391.818 347.741C391.818 347.741 391.818 347.55 391.773 347.17C391.727 346.789 391.709 346.264 391.664 345.512C391.664 345.15 391.619 344.742 391.591 344.289C391.564 343.836 391.446 343.383 391.365 342.83C391.283 342.278 391.193 341.734 391.093 341.136C390.993 340.538 390.794 339.904 390.64 339.224C389.823 335.958 388.519 332.834 386.771 329.956C384.479 326.126 381.471 322.773 377.911 320.081L376.407 318.966C375.881 318.613 375.32 318.296 374.776 317.96C374.232 317.625 373.68 317.254 373.073 316.982L371.261 316.076L370.355 315.641L369.385 315.297L367.428 314.581C366.767 314.364 366.069 314.219 365.381 314.028C364.69 313.83 363.988 313.673 363.279 313.557C361.828 313.286 360.359 313.117 358.885 313.05C358.133 313.05 357.381 312.95 356.62 312.959L354.318 313.077C353.929 313.077 353.539 313.077 353.159 313.159L351.999 313.331C351.22 313.458 350.441 313.548 349.662 313.711C348.091 314.064 346.544 314.518 345.032 315.07C343.478 315.631 341.965 316.297 340.502 317.064C339.777 317.462 339.071 317.924 338.346 318.359C337.983 318.586 337.612 318.776 337.268 319.039L336.244 319.8C333.414 321.844 330.936 324.335 328.905 327.174L328.108 328.244L327.41 329.385L326.713 330.536C326.464 330.913 326.245 331.31 326.06 331.723L324.883 334.169C324.565 335.02 324.257 335.881 323.977 336.742C321.585 343.851 321.585 351.548 323.977 358.658C324.285 359.519 324.602 360.379 324.883 361.231L326.06 363.677C326.242 364.09 326.457 364.487 326.704 364.864L327.401 366.015L328.099 367.156L328.905 368.225C330.923 371.076 333.403 373.569 336.244 375.6L337.268 376.37C337.603 376.624 337.983 376.823 338.346 377.05C339.071 377.485 339.768 377.956 340.502 378.345C341.966 379.107 343.479 379.77 345.032 380.33C346.544 380.885 348.091 381.342 349.662 381.698C350.441 381.852 351.229 381.942 351.999 382.078L353.159 382.25C353.539 382.305 353.929 382.305 354.318 382.323L356.62 382.45C357.381 382.45 358.133 382.386 358.885 382.359C360.359 382.288 361.827 382.118 363.279 381.852C363.989 381.739 364.692 381.578 365.381 381.371C366.069 381.19 366.767 381.045 367.428 380.828L369.385 380.112L370.355 379.759L371.261 379.324L373.073 378.418C373.671 378.146 374.205 377.756 374.767 377.439C375.329 377.122 375.872 376.778 376.398 376.434L377.902 375.31C381.461 372.621 384.469 369.271 386.762 365.444C388.512 362.564 389.817 359.436 390.631 356.166C390.814 355.54 390.966 354.905 391.084 354.264C391.184 353.657 391.274 353.095 391.356 352.561C391.437 352.026 391.537 351.555 391.582 351.102C391.628 350.649 391.582 350.25 391.655 349.879C391.697 349.166 391.733 348.613 391.763 348.221C391.763 347.849 391.809 347.659 391.809 347.659C391.809 347.659 391.809 347.849 391.809 348.221C391.809 348.592 391.809 349.172 391.745 349.888C391.745 350.259 391.745 350.667 391.745 351.12C391.745 351.573 391.609 352.026 391.546 352.588C391.483 353.15 391.383 353.684 391.292 354.3C391.202 354.916 391.002 355.532 390.857 356.212C390.066 359.511 388.777 362.669 387.034 365.58C384.74 369.44 381.726 372.823 378.155 375.546L376.642 376.678C376.108 377.032 375.546 377.358 374.993 377.702C374.441 378.046 373.888 378.418 373.281 378.699L371.469 379.605L370.563 380.049L369.585 380.402L367.61 381.136C366.939 381.353 366.241 381.498 365.544 381.698C364.844 381.899 364.133 382.06 363.415 382.178C361.95 382.46 360.466 382.635 358.975 382.703C358.214 382.703 357.453 382.812 356.683 382.803L354.355 382.685C353.965 382.685 353.567 382.685 353.177 382.613L352.008 382.431C351.22 382.305 350.423 382.214 349.634 382.06C346.406 381.338 343.285 380.202 340.348 378.681C339.605 378.273 338.889 377.775 338.155 377.376C337.793 377.14 337.413 376.95 337.068 376.687L336.035 375.908C334.627 374.872 333.292 373.74 332.04 372.52C330.794 371.245 329.64 369.882 328.588 368.443L327.773 367.365L327.066 366.205L326.359 365.045C326.109 364.661 325.888 364.258 325.698 363.84L324.439 361.494L323.442 358.839C321.02 351.635 321.02 343.837 323.442 336.633C323.759 335.727 324.076 334.894 324.393 334.024C324.71 333.154 325.2 332.366 325.589 331.541C325.781 331.128 326.002 330.728 326.251 330.345L326.957 329.177L327.664 328.017L328.479 326.939C329.537 325.503 330.69 324.141 331.931 322.862C333.188 321.647 334.523 320.515 335.927 319.473L336.96 318.703C337.304 318.441 337.693 318.241 338.047 318.015C338.79 317.58 339.496 317.109 340.239 316.71C343.176 315.188 346.298 314.052 349.526 313.331C350.314 313.168 351.111 313.077 351.89 312.95L353.068 312.778C353.458 312.724 353.856 312.733 354.246 312.706L356.565 312.588C357.335 312.588 358.106 312.651 358.858 312.678C360.35 312.755 361.836 312.931 363.306 313.204C364.025 313.325 364.736 313.489 365.435 313.693C366.124 313.883 366.83 314.028 367.501 314.255L369.476 314.98L370.445 315.342L371.351 315.786L373.163 316.692C373.77 316.973 374.305 317.363 374.876 317.689C375.446 318.015 375.99 318.359 376.515 318.712L378.038 319.845C381.608 322.568 384.622 325.951 386.916 329.811C388.659 332.718 389.948 335.874 390.74 339.17C390.885 339.849 391.111 340.475 391.175 341.091C391.238 341.707 391.347 342.278 391.428 342.803C391.51 343.328 391.582 343.827 391.628 344.271C391.673 344.715 391.628 345.131 391.628 345.503C391.628 346.219 391.673 346.771 391.691 347.161C391.709 347.55 391.818 347.741 391.818 347.741Z" fill="#263238"/>
<path d="M341.227 340.819C340.987 340.819 340.756 340.723 340.586 340.553C340.416 340.383 340.321 340.153 340.321 339.913V331.759C340.321 331.518 340.416 331.288 340.586 331.118C340.756 330.948 340.987 330.853 341.227 330.853H349.245C349.485 330.853 349.716 330.948 349.886 331.118C350.055 331.288 350.151 331.518 350.151 331.759C350.151 331.999 350.055 332.229 349.886 332.399C349.716 332.569 349.485 332.665 349.245 332.665H342.133V339.913C342.133 340.153 342.037 340.383 341.867 340.553C341.698 340.723 341.467 340.819 341.227 340.819Z" fill="#AA7FBE"/>
<path d="M353.693 345.34C353.574 345.34 353.456 345.318 353.346 345.272C353.235 345.227 353.135 345.161 353.05 345.077L340.593 332.81C340.508 332.726 340.44 332.625 340.394 332.515C340.348 332.405 340.325 332.286 340.325 332.166C340.325 332.047 340.348 331.928 340.394 331.818C340.44 331.708 340.508 331.607 340.593 331.523C340.762 331.354 340.992 331.26 341.231 331.26C341.471 331.26 341.7 331.354 341.87 331.523L354.337 343.79C354.467 343.916 354.557 344.078 354.594 344.255C354.632 344.432 354.615 344.617 354.547 344.784C354.479 344.952 354.362 345.095 354.211 345.196C354.061 345.297 353.884 345.35 353.703 345.349L353.693 345.34Z" fill="#AA7FBE"/>
<path d="M349.272 364.629H341.118C340.878 364.629 340.647 364.533 340.478 364.364C340.308 364.194 340.212 363.963 340.212 363.723V355.705C340.212 355.465 340.308 355.234 340.478 355.064C340.647 354.894 340.878 354.799 341.118 354.799C341.358 354.799 341.589 354.894 341.759 355.064C341.929 355.234 342.024 355.465 342.024 355.705V362.817H349.272C349.512 362.817 349.743 362.912 349.913 363.082C350.083 363.252 350.178 363.483 350.178 363.723C350.178 363.963 350.083 364.194 349.913 364.364C349.743 364.533 349.512 364.629 349.272 364.629Z" fill="#AA7FBE"/>
<path d="M341.562 364.629C341.324 364.628 341.096 364.533 340.928 364.366C340.759 364.196 340.664 363.967 340.664 363.727C340.664 363.488 340.759 363.258 340.928 363.089L353.15 350.622C353.318 350.45 353.547 350.352 353.788 350.35C354.028 350.347 354.26 350.44 354.432 350.608C354.603 350.777 354.701 351.006 354.704 351.247C354.707 351.487 354.613 351.719 354.445 351.89L342.178 364.348C342.017 364.518 341.796 364.618 341.562 364.629Z" fill="#AA7FBE"/>
<path d="M372.656 340.819C372.416 340.819 372.185 340.723 372.015 340.553C371.845 340.383 371.75 340.153 371.75 339.913V332.665H364.638C364.398 332.665 364.167 332.569 363.997 332.399C363.827 332.229 363.732 331.999 363.732 331.759C363.732 331.518 363.827 331.288 363.997 331.118C364.167 330.948 364.398 330.853 364.638 330.853H372.656C372.896 330.853 373.127 330.948 373.297 331.118C373.467 331.288 373.562 331.518 373.562 331.759V339.913C373.562 340.153 373.467 340.383 373.297 340.553C373.127 340.723 372.896 340.819 372.656 340.819Z" fill="#AA7FBE"/>
<path d="M360.198 345.34C360.078 345.34 359.96 345.315 359.849 345.269C359.739 345.222 359.639 345.154 359.555 345.068C359.47 344.984 359.403 344.884 359.357 344.774C359.311 344.663 359.287 344.545 359.287 344.425C359.287 344.306 359.311 344.187 359.357 344.077C359.403 343.966 359.47 343.866 359.555 343.782L372.013 331.515C372.098 331.431 372.198 331.366 372.309 331.321C372.419 331.277 372.537 331.255 372.656 331.256C372.775 331.257 372.893 331.282 373.003 331.329C373.112 331.375 373.211 331.443 373.295 331.528C373.378 331.613 373.444 331.714 373.488 331.824C373.532 331.935 373.555 332.053 373.553 332.172C373.552 332.291 373.527 332.409 373.481 332.518C373.434 332.628 373.366 332.727 373.281 332.81L360.824 345.077C360.657 345.243 360.433 345.337 360.198 345.34Z" fill="#AA7FBE"/>
<path d="M372.765 364.629H364.611C364.37 364.629 364.14 364.533 363.97 364.364C363.8 364.194 363.705 363.963 363.705 363.723C363.705 363.483 363.8 363.252 363.97 363.082C364.14 362.912 364.37 362.817 364.611 362.817H371.859V355.705C371.859 355.465 371.954 355.234 372.124 355.064C372.294 354.894 372.524 354.799 372.765 354.799C373.005 354.799 373.235 354.894 373.405 355.064C373.575 355.234 373.671 355.465 373.671 355.705V363.723C373.671 363.963 373.575 364.194 373.405 364.364C373.235 364.533 373.005 364.629 372.765 364.629Z" fill="#AA7FBE"/>
<path d="M372.366 364.629C372.246 364.628 372.128 364.604 372.017 364.557C371.907 364.511 371.807 364.443 371.723 364.357L359.456 351.9C359.371 351.815 359.303 351.715 359.257 351.605C359.211 351.494 359.188 351.376 359.188 351.256C359.188 351.137 359.211 351.018 359.257 350.908C359.303 350.797 359.371 350.697 359.456 350.613C359.625 350.444 359.855 350.35 360.094 350.35C360.334 350.35 360.563 350.444 360.733 350.613L373 363.071C373.169 363.24 373.264 363.47 373.264 363.709C373.264 363.949 373.169 364.178 373 364.348C372.918 364.434 372.82 364.503 372.711 364.552C372.602 364.6 372.485 364.626 372.366 364.629Z" fill="#AA7FBE"/>
<path d="M356.864 301.081C376.173 301.081 391.827 285.428 391.827 266.119C391.827 246.81 376.173 231.156 356.864 231.156C337.555 231.156 321.902 246.81 321.902 266.119C321.902 285.428 337.555 301.081 356.864 301.081Z" fill="white"/>
<path d="M391.818 266.119C391.818 266.119 391.818 265.929 391.772 265.557C391.727 265.186 391.709 264.651 391.664 263.899C391.664 263.528 391.618 263.12 391.591 262.676C391.564 262.232 391.446 261.77 391.365 261.218C391.283 260.665 391.193 260.121 391.093 259.514C390.993 258.907 390.794 258.282 390.64 257.612C389.822 254.343 388.517 251.216 386.771 248.334C384.478 244.507 381.47 241.158 377.911 238.468L376.407 237.372C375.881 237.027 375.319 236.71 374.776 236.375C374.226 236.016 373.657 235.686 373.073 235.388L371.261 234.527L370.355 234.092L369.385 233.739L367.428 233.023C366.767 232.805 366.069 232.66 365.381 232.479C364.702 232.253 364.009 232.072 363.306 231.936C361.854 231.669 360.386 231.5 358.912 231.428C358.16 231.428 357.408 231.329 356.647 231.347L354.346 231.465C353.956 231.465 353.566 231.465 353.186 231.537L352.026 231.718C351.247 231.845 350.468 231.936 349.689 232.099C348.117 232.447 346.57 232.901 345.059 233.458C343.506 234.018 341.992 234.684 340.529 235.451C339.804 235.85 339.098 236.312 338.373 236.737C338.01 236.964 337.639 237.163 337.295 237.417L336.271 238.187C334.888 239.213 333.574 240.33 332.339 241.53C331.115 242.797 329.977 244.143 328.932 245.562L328.135 246.631L327.437 247.773L326.74 248.923C326.491 249.297 326.273 249.691 326.087 250.101C325.698 250.916 325.299 251.732 324.91 252.556C324.52 253.381 324.285 254.269 324.004 255.129C321.612 262.236 321.612 269.93 324.004 277.036C324.312 277.897 324.629 278.758 324.91 279.609C325.191 280.461 325.698 281.249 326.087 282.065C326.269 282.477 326.485 282.874 326.731 283.252L327.428 284.402L328.126 285.544L328.932 286.613C329.971 288.03 331.106 289.374 332.33 290.635C333.568 291.838 334.885 292.958 336.271 293.988L337.295 294.758C337.63 295.011 338.01 295.202 338.373 295.428C339.098 295.863 339.795 296.334 340.529 296.724C343.429 298.229 346.511 299.356 349.698 300.076C350.477 300.239 351.265 300.33 352.035 300.456L353.195 300.638C353.575 300.683 353.965 300.683 354.355 300.71L356.656 300.828C357.417 300.828 358.169 300.765 358.921 300.737C360.396 300.675 361.865 300.505 363.315 300.23C364.025 300.116 364.726 299.958 365.417 299.759C366.105 299.569 366.803 299.433 367.464 299.206L369.421 298.5L370.391 298.146L371.297 297.711L373.109 296.805C373.707 296.533 374.241 296.144 374.803 295.827C375.365 295.51 375.908 295.174 376.434 294.821L377.938 293.707C381.498 291.014 384.506 287.661 386.799 283.831C388.55 280.956 389.854 277.83 390.667 274.563C390.821 273.893 391.048 273.267 391.12 272.66C391.193 272.053 391.31 271.483 391.392 270.957C391.473 270.432 391.573 269.942 391.618 269.498C391.664 269.054 391.618 268.592 391.691 268.275C391.733 267.557 391.769 267.004 391.8 266.617C391.8 266.246 391.845 266.047 391.845 266.047C391.845 266.047 391.845 266.246 391.845 266.617C391.845 266.989 391.845 267.523 391.782 268.284C391.782 268.647 391.782 269.054 391.782 269.507C391.782 269.96 391.646 270.413 391.582 270.975C391.519 271.537 391.419 272.081 391.329 272.688C391.238 273.295 391.039 273.929 390.894 274.608C390.102 277.904 388.813 281.06 387.07 283.967C384.779 287.829 381.764 291.213 378.192 293.933L376.679 295.075C376.144 295.419 375.582 295.745 375.03 296.09C374.477 296.434 373.924 296.805 373.317 297.086L371.505 297.992L370.599 298.436L369.621 298.798L367.646 299.523C366.975 299.75 366.278 299.895 365.58 300.085C364.88 300.29 364.17 300.453 363.451 300.574C361.985 300.852 360.502 301.027 359.012 301.1C358.25 301.1 357.489 301.199 356.719 301.19L354.391 301.082C354.001 301.082 353.603 301.082 353.213 301L352.044 300.828C351.256 300.701 350.459 300.61 349.671 300.447C346.413 299.766 343.258 298.663 340.284 297.168C339.542 296.769 338.826 296.262 338.092 295.863C337.73 295.637 337.349 295.437 337.005 295.174L335.972 294.404C334.566 293.365 333.231 292.233 331.976 291.016C330.732 289.739 329.579 288.377 328.525 286.939L327.709 285.852L327.003 284.701L326.296 283.532C326.044 283.152 325.823 282.752 325.634 282.336L324.439 279.854C324.121 278.948 323.804 278.115 323.478 277.245C321.056 270.038 321.056 262.237 323.478 255.03L324.429 252.429C324.837 251.596 325.236 250.771 325.625 249.947C325.817 249.53 326.038 249.127 326.287 248.742L326.993 247.582L327.7 246.423L328.516 245.335C330.573 242.459 333.089 239.94 335.963 237.879L336.996 237.1C337.34 236.846 337.73 236.647 338.083 236.42C338.826 235.976 339.532 235.514 340.275 235.107C343.215 233.593 346.336 232.46 349.562 231.736C350.35 231.573 351.147 231.483 351.927 231.356L353.104 231.175C353.494 231.175 353.893 231.175 354.282 231.102L356.602 230.984C357.372 230.984 358.142 231.057 358.894 231.084C360.387 231.156 361.873 231.332 363.342 231.61C364.062 231.726 364.773 231.89 365.471 232.099C366.16 232.289 366.867 232.434 367.537 232.66L369.512 233.385L370.481 233.739L371.387 234.183L373.199 235.089C373.806 235.369 374.341 235.768 374.912 236.094C375.483 236.42 376.026 236.756 376.552 237.109L378.074 238.25C381.644 240.973 384.659 244.356 386.953 248.216C388.695 251.127 389.984 254.286 390.776 257.585C390.921 258.264 391.147 258.889 391.211 259.505C391.274 260.121 391.383 260.683 391.464 261.218C391.546 261.752 391.618 262.232 391.664 262.685C391.709 263.138 391.664 263.546 391.664 263.908C391.664 264.633 391.709 265.186 391.727 265.575C391.745 265.965 391.818 266.119 391.818 266.119Z" fill="#263238"/>
<path d="M357.055 237.372C351.369 237.372 345.811 239.058 341.083 242.217C336.356 245.376 332.671 249.865 330.495 255.118C328.32 260.371 327.75 266.151 328.86 271.728C329.969 277.304 332.707 282.427 336.727 286.447C340.747 290.467 345.87 293.205 351.446 294.314C357.023 295.424 362.803 294.854 368.056 292.679C373.309 290.503 377.798 286.818 380.957 282.091C384.116 277.363 385.802 271.805 385.802 266.119C385.802 258.495 382.773 251.183 377.382 245.792C371.991 240.401 364.679 237.372 357.055 237.372ZM357.055 291.025C352.122 291.027 347.301 289.566 343.199 286.827C339.097 284.088 335.9 280.194 334.012 275.638C332.124 271.082 331.629 266.068 332.591 261.23C333.553 256.393 335.928 251.949 339.415 248.462C342.903 244.974 347.346 242.6 352.183 241.638C357.021 240.676 362.035 241.171 366.591 243.059C371.147 244.947 375.041 248.144 377.78 252.246C380.519 256.347 381.98 261.169 381.979 266.101C381.976 272.711 379.35 279.049 374.676 283.723C370.002 288.396 363.664 291.023 357.055 291.025Z" fill="#AA7FBE"/>
<path d="M377.032 272.388C376.044 272.053 375.292 271.609 375.356 271.392C375.419 271.174 376.262 271.22 377.295 271.501C378.327 271.781 379.052 272.225 378.971 272.497C378.889 272.769 378.019 272.706 377.032 272.388Z" fill="#263238"/>
<path d="M368.063 283.777C367.519 282.871 367.229 282.065 367.419 281.965C367.61 281.866 368.244 282.436 368.842 283.297C369.44 284.158 369.748 284.973 369.476 285.109C369.204 285.245 368.606 284.665 368.063 283.777Z" fill="#263238"/>
<path d="M353.875 286.74C354.029 285.707 354.337 284.928 354.563 284.928C354.79 284.928 354.889 285.834 354.79 286.858C354.69 287.881 354.382 288.67 354.101 288.67C353.82 288.67 353.721 287.764 353.875 286.74Z" fill="#263238"/>
<path d="M341.091 279.881C341.879 279.183 342.631 278.758 342.794 278.93C342.957 279.102 342.468 279.836 341.725 280.552C340.982 281.267 340.221 281.711 340.031 281.458C339.84 281.204 340.312 280.57 341.091 279.881Z" fill="#263238"/>
<path d="M335.718 266.409C336.76 266.409 337.612 266.545 337.621 266.772C337.63 266.998 336.806 267.252 335.809 267.333C334.812 267.415 333.915 267.252 333.897 266.971C333.879 266.69 334.676 266.436 335.718 266.409Z" fill="#263238"/>
<path d="M340.257 252.638C341.073 253.29 341.625 253.96 341.48 254.142C341.335 254.323 340.574 253.978 339.668 253.371C338.762 252.764 338.273 252.094 338.445 251.867C338.617 251.641 339.442 251.985 340.257 252.638Z" fill="#263238"/>
<path d="M352.579 245.01C352.787 246.033 352.778 246.903 352.579 246.957C352.38 247.012 351.963 246.233 351.673 245.218C351.383 244.203 351.419 243.342 351.673 243.279C351.927 243.216 352.37 243.986 352.579 245.01Z" fill="#263238"/>
<path d="M366.93 247.084C366.432 247.99 365.87 248.66 365.662 248.561C365.453 248.461 365.662 247.609 366.105 246.667C366.549 245.725 367.12 245.063 367.374 245.199C367.628 245.335 367.428 246.169 366.93 247.084Z" fill="#263238"/>
<path d="M376.579 257.901C375.609 258.282 374.767 258.427 374.667 258.209C374.567 257.992 375.274 257.485 376.216 257.05C377.159 256.615 378.028 256.479 378.137 256.733C378.246 256.986 377.548 257.512 376.579 257.901Z" fill="#263238"/>
<path d="M357.055 270.368C359.441 270.368 361.376 268.433 361.376 266.046C361.376 263.659 359.441 261.725 357.055 261.725C354.668 261.725 352.733 263.659 352.733 266.046C352.733 268.433 354.668 270.368 357.055 270.368Z" fill="#263238"/>
<path d="M368.968 261.072L355.605 263.555L358.287 268.474L368.968 261.072Z" fill="#263238"/>
<path d="M380.784 209.564C393.992 196.357 393.992 174.942 380.784 161.734C367.577 148.526 346.162 148.526 332.954 161.734C319.746 174.942 319.746 196.357 332.954 209.564C346.162 222.772 367.577 222.772 380.784 209.564Z" fill="white"/>
<path d="M390.685 185.649C390.685 185.649 390.685 185.459 390.631 185.096C390.577 184.734 390.568 184.19 390.522 183.493C390.522 183.139 390.477 182.741 390.459 182.315C390.441 181.889 390.314 181.409 390.241 180.901C390.09 179.723 389.854 178.558 389.535 177.413C388.745 174.253 387.484 171.229 385.793 168.444C383.337 164.352 380.042 160.826 376.126 158.098C372.21 155.37 367.76 153.502 363.07 152.616C361.664 152.356 360.241 152.192 358.812 152.127C358.087 152.127 357.363 152.027 356.629 152.045L354.4 152.154C354.029 152.154 353.648 152.154 353.277 152.227L352.153 152.399C351.41 152.526 350.649 152.616 349.897 152.77C348.376 153.114 346.878 153.552 345.413 154.084C343.912 154.627 342.45 155.272 341.037 156.014C340.321 156.394 339.641 156.847 338.944 157.264C338.599 157.481 338.228 157.672 337.902 157.916L336.914 158.659C335.575 159.654 334.3 160.734 333.1 161.894C331.913 163.123 330.805 164.428 329.784 165.798L329.014 166.831L328.334 167.937L327.664 169.051C327.424 169.413 327.215 169.795 327.039 170.193L325.897 172.566C325.589 173.391 325.29 174.224 324.991 175.049C322.684 181.927 322.684 189.371 324.991 196.249C325.299 197.083 325.598 197.907 325.897 198.741C326.196 199.574 326.667 200.317 327.039 201.105C327.22 201.503 327.429 201.887 327.664 202.256L328.344 203.361L329.023 204.476L329.793 205.508C331.748 208.263 334.149 210.673 336.896 212.639L337.884 213.382C338.21 213.626 338.581 213.816 338.926 214.034C339.623 214.451 340.303 214.94 341.018 215.284C342.429 216.031 343.891 216.676 345.394 217.214C346.859 217.75 348.357 218.189 349.879 218.528C350.631 218.682 351.392 218.772 352.144 218.899L353.259 219.071C353.63 219.117 354.01 219.117 354.382 219.144L356.611 219.262C357.345 219.262 358.078 219.198 358.803 219.171C360.229 219.105 361.649 218.942 363.052 218.682C367.742 217.796 372.192 215.928 376.108 213.2C380.024 210.472 383.319 206.946 385.775 202.854C387.488 200.073 388.771 197.049 389.58 193.884C389.899 192.74 390.135 191.574 390.287 190.396C390.359 189.889 390.459 189.418 390.504 188.992C390.549 188.566 390.504 188.159 390.568 187.805C390.61 187.117 390.646 186.582 390.676 186.202C390.676 185.839 390.731 185.658 390.731 185.658C390.731 185.658 390.731 185.839 390.731 186.202C390.731 186.564 390.731 187.108 390.676 187.814C390.676 188.168 390.676 188.566 390.676 189.001C390.676 189.436 390.549 189.907 390.477 190.424C390.342 191.607 390.121 192.779 389.816 193.93C389.056 197.122 387.809 200.177 386.119 202.99C383.663 207.138 380.353 210.716 376.409 213.489C372.465 216.261 367.977 218.164 363.243 219.071C361.821 219.334 360.383 219.503 358.939 219.579C358.205 219.579 357.471 219.678 356.719 219.669L354.473 219.561C354.092 219.561 353.712 219.561 353.331 219.488L352.198 219.316C351.437 219.189 350.667 219.098 349.906 218.944C348.369 218.603 346.856 218.161 345.376 217.622C343.852 217.078 342.369 216.427 340.937 215.674C340.212 215.293 339.524 214.84 338.808 214.414C338.464 214.197 338.092 214.007 337.757 213.753L336.751 213.001C335.394 211.993 334.105 210.898 332.892 209.721C331.687 208.487 330.569 207.17 329.548 205.78L328.76 204.729L328.072 203.615L327.392 202.482C327.146 202.116 326.934 201.728 326.758 201.323C326.368 200.525 325.988 199.728 325.598 198.922C325.209 198.115 324.982 197.246 324.692 196.394C322.349 189.422 322.349 181.876 324.692 174.904L325.598 172.385C325.988 171.579 326.377 170.781 326.758 169.984C326.941 169.583 327.153 169.195 327.392 168.825L328.081 167.692L328.769 166.578L329.548 165.527C330.569 164.136 331.687 162.82 332.892 161.586C334.107 160.411 335.396 159.316 336.751 158.306L337.757 157.554C338.092 157.309 338.464 157.119 338.808 156.892C339.524 156.476 340.212 155.986 340.937 155.633C342.371 154.883 343.854 154.233 345.376 153.685C346.856 153.146 348.369 152.704 349.906 152.362C350.667 152.208 351.437 152.118 352.198 151.991L353.331 151.828C353.712 151.774 354.092 151.774 354.473 151.755L356.719 151.638C357.471 151.638 358.205 151.701 358.939 151.728C360.384 151.802 361.822 151.975 363.243 152.245C367.976 153.151 372.464 155.053 376.407 157.824C380.351 160.595 383.661 164.171 386.119 168.317C387.809 171.13 389.056 174.185 389.816 177.377C390.122 178.531 390.343 179.706 390.477 180.892C390.549 181.4 390.631 181.871 390.676 182.306C390.722 182.741 390.676 183.139 390.676 183.493C390.676 184.19 390.722 184.725 390.731 185.105C390.74 185.486 390.685 185.649 390.685 185.649Z" fill="#263238"/>
<path d="M335.718 178.98L340.121 183.936C344.568 179.708 350.475 177.361 356.611 177.386C367.011 177.386 372.076 183.936 372.076 183.936L376.851 178.98C376.851 178.98 368.515 170.826 356.801 170.826C349.015 170.885 341.518 173.784 335.718 178.98Z" fill="#AA7FBE"/>
<path d="M345.077 187.596L350.042 192.027C351.969 190.284 354.484 189.336 357.082 189.372C361.558 189.372 363.197 192.253 363.197 192.253L367.501 187.596C366.063 186.162 364.349 185.035 362.464 184.281C360.578 183.527 358.559 183.164 356.529 183.211C352.313 183.269 348.254 184.823 345.077 187.596Z" fill="#AA7FBE"/>
<path d="M360.271 197.925C360.348 198.6 360.222 199.283 359.91 199.887C359.599 200.491 359.115 200.988 358.52 201.317C357.925 201.646 357.246 201.791 356.569 201.733C355.891 201.676 355.247 201.418 354.716 200.994C354.185 200.57 353.791 199.998 353.586 199.35C353.381 198.702 353.372 198.008 353.561 197.355C353.751 196.702 354.129 196.12 354.65 195.683C355.17 195.246 355.808 194.973 356.484 194.899C357.387 194.799 358.293 195.062 359.003 195.629C359.712 196.196 360.168 197.022 360.271 197.925Z" fill="#AA7FBE"/>
<path d="M379.887 160.889L334.583 211.081L335.256 211.688L380.56 161.496L379.887 160.889Z" fill="#263238"/>
<path d="M97.848 110.088C96.8787 109.569 96.0649 108.801 95.49 107.864C94.9152 106.927 94.6001 105.854 94.577 104.754C94.554 103.655 94.8238 102.569 95.3588 101.609C95.8939 100.648 96.6748 99.8474 97.6215 99.2883L104.951 97.3857C105.332 106.712 105.779 116.028 106.292 125.336C104.353 125.211 102.486 124.549 100.901 123.424C99.3973 122.21 98.4913 120.072 99.2161 118.278C98.4555 117.958 97.7882 117.451 97.2761 116.804C96.7641 116.157 96.424 115.391 96.2875 114.578C96.151 113.764 96.2225 112.929 96.4953 112.15C96.7681 111.372 97.2335 110.675 97.848 110.124V110.088Z" fill="#263238"/>
<path d="M133.372 107.144V103.828L113.386 100.675C107.234 100.213 100.801 106.564 100.611 112.725C100.394 119.574 100.403 127.937 101.372 133.01C103.32 143.212 111.211 144.263 111.211 144.263V154.41C111.329 160.326 116.358 161.468 122.274 161.359C125.056 161.305 127.708 160.172 129.671 158.2C131.634 156.227 132.753 153.568 132.792 150.786L133.372 107.144Z" fill="#FFBE9D"/>
<path d="M105.73 120.96C105.74 121.303 105.882 121.629 106.127 121.869C106.372 122.109 106.701 122.244 107.044 122.247C107.211 122.255 107.378 122.23 107.536 122.173C107.693 122.115 107.837 122.027 107.96 121.913C108.082 121.799 108.18 121.661 108.249 121.509C108.317 121.356 108.354 121.191 108.358 121.023C108.353 120.681 108.213 120.353 107.969 120.113C107.725 119.872 107.396 119.737 107.053 119.737C106.885 119.728 106.718 119.754 106.56 119.811C106.402 119.868 106.257 119.956 106.134 120.07C106.011 120.184 105.912 120.321 105.842 120.474C105.773 120.627 105.735 120.792 105.73 120.96Z" fill="#263238"/>
<path d="M102.876 117.01C103.048 117.182 104.018 116.412 105.431 116.367C106.845 116.321 107.905 117.001 108.049 116.829C108.194 116.657 107.95 116.439 107.488 116.131C106.863 115.727 106.129 115.524 105.386 115.551C104.65 115.574 103.94 115.828 103.356 116.276C102.931 116.62 102.795 116.937 102.876 117.01Z" fill="#263238"/>
<path d="M118.061 120.86C118.068 121.204 118.209 121.531 118.455 121.772C118.701 122.012 119.031 122.147 119.374 122.147C119.542 122.156 119.709 122.13 119.866 122.073C120.023 122.016 120.168 121.927 120.29 121.813C120.413 121.699 120.511 121.562 120.579 121.409C120.648 121.256 120.685 121.091 120.688 120.924C120.681 120.582 120.541 120.256 120.297 120.016C120.054 119.775 119.726 119.64 119.384 119.637C119.216 119.629 119.048 119.654 118.89 119.711C118.733 119.768 118.588 119.856 118.465 119.97C118.341 120.084 118.242 120.222 118.173 120.375C118.104 120.528 118.065 120.693 118.061 120.86Z" fill="#263238"/>
<path d="M116.792 116.874C116.955 117.046 117.934 116.276 119.347 116.231C120.761 116.186 121.821 116.865 121.966 116.693C122.111 116.521 121.866 116.303 121.404 115.995C120.778 115.586 120.04 115.383 119.293 115.416C118.56 115.437 117.852 115.691 117.273 116.14C116.874 116.448 116.711 116.765 116.792 116.874Z" fill="#263238"/>
<path d="M111.982 127.492C111.23 127.278 110.453 127.162 109.671 127.148C109.309 127.148 108.965 127.066 108.901 126.822C108.856 126.446 108.928 126.066 109.11 125.734C109.418 124.828 109.744 123.923 110.088 122.953C111.447 118.994 112.426 115.705 112.262 115.705C112.099 115.705 110.867 118.822 109.544 122.781C109.218 123.759 108.901 124.693 108.638 125.58C108.424 126.023 108.373 126.526 108.494 127.003C108.55 127.128 108.634 127.238 108.739 127.326C108.844 127.414 108.968 127.477 109.101 127.51C109.302 127.558 109.509 127.582 109.717 127.583C110.472 127.645 111.233 127.614 111.982 127.492Z" fill="#263238"/>
<path d="M111.184 144.289C116.126 144.21 120.953 142.785 125.146 140.167C125.146 140.167 121.812 147.614 111.175 147.007L111.184 144.289Z" fill="#EB996E"/>
<path d="M112.688 130.881C112.946 130.533 113.289 130.257 113.684 130.08C114.079 129.902 114.513 129.829 114.944 129.866C115.257 129.882 115.562 129.962 115.843 130.1C116.123 130.239 116.372 130.434 116.575 130.672C116.771 130.903 116.892 131.187 116.923 131.488C116.953 131.789 116.892 132.092 116.747 132.357C116.53 132.614 116.243 132.801 115.92 132.894C115.598 132.987 115.255 132.984 114.935 132.883C114.27 132.663 113.655 132.315 113.123 131.859C112.961 131.753 112.82 131.618 112.706 131.461C112.653 131.381 112.625 131.288 112.625 131.193C112.625 131.098 112.653 131.005 112.706 130.926" fill="#EB996E"/>
<path d="M116.176 128.344C115.95 128.344 115.995 129.866 114.709 130.999C113.422 132.131 111.791 132.014 111.791 132.231C111.791 132.449 112.163 132.512 112.851 132.512C113.748 132.508 114.614 132.187 115.297 131.606C115.947 131.04 116.353 130.244 116.43 129.386C116.466 128.707 116.285 128.326 116.176 128.344Z" fill="#263238"/>
<path d="M116.34 112.752C116.485 113.141 117.898 112.96 119.556 113.159C121.214 113.359 122.555 113.812 122.781 113.467C122.872 113.295 122.645 112.942 122.102 112.561C121.379 112.106 120.562 111.821 119.713 111.728C118.863 111.636 118.004 111.738 117.2 112.027C116.584 112.271 116.285 112.57 116.34 112.752Z" fill="#263238"/>
<path d="M101.735 113.875C102.034 114.174 103.085 113.758 104.38 113.64C105.676 113.522 106.79 113.64 107.017 113.314C107.116 113.142 106.917 112.834 106.419 112.571C105.735 112.241 104.971 112.116 104.217 112.208C103.467 112.275 102.753 112.558 102.161 113.024C101.726 113.386 101.599 113.73 101.735 113.875Z" fill="#263238"/>
<path d="M96.6884 103.665C95.6442 102.971 94.8287 101.985 94.345 100.828C93.8612 99.6722 93.7309 98.3987 93.9704 97.1685C94.2425 95.9473 94.8261 94.8174 95.6644 93.8886C96.5027 92.9598 97.5671 92.2638 98.7541 91.8684C99.2339 91.7096 99.7288 91.6003 100.231 91.5422C101.179 90.9449 102.264 90.5988 103.384 90.5366C103.491 89.8779 103.789 89.265 104.239 88.7726C104.69 88.2802 105.274 87.9298 105.921 87.7642C107.218 87.4427 108.574 87.4427 109.871 87.7642C110.502 86.9255 111.323 86.2474 112.265 85.7848C113.208 85.3221 114.246 85.0879 115.296 85.1011C116.346 85.1144 117.378 85.3746 118.308 85.8609C119.239 86.3472 120.042 87.0458 120.652 87.9001C121.369 87.4332 122.185 87.1418 123.035 87.0497C123.885 86.9577 124.745 87.0675 125.545 87.3703C126.345 87.6731 127.062 88.1603 127.638 88.7923C128.214 89.4243 128.633 90.1834 128.86 91.0077C129.887 91.0019 130.894 91.2907 131.761 91.8399C132.628 92.3892 133.319 93.1757 133.753 94.1062C134.239 94.6872 134.591 95.3675 134.786 96.0994C136.044 96.1968 137.241 96.6779 138.217 97.4778C139.192 98.2778 139.899 99.3579 140.241 100.572C140.583 101.787 140.543 103.077 140.128 104.268C139.713 105.46 138.943 106.495 137.92 107.234C138.567 107.826 139.067 108.56 139.38 109.379C139.692 110.198 139.809 111.079 139.721 111.951C139.633 112.823 139.343 113.662 138.873 114.402C138.403 115.142 137.766 115.762 137.014 116.213C137.338 117.132 137.47 118.107 137.405 119.078C137.34 120.05 137.077 120.999 136.634 121.866C136.283 122.64 135.661 123.259 134.885 123.606C134.859 123.743 134.81 123.874 134.74 123.995C134.161 124.974 132.638 124.602 131.723 123.923C129.504 122.265 128.253 119.601 127.556 116.919C126.858 114.238 126.65 111.483 125.943 108.765C125.943 108.702 125.943 108.638 125.898 108.575C125.611 107.461 125.075 106.426 124.33 105.549C123.57 106.161 122.764 106.715 121.921 107.207C120.37 108.009 118.602 108.293 116.878 108.016C115.154 107.738 113.565 106.915 112.344 105.667C110.26 107.515 107.599 108.582 104.815 108.684C102.097 108.774 99.3158 108.339 97.1414 106.645C96.5764 106.208 96.141 105.626 95.8821 104.96C95.8389 104.683 95.8966 104.4 96.0446 104.163C96.1926 103.925 96.4211 103.748 96.6884 103.665Z" fill="#263238"/>
<path d="M132.149 120.743C132.285 120.67 137.585 118.46 138.02 124.077C138.455 129.694 132.738 128.969 132.711 128.806C132.684 128.643 132.149 120.743 132.149 120.743Z" fill="#FFBE9D"/>
<path d="M134.26 126.551C134.26 126.551 134.369 126.605 134.541 126.668C134.774 126.762 135.033 126.762 135.266 126.668C135.602 126.406 135.864 126.059 136.023 125.662C136.182 125.266 136.233 124.835 136.172 124.412C136.147 123.928 136.017 123.455 135.791 123.026C135.725 122.855 135.617 122.703 135.478 122.583C135.339 122.463 135.173 122.379 134.994 122.338C134.88 122.315 134.762 122.334 134.661 122.39C134.56 122.447 134.482 122.537 134.441 122.646C134.378 122.809 134.441 122.917 134.396 122.936C134.351 122.954 134.269 122.845 134.296 122.619C134.311 122.475 134.379 122.342 134.487 122.247C134.632 122.121 134.819 122.053 135.012 122.057C135.247 122.087 135.471 122.176 135.662 122.315C135.854 122.455 136.007 122.64 136.108 122.854C136.381 123.32 136.537 123.846 136.561 124.385C136.628 124.882 136.546 125.388 136.327 125.839C136.108 126.29 135.761 126.667 135.329 126.922C135.182 126.98 135.024 127.003 134.867 126.988C134.709 126.974 134.557 126.924 134.423 126.84C134.287 126.686 134.242 126.56 134.26 126.551Z" fill="#EB996E"/>
<path d="M94.2239 96.2266C94.2239 96.2266 94.2239 96.2719 94.1786 96.3625C94.1425 96.4964 94.1153 96.6326 94.0971 96.7702C94.0332 97.3038 94.0701 97.8447 94.2058 98.3647C94.409 99.1858 94.8578 99.9254 95.4923 100.485C96.3301 101.232 97.4235 101.628 98.5455 101.59L98.4459 101.509C98.8222 103.315 99.7089 104.975 101.001 106.292C101.72 107.046 102.591 107.638 103.556 108.032C104.59 108.434 105.714 108.55 106.808 108.367C107.874 108.216 108.911 107.911 109.889 107.461C110.824 107.053 111.68 106.483 112.416 105.776H112.244C113.61 106.992 115.278 107.818 117.073 108.168C118.502 108.367 119.957 108.176 121.286 107.615C122.153 107.257 122.952 106.755 123.651 106.129C123.835 105.966 124.01 105.794 124.176 105.613C124.24 105.554 124.295 105.487 124.339 105.413C124.339 105.413 124.086 105.658 123.596 106.075C122.888 106.664 122.09 107.135 121.232 107.47C119.926 108 118.503 108.172 117.109 107.968C115.358 107.606 113.735 106.783 112.407 105.586L112.317 105.513L112.235 105.595C111.525 106.279 110.696 106.828 109.789 107.216C108.835 107.668 107.818 107.974 106.772 108.122C105.722 108.303 104.643 108.2 103.646 107.823C102.716 107.436 101.874 106.862 101.173 106.138C99.9066 104.86 99.0299 103.248 98.6452 101.49V101.409H98.5546C97.4829 101.444 96.4363 101.079 95.6192 100.385C94.9997 99.8465 94.5523 99.1376 94.3326 98.3466C94.1908 97.8432 94.1387 97.3188 94.1786 96.7973C94.2239 96.4168 94.2692 96.2356 94.2239 96.2266Z" fill="#455A64"/>
<path d="M134.006 95.8545C134.255 96.472 134.455 97.1082 134.604 97.7571C134.951 99.4624 134.732 101.234 133.979 102.804V102.894L134.052 102.948C134.781 103.522 135.342 104.283 135.674 105.15C136.049 106.099 136.118 107.141 135.873 108.131C135.557 109.414 134.763 110.529 133.653 111.247L133.544 111.311L133.608 111.42C134.21 112.471 134.505 113.67 134.459 114.88C134.435 115.841 134.209 116.785 133.798 117.653C133.421 118.425 132.919 119.129 132.312 119.737L132.457 119.628C132.539 119.546 132.684 119.447 132.838 119.284C133.279 118.819 133.649 118.291 133.934 117.716C134.378 116.837 134.628 115.873 134.668 114.89C134.739 113.625 134.444 112.366 133.816 111.266V111.429C134.986 110.681 135.826 109.514 136.163 108.167C136.393 107.141 136.302 106.068 135.9 105.096C135.551 104.188 134.959 103.395 134.188 102.804V102.939C134.945 101.325 135.139 99.5039 134.74 97.7662C134.629 97.28 134.468 96.8064 134.26 96.3528C134.188 96.1988 134.124 96.0901 134.079 96.0085C134.034 95.927 134.016 95.8545 134.006 95.8545Z" fill="#455A64"/>
<path d="M135.692 128.434C135.785 128.759 135.843 129.093 135.864 129.431C135.865 129.788 135.74 130.135 135.51 130.409C135.369 130.564 135.192 130.68 134.994 130.749C134.796 130.817 134.584 130.834 134.378 130.799C134.174 130.745 133.992 130.628 133.857 130.466C133.722 130.304 133.642 130.103 133.626 129.893C133.571 129.538 133.615 129.174 133.753 128.842C133.988 128.262 134.215 127.936 134.179 127.891C133.918 128.146 133.717 128.455 133.59 128.797C133.406 129.154 133.336 129.558 133.39 129.956C133.422 130.199 133.515 130.43 133.662 130.627C133.823 130.845 134.058 130.997 134.324 131.053C134.575 131.099 134.833 131.078 135.073 130.992C135.314 130.906 135.527 130.758 135.692 130.563C135.941 130.24 136.067 129.838 136.045 129.431C136.046 129.068 135.921 128.715 135.692 128.434Z" fill="#263238"/>
<path d="M132.72 384.144V405.308L127.9 422.042C127.818 422.327 127.795 422.626 127.832 422.92C127.87 423.214 127.968 423.498 128.121 423.753C128.273 424.008 128.475 424.229 128.717 424.402C128.958 424.575 129.232 424.697 129.522 424.76C129.86 424.834 130.211 424.826 130.545 424.736C130.879 424.646 131.187 424.477 131.442 424.243C134.74 421.217 146.844 410.037 146.727 408.488C146.627 406.676 148.203 386.173 148.203 386.173L132.72 384.144Z" fill="#AA7FBE"/>
<path d="M129.558 424.778L146.772 407.084V407.99C146.757 408.762 146.468 409.504 145.956 410.083C144.579 411.632 140.674 415.827 131.542 424.271C131.28 424.515 130.962 424.69 130.615 424.78C130.269 424.87 129.905 424.873 129.558 424.787V424.778Z" fill="#263238"/>
<g opacity="0.6">
<path d="M142.577 400.162C142.313 400.348 142.127 400.624 142.055 400.939C141.983 401.254 142.03 401.584 142.188 401.866C142.363 402.136 142.635 402.33 142.949 402.406C143.262 402.481 143.593 402.434 143.873 402.273C144.154 402.077 144.353 401.782 144.428 401.446C144.503 401.111 144.451 400.76 144.28 400.461C144.068 400.194 143.76 400.021 143.422 399.977C143.084 399.933 142.742 400.022 142.468 400.226" fill="white"/>
</g>
<path d="M134.577 415.645C134.087 414.973 133.472 414.401 132.765 413.96C131.998 413.638 131.178 413.46 130.346 413.435C130.346 413.389 130.6 413.226 131.098 413.172C131.749 413.109 132.404 413.238 132.983 413.543C133.564 413.847 134.047 414.309 134.378 414.875C134.604 415.319 134.632 415.627 134.577 415.645Z" fill="#263238"/>
<path d="M133.01 418.445C132.901 418.536 132.24 417.829 131.153 417.494C130.473 417.351 129.787 417.245 129.096 417.177C129.426 416.981 129.798 416.868 130.181 416.846C130.564 416.824 130.947 416.894 131.298 417.05C132.53 417.44 133.119 418.391 133.01 418.445Z" fill="#263238"/>
<path d="M137.467 412.076C136.601 411.461 135.693 410.907 134.749 410.418C133.727 410.078 132.683 409.808 131.624 409.612C132.738 409.423 133.883 409.555 134.925 409.991C135.968 410.427 136.865 411.15 137.513 412.076H137.467Z" fill="#263238"/>
<path d="M138.002 405.643C137.938 405.77 136.779 405.253 135.284 405.172C133.789 405.09 132.566 405.416 132.502 405.29C133.34 404.769 134.335 404.561 135.311 404.701C136.289 404.697 137.239 405.03 138.002 405.643Z" fill="#263238"/>
<path d="M138.156 399.437C137.242 399.114 136.288 398.922 135.32 398.866C134.354 398.953 133.404 399.167 132.493 399.501C132.493 399.455 132.702 399.202 133.191 398.93C133.846 398.589 134.572 398.406 135.311 398.395C136.049 398.382 136.779 398.547 137.44 398.875C137.938 399.138 138.183 399.392 138.156 399.437Z" fill="#263238"/>
<path d="M135.384 397.68C135.321 397.418 135.321 397.144 135.384 396.882C135.466 396.149 135.697 395.44 136.063 394.799C136.287 394.305 136.67 393.9 137.15 393.648C137.314 393.578 137.496 393.562 137.67 393.601C137.844 393.64 138.001 393.732 138.12 393.865C138.342 394.135 138.455 394.477 138.437 394.826C138.374 395.531 138.069 396.192 137.573 396.698C137.078 397.203 136.423 397.521 135.719 397.598C135.016 397.655 134.312 397.501 133.697 397.156C133.082 396.811 132.584 396.289 132.267 395.659C132.192 395.499 132.154 395.324 132.154 395.147C132.154 394.971 132.192 394.796 132.267 394.636C132.358 394.482 132.493 394.358 132.654 394.281C132.815 394.204 132.996 394.176 133.173 394.201C133.691 394.328 134.167 394.59 134.55 394.962C135.116 395.43 135.592 395.998 135.954 396.638C136.11 396.857 136.215 397.107 136.262 397.372C135.734 396.561 135.087 395.834 134.342 395.215C133.995 394.908 133.578 394.691 133.128 394.581C133.031 394.566 132.931 394.58 132.842 394.622C132.753 394.664 132.679 394.732 132.629 394.817C132.561 395.043 132.584 395.287 132.693 395.496C132.987 396.029 133.427 396.466 133.962 396.757C134.496 397.047 135.103 397.179 135.71 397.136C136.308 397.075 136.869 396.812 137.298 396.39C137.728 395.969 138.002 395.414 138.074 394.817C138.095 394.575 138.028 394.333 137.884 394.137C137.819 394.061 137.731 394.007 137.633 393.985C137.535 393.962 137.433 393.971 137.341 394.01C136.949 394.232 136.633 394.567 136.435 394.971C135.925 395.804 135.569 396.721 135.384 397.68Z" fill="#263238"/>
<path d="M112.806 384.47L113.114 401.956C113.114 401.956 95.4471 408.144 95.1843 411.378L129.105 412.003L129.748 384.732L112.806 384.47Z" fill="#AA7FBE"/>
<path d="M123.633 400.679C123.954 400.789 124.224 401.013 124.391 401.308C124.558 401.604 124.61 401.95 124.539 402.282C124.442 402.606 124.224 402.881 123.931 403.049C123.638 403.218 123.291 403.267 122.962 403.188C122.619 403.074 122.329 402.837 122.149 402.523C121.968 402.209 121.91 401.84 121.984 401.485C122.118 401.154 122.374 400.887 122.7 400.74C123.026 400.593 123.396 400.577 123.732 400.697" fill="#E0E0E0"/>
<path d="M129.105 412.003V409.285L96.5887 409.72C96.5887 409.72 95.0666 410.354 95.2207 411.414L129.105 412.003Z" fill="#263238"/>
<path d="M112.561 401.775C112.561 401.938 113.395 402.029 114.201 402.581C115.008 403.134 115.424 403.832 115.578 403.768C115.732 403.705 115.506 402.744 114.518 402.101C113.531 401.458 112.534 401.621 112.561 401.775Z" fill="#263238"/>
<path d="M108.983 403.17C108.937 403.333 109.653 403.632 110.206 404.339C110.759 405.046 110.903 405.798 111.112 405.788C111.32 405.779 111.402 404.882 110.695 403.976C109.988 403.07 108.983 403.025 108.983 403.17Z" fill="#263238"/>
<path d="M106.908 407.401C107.062 407.447 107.307 406.622 106.908 405.707C106.509 404.792 105.73 404.411 105.658 404.547C105.585 404.683 106.056 405.181 106.373 405.933C106.69 406.685 106.718 407.383 106.908 407.401Z" fill="#263238"/>
<path d="M112.933 397.78C113.005 397.934 113.766 397.725 114.7 397.78C115.633 397.834 116.367 398.169 116.448 398.033C116.53 397.897 115.85 397.29 114.745 397.209C113.64 397.127 112.86 397.653 112.933 397.78Z" fill="#263238"/>
<path d="M159.818 233.032C159.818 233.032 165.354 249.34 164.086 267.46C163.569 274.763 155.696 328.108 155.696 328.108L149.218 397.97L127.646 397.272C127.646 397.272 125.481 325.236 125.834 324.33C126.188 323.424 125.834 302.74 125.834 302.74L127.547 263.782V243.044L159.818 233.032Z" fill="#455A64"/>
<path d="M96.9419 225.34C96.9419 225.34 87.8819 240.742 88.9238 264.687C89.3133 273.838 103.945 350.051 103.945 350.051L112.933 400.08L129.893 401.457L127.501 264.986V243.043L96.9419 225.34Z" fill="#455A64"/>
<path d="M125.4 269.272C124.08 268.607 122.878 267.732 121.839 266.681C120.693 265.744 119.71 264.624 118.931 263.365C119.03 263.275 120.371 264.715 122.147 266.337C123.923 267.959 125.481 269.164 125.4 269.272Z" fill="#263238"/>
<path d="M149.327 397.952H147.959L144 397.861L129.214 397.454H129.069V397.309C129.069 382.93 128.226 361.513 127.338 337.649C126.541 315.615 125.97 295.655 126.36 281.214C126.432 279.402 126.496 277.689 126.559 276.059C126.559 275.651 126.559 275.252 126.604 274.854C126.636 274.46 126.697 274.07 126.786 273.685C126.952 272.956 127.158 272.236 127.402 271.529C128.308 268.811 129.277 266.528 130.056 264.661C130.836 262.795 131.497 261.372 131.941 260.403L132.457 259.316C132.575 259.071 132.648 258.944 132.648 258.944C132.648 258.944 132.648 259.08 132.503 259.334L132.031 260.448C131.606 261.445 130.999 262.885 130.219 264.734C129.44 266.582 128.516 268.892 127.637 271.61C127.112 273.041 126.845 274.553 126.849 276.077C126.795 277.702 126.74 279.414 126.686 281.214C126.387 295.655 127.003 315.642 127.8 337.63C128.706 361.494 129.431 382.93 129.368 397.309L129.223 397.155L144.054 397.734L148.004 397.907L149.028 397.961L149.327 397.952Z" fill="#263238"/>
<path d="M99.4153 151.773L110.885 148.865C117.544 153.015 128.425 154.247 132.811 146.908L148.312 149.282L150.613 174.278L150.686 204.883C156.044 217.477 160.065 230.598 162.681 244.031C127.501 252.801 101.626 253.735 91.5513 238.106C91.5513 238.106 95.5195 225.513 99.4153 215.9C102.469 208.371 100.421 202.31 100.031 200.163C99.8955 199.375 100.122 199.656 100.031 198.858L97.0597 183.918L99.4153 151.773Z" fill="#AA7FBE"/>
<g opacity="0.3">
<path d="M96.9419 212.91C102.169 210.052 106.887 206.348 110.903 201.947C112.504 200.027 114.226 198.211 116.059 196.511C117.916 194.808 120.287 193.772 122.799 193.567C126.713 193.431 130.102 196.104 133.1 198.622L143.066 207.003C143.851 207.789 144.824 208.36 145.893 208.661C146.98 208.86 148.557 209.059 148.792 207.981C146.06 205.946 143.471 203.724 141.046 201.331C137.703 197.997 134.025 195.479 130.681 192.144C129.132 190.595 127.483 188.838 127.384 186.654C127.469 185.89 127.37 185.116 127.094 184.398C126.568 183.537 125.399 183.411 124.376 183.374C122.401 183.302 120.344 183.248 118.559 184.09C116.095 185.268 114.727 187.886 113.404 190.269C108.877 198.415 103.065 205.776 96.1899 212.067" fill="black"/>
</g>
<path d="M100.321 151.764C100.321 151.764 89.386 152.534 85.3 167.963C81.2139 183.392 72.5616 203.17 75.2796 210.137C76.0407 212.103 78.958 216.099 80.8243 217.068C86.2603 219.886 92.847 215.963 97.2773 211.759L110.161 196.991L112.978 192.978L102.432 184.054L97.4223 188.112L100.457 176.253L100.321 151.764Z" fill="#AA7FBE"/>
<path d="M148.312 149.417C148.312 149.417 157.082 149.046 163.198 161.938C169.703 175.628 170.908 199.899 168.688 207.166C166.632 213.915 153.839 214.993 151.03 212.71C148.367 210.554 124.122 186.636 124.122 186.636L135.085 177.367L150.623 188.185L147.488 170.328L148.312 149.417Z" fill="#AA7FBE"/>
<path d="M147.488 170.328C147.526 170.424 147.553 170.525 147.569 170.627C147.614 170.853 147.669 171.152 147.741 171.533C147.895 172.357 148.122 173.535 148.403 175.048L150.776 188.194L150.84 188.557L150.541 188.348L134.994 177.522H135.238L124.294 186.808V186.482L143.039 204.837L148.765 210.337L150.187 211.669C150.629 212.111 151.118 212.503 151.646 212.837C152.794 213.319 154.026 213.569 155.27 213.571C157.736 213.636 160.193 213.246 162.518 212.421C164.756 211.734 166.68 210.281 167.954 208.317C168.449 207.307 168.777 206.224 168.924 205.109C169.132 204.004 169.232 202.89 169.331 201.802C169.467 199.619 169.522 197.481 169.458 195.46C169.362 191.633 169.06 187.813 168.552 184.018C168.117 180.539 167.492 177.422 166.93 174.686C166.369 171.95 165.698 169.648 165.118 167.764C164.828 166.858 164.566 166.006 164.33 165.282C164.095 164.557 163.859 163.968 163.687 163.47L163.297 162.364C163.207 162.111 163.17 161.975 163.17 161.975C163.238 162.094 163.295 162.218 163.343 162.346C163.445 162.606 163.59 162.968 163.777 163.433C163.959 163.923 164.212 164.511 164.466 165.245C164.72 165.979 164.982 166.795 165.3 167.719C165.888 169.594 166.532 171.922 167.175 174.64C167.818 177.358 168.416 180.493 168.878 183.981C169.401 187.788 169.722 191.62 169.839 195.46C169.902 197.526 169.839 199.673 169.721 201.875C169.645 202.998 169.512 204.117 169.322 205.227C169.232 205.795 169.111 206.357 168.96 206.912C168.825 207.493 168.608 208.051 168.317 208.57C166.99 210.637 164.974 212.168 162.627 212.892C160.257 213.74 157.75 214.142 155.234 214.079C153.92 214.075 152.621 213.81 151.411 213.3C151.107 213.142 150.827 212.944 150.577 212.711C150.332 212.493 150.088 212.285 149.852 212.058L148.421 210.726L142.686 205.218C136.045 198.767 129.721 192.534 123.95 186.844L123.778 186.672L123.968 186.518L134.994 177.204L135.112 177.105L135.238 177.195L150.74 188.067L150.505 188.221L148.267 175.048C148.022 173.526 147.823 172.33 147.687 171.524C147.633 171.134 147.587 170.835 147.551 170.618C147.515 170.4 147.488 170.328 147.488 170.328Z" fill="#263238"/>
<path d="M101.245 172.819C101.399 172.819 100.729 176.235 99.6418 180.339C99.1163 182.296 98.6361 184.072 98.2375 185.576C98.0805 186.311 97.8623 187.033 97.5852 187.732C97.4311 187.732 98.1016 184.316 99.1888 180.221C99.7143 178.255 100.194 176.48 100.593 174.976C100.752 174.24 100.97 173.519 101.245 172.819Z" fill="#263238"/>
<path d="M88.6249 195.27C88.6935 195.191 88.7693 195.118 88.8514 195.053L89.549 194.464L92.267 192.226L102.378 183.972L102.478 183.891L102.577 183.963L113.522 192.525L113.676 192.643L113.558 192.797L110.378 197.118L97.0598 212.276C95.0834 214.167 92.8169 215.73 90.3463 216.906C88.3138 217.941 86.0329 218.39 83.7597 218.201C83.201 218.133 82.6512 218.006 82.1198 217.821C81.5934 217.616 81.0968 217.342 80.643 217.005C79.7701 216.355 78.9684 215.614 78.2512 214.795C76.8115 213.236 75.6747 211.424 74.899 209.449C74.8104 209.198 74.7408 208.941 74.6906 208.679C74.6906 208.425 74.6363 208.163 74.6181 207.909L74.5457 207.139C74.5457 206.885 74.5457 206.631 74.5457 206.378C74.5817 205.382 74.6785 204.39 74.8356 203.406C75.4872 199.758 76.3677 196.154 77.472 192.616C78.4686 189.282 79.4743 186.21 80.3803 183.402C82.1923 177.784 83.6963 173.245 84.6566 170.083C85.1459 168.507 85.5083 167.275 85.7438 166.459C85.8616 166.061 85.9613 165.744 86.0337 165.553C86.0601 165.445 86.0965 165.338 86.1425 165.236C86.1298 165.35 86.1086 165.462 86.079 165.572C86.0156 165.807 85.9341 166.124 85.8344 166.532C85.626 167.374 85.2908 168.616 84.8288 170.201C83.9228 173.372 82.4913 177.938 80.6974 183.565C79.7914 186.373 78.822 189.454 77.8435 192.788C76.762 196.313 75.8997 199.901 75.2614 203.533C75.1082 204.499 75.0144 205.473 74.9805 206.45C74.9805 206.695 74.9805 206.949 74.9805 207.193L75.044 207.927C75.044 208.172 75.044 208.425 75.1164 208.67C75.1671 208.909 75.2306 209.145 75.3067 209.377C76.0744 211.285 77.1826 213.038 78.5774 214.55C79.9907 216.072 81.6125 217.667 83.805 217.802C85.9937 217.976 88.188 217.544 90.147 216.552C92.5687 215.401 94.792 213.872 96.7336 212.022L110.025 196.901L113.232 192.588V192.86L102.36 184.244H102.559L92.3848 192.398L89.6668 194.573L88.942 195.125C88.7155 195.216 88.634 195.279 88.6249 195.27Z" fill="#263238"/>
<path d="M162.12 197.046C160.519 195.192 158.764 193.476 156.874 191.918C154.888 190.487 152.784 189.227 150.586 188.149C151.305 188.28 152.001 188.515 152.652 188.847C155.873 190.27 158.707 192.445 160.915 195.189C161.406 195.745 161.812 196.371 162.12 197.046Z" fill="#263238"/>
<path d="M103.393 185.023L103.211 178.437L99.0981 172.575L100.738 164.421C100.738 164.421 102.55 164.058 102.36 165.689C102.169 167.32 102.206 171.361 102.206 171.361L103.456 172.819L104.253 164.765L108.448 160.67C108.817 161.116 109.043 161.664 109.097 162.241C109.15 162.818 109.028 163.398 108.747 163.904C108.312 164.869 107.718 165.755 106.989 166.523L106.699 171.578L107.941 171.741L108.539 167.075L114.699 160.878C114.699 160.878 115.225 161.413 114.373 163.442C113.777 164.797 113.055 166.092 112.217 167.311L113.023 176.063L114.636 177.096L115.75 175.818L119.148 170.563C119.382 170.529 119.622 170.558 119.84 170.649C120.059 170.74 120.249 170.889 120.389 171.08C120.779 171.723 118.45 176.045 118.224 176.842C117.997 177.639 120.036 183.238 118.586 185.775L112.398 191.999L103.393 185.023Z" fill="#FFBE9D"/>
<path d="M112.045 153.612L108.557 180.919L124.086 182.912L127.529 156.031L112.045 153.612Z" fill="#263238"/>
<path d="M126.84 161.44C126.84 161.44 129.332 161.758 129.332 163.651C129.332 165.545 129.223 166.369 130.609 168.435C131.995 170.5 133.544 172.367 133.39 176.371L133.499 178.419L125.535 184.96C125.535 184.96 113.984 183.248 112.607 182.596C111.63 182.076 110.743 181.403 109.979 180.602L108.974 175.502C108.974 175.502 109.717 174.469 110.577 176.027C111.293 177.232 112.105 178.378 113.005 179.452L116.43 180.24L118.161 179.633L112.108 176.009C112.108 176.009 107.778 172.847 107.85 172.267C107.967 171.625 108.119 170.99 108.303 170.365C108.113 170.009 108.021 169.61 108.035 169.207C108.05 168.805 108.17 168.413 108.385 168.072C109.137 166.858 111.302 168.444 111.302 168.444C111.302 168.444 118.07 172.068 119.103 172.285C119.948 172.46 120.805 172.569 121.667 172.611L112.072 165.218C112.072 165.218 112.217 164.059 114.256 164.793C116.294 165.526 122.274 168.779 123.406 169.16C124.237 169.356 125.111 169.26 125.88 168.888L126.84 161.44Z" fill="#FFBE9D"/>
<path d="M126.84 161.44C126.84 161.44 126.84 161.622 126.795 161.948C126.749 162.274 126.695 162.781 126.632 163.406C126.478 164.684 126.26 166.541 125.988 168.906V168.969H125.934C125.473 169.18 124.98 169.315 124.475 169.368C123.918 169.424 123.357 169.314 122.863 169.051C121.839 168.589 120.77 168.045 119.628 167.483C118.487 166.922 117.273 166.306 116.004 165.671C115.357 165.355 114.691 165.077 114.011 164.838C113.674 164.72 113.317 164.668 112.96 164.684C112.805 164.685 112.655 164.736 112.531 164.829C112.407 164.922 112.316 165.052 112.271 165.2L112.199 165.037L121.821 172.403L122.364 172.82L121.685 172.774C120.769 172.738 119.859 172.614 118.967 172.403C118.089 172.063 117.23 171.676 116.394 171.243C114.7 170.41 112.978 169.513 111.221 168.589C110.868 168.336 110.484 168.129 110.079 167.973C109.713 167.791 109.289 167.762 108.901 167.891C108.584 168.154 108.382 168.532 108.339 168.942C108.274 169.373 108.347 169.814 108.548 170.201L108.602 170.301V170.383C108.439 170.972 108.276 171.57 108.167 172.195C108.095 172.276 108.385 172.575 108.575 172.774C108.765 172.974 109.028 173.2 109.273 173.409C110.233 174.242 111.275 175.03 112.326 175.81L116.856 178.528L118.378 179.434L118.804 179.687L118.342 179.859L116.602 180.466H116.539H116.475L113.06 179.678H112.978V179.615C112.291 178.798 111.653 177.942 111.066 177.051C110.768 176.625 110.523 176.145 110.242 175.746C110.129 175.581 109.957 175.465 109.762 175.42C109.673 175.417 109.585 175.435 109.506 175.475C109.427 175.515 109.359 175.574 109.309 175.647V175.474C109.647 177.202 109.979 178.902 110.305 180.575L110.251 180.466C110.749 180.985 111.295 181.455 111.882 181.871C112.171 182.07 112.474 182.248 112.788 182.405C113.11 182.528 113.44 182.628 113.775 182.704C115.153 183.03 116.493 183.275 117.889 183.52C120.607 183.991 123.198 184.426 125.68 184.788L125.526 184.833L133.508 178.31L133.454 178.446C133.454 177.703 133.381 177.042 133.345 176.398C133.42 175.135 133.27 173.868 132.901 172.657C132.54 171.587 132.027 170.574 131.379 169.649C130.798 168.843 130.277 167.995 129.821 167.112C129.484 166.335 129.327 165.493 129.359 164.648C129.461 164.007 129.379 163.35 129.123 162.754C128.867 162.354 128.498 162.039 128.063 161.848C127.709 161.683 127.338 161.556 126.958 161.468C127.357 161.494 127.747 161.595 128.108 161.767C128.569 161.947 128.964 162.263 129.241 162.673C129.41 162.945 129.504 163.258 129.513 163.579C129.513 163.914 129.513 164.258 129.513 164.63C129.488 165.448 129.656 166.261 130.002 167.003C130.459 167.873 130.983 168.706 131.569 169.495C132.242 170.431 132.776 171.459 133.155 172.548C133.543 173.793 133.709 175.096 133.644 176.398C133.644 177.051 133.716 177.712 133.762 178.446V178.482L133.698 178.537L125.762 185.105L125.689 185.16H125.608C123.116 184.788 120.507 184.38 117.798 183.918C116.439 183.674 115.08 183.429 113.658 183.112C113.293 183.028 112.936 182.916 112.589 182.777C112.25 182.618 111.925 182.43 111.619 182.215C111.008 181.782 110.438 181.293 109.916 180.756V180.693C109.59 179.017 109.254 177.323 108.91 175.592V175.483L108.965 175.411C109.064 175.266 109.2 175.151 109.36 175.077C109.519 175.004 109.696 174.975 109.871 174.994C110.028 175.02 110.178 175.076 110.314 175.16C110.449 175.244 110.566 175.354 110.659 175.483C111.012 175.955 111.211 176.389 111.51 176.833C112.093 177.703 112.722 178.541 113.395 179.343L113.268 179.271L116.693 180.059H116.557L118.296 179.452L118.251 179.868L116.729 178.962L112.199 176.244C111.13 175.456 110.097 174.659 109.11 173.816C108.865 173.599 108.629 173.391 108.394 173.155C108.158 172.919 108.167 172.91 108.059 172.784C108.002 172.705 107.951 172.624 107.905 172.539C107.877 172.466 107.858 172.39 107.85 172.312C107.844 172.267 107.844 172.222 107.85 172.177C107.964 171.565 108.112 170.96 108.294 170.365V170.546C108.04 170.065 107.945 169.516 108.022 168.978C108.016 168.702 108.084 168.428 108.221 168.187C108.357 167.947 108.557 167.747 108.797 167.611C109.038 167.474 109.311 167.405 109.588 167.411C109.865 167.418 110.135 167.499 110.369 167.647C110.811 167.822 111.231 168.05 111.619 168.326C113.368 169.232 115.089 170.138 116.774 170.99C117.617 171.397 118.459 171.832 119.275 172.131C120.134 172.334 121.011 172.453 121.893 172.485L121.757 172.856L112.181 165.445L112.09 165.382V165.282C112.147 165.055 112.276 164.853 112.457 164.706C112.638 164.559 112.863 164.475 113.096 164.466C113.499 164.448 113.902 164.507 114.283 164.639C114.976 164.901 115.654 165.203 116.312 165.545C117.608 166.161 118.813 166.777 119.936 167.357C121.06 167.936 122.138 168.489 123.143 168.951C123.594 169.168 124.089 169.277 124.589 169.269C125.09 169.261 125.581 169.137 126.025 168.906L125.961 168.987L126.74 163.434C126.822 162.827 126.894 162.355 126.949 162.011C126.891 161.826 126.854 161.634 126.84 161.44Z" fill="#EB996E"/>
<path d="M119.927 176.67C119.281 176.563 118.653 176.368 118.061 176.09C116.604 175.503 115.182 174.831 113.803 174.079C112.422 173.336 111.088 172.51 109.807 171.605C109.248 171.267 108.742 170.849 108.303 170.364C108.897 170.629 109.461 170.954 109.988 171.334C111.003 171.959 112.426 172.801 114.029 173.671C115.633 174.541 117.11 175.275 118.188 175.782C118.793 176.024 119.376 176.321 119.927 176.67Z" fill="#EB996E"/>
<path d="M120.996 179.696C121.051 179.814 120.661 180.068 120.145 179.968C119.628 179.868 119.347 179.497 119.438 179.406C119.529 179.316 119.837 179.406 120.226 179.515C120.616 179.624 120.951 179.569 120.996 179.696Z" fill="#EB996E"/>
<path d="M123.216 176.824C123.325 176.887 123.017 177.403 122.31 177.494C121.603 177.585 121.205 177.186 121.286 177.086C121.368 176.987 121.757 177.086 122.237 177.032C122.718 176.978 123.107 176.733 123.216 176.824Z" fill="#EB996E"/>
<path d="M125.934 172.847C126.034 172.929 125.762 173.327 125.227 173.391C124.693 173.454 124.321 173.146 124.403 173.046C124.484 172.947 124.792 172.992 125.173 172.929C125.553 172.865 125.807 172.747 125.934 172.847Z" fill="#EB996E"/>
<path d="M128.317 168.706C128.317 168.833 127.692 168.942 126.922 169.032C126.152 169.123 125.517 169.159 125.49 169.032C125.463 168.905 126.07 168.661 126.867 168.57C127.665 168.48 128.317 168.579 128.317 168.706Z" fill="#EB996E"/>
</svg>
