<svg width="20" height="16" viewBox="0 0 20 16" fill="none" xmlns="http://www.w3.org/2000/svg">
<path d="M6.77648 5.58298C6.41959 6.90052 7.24724 8.23428 7.96791 9.39355V9.39355C8.43137 10.0473 8.6631 10.8387 8.6631 11.7677C8.6631 13.0065 8.25312 14.0215 7.43315 14.8129C6.61319 15.6043 5.59715 16 4.38503 16C3.1016 16 2.04991 15.6043 1.22995 14.8129C0.409982 14.0215 0 13.0065 0 11.7677C0 11.1484 0.0713013 10.5462 0.213904 9.96129C0.392157 9.37634 0.713012 8.49892 1.17647 7.32903L3.47983 1.37276C3.79977 0.54544 4.5955 0 5.48253 0V0C6.89682 0 7.92484 1.34353 7.55507 2.70863L6.77648 5.58298ZM18.1134 5.58298C17.7565 6.90052 18.5841 8.23428 19.3048 9.39355V9.39355C19.7683 10.0473 20 10.8387 20 11.7677C20 13.0065 19.59 14.0215 18.7701 14.8129C17.9501 15.6043 16.934 16 15.7219 16C14.4385 16 13.3868 15.6043 12.5668 14.8129C11.7469 14.0215 11.3369 13.0065 11.3369 11.7677C11.3369 11.1484 11.4082 10.5462 11.5508 9.96129C11.7291 9.37634 12.0499 8.49892 12.5134 7.32903L14.8167 1.37276C15.1367 0.54544 15.9324 0 16.8194 0V0C18.2337 0 19.2617 1.34353 18.892 2.70863L18.1134 5.58298Z" fill="#07BEBE"/>
</svg>
