<svg width="357" height="357" viewBox="0 0 357 357" fill="none" xmlns="http://www.w3.org/2000/svg">
<g clip-path="url(#clip0_313_6136)">
<path d="M385.314 293.984H-27V294.191H385.314V293.984Z" fill="#EBEBEB"/>
<path d="M344 307.252H316.689V307.458H344V307.252Z" fill="#EBEBEB"/>
<path d="M246.133 309.495H238.967V309.701H246.133V309.495Z" fill="#EBEBEB"/>
<path d="M315.864 299.599H300.04V299.805H315.864V299.599Z" fill="#EBEBEB"/>
<path d="M51.8757 300.983H16.26V301.19H51.8757V300.983Z" fill="#EBEBEB"/>
<path d="M64.443 300.983H59.2231V301.19H64.443V300.983Z" fill="#EBEBEB"/>
<path d="M158.665 304.465H81.4141V304.671H158.665V304.465Z" fill="#EBEBEB"/>
<path d="M168.437 257.205H9.20942C7.96204 257.203 6.7665 256.706 5.88524 255.823C5.00399 254.94 4.50903 253.744 4.50903 252.496V28.6674C4.51989 27.4272 5.01964 26.2413 5.89972 25.3674C6.77981 24.4935 7.96915 24.0021 9.20942 24H168.437C169.686 24 170.883 24.4961 171.766 25.3791C172.649 26.2622 173.146 27.4598 173.146 28.7086V252.496C173.146 253.745 172.649 254.943 171.766 255.826C170.883 256.709 169.686 257.205 168.437 257.205ZM9.20942 24.1649C8.01672 24.1671 6.87361 24.6424 6.03102 25.4866C5.18842 26.3307 4.71519 27.4747 4.71519 28.6674V252.496C4.71519 253.689 5.18842 254.833 6.03102 255.677C6.87361 256.521 8.01672 256.997 9.20942 256.999H168.437C169.63 256.997 170.774 256.522 171.618 255.678C172.462 254.834 172.937 253.69 172.939 252.496V28.6674C172.937 27.4739 172.462 26.33 171.618 25.4861C170.774 24.6422 169.63 24.1671 168.437 24.1649H9.20942Z" fill="#EBEBEB"/>
<path d="M346.812 257.205H187.577C186.328 257.203 185.132 256.706 184.249 255.823C183.367 254.941 182.87 253.744 182.868 252.496V28.6674C182.881 27.4264 183.383 26.2406 184.264 25.3669C185.145 24.4932 186.336 24.0021 187.577 24H346.812C348.051 24.0043 349.238 24.4966 350.117 25.3703C350.995 26.244 351.494 27.4286 351.504 28.6674V252.496C351.504 253.742 351.011 254.937 350.131 255.82C349.252 256.703 348.058 257.201 346.812 257.205ZM187.577 24.1649C186.383 24.1671 185.239 24.6422 184.395 25.4861C183.551 26.33 183.076 27.4739 183.074 28.6674V252.496C183.076 253.69 183.551 254.834 184.395 255.678C185.239 256.522 186.383 256.997 187.577 256.999H346.812C348.006 256.997 349.15 256.522 349.994 255.678C350.838 254.834 351.313 253.69 351.315 252.496V28.6674C351.313 27.4739 350.838 26.33 349.994 25.4861C349.15 24.6422 348.006 24.1671 346.812 24.1649H187.577Z" fill="#EBEBEB"/>
<path d="M280.718 85.8555H269.033V122.23H280.718V85.8555Z" fill="#E6E6E6"/>
<path d="M312.392 122.23H273.618L267.763 79.6543H306.537L312.392 122.23Z" fill="#F0F0F0"/>
<path d="M316.59 122.23H276.546L270.691 79.6543H310.735L316.59 122.23Z" fill="#F5F5F5"/>
<path d="M279.44 118.874L274.509 83.0107H307.84L312.78 118.874H279.44Z" fill="white"/>
<path d="M286.029 108.013L284.174 94.5555C284.119 94.2003 284.142 93.8374 284.241 93.492C284.34 93.1466 284.514 92.827 284.749 92.5554C284.985 92.2838 285.277 92.0668 285.604 91.9195C285.932 91.7722 286.288 91.6981 286.648 91.7023H298.761C299.368 91.6977 299.955 91.916 300.411 92.3159C300.867 92.7157 301.161 93.2692 301.235 93.8711L303.083 107.337C303.136 107.692 303.112 108.054 303.012 108.398C302.912 108.743 302.739 109.061 302.503 109.332C302.268 109.602 301.977 109.819 301.65 109.966C301.322 110.112 300.967 110.186 300.609 110.182H288.511C287.903 110.189 287.314 109.971 286.856 109.571C286.399 109.171 286.104 108.617 286.029 108.013Z" fill="#F5F5F5"/>
<path d="M207.978 153.746H33.3298V162.083H207.978V153.746Z" fill="#E6E6E6"/>
<path d="M219.935 153.746H42.8955V162.083H219.935V153.746Z" fill="#F0F0F0"/>
<path d="M53.7808 147.464L90.6499 52.2852H108.05L71.1804 147.464H53.7808Z" fill="white"/>
<path d="M74.9243 147.464L111.793 52.2852H118.572L81.7028 147.464H74.9243Z" fill="white"/>
<path d="M139.427 147.464L176.296 52.2852H183.074L146.213 147.464H139.427Z" fill="white"/>
<path d="M206.172 147.464V52.2852H205.372V147.464H206.172Z" fill="#E6E6E6"/>
<path d="M340.372 122.23H303.396V293.984H340.372V122.23Z" fill="#E6E6E6"/>
<path d="M336.653 293.983H340.372V283.403H332.752L336.653 293.983Z" fill="#F0F0F0"/>
<path d="M275.581 122.23H238.605V293.984H275.581V122.23Z" fill="#E6E6E6"/>
<path d="M340.372 122.23H272.332V287.494H340.372V122.23Z" fill="#F0F0F0"/>
<path d="M276.051 293.983H272.332V283.403H279.952L276.051 293.983Z" fill="#F0F0F0"/>
<path d="M337.486 125.257H275.218V203.217H337.486V125.257Z" fill="#E6E6E6"/>
<path d="M313.093 131.326H299.611C296.712 131.326 293.844 130.735 291.181 129.589C288.519 128.444 286.118 126.768 284.124 124.663H328.58C326.588 126.769 324.187 128.446 321.524 129.591C318.861 130.737 315.992 131.327 313.093 131.326Z" fill="#F0F0F0"/>
<path d="M337.486 206.375H275.218V284.335H337.486V206.375Z" fill="#E6E6E6"/>
<path d="M313.093 212.444H299.611C296.712 212.444 293.844 211.853 291.181 210.707C288.519 209.562 286.118 207.886 284.124 205.781H328.58C326.588 207.887 324.187 209.564 321.524 210.709C318.861 211.855 315.992 212.445 313.093 212.444Z" fill="#F0F0F0"/>
<path d="M79.7893 176.465H141.323L150.246 212.806H88.7035L79.7893 176.465Z" fill="#E6E6E6"/>
<path d="M88.7036 212.807L88.9592 214.811H150.493L150.246 212.807H88.7036Z" fill="#E6E6E6"/>
<path d="M81.686 176.465H143.22L152.142 212.806H90.6003L81.686 176.465Z" fill="#F0F0F0"/>
<path d="M91.9035 211.141L83.7974 178.123H141.917L150.023 211.141H91.9035Z" fill="white"/>
<path d="M106.639 212.807L106.887 214.811H174.647L174.399 212.807H106.639Z" fill="#F0F0F0"/>
<path d="M190.109 214.81H182.736V293.974H190.109V214.81Z" fill="#E6E6E6"/>
<path d="M192.442 214.81H187.321V293.974H192.442V214.81Z" fill="#F0F0F0"/>
<path d="M99.028 223.873H194.033V214.81H99.028V223.873Z" fill="#F0F0F0"/>
<path d="M95.7211 223.873H88.3489V293.975H95.7211V223.873Z" fill="#E6E6E6"/>
<path d="M98.0467 223.873H92.9258V293.975H98.0467V223.873Z" fill="#F0F0F0"/>
<path d="M49.0555 223.873H41.6833V293.975H49.0555V223.873Z" fill="#E6E6E6"/>
<path d="M51.3893 223.873H46.2683V293.975H51.3893V223.873Z" fill="#F0F0F0"/>
<path d="M143.451 223.873H136.079V293.975H143.451V223.873Z" fill="#E6E6E6"/>
<path d="M145.776 223.873H140.655V293.975H145.776V223.873Z" fill="#F0F0F0"/>
<path d="M99.02 214.81H41.6836V223.872H99.02V214.81Z" fill="#E6E6E6"/>
<path d="M214.072 293.984H212.283L207.195 268.717L206.296 264.289L200.655 236.755H179.215L167.613 293.984H165.798L177.64 235.699C177.677 235.506 177.779 235.331 177.929 235.204C178.079 235.076 178.268 235.004 178.465 234.998H201.422C201.621 234.996 201.814 235.066 201.966 235.194C202.117 235.323 202.217 235.502 202.247 235.699L207.195 259.877L208.019 264.297L214.072 293.984Z" fill="#F0F0F0"/>
<path d="M248.5 293.983H246.703L235.075 236.754H213.635L208.019 264.297L207.195 268.717L202.057 293.983H200.268L206.296 264.297L207.186 259.885L212.134 235.707C212.173 235.514 212.275 235.341 212.425 235.213C212.575 235.086 212.763 235.013 212.959 235.006H235.842C236.039 235.012 236.228 235.084 236.378 235.212C236.527 235.339 236.63 235.514 236.667 235.707L248.5 293.983Z" fill="#F0F0F0"/>
<path d="M195.65 235.873H235.051C242.571 235.873 246.744 230.76 248.871 222.332L249.91 217.517C250.261 216.06 250.277 214.543 249.956 213.079C249.635 211.616 248.986 210.244 248.057 209.068C247.129 207.892 245.946 206.942 244.597 206.29C243.248 205.638 241.769 205.301 240.271 205.304H215.532C210.419 205.304 209.067 206.524 205.529 214.226C201.991 221.928 195.65 235.873 195.65 235.873Z" fill="#F0F0F0"/>
<path d="M217.131 235.873H175.141C174.619 235.873 174.117 235.665 173.748 235.295C173.378 234.926 173.17 234.424 173.17 233.902V233.72C173.17 233.012 173.31 232.311 173.581 231.657C173.852 231.002 174.249 230.408 174.75 229.907C175.251 229.406 175.845 229.009 176.5 228.738C177.154 228.467 177.855 228.327 178.563 228.327H217.131V235.881V235.873Z" fill="#F0F0F0"/>
<path d="M179.157 331.224C267.461 331.224 339.045 327.045 339.045 321.889C339.045 316.734 267.461 312.555 179.157 312.555C90.854 312.555 19.27 316.734 19.27 321.889C19.27 327.045 90.854 331.224 179.157 331.224Z" fill="#F5F5F5"/>
<path d="M140.424 295.509L135.147 298.906L125.581 287.782L130.859 284.385L140.424 295.509Z" fill="#FF8B7B"/>
<path opacity="0.2" d="M130.867 284.385L125.581 287.782L130.521 293.522L135.798 290.116L130.867 284.385Z" fill="black"/>
<path d="M100.092 313.651L94.0225 314.244L87.7141 299.813L93.7834 299.22L100.092 313.651Z" fill="#FF8B7B"/>
<path opacity="0.2" d="M87.7224 299.821L90.9715 307.259H97.2964L93.7834 299.228L87.7224 299.821Z" fill="black"/>
<path d="M54.0033 118.832C50.9521 119.104 50.8697 113.925 45.5096 116.358C38.6981 119.459 40.9989 124.266 35.68 124.068C30.3612 123.87 26.7988 128.018 27.9862 131.111C29.1737 134.203 31.0126 137.13 27.2523 138.376C23.492 139.621 20.9356 140.718 21.4799 143.835C22.0242 146.952 24.6877 148.205 20.2017 150.192C15.7157 152.18 16.1693 160.772 20.5646 160.781C24.9598 160.789 20.746 165.069 24.6877 169.423C28.6294 173.777 34.6245 174.371 37.1231 172.227C39.6217 170.083 42.409 168.31 47.1094 171.608C51.8097 174.907 59.7674 175.731 59.4046 170.503C59.0417 165.275 54.4568 161.844 58.7778 159.123C63.0989 156.402 68.6734 155.058 66.9252 149.764C65.8119 146.465 62.4475 143.595 65.1605 141.13C69.5722 137.122 69.597 128.051 64.1874 125.75C61.0456 124.423 64.072 117.925 54.0033 118.832Z" fill="#263238"/>
<path d="M48.132 159.586C47.9836 162.06 47.6702 164.262 47.3074 166.579C46.9445 168.896 46.4168 171.155 45.8148 173.423C45.228 175.716 44.4812 177.964 43.5801 180.152C43.1348 181.257 42.6235 182.354 42.0792 183.451C41.8071 183.995 41.5102 184.531 41.2051 185.059C41.0649 185.331 40.8918 185.595 40.7351 185.883L40.4959 186.271C40.3336 186.529 40.1516 186.774 39.9517 187.005C39.4943 187.521 38.9321 187.935 38.3024 188.217C37.74 188.472 37.137 188.625 36.5212 188.671C35.6156 188.723 34.7084 188.599 33.8494 188.308C32.5703 187.868 31.3513 187.27 30.2211 186.527C28.2307 185.224 26.3473 183.766 24.5889 182.164C21.1987 179.08 18.0375 175.754 15.1304 172.211L17.4723 169.96C19.1216 171.411 20.7708 172.887 22.4943 174.289C24.2178 175.691 25.9 177.101 27.6565 178.412C29.3287 179.699 31.0926 180.862 32.9341 181.892C33.7126 182.333 34.5439 182.674 35.408 182.906C35.6159 182.971 35.8351 182.991 36.0512 182.964H35.8863C35.7773 183.017 35.6772 183.087 35.5894 183.17L35.5482 183.212L35.7296 182.873C35.845 182.651 35.977 182.436 36.0842 182.205C36.3151 181.749 36.5377 181.287 36.7521 180.82C37.1644 179.88 37.5768 178.923 37.9066 177.926C38.5993 175.947 39.1765 173.901 39.6878 171.823C40.1991 169.745 40.5867 167.626 40.933 165.49C41.2793 163.354 41.5432 161.169 41.7576 159.141L48.132 159.586Z" fill="#FF8B7B"/>
<path d="M52.9231 160.361C52.5932 162.356 50.9357 166.133 49.6246 168.937C48.6515 170.966 47.8599 172.491 47.8599 172.491L46.7054 171.98L37.1479 167.725C37.8736 162.571 39.0528 157.005 44.7345 154.473C48.2804 152.906 53.5086 156.765 52.9231 160.361Z" fill="#AA7FBE"/>
<path opacity="0.6" d="M52.9231 160.361C52.5932 162.356 50.9357 166.133 49.6246 168.937C48.6515 170.966 47.8599 172.491 47.8599 172.491L46.7054 171.98L37.1479 167.725C37.8736 162.571 39.0528 157.005 44.7345 154.473C48.2804 152.906 53.5086 156.765 52.9231 160.361Z" fill="black"/>
<path opacity="0.3" d="M49.5999 168.937C48.6268 170.965 47.8351 172.491 47.8351 172.491L46.6807 171.98C46.8373 169.943 47.2414 166.735 48.3299 165.292C49.0098 166.402 49.4429 167.645 49.5999 168.937Z" fill="black"/>
<path d="M17.835 171.847L18.5936 166.297L12.3677 168.309C12.3677 168.309 13.3572 171.665 15.5755 173.042L17.835 171.847Z" fill="#FF8B7B"/>
<path d="M15.7735 161.557L11.4277 163.94L12.3678 168.343L18.5938 166.298L15.7735 161.557Z" fill="#FF8B7B"/>
<path d="M133.2 297.241L138.932 293.117C139.03 293.046 139.151 293.012 139.272 293.022C139.394 293.033 139.507 293.087 139.591 293.175L143.492 297.241C143.587 297.346 143.658 297.47 143.702 297.605C143.745 297.74 143.759 297.883 143.744 298.024C143.728 298.165 143.683 298.301 143.611 298.423C143.539 298.545 143.442 298.651 143.327 298.733C141.307 300.135 140.259 300.704 137.736 302.51C136.186 303.623 132.92 306.311 130.776 307.845C128.632 309.379 127.008 307.351 127.758 306.518C131.139 302.79 132.038 300.25 132.574 298.156C132.671 297.788 132.892 297.464 133.2 297.241Z" fill="#263238"/>
<path d="M93.2226 312.372H100.644C100.778 312.375 100.907 312.42 101.012 312.502C101.118 312.583 101.194 312.697 101.23 312.826L102.879 318.714C102.919 318.853 102.926 318.999 102.899 319.142C102.872 319.284 102.812 319.418 102.724 319.533C102.635 319.647 102.521 319.74 102.391 319.802C102.26 319.865 102.117 319.896 101.972 319.893C99.3496 319.893 98.1044 319.893 94.8306 319.893H84.8196C82.0984 319.893 81.5211 317.139 82.6508 316.891C87.6976 315.778 90.6085 314.236 92.1671 312.768C92.4559 312.507 92.8332 312.365 93.2226 312.372Z" fill="#263238"/>
<path d="M81.8924 182.708L57.5905 190.394C40.7681 157.095 43.1678 155.33 43.1678 155.33C43.1678 155.33 47.0518 153.112 51.0925 151.265C51.7027 150.985 52.3212 150.713 52.9314 150.44C56.5213 149.014 60.2085 147.845 63.9649 146.944C64.5174 146.796 65.0699 146.664 65.6142 146.532C68.6056 145.855 71.6346 145.357 74.6851 145.039C75.0479 149.649 75.4108 153.549 75.8066 156.938C76.3179 161.358 76.8704 164.896 77.4559 167.955C78.5381 172.984 80.0217 177.917 81.8924 182.708Z" fill="#AA7FBE"/>
<path opacity="0.6" d="M81.8924 182.708L57.5905 190.394C40.7681 157.095 43.1678 155.33 43.1678 155.33C43.1678 155.33 47.0518 153.112 51.0925 151.265C51.7027 150.985 52.3212 150.713 52.9314 150.44C56.5213 149.014 60.2085 147.845 63.9649 146.944C64.5174 146.796 65.0699 146.664 65.6142 146.532C68.6056 145.855 71.6346 145.357 74.6851 145.039C75.0479 149.649 75.4108 153.549 75.8066 156.938C76.3179 161.358 76.8704 164.896 77.4559 167.955C78.5381 172.984 80.0217 177.917 81.8924 182.708Z" fill="black"/>
<path opacity="0.3" d="M77.5217 167.971C75.188 164.672 72.9533 156.995 73.5305 154.117L75.8395 156.954C76.3507 161.374 76.9033 164.912 77.5217 167.971Z" fill="black"/>
<path d="M58.4563 161.547C58.4563 161.547 64.5833 160.219 66.5542 162.883C69.2589 160.219 68.3024 149.812 66.9995 146.102C65.9662 146.277 64.9525 146.553 63.9731 146.926L59.6438 153.622L58.4563 161.547Z" fill="white"/>
<path d="M58.4561 161.548C58.4561 161.548 54.3329 162.472 53.8959 165.845C48.1235 161.548 48.5275 155.256 49.8305 151.546C50.8196 151.067 51.8597 150.702 52.9311 150.457L57.2604 155.223L58.4561 161.548Z" fill="white"/>
<path d="M59.8664 139.934C60.6911 142.968 61.9445 145.97 63.9896 146.96C63.9896 146.96 65.8945 152.419 58.4728 161.547C50.7048 156.014 52.9478 150.456 52.9478 150.456C56.6092 148.254 55.5784 145.352 54.0198 142.812L56.1721 139.356C56.3865 139.024 56.6929 138.76 57.0542 138.598C57.4154 138.436 57.8159 138.382 58.207 138.443C58.5982 138.505 58.9632 138.678 59.2578 138.942C59.5523 139.207 59.7638 139.551 59.8664 139.934Z" fill="#FF8B7B"/>
<path opacity="0.2" d="M59.8664 139.934C59.7678 139.545 59.557 139.194 59.2603 138.924C58.9636 138.654 58.5941 138.477 58.1977 138.416C57.8013 138.354 57.3956 138.411 57.031 138.578C56.6664 138.745 56.3591 139.016 56.1473 139.357L55.4546 140.462C55.5123 141.196 55.5453 141.798 55.5371 142.111C55.4711 144.255 58.481 144.156 60.9301 143.125C60.4936 142.091 60.1379 141.024 59.8664 139.934Z" fill="black"/>
<path d="M44.9488 131.647C47.0929 137.493 47.868 140.017 51.7933 142.177C57.6894 145.434 64.4018 141.526 64.0555 135.151C63.7421 129.42 60.2952 120.811 53.7559 120.176C52.3145 120.03 50.8597 120.255 49.5296 120.829C48.1995 121.403 47.0382 122.308 46.1559 123.457C45.2736 124.606 44.6996 125.962 44.4883 127.395C44.2771 128.828 44.4356 130.292 44.9488 131.647Z" fill="#FF8B7B"/>
<path d="M60.1138 122.856C58.1017 120.918 55.9907 118.667 51.95 119.104C47.4805 119.59 45.7158 122.295 45.7158 122.295L41.873 130.698C41.873 130.698 44.2562 141.517 48.1897 136.471C50.4574 133.551 50.5152 129.14 49.6905 125.841C51.2358 125.623 52.759 125.27 54.2425 124.786C56.0567 125.462 58.0935 125.462 59.6026 124.076C59.9324 123.771 60.1716 123.532 60.3447 123.342L60.4849 123.186C60.9302 122.617 60.5591 122.674 60.1138 122.856ZM54.9187 124.604C56.3273 124.149 57.7586 123.766 59.2067 123.458C58.6683 124.027 57.9823 124.436 57.2251 124.639C56.4679 124.841 55.6694 124.829 54.9187 124.604Z" fill="#263238"/>
<path d="M45.2458 137.591C45.865 138.629 46.8702 139.379 48.0413 139.677C49.5916 140.065 50.3255 138.671 49.8555 137.204C49.4349 135.909 48.1237 134.144 46.5569 134.392C46.2182 134.454 45.9005 134.6 45.633 134.817C45.3656 135.033 45.157 135.314 45.0264 135.633C44.8958 135.951 44.8475 136.298 44.8858 136.64C44.9242 136.982 45.0479 137.309 45.2458 137.591Z" fill="#FF8B7B"/>
<path d="M57.5904 190.402C57.5904 190.402 56.7657 240.201 63.2721 258.195C69.5392 275.446 88.2336 305.1 88.2336 305.1L99.0692 304.827C99.0692 304.827 81.8509 267.266 79.0389 252.422C74.3551 227.791 75.3859 184.803 75.3859 184.803L57.5904 190.402Z" fill="#AA7FBE"/>
<path opacity="0.3" d="M67.321 194.698L70.232 186.452L75.3859 184.803C75.3859 184.803 74.9159 204.371 76.0456 224.665C71.37 215.66 67.321 199.168 67.321 194.698Z" fill="black"/>
<path d="M86.7082 305.659L100.092 305.321L99.3168 301.206L84.7043 301.899L86.7082 305.659Z" fill="#263238"/>
<path d="M62.8848 188.794C62.8848 188.794 79.7897 227.461 90.716 249.47C99.5395 267.249 127 291.097 127 291.097L134.528 285.877C134.528 285.877 113.863 257.626 107.769 245.569C88.2668 206.993 93.0744 191.094 81.8595 182.708L62.8848 188.794Z" fill="#AA7FBE"/>
<path d="M127.445 293.587L136.285 287.295L134.281 283.436L124.567 290.783L127.445 293.587Z" fill="#263238"/>
<path d="M81.8508 181.165L83.632 182.996C83.7722 183.136 83.632 183.375 83.3434 183.466L57.8542 191.522C57.6398 191.596 57.4253 191.522 57.3676 191.415L56.4605 189.304C56.3946 189.164 56.543 188.974 56.7821 188.9L81.3973 181.107C81.4714 181.077 81.5522 181.066 81.6317 181.076C81.7112 181.086 81.7868 181.117 81.8508 181.165Z" fill="#263238"/>
<path d="M79.3772 184.967L80.0369 184.761C80.1689 184.761 80.2513 184.612 80.2101 184.538L79.0144 181.809C78.979 181.764 78.9298 181.733 78.8746 181.719C78.8193 181.706 78.7611 181.711 78.7093 181.734L78.0496 181.949C77.9176 181.99 77.8352 182.089 77.8764 182.171L79.0804 184.893C79.1051 184.975 79.237 185.008 79.3772 184.967Z" fill="#AA7FBE"/>
<path d="M59.7429 191.177L60.4026 190.971C60.5346 190.93 60.6088 190.831 60.5758 190.749L59.3718 188.019C59.3718 187.937 59.1987 187.912 59.0667 187.953L58.407 188.159C58.2833 188.201 58.2009 188.3 58.2339 188.382L59.4378 191.111C59.475 191.154 59.5247 191.183 59.5796 191.194C59.6345 191.206 59.6917 191.2 59.7429 191.177Z" fill="#AA7FBE"/>
<path d="M69.5557 188.101L70.2154 187.895C70.3473 187.853 70.4298 187.754 70.3886 187.672L69.1846 184.942C69.1846 184.868 69.0197 184.835 68.8877 184.876L68.228 185.083C68.0961 185.083 68.0136 185.223 68.0549 185.305L69.2506 188.035C69.2918 188.101 69.4238 188.101 69.5557 188.101Z" fill="#AA7FBE"/>
<path d="M55.2072 130.376C55.3556 130.863 55.7267 131.201 56.0318 131.085C56.3369 130.97 56.4854 130.516 56.3369 130.038C56.1885 129.56 55.8257 129.214 55.5123 129.329C55.1989 129.444 55.067 129.873 55.2072 130.376Z" fill="#263238"/>
<path d="M60.6911 128.727C60.8395 129.214 61.2106 129.552 61.5157 129.436C61.8208 129.321 61.9693 128.876 61.8291 128.389C61.6889 127.903 61.3095 127.564 61.0044 127.68C60.6993 127.795 60.5509 128.241 60.6911 128.727Z" fill="#263238"/>
<path d="M60.8726 127.747L61.9363 127.062C61.9363 127.062 61.6147 128.151 60.8726 127.747Z" fill="#263238"/>
<path d="M59.3223 129.989C60.0874 130.965 60.9805 131.833 61.9776 132.57C61.7786 132.819 61.5282 133.021 61.2434 133.164C60.9587 133.306 60.6465 133.385 60.3283 133.395L59.3223 129.989Z" fill="#FF5652"/>
<path d="M58.6955 136.067C58.7182 136.048 58.7351 136.024 58.7439 135.996C58.7527 135.968 58.7531 135.938 58.745 135.91C58.7335 135.873 58.7085 135.841 58.675 135.821C58.6414 135.802 58.6017 135.795 58.5635 135.803C57.9646 135.998 57.3277 136.049 56.7055 135.95C56.0832 135.851 55.4934 135.606 54.9847 135.234C54.9695 135.221 54.9519 135.211 54.9329 135.205C54.914 135.199 54.8939 135.196 54.874 135.198C54.8541 135.199 54.8347 135.205 54.8169 135.214C54.7991 135.223 54.7832 135.235 54.7703 135.25C54.7573 135.266 54.7474 135.283 54.7412 135.302C54.735 135.321 54.7326 135.341 54.7341 135.361C54.7356 135.381 54.7411 135.4 54.7501 135.418C54.7591 135.436 54.7716 135.452 54.7867 135.465C55.3337 135.869 55.9692 136.137 56.6405 136.246C57.3117 136.355 57.9993 136.302 58.646 136.091L58.6955 136.067Z" fill="#263238"/>
<path d="M53.1375 129.032C53.176 128.996 53.2044 128.951 53.22 128.9C53.3424 128.548 53.5457 128.23 53.8135 127.97C54.0813 127.711 54.4062 127.518 54.7621 127.408C54.8035 127.403 54.8436 127.39 54.8796 127.369C54.9157 127.349 54.947 127.32 54.9715 127.287C54.9959 127.253 55.013 127.214 55.0216 127.174C55.0302 127.133 55.0302 127.091 55.0215 127.05C55.0127 127.009 54.9955 126.971 54.971 126.937C54.9464 126.904 54.9151 126.876 54.8789 126.855C54.8428 126.834 54.8027 126.821 54.7613 126.817C54.7198 126.813 54.6779 126.817 54.6384 126.83C54.1799 126.961 53.7606 127.203 53.4171 127.534C53.0735 127.864 52.8161 128.274 52.6675 128.727C52.653 128.764 52.6459 128.803 52.6468 128.843C52.6477 128.882 52.6564 128.921 52.6726 128.957C52.6887 128.993 52.7119 129.026 52.7407 129.053C52.7696 129.08 52.8036 129.101 52.8407 129.115C52.8932 129.125 52.9474 129.123 52.9991 129.109C53.0507 129.095 53.0981 129.068 53.1375 129.032Z" fill="#263238"/>
<path d="M62.3652 125.619C62.3624 125.6 62.3624 125.58 62.3652 125.561C62.3754 125.484 62.3566 125.406 62.3124 125.342C62.2682 125.278 62.2017 125.232 62.126 125.215C61.664 125.116 61.1852 125.129 60.7292 125.253C60.2733 125.376 59.8532 125.606 59.5037 125.924C59.449 125.981 59.4192 126.057 59.4207 126.136C59.4223 126.215 59.4551 126.29 59.5119 126.344C59.5688 126.399 59.645 126.429 59.7239 126.427C59.8028 126.426 59.8778 126.393 59.9325 126.336C60.2118 126.089 60.5458 125.911 60.907 125.818C61.2683 125.725 61.6465 125.719 62.0106 125.8C62.0816 125.817 62.1565 125.809 62.2215 125.775C62.2866 125.742 62.3376 125.686 62.3652 125.619Z" fill="#263238"/>
<path d="M78.4121 150.877C79.3934 151.611 80.2181 152.295 81.0757 153.037C81.9333 153.78 82.7249 154.522 83.5496 155.297C85.1576 156.847 86.7079 158.464 88.1757 160.162C89.6599 161.87 91.0369 163.669 92.2989 165.547C92.6287 166.009 92.9173 166.512 93.2225 166.99C93.5276 167.468 93.8327 167.955 94.1048 168.466C94.3769 168.978 94.6656 169.431 94.9294 170L95.3665 170.915L95.7211 171.839C96.4812 174.181 96.8381 176.635 96.7766 179.096C96.7265 181.383 96.481 183.662 96.0427 185.907C95.6139 188.109 95.0531 190.261 94.3934 192.372C93.7282 194.487 92.952 196.565 92.068 198.598L89.0828 197.493C89.5941 195.514 90.0806 193.436 90.4435 191.383C90.8464 189.349 91.141 187.296 91.3258 185.231C91.524 183.231 91.5709 181.218 91.466 179.211C91.407 178.26 91.2913 177.312 91.1197 176.374C90.9387 175.509 90.6878 174.66 90.3692 173.835L90.1136 173.266L89.8332 172.746C89.6106 172.367 89.3055 171.921 89.0086 171.501C88.7117 171.08 88.4643 170.676 88.184 170.256C87.9036 169.835 87.615 169.431 87.3016 169.035C86.0977 167.386 84.737 165.885 83.3846 164.36C82.0322 162.834 80.5479 161.399 79.0388 159.997C78.2967 159.288 77.5298 158.595 76.7629 157.919C75.996 157.243 75.1713 156.567 74.4622 155.99L78.4121 150.877Z" fill="#FF8B7B"/>
<path d="M90.0314 195.522L85.5125 198.821L91.2849 201.872C91.2849 201.872 93.0083 198.821 92.4558 196.273L90.0314 195.522Z" fill="#FF8B7B"/>
<path d="M84.0857 204.172L88.8108 205.632L91.3259 201.888L85.5123 198.837L84.0857 204.172Z" fill="#FF8B7B"/>
<path d="M74.7177 145.055C77.876 144.914 84.0855 152.674 84.0855 152.674L77.6368 161.795C77.6368 161.795 70.3966 156.022 69.8359 152.006C69.3658 148.584 70.6935 145.22 74.7177 145.055Z" fill="#AA7FBE"/>
<path opacity="0.6" d="M74.7177 145.055C77.876 144.914 84.0855 152.674 84.0855 152.674L77.6368 161.795C77.6368 161.795 70.3966 156.022 69.8359 152.006C69.3658 148.584 70.6935 145.22 74.7177 145.055Z" fill="black"/>
<path d="M131.032 299.822H130.933C130.788 299.804 130.651 299.748 130.535 299.66C130.419 299.571 130.329 299.454 130.273 299.319C130.23 299.241 130.207 299.153 130.207 299.064C130.207 298.974 130.23 298.886 130.273 298.808C130.677 298.115 132.945 297.983 133.201 297.983C133.229 297.983 133.258 297.99 133.282 298.005C133.307 298.02 133.327 298.041 133.341 298.066C133.357 298.09 133.366 298.119 133.366 298.148C133.366 298.178 133.357 298.206 133.341 298.231C132.788 298.841 131.807 299.822 131.032 299.822ZM132.846 298.313C131.939 298.379 130.735 298.594 130.529 298.956C130.507 298.989 130.495 299.028 130.495 299.068C130.495 299.108 130.507 299.146 130.529 299.179C130.564 299.269 130.622 299.349 130.697 299.41C130.772 299.47 130.862 299.51 130.958 299.525C131.395 299.575 132.088 299.121 132.846 298.313Z" fill="#AA7FBE"/>
<path d="M133.044 298.296C132.286 298.296 130.793 297.875 130.513 297.265C130.468 297.157 130.46 297.037 130.49 296.924C130.519 296.811 130.585 296.71 130.677 296.638C130.763 296.562 130.864 296.504 130.973 296.468C131.083 296.433 131.198 296.42 131.312 296.432C132.211 296.531 133.275 297.991 133.316 298.081C133.33 298.104 133.338 298.129 133.338 298.156C133.338 298.182 133.33 298.208 133.316 298.23C133.305 298.252 133.289 298.271 133.268 298.285C133.248 298.299 133.225 298.309 133.201 298.312L133.044 298.296ZM131.213 296.729C131.091 296.728 130.972 296.775 130.884 296.861C130.743 296.985 130.76 297.084 130.785 297.15C130.966 297.545 132.137 297.974 132.904 297.974C132.525 297.504 131.815 296.762 131.255 296.704L131.213 296.729Z" fill="#AA7FBE"/>
<path d="M89.9158 313.601C89.4079 313.638 88.9011 313.517 88.4645 313.255C88.3512 313.172 88.2583 313.064 88.1926 312.94C88.1269 312.815 88.0902 312.678 88.0851 312.538C88.0784 312.459 88.0924 312.381 88.1257 312.31C88.159 312.239 88.2104 312.178 88.2748 312.133C88.951 311.68 91.4826 312.826 91.9856 313.065C92.0137 313.078 92.037 313.099 92.0519 313.126C92.0668 313.152 92.0725 313.183 92.0681 313.214C92.0654 313.245 92.0527 313.275 92.0319 313.299C92.0112 313.322 91.9834 313.339 91.9527 313.346C91.284 313.499 90.6016 313.585 89.9158 313.601ZM88.7366 312.315C88.6335 312.31 88.5309 312.332 88.4397 312.381C88.4184 312.397 88.4018 312.418 88.3916 312.443C88.3815 312.468 88.3781 312.495 88.382 312.521C88.3852 312.618 88.4106 312.713 88.4564 312.799C88.5021 312.885 88.567 312.959 88.6459 313.016C89.083 313.346 90.1137 313.395 91.4414 313.148C90.5889 312.73 89.6762 312.449 88.7366 312.315Z" fill="#AA7FBE"/>
<path d="M91.9198 313.344H91.8703C91.0456 312.998 89.3304 311.637 89.3964 310.937C89.3964 310.788 89.5201 310.59 89.8994 310.549C91.3837 310.368 92.0105 313.023 92.0352 313.171C92.0407 313.198 92.039 313.226 92.0303 313.252C92.0216 313.278 92.0062 313.301 91.9857 313.32C91.9664 313.334 91.9436 313.342 91.9198 313.344ZM90.0973 310.829H89.9984C89.8417 310.829 89.7592 310.895 89.7427 310.969C89.6933 311.374 90.8642 312.454 91.7218 312.924C91.4992 312.272 90.9632 310.829 90.0973 310.829Z" fill="#AA7FBE"/>
<path d="M55.3889 129.38L56.4527 128.695C56.4527 128.695 56.1311 129.784 55.3889 129.38Z" fill="#263238"/>
<path d="M211.013 69.0822H91.1694C89.889 69.0735 88.6204 69.3271 87.4418 69.8275C86.2632 70.3278 85.1995 71.0643 84.3164 71.9914C83.4333 72.9186 82.7494 74.0168 82.307 75.2183C81.8646 76.4199 81.6729 77.6993 81.7439 78.9778L92.9836 311.993C93.1437 314.648 94.3023 317.143 96.2265 318.979C98.1508 320.814 100.698 321.854 103.357 321.889H223.201C224.481 321.897 225.749 321.644 226.927 321.143C228.105 320.643 229.169 319.906 230.051 318.979C230.934 318.052 231.617 316.953 232.058 315.752C232.5 314.55 232.69 313.271 232.618 311.993L221.387 78.9778C221.226 76.3233 220.068 73.8276 218.144 71.9921C216.219 70.1565 213.672 69.117 211.013 69.0822Z" fill="black"/>
<path d="M215.441 69.0823H95.5645C94.2844 69.0735 93.0162 69.3271 91.8379 69.8275C90.6597 70.3279 89.5966 71.0645 88.7141 71.9918C87.8316 72.9191 87.1486 74.0174 86.7071 75.2189C86.2656 76.4205 86.0751 77.6998 86.1472 78.9778L97.3787 311.993C97.5388 314.648 98.6973 317.143 100.622 318.979C102.546 320.814 105.093 321.854 107.752 321.889H227.596C228.876 321.897 230.144 321.644 231.322 321.143C232.5 320.643 233.564 319.906 234.446 318.979C235.329 318.052 236.012 316.953 236.453 315.752C236.895 314.55 237.085 313.271 237.013 311.993L225.782 78.9778C225.622 76.3289 224.468 73.8379 222.551 72.0032C220.633 70.1684 218.094 69.1252 215.441 69.0823Z" fill="#263238"/>
<path d="M107.415 315.292C106.532 315.27 105.689 314.92 105.05 314.31C104.412 313.7 104.023 312.874 103.959 311.993L92.7445 78.9782C92.7244 78.5529 92.7908 78.1279 92.9395 77.729C93.0883 77.3301 93.3164 76.9655 93.6101 76.6572C93.9037 76.3489 94.2568 76.1033 94.6481 75.9353C95.0393 75.7673 95.4605 75.6803 95.8863 75.6797H215.73C216.614 75.6983 217.458 76.0472 218.098 76.6577C218.737 77.2682 219.125 78.0961 219.185 78.9782L230.416 311.993C230.436 312.418 230.37 312.842 230.222 313.241C230.074 313.639 229.846 314.003 229.553 314.312C229.261 314.62 228.909 314.866 228.518 315.034C228.128 315.203 227.708 315.29 227.283 315.292H107.415Z" fill="#AA7FBE"/>
<path opacity="0.1" d="M107.357 313.643C106.916 313.628 106.496 313.452 106.177 313.148C105.858 312.844 105.661 312.433 105.625 311.994L94.3936 78.9784C94.3859 78.7666 94.4206 78.5555 94.4955 78.3573C94.5705 78.1591 94.6843 77.9779 94.8302 77.8243C94.9762 77.6707 95.1513 77.5477 95.3454 77.4627C95.5395 77.3777 95.7486 77.3323 95.9604 77.3291H215.804C216.245 77.342 216.666 77.5175 216.986 77.822C217.305 78.1264 217.501 78.5383 217.535 78.9784L228.767 311.994C228.775 312.205 228.74 312.417 228.665 312.615C228.59 312.813 228.476 312.994 228.33 313.148C228.184 313.301 228.009 313.424 227.815 313.509C227.621 313.594 227.412 313.64 227.2 313.643H107.357Z" fill="black"/>
<g opacity="0.3">
<path d="M143.525 300.25H119.784C119.132 300.242 118.508 299.988 118.036 299.538C117.565 299.088 117.282 298.476 117.244 297.825L115.512 261.781C115.491 261.462 115.535 261.142 115.643 260.842C115.751 260.541 115.92 260.266 116.139 260.034C116.358 259.801 116.623 259.617 116.916 259.492C117.21 259.367 117.527 259.304 117.846 259.307H141.628C142.278 259.312 142.902 259.565 143.372 260.014C143.843 260.463 144.124 261.074 144.16 261.723L145.867 297.776C145.887 298.095 145.842 298.414 145.733 298.715C145.624 299.016 145.455 299.291 145.235 299.523C145.015 299.755 144.75 299.939 144.456 300.064C144.162 300.189 143.845 300.252 143.525 300.25ZM117.813 260.148C117.607 260.147 117.404 260.187 117.214 260.266C117.024 260.346 116.852 260.462 116.708 260.61C116.568 260.761 116.459 260.939 116.389 261.133C116.318 261.327 116.286 261.533 116.296 261.739L118.036 297.776C118.059 298.217 118.249 298.633 118.567 298.939C118.886 299.246 119.309 299.419 119.751 299.425H143.525C143.732 299.426 143.937 299.385 144.127 299.304C144.317 299.224 144.489 299.104 144.631 298.954C144.773 298.804 144.883 298.627 144.954 298.432C145.025 298.238 145.055 298.032 145.042 297.825L143.302 261.781C143.281 261.34 143.093 260.924 142.776 260.618C142.459 260.311 142.036 260.137 141.595 260.131L117.813 260.148Z" fill="#FAFAFA"/>
<path d="M141.282 268.518H118.959C118.85 268.518 118.745 268.475 118.668 268.397C118.591 268.32 118.547 268.215 118.547 268.106C118.547 267.996 118.591 267.891 118.668 267.814C118.745 267.737 118.85 267.693 118.959 267.693H141.307C141.416 267.693 141.521 267.737 141.598 267.814C141.676 267.891 141.719 267.996 141.719 268.106C141.719 268.215 141.676 268.32 141.598 268.397C141.521 268.475 141.416 268.518 141.307 268.518H141.282Z" fill="#FAFAFA"/>
<path d="M141.513 273.177H119.157C119.049 273.175 118.945 273.131 118.868 273.054C118.791 272.977 118.747 272.874 118.745 272.765C118.745 272.656 118.789 272.551 118.866 272.473C118.943 272.396 119.048 272.353 119.157 272.353H141.513C141.622 272.353 141.727 272.396 141.805 272.473C141.882 272.551 141.925 272.656 141.925 272.765C141.923 272.874 141.879 272.977 141.802 273.054C141.725 273.131 141.622 273.175 141.513 273.177Z" fill="#FAFAFA"/>
<path d="M141.736 277.835H119.38C119.271 277.833 119.168 277.789 119.091 277.712C119.014 277.635 118.97 277.532 118.968 277.423C118.968 277.314 119.011 277.209 119.089 277.132C119.166 277.054 119.271 277.011 119.38 277.011H141.736C141.845 277.011 141.95 277.054 142.027 277.132C142.105 277.209 142.148 277.314 142.148 277.423C142.148 277.532 142.105 277.637 142.027 277.715C141.95 277.792 141.845 277.835 141.736 277.835Z" fill="#FAFAFA"/>
<path d="M141.958 282.495H119.611C119.501 282.495 119.397 282.451 119.319 282.374C119.242 282.296 119.198 282.192 119.198 282.082C119.198 281.973 119.242 281.868 119.319 281.791C119.397 281.713 119.501 281.67 119.611 281.67H141.958C142.068 281.67 142.172 281.713 142.25 281.791C142.327 281.868 142.371 281.973 142.371 282.082C142.371 282.192 142.327 282.296 142.25 282.374C142.172 282.451 142.068 282.495 141.958 282.495Z" fill="#FAFAFA"/>
<path d="M142.181 287.156H119.833C119.724 287.156 119.619 287.112 119.542 287.035C119.464 286.958 119.421 286.853 119.421 286.743C119.421 286.634 119.464 286.529 119.542 286.452C119.619 286.375 119.724 286.331 119.833 286.331H142.181C142.29 286.331 142.395 286.375 142.472 286.452C142.55 286.529 142.593 286.634 142.593 286.743C142.593 286.853 142.55 286.958 142.472 287.035C142.395 287.112 142.29 287.156 142.181 287.156Z" fill="#FAFAFA"/>
<path d="M137.827 291.814H120.056C119.947 291.814 119.842 291.77 119.765 291.693C119.687 291.616 119.644 291.511 119.644 291.402C119.644 291.292 119.687 291.187 119.765 291.11C119.842 291.033 119.947 290.989 120.056 290.989H137.827C137.936 290.989 138.041 291.033 138.119 291.11C138.196 291.187 138.239 291.292 138.239 291.402C138.237 291.51 138.193 291.614 138.116 291.691C138.039 291.768 137.936 291.812 137.827 291.814Z" fill="#FAFAFA"/>
</g>
<g opacity="0.3">
<path d="M158.492 168.004L142.189 170.61C141.56 169.058 140.728 167.597 139.715 166.264C138.739 165.24 137.585 164.402 136.309 163.79L136.92 176.572C145.985 178.958 152.085 181.476 155.218 184.125C157.216 185.79 158.837 187.861 159.974 190.199C161.112 192.538 161.739 195.091 161.815 197.691C162.033 200.733 161.474 203.78 160.191 206.547C158.97 209.128 157.213 211.419 155.037 213.268C153.01 215.004 150.666 216.331 148.135 217.177C145.163 218.07 142.084 218.553 138.981 218.611L139.088 220.863C139.113 221.279 139.052 221.697 138.909 222.089C138.766 222.481 138.543 222.839 138.256 223.142C137.968 223.444 137.621 223.684 137.236 223.847C136.852 224.009 136.438 224.091 136.021 224.087C135.154 224.078 134.322 223.74 133.695 223.142C133.067 222.543 132.69 221.729 132.64 220.863L132.533 218.611C128.913 218.379 125.34 217.675 121.903 216.517C119.27 215.566 116.836 214.137 114.721 212.303C112.79 210.655 111.156 208.689 109.888 206.489C108.617 204.124 107.692 201.589 107.142 198.961L124.88 196.891C125.551 199.799 126.375 201.902 127.354 203.199C128.583 204.706 130.163 205.89 131.955 206.646L131.205 191.044C126.812 189.951 122.511 188.517 118.341 186.756C115.643 185.411 113.324 183.412 111.595 180.942C109.575 178.088 108.457 174.692 108.388 171.195C108.196 168.783 108.532 166.357 109.372 164.087C110.212 161.817 111.536 159.757 113.253 158.051C116.749 154.527 122.109 152.575 129.333 152.196L129.275 151.05C129.25 150.633 129.312 150.216 129.455 149.824C129.598 149.431 129.821 149.073 130.108 148.771C130.396 148.468 130.743 148.228 131.127 148.066C131.512 147.903 131.926 147.821 132.343 147.825C133.21 147.834 134.042 148.172 134.669 148.771C135.297 149.369 135.674 150.184 135.724 151.05L135.782 152.196C142.379 152.608 147.494 154.169 151.128 156.88C154.783 159.636 157.382 163.563 158.492 168.004ZM129.877 163.592C128.407 163.969 127.08 164.769 126.059 165.893C125.365 166.825 125.029 167.975 125.111 169.134C125.155 170.377 125.607 171.571 126.397 172.531C127.498 173.686 128.892 174.521 130.43 174.947L129.877 163.592ZM138.429 207.067C140.903 206.517 142.689 205.593 143.789 204.296C144.317 203.712 144.724 203.03 144.987 202.289C145.25 201.547 145.364 200.761 145.323 199.975C145.239 198.543 144.655 197.186 143.673 196.14C142.634 194.978 140.655 193.889 137.753 192.891L138.429 207.067Z" fill="#FAFAFA"/>
</g>
<path opacity="0.2" d="M201.587 99.5029H119.949L127.907 264.519C128.295 271.28 131.236 277.64 136.134 282.315C141.033 286.99 147.524 289.631 154.295 289.704H235.933L227.984 124.687C227.599 117.924 224.658 111.56 219.757 106.884C214.856 102.208 208.361 99.5694 201.587 99.5029Z" fill="black"/>
<path d="M221.584 99.5029H119.974C126.745 99.5734 133.237 102.213 138.136 106.889C143.035 111.564 145.975 117.926 146.362 124.687L152.852 259.019C153.24 265.779 156.181 272.14 161.079 276.815C165.978 281.49 172.469 284.131 179.24 284.203H230.474C233.736 284.237 236.97 283.6 239.975 282.33C242.98 281.061 245.692 279.187 247.942 276.825C250.192 274.463 251.932 271.663 253.054 268.6C254.175 265.537 254.655 262.276 254.462 259.019L247.981 124.687C247.596 117.924 244.655 111.56 239.754 106.884C234.853 102.208 228.358 99.5694 221.584 99.5029Z" fill="#FAFAFA"/>
<path d="M203.22 259.02C203.414 262.274 202.936 265.534 201.816 268.596C200.696 271.658 198.958 274.457 196.711 276.819C194.463 279.181 191.754 281.055 188.751 282.326C185.749 283.596 182.517 284.235 179.256 284.204H280.859C284.119 284.235 287.352 283.596 290.355 282.326C293.358 281.056 296.068 279.181 298.316 276.819C300.564 274.458 302.303 271.659 303.423 268.597C304.544 265.534 305.023 262.275 304.831 259.02H203.22Z" fill="#E6E6E6"/>
<path d="M235.892 182.882H164.083C163.58 182.876 163.097 182.68 162.733 182.332C162.369 181.985 162.15 181.512 162.12 181.01C162.107 180.768 162.143 180.526 162.227 180.299C162.31 180.072 162.439 179.864 162.606 179.688C162.773 179.513 162.974 179.374 163.197 179.279C163.42 179.184 163.66 179.136 163.902 179.138H235.71C236.219 179.135 236.71 179.327 237.082 179.676C237.453 180.024 237.676 180.501 237.706 181.01C237.72 181.254 237.683 181.499 237.597 181.728C237.511 181.958 237.379 182.167 237.209 182.343C237.038 182.519 236.833 182.658 236.607 182.75C236.38 182.843 236.137 182.888 235.892 182.882Z" fill="#AA7FBE"/>
<path d="M236.452 194.566H164.644C164.14 194.561 163.658 194.364 163.293 194.017C162.929 193.67 162.71 193.197 162.681 192.694C162.667 192.453 162.704 192.211 162.787 191.983C162.871 191.756 163 191.548 163.167 191.373C163.334 191.198 163.535 191.058 163.757 190.964C163.98 190.869 164.22 190.821 164.462 190.822H236.279C236.781 190.83 237.262 191.027 237.624 191.374C237.987 191.721 238.204 192.193 238.233 192.694C238.247 192.936 238.211 193.178 238.127 193.405C238.044 193.632 237.915 193.84 237.748 194.015C237.581 194.191 237.38 194.33 237.157 194.425C236.934 194.52 236.694 194.568 236.452 194.566Z" fill="#AA7FBE"/>
<path d="M237.022 206.243H165.205C164.701 206.237 164.219 206.041 163.854 205.694C163.49 205.346 163.271 204.874 163.242 204.371C163.229 204.129 163.265 203.887 163.348 203.66C163.432 203.433 163.561 203.225 163.728 203.05C163.895 202.874 164.096 202.735 164.319 202.64C164.541 202.546 164.781 202.498 165.023 202.499H236.881C237.385 202.504 237.867 202.701 238.232 203.048C238.596 203.396 238.815 203.868 238.844 204.371C238.858 204.616 238.821 204.862 238.734 205.092C238.648 205.322 238.516 205.531 238.344 205.707C238.173 205.883 237.967 206.022 237.739 206.114C237.511 206.206 237.267 206.25 237.022 206.243Z" fill="#AA7FBE"/>
<path d="M237.582 217.945H165.774C165.271 217.938 164.789 217.741 164.426 217.394C164.062 217.047 163.842 216.575 163.811 216.073C163.798 215.831 163.834 215.589 163.917 215.362C164.001 215.135 164.13 214.927 164.297 214.752C164.464 214.577 164.665 214.437 164.888 214.343C165.11 214.248 165.35 214.2 165.592 214.201H237.401C237.904 214.207 238.387 214.403 238.751 214.75C239.116 215.098 239.334 215.571 239.364 216.073C239.377 216.315 239.341 216.557 239.257 216.784C239.174 217.011 239.045 217.219 238.878 217.394C238.711 217.57 238.51 217.709 238.287 217.804C238.064 217.898 237.824 217.947 237.582 217.945Z" fill="#AA7FBE"/>
<path d="M209.594 229.63H166.334C165.831 229.624 165.348 229.428 164.984 229.08C164.62 228.733 164.401 228.26 164.372 227.758C164.358 227.516 164.394 227.274 164.478 227.047C164.561 226.82 164.691 226.612 164.857 226.437C165.024 226.261 165.225 226.122 165.448 226.027C165.671 225.932 165.911 225.884 166.153 225.886H209.413C209.916 225.891 210.399 226.087 210.763 226.435C211.127 226.782 211.346 227.255 211.375 227.758C211.389 227.999 211.353 228.241 211.269 228.469C211.186 228.696 211.057 228.903 210.89 229.079C210.723 229.254 210.522 229.394 210.299 229.488C210.076 229.583 209.836 229.631 209.594 229.63Z" fill="#AA7FBE"/>
<path d="M214.583 158.66C223.081 149.956 222.564 135.67 213.429 126.753C204.295 117.836 190.001 117.663 181.504 126.368C173.006 135.072 173.523 149.358 182.658 158.275C191.792 167.193 206.086 167.365 214.583 158.66Z" fill="#AA7FBE"/>
<path d="M216.661 142.499C216.817 145.563 216.19 148.617 214.839 151.372C213.374 154.326 211.106 156.807 208.296 158.531C205.485 160.255 202.245 161.152 198.948 161.119C195.537 161.093 192.192 160.181 189.24 158.472C186.288 156.764 183.83 154.317 182.109 151.372C180.503 148.678 179.583 145.631 179.429 142.499C179.287 140.092 179.64 137.682 180.469 135.418C181.297 133.154 182.582 131.085 184.244 129.339C185.906 127.592 187.91 126.206 190.13 125.267C192.35 124.328 194.74 123.855 197.15 123.879C202.154 123.941 206.948 125.896 210.569 129.351C214.189 132.806 216.366 137.504 216.661 142.499Z" fill="white"/>
<path opacity="0.4" d="M214.839 151.372C213.374 154.326 211.107 156.808 208.296 158.532C205.485 160.256 202.246 161.152 198.949 161.119C195.538 161.094 192.192 160.182 189.24 158.473C186.288 156.764 183.831 154.317 182.11 151.372C186.855 148.116 192.484 146.389 198.239 146.424C204.134 146.435 209.9 148.154 214.839 151.372Z" fill="#AA7FBE"/>
<path opacity="0.4" d="M203.808 142.051C206.932 138.851 206.744 133.6 203.387 130.323C200.03 127.047 194.777 126.985 191.653 130.185C188.528 133.385 188.717 138.636 192.074 141.913C195.43 145.189 200.684 145.252 203.808 142.051Z" fill="#AA7FBE"/>
<path d="M267.195 315.705H261.142L260.531 301.67H266.593L267.195 315.705Z" fill="#B55B52"/>
<path opacity="0.2" d="M260.54 301.678L260.845 308.91H266.906L266.592 301.678H260.54Z" fill="black"/>
<path d="M318.758 299.261L313.002 301.142L305.754 288.747L311.518 286.867L318.758 299.261Z" fill="#B55B52"/>
<path opacity="0.2" d="M311.518 286.867L305.754 288.747L309.498 295.138L315.254 293.258L311.518 286.867Z" fill="black"/>
<path d="M287.678 112.995C288.429 113.91 289.064 114.727 289.715 115.626C290.367 116.525 290.985 117.382 291.604 118.273C292.824 120.062 293.995 121.893 295.092 123.781C297.374 127.613 299.235 131.68 300.642 135.912L300.782 136.324L300.848 136.538L300.938 136.876L301.103 137.553L301.194 138.171C301.292 138.912 301.322 139.66 301.285 140.406C301.208 141.664 301.026 142.914 300.74 144.141C300.218 146.341 299.526 148.497 298.671 150.59C297.04 154.602 295.064 158.464 292.766 162.135L288.643 160.164C289.88 156.296 291.117 152.338 292.024 148.487C292.496 146.631 292.854 144.747 293.096 142.847C293.198 142.026 293.228 141.198 293.187 140.373C293.174 140.079 293.136 139.786 293.071 139.499L293.03 139.35C293.015 139.324 293.001 139.296 292.989 139.268L292.923 139.111L292.791 138.789L292.239 137.495L291.62 136.208C291.208 135.384 290.754 134.493 290.301 133.636C289.361 131.937 288.346 130.246 287.291 128.564C286.235 126.882 285.114 125.266 283.992 123.616C282.871 121.967 281.642 120.318 280.529 118.825L287.678 112.995Z" fill="#B55B52"/>
<path d="M289.022 159.14L286.656 164.377H293.426C293.426 164.377 294.506 160.402 292.049 158.794L289.022 159.14Z" fill="#B55B52"/>
<path d="M287.447 170.265L293.731 169.053L293.426 164.377H286.656L287.447 170.265Z" fill="#B55B52"/>
<path d="M257.678 86.4175C257.678 86.9123 257.423 87.3081 257.101 87.3081C256.779 87.3081 256.524 86.9123 256.524 86.4175C256.524 85.9227 256.788 85.5352 257.101 85.5352C257.414 85.5352 257.678 85.931 257.678 86.4175Z" fill="#263238"/>
<path d="M257.497 87.3066C256.916 88.7987 256.13 90.203 255.163 91.4793C255.497 91.7183 255.878 91.8819 256.281 91.9588C256.684 92.0357 257.099 92.024 257.497 91.9246V87.3066Z" fill="#A02724"/>
<path d="M259.41 83.7116C259.35 83.7123 259.291 83.6918 259.245 83.6538C258.958 83.4377 258.624 83.2916 258.27 83.2272C257.917 83.1628 257.553 83.1818 257.208 83.2828C257.139 83.3015 257.066 83.2941 257.002 83.2618C256.938 83.2295 256.888 83.1746 256.863 83.1079C256.837 83.0412 256.837 82.9673 256.863 82.9005C256.888 82.8338 256.938 82.779 257.002 82.7467C257.436 82.6088 257.898 82.5772 258.347 82.6547C258.796 82.7322 259.22 82.9165 259.583 83.192C259.644 83.2381 259.684 83.3057 259.697 83.3809C259.709 83.4561 259.692 83.5332 259.649 83.5961C259.62 83.6321 259.584 83.6612 259.543 83.6812C259.501 83.7012 259.456 83.7116 259.41 83.7116Z" fill="#263238"/>
<path d="M273.453 92.0479C272.579 96.4844 271.713 104.607 274.814 107.559C274.814 107.559 273.602 112.053 265.372 112.053C256.301 112.053 261.043 107.559 261.043 107.559C265.99 106.38 265.858 102.719 264.993 99.2716L273.453 92.0479Z" fill="#B55B52"/>
<path d="M276.001 109.102C276.653 107.684 277.37 106.051 275.886 105.54C274.237 104.979 265.364 104.41 262.288 105.466C261.883 105.578 261.505 105.769 261.175 106.029C260.845 106.288 260.57 106.611 260.366 106.977C260.162 107.344 260.033 107.748 259.986 108.165C259.94 108.582 259.976 109.005 260.094 109.407L276.001 109.102Z" fill="#263238"/>
<path d="M311.757 302.585C311.312 303.014 310.809 303.36 310.43 303.302C310.31 303.278 310.201 303.218 310.116 303.129C310.032 303.041 309.978 302.928 309.96 302.808C309.934 302.714 309.93 302.616 309.947 302.52C309.964 302.425 310.002 302.334 310.059 302.255C310.553 301.488 312.532 301.158 312.64 301.15C312.666 301.146 312.693 301.149 312.718 301.16C312.742 301.17 312.764 301.186 312.78 301.208C312.795 301.231 312.804 301.258 312.804 301.286C312.804 301.314 312.795 301.341 312.78 301.364C312.483 301.806 312.14 302.215 311.757 302.585ZM310.413 302.272C310.37 302.311 310.331 302.355 310.298 302.403C310.265 302.451 310.242 302.505 310.232 302.562C310.222 302.619 310.225 302.677 310.24 302.733C310.306 302.989 310.43 303.014 310.471 303.014C310.891 303.08 311.79 302.189 312.343 301.496C311.65 301.609 310.991 301.874 310.413 302.272Z" fill="#AA7FBE"/>
<path d="M312.747 301.389L312.681 301.431C311.996 301.612 310.207 301.496 309.828 300.919C309.771 300.827 309.747 300.719 309.759 300.611C309.771 300.504 309.818 300.403 309.894 300.326C309.965 300.242 310.051 300.174 310.149 300.124C310.247 300.074 310.353 300.045 310.463 300.037C311.37 299.971 312.681 301.134 312.739 301.183C312.759 301.2 312.773 301.222 312.78 301.247C312.788 301.272 312.788 301.298 312.78 301.323C312.778 301.349 312.766 301.372 312.747 301.389ZM310.166 300.466L310.116 300.515C310.001 300.655 310.05 300.73 310.067 300.763C310.289 301.101 311.543 301.29 312.318 301.2C311.806 300.737 311.17 300.433 310.487 300.326C310.372 300.335 310.264 300.384 310.182 300.466H310.166Z" fill="#AA7FBE"/>
<path d="M258.701 316.01C257.926 316.01 257.175 315.903 256.928 315.557C256.861 315.466 256.825 315.356 256.825 315.243C256.825 315.13 256.861 315.021 256.928 314.93C256.977 314.846 257.042 314.772 257.12 314.714C257.198 314.656 257.287 314.614 257.381 314.592C258.387 314.32 260.507 315.524 260.597 315.581C260.623 315.595 260.644 315.617 260.656 315.644C260.668 315.671 260.671 315.701 260.663 315.73C260.659 315.757 260.647 315.783 260.628 315.804C260.608 315.825 260.584 315.839 260.556 315.845C259.943 315.952 259.323 316.007 258.701 316.01ZM257.744 314.839C257.651 314.826 257.557 314.826 257.464 314.839C257.406 314.851 257.351 314.874 257.303 314.908C257.254 314.942 257.214 314.986 257.183 315.037C257.084 315.218 257.117 315.309 257.183 315.359C257.464 315.746 258.998 315.754 260.119 315.598C259.384 315.193 258.578 314.935 257.744 314.839Z" fill="#AA7FBE"/>
<path d="M260.531 315.846H260.474C259.748 315.516 258.297 314.196 258.404 313.52C258.404 313.355 258.544 313.157 258.94 313.116C259.087 313.1 259.236 313.113 259.377 313.156C259.519 313.198 259.651 313.269 259.764 313.364C260.531 313.999 260.696 315.631 260.705 315.697C260.704 315.723 260.698 315.748 260.686 315.771C260.675 315.793 260.659 315.813 260.639 315.829C260.623 315.839 260.605 315.845 260.587 315.848C260.568 315.851 260.549 315.85 260.531 315.846ZM259.055 313.372H258.973C258.709 313.372 258.692 313.496 258.692 313.529C258.626 313.941 259.608 314.972 260.342 315.417C260.27 314.724 259.982 314.072 259.517 313.553C259.386 313.449 259.223 313.391 259.055 313.388V313.372Z" fill="#AA7FBE"/>
<path d="M312.499 300.474L317.447 295.766C317.533 295.681 317.646 295.629 317.767 295.618C317.887 295.608 318.007 295.639 318.107 295.708L322.692 298.776C322.803 298.851 322.895 298.95 322.962 299.065C323.029 299.181 323.069 299.311 323.079 299.444C323.088 299.578 323.067 299.712 323.017 299.836C322.967 299.96 322.89 300.071 322.791 300.161C321.051 301.81 320.119 302.478 317.958 304.54C316.623 305.818 312.648 310.147 310.809 311.912C308.97 313.677 306.991 312.077 307.585 311.195C310.256 307.228 311.922 303.427 312.071 301.423C312.097 301.066 312.249 300.73 312.499 300.474Z" fill="#263238"/>
<path d="M261.174 315.004H267.771C267.891 315.003 268.007 315.044 268.101 315.119C268.194 315.194 268.258 315.299 268.283 315.416L269.478 320.801C269.509 320.93 269.509 321.065 269.479 321.194C269.449 321.324 269.391 321.445 269.307 321.548C269.224 321.652 269.118 321.735 268.997 321.791C268.877 321.847 268.745 321.875 268.613 321.873C266.221 321.873 262.774 321.7 259.773 321.7C256.268 321.7 253.242 321.89 249.127 321.89C246.653 321.89 245.952 319.374 246.991 319.144C251.724 318.113 255.6 317.997 259.69 315.474C260.131 315.182 260.646 315.019 261.174 315.004Z" fill="#263238"/>
<path d="M252.549 121.307C250.141 124.853 247.659 128.168 244.987 131.441C242.305 134.755 239.439 137.916 236.403 140.908L235.232 142.046L234.935 142.327L234.72 142.525L234.407 142.747C234.019 143.06 233.602 143.336 233.162 143.572C231.77 144.306 230.238 144.736 228.668 144.833C226.271 144.975 223.866 144.775 221.526 144.24C217.286 143.304 213.174 141.859 209.281 139.935L210.798 135.647C214.659 136.419 218.564 136.953 222.491 137.247C224.217 137.383 225.953 137.311 227.661 137.032C228.152 136.959 228.62 136.776 229.03 136.496C229.072 136.496 229.03 136.447 229.03 136.447L229.096 136.381L229.335 136.109L230.317 135.037C232.89 132.101 235.388 128.968 237.813 125.768C240.237 122.568 242.67 119.286 244.987 116.087L252.549 121.307Z" fill="#B55B52"/>
<path d="M285.666 108.937C291.34 110.239 297.854 125.718 297.854 125.718L286.449 133.535C283.617 129.465 281.105 125.18 278.937 120.72C275.556 113.637 279.861 107.601 285.666 108.937Z" fill="#AA7FBE"/>
<path opacity="0.3" d="M281.592 118.833L286.985 133.19L286.449 133.561C286.449 133.561 284.116 130.262 281.592 125.867V118.833Z" fill="black"/>
<path d="M251.724 109.243C251.724 109.243 245.276 116.524 251.37 161.607H283.769C283.992 156.659 280.867 132.365 285.666 108.929C282.082 108.24 278.457 107.783 274.814 107.56C270.227 107.296 265.629 107.296 261.043 107.56C257.897 107.877 254.782 108.44 251.724 109.243Z" fill="#AA7FBE"/>
<path opacity="0.3" d="M255.32 122.28C254.477 127.396 252.265 132.189 248.921 136.151C248.789 133.248 248.739 130.642 248.747 128.308L255.32 122.28Z" fill="black"/>
<path d="M258.115 114.157C258.94 119.888 247.609 134.542 247.609 134.542L236.254 126.725C236.254 126.725 239.404 118.652 244.707 113.357C250.768 107.288 257.249 107.915 258.115 114.157Z" fill="#AA7FBE"/>
<path d="M211.582 136.15L207.137 131.557L202.395 137.667C202.395 137.667 206.007 141.155 210.303 140.141L211.582 136.15Z" fill="#B55B52"/>
<path d="M201.034 129L198.998 135.416L202.395 137.642L207.137 131.532L201.034 129Z" fill="#B55B52"/>
<path d="M273.989 85.3862C273.618 91.3812 273.709 94.9189 270.691 97.9948C266.131 102.629 258.725 99.8832 257.299 93.8716C256.004 88.4785 256.829 79.5726 262.7 77.1894C263.993 76.658 265.401 76.4662 266.789 76.6323C268.178 76.7983 269.5 77.3167 270.632 78.1382C271.763 78.9597 272.665 80.0569 273.253 81.3255C273.841 82.5941 274.094 83.992 273.989 85.3862Z" fill="#B55B52"/>
<path d="M279.209 72.8599C281.056 74.5586 280.273 76.4553 279.308 76.8099C282.302 77.4283 282.739 79.8115 281.164 84.8417C279.663 89.6576 276.026 96.1144 271.482 96.5102C264.654 97.104 262.659 89.9874 262.609 82.9286C258.75 83.1678 260.416 79.7455 255.674 80.5372C251.551 81.2216 253.101 78.0056 249.597 76.6037C245.531 74.9545 246.348 68.7285 250.141 70.518C250.141 70.518 248.385 71.6724 250.43 72.7609C252.475 73.8494 252.277 71.3343 256.326 71.0292C260.375 70.7241 260.845 74.1876 265.578 72.1012C271.515 69.4789 275.416 69.3552 279.209 72.8599Z" fill="#263238"/>
<path d="M276.933 76.7762C277.202 76.3444 277.604 76.0109 278.078 75.8252C278.552 75.6396 279.073 75.6116 279.564 75.7454C281.419 76.1413 281.568 76.9576 282.73 76.8504C283.893 76.7432 283.472 77.9802 283.472 77.9802C283.472 77.9802 283.159 77.0484 281.757 77.5679C280.355 78.0874 279.44 76.8175 278.838 77.3865C278.236 77.9554 276.933 76.7762 276.933 76.7762Z" fill="#263238"/>
<path d="M265.842 87.0185C265.579 88.4886 264.833 89.8291 263.723 90.8283C262.255 92.1312 260.985 91.0839 260.936 89.3027C260.936 87.6947 261.62 85.0724 263.31 84.4457C265.001 83.819 266.147 85.2373 265.842 87.0185Z" fill="#B55B52"/>
<path d="M262.857 161.607C262.857 161.607 269.734 207.894 273.511 225.211C277.634 244.177 306.372 294.645 306.372 294.645L316.928 291.214C316.928 291.214 294.044 245.744 291.686 226.934C289.121 206.525 283.769 161.574 283.769 161.574L262.857 161.607Z" fill="#263238"/>
<path d="M303.42 291.346C303.379 291.346 305.837 295.04 305.837 295.04L317.695 291.181L316.301 287.635L303.42 291.346Z" fill="#AA7FBE"/>
<path opacity="0.3" d="M267.203 178.099C275.152 179.658 274.311 209.303 273.354 224.551C271.062 213.773 267.706 193.033 265.413 178.314C265.968 178.04 266.599 177.965 267.203 178.099Z" fill="black"/>
<path d="M251.37 161.606C251.37 161.606 250.545 206.903 251.188 225.375C251.873 244.589 258.61 307.508 258.61 307.508H268.877C268.877 307.508 269.248 245.71 269.701 226.843C270.196 206.227 272.678 161.606 272.678 161.606H251.37Z" fill="#263238"/>
<path d="M256.615 303.418C256.565 303.418 257.192 307.681 257.192 307.681H269.677L270.015 303.88L256.615 303.418Z" fill="#AA7FBE"/>
</g>
<defs>
<clipPath id="clip0_313_6136">
<rect width="357" height="357" fill="white"/>
</clipPath>
</defs>
</svg>
