<svg width="46" height="46" viewBox="0 0 46 46" fill="none" xmlns="http://www.w3.org/2000/svg">
<mask id="mask0_533_4720" style="mask-type:alpha" maskUnits="userSpaceOnUse" x="0" y="0" width="46" height="46">
<rect width="46" height="46" fill="white"/>
</mask>
<g mask="url(#mask0_533_4720)">
<path d="M11.5833 36.8333C9.98611 36.8333 8.62847 36.2743 7.51042 35.1563C6.39236 34.0382 5.83333 32.6806 5.83333 31.0833C4.77917 31.0833 3.87674 30.708 3.12604 29.9573C2.37535 29.2066 2 28.3042 2 27.25V13.8333C2 12.7792 2.37535 11.8767 3.12604 11.126C3.87674 10.3753 4.77917 10 5.83333 10H31.0854C31.5965 10 32.0837 10.0958 32.5469 10.2875C33.0101 10.4792 33.4174 10.7507 33.7688 11.1021L43.0646 20.3979C43.416 20.7493 43.6875 21.1566 43.8792 21.6198C44.0708 22.083 44.1667 22.5701 44.1667 23.0813V27.25C44.1667 28.3042 43.7913 29.2066 43.0406 29.9573C42.2899 30.708 41.3875 31.0833 40.3333 31.0833C40.3333 32.6806 39.7743 34.0382 38.6563 35.1563C37.5382 36.2743 36.1806 36.8333 34.5833 36.8333C32.9861 36.8333 31.6285 36.2743 30.5104 35.1563C29.3924 34.0382 28.8333 32.6806 28.8333 31.0833H17.3333C17.3333 32.6806 16.7743 34.0382 15.6563 35.1563C14.5382 36.2743 13.1806 36.8333 11.5833 36.8333ZM28.8333 19.5833H36.5L30.75 13.8333H28.8333V19.5833ZM17.3333 19.5833H25V13.8333H17.3333V19.5833ZM5.83333 19.5833H13.5V13.8333H5.83333V19.5833ZM11.5833 33.4792C12.2542 33.4792 12.8212 33.2476 13.2844 32.7844C13.7476 32.3212 13.9792 31.7542 13.9792 31.0833C13.9792 30.4125 13.7476 29.8455 13.2844 29.3823C12.8212 28.9191 12.2542 28.6875 11.5833 28.6875C10.9125 28.6875 10.3455 28.9191 9.88229 29.3823C9.4191 29.8455 9.1875 30.4125 9.1875 31.0833C9.1875 31.7542 9.4191 32.3212 9.88229 32.7844C10.3455 33.2476 10.9125 33.4792 11.5833 33.4792ZM34.5833 33.4792C35.2542 33.4792 35.8212 33.2476 36.2844 32.7844C36.7476 32.3212 36.9792 31.7542 36.9792 31.0833C36.9792 30.4125 36.7476 29.8455 36.2844 29.3823C35.8212 28.9191 35.2542 28.6875 34.5833 28.6875C33.9125 28.6875 33.3455 28.9191 32.8823 29.3823C32.4191 29.8455 32.1875 30.4125 32.1875 31.0833C32.1875 31.7542 32.4191 32.3212 32.8823 32.7844C33.3455 33.2476 33.9125 33.4792 34.5833 33.4792ZM15.8 27.25H30.3667C30.9097 26.675 31.5326 26.2118 32.2354 25.8604C32.9382 25.509 33.7208 25.3333 34.5833 25.3333C35.4458 25.3333 36.2285 25.509 36.9313 25.8604C37.634 26.2118 38.2569 26.675 38.8 27.25H40.3333V23.4167H5.83333V27.25H7.36667C7.90972 26.675 8.53264 26.2118 9.23542 25.8604C9.93819 25.509 10.7208 25.3333 11.5833 25.3333C12.4458 25.3333 13.2285 25.509 13.9313 25.8604C14.634 26.2118 15.2569 26.675 15.8 27.25Z" fill="#87549F"/>
</g>
</svg>
