<svg width="22" height="14" viewBox="0 0 22 14" fill="none" xmlns="http://www.w3.org/2000/svg">
<path d="M4.99982 14C4.16648 14 3.45815 13.7083 2.87482 13.125C2.29148 12.5417 1.99982 11.8333 1.99982 11C1.44982 11 0.978984 10.8042 0.587317 10.4125C0.19565 10.0208 -0.000183105 9.55 -0.000183105 9V2C-0.000183105 1.45 0.19565 0.979167 0.587317 0.5875C0.978984 0.195833 1.44982 0 1.99982 0H15.1748C15.4415 0 15.6957 0.05 15.9373 0.15C16.179 0.25 16.3915 0.391667 16.5748 0.575L21.4248 5.425C21.6082 5.60833 21.7498 5.82083 21.8498 6.0625C21.9498 6.30417 21.9998 6.55833 21.9998 6.825V9C21.9998 9.55 21.804 10.0208 21.4123 10.4125C21.0207 10.8042 20.5498 11 19.9998 11C19.9998 11.8333 19.7082 12.5417 19.1248 13.125C18.5415 13.7083 17.8332 14 16.9998 14C16.1665 14 15.4581 13.7083 14.8748 13.125C14.2915 12.5417 13.9998 11.8333 13.9998 11H7.99982C7.99982 11.8333 7.70815 12.5417 7.12482 13.125C6.54148 13.7083 5.83315 14 4.99982 14ZM13.9998 5H17.9998L14.9998 2H13.9998V5ZM7.99982 5H11.9998V2H7.99982V5ZM1.99982 5H5.99982V2H1.99982V5ZM4.99982 12.25C5.34982 12.25 5.64565 12.1292 5.88732 11.8875C6.12898 11.6458 6.24982 11.35 6.24982 11C6.24982 10.65 6.12898 10.3542 5.88732 10.1125C5.64565 9.87083 5.34982 9.75 4.99982 9.75C4.64982 9.75 4.35398 9.87083 4.11232 10.1125C3.87065 10.3542 3.74982 10.65 3.74982 11C3.74982 11.35 3.87065 11.6458 4.11232 11.8875C4.35398 12.1292 4.64982 12.25 4.99982 12.25ZM16.9998 12.25C17.3498 12.25 17.6457 12.1292 17.8873 11.8875C18.129 11.6458 18.2498 11.35 18.2498 11C18.2498 10.65 18.129 10.3542 17.8873 10.1125C17.6457 9.87083 17.3498 9.75 16.9998 9.75C16.6498 9.75 16.354 9.87083 16.1123 10.1125C15.8707 10.3542 15.7498 10.65 15.7498 11C15.7498 11.35 15.8707 11.6458 16.1123 11.8875C16.354 12.1292 16.6498 12.25 16.9998 12.25ZM7.19982 9H14.7998C15.0832 8.7 15.4082 8.45833 15.7748 8.275C16.1415 8.09167 16.5498 8 16.9998 8C17.4498 8 17.8582 8.09167 18.2248 8.275C18.5915 8.45833 18.9165 8.7 19.1998 9H19.9998V7H1.99982V9H2.79982C3.08315 8.7 3.40815 8.45833 3.77482 8.275C4.14148 8.09167 4.54982 8 4.99982 8C5.44982 8 5.85815 8.09167 6.22482 8.275C6.59148 8.45833 6.91648 8.7 7.19982 9Z" fill="#455A64"/>
</svg>
