<svg width="302" height="80" viewBox="0 0 302 80" fill="none" xmlns="http://www.w3.org/2000/svg">
<path d="M279.959 40.9313C277.315 40.9313 275.003 41.6015 273.113 42.814C271.901 41.6919 270.176 41.0593 268.233 41.0593C267.465 41.0593 266.464 41.1874 265.387 41.6768C264.596 41.1271 263.617 40.8937 262.661 41.0443L257.344 41.8576C256.335 41.3455 255.145 41.0593 253.857 41.0593C253.089 41.0593 252.088 41.1874 251.011 41.6768C250.22 41.1271 249.241 40.8937 248.285 41.0443L242.712 41.9028C241.959 42.0157 241.296 42.3546 240.769 42.8366C238.985 41.6317 236.771 40.9388 234.285 40.9388C230.784 40.9388 227.809 42.2567 225.738 44.5686C223.886 42.3094 221.25 40.9991 218.193 40.9991C218.162 40.9991 218.132 40.9991 218.095 40.9991C216.897 41.0292 215.745 41.2627 214.683 41.6693C213.885 41.097 212.861 40.8334 211.822 41.0217L206.219 42.0383C204.427 42.3621 203.124 43.921 203.124 45.7434V48.1833C201.761 43.7929 197.807 40.9313 192.634 40.9313C189.742 40.9313 187.227 41.8275 185.276 43.4089V37.4748C185.276 36.4054 184.824 35.3888 184.026 34.6734C183.236 33.958 182.181 33.6191 181.112 33.7321L173.385 34.5529C171.458 34.7562 170.004 36.3904 170.019 38.3333L170.049 41.3756C165.252 42.6634 161.992 47.0989 161.803 53.0179V53.1083C161.788 53.2589 161.788 53.4095 161.788 53.5601C161.788 54.1551 161.826 54.7349 161.886 55.2997C161.706 55.0437 161.502 54.8027 161.254 54.5994C161.05 54.4262 160.824 54.2755 160.599 54.1475V53.7183H160.606L160.666 51.3763C160.742 48.0703 159.921 45.5852 158.136 43.7628C156.276 41.8576 153.625 40.9313 150.026 40.9313C147.254 40.9313 144.649 41.5112 142.984 42.0383C142.397 41.6618 141.712 41.4434 140.966 41.4434H140.642V41.0593C140.642 40.0352 140.228 39.0562 139.483 38.3408C138.745 37.6329 137.758 37.2489 136.719 37.294L132.035 37.4823C130.19 37.5576 128.676 38.9583 128.45 40.7882L128.292 42.0534C127.848 42.2115 127.456 42.46 127.117 42.7613C125.37 41.5413 123.096 40.9313 120.212 40.9313C116.657 40.9313 113.382 41.8877 112.011 42.445C111.529 42.6408 111.115 42.9345 110.769 43.2809C109.067 41.8275 106.92 40.9916 104.503 40.9916C104.473 40.9916 104.443 40.9916 104.405 40.9916C103.208 41.0217 102.056 41.2551 100.994 41.6618C100.196 41.0895 99.1714 40.8259 98.1322 41.0142L92.5294 42.0308C90.7371 42.3546 89.4343 43.9134 89.4343 45.7358V48.1306C88.0713 43.7628 84.1403 40.9238 78.9442 40.9238C76.0525 40.9238 73.5448 41.8425 71.5868 43.439V37.4672C71.5868 36.3979 71.135 35.3813 70.3367 34.6659C69.546 33.9505 68.4917 33.6116 67.4224 33.7245L59.696 34.5454C57.7682 34.7487 56.3148 36.3828 56.3298 38.3257L56.3599 41.3681C54.4396 41.8802 52.7679 42.8968 51.4349 44.3201V40.1783C51.4349 37.0455 48.8896 34.5002 45.7569 34.5002H37.925V30.6445L44.5821 28.295C45.8246 27.8582 46.8789 26.9922 47.5642 25.8626L50.3129 21.284C51.1864 19.8306 51.3596 18.0759 50.8024 16.4795C50.2376 14.883 49.0026 13.6254 47.4061 13.038L42.3982 11.2005C41.1632 10.7411 39.7926 10.7336 38.5501 11.1704L37.8949 11.4038C37.7142 9.49859 36.1252 8 34.1673 8H26.2752C24.1968 8 22.5099 9.68685 22.5099 11.7653V16.8334L13.1042 20.1469C11.6734 20.6514 10.5287 21.6831 9.87355 23.0461C9.21839 24.4167 9.13555 25.953 9.6401 27.3838L10.7697 30.5918L11.8993 33.7998C12.3285 35.0198 13.1343 35.9837 14.1434 36.6464L11.0559 39.1993C9.74553 40.2837 9 41.8726 9 43.5746C9 45.2765 9.75306 46.8654 11.0559 47.9498L15.1676 51.3461C16.1842 52.1896 17.4719 52.6489 18.7898 52.6489H22.5099V61.6631C22.5099 63.7415 24.1968 65.4284 26.2752 65.4284H34.1673C36.2457 65.4284 37.9326 63.7415 37.9326 61.6631V52.6489H45.7644C46.6304 52.6489 47.4437 52.4531 48.1742 52.1067C48.129 52.5887 48.0989 53.0706 48.0989 53.5601C48.0989 60.7519 52.3838 65.7823 58.5137 65.7823C59.5077 65.7823 60.6825 65.6317 61.8874 65.1422C62.2112 65.3154 62.5652 65.4434 62.9342 65.5187L63.0923 65.5489C63.6119 65.6543 64.1466 65.6468 64.6587 65.5263L70.6756 64.1632C71.2178 64.0427 71.7073 63.7942 72.129 63.4704C74.1548 64.8711 76.7302 65.6468 79.7349 65.6468C82.7396 65.6468 85.8197 64.8862 87.6948 63.7114C89.103 62.8228 89.7657 61.1209 89.3214 59.5168L88.6587 57.1372C89.2837 56.5272 89.713 55.7064 89.7883 54.7726C89.8259 54.3057 89.9615 52.7092 89.9615 51.6624C89.9615 51.5645 89.954 51.4666 89.9464 51.3687C90.2928 51.9636 90.8049 52.4682 91.43 52.7995V62.2203C90.2928 62.883 89.5624 64.1105 89.5624 65.4735V68.6741C89.5624 70.7525 91.2492 72.4394 93.3277 72.4394H103.02C105.098 72.4394 106.785 70.7525 106.785 68.6741V65.3832C106.785 65.338 106.785 65.3003 106.785 65.2552C108.321 64.8109 109.692 64.0503 110.851 63.0261C112.448 64.7657 114.797 65.82 117.561 65.82C119.075 65.82 120.551 65.4811 121.876 64.8636C122.961 65.466 124.256 65.7898 125.702 65.7898C127.682 65.7898 129.505 65.2175 131.116 64.0879C132.532 65.1723 134.339 65.7296 136.501 65.7296C139.106 65.7296 141.072 65.0292 142.307 64.4193C143.715 65.3154 145.447 65.82 147.367 65.82C148.881 65.82 150.357 65.4811 151.675 64.8636C152.759 65.466 154.054 65.7898 155.5 65.7898C157.503 65.7898 159.341 65.2024 160.975 64.0503C161.969 63.3424 162.564 62.1977 162.564 60.9778V58.5529C164.063 62.9809 167.617 65.7898 172.203 65.7898C173.197 65.7898 174.372 65.6392 175.577 65.1497C175.901 65.3229 176.255 65.451 176.631 65.5263L176.789 65.5564C177.309 65.6618 177.844 65.6543 178.356 65.5338L184.373 64.1708C184.93 64.0427 185.427 63.7867 185.856 63.4478C187.882 64.856 190.457 65.6543 193.424 65.6543C196.391 65.6543 199.509 64.8937 201.384 63.7189C202.792 62.8303 203.455 61.1284 203.011 59.5244L202.356 57.1522C202.988 56.5423 203.402 55.7139 203.485 54.7726C203.523 54.3057 203.659 52.7092 203.659 51.6624C203.659 51.557 203.651 51.4516 203.643 51.3461C203.99 51.9486 204.502 52.4607 205.127 52.792V62.2128C203.99 62.8755 203.259 64.103 203.259 65.466V68.6665C203.259 70.745 204.946 72.4318 207.025 72.4318H216.717C218.795 72.4318 220.482 70.745 220.482 68.6665V65.3757C220.482 65.3305 220.482 65.2928 220.482 65.2476C222.56 64.6376 224.33 63.4553 225.678 61.8287C227.869 64.2461 231.13 65.6543 235.091 65.6543C237.222 65.6543 239.429 65.2552 241.199 64.6C241.824 65.0594 242.584 65.338 243.42 65.338H254.061C254.746 65.338 255.379 65.1422 255.928 64.8259C256.478 65.1422 257.111 65.338 257.796 65.338H268.437C270.033 65.338 271.389 64.344 271.938 62.9433C274.017 64.7807 276.781 65.8425 279.974 65.8425C285.795 65.8425 290.245 62.4462 291.578 56.979C291.857 55.8419 292 54.6295 292 53.3719C292 45.9316 287.165 40.9313 279.974 40.9313H279.959ZM255.981 55.0738C255.981 55.0738 255.966 55.0813 255.959 55.0888C255.778 54.9834 255.582 54.893 255.386 54.8102C255.582 54.8253 255.785 54.8328 255.981 54.8102V55.0663V55.0738Z" fill="white"/>
<path d="M62.6479 55.1736C62.3316 55.874 61.2547 56.8228 59.9595 56.8228C58.2199 56.8228 57.3614 55.1134 57.3614 52.6734C57.3614 52.2668 57.3915 51.8451 57.4518 51.4309C55.5917 51.22 53.7768 51.0092 52.0071 50.7833C51.9092 51.4083 51.849 52.0559 51.849 52.7337C51.849 57.2295 54.1308 61.1906 58.4985 61.1906C60.8405 61.1906 62.3015 59.8275 63.2805 58.216L63.657 61.0023L63.8151 61.0324L69.8321 59.6694V56.499L67.8063 56.1526V52.4626C66.0517 52.3044 64.3272 52.1463 62.6404 51.9731V55.1661L62.6479 55.1736Z" fill="#87549F"/>
<path d="M79.7197 61.0625C82.2198 61.0625 84.5619 60.3999 85.6764 59.6995L84.6296 55.9342C84.5016 55.9643 82.8223 56.8228 80.4502 56.8228C77.4756 56.8228 76.5267 55.4598 76.361 53.6524V53.6223H84.0272C79.5239 53.3738 75.1938 53.0726 71.0444 52.7337C71.1197 57.606 74.0567 61.0625 79.7122 61.0625H79.7197Z" fill="#87549F"/>
<path d="M102.56 57.0412C101.355 57.0412 100.466 56.2806 100.346 56.0923V54.2548C98.5989 54.2172 96.8819 54.1645 95.18 54.1118V64.1049L93.3124 64.6471V67.8476H103.004V64.5567L100.376 64.022V60.317C101.355 60.9194 102.304 61.1378 103.388 61.1378C107.297 61.1378 110.219 58.6979 110.919 54.3979C109.074 54.3979 107.229 54.3829 105.422 54.3603C105.068 55.8664 104.187 57.0487 102.56 57.0487V57.0412Z" fill="#87549F"/>
<path d="M121.816 55.9643C121.342 56.5968 120.423 57.2595 119.316 57.2595C118.299 57.2595 117.606 56.6872 117.606 55.7082C117.606 55.1585 117.832 54.7067 118.284 54.3603C116.409 54.3828 114.541 54.3979 112.704 54.3979C112.501 54.9627 112.38 55.5877 112.38 56.2806C112.38 59.5413 114.752 61.2206 117.546 61.2206C120.046 61.2206 121.635 59.8877 122.328 59.0066C122.705 60.1136 123.533 61.1905 125.687 61.1905C127.14 61.1905 128.217 60.686 128.978 60.1438V56.627C128.563 56.6872 128.247 56.6872 127.84 56.6872C127.208 56.6872 126.922 56.4312 126.952 55.4823L126.982 54.1946C125.25 54.2398 123.54 54.2699 121.839 54.3L121.816 55.9567V55.9643Z" fill="#87549F"/>
<path d="M131.643 55.3318C131.613 59.9857 133.797 61.1303 136.485 61.1303C138.827 61.1303 140.537 60.3396 141.297 59.8351L140.635 56.1601C140.16 56.2204 139.302 56.4162 138.541 56.4162C137.178 56.4162 136.802 55.7836 136.802 54.1043V53.8558C135.07 53.9311 133.353 53.9989 131.643 54.0591V55.3393V55.3318Z" fill="#87549F"/>
<path d="M142.194 56.2806C142.194 59.5414 144.566 61.2207 147.36 61.2207C149.86 61.2207 151.449 59.8878 152.142 59.0067C152.518 60.1137 153.347 61.1906 155.5 61.1906C156.954 61.1906 158.031 60.686 158.791 60.1438V56.627C158.377 56.6873 158.061 56.6873 157.654 56.6873C157.021 56.6873 156.735 56.4312 156.765 55.4824L156.833 52.7864C152.36 53.0349 147.736 53.291 142.917 53.5546C142.457 54.3151 142.201 55.2188 142.201 56.2806H142.194ZM151.66 53.5546L151.63 55.9644C151.155 56.5969 150.236 57.2596 149.129 57.2596C148.113 57.2596 147.42 56.6873 147.42 55.7083C147.42 54.3453 148.753 53.5546 151.667 53.5546H151.66Z" fill="#87549F"/>
<path d="M176.337 55.1736C176.021 55.8739 174.944 56.8228 173.649 56.8228C171.909 56.8228 171.051 55.1133 171.051 52.6734C171.051 52.4625 171.058 52.2441 171.074 52.0258C169.259 52.1237 167.421 52.2216 165.554 52.3195C165.554 52.4625 165.539 52.5981 165.539 52.7412C165.539 57.2369 167.82 61.198 172.188 61.198C174.53 61.198 175.991 59.835 176.97 58.2234L177.347 61.0098L177.505 61.0399L183.522 59.6768V56.5065L181.496 56.1601V51.4911C179.802 51.5739 178.077 51.6643 176.33 51.7547V55.1811L176.337 55.1736Z" fill="#87549F"/>
<path d="M184.734 52.5454C184.734 57.5156 187.679 61.0625 193.409 61.0625C195.91 61.0625 198.252 60.3998 199.366 59.6994L198.319 55.9341C198.191 55.9643 196.512 56.8228 194.14 56.8228C191.165 56.8228 190.216 55.4597 190.051 53.6524V53.6222H199.712C199.773 52.8918 199.871 51.5965 199.871 50.8359C199.871 50.7757 199.856 50.723 199.856 50.6627C195.059 50.8435 190.051 51.0694 184.802 51.3179C184.757 51.7245 184.734 52.1312 184.734 52.5454Z" fill="#87549F"/>
<path d="M219.292 52.7035C219.292 54.8874 218.433 57.0412 216.25 57.0412C215.045 57.0412 214.156 56.2806 214.036 56.0923V50.2335C212.341 50.2711 210.617 50.3163 208.87 50.3615V64.1049L207.002 64.6471V67.8476H216.694V64.5567L214.066 64.022V60.317C215.045 60.9194 215.993 61.1378 217.078 61.1378C221.574 61.1378 224.774 57.9072 224.774 52.3345C224.774 51.5363 224.684 50.8058 224.556 50.1055C222.681 50.113 220.775 50.1281 218.848 50.1582C219.149 50.8811 219.299 51.7697 219.299 52.7186L219.292 52.7035Z" fill="#87549F"/>
<path d="M236.492 50.354V50.7305H231.71C231.725 50.5122 231.755 50.3088 231.793 50.1055C230.098 50.0829 228.381 50.0754 226.649 50.0754C226.476 50.8661 226.393 51.6945 226.393 52.5304C226.393 57.5006 229.338 61.0475 235.069 61.0475C237.569 61.0475 239.911 60.3848 241.025 59.6844L239.979 55.9191C239.851 55.9492 238.171 56.8077 235.799 56.8077C232.824 56.8077 231.876 55.4447 231.71 53.6374V53.6072H241.372C241.432 52.8768 241.53 51.5815 241.53 50.8209C241.53 50.6477 241.5 50.4896 241.485 50.3239C239.828 50.2636 238.164 50.2185 236.484 50.1808C236.484 50.2335 236.492 50.2938 236.492 50.3465V50.354Z" fill="#87549F"/>
<path d="M245.363 57.1316L243.397 57.5458V60.7463H254.038V57.4855L250.521 57.0412V52.199C250.627 51.6644 250.875 51.1975 251.237 50.8209C249.286 50.7005 247.328 50.5875 245.355 50.4971V57.1391L245.363 57.1316Z" fill="#87549F"/>
<path d="M259.746 57.1316L257.781 57.5458V60.7463H268.422V57.4855L264.905 57.0412V52.199C264.92 52.1237 264.943 52.0635 264.965 51.9882C263.218 51.7999 261.479 51.6267 259.746 51.4686V57.1316Z" fill="#87549F"/>
<path d="M279.861 57.0111C278.091 57.0111 277.285 55.5125 277.089 53.5169C275.267 53.2533 273.46 53.0048 271.667 52.7714C271.78 58.1181 275.252 61.2508 279.958 61.2508C283.995 61.2508 286.977 59.082 287.911 55.2565C286.149 54.9477 284.409 54.654 282.684 54.3754C282.338 55.9192 281.487 57.0111 279.861 57.0111Z" fill="#87549F"/>
<path d="M60.2382 48.2379C61.4431 48.2379 62.2941 48.9382 62.648 49.5708V51.9806C64.3349 52.1462 66.0594 52.3119 67.814 52.47V36.6483L60.0876 37.4691L60.1177 40.888L62.648 41.5206V45.0976C61.9853 44.3972 60.9085 43.9228 59.3195 43.9228C55.2906 43.9228 52.6474 46.7694 51.9998 50.7757C53.7694 50.994 55.5843 51.2124 57.4444 51.4233C57.6703 49.7741 58.4158 48.2303 60.2382 48.2303V48.2379Z" fill="#87549F"/>
<path d="M84.0272 53.6222H86.0228C86.083 52.8918 86.1809 51.5965 86.1809 50.8359C86.1809 46.9049 83.5528 43.8701 78.929 43.8701C73.4843 43.8701 71.0444 48.0496 71.0444 52.5454C71.0444 52.6131 71.0444 52.6734 71.0444 52.7336C75.1938 53.0725 79.5164 53.3737 84.0272 53.6222ZM79.057 47.6354C80.6384 47.6354 81.1505 49.0286 81.1505 50.3615V50.738H76.3686C76.4966 48.7725 77.6337 47.6354 79.057 47.6354Z" fill="#87549F"/>
<path d="M100.346 54.2549V50.0754C100.821 49.345 101.739 48.494 102.914 48.494C104.85 48.494 105.603 50.4595 105.603 52.7036C105.603 53.2684 105.542 53.8257 105.422 54.3528C107.229 54.3754 109.067 54.3829 110.919 54.3905C111.025 53.7428 111.085 53.0575 111.085 52.3271C111.085 47.131 108.238 43.9305 104.496 43.9305C102.026 43.9907 100.248 45.3236 99.4576 46.8147L98.7949 43.9003L93.1921 44.917V48.6521L95.1877 49.2847V54.1118C96.8897 54.1645 98.6066 54.2173 100.354 54.2549H100.346Z" fill="#87549F"/>
<path d="M121.838 54.3075C123.54 54.2774 125.242 54.2472 126.982 54.2021L127.072 50.4518C127.17 46.4606 125.649 43.8625 120.197 43.8625C116.936 43.8625 114.12 44.8114 113.419 45.0976L114.654 48.9005C115.761 48.524 117.185 47.9517 119.18 47.9517C121.018 47.9517 121.808 48.4261 121.808 50.0753V50.2937C117.471 50.1883 113.773 51.4308 112.696 54.3979C114.526 54.3979 116.401 54.3753 118.276 54.3602C118.939 53.8406 120.106 53.5544 121.838 53.5544V54.3075Z" fill="#87549F"/>
<path d="M131.651 54.0516C133.36 53.9913 135.07 53.9311 136.809 53.8483L136.869 48.5542H140.959V44.3748H136.869V40.2254L132.185 40.4137L131.711 44.2769L129.587 44.7513V48.3961H131.681L131.658 54.0516H131.651Z" fill="#87549F"/>
<path d="M156.886 50.4518C156.984 46.4606 155.463 43.8625 150.01 43.8625C146.75 43.8625 143.933 44.8114 143.233 45.0976L144.468 48.9005C145.575 48.524 146.998 47.9517 148.994 47.9517C150.831 47.9517 151.622 48.4261 151.622 50.0753V50.2937C147.721 50.1958 144.325 51.1898 142.901 53.5544C147.721 53.2909 152.352 53.0348 156.818 52.7863L156.878 50.4518H156.886Z" fill="#87549F"/>
<path d="M173.928 48.2379C175.132 48.2379 175.983 48.9382 176.337 49.5708V51.7471C178.084 51.6567 179.809 51.5664 181.503 51.4835V36.6483L173.777 37.4691L173.807 40.888L176.337 41.5206V45.0976C175.675 44.3972 174.598 43.9228 173.009 43.9228C168.483 43.9228 165.704 47.5149 165.546 52.3119C167.421 52.214 169.251 52.1161 171.066 52.0182C171.186 50.1582 171.879 48.2379 173.92 48.2379H173.928Z" fill="#87549F"/>
<path d="M192.619 43.8625C187.671 43.8625 185.209 47.3116 184.802 51.3178C190.051 51.0618 195.059 50.8434 199.856 50.6627C199.78 46.8221 197.175 43.8625 192.619 43.8625ZM194.84 50.738H190.058C190.186 48.7725 191.323 47.6354 192.747 47.6354C194.328 47.6354 194.84 49.0285 194.84 50.3615V50.738Z" fill="#87549F"/>
<path d="M214.036 50.226V50.0679C214.51 49.3374 215.429 48.4864 216.603 48.4864C217.778 48.4864 218.433 49.1491 218.848 50.1356C220.783 50.1055 222.681 50.0904 224.556 50.0829C223.855 46.2272 221.348 43.9229 218.185 43.9229C215.715 43.9831 213.938 45.316 213.147 46.8071L212.484 43.8928L206.881 44.9094V48.6446L208.877 49.2771V50.354C210.624 50.3013 212.341 50.2637 214.043 50.226H214.036Z" fill="#87549F"/>
<path d="M234.406 47.6354C235.927 47.6354 236.447 48.9156 236.484 50.1958C238.164 50.2335 239.828 50.2787 241.485 50.3389C241.266 46.6564 238.698 43.8701 234.278 43.8701C229.857 43.8701 227.41 46.6338 226.649 50.0904C228.381 50.0904 230.098 50.0979 231.793 50.1205C232.101 48.5466 233.133 47.6429 234.398 47.6429L234.406 47.6354Z" fill="#87549F"/>
<path d="M245.363 50.4971C247.336 50.5875 249.286 50.6929 251.237 50.8209C251.779 50.2637 252.577 49.9172 253.564 49.9172C254.196 49.9172 254.701 49.9474 255.717 50.2335L256.508 45.1654C256.162 44.563 255.243 43.9907 253.85 43.9907C251.666 43.9907 250.273 46.2423 249.482 48.4563H249.384L248.842 43.9304L243.269 44.7889V48.5919L245.363 49.2546V50.4971Z" fill="#87549F"/>
<path d="M259.746 51.4686C261.486 51.6267 263.226 51.7999 264.965 51.9882C265.297 50.7682 266.388 49.9172 267.947 49.9172C268.58 49.9172 269.084 49.9474 270.101 50.2335L270.892 45.1654C270.545 44.563 269.627 43.9907 268.233 43.9907C266.05 43.9907 264.656 46.2423 263.866 48.4563H263.768L263.226 43.9304L257.653 44.7889V48.5919L259.746 49.2546V51.4761V51.4686Z" fill="#87549F"/>
<path d="M277.089 53.5168C277.059 53.193 277.037 52.8541 277.037 52.5077C277.037 50.0979 277.797 48.1023 279.951 48.1023C282.105 48.1023 282.865 50.0678 282.865 52.5378C282.865 53.193 282.805 53.8029 282.677 54.3677C284.402 54.6464 286.141 54.9401 287.903 55.2488C288.107 54.4205 288.22 53.5168 288.22 52.5378C288.22 47.0254 284.861 43.8625 279.951 43.8625C275.041 43.8625 271.652 47.0329 271.652 52.5077C271.652 52.598 271.66 52.6809 271.66 52.7712C273.452 53.0047 275.26 53.2457 277.082 53.5168H277.089Z" fill="#87549F"/>
<path d="M33.8747 11H25.8083V62H33.8747V11Z" fill="white"/>
<path d="M46.0744 15.9184L40.9559 14.0403C40.5326 13.8864 40.0631 13.8787 39.632 14.0326L13.624 23.1997C12.608 23.5614 12.0693 24.6775 12.431 25.6935L13.5856 28.9724L47.2366 17.1114C47.0519 16.588 46.644 16.1416 46.0667 15.9261L46.0744 15.9184Z" fill="white"/>
<path d="M17.2339 33.4366L43.2419 24.2695C43.6729 24.1156 44.0347 23.8231 44.2656 23.4306L47.075 18.7585C47.3905 18.2351 47.429 17.6271 47.2443 17.1037L13.5932 28.9647L14.7478 32.2436C15.1095 33.2596 16.2256 33.7984 17.2416 33.4366H17.2339Z" fill="white"/>
<path d="M12.7081 45.0205L16.9107 48.4995C17.2647 48.792 17.7034 48.946 18.1576 48.946H45.728C46.8056 48.946 47.6831 48.0685 47.6831 46.9909V43.5119H12C12 44.0661 12.2386 44.628 12.7081 45.0205Z" fill="white"/>
<path d="M45.728 38.0856H18.1576C17.7034 38.0856 17.2647 38.2472 16.9107 38.532L12.7081 42.011C12.2386 42.4036 12 42.9577 12 43.5196H47.6831V40.0406C47.6831 38.963 46.8056 38.0856 45.728 38.0856Z" fill="white"/>
<path d="M33.8748 11H25.8083V62H33.8748V11Z" fill="#253A74"/>
<path d="M14.7724 31.7361C15.1337 32.7196 16.2486 33.2411 17.2635 32.8909L43.244 24.0173C43.6746 23.8683 44.0359 23.5852 44.2666 23.2052L47.073 18.6827C47.3883 18.1761 47.4267 17.5875 47.2422 17.0809C47.0576 16.5742 46.6501 16.1421 46.0735 15.9335L40.9604 14.1156C40.5375 13.9665 40.0685 13.9591 39.6379 14.1081L13.6575 22.9742C12.6426 23.3244 12.1043 24.4048 12.4657 25.3882L13.619 28.5622L14.7724 31.7361Z" fill="#B6EAA4"/>
<path d="M46.3808 39H18.5654C18.1072 39 17.6646 39.1487 17.3074 39.4108L13.0676 42.6119C12.5939 42.9731 12.3531 43.483 12.3531 44C12.3531 44.517 12.5939 45.0269 13.0676 45.3881L17.3074 48.5892C17.6646 48.8584 18.1072 49 18.5654 49H46.3808C47.4679 49 48.3531 48.1926 48.3531 47.2011V40.8059C48.3531 39.8144 47.4679 39.0071 46.3808 39.0071V39Z" fill="#7ECDCE"/>
</svg>
