<?xml version="1.0" encoding="utf-8"?>
<!-- Generator: Adobe Illustrator 28.1.0, SVG Export Plug-In . SVG Version: 6.00 Build 0)  -->
<svg version="1.1" id="Capa_1" xmlns="http://www.w3.org/2000/svg" xmlns:xlink="http://www.w3.org/1999/xlink" x="0px" y="0px"
	 viewBox="0 0 302 80" style="enable-background:new 0 0 302 80;" xml:space="preserve">
<style type="text/css">
	.st0{fill:#FFFFFF;}
	.st1{fill:#253A74;}
	.st2{fill:#B6EAA4;}
	.st3{fill:#7ECDCE;}
	.st4{fill:#87549F;}
</style>
<path class="st0" d="M280,40.9c-2.6,0-5,0.7-6.8,1.9c-1.2-1.1-2.9-1.8-4.9-1.8c-0.8,0-1.8,0.1-2.8,0.6c-0.8-0.5-1.8-0.8-2.7-0.6
	l-5.3,0.8c-1-0.5-2.2-0.8-3.5-0.8c-0.8,0-1.8,0.1-2.8,0.6c-0.8-0.5-1.8-0.8-2.7-0.6l-5.6,0.9c-0.8,0.1-1.4,0.5-1.9,0.9
	c-1.8-1.2-4-1.9-6.5-1.9c-3.5,0-6.5,1.3-8.5,3.6c-1.9-2.3-4.5-3.6-7.5-3.6c0,0-0.1,0-0.1,0c-1.2,0-2.4,0.3-3.4,0.7
	c-0.8-0.6-1.8-0.8-2.9-0.6l-5.6,1c-1.8,0.3-3.1,1.9-3.1,3.7v2.4c-1.4-4.4-5.3-7.3-10.5-7.3c-2.9,0-5.4,0.9-7.4,2.5v-5.9
	c0-1.1-0.5-2.1-1.2-2.8c-0.8-0.7-1.8-1.1-2.9-0.9l-7.7,0.8c-1.9,0.2-3.4,1.8-3.4,3.8l0,3c-4.8,1.3-8.1,5.7-8.2,11.6v0.1
	c0,0.2,0,0.3,0,0.5c0,0.6,0,1.2,0.1,1.7c-0.2-0.3-0.4-0.5-0.6-0.7c-0.2-0.2-0.4-0.3-0.7-0.5v-0.4h0l0.1-2.3c0.1-3.3-0.7-5.8-2.5-7.6
	c-1.9-1.9-4.5-2.8-8.1-2.8c-2.8,0-5.4,0.6-7,1.1c-0.6-0.4-1.3-0.6-2-0.6h-0.3v-0.4c0-1-0.4-2-1.2-2.7c-0.7-0.7-1.7-1.1-2.8-1
	l-4.7,0.2c-1.8,0.1-3.4,1.5-3.6,3.3l-0.2,1.3c-0.4,0.2-0.8,0.4-1.2,0.7c-1.7-1.2-4-1.8-6.9-1.8c-3.6,0-6.8,1-8.2,1.5
	c-0.5,0.2-0.9,0.5-1.2,0.8c-1.7-1.5-3.8-2.3-6.3-2.3c0,0-0.1,0-0.1,0c-1.2,0-2.3,0.3-3.4,0.7c-0.8-0.6-1.8-0.8-2.9-0.6l-5.6,1
	c-1.8,0.3-3.1,1.9-3.1,3.7v2.4c-1.4-4.4-5.3-7.2-10.5-7.2c-2.9,0-5.4,0.9-7.4,2.5v-6c0-1.1-0.5-2.1-1.3-2.8
	c-0.8-0.7-1.8-1.1-2.9-0.9l-7.7,0.8c-1.9,0.2-3.4,1.8-3.4,3.8l0,3c-1.9,0.5-3.6,1.5-4.9,3v-4.1c0-3.1-2.5-5.7-5.7-5.7h-7.8v-3.9
	l6.7-2.3c1.2-0.4,2.3-1.3,3-2.4l2.7-4.6c0.9-1.5,1-3.2,0.5-4.8c-0.6-1.6-1.8-2.9-3.4-3.4l-5-1.8c-1.2-0.5-2.6-0.5-3.8,0l-0.7,0.2
	C37.7,9.5,36.1,8,34.2,8h-7.9c-2.1,0-3.8,1.7-3.8,3.8v5.1l-9.4,3.3c-1.4,0.5-2.6,1.5-3.2,2.9c-0.7,1.4-0.7,2.9-0.2,4.3l1.1,3.2
	l1.1,3.2c0.4,1.2,1.2,2.2,2.2,2.8l-3.1,2.6C9.7,40.3,9,41.9,9,43.6c0,1.7,0.8,3.3,2.1,4.4l4.1,3.4c1,0.8,2.3,1.3,3.6,1.3h3.7v9
	c0,2.1,1.7,3.8,3.8,3.8h7.9c2.1,0,3.8-1.7,3.8-3.8v-9h7.8c0.9,0,1.7-0.2,2.4-0.5c0,0.5-0.1,1-0.1,1.5c0,7.2,4.3,12.2,10.4,12.2
	c1,0,2.2-0.2,3.4-0.6c0.3,0.2,0.7,0.3,1,0.4l0.2,0c0.5,0.1,1.1,0.1,1.6,0l6-1.4c0.5-0.1,1-0.4,1.5-0.7c2,1.4,4.6,2.2,7.6,2.2
	s6.1-0.8,8-1.9c1.4-0.9,2.1-2.6,1.6-4.2l-0.7-2.4c0.6-0.6,1.1-1.4,1.1-2.4c0-0.5,0.2-2.1,0.2-3.1c0-0.1,0-0.2,0-0.3
	c0.3,0.6,0.9,1.1,1.5,1.4v9.4c-1.1,0.7-1.9,1.9-1.9,3.3v3.2c0,2.1,1.7,3.8,3.8,3.8h9.7c2.1,0,3.8-1.7,3.8-3.8v-3.3c0,0,0-0.1,0-0.1
	c1.5-0.4,2.9-1.2,4.1-2.2c1.6,1.7,3.9,2.8,6.7,2.8c1.5,0,3-0.3,4.3-1c1.1,0.6,2.4,0.9,3.8,0.9c2,0,3.8-0.6,5.4-1.7
	c1.4,1.1,3.2,1.6,5.4,1.6c2.6,0,4.6-0.7,5.8-1.3c1.4,0.9,3.1,1.4,5.1,1.4c1.5,0,3-0.3,4.3-1c1.1,0.6,2.4,0.9,3.8,0.9
	c2,0,3.8-0.6,5.5-1.7c1-0.7,1.6-1.9,1.6-3.1v-2.4c1.5,4.4,5.1,7.2,9.6,7.2c1,0,2.2-0.2,3.4-0.6c0.3,0.2,0.7,0.3,1.1,0.4l0.2,0
	c0.5,0.1,1.1,0.1,1.6,0l6-1.4c0.6-0.1,1.1-0.4,1.5-0.7c2,1.4,4.6,2.2,7.6,2.2c3,0,6.1-0.8,8-1.9c1.4-0.9,2.1-2.6,1.6-4.2l-0.7-2.4
	c0.6-0.6,1-1.4,1.1-2.4c0-0.5,0.2-2.1,0.2-3.1c0-0.1,0-0.2,0-0.3c0.3,0.6,0.9,1.1,1.5,1.4v9.4c-1.1,0.7-1.9,1.9-1.9,3.3v3.2
	c0,2.1,1.7,3.8,3.8,3.8h9.7c2.1,0,3.8-1.7,3.8-3.8v-3.3c0,0,0-0.1,0-0.1c2.1-0.6,3.8-1.8,5.2-3.4c2.2,2.4,5.5,3.8,9.4,3.8
	c2.1,0,4.3-0.4,6.1-1.1c0.6,0.5,1.4,0.7,2.2,0.7h10.6c0.7,0,1.3-0.2,1.9-0.5c0.6,0.3,1.2,0.5,1.9,0.5h10.6c1.6,0,3-1,3.5-2.4
	c2.1,1.8,4.8,2.9,8,2.9c5.8,0,10.3-3.4,11.6-8.9c0.3-1.1,0.4-2.3,0.4-3.6C292,45.9,287.2,40.9,280,40.9L280,40.9z M256,55.1
	C256,55.1,256,55.1,256,55.1c-0.2-0.1-0.4-0.2-0.6-0.3c0.2,0,0.4,0,0.6,0V55.1L256,55.1z"/>
<path class="st0" d="M33.9,11h-8.1v51h8.1V11z"/>
<path class="st0" d="M46.1,15.9L41,14c-0.4-0.2-0.9-0.2-1.3,0l-26,9.2c-1,0.4-1.6,1.5-1.2,2.5l1.2,3.3l33.7-11.9
	C47.1,16.6,46.6,16.1,46.1,15.9L46.1,15.9z"/>
<path class="st0" d="M17.2,33.4l26-9.2c0.4-0.2,0.8-0.4,1-0.8l2.8-4.7c0.3-0.5,0.4-1.1,0.2-1.7L13.6,29l1.2,3.3
	C15.1,33.3,16.2,33.8,17.2,33.4L17.2,33.4z"/>
<path class="st0" d="M12.7,45l4.2,3.5c0.4,0.3,0.8,0.4,1.2,0.4h27.6c1.1,0,2-0.9,2-2v-3.5H12C12,44.1,12.2,44.6,12.7,45z"/>
<path class="st0" d="M45.7,38.1H18.2c-0.5,0-0.9,0.2-1.2,0.4L12.7,42C12.2,42.4,12,43,12,43.5h35.7V40C47.7,39,46.8,38.1,45.7,38.1z
	"/>
<path class="st1" d="M33.9,11h-8.1v51h8.1V11z"/>
<path class="st2" d="M14.8,31.7c0.4,1,1.5,1.5,2.5,1.2l26-8.9c0.4-0.1,0.8-0.4,1-0.8l2.8-4.5c0.3-0.5,0.4-1.1,0.2-1.6
	c-0.2-0.5-0.6-0.9-1.2-1.1L41,14.1c-0.4-0.1-0.9-0.2-1.3,0l-26,8.9c-1,0.4-1.6,1.4-1.2,2.4l1.2,3.2L14.8,31.7z"/>
<path class="st3" d="M46.4,39H18.6c-0.5,0-0.9,0.1-1.3,0.4l-4.2,3.2c-0.5,0.4-0.7,0.9-0.7,1.4s0.2,1,0.7,1.4l4.2,3.2
	c0.4,0.3,0.8,0.4,1.3,0.4h27.8c1.1,0,2-0.8,2-1.8v-6.4C48.4,39.8,47.5,39,46.4,39L46.4,39z"/>
<g>
	<path class="st4" d="M67.8,36.6l-7.7,0.8l0,3.4l2.5,0.6v3.6c-0.7-0.7-1.7-1.2-3.3-1.2c-3.9,0-6.5,2.7-7.3,6.5l0,0l0,0.1
		c0,0.1,0,0.1,0,0.2c0,0,0,0,0,0l0,0h0c0,0,0,0,0,0l0,0.2l0,0c-0.1,0.6-0.1,1.1-0.1,1.7c0,4.5,2.3,8.5,6.6,8.5c2.3,0,3.8-1.4,4.8-3
		l0.4,2.8l0.2,0l6-1.4v-3.2l-2-0.3L67.8,36.6z M62.6,52C62.6,52,62.6,52,62.6,52l0,3.2l0,0c-0.3,0.7-1.4,1.6-2.7,1.6
		c-1.7,0-2.6-1.7-2.6-4.1c0-0.4,0-0.8,0.1-1.2l0-0.2c0.3-1.6,1-3,2.8-3v0c1.2,0,2.1,0.7,2.4,1.3V52z"/>
	<path class="st4" d="M127,55.5l0-1.3c0,0,0,0,0,0l0.1-3.8c0.1-4-1.4-6.6-6.9-6.6c-3.3,0-6.1,0.9-6.8,1.2l1.2,3.8
		c1.1-0.4,2.5-0.9,4.5-0.9c1.8,0,2.6,0.5,2.6,2.1v0.2c-4.3-0.1-8,1.1-9.1,4.1c0,0,0,0,0,0c0,0,0,0,0,0c-0.2,0.6-0.3,1.2-0.3,1.9
		c0,3.3,2.4,4.9,5.2,4.9c2.5,0,4.1-1.3,4.8-2.2c0.4,1.1,1.2,2.2,3.4,2.2c1.5,0,2.5-0.5,3.3-1v-3.5c-0.4,0.1-0.7,0.1-1.1,0.1
		C127.2,56.7,126.9,56.4,127,55.5z M121.8,56L121.8,56c-0.5,0.6-1.4,1.3-2.5,1.3c-1,0-1.7-0.6-1.7-1.6c0-0.5,0.2-1,0.7-1.3
		c0,0,0,0,0,0l0,0c0.1,0,0.1-0.1,0.2-0.1c0.7-0.4,1.8-0.7,3.3-0.7v0.8c0,0,0,0,0,0L121.8,56z"/>
	<path class="st4" d="M138.5,56.4c-1.4,0-1.7-0.6-1.7-2.3l0-0.3c0,0,0.1-5.3,0.1-5.3h4.1v-4.2h-4.1v-4.1l-4.7,0.2l-0.5,3.9l-2.1,0.5
		v3.6h2.1l0,6.9c0,4.7,2.2,5.8,4.8,5.8c2.3,0,4.1-0.8,4.8-1.3l-0.7-3.7C140.2,56.2,139.3,56.4,138.5,56.4z"/>
	<path class="st4" d="M156.8,55.5l0.1-5h0c0.1-4-1.4-6.6-6.9-6.6c-3.3,0-6.1,0.9-6.8,1.2l1.2,3.8c1.1-0.4,2.5-0.9,4.5-0.9
		c1.8,0,2.6,0.5,2.6,2.1v0.2c-3.8-0.1-7.1,0.9-8.6,3.1l0,0l-0.1,0.1c0,0,0,0,0,0.1c0,0,0,0,0,0l-0.1,0.1l0,0
		c-0.4,0.7-0.7,1.6-0.7,2.6h0c0,3.3,2.4,4.9,5.2,4.9c2.5,0,4.1-1.3,4.8-2.2c0.4,1.1,1.2,2.2,3.4,2.2c1.5,0,2.5-0.5,3.3-1v-3.5
		c-0.4,0.1-0.7,0.1-1.1,0.1C157,56.7,156.7,56.4,156.8,55.5z M151.6,56c-0.5,0.6-1.4,1.3-2.5,1.3c-1,0-1.7-0.6-1.7-1.6
		c0-1.4,1.3-2.2,4.2-2.2L151.6,56z"/>
	<path class="st4" d="M181.5,36.6l-7.7,0.8l0,3.4l2.5,0.6v3.6c-0.7-0.7-1.7-1.2-3.3-1.2c-4.5,0-7.2,3.5-7.4,8.2l0,0l0,0.2
		c0,0,0,0,0,0c0,0,0,0,0,0l0,0.2l0,0c0,0.1,0,0.2,0,0.2c0,4.5,2.3,8.5,6.6,8.5c2.3,0,3.8-1.4,4.8-3l0.4,2.8l0.2,0l6-1.4v-3.2l-2-0.3
		L181.5,36.6z M176.3,55.2c-0.3,0.7-1.4,1.6-2.7,1.6c-1.7,0-2.6-1.7-2.6-4.1c0-0.2,0-0.4,0-0.6c0,0,0,0,0,0l0-0.1
		c0.1-1.8,0.8-3.7,2.8-3.7h0c1.2,0,2.1,0.7,2.4,1.3V55.2L176.3,55.2z"/>
	<path class="st4" d="M241.5,50.3c-0.2-3.7-2.8-6.5-7.2-6.5c-4.4,0-6.9,2.8-7.6,6.2c0,0,0,0,0,0c-0.2,0.8-0.3,1.6-0.3,2.5
		c0,5,2.9,8.5,8.7,8.5c2.5,0,4.8-0.7,6-1.4l-1-3.8c-0.1,0-1.8,0.9-4.2,0.9c-3,0-3.9-1.4-4.1-3.2v0h9.7c0.1-0.7,0.2-2,0.2-2.8
		C241.5,50.6,241.5,50.5,241.5,50.3C241.5,50.3,241.5,50.3,241.5,50.3z M236.5,50.4v0.4h-4.8c0-0.2,0-0.4,0.1-0.6c0,0,0,0,0,0
		c0.3-1.6,1.3-2.5,2.6-2.5l0,0c1.5,0,2,1.3,2.1,2.6c0,0,0,0,0,0C236.5,50.2,236.5,50.3,236.5,50.4L236.5,50.4z"/>
	<path class="st4" d="M78.9,43.9c-5.4,0-7.9,4.2-7.9,8.7c0,0.1,0,0.1,0,0.2c0,0,0,0,0,0c0.1,4.9,3,8.3,8.7,8.3h0
		c2.5,0,4.8-0.7,6-1.4l-1-3.8c-0.1,0-1.8,0.9-4.2,0.9c-3,0-3.9-1.4-4.1-3.2v0l9.7,0c0.1-0.7,0.2-2,0.2-2.8
		C86.2,46.9,83.6,43.9,78.9,43.9z M81.2,50.7h-4.8c0.1-2,1.3-3.1,2.7-3.1c1.6,0,2.1,1.4,2.1,2.7V50.7z"/>
	<path class="st4" d="M104.5,43.9c-2.5,0.1-4.2,1.4-5,2.9l-0.7-2.9l-5.6,1v3.7l2,0.6l0,14.8l-1.9,0.5v3.2h9.7v-3.3l-2.6-0.5v-3.7
		c1,0.6,1.9,0.8,3,0.8c3.8,0,6.7-2.4,7.5-6.5l0,0l0-0.1c0,0,0,0,0-0.1c0,0,0,0,0,0l0,0c0,0,0,0,0,0c0-0.1,0-0.2,0-0.3
		c0.1-0.6,0.1-1.2,0.1-1.8C111.1,47.1,108.2,43.9,104.5,43.9z M105.4,54.3l0,0.1c-0.4,1.5-1.2,2.6-2.8,2.6v0c-1.2,0-2.1-0.8-2.2-0.9
		v-6c0.5-0.7,1.4-1.6,2.6-1.6c1.9,0,2.7,2,2.7,4.2C105.6,53.3,105.5,53.8,105.4,54.3z"/>
	<path class="st4" d="M253.9,44c-2.2,0-3.6,2.3-4.4,4.5h-0.1l-0.5-4.5l-5.6,0.9v3.8l2.1,0.7l0,7.9l-2,0.4v3.2H254v-3.3l-3.5-0.4
		v-4.8c0.1-0.5,0.3-1,0.7-1.4l0-0.1c0.5-0.5,1.3-0.9,2.3-0.9c0.6,0,1.1,0,2.2,0.3l0.8-5.1C256.2,44.6,255.2,44,253.9,44z"/>
	<path class="st4" d="M268.2,44c-2.2,0-3.6,2.3-4.4,4.5h-0.1l-0.5-4.5l-5.6,0.9v3.8l2.1,0.7v2.2v0v5.7l-2,0.4v3.2h10.6v-3.3
		l-3.5-0.4v-4.8c0-0.1,0-0.1,0.1-0.2c0.3-1.2,1.4-2.1,3-2.1c0.6,0,1.1,0,2.2,0.3l0.8-5.1C270.5,44.6,269.6,44,268.2,44z"/>
	<path class="st4" d="M199.8,50.4c-0.2-3.7-2.8-6.6-7.2-6.6c-4.9,0-7.3,3.4-7.8,7.3l0,0l0,0c0,0,0,0.1,0,0.1c0,0,0,0,0,0v0
		c0,0,0,0,0,0c0,0.4-0.1,0.8-0.1,1.2c0,5,2.9,8.5,8.7,8.5c2.5,0,4.8-0.7,6-1.4l-1-3.8c-0.1,0-1.8,0.9-4.2,0.9c-3,0-3.9-1.4-4.1-3.2
		v0h9.7c0.1-0.7,0.2-2,0.2-2.8L199.8,50.4L199.8,50.4z M194.8,50.7h-4.8c0.1-2,1.3-3.1,2.7-3.1c1.6,0,2.1,1.4,2.1,2.7V50.7z"/>
	<path class="st4" d="M224.6,50.4l0-0.3c0,0,0,0,0,0c0,0,0,0,0,0l0-0.2h0c-0.8-3.7-3.2-6-6.3-6c-2.5,0.1-4.2,1.4-5,2.9l-0.7-2.9
		l-5.6,1v3.7l2,0.6V50l0,0.4c0,0,0,0,0,0v13.7l-1.9,0.5v3.2h9.7v-3.3l-2.6-0.5v-3.7c1,0.6,1.9,0.8,3,0.8c4.5,0,7.7-3.2,7.7-8.8
		C224.8,51.6,224.7,51,224.6,50.4L224.6,50.4z M219.3,52.7c0,2.2-0.9,4.3-3,4.3c-1.2,0-2.1-0.8-2.2-0.9v-5.4v-0.4v0c0,0,0,0,0,0h0
		v-0.2c0.5-0.7,1.4-1.6,2.6-1.6c1.1,0,1.7,0.6,2.2,1.4l0.1,0.4C219.2,51,219.3,51.8,219.3,52.7L219.3,52.7z"/>
	<path class="st4" d="M287.9,55c0.2-0.8,0.3-1.6,0.3-2.5c0-5.5-3.4-8.7-8.3-8.7c-4.9,0-8.3,3.2-8.3,8.6c0,0.1,0,0.2,0,0.3
		c0,0,0,0,0,0c0.1,5.3,3.6,8.5,8.3,8.5c3.9,0,6.8-2.1,7.9-5.7l0,0l0-0.2c0,0,0-0.1,0-0.1c0,0,0,0,0,0L287.9,55L287.9,55z M279.9,57
		c-1.8,0-2.6-1.5-2.8-3.5c0,0,0,0,0,0h0c0-0.3-0.1-0.7-0.1-1c0-2.4,0.8-4.4,2.9-4.4c2.2,0,2.9,2,2.9,4.4c0,0.7-0.1,1.3-0.2,1.8
		c0,0,0,0,0,0l0,0.2C282.3,56,281.4,57,279.9,57z"/>
</g>
</svg>
