<svg width="64" height="64" viewBox="0 0 64 64" fill="none" xmlns="http://www.w3.org/2000/svg">
<path d="M27.9172 2.5C27.0888 2.5 26.4172 3.17157 26.4172 4V59C26.4172 59.8284 27.0888 60.5 27.9172 60.5H36.6314C37.4598 60.5 38.1314 59.8284 38.1314 59V4C38.1314 3.17157 37.4598 2.5 36.6314 2.5H27.9172Z" fill="white" stroke="white" stroke-width="3" stroke-linejoin="round"/>
<path d="M52.4806 10.0911C52.1629 9.19249 51.4874 8.41859 50.5475 7.99781C50.4774 7.95829 50.4037 7.92416 50.3268 7.89599L44.7972 5.87063L44.7932 5.86915C44.0205 5.58866 43.1553 5.5708 42.3507 5.85677C42.3496 5.85716 42.3485 5.85755 42.3474 5.85794L14.2567 15.7419L14.2522 15.7435C12.3868 16.4066 11.3801 18.4593 12.0519 20.3475C12.0523 20.3484 12.0526 20.3493 12.0529 20.3502L13.2984 23.8813C13.5738 24.6621 14.4298 25.0721 15.2109 24.7973L51.5643 12.006C51.9399 11.8739 52.2476 11.5978 52.4195 11.2385C52.5914 10.8793 52.6134 10.4665 52.4806 10.0911Z" fill="white" stroke="white" stroke-width="3" stroke-linejoin="round"/>
<path d="M19.2459 29.578C19.2195 29.5892 19.1925 29.5996 19.1651 29.6094C17.2788 30.2798 15.2216 29.2799 14.5559 27.4133L14.5541 27.4083L13.3069 23.8723C13.1745 23.4969 13.1967 23.0843 13.3686 22.7253C13.5405 22.3664 13.8481 22.0905 14.2236 21.9583L50.577 9.16707C51.3576 8.89239 52.2132 9.30181 52.4891 10.082C52.8306 11.0481 52.7603 12.1735 52.1768 13.1406L19.2459 29.578ZM19.2459 29.578L47.2489 19.7249L47.2548 19.7228C48.036 19.4443 48.7103 18.9079 49.1452 18.1736L52.1759 13.1422L19.2459 29.578Z" fill="white" stroke="white" stroke-width="3" stroke-linejoin="round"/>
<path d="M12.8038 41.8401L12.8038 41.8401L12.8094 41.8447L17.3495 45.5966L17.3507 45.5976C18.007 46.1389 18.82 46.4218 19.652 46.4218H49.4366C51.4267 46.4218 53.0486 44.8064 53.0486 42.8134V39.0615C53.0486 38.2331 52.377 37.5615 51.5486 37.5615H13C12.1716 37.5615 11.5 38.2331 11.5 39.0615C11.5 40.0858 11.9415 41.1203 12.8038 41.8401Z" fill="white" stroke="white" stroke-width="3" stroke-linejoin="round"/>
<path d="M17.3659 32.5208L17.3495 32.5342L12.8094 36.286L12.8094 36.286L12.8038 36.2907C11.9438 37.0085 11.5 38.0334 11.5 39.0692C11.5 39.8977 12.1716 40.5692 13 40.5692H51.5486C52.377 40.5692 53.0486 39.8977 53.0486 39.0692V35.3173C53.0486 33.3244 51.4267 31.709 49.4366 31.709H19.652C18.8044 31.709 18.0023 32.0097 17.3659 32.5208Z" fill="white" stroke="white" stroke-width="3" stroke-linejoin="round"/>
<path d="M36.6314 4H27.9172V59H36.6314V4Z" fill="#253A74"/>
<path d="M49.8109 9.30448L44.2813 7.27913C43.824 7.11312 43.3168 7.10481 42.8511 7.27083L14.7546 17.1569C13.657 17.547 13.0749 18.7506 13.4657 19.8463L14.713 23.3824L51.0664 10.5911C50.8669 10.0266 50.4262 9.5452 49.8025 9.31278L49.8109 9.30448Z" fill="#B6EAA4"/>
<path d="M18.6545 28.196L46.751 18.3099C47.2167 18.1439 47.6075 17.8285 47.8569 17.4052L50.8919 12.3667C51.2329 11.8022 51.2744 11.1465 51.0749 10.582L14.7214 23.3733L15.9687 26.9094C16.3595 28.0051 17.5652 28.5861 18.6628 28.196H18.6545Z" fill="#B6EAA4"/>
<path d="M13.765 40.6884L18.305 44.4403C18.6875 44.7558 19.1615 44.9218 19.652 44.9218H49.4366C50.6007 44.9218 51.5486 43.9755 51.5486 42.8134V39.0615H13C13 39.6592 13.2578 40.2651 13.765 40.6884Z" fill="#7ECDCE"/>
<path d="M49.4366 33.209H19.652C19.1615 33.209 18.6875 33.3833 18.305 33.6904L13.765 37.4423C13.2578 37.8656 13 38.4633 13 39.0692H51.5486V35.3173C51.5486 34.1553 50.6007 33.209 49.4366 33.209Z" fill="#7ECDCE"/>
</svg>
