<?xml version="1.0" encoding="utf-8"?>
<!-- Generator: Adobe Illustrator 28.1.0, SVG Export Plug-In . SVG Version: 6.00 Build 0)  -->
<svg version="1.1" id="Capa_1" xmlns="http://www.w3.org/2000/svg" xmlns:xlink="http://www.w3.org/1999/xlink" x="0px" y="0px"
	 viewBox="0 0 254.6 80" style="enable-background:new 0 0 254.6 80;" xml:space="preserve">
<style type="text/css">
	.st0{fill:#FFFFFF;}
	.st1{fill:#87549F;}
</style>
<path class="st0" d="M0.8,52.2c0,0.5-0.1,1-0.1,1.5c0,7.2,4.3,12.2,10.4,12.2c1,0,2.2-0.2,3.4-0.6c0.3,0.2,0.7,0.3,1,0.4h0.2
	c0.5,0.1,1.1,0.1,1.6,0l6-1.4c0.5-0.1,1-0.4,1.5-0.7c2,1.4,4.6,2.2,7.6,2.2s6.1-0.8,8-1.9c1.4-0.9,2.1-2.6,1.6-4.2l-0.7-2.4
	c0.6-0.6,1.1-1.4,1.1-2.4c0-0.5,0.2-2.1,0.2-3.1c0-0.1,0-0.2,0-0.3c0.3,0.6,0.9,1.1,1.5,1.4v9.4c-1.1,0.7-1.9,1.9-1.9,3.3v3.2
	c0,2.1,1.7,3.8,3.8,3.8h9.7c2.1,0,3.8-1.7,3.8-3.8v-3.3v-0.1c1.5-0.4,2.9-1.2,4.1-2.2c1.6,1.7,3.9,2.8,6.7,2.8c1.5,0,3-0.3,4.3-1
	c1.1,0.6,2.4,0.9,3.8,0.9c2,0,3.8-0.6,5.4-1.7c1.4,1.1,3.2,1.6,5.4,1.6c2.6,0,4.6-0.7,5.8-1.3c1.4,0.9,3.1,1.4,5.1,1.4
	c1.5,0,3-0.3,4.3-1c1.1,0.6,2.4,0.9,3.8,0.9c2,0,3.8-0.6,5.5-1.7c1-0.7,1.6-1.9,1.6-3.1v-2.4c1.5,4.4,5.1,7.2,9.6,7.2
	c1,0,2.2-0.2,3.4-0.6c0.3,0.2,0.7,0.3,1.1,0.4h0.2c0.5,0.1,1.1,0.1,1.6,0l6-1.4c0.6-0.1,1.1-0.4,1.5-0.7c2,1.4,4.6,2.2,7.6,2.2
	s6.1-0.8,8-1.9c1.4-0.9,2.1-2.6,1.6-4.2l-0.7-2.4c0.6-0.6,1-1.4,1.1-2.4c0-0.5,0.2-2.1,0.2-3.1c0-0.1,0-0.2,0-0.3
	c0.3,0.6,0.9,1.1,1.5,1.4v9.4c-1.1,0.7-1.9,1.9-1.9,3.3v3.2c0,2.1,1.7,3.8,3.8,3.8h9.7c2.1,0,3.8-1.7,3.8-3.8v-3.3v-0.1
	c2.1-0.6,3.8-1.8,5.2-3.4c2.2,2.4,5.5,3.8,9.4,3.8c2.1,0,4.3-0.4,6.1-1.1c0.6,0.5,1.4,0.7,2.2,0.7h10.6c0.7,0,1.3-0.2,1.9-0.5
	c0.6,0.3,1.2,0.5,1.9,0.5h10.6c1.6,0,3-1,3.5-2.4c2.1,1.8,4.8,2.9,8,2.9c5.8,0,10.3-3.4,11.6-8.9c0.3-1.1,0.4-2.3,0.4-3.6
	c-0.2-7.4-5-12.4-12.2-12.4l0,0c-2.6,0-5,0.7-6.8,1.9c-1.2-1.1-2.9-1.8-4.9-1.8c-0.8,0-1.8,0.1-2.8,0.6c-0.8-0.5-1.8-0.8-2.7-0.6
	l-5.3,0.8c-1-0.5-2.2-0.8-3.5-0.8c-0.8,0-1.8,0.1-2.8,0.6c-0.8-0.5-1.8-0.8-2.7-0.6l-5.6,0.9c-0.8,0.1-1.4,0.5-1.9,0.9
	c-1.8-1.2-4-1.9-6.5-1.9c-3.5,0-6.5,1.3-8.5,3.6c-1.9-2.3-4.5-3.6-7.5-3.6H171c-1.2,0-2.4,0.3-3.4,0.7c-0.8-0.6-1.8-0.8-2.9-0.6
	l-5.6,1c-1.8,0.3-3.1,1.9-3.1,3.7v2.4c-1.4-4.4-5.3-7.3-10.5-7.3c-2.9,0-5.4,0.9-7.4,2.5v-5.9c0-1.1-0.5-2.1-1.2-2.8
	c-0.8-0.7-1.8-1.1-2.9-0.9l-7.7,0.8c-1.9,0.2-3.4,1.8-3.4,3.8v3c-4.8,1.3-8.1,5.7-8.2,11.6V53c0,0.2,0,0.3,0,0.5
	c0,0.6,0,1.2,0.1,1.7c-0.2-0.3-0.4-0.5-0.6-0.7c-0.2-0.2-0.4-0.3-0.7-0.5v-0.4l0,0l0.1-2.3c0.1-3.3-0.7-5.8-2.5-7.6
	c-1.9-1.9-4.5-2.8-8.1-2.8c-2.8,0-5.4,0.6-7,1.1c-0.6-0.4-1.3-0.6-2-0.6h-0.3V41c0-1-0.4-2-1.2-2.7c-0.7-0.7-1.7-1.1-2.8-1L85,37.5
	c-1.8,0.1-3.4,1.5-3.6,3.3l-0.2,1.3c-0.4,0.2-0.8,0.4-1.2,0.7c-1.7-1.2-4-1.8-6.9-1.8c-3.6,0-6.8,1-8.2,1.5
	c-0.5,0.2-0.9,0.5-1.2,0.8C62,41.8,59.9,41,57.4,41h-0.1c-1.2,0-2.3,0.3-3.4,0.7c-0.8-0.6-1.8-0.8-2.9-0.6l-5.6,1
	c-1.8,0.3-3.1,1.9-3.1,3.7v2.4C40.9,43.8,37,41,31.8,41c-2.9,0-5.4,0.9-7.4,2.5v-6c0-1.1-0.5-2.1-1.3-2.8s-1.8-1.1-2.9-0.9l-7.7,0.8
	c-1.9,0.2-3.4,1.8-3.4,3.8v3c-1.9,0.5-3.6,1.5-4.9,3C4.2,44.4,0.8,47,0.8,52.2z M208.6,55.1L208.6,55.1c-0.2-0.1-0.4-0.2-0.6-0.3
	c0.2,0,0.4,0,0.6,0V55.1L208.6,55.1z"/>
<g>
	<path class="st1" d="M20.4,36.6l-7.7,0.8v3.4l2.5,0.6V45c-0.7-0.7-1.7-1.2-3.3-1.2c-3.9,0-6.5,2.7-7.3,6.5l0,0v0.1
		c0,0.1,0,0.1,0,0.2l0,0l0,0l0,0l0,0v0.2l0,0c-0.1,0.6-0.1,1.1-0.1,1.7c0,4.5,2.3,8.5,6.6,8.5c2.3,0,3.8-1.4,4.8-3l0.4,2.8h0.2
		l6-1.4v-3.2l-2-0.3L20.4,36.6z M15.2,52L15.2,52v3.2l0,0c-0.3,0.7-1.4,1.6-2.7,1.6c-1.7,0-2.6-1.7-2.6-4.1c0-0.4,0-0.8,0.1-1.2
		v-0.2c0.3-1.6,1-3,2.8-3l0,0c1.2,0,2.1,0.7,2.4,1.3V52z"/>
	<path class="st1" d="M79.6,55.5v-1.3l0,0l0.1-3.8c0.1-4-1.4-6.6-6.9-6.6c-3.3,0-6.1,0.9-6.8,1.2l1.2,3.8c1.1-0.4,2.5-0.9,4.5-0.9
		c1.8,0,2.6,0.5,2.6,2.1v0.2c-4.3-0.1-8,1.1-9.1,4.1l0,0l0,0c-0.2,0.6-0.3,1.2-0.3,1.9c0,3.3,2.4,4.9,5.2,4.9c2.5,0,4.1-1.3,4.8-2.2
		c0.4,1.1,1.2,2.2,3.4,2.2c1.5,0,2.5-0.5,3.3-1v-3.5c-0.4,0.1-0.7,0.1-1.1,0.1C79.8,56.7,79.5,56.4,79.6,55.5z M74.4,56L74.4,56
		c-0.5,0.6-1.4,1.3-2.5,1.3c-1,0-1.7-0.6-1.7-1.6c0-0.5,0.2-1,0.7-1.3l0,0l0,0c0.1,0,0.1-0.1,0.2-0.1c0.7-0.4,1.8-0.7,3.3-0.7v0.8
		l0,0V56z"/>
	<path class="st1" d="M91.1,56.4c-1.4,0-1.7-0.6-1.7-2.3v-0.3l0.1-5.3h4.1v-4.2h-4.1v-4.1l-4.7,0.2l-0.5,3.9l-2.1,0.5v3.6h2.1v6.9
		c0,4.7,2.2,5.8,4.8,5.8c2.3,0,4.1-0.8,4.8-1.3l-0.7-3.7C92.8,56.2,91.9,56.4,91.1,56.4z"/>
	<path class="st1" d="M109.4,55.5l0.1-5l0,0c0.1-4-1.4-6.6-6.9-6.6c-3.3,0-6.1,0.9-6.8,1.2l1.2,3.8c1.1-0.4,2.5-0.9,4.5-0.9
		c1.8,0,2.6,0.5,2.6,2.1v0.2c-3.8-0.1-7.1,0.9-8.6,3.1l0,0l-0.1,0.1c0,0,0,0,0,0.1l0,0l-0.1,0.1l0,0c-0.4,0.7-0.7,1.6-0.7,2.6l0,0
		c0,3.3,2.4,4.9,5.2,4.9c2.5,0,4.1-1.3,4.8-2.2c0.4,1.1,1.2,2.2,3.4,2.2c1.5,0,2.5-0.5,3.3-1v-3.5c-0.4,0.1-0.7,0.1-1.1,0.1
		C109.6,56.7,109.3,56.4,109.4,55.5z M104.2,56c-0.5,0.6-1.4,1.3-2.5,1.3c-1,0-1.7-0.6-1.7-1.6c0-1.4,1.3-2.2,4.2-2.2V56z"/>
	<path class="st1" d="M134.1,36.6l-7.7,0.8v3.4l2.5,0.6V45c-0.7-0.7-1.7-1.2-3.3-1.2c-4.5,0-7.2,3.5-7.4,8.2l0,0v0.2l0,0l0,0v0.2
		l0,0c0,0.1,0,0.2,0,0.2c0,4.5,2.3,8.5,6.6,8.5c2.3,0,3.8-1.4,4.8-3l0.4,2.8h0.2l6-1.4v-3.2l-2-0.3L134.1,36.6z M128.9,55.2
		c-0.3,0.7-1.4,1.6-2.7,1.6c-1.7,0-2.6-1.7-2.6-4.1c0-0.2,0-0.4,0-0.6l0,0V52c0.1-1.8,0.8-3.7,2.8-3.7l0,0c1.2,0,2.1,0.7,2.4,1.3
		v5.6H128.9z"/>
	<path class="st1" d="M194.1,50.3c-0.2-3.7-2.8-6.5-7.2-6.5s-6.9,2.8-7.6,6.2l0,0c-0.2,0.8-0.3,1.6-0.3,2.5c0,5,2.9,8.5,8.7,8.5
		c2.5,0,4.8-0.7,6-1.4l-1-3.8c-0.1,0-1.8,0.9-4.2,0.9c-3,0-3.9-1.4-4.1-3.2l0,0h9.7c0.1-0.7,0.2-2,0.2-2.8
		C194.1,50.6,194.1,50.5,194.1,50.3L194.1,50.3z M189.1,50.4v0.4h-4.8c0-0.2,0-0.4,0.1-0.6l0,0c0.3-1.6,1.3-2.5,2.6-2.5l0,0
		C188.5,47.7,189,49,189.1,50.4L189.1,50.4C189.1,50.2,189.1,50.3,189.1,50.4L189.1,50.4z"/>
	<path class="st1" d="M31.5,43.9c-5.4,0-7.9,4.2-7.9,8.7c0,0.1,0,0.1,0,0.2l0,0c0.1,4.9,3,8.3,8.7,8.3l0,0c2.5,0,4.8-0.7,6-1.4
		l-1-3.8c-0.1,0-1.8,0.9-4.2,0.9c-3,0-3.9-1.4-4.1-3.2l0,0h9.7c0.1-0.7,0.2-2,0.2-2.8C38.8,46.9,36.2,43.9,31.5,43.9z M33.8,50.7H29
		c0.1-2,1.3-3.1,2.7-3.1c1.6,0,2.1,1.4,2.1,2.7C33.8,50.3,33.8,50.7,33.8,50.7z"/>
	<path class="st1" d="M57.1,43.9c-2.5,0.1-4.2,1.4-5,2.9l-0.7-2.9l-5.6,1v3.7l2,0.6V64l-1.9,0.5v3.2h9.7v-3.3L53,63.9v-3.7
		c1,0.6,1.9,0.8,3,0.8c3.8,0,6.7-2.4,7.5-6.5l0,0v-0.1c0,0,0,0,0-0.1l0,0l0,0l0,0c0-0.1,0-0.2,0-0.3c0.1-0.6,0.1-1.2,0.1-1.8
		C63.7,47.1,60.8,43.9,57.1,43.9z M58,54.3L58,54.3c-0.4,1.6-1.2,2.7-2.8,2.7l0,0c-1.2,0-2.1-0.8-2.2-0.9v-6
		c0.5-0.7,1.4-1.6,2.6-1.6c1.9,0,2.7,2,2.7,4.2C58.2,53.3,58.1,53.8,58,54.3z"/>
	<path class="st1" d="M206.5,44c-2.2,0-3.6,2.3-4.4,4.5H202l-0.5-4.5l-5.6,0.9v3.8l2.1,0.7v7.9l-2,0.4v3.2h10.6v-3.3l-3.5-0.4v-4.8
		c0.1-0.5,0.3-1,0.7-1.4v-0.1c0.5-0.5,1.3-0.9,2.3-0.9c0.6,0,1.1,0,2.2,0.3l0.8-5.1C208.8,44.6,207.8,44,206.5,44z"/>
	<path class="st1" d="M220.8,44c-2.2,0-3.6,2.3-4.4,4.5h-0.1l-0.5-4.5l-5.6,0.9v3.8l2.1,0.7v2.2l0,0v5.7l-2,0.4v3.2h10.6v-3.3
		l-3.5-0.4v-4.8c0-0.1,0-0.1,0.1-0.2c0.3-1.2,1.4-2.1,3-2.1c0.6,0,1.1,0,2.2,0.3l0.8-5.1C223.1,44.6,222.2,44,220.8,44z"/>
	<path class="st1" d="M152.4,50.4c-0.2-3.7-2.8-6.6-7.2-6.6c-4.9,0-7.3,3.4-7.8,7.3l0,0l0,0v0.1l0,0l0,0l0,0c0,0.4-0.1,0.8-0.1,1.2
		c0,5,2.9,8.5,8.7,8.5c2.5,0,4.8-0.7,6-1.4l-1-3.8c-0.1,0-1.8,0.9-4.2,0.9c-3,0-3.9-1.4-4.1-3.2l0,0h9.7c0.1-0.7,0.2-2,0.2-2.8
		L152.4,50.4L152.4,50.4z M147.4,50.7h-4.8c0.1-2,1.3-3.1,2.7-3.1c1.6,0,2.1,1.4,2.1,2.7V50.7z"/>
	<path class="st1" d="M177.2,50.4v-0.3l0,0l0,0v-0.2l0,0c-0.8-3.7-3.2-6-6.3-6c-2.5,0.1-4.2,1.4-5,2.9l-0.7-2.9l-5.6,1v3.7l2,0.6V50
		v0.4l0,0v13.7l-1.9,0.5v3.2h9.7v-3.3l-2.6-0.5v-3.7c1,0.6,1.9,0.8,3,0.8c4.5,0,7.7-3.2,7.7-8.8C177.4,51.6,177.3,51,177.2,50.4
		L177.2,50.4z M171.9,52.7c0,2.2-0.9,4.3-3,4.3c-1.2,0-2.1-0.8-2.2-0.9v-5.4v-0.4l0,0l0,0l0,0v-0.2c0.5-0.7,1.4-1.6,2.6-1.6
		c1.1,0,1.7,0.6,2.2,1.4l0.1,0.4C171.8,51,171.9,51.8,171.9,52.7L171.9,52.7z"/>
	<path class="st1" d="M240.5,55c0.2-0.8,0.3-1.6,0.3-2.5c0-5.5-3.4-8.7-8.3-8.7s-8.3,3.2-8.3,8.6c0,0.1,0,0.2,0,0.3l0,0
		c0.1,5.3,3.6,8.5,8.3,8.5c3.9,0,6.8-2.1,7.9-5.7l0,0v-0.2v-0.1l0,0L240.5,55L240.5,55z M232.5,57c-1.8,0-2.6-1.5-2.8-3.5l0,0l0,0
		c0-0.3-0.1-0.7-0.1-1c0-2.4,0.8-4.4,2.9-4.4c2.2,0,2.9,2,2.9,4.4c0,0.7-0.1,1.3-0.2,1.8l0,0v0.2C234.9,56,234,57,232.5,57z"/>
</g>
</svg>
