<svg width="80" height="80" viewBox="0 0 80 80" fill="none" xmlns="http://www.w3.org/2000/svg">
<path d="M45.4199 4.5C46.8007 4.5 47.9199 5.61929 47.9199 7V10.0446L52.0591 8.58566C52.0611 8.58496 52.0631 8.58426 52.065 8.58356C53.1906 8.18315 54.3981 8.20918 55.4743 8.60053L55.4811 8.60301L62.1311 11.043C62.2487 11.0861 62.3618 11.1376 62.4698 11.1967C63.6439 11.7316 64.5199 12.6649 65.001 13.7626C65.0571 13.8691 65.1062 13.981 65.1474 14.0979C65.6233 15.4462 65.5257 17.0177 64.7124 18.3683L64.7109 18.3709M45.4199 4.5L14.5001 49.2154M45.4199 4.5H34.9399C33.5592 4.5 32.4399 5.61929 32.4399 7V15.5008M45.4199 4.5L32.4399 15.5008M64.7109 18.3709L63.182 17.4491L62.1237 17.8221L58.9199 23.15C58.6199 23.66 58.15 24.04 57.59 24.24L47.9199 27.6484V30.2991M64.7109 18.3709L61.0676 24.4297M64.7109 18.3709L18.5844 46.74M47.9199 30.2991L42.9199 32.0615M47.9199 30.2991V39.69M47.9199 30.2991L58.421 26.5978L58.4308 26.5943C59.5174 26.2063 60.4592 25.4574 61.0676 24.4297M42.9199 32.0615V26.76M42.9199 32.0615V39.69M42.9199 32.0615L37.4399 33.993M42.9199 26.76L45.4199 25.8788V23.7097L42.9199 24.5908M42.9199 26.76L37.4399 28.6915M42.9199 26.76V24.5908M42.9199 24.5908V24.5843L37.4399 26.5159V26.5224M42.9199 24.5908L37.4399 26.5224M37.4399 26.5224L32.4399 28.2847M37.4399 26.5224V28.6915M32.4399 28.2847V28.2782L30.6881 28.8957L30.6823 28.9042L32.4399 28.2847ZM32.4399 28.2847V30.4539M32.4399 30.4539L28.7691 31.7477L26.4312 35.2225M32.4399 30.4539V33.1046L26.4312 35.2225M32.4399 30.4539L37.4399 28.6915M26.4312 35.2225L26.1669 35.3157C26.1907 35.3831 26.2117 35.4518 26.2298 35.5219L26.4312 35.2225ZM37.4399 28.6915V33.993M37.4399 33.993L34.9399 34.8742V39.69H37.4399M37.4399 33.993V39.69M37.4399 39.69V44.69M37.4399 39.69H42.9199M37.4399 44.69H32.4399M37.4399 44.69H42.9199M37.4399 44.69V46.74M32.4399 44.69V42.19H25C24.41 42.19 23.84 42.4 23.38 42.77M32.4399 44.69V46.74M32.4399 44.69H25.0009M23.38 42.77L18.8048 46.5575M23.38 42.77L24.9742 44.6957L24.953 44.7133M23.38 42.77L24.9469 44.718C24.949 44.7164 24.951 44.7148 24.953 44.7133M18.8048 46.5575L22.2619 41.4194L22.2763 41.3979L23.2008 40.0238C22.6978 40.2164 22.2294 40.4871 21.8131 40.822L21.7858 40.8443L16.3258 45.3643L16.3258 45.3642L16.3165 45.372C15.1284 46.3653 14.5099 47.7824 14.5001 49.2154M18.8048 46.5575L18.5844 46.74M18.8048 46.5575L18.6821 46.74H22.5048M14.5001 49.2154C14.5133 47.846 15.6275 46.74 17 46.74H17.4602H17.4647H18.5844M14.5001 49.2154L18.5844 46.74M22.5048 46.74L22.4927 46.75H32.4399V46.74M22.5048 46.74L24.953 44.7133M22.5048 46.74H32.4399M32.4399 46.74H37.4399M37.4399 46.74V46.75H42.9199V46.74M37.4399 46.74H42.9199M42.9199 46.74H47.9199M42.9199 46.74V44.69M47.9199 46.74V46.75H57.0073L56.9818 46.74H47.9199ZM47.9199 46.74V44.69M47.9199 44.69H51.7727L47.9199 43.1738V44.69ZM47.9199 44.69H42.9199M42.9199 44.69V39.69M42.9199 39.69H47.9199M47.9199 39.69V42.19H60.82C62.22 42.19 63.36 43.33 63.36 44.73V46.74C64.7407 46.74 65.86 47.8593 65.86 49.24V44.73C65.86 41.9493 63.6007 39.69 60.82 39.69H47.9199ZM61.0676 24.4297L61.0624 24.4383L58.92 23.15L61.0748 24.4175C61.0724 24.4216 61.07 24.4256 61.0676 24.4297ZM60.86 51.74H47.9199V51.75M60.86 51.74L14.5001 49.2752M60.86 51.74V51.75M60.86 51.74L32.4399 58.8M47.9199 51.75H42.9199M47.9199 51.75V53.8M47.9199 51.75H60.86M42.9199 51.75V51.74H37.4399V51.75M42.9199 51.75V53.8M42.9199 51.75H37.4399M37.4399 51.75H32.4399M37.4399 51.75V53.8M32.4399 51.75V51.74H22.4927L22.5048 51.75M32.4399 51.75V53.8M32.4399 51.75H22.5048M22.5048 51.75H17.4647H17.4602H17C15.6277 51.75 14.5136 50.6443 14.5001 49.2752M22.5048 51.75L24.9722 53.7926L23.38 55.72L24.9742 53.7942L24.9724 53.7928C24.9747 53.7946 24.9763 53.7956 24.9771 53.7961C24.978 53.7966 24.9789 53.797 24.9801 53.7974C24.9819 53.7981 24.9881 53.8 25 53.8H32.4399M14.5001 49.2752C14.5101 50.6932 15.1248 52.1217 16.3165 53.118L16.3164 53.118L16.3258 53.1257L21.7858 57.6457L21.7878 57.6474C22.7042 58.4044 23.8398 58.8 25 58.8H32.4399M14.5001 49.2752L32.4399 58.8M32.4399 58.8V73.26C32.4399 74.6407 33.5592 75.76 34.9399 75.76H45.4199C46.8007 75.76 47.9199 74.6407 47.9199 73.26V58.8M32.4399 58.8V53.8M32.4399 58.8H37.4399M47.9199 58.8H60.82C63.6007 58.8 65.86 56.5407 65.86 53.76V49.25C65.86 50.6307 64.7407 51.75 63.36 51.75H60.86M47.9199 58.8H42.9199M47.9199 58.8V53.8M60.86 51.75V53.76C60.86 53.7649 60.8595 53.7674 60.8594 53.7683C60.8591 53.7694 60.8588 53.7704 60.8582 53.7718C60.8578 53.7729 60.8572 53.7741 60.8563 53.7756C60.8545 53.7788 60.8516 53.7829 60.8472 53.7872C60.8451 53.7893 60.843 53.7911 60.8411 53.7926C60.8373 53.7956 60.834 53.7973 60.8319 53.7982C60.8312 53.7985 60.8305 53.7987 60.8299 53.7989C60.8294 53.7991 60.8289 53.7992 60.8283 53.7993C60.8281 53.7994 60.8276 53.7995 60.827 53.7996C60.8256 53.7998 60.8234 53.8 60.82 53.8H47.9199M47.9199 53.8H42.9199M42.9199 53.8H37.4399M42.9199 53.8V58.8M37.4399 53.8H32.4399M37.4399 53.8V58.8M37.4399 58.8V70.76M37.4399 58.8H42.9199M37.4399 70.76H34.9399V73.26H37.4399V70.76ZM37.4399 70.76H42.9199M42.9199 70.76V73.26H45.4199V70.76H42.9199ZM42.9199 70.76V58.8M25.0009 44.69C25.0012 44.69 25.0009 44.69 25 44.69H25.0009ZM25.0009 44.69C24.9996 44.6902 24.9811 44.6924 24.953 44.7133M16.7976 31.4138L18.2119 35.4303L18.2118 35.4303L18.2148 35.4386C19.0796 37.8675 21.6352 39.2515 24.1167 38.6625L24.49 38.1078L23.8099 36.1784V38.65H23.7999C22.5819 38.65 21.5411 37.7722 21.3357 36.5716C21.2854 36.2774 21.2888 35.9848 21.3396 35.7048C20.9996 35.4215 20.7288 35.0462 20.5699 34.6L19.9023 32.7039L19.891 32.7078C19.2656 32.9283 18.5782 32.8912 17.98 32.6047C17.4582 32.3548 17.0416 31.9328 16.7976 31.4138ZM16.7976 31.4138C16.7619 31.338 16.73 31.2601 16.7019 31.1803L15.2048 26.9286C15.2043 26.927 15.2037 26.9254 15.2031 26.9238C14.2671 24.2868 15.6699 21.4211 18.2714 20.4949L18.2789 20.4922L18.2789 20.4922L32.4399 15.5008M16.7976 31.4138L16.7139 31.1761L16.7119 31.1703C16.2547 29.872 16.9331 28.4493 18.2276 27.9862L17.56 26.09C17.09 24.77 17.79 23.32 19.11 22.85L32.4399 15.5008M37.4399 21.2209L42.9199 19.2893V19.2828M37.4399 21.2209L42.9199 11.8069M37.4399 21.2209V21.2144M37.4399 21.2209L37.2817 19.0958M42.9199 19.2828L45.4199 18.4017V16.2273L42.9199 17.1084M42.9199 19.2828V17.1084M42.9199 19.2828L37.4399 21.2144M42.9199 17.1084V11.8069M42.9199 17.1084L37.4399 19.04M42.9199 11.8069L41.9575 12.1462L42.9199 10.7157V11.8069ZM37.2817 19.0958L35.3639 21.9461L37.4399 21.2144M37.2817 19.0958L37.4399 19.04M37.2817 19.0958L37.4399 18.8605V19.04M37.4399 21.2144V19.04M60.8447 12.9649L61.51 12.7304L60.8447 12.9649ZM60.8447 12.9649L59.502 11.6224L59.492 11.6324C59.2346 11.8899 59.0408 12.1959 58.9174 12.5268M60.8447 12.9649L58.9174 12.5268M58.9174 12.5268L54.62 10.95C54.07 10.75 53.46 10.74 52.9 10.94L47.9199 12.6953L58.9174 12.5268ZM17 49.24L18.6821 46.74M26.2298 35.5219L26.4312 35.2225M30.6823 28.9042L30.6881 28.8957M37.2816 19.0958L37.4399 18.8605M41.9575 12.1462L42.9199 10.7157M45.4199 16.2273V18.4017M45.4199 23.7097V25.8788M45.4199 39.69V42.19L47.9199 43.1738M63.36 49.25L51.7727 44.69M14.5 49.245C14.5 49.2467 14.5 49.2483 14.5 49.25V49.24C14.5 49.2417 14.5 49.2433 14.5 49.245Z" fill="white" stroke="white" stroke-width="5" stroke-linejoin="round"/>
<path d="M45.4199 7H34.9399V73.26H45.4199V7Z" fill="#253A74"/>
<path d="M20.57 34.8051C21.04 36.1251 22.49 36.8251 23.81 36.3551L57.6 24.4451C58.16 24.2451 58.63 23.8651 58.93 23.3551L62.58 17.2851C62.99 16.6051 63.04 15.8151 62.8 15.1351C62.56 14.4551 62.03 13.8751 61.28 13.5951L54.63 11.1551C54.08 10.9551 53.47 10.9451 52.91 11.1451L19.12 23.0451C17.8 23.5151 17.1 24.9651 17.57 26.2851L19.07 30.5451L20.57 34.8051Z" fill="#B6EAA4"/>
<path d="M60.82 42.3851H25C24.41 42.3851 23.84 42.5951 23.38 42.9651L17.92 47.4851C17.31 47.9951 17 48.7151 17 49.4451C17 50.1751 17.31 50.8951 17.92 51.4051L23.38 55.9251C23.84 56.3051 24.41 56.5051 25 56.5051H60.82C62.22 56.5051 63.36 55.3651 63.36 53.9651V44.9351C63.36 43.5351 62.22 42.3951 60.82 42.3951V42.3851Z" fill="#7ECDCE"/>
</svg>
