<svg width="238" height="63" viewBox="0 0 238 63" fill="none" xmlns="http://www.w3.org/2000/svg">
<g filter="url(#filter0_d_313_6137)">
<path d="M222.046 32.0627C219.942 32.0627 218.102 32.5951 216.598 33.5584C215.633 32.6669 214.261 32.1644 212.714 32.1644C212.103 32.1644 211.306 32.2661 210.449 32.655C209.82 32.2182 209.04 32.0327 208.279 32.1524L204.048 32.7986C203.245 32.3917 202.298 32.1644 201.273 32.1644C200.662 32.1644 199.865 32.2661 199.008 32.655C198.378 32.2182 197.599 32.0327 196.838 32.1524L192.403 32.8345C191.804 32.9242 191.276 33.1934 190.857 33.5763C189.436 32.6191 187.674 32.0686 185.696 32.0686C182.91 32.0686 180.542 33.1157 178.894 34.9524C177.42 33.1575 175.322 32.1165 172.889 32.1165C172.865 32.1165 172.841 32.1165 172.811 32.1165C171.858 32.1404 170.941 32.3259 170.096 32.649C169.461 32.1943 168.646 31.9849 167.818 32.1345L163.359 32.9421C161.933 33.1994 160.896 34.4379 160.896 35.8857V37.8242C159.811 34.3362 156.665 32.0627 152.548 32.0627C150.246 32.0627 148.244 32.7746 146.692 34.031V29.3165C146.692 28.4669 146.332 27.6592 145.697 27.0909C145.068 26.5225 144.229 26.2533 143.378 26.343L137.229 26.9951C135.694 27.1567 134.538 28.455 134.55 29.9986L134.574 32.4157C130.756 33.4387 128.161 36.9627 128.011 41.6652V41.737C127.999 41.8567 127.999 41.9763 127.999 42.096C127.999 42.5686 128.029 43.0293 128.077 43.478C127.933 43.2746 127.771 43.0832 127.573 42.9216C127.412 42.784 127.232 42.6644 127.052 42.5627V42.2216H127.058L127.106 40.3609C127.166 37.7345 126.513 35.7601 125.092 34.3122C123.612 32.7986 121.502 32.0627 118.637 32.0627C116.432 32.0627 114.358 32.5233 113.034 32.9421C112.566 32.643 112.021 32.4695 111.427 32.4695H111.17V32.1644C111.17 31.3507 110.84 30.5729 110.247 30.0045C109.659 29.4421 108.874 29.137 108.047 29.1729L104.319 29.3225C102.851 29.3823 101.646 30.4951 101.467 31.949L101.341 32.9541C100.987 33.0798 100.676 33.2772 100.406 33.5165C99.0154 32.5473 97.2054 32.0627 94.91 32.0627C92.0811 32.0627 89.474 32.8225 88.3833 33.2652C87.9997 33.4208 87.6701 33.6541 87.3944 33.9293C86.0399 32.7746 84.3318 32.1105 82.4079 32.1105C82.384 32.1105 82.36 32.1105 82.33 32.1105C81.3771 32.1345 80.4601 32.3199 79.6151 32.643C78.9798 32.1883 78.1647 31.9789 77.3376 32.1285L72.8786 32.9362C71.4522 33.1934 70.4153 34.4319 70.4153 35.8798V37.7823C69.3305 34.3122 66.202 32.0567 62.0667 32.0567C59.7652 32.0567 57.7695 32.7866 56.2112 34.055V29.3105C56.2112 28.461 55.8516 27.6533 55.2163 27.0849C54.587 26.5165 53.748 26.2473 52.8969 26.337L46.7478 26.9892C45.2135 27.1507 44.0568 28.449 44.0688 29.9926L44.0928 32.4097C42.5645 32.8165 41.2339 33.6242 40.1731 34.755V31.4644C40.1731 28.9755 38.1474 26.9533 35.6542 26.9533H29.4212V23.89L34.7192 22.0233C35.7081 21.6763 36.5472 20.9883 37.0926 20.0909L39.2801 16.4533C39.9754 15.2986 40.1132 13.9045 39.6697 12.6362C39.2202 11.3678 38.2373 10.3686 36.9667 9.90198L32.9812 8.44215C31.9983 8.07719 30.9075 8.07121 29.9186 8.41822L29.3972 8.60369C29.2533 7.09001 27.9888 5.89941 26.4305 5.89941H20.1495C18.4954 5.89941 17.1529 7.23958 17.1529 8.89087V12.9174L9.66723 15.5498C8.5285 15.9507 7.61752 16.7704 7.0961 17.8533C6.57468 18.9421 6.50876 20.1627 6.91031 21.2994L7.8093 23.8481L8.7083 26.3968C9.04992 27.3661 9.6912 28.1319 10.4943 28.6584L8.03705 30.6866C6.99422 31.5481 6.40088 32.8105 6.40088 34.1627C6.40088 35.5148 7.00021 36.7772 8.03705 37.6387L11.3094 40.337C12.1185 41.0071 13.1433 41.3721 14.1922 41.3721H17.1529V48.5336C17.1529 50.1849 18.4954 51.5251 20.1495 51.5251H26.4305C28.0846 51.5251 29.4271 50.1849 29.4271 48.5336V41.3721H35.6602C36.3494 41.3721 36.9967 41.2165 37.578 40.9413C37.5421 41.3242 37.5181 41.7071 37.5181 42.096C37.5181 47.8097 40.9283 51.8062 45.8068 51.8062C46.598 51.8062 47.5329 51.6866 48.4918 51.2977C48.7496 51.4353 49.0312 51.537 49.3249 51.5968L49.4508 51.6208C49.8643 51.7045 50.2898 51.6986 50.6974 51.6028L55.486 50.5199C55.9175 50.4242 56.3071 50.2268 56.6427 49.9695C58.2549 51.0823 60.3046 51.6986 62.696 51.6986C65.0873 51.6986 67.5386 51.0943 69.0309 50.1609C70.1516 49.455 70.679 48.1028 70.3254 46.8285L69.798 44.9379C70.2955 44.4533 70.6371 43.8011 70.697 43.0592C70.727 42.6883 70.8349 41.4199 70.8349 40.5883C70.8349 40.5105 70.8289 40.4327 70.8229 40.355C71.0986 40.8276 71.5061 41.2285 72.0036 41.4917V48.9763C71.0986 49.5028 70.5172 50.478 70.5172 51.5609V54.1037C70.5172 55.755 71.8597 57.0951 73.5139 57.0951H81.2273C82.8814 57.0951 84.2239 55.755 84.2239 54.1037V51.4892C84.2239 51.4533 84.2239 51.4233 84.2239 51.3874C85.4465 51.0345 86.5373 50.4302 87.4603 49.6165C88.7309 50.9986 90.6008 51.8362 92.8003 51.8362C94.005 51.8362 95.1797 51.5669 96.2345 51.0763C97.0975 51.555 98.1284 51.8122 99.2791 51.8122C100.855 51.8122 102.306 51.3575 103.588 50.4601C104.715 51.3216 106.153 51.7644 107.873 51.7644C109.947 51.7644 111.511 51.208 112.494 50.7233C113.615 51.4353 114.994 51.8362 116.522 51.8362C117.726 51.8362 118.901 51.5669 119.95 51.0763C120.813 51.555 121.844 51.8122 122.995 51.8122C124.589 51.8122 126.051 51.3456 127.352 50.4302C128.143 49.8678 128.616 48.9584 128.616 47.9892V46.0627C129.809 49.5806 132.638 51.8122 136.288 51.8122C137.079 51.8122 138.014 51.6926 138.973 51.3037C139.23 51.4413 139.512 51.543 139.812 51.6028L139.938 51.6268C140.351 51.7105 140.777 51.7045 141.184 51.6088L145.973 50.5259C146.416 50.4242 146.812 50.2208 147.154 49.9515C148.766 51.0703 150.815 51.7045 153.177 51.7045C155.538 51.7045 158.019 51.1003 159.512 50.1669C160.633 49.4609 161.16 48.1088 160.806 46.8345L160.285 44.9498C160.788 44.4652 161.118 43.8071 161.184 43.0592C161.214 42.6883 161.322 41.4199 161.322 40.5883C161.322 40.5045 161.316 40.4208 161.31 40.337C161.585 40.8156 161.993 41.2225 162.49 41.4857V48.9704C161.585 49.4968 161.004 50.4721 161.004 51.555V54.0977C161.004 55.749 162.347 57.0892 164.001 57.0892H171.714C173.368 57.0892 174.711 55.749 174.711 54.0977V51.4832C174.711 51.4473 174.711 51.4174 174.711 51.3815C176.365 50.8968 177.773 49.9575 178.846 48.6652C180.59 50.5857 183.185 51.7045 186.338 51.7045C188.034 51.7045 189.79 51.3874 191.198 50.8669C191.696 51.2319 192.301 51.4533 192.966 51.4533H201.435C201.98 51.4533 202.484 51.2977 202.921 51.0464C203.359 51.2977 203.862 51.4533 204.408 51.4533H212.876C214.147 51.4533 215.225 50.6635 215.663 49.5507C217.317 51.0105 219.517 51.8541 222.058 51.8541C226.691 51.8541 230.233 49.1558 231.294 44.8122C231.515 43.9088 231.629 42.9456 231.629 41.9464C231.629 36.0353 227.781 32.0627 222.058 32.0627H222.046ZM202.963 43.2986C202.963 43.2986 202.951 43.3045 202.945 43.3105C202.801 43.2268 202.646 43.155 202.49 43.0892C202.646 43.1011 202.807 43.1071 202.963 43.0892V43.2926V43.2986Z" fill="white"/>
</g>
<path d="M49.0971 43.741C48.8454 44.2974 47.9883 45.0512 46.9575 45.0512C45.573 45.0512 44.8898 43.6931 44.8898 41.7546C44.8898 41.4316 44.9138 41.0965 44.9617 40.7675C43.4814 40.5999 42.037 40.4324 40.6285 40.2529C40.5506 40.7495 40.5027 41.264 40.5027 41.8025C40.5027 45.3743 42.3187 48.5213 45.7948 48.5213C47.6587 48.5213 48.8214 47.4384 49.6005 46.1581L49.9002 48.3717L50.026 48.3957L54.8147 47.3128V44.794L53.2025 44.5187V41.5871C51.8061 41.4615 50.4336 41.3358 49.0911 41.1982V43.735L49.0971 43.741Z" fill="#87549F"/>
<path d="M62.6838 48.4188C64.6736 48.4188 66.5375 47.8924 67.4245 47.3359L66.5915 44.3445C66.4896 44.3684 65.1531 45.0505 63.2652 45.0505C60.8978 45.0505 60.1427 43.9676 60.0108 42.5317V42.5077H66.112C62.528 42.3103 59.0819 42.071 55.7795 41.8018C55.8395 45.6727 58.1769 48.4188 62.6778 48.4188H62.6838Z" fill="#87549F"/>
<path d="M80.8615 45.2248C79.9026 45.2248 79.1953 44.6205 79.0995 44.471V43.0111C77.709 42.9812 76.3425 42.9393 74.988 42.8975V50.8368L73.5017 51.2675V53.8103H81.2151V51.1958L79.1234 50.771V47.8274C79.9026 48.306 80.6577 48.4795 81.5207 48.4795C84.6313 48.4795 86.9567 46.5411 87.5141 43.1248C86.0457 43.1248 84.5773 43.1128 83.1389 43.0949C82.8573 44.2915 82.156 45.2308 80.8615 45.2308V45.2248Z" fill="#87549F"/>
<path d="M96.1864 44.3689C95.8088 44.8714 95.0776 45.3979 94.1966 45.3979C93.3875 45.3979 92.8361 44.9432 92.8361 44.1655C92.8361 43.7287 93.0159 43.3697 93.3755 43.0945C91.8832 43.1125 90.3968 43.1244 88.9345 43.1244C88.7726 43.5731 88.6768 44.0697 88.6768 44.6202C88.6768 47.2108 90.5646 48.5449 92.7882 48.5449C94.7779 48.5449 96.0425 47.486 96.5939 46.786C96.8936 47.6655 97.5528 48.521 99.2669 48.521C100.424 48.521 101.281 48.1202 101.886 47.6894V44.8954C101.556 44.9432 101.305 44.9432 100.981 44.9432C100.478 44.9432 100.25 44.7398 100.274 43.986L100.298 42.9629C98.9193 42.9988 97.5588 43.0227 96.2043 43.0467L96.1864 44.3629V44.3689Z" fill="#87549F"/>
<path d="M104.008 43.866C103.984 47.5634 105.722 48.4728 107.861 48.4728C109.725 48.4728 111.086 47.8446 111.691 47.4438L111.164 44.5241C110.786 44.572 110.103 44.7275 109.497 44.7275C108.413 44.7275 108.113 44.225 108.113 42.8908V42.6934C106.735 42.7532 105.368 42.807 104.008 42.8549V43.872V43.866Z" fill="#87549F"/>
<path d="M112.404 44.6198C112.404 47.2104 114.292 48.5446 116.516 48.5446C118.505 48.5446 119.77 47.4856 120.321 46.7856C120.621 47.6651 121.28 48.5207 122.994 48.5207C124.151 48.5207 125.008 48.1198 125.614 47.689V44.895C125.284 44.9429 125.032 44.9429 124.709 44.9429C124.205 44.9429 123.977 44.7395 124.001 43.9856L124.055 41.8438C120.495 42.0412 116.815 42.2446 112.98 42.454C112.614 43.0583 112.41 43.7762 112.41 44.6198H112.404ZM119.938 42.454L119.914 44.3685C119.536 44.8711 118.805 45.3976 117.924 45.3976C117.115 45.3976 116.564 44.9429 116.564 44.1651C116.564 43.0822 117.624 42.454 119.944 42.454H119.938Z" fill="#87549F"/>
<path d="M139.578 43.7411C139.326 44.2975 138.469 45.0513 137.438 45.0513C136.054 45.0513 135.37 43.6932 135.37 41.7547C135.37 41.5872 135.376 41.4137 135.388 41.2402C133.944 41.318 132.482 41.3958 130.995 41.4735C130.995 41.5872 130.983 41.6949 130.983 41.8086C130.983 45.3804 132.799 48.5274 136.275 48.5274C138.139 48.5274 139.302 47.4445 140.081 46.1641L140.381 48.3778L140.507 48.4018L145.295 47.3188V44.8L143.683 44.5248V40.8154C142.335 40.8812 140.962 40.953 139.572 41.0248V43.7471L139.578 43.7411Z" fill="#87549F"/>
<path d="M146.26 41.653C146.26 45.6017 148.604 48.4196 153.165 48.4196C155.155 48.4196 157.018 47.8931 157.905 47.3367L157.072 44.3453C156.971 44.3692 155.634 45.0512 153.746 45.0512C151.379 45.0512 150.624 43.9683 150.492 42.5324V42.5085H158.181C158.229 41.9282 158.307 40.8991 158.307 40.2948C158.307 40.247 158.295 40.2051 158.295 40.1572C154.477 40.3008 150.492 40.4803 146.314 40.6777C146.278 41.0008 146.26 41.3239 146.26 41.653Z" fill="#87549F"/>
<path d="M173.764 41.778C173.764 43.513 173.081 45.2241 171.342 45.2241C170.384 45.2241 169.676 44.6199 169.58 44.4703V39.8156C168.232 39.8455 166.859 39.8814 165.469 39.9173V50.8361L163.983 51.2669V53.8096H171.696V51.1951L169.604 50.7703V47.8267C170.384 48.3053 171.139 48.4788 172.002 48.4788C175.58 48.4788 178.127 45.9122 178.127 41.4848C178.127 40.8506 178.055 40.2703 177.953 39.7139C176.461 39.7199 174.944 39.7318 173.41 39.7557C173.65 40.3301 173.77 41.0361 173.77 41.7899L173.764 41.778Z" fill="#87549F"/>
<path d="M187.452 39.9118V40.2109H183.647C183.659 40.0374 183.683 39.8759 183.712 39.7144C182.364 39.6964 180.998 39.6904 179.619 39.6904C179.481 40.3186 179.415 40.9768 179.415 41.6409C179.415 45.5896 181.759 48.4075 186.32 48.4075C188.309 48.4075 190.173 47.881 191.06 47.3246L190.227 44.3332C190.125 44.3571 188.789 45.0391 186.901 45.0391C184.534 45.0391 183.778 43.9562 183.647 42.5203V42.4964H191.336C191.384 41.9161 191.462 40.887 191.462 40.2827C191.462 40.1451 191.438 40.0195 191.426 39.8879C190.107 39.84 188.783 39.8041 187.446 39.7742C187.446 39.8161 187.452 39.8639 187.452 39.9058V39.9118Z" fill="#87549F"/>
<path d="M194.512 45.2963L192.948 45.6254V48.1681H201.417V45.5775L198.618 45.2245V41.3775C198.702 40.9527 198.9 40.5818 199.187 40.2827C197.635 40.1869 196.077 40.0972 194.507 40.0254V45.3023L194.512 45.2963Z" fill="#87549F"/>
<path d="M205.96 45.296L204.396 45.6251V48.1678H212.864V45.5772L210.065 45.2242V41.3772C210.077 41.3174 210.095 41.2695 210.113 41.2097C208.723 41.0601 207.338 40.9225 205.96 40.7969V45.296Z" fill="#87549F"/>
<path d="M221.968 45.2004C220.559 45.2004 219.918 44.0098 219.762 42.4243C218.312 42.2149 216.873 42.0175 215.447 41.832C215.537 46.0799 218.3 48.5688 222.046 48.5688C225.258 48.5688 227.631 46.8457 228.375 43.8064C226.972 43.5611 225.588 43.3278 224.215 43.1064C223.94 44.3329 223.262 45.2004 221.968 45.2004Z" fill="#87549F"/>
<path d="M26.4123 9.19531H20.1313V48.838H26.4123V9.19531Z" fill="#253A74"/>
<path d="M35.9117 13.0184L31.9261 11.5586C31.5965 11.439 31.2309 11.433 30.8953 11.5526L10.6439 18.6783C9.85279 18.9595 9.43326 19.827 9.71494 20.6167L10.6139 23.1655L36.8167 13.9458C36.6728 13.539 36.3552 13.1919 35.9057 13.0244L35.9117 13.0184Z" fill="#B6EAA4"/>
<path d="M13.455 26.6352L33.7063 19.5095C34.0419 19.3899 34.3236 19.1625 34.5034 18.8574L36.691 15.2258C36.9367 14.8189 36.9667 14.3463 36.8228 13.9395L10.6201 23.1591L11.5191 25.7078C11.8008 26.4976 12.6698 26.9164 13.4609 26.6352H13.455Z" fill="#B6EAA4"/>
<path d="M9.93078 35.6394L13.2031 38.3437C13.4788 38.5711 13.8204 38.6907 14.174 38.6907H35.642C36.4811 38.6907 37.1643 38.0087 37.1643 37.1711V34.4668H9.37939C9.37939 34.8976 9.56519 35.3343 9.93078 35.6394Z" fill="#7ECDCE"/>
<path d="M35.642 30.249H14.174C13.8204 30.249 13.4788 30.3747 13.2031 30.596L9.93078 33.3003C9.56519 33.6054 9.37939 34.0362 9.37939 34.473H37.1643V31.7687C37.1643 30.9311 36.4811 30.249 35.642 30.249Z" fill="#7ECDCE"/>
<path d="M47.1792 38.2302C48.1382 38.2302 48.8154 38.7866 49.0971 39.2891V41.2037C50.4396 41.3353 51.8121 41.4669 53.2085 41.5925V29.0225L47.0594 29.6746L47.0833 32.3908L49.0971 32.8934V35.7353C48.5697 35.1789 47.7126 34.8019 46.448 34.8019C43.2416 34.8019 41.138 37.0635 40.6226 40.2464C42.031 40.4199 43.4754 40.5934 44.9557 40.7609C45.1355 39.4507 45.7289 38.2242 47.1792 38.2242V38.2302Z" fill="#87549F"/>
<path d="M66.112 42.5086H67.7002C67.7482 41.9283 67.8261 40.8992 67.8261 40.2949C67.8261 37.1719 65.7344 34.7607 62.0545 34.7607C57.7214 34.7607 55.7795 38.0813 55.7795 41.6531C55.7795 41.7069 55.7795 41.7548 55.7795 41.8026C59.0819 42.0719 62.522 42.3112 66.112 42.5086ZM62.1564 37.7522C63.415 37.7522 63.8226 38.859 63.8226 39.918V40.2172H60.0168C60.1187 38.6556 61.0237 37.7522 62.1564 37.7522Z" fill="#87549F"/>
<path d="M79.0994 43.0107V39.6902C79.477 39.1098 80.2082 38.4338 81.1431 38.4338C82.6834 38.4338 83.2827 39.9953 83.2827 41.7782C83.2827 42.2269 83.2348 42.6696 83.1389 43.0885C84.5773 43.1064 86.0396 43.1124 87.514 43.1184C87.5979 42.6038 87.6458 42.0594 87.6458 41.4791C87.6458 37.3508 85.3804 34.8081 82.4017 34.8081C80.4359 34.856 79.0215 35.9149 78.3922 37.0996L77.8648 34.7842L73.4058 35.5919V38.5594L74.994 39.062V42.897C76.3485 42.9389 77.7149 42.9808 79.1054 43.0107H79.0994Z" fill="#87549F"/>
<path d="M96.2043 43.0522C97.5588 43.0283 98.9133 43.0043 100.298 42.9684L100.37 39.9889C100.448 36.818 99.2369 34.7539 94.8978 34.7539C92.3027 34.7539 90.0612 35.5078 89.5038 35.7351L90.4867 38.7565C91.3677 38.4573 92.5005 38.0026 94.0887 38.0026C95.5511 38.0026 96.1804 38.3795 96.1804 39.6898V39.8633C92.7282 39.7795 89.7855 40.7667 88.9285 43.124C90.3848 43.124 91.8772 43.106 93.3695 43.0941C93.8969 42.6813 94.8259 42.4539 96.2043 42.4539V43.0522Z" fill="#87549F"/>
<path d="M104.014 42.8489C105.374 42.801 106.735 42.7531 108.119 42.6873L108.167 38.4814H111.421V35.1608H108.167V31.8643L104.439 32.0138L104.062 35.0831L102.372 35.46V38.3557H104.038L104.02 42.8489H104.014Z" fill="#87549F"/>
<path d="M124.097 39.9889C124.175 36.818 122.964 34.7539 118.625 34.7539C116.03 34.7539 113.789 35.5078 113.231 35.7351L114.214 38.7565C115.095 38.4573 116.228 38.0026 117.816 38.0026C119.278 38.0026 119.908 38.3795 119.908 39.6898V39.8633C116.803 39.7855 114.1 40.5753 112.968 42.4539C116.803 42.2445 120.489 42.0411 124.043 41.8437L124.091 39.9889H124.097Z" fill="#87549F"/>
<path d="M137.66 38.2302C138.619 38.2302 139.296 38.7866 139.578 39.2891V41.0182C140.968 40.9464 142.341 40.8746 143.689 40.8088V29.0225L137.54 29.6746L137.564 32.3908L139.578 32.8934V35.7353C139.05 35.1789 138.193 34.8019 136.929 34.8019C133.327 34.8019 131.115 37.6558 130.99 41.4669C132.482 41.3891 133.938 41.3113 135.383 41.2336C135.478 39.7558 136.03 38.2302 137.654 38.2302H137.66Z" fill="#87549F"/>
<path d="M152.535 34.7539C148.598 34.7539 146.638 37.4941 146.314 40.677C150.492 40.4736 154.477 40.3001 158.295 40.1565C158.235 37.1052 156.161 34.7539 152.535 34.7539ZM154.304 40.2163H150.498C150.6 38.6548 151.505 37.7513 152.637 37.7513C153.896 37.7513 154.304 38.8582 154.304 39.9172V40.2163Z" fill="#87549F"/>
<path d="M169.58 39.8099V39.6843C169.958 39.104 170.689 38.4279 171.624 38.4279C172.559 38.4279 173.08 38.9544 173.41 39.7381C174.95 39.7142 176.461 39.7023 177.953 39.6963C177.396 36.633 175.4 34.8023 172.883 34.8023C170.917 34.8501 169.502 35.9091 168.873 37.0937L168.346 34.7783L163.887 35.586V38.5535L165.475 39.0561V39.9117C166.865 39.8698 168.232 39.8399 169.586 39.8099H169.58Z" fill="#87549F"/>
<path d="M185.792 37.7522C187.003 37.7522 187.416 38.7693 187.446 39.7864C188.783 39.8163 190.107 39.8522 191.426 39.9001C191.252 36.9744 189.208 34.7607 185.69 34.7607C182.172 34.7607 180.224 36.9565 179.619 39.7026C180.998 39.7026 182.364 39.7086 183.713 39.7266C183.958 38.4761 184.779 37.7582 185.786 37.7582L185.792 37.7522Z" fill="#87549F"/>
<path d="M194.513 40.0257C196.083 40.0975 197.635 40.1812 199.187 40.283C199.619 39.8402 200.254 39.565 201.039 39.565C201.543 39.565 201.944 39.5889 202.753 39.8163L203.383 35.7898C203.107 35.3112 202.376 34.8565 201.267 34.8565C199.529 34.8565 198.42 36.6453 197.791 38.4043H197.713L197.281 34.8086L192.846 35.4906V38.512L194.513 39.0385V40.0257Z" fill="#87549F"/>
<path d="M205.96 40.7975C207.344 40.9231 208.728 41.0607 210.113 41.2103C210.377 40.2411 211.246 39.565 212.486 39.565C212.99 39.565 213.391 39.5889 214.2 39.8163L214.83 35.7898C214.554 35.3112 213.823 34.8565 212.714 34.8565C210.976 34.8565 209.867 36.6453 209.238 38.4043H209.16L208.728 34.8086L204.293 35.4906V38.512L205.96 39.0385V40.8035V40.7975Z" fill="#87549F"/>
<path d="M219.762 42.424C219.738 42.1667 219.72 41.8975 219.72 41.6223C219.72 39.7078 220.326 38.1223 222.04 38.1223C223.754 38.1223 224.359 39.6838 224.359 41.6462C224.359 42.1667 224.311 42.6513 224.209 43.1001C225.582 43.3214 226.966 43.5548 228.369 43.8001C228.53 43.1419 228.62 42.424 228.62 41.6462C228.62 37.2667 225.947 34.7539 222.04 34.7539C218.132 34.7539 215.435 37.2727 215.435 41.6223C215.435 41.6941 215.441 41.7599 215.441 41.8317C216.867 42.0172 218.306 42.2086 219.756 42.424H219.762Z" fill="#87549F"/>
<defs>
<filter id="filter0_d_313_6137" x="4.40088" y="5.89941" width="229.228" height="55.1953" filterUnits="userSpaceOnUse" color-interpolation-filters="sRGB">
<feFlood flood-opacity="0" result="BackgroundImageFix"/>
<feColorMatrix in="SourceAlpha" type="matrix" values="0 0 0 0 0 0 0 0 0 0 0 0 0 0 0 0 0 0 127 0" result="hardAlpha"/>
<feOffset dy="2"/>
<feGaussianBlur stdDeviation="1"/>
<feComposite in2="hardAlpha" operator="out"/>
<feColorMatrix type="matrix" values="0 0 0 0 0 0 0 0 0 0 0 0 0 0 0 0 0 0 0.25 0"/>
<feBlend mode="normal" in2="BackgroundImageFix" result="effect1_dropShadow_313_6137"/>
<feBlend mode="normal" in="SourceGraphic" in2="effect1_dropShadow_313_6137" result="shape"/>
</filter>
</defs>
</svg>
