<svg width="37" height="51" viewBox="0 0 37 51" fill="none" xmlns="http://www.w3.org/2000/svg">
<path d="M22.0329 6H15.752V45.6427H22.0329V6Z" fill="#253A74"/>
<path d="M31.5323 9.82313L27.5467 8.3633C27.2171 8.24364 26.8515 8.23766 26.5159 8.35732L6.26451 15.483C5.4734 15.7642 5.05386 16.6317 5.33555 17.4214L6.23454 19.9701L32.4373 10.7505C32.2934 10.3436 31.9758 9.99663 31.5263 9.82911L31.5323 9.82313Z" fill="#B6EAA4"/>
<path d="M9.07556 23.4399L29.3269 16.3142C29.6626 16.1946 29.9442 15.9672 30.124 15.6621L32.3116 12.0305C32.5573 11.6236 32.5873 11.151 32.4434 10.7441L6.24072 19.9638L7.13972 22.5125C7.4214 23.3023 8.29043 23.7211 9.08155 23.4399H9.07556Z" fill="#B6EAA4"/>
<path d="M5.55138 32.4441L8.82373 35.1484C9.09942 35.3758 9.44104 35.4954 9.79464 35.4954H31.2626C32.1017 35.4954 32.7849 34.8134 32.7849 33.9758V31.2715H5C5 31.7023 5.18579 32.139 5.55138 32.4441Z" fill="#7ECDCE"/>
<path d="M31.2626 27.0537H9.79464C9.44104 27.0537 9.09942 27.1794 8.82373 27.4007L5.55138 30.105C5.18579 30.4101 5 30.8409 5 31.2776H32.7849V28.5734C32.7849 27.7358 32.1017 27.0537 31.2626 27.0537Z" fill="#7ECDCE"/>
</svg>
