<svg width="39" height="51" viewBox="0 0 39 51" fill="none" xmlns="http://www.w3.org/2000/svg">
<path d="M16.752 4.5C15.9235 4.5 15.252 5.17157 15.252 6V45.6427C15.252 46.4712 15.9235 47.1427 16.752 47.1427H23.0329C23.8614 47.1427 24.5329 46.4712 24.5329 45.6427V6C24.5329 5.17157 23.8614 4.5 23.0329 4.5H16.752Z" fill="white" stroke="white" stroke-width="3" stroke-linejoin="round"/>
<path d="M34.8515 10.2505C34.5874 9.5035 34.0277 8.85977 33.2512 8.5066C33.1864 8.47124 33.1186 8.44044 33.0482 8.41464L29.0626 6.9548L29.0586 6.95332C28.4136 6.7192 27.6901 6.70364 27.0155 6.94322C27.0144 6.94362 27.0133 6.94402 27.0121 6.94443L6.76664 14.068L6.76664 14.068L6.76214 14.0696C5.20321 14.6237 4.35911 16.3403 4.92172 17.9225C4.92205 17.9234 4.92239 17.9244 4.92273 17.9253L5.81996 20.4691C6.09538 21.2499 6.95137 21.6599 7.73241 21.3851L33.9351 12.1654C34.3108 12.0333 34.6184 11.7572 34.7903 11.3979C34.9622 11.0387 34.9842 10.6259 34.8515 10.2505ZM28.5467 8.3633L28.5468 8.36301L28.5467 8.3633Z" fill="white" stroke="white" stroke-width="3" stroke-linejoin="round"/>
<path d="M32.412 16.431L34.5956 12.806L34.5965 12.8044C35.0848 11.9949 35.1435 11.0526 34.8577 10.2441C34.5818 9.46392 33.7262 9.0545 32.9456 9.32918L6.74285 18.5488C6.36739 18.6809 6.05983 18.9569 5.8879 19.3158C5.71596 19.6748 5.69374 20.0874 5.82614 20.4628L6.72514 23.0115L6.72513 23.0115L6.7269 23.0164C7.28354 24.5771 9.00405 25.4148 10.5839 24.8532C10.6069 24.8451 10.6296 24.8364 10.652 24.8272L30.8248 17.7292L30.8307 17.7271C31.4818 17.495 32.0468 17.0468 32.412 16.431Z" fill="white" stroke="white" stroke-width="3" stroke-linejoin="round"/>
<path d="M5.59024 33.5957L5.59022 33.5958L5.59584 33.6004L8.86819 36.3047L8.86939 36.3057C9.41897 36.7589 10.0996 36.9954 10.7946 36.9954H32.2626C33.9277 36.9954 35.2849 35.6442 35.2849 33.9758V31.2715C35.2849 30.4431 34.6134 29.7715 33.7849 29.7715H6C5.17157 29.7715 4.5 30.4431 4.5 31.2715C4.5 32.1289 4.86952 32.9942 5.59024 33.5957ZM7.5 31.2715H6V32.7715H6.27817H6.28086H6.9475L7.5 31.2715Z" fill="white" stroke="white" stroke-width="3" stroke-linejoin="round"/>
<path d="M8.88458 26.2311L8.86819 26.2445L5.59584 28.9487L5.59583 28.9487L5.59024 28.9534C4.87187 29.5529 4.5 30.4111 4.5 31.2776C4.5 32.1061 5.17157 32.7776 6 32.7776H33.7849C34.6134 32.7776 35.2849 32.1061 35.2849 31.2776V28.5734C35.2849 26.9049 33.9277 25.5537 32.2626 25.5537H10.7946C10.084 25.5537 9.41426 25.8058 8.88458 26.2311Z" fill="white" stroke="white" stroke-width="3" stroke-linejoin="round"/>
<path d="M23.0329 6H16.752V45.6427H23.0329V6Z" fill="#253A74"/>
<path d="M32.5323 9.82313L28.5467 8.3633C28.2171 8.24364 27.8515 8.23766 27.5159 8.35732L7.26451 15.483C6.4734 15.7642 6.05386 16.6317 6.33555 17.4214L7.23454 19.9701L33.4373 10.7505C33.2934 10.3436 32.9758 9.99663 32.5263 9.82911L32.5323 9.82313Z" fill="#B6EAA4"/>
<path d="M10.0756 23.4399L30.3269 16.3142C30.6626 16.1946 30.9442 15.9672 31.124 15.6621L33.3116 12.0305C33.5573 11.6236 33.5873 11.151 33.4434 10.7441L7.24072 19.9638L8.13972 22.5125C8.4214 23.3023 9.29043 23.7211 10.0815 23.4399H10.0756Z" fill="#B6EAA4"/>
<path d="M6.55138 32.4441L9.82373 35.1484C10.0994 35.3758 10.441 35.4954 10.7946 35.4954H32.2626C33.1017 35.4954 33.7849 34.8134 33.7849 33.9758V31.2715H6C6 31.7023 6.18579 32.139 6.55138 32.4441Z" fill="#7ECDCE"/>
<path d="M32.2626 27.0537H10.7946C10.441 27.0537 10.0994 27.1794 9.82373 27.4007L6.55138 30.105C6.18579 30.4101 6 30.8409 6 31.2776H33.7849V28.5734C33.7849 27.7358 33.1017 27.0537 32.2626 27.0537Z" fill="#7ECDCE"/>
</svg>
