<svg width="24" height="24" viewBox="0 0 24 24" fill="none" xmlns="http://www.w3.org/2000/svg">
<g clip-path="url(#clip0_240_3802)">
<path d="M7.2 8.35V2.05C7.2 1.7525 7.30222 1.50312 7.50667 1.30187C7.71111 1.10062 7.96444 1 8.26667 1C8.56889 1 8.82222 1.10062 9.02667 1.30187C9.23111 1.50312 9.33333 1.7525 9.33333 2.05V8.35H10.4V2.05C10.4 1.7525 10.5022 1.50312 10.7067 1.30187C10.9111 1.10062 11.1644 1 11.4667 1C11.7689 1 12.0222 1.10062 12.2267 1.30187C12.4311 1.50312 12.5333 1.7525 12.5333 2.05V8.35C12.5333 9.33 12.2267 10.1875 11.6133 10.9225C11 11.6575 10.24 12.1475 9.33333 12.3925V20.95C9.33333 21.2475 9.23111 21.4969 9.02667 21.6981C8.82222 21.8994 8.56889 22 8.26667 22C7.96444 22 7.71111 21.8994 7.50667 21.6981C7.30222 21.4969 7.2 21.2475 7.2 20.95V12.3925C6.29333 12.1475 5.53333 11.6575 4.92 10.9225C4.30667 10.1875 4 9.33 4 8.35V2.05C4 1.7525 4.10222 1.50312 4.30667 1.30187C4.51111 1.10062 4.76444 1 5.06667 1C5.36889 1 5.62222 1.10062 5.82667 1.30187C6.03111 1.50312 6.13333 1.7525 6.13333 2.05V8.35H7.2ZM17.8667 13.6H15.7333C15.4311 13.6 15.1778 13.4994 14.9733 13.2981C14.7689 13.0969 14.6667 12.8475 14.6667 12.55V6.25C14.6667 5.025 15.1244 3.84375 16.04 2.70625C16.9556 1.56875 17.9022 1 18.88 1C19.2 1 19.4667 1.1225 19.68 1.3675C19.8933 1.6125 20 1.90125 20 2.23375V20.95C20 21.2475 19.8978 21.4969 19.6933 21.6981C19.4889 21.8994 19.2356 22 18.9333 22C18.6311 22 18.3778 21.8994 18.1733 21.6981C17.9689 21.4969 17.8667 21.2475 17.8667 20.95V13.6Z" fill="#455A64"/>
</g>
<defs>
<clipPath id="clip0_240_3802">
<rect width="24" height="24" fill="white"/>
</clipPath>
</defs>
</svg>
