<svg width="24" height="24" viewBox="0 0 24 24" fill="none" xmlns="http://www.w3.org/2000/svg">
<path d="M5.22459 13.2371C6.1431 13.2371 6.89462 12.4229 6.89462 11.4279C6.89462 10.4328 6.1431 9.61865 5.22459 9.61865C4.30607 9.61865 3.55455 10.4328 3.55455 11.4279C3.55455 12.4229 4.30607 13.2371 5.22459 13.2371ZM6.16815 14.2321C5.8592 14.1778 5.55024 14.1417 5.22459 14.1417C4.39792 14.1417 3.613 14.3316 2.90324 14.6663C2.28533 14.9558 1.88452 15.6071 1.88452 16.3398V16.8555C1.88452 17.353 2.26028 17.7601 2.71954 17.7601H5.64209V16.3037C5.64209 15.5528 5.83415 14.8472 6.16815 14.2321ZM18.5848 13.2371C19.5034 13.2371 20.2549 12.4229 20.2549 11.4279C20.2549 10.4328 19.5034 9.61865 18.5848 9.61865C17.6663 9.61865 16.9148 10.4328 16.9148 11.4279C16.9148 12.4229 17.6663 13.2371 18.5848 13.2371ZM21.9249 16.3398C21.9249 15.6071 21.5241 14.9558 20.9062 14.6663C20.1964 14.3316 19.4115 14.1417 18.5848 14.1417C18.2592 14.1417 17.9502 14.1778 17.6413 14.2321C17.9753 14.8472 18.1673 15.5528 18.1673 16.3037V17.7601H21.0899C21.5491 17.7601 21.9249 17.353 21.9249 16.8555V16.3398Z" fill="#78909C"/>
<path d="M11.9048 12.6149C13.3793 12.6149 14.6819 12.9971 15.7403 13.4969C16.7173 13.9673 17.3324 15.0257 17.3324 16.1722V16.7798C17.3324 17.3188 16.9253 17.7598 16.4278 17.7598H7.38177C6.88424 17.7598 6.47717 17.3188 6.47717 16.7798V16.182C6.47717 15.0257 7.0923 13.9673 8.06927 13.5067C9.12765 12.9971 10.4303 12.6149 11.9048 12.6149ZM11.9048 6C13.4064 6 14.6186 7.31318 14.6186 8.93995C14.6186 10.5667 13.4064 11.8799 11.9048 11.8799C10.4031 11.8799 9.19097 10.5667 9.19097 8.93995C9.19097 7.31318 10.4031 6 11.9048 6Z" fill="#455A64"/>
</svg>
