<svg width="31" height="31" viewBox="0 0 31 31" fill="none" xmlns="http://www.w3.org/2000/svg">
<path d="M27.4537 13.0258H26.4396V12.9736H15.1083V18.0097H22.2237C21.1857 20.9413 18.3963 23.0458 15.1083 23.0458C10.9366 23.0458 7.55418 19.6634 7.55418 15.4916C7.55418 11.3199 10.9366 7.93748 15.1083 7.93748C17.034 7.93748 18.786 8.66394 20.1199 9.85057L23.6811 6.28941C21.4324 4.19376 18.4246 2.90137 15.1083 2.90137C8.15536 2.90137 2.51807 8.53866 2.51807 15.4916C2.51807 22.4446 8.15536 28.0819 15.1083 28.0819C22.0613 28.0819 27.6986 22.4446 27.6986 15.4916C27.6986 14.6475 27.6117 13.8234 27.4537 13.0258Z" fill="#FFC107"/>
<path d="M3.96973 9.6315L8.10626 12.6651C9.22554 9.89401 11.9362 7.93748 15.1083 7.93748C17.034 7.93748 18.786 8.66394 20.1199 9.85057L23.6811 6.28941C21.4324 4.19376 18.4246 2.90137 15.1083 2.90137C10.2724 2.90137 6.0786 5.63157 3.96973 9.6315Z" fill="#FF3D00"/>
<path d="M15.1084 28.0822C18.3605 28.0822 21.3154 26.8376 23.5495 24.8137L19.6529 21.5163C18.3888 22.4738 16.8175 23.0461 15.1084 23.0461C11.8337 23.0461 9.0531 20.958 8.00559 18.0439L3.8999 21.2073C5.98359 25.2846 10.2152 28.0822 15.1084 28.0822Z" fill="#4CAF50"/>
<path d="M27.4538 13.0259H26.4396V12.9736H15.1084V18.0097H22.2238C21.7252 19.418 20.8193 20.6323 19.651 21.5168L19.6529 21.5155L23.5496 24.8129C23.2738 25.0634 27.6987 21.7868 27.6987 15.4917C27.6987 14.6475 27.6118 13.8235 27.4538 13.0259Z" fill="#1976D2"/>
</svg>
