<svg width="360" height="1237" viewBox="0 0 360 1237" fill="none" xmlns="http://www.w3.org/2000/svg">
<g clip-path="url(#clip0_313_6135)">
<path d="M-124.723 693.534L-54.8873 356.198C-48.5032 325.373 -18.3383 305.566 12.4848 311.954C43.314 318.347 63.1312 348.516 56.752 379.335L24.3551 535.817C17.9711 566.643 37.7931 596.806 68.6223 603.199C99.4515 609.592 129.61 589.78 135.994 558.955L234.26 84.3044C240.644 53.4791 270.809 33.6723 301.632 40.0604C332.455 46.4485 352.278 76.6224 345.899 107.442L319.33 235.76C312.946 266.586 332.768 296.749 363.597 303.142C394.427 309.535 424.585 289.723 430.97 258.898L496.032 -55.3548" stroke="#253A74" stroke-width="7" stroke-linecap="round" stroke-linejoin="round" stroke-dasharray="11.97 11.97"/>
<path d="M-0.559514 1139.23L0.384849 1134.65" stroke="#253A74" stroke-width="7" stroke-linecap="round" stroke-linejoin="round"/>
<path d="M2.27662 1125.53L72.1127 788.198C78.4968 757.373 108.662 737.566 139.485 743.954C170.314 750.347 190.131 780.516 183.752 811.335L151.355 967.817C144.971 998.643 164.793 1028.81 195.622 1035.2C226.452 1041.59 256.61 1021.78 262.994 990.955L361.26 516.304C367.644 485.479 397.809 465.672 428.632 472.06C459.455 478.448 479.278 508.622 472.899 539.442L446.33 667.76C439.946 698.586 459.768 728.749 490.597 735.142C521.427 741.535 551.585 721.723 557.97 690.898L623.032 376.645" stroke="#253A74" stroke-width="7" stroke-linecap="round" stroke-linejoin="round" stroke-dasharray="11.97 11.97"/>
<path d="M10.7722 836.34L10.7721 836.34C8.24156 835.45 6.29619 833.851 4.93645 831.545C3.57665 829.239 3.16841 826.784 3.71189 824.18C4.25537 821.577 5.61178 819.49 7.78075 817.921C9.94961 816.351 12.372 815.665 15.0476 815.861L19.136 816.173L21.452 812.864C21.452 812.864 21.452 812.864 21.452 812.864C22.6604 811.124 24.2562 809.842 26.2391 809.019C28.2222 808.195 30.2552 808.001 32.3378 808.436C35.2301 809.039 37.4776 810.565 39.0796 813.013C40.6816 815.46 41.1807 818.13 40.5769 821.023L36.2342 841.824C35.6304 844.716 34.1046 846.964 31.6572 848.566C29.2098 850.168 26.5396 850.667 23.6473 850.063C21.5647 849.628 19.7793 848.637 18.2914 847.089C16.8036 845.54 15.8539 843.727 15.4426 841.649L10.7722 836.34ZM10.7722 836.34L14.6438 837.69L15.4426 841.649L10.7722 836.34ZM59.9309 832.299L60.3833 830.132L65.7428 831.251L63.3977 842.483L58.0383 841.365L58.4833 839.233L58.4859 839.221L58.4736 839.218L44.6059 836.323L44.5937 836.32L44.5912 836.333L43.1436 843.267C42.143 848.059 39.6014 851.792 35.5182 854.464C31.4351 857.137 26.9975 857.973 22.2048 856.973C18.7403 856.249 15.7491 854.631 13.2309 852.116C10.7128 849.602 9.12728 846.59 8.47428 843.079L8.48721 843.077L8.46599 843.069C4.2438 841.646 1.01547 838.998 -1.21944 835.127C-3.45433 831.256 -4.11365 827.126 -3.19748 822.738C-2.28132 818.349 -0.0248479 814.829 3.57223 812.175C7.16934 809.521 11.1872 808.387 15.6264 808.771L15.6253 808.784L15.6378 808.766C17.6409 805.809 20.2992 803.683 23.6129 802.386C26.9267 801.09 30.3158 800.803 33.7803 801.526C38.573 802.527 42.3054 805.068 44.9781 809.152C47.6508 813.235 48.4869 817.672 47.4863 822.465L46.0387 829.399L46.0362 829.411L46.0484 829.414L59.9161 832.309L59.9283 832.311L59.9309 832.299Z" fill="#253A74" stroke="#253A74" stroke-width="0.025"/>
<path d="M42.4457 348.905C54.2898 348.905 63.8914 339.3 63.8914 327.452C63.8914 315.605 54.2898 306 42.4457 306C30.6016 306 21 315.605 21 327.452C21 339.3 30.6016 348.905 42.4457 348.905Z" fill="#7ECDCE"/>
<path d="M247.446 81.9047C259.29 81.9047 268.891 72.3001 268.891 60.4523C268.891 48.6045 259.29 39 247.446 39C235.602 39 226 48.6045 226 60.4523C226 72.3001 235.602 81.9047 247.446 81.9047Z" fill="#7ECDCE"/>
<path d="M338.446 660.905C350.29 660.905 359.891 651.3 359.891 639.452C359.891 627.605 350.29 618 338.446 618C326.602 618 317 627.605 317 639.452C317 651.3 326.602 660.905 338.446 660.905Z" fill="#7ECDCE"/>
<path d="M159.446 1037.9C171.29 1037.9 180.891 1028.3 180.891 1016.45C180.891 1004.6 171.29 995 159.446 995C147.602 995 138 1004.6 138 1016.45C138 1028.3 147.602 1037.9 159.446 1037.9Z" fill="#7ECDCE"/>
<mask id="mask0_313_6135" style="mask-type:alpha" maskUnits="userSpaceOnUse" x="66" y="382" width="126" height="126">
<rect x="66.8138" y="487.694" width="106.647" height="106.647" transform="rotate(-79.5563 66.8138 487.694)" fill="#FEFEFE" stroke="#253A74"/>
</mask>
<g mask="url(#mask0_313_6135)">
<path d="M139.249 487.859L139.237 487.857L139.235 487.869L137.611 496.679L97.9242 489.364C95.5015 488.917 93.5867 487.672 92.1794 485.629C90.7721 483.586 90.2918 481.353 90.7384 478.93L102.12 417.182L133.456 395.6L155.493 399.662L153.869 408.472L153.867 408.484L153.879 408.486C157.552 409.163 160.436 411.024 162.533 414.068C164.63 417.113 165.34 420.471 164.663 424.144C163.986 427.816 162.126 430.701 159.081 432.798C156.037 434.894 152.678 435.604 149.006 434.927L148.993 434.925L148.991 434.937L144.113 461.403L144.111 461.416L144.123 461.418C147.796 462.095 150.68 463.955 152.777 467C154.874 470.045 155.584 473.403 154.907 477.075C154.23 480.748 152.369 483.632 149.325 485.729C146.28 487.826 142.922 488.536 139.249 487.859ZM122.535 430.074L122.548 430.076L122.55 430.064L125.802 412.42L125.807 412.39L125.783 412.407L110.111 423.201L110.108 423.197L110.105 423.209L109.292 427.62L109.29 427.632L109.302 427.635L122.535 430.074ZM117.657 456.54L117.669 456.542L117.672 456.53L120.924 438.886L120.926 438.873L120.914 438.871L107.681 436.432L107.668 436.43L107.666 436.442L104.414 454.086L104.412 454.098L104.424 454.101L117.657 456.54ZM112.779 483.006L112.791 483.008L112.793 482.996L116.045 465.352L116.048 465.339L116.035 465.337L102.802 462.898L102.79 462.896L102.788 462.908L99.5357 480.552L99.5335 480.564L99.5458 480.566L112.779 483.006ZM130.423 486.258L130.435 486.26L130.437 486.248L131.088 482.719L131.093 482.72L131.085 482.709C129.993 481.217 129.192 479.588 128.682 477.823C128.172 476.059 128.1 474.185 128.465 472.202C128.831 470.218 129.567 468.494 130.672 467.027C131.778 465.56 133.107 464.324 134.66 463.319L134.663 463.324L134.665 463.311L140.844 429.787L140.85 429.788L140.842 429.777C139.75 428.285 138.949 426.656 138.439 424.891C137.929 423.127 137.856 421.253 138.222 419.27C138.587 417.287 139.323 415.562 140.429 414.095C141.535 412.628 142.864 411.392 144.416 410.387L144.419 410.392L144.422 410.379L145.072 406.85L145.074 406.838L145.062 406.835L136.24 405.209L136.228 405.207L136.225 405.219L121.591 484.617L121.588 484.629L121.601 484.632L130.423 486.258ZM147.212 475.657C147.497 474.11 147.204 472.704 146.333 471.438C145.461 470.173 144.252 469.398 142.705 469.113C141.158 468.827 139.751 469.121 138.486 469.992C137.221 470.863 136.445 472.073 136.16 473.62C135.875 475.167 136.168 476.574 137.039 477.839C137.911 479.104 139.12 479.879 140.667 480.165C142.214 480.45 143.621 480.157 144.886 479.285C146.152 478.414 146.927 477.204 147.212 475.657ZM156.969 422.725C157.254 421.178 156.961 419.772 156.089 418.506C155.218 417.241 154.008 416.466 152.461 416.181C150.914 415.896 149.508 416.189 148.242 417.06C146.977 417.932 146.202 419.141 145.917 420.688C145.631 422.235 145.925 423.642 146.796 424.907C147.667 426.172 148.877 426.948 150.424 427.233C151.971 427.518 153.378 427.225 154.643 426.353C155.908 425.482 156.683 424.272 156.969 422.725Z" fill="#253A74" stroke="#253A74" stroke-width="0.025"/>
</g>
<path d="M162.772 179.34L162.772 179.34C160.242 178.45 158.296 176.851 156.936 174.545C155.577 172.239 155.168 169.784 155.712 167.18C156.255 164.577 157.612 162.49 159.781 160.921C161.95 159.351 164.372 158.665 167.048 158.861L171.136 159.173L173.452 155.864C173.452 155.864 173.452 155.864 173.452 155.864C174.66 154.124 176.256 152.842 178.239 152.019C180.222 151.195 182.255 151.001 184.338 151.436C187.23 152.039 189.478 153.565 191.08 156.013C192.682 158.46 193.181 161.13 192.577 164.023L188.234 184.824C187.63 187.716 186.105 189.964 183.657 191.566C181.21 193.168 178.54 193.667 175.647 193.063C173.565 192.628 171.779 191.637 170.291 190.089C168.804 188.54 167.854 186.727 167.443 184.649L162.772 179.34ZM162.772 179.34L166.644 180.69L167.443 184.649L162.772 179.34ZM211.931 175.299L212.383 173.132L217.743 174.251L215.398 185.483L210.038 184.365L210.483 182.233L210.486 182.221L210.474 182.218L196.606 179.323L196.594 179.32L196.591 179.333L195.144 186.267C194.143 191.059 191.601 194.792 187.518 197.464C183.435 200.137 178.998 200.973 174.205 199.973C170.74 199.249 167.749 197.631 165.231 195.116C162.713 192.602 161.127 189.59 160.474 186.079L160.487 186.077L160.466 186.069C156.244 184.646 153.015 181.998 150.781 178.127C148.546 174.256 147.886 170.126 148.803 165.738C149.719 161.349 151.975 157.829 155.572 155.175C159.169 152.521 163.187 151.387 167.626 151.771L167.625 151.784L167.638 151.766C169.641 148.809 172.299 146.683 175.613 145.386C178.927 144.09 182.316 143.803 185.78 144.526C190.573 145.527 194.305 148.068 196.978 152.152C199.651 156.235 200.487 160.672 199.486 165.465L198.039 172.399L198.036 172.411L198.048 172.414L211.916 175.309L211.928 175.311L211.931 175.299Z" fill="#253A74" stroke="#253A74" stroke-width="0.025"/>
<path d="M259.772 754.34L259.772 754.34C257.242 753.45 255.296 751.851 253.936 749.545C252.577 747.239 252.168 744.784 252.712 742.18C253.255 739.577 254.612 737.49 256.781 735.921C258.95 734.351 261.372 733.665 264.048 733.861L268.136 734.173L270.452 730.864C270.452 730.864 270.452 730.864 270.452 730.864C271.66 729.124 273.256 727.842 275.239 727.019C277.222 726.195 279.255 726.001 281.338 726.436C284.23 727.039 286.478 728.565 288.08 731.013C289.682 733.46 290.181 736.13 289.577 739.023L285.234 759.824C284.63 762.716 283.105 764.964 280.657 766.566C278.21 768.168 275.54 768.667 272.647 768.063C270.565 767.628 268.779 766.637 267.291 765.089C265.804 763.54 264.854 761.727 264.443 759.649L259.772 754.34ZM259.772 754.34L263.644 755.69L264.443 759.649L259.772 754.34ZM308.931 750.299L309.383 748.132L314.743 749.251L312.398 760.483L307.038 759.365L307.483 757.233L307.486 757.221L307.474 757.218L293.606 754.323L293.594 754.32L293.591 754.333L292.144 761.267C291.143 766.059 288.601 769.792 284.518 772.464C280.435 775.137 275.998 775.973 271.205 774.973C267.74 774.249 264.749 772.631 262.231 770.116C259.713 767.602 258.127 764.59 257.474 761.079L257.487 761.077L257.466 761.069C253.244 759.646 250.015 756.998 247.781 753.127C245.546 749.256 244.886 745.126 245.803 740.738C246.719 736.349 248.975 732.829 252.572 730.175C256.169 727.521 260.187 726.387 264.626 726.771L264.625 726.784L264.638 726.766C266.641 723.809 269.299 721.683 272.613 720.386C275.927 719.09 279.316 718.803 282.78 719.526C287.573 720.527 291.305 723.068 293.978 727.152C296.651 731.235 297.487 735.672 296.486 740.465L295.039 747.399L295.036 747.411L295.048 747.414L308.916 750.309L308.928 750.311L308.931 750.299Z" fill="#253A74" stroke="#253A74" stroke-width="0.025"/>
</g>
<defs>
<clipPath id="clip0_313_6135">
<rect width="360" height="1237" fill="white"/>
</clipPath>
</defs>
</svg>
