<svg width="1422" height="526" viewBox="0 0 1422 526" fill="none" xmlns="http://www.w3.org/2000/svg">
<g clip-path="url(#clip0_382_22)">
<path d="M5.23608 280.329L11.1629 277.23" stroke="#253A74" stroke-width="7" stroke-linecap="round" stroke-linejoin="round"/>
<path d="M22.9832 271.068L460.03 42.9823C499.969 22.1429 549.233 37.6332 570.066 77.5735C590.899 117.525 575.413 166.804 535.485 187.643L332.748 293.445C292.809 314.285 277.335 363.564 298.168 403.515C319.001 443.467 368.265 458.946 408.204 438.106L1023.16 117.18C1063.09 96.3401 1112.36 111.83 1133.19 151.771C1154.02 191.711 1138.54 241.001 1098.61 261.841L932.359 348.597C892.42 369.437 876.945 418.716 897.778 458.667C918.611 498.619 967.875 514.098 1007.81 493.258L1414.96 280.786" stroke="#253A74" stroke-width="7" stroke-linecap="round" stroke-linejoin="round" stroke-dasharray="11.97 11.97"/>
<path d="M1420.85 277.698L1426.78 274.611" stroke="#253A74" stroke-width="7" stroke-linecap="round" stroke-linejoin="round"/>
<path d="M333.383 129.828C345.227 129.828 354.829 120.224 354.829 108.376C354.829 96.5284 345.227 86.9238 333.383 86.9238C321.539 86.9238 311.938 96.5284 311.938 108.376C311.938 120.224 321.539 129.828 333.383 129.828Z" fill="#7ECDCE"/>
<path d="M949.46 177.747C961.304 177.747 970.905 168.143 970.905 156.295C970.905 144.447 961.304 134.843 949.46 134.843C937.616 134.843 928.014 144.447 928.014 156.295C928.014 168.143 937.616 177.747 949.46 177.747Z" fill="#7ECDCE"/>
<path d="M456.487 430.161C468.331 430.161 477.933 420.556 477.933 408.708C477.933 396.86 468.331 387.256 456.487 387.256C444.643 387.256 435.041 396.86 435.041 408.708C435.041 420.556 444.643 430.161 456.487 430.161Z" fill="#7ECDCE"/>
<path d="M1082.03 474.18C1093.88 474.18 1103.48 464.576 1103.48 452.728C1103.48 440.88 1093.88 431.275 1082.03 431.275C1070.19 431.275 1060.59 440.88 1060.59 452.728C1060.59 464.576 1070.19 474.18 1082.03 474.18Z" fill="#7ECDCE"/>
<path d="M421.472 483V466.2H429.104C430.928 466.2 432.536 466.552 433.928 467.256C435.32 467.944 436.408 468.912 437.192 470.16C437.976 471.408 438.368 472.888 438.368 474.6C438.368 476.296 437.976 477.776 437.192 479.04C436.408 480.288 435.32 481.264 433.928 481.968C432.536 482.656 430.928 483 429.104 483H421.472ZM425.36 479.808H428.912C430.032 479.808 431 479.6 431.816 479.184C432.648 478.752 433.288 478.144 433.736 477.36C434.2 476.576 434.432 475.656 434.432 474.6C434.432 473.528 434.2 472.608 433.736 471.84C433.288 471.056 432.648 470.456 431.816 470.04C431 469.608 430.032 469.392 428.912 469.392H425.36V479.808ZM441.037 483V470.088H444.781V483H441.037ZM442.909 468.288C442.221 468.288 441.661 468.088 441.229 467.688C440.797 467.288 440.581 466.792 440.581 466.2C440.581 465.608 440.797 465.112 441.229 464.712C441.661 464.312 442.221 464.112 442.909 464.112C443.597 464.112 444.157 464.304 444.589 464.688C445.021 465.056 445.237 465.536 445.237 466.128C445.237 466.752 445.021 467.272 444.589 467.688C444.173 468.088 443.613 468.288 442.909 468.288ZM451.759 483L446.335 470.088H450.199L454.711 481.2H452.791L457.471 470.088H461.071L455.623 483H451.759ZM462.599 483V470.088H466.343V483H462.599ZM464.471 468.288C463.783 468.288 463.223 468.088 462.791 467.688C462.359 467.288 462.143 466.792 462.143 466.2C462.143 465.608 462.359 465.112 462.791 464.712C463.223 464.312 463.783 464.112 464.471 464.112C465.159 464.112 465.719 464.304 466.151 464.688C466.583 465.056 466.799 465.536 466.799 466.128C466.799 466.752 466.583 467.272 466.151 467.688C465.735 468.088 465.175 468.288 464.471 468.288ZM475.362 483.192C474.146 483.192 473.05 482.92 472.074 482.376C471.098 481.816 470.322 481.04 469.746 480.048C469.186 479.056 468.906 477.888 468.906 476.544C468.906 475.184 469.186 474.008 469.746 473.016C470.322 472.024 471.098 471.256 472.074 470.712C473.05 470.168 474.146 469.896 475.362 469.896C476.45 469.896 477.402 470.136 478.218 470.616C479.034 471.096 479.666 471.824 480.114 472.8C480.562 473.776 480.786 475.024 480.786 476.544C480.786 478.048 480.57 479.296 480.138 480.288C479.706 481.264 479.082 481.992 478.266 482.472C477.466 482.952 476.498 483.192 475.362 483.192ZM476.01 480.12C476.618 480.12 477.17 479.976 477.666 479.688C478.162 479.4 478.554 478.992 478.842 478.464C479.146 477.92 479.298 477.28 479.298 476.544C479.298 475.792 479.146 475.152 478.842 474.624C478.554 474.096 478.162 473.688 477.666 473.4C477.17 473.112 476.618 472.968 476.01 472.968C475.386 472.968 474.826 473.112 474.33 473.4C473.834 473.688 473.434 474.096 473.13 474.624C472.842 475.152 472.698 475.792 472.698 476.544C472.698 477.28 472.842 477.92 473.13 478.464C473.434 478.992 473.834 479.4 474.33 479.688C474.826 479.976 475.386 480.12 476.01 480.12ZM479.394 483V480.36L479.466 476.52L479.226 472.704V465.192H482.97V483H479.394ZM492.843 483.192C491.371 483.192 490.075 482.904 488.955 482.328C487.851 481.752 486.995 480.968 486.387 479.976C485.779 478.968 485.475 477.824 485.475 476.544C485.475 475.248 485.771 474.104 486.363 473.112C486.971 472.104 487.795 471.32 488.835 470.76C489.875 470.184 491.051 469.896 492.363 469.896C493.627 469.896 494.763 470.168 495.771 470.712C496.795 471.24 497.603 472.008 498.195 473.016C498.787 474.008 499.083 475.2 499.083 476.592C499.083 476.736 499.075 476.904 499.059 477.096C499.043 477.272 499.027 477.44 499.011 477.6H488.523V475.416H497.043L495.603 476.064C495.603 475.392 495.467 474.808 495.195 474.312C494.923 473.816 494.547 473.432 494.067 473.16C493.587 472.872 493.027 472.728 492.387 472.728C491.747 472.728 491.179 472.872 490.683 473.16C490.203 473.432 489.827 473.824 489.555 474.336C489.283 474.832 489.147 475.424 489.147 476.112V476.688C489.147 477.392 489.299 478.016 489.603 478.56C489.923 479.088 490.363 479.496 490.923 479.784C491.499 480.056 492.171 480.192 492.939 480.192C493.627 480.192 494.227 480.088 494.739 479.88C495.267 479.672 495.747 479.36 496.179 478.944L498.171 481.104C497.579 481.776 496.835 482.296 495.939 482.664C495.043 483.016 494.011 483.192 492.843 483.192ZM514.445 487.848C513.229 487.848 512.053 487.696 510.917 487.392C509.797 487.104 508.861 486.664 508.109 486.072L509.597 483.384C510.141 483.832 510.829 484.184 511.661 484.44C512.509 484.712 513.341 484.848 514.157 484.848C515.485 484.848 516.445 484.552 517.037 483.96C517.645 483.368 517.949 482.488 517.949 481.32V479.376L518.189 476.136L518.141 472.872V470.088H521.693V480.84C521.693 483.24 521.069 485.008 519.821 486.144C518.573 487.28 516.781 487.848 514.445 487.848ZM513.869 482.376C512.669 482.376 511.581 482.12 510.605 481.608C509.645 481.08 508.869 480.352 508.277 479.424C507.701 478.48 507.413 477.384 507.413 476.136C507.413 474.872 507.701 473.776 508.277 472.848C508.869 471.904 509.645 471.176 510.605 470.664C511.581 470.152 512.669 469.896 513.869 469.896C514.957 469.896 515.917 470.12 516.749 470.568C517.581 471 518.229 471.68 518.693 472.608C519.157 473.52 519.389 474.696 519.389 476.136C519.389 477.56 519.157 478.736 518.693 479.664C518.229 480.576 517.581 481.256 516.749 481.704C515.917 482.152 514.957 482.376 513.869 482.376ZM514.613 479.304C515.269 479.304 515.853 479.176 516.365 478.92C516.877 478.648 517.277 478.272 517.565 477.792C517.853 477.312 517.997 476.76 517.997 476.136C517.997 475.496 517.853 474.944 517.565 474.48C517.277 474 516.877 473.632 516.365 473.376C515.853 473.104 515.269 472.968 514.613 472.968C513.957 472.968 513.373 473.104 512.861 473.376C512.349 473.632 511.941 474 511.637 474.48C511.349 474.944 511.205 475.496 511.205 476.136C511.205 476.76 511.349 477.312 511.637 477.792C511.941 478.272 512.349 478.648 512.861 478.92C513.373 479.176 513.957 479.304 514.613 479.304ZM533.097 483V480.48L532.857 479.928V475.416C532.857 474.616 532.609 473.992 532.113 473.544C531.633 473.096 530.889 472.872 529.881 472.872C529.193 472.872 528.513 472.984 527.841 473.208C527.185 473.416 526.625 473.704 526.161 474.072L524.817 471.456C525.521 470.96 526.369 470.576 527.361 470.304C528.353 470.032 529.361 469.896 530.385 469.896C532.353 469.896 533.881 470.36 534.969 471.288C536.057 472.216 536.601 473.664 536.601 475.632V483H533.097ZM529.161 483.192C528.153 483.192 527.289 483.024 526.569 482.688C525.849 482.336 525.297 481.864 524.913 481.272C524.529 480.68 524.337 480.016 524.337 479.28C524.337 478.512 524.521 477.84 524.889 477.264C525.273 476.688 525.873 476.24 526.689 475.92C527.505 475.584 528.569 475.416 529.881 475.416H533.313V477.6H530.289C529.409 477.6 528.801 477.744 528.465 478.032C528.145 478.32 527.985 478.68 527.985 479.112C527.985 479.592 528.169 479.976 528.537 480.264C528.921 480.536 529.441 480.672 530.097 480.672C530.721 480.672 531.281 480.528 531.777 480.24C532.273 479.936 532.633 479.496 532.857 478.92L533.433 480.648C533.161 481.48 532.665 482.112 531.945 482.544C531.225 482.976 530.297 483.192 529.161 483.192ZM544.334 483.192C543.23 483.192 542.166 483.064 541.142 482.808C540.134 482.536 539.334 482.2 538.742 481.8L539.99 479.112C540.582 479.48 541.278 479.784 542.078 480.024C542.894 480.248 543.694 480.36 544.478 480.36C545.342 480.36 545.95 480.256 546.302 480.048C546.67 479.84 546.854 479.552 546.854 479.184C546.854 478.88 546.71 478.656 546.422 478.512C546.15 478.352 545.782 478.232 545.318 478.152C544.854 478.072 544.342 477.992 543.782 477.912C543.238 477.832 542.686 477.728 542.126 477.6C541.566 477.456 541.054 477.248 540.59 476.976C540.126 476.704 539.75 476.336 539.462 475.872C539.19 475.408 539.054 474.808 539.054 474.072C539.054 473.256 539.286 472.536 539.75 471.912C540.23 471.288 540.918 470.8 541.814 470.448C542.71 470.08 543.782 469.896 545.03 469.896C545.91 469.896 546.806 469.992 547.718 470.184C548.63 470.376 549.39 470.656 549.998 471.024L548.75 473.688C548.126 473.32 547.494 473.072 546.854 472.944C546.23 472.8 545.622 472.728 545.03 472.728C544.198 472.728 543.59 472.84 543.206 473.064C542.822 473.288 542.63 473.576 542.63 473.928C542.63 474.248 542.766 474.488 543.038 474.648C543.326 474.808 543.702 474.936 544.166 475.032C544.63 475.128 545.134 475.216 545.678 475.296C546.238 475.36 546.798 475.464 547.358 475.608C547.918 475.752 548.422 475.96 548.87 476.232C549.334 476.488 549.71 476.848 549.998 477.312C550.286 477.76 550.43 478.352 550.43 479.088C550.43 479.888 550.19 480.6 549.71 481.224C549.23 481.832 548.534 482.312 547.622 482.664C546.726 483.016 545.63 483.192 544.334 483.192ZM558.02 483.192C556.5 483.192 555.316 482.808 554.468 482.04C553.62 481.256 553.196 480.096 553.196 478.56V467.232H556.94V478.512C556.94 479.056 557.084 479.48 557.372 479.784C557.66 480.072 558.052 480.216 558.548 480.216C559.14 480.216 559.644 480.056 560.06 479.736L561.068 482.376C560.684 482.648 560.22 482.856 559.676 483C559.148 483.128 558.596 483.192 558.02 483.192ZM551.204 473.256V470.376H560.156V473.256H551.204ZM568.915 483.192C567.539 483.192 566.315 482.904 565.243 482.328C564.187 481.752 563.347 480.968 562.723 479.976C562.115 478.968 561.811 477.824 561.811 476.544C561.811 475.248 562.115 474.104 562.723 473.112C563.347 472.104 564.187 471.32 565.243 470.76C566.315 470.184 567.539 469.896 568.915 469.896C570.275 469.896 571.491 470.184 572.563 470.76C573.635 471.32 574.475 472.096 575.083 473.088C575.691 474.08 575.995 475.232 575.995 476.544C575.995 477.824 575.691 478.968 575.083 479.976C574.475 480.968 573.635 481.752 572.563 482.328C571.491 482.904 570.275 483.192 568.915 483.192ZM568.915 480.12C569.539 480.12 570.099 479.976 570.595 479.688C571.091 479.4 571.483 478.992 571.771 478.464C572.059 477.92 572.203 477.28 572.203 476.544C572.203 475.792 572.059 475.152 571.771 474.624C571.483 474.096 571.091 473.688 570.595 473.4C570.099 473.112 569.539 472.968 568.915 472.968C568.291 472.968 567.731 473.112 567.235 473.4C566.739 473.688 566.339 474.096 566.035 474.624C565.747 475.152 565.603 475.792 565.603 476.544C565.603 477.28 565.747 477.92 566.035 478.464C566.339 478.992 566.739 479.4 567.235 479.688C567.731 479.976 568.291 480.12 568.915 480.12ZM582.842 483.192C581.738 483.192 580.674 483.064 579.65 482.808C578.642 482.536 577.842 482.2 577.25 481.8L578.498 479.112C579.09 479.48 579.786 479.784 580.586 480.024C581.402 480.248 582.202 480.36 582.986 480.36C583.85 480.36 584.458 480.256 584.81 480.048C585.178 479.84 585.362 479.552 585.362 479.184C585.362 478.88 585.218 478.656 584.93 478.512C584.658 478.352 584.29 478.232 583.826 478.152C583.362 478.072 582.85 477.992 582.29 477.912C581.746 477.832 581.194 477.728 580.634 477.6C580.074 477.456 579.562 477.248 579.098 476.976C578.634 476.704 578.258 476.336 577.97 475.872C577.698 475.408 577.562 474.808 577.562 474.072C577.562 473.256 577.794 472.536 578.258 471.912C578.738 471.288 579.426 470.8 580.322 470.448C581.218 470.08 582.29 469.896 583.538 469.896C584.418 469.896 585.314 469.992 586.226 470.184C587.138 470.376 587.898 470.656 588.506 471.024L587.258 473.688C586.634 473.32 586.002 473.072 585.362 472.944C584.738 472.8 584.13 472.728 583.538 472.728C582.706 472.728 582.098 472.84 581.714 473.064C581.33 473.288 581.138 473.576 581.138 473.928C581.138 474.248 581.274 474.488 581.546 474.648C581.834 474.808 582.21 474.936 582.674 475.032C583.138 475.128 583.642 475.216 584.186 475.296C584.746 475.36 585.306 475.464 585.866 475.608C586.426 475.752 586.93 475.96 587.378 476.232C587.842 476.488 588.218 476.848 588.506 477.312C588.794 477.76 588.938 478.352 588.938 479.088C588.938 479.888 588.698 480.6 588.218 481.224C587.738 481.832 587.042 482.312 586.13 482.664C585.234 483.016 584.138 483.192 582.842 483.192Z" fill="#87549F"/>
<path d="M887.869 63.76H895.933V66.88H887.869V63.76ZM888.157 73H884.269V56.2H896.965V59.32H888.157V73ZM906.878 73V70.48L906.638 69.928V65.416C906.638 64.616 906.39 63.992 905.894 63.544C905.414 63.096 904.67 62.872 903.662 62.872C902.974 62.872 902.294 62.984 901.622 63.208C900.966 63.416 900.406 63.704 899.942 64.072L898.598 61.456C899.302 60.96 900.15 60.576 901.142 60.304C902.134 60.032 903.142 59.896 904.166 59.896C906.134 59.896 907.662 60.36 908.75 61.288C909.838 62.216 910.382 63.664 910.382 65.632V73H906.878ZM902.942 73.192C901.934 73.192 901.07 73.024 900.35 72.688C899.63 72.336 899.078 71.864 898.694 71.272C898.31 70.68 898.118 70.016 898.118 69.28C898.118 68.512 898.302 67.84 898.67 67.264C899.054 66.688 899.654 66.24 900.47 65.92C901.286 65.584 902.35 65.416 903.662 65.416H907.094V67.6H904.07C903.19 67.6 902.582 67.744 902.246 68.032C901.926 68.32 901.766 68.68 901.766 69.112C901.766 69.592 901.95 69.976 902.318 70.264C902.702 70.536 903.222 70.672 903.878 70.672C904.502 70.672 905.062 70.528 905.558 70.24C906.054 69.936 906.414 69.496 906.638 68.92L907.214 70.648C906.942 71.48 906.446 72.112 905.726 72.544C905.006 72.976 904.078 73.192 902.942 73.192ZM920.105 73.192C918.713 73.192 917.473 72.912 916.385 72.352C915.297 71.776 914.441 70.984 913.817 69.976C913.209 68.968 912.905 67.824 912.905 66.544C912.905 65.248 913.209 64.104 913.817 63.112C914.441 62.104 915.297 61.32 916.385 60.76C917.473 60.184 918.713 59.896 920.105 59.896C921.465 59.896 922.649 60.184 923.657 60.76C924.665 61.32 925.409 62.128 925.889 63.184L922.985 64.744C922.649 64.136 922.225 63.688 921.713 63.4C921.217 63.112 920.673 62.968 920.081 62.968C919.441 62.968 918.865 63.112 918.353 63.4C917.841 63.688 917.433 64.096 917.129 64.624C916.841 65.152 916.697 65.792 916.697 66.544C916.697 67.296 916.841 67.936 917.129 68.464C917.433 68.992 917.841 69.4 918.353 69.688C918.865 69.976 919.441 70.12 920.081 70.12C920.673 70.12 921.217 69.984 921.713 69.712C922.225 69.424 922.649 68.968 922.985 68.344L925.889 69.928C925.409 70.968 924.665 71.776 923.657 72.352C922.649 72.912 921.465 73.192 920.105 73.192ZM927.974 73V60.088H931.718V73H927.974ZM929.846 58.288C929.158 58.288 928.598 58.088 928.166 57.688C927.734 57.288 927.518 56.792 927.518 56.2C927.518 55.608 927.734 55.112 928.166 54.712C928.598 54.312 929.158 54.112 929.846 54.112C930.534 54.112 931.094 54.304 931.526 54.688C931.958 55.056 932.174 55.536 932.174 56.128C932.174 56.752 931.958 57.272 931.526 57.688C931.11 58.088 930.55 58.288 929.846 58.288ZM935.193 73V55.192H938.937V73H935.193ZM942.412 73V60.088H946.156V73H942.412ZM944.284 58.288C943.596 58.288 943.036 58.088 942.604 57.688C942.172 57.288 941.956 56.792 941.956 56.2C941.956 55.608 942.172 55.112 942.604 54.712C943.036 54.312 943.596 54.112 944.284 54.112C944.972 54.112 945.532 54.304 945.964 54.688C946.396 55.056 946.612 55.536 946.612 56.128C946.612 56.752 946.396 57.272 945.964 57.688C945.548 58.088 944.988 58.288 944.284 58.288ZM954.91 73.192C953.39 73.192 952.206 72.808 951.358 72.04C950.51 71.256 950.086 70.096 950.086 68.56V57.232H953.83V68.512C953.83 69.056 953.974 69.48 954.262 69.784C954.55 70.072 954.942 70.216 955.438 70.216C956.03 70.216 956.534 70.056 956.95 69.736L957.958 72.376C957.574 72.648 957.11 72.856 956.566 73C956.038 73.128 955.486 73.192 954.91 73.192ZM948.094 63.256V60.376H957.046V63.256H948.094ZM967.98 73V70.48L967.74 69.928V65.416C967.74 64.616 967.492 63.992 966.996 63.544C966.516 63.096 965.772 62.872 964.764 62.872C964.076 62.872 963.396 62.984 962.724 63.208C962.068 63.416 961.508 63.704 961.044 64.072L959.7 61.456C960.404 60.96 961.252 60.576 962.244 60.304C963.236 60.032 964.244 59.896 965.268 59.896C967.236 59.896 968.764 60.36 969.852 61.288C970.94 62.216 971.484 63.664 971.484 65.632V73H967.98ZM964.044 73.192C963.036 73.192 962.172 73.024 961.452 72.688C960.732 72.336 960.18 71.864 959.796 71.272C959.412 70.68 959.22 70.016 959.22 69.28C959.22 68.512 959.404 67.84 959.772 67.264C960.156 66.688 960.756 66.24 961.572 65.92C962.388 65.584 963.452 65.416 964.764 65.416H968.196V67.6H965.172C964.292 67.6 963.684 67.744 963.348 68.032C963.028 68.32 962.868 68.68 962.868 69.112C962.868 69.592 963.052 69.976 963.42 70.264C963.804 70.536 964.324 70.672 964.98 70.672C965.604 70.672 966.164 70.528 966.66 70.24C967.156 69.936 967.516 69.496 967.74 68.92L968.316 70.648C968.044 71.48 967.548 72.112 966.828 72.544C966.108 72.976 965.18 73.192 964.044 73.192ZM981.669 73V55.192H985.413V73H981.669ZM996.808 73V70.48L996.568 69.928V65.416C996.568 64.616 996.32 63.992 995.824 63.544C995.344 63.096 994.6 62.872 993.592 62.872C992.904 62.872 992.224 62.984 991.552 63.208C990.896 63.416 990.336 63.704 989.872 64.072L988.528 61.456C989.232 60.96 990.08 60.576 991.072 60.304C992.064 60.032 993.072 59.896 994.096 59.896C996.064 59.896 997.592 60.36 998.68 61.288C999.768 62.216 1000.31 63.664 1000.31 65.632V73H996.808ZM992.872 73.192C991.864 73.192 991 73.024 990.28 72.688C989.56 72.336 989.008 71.864 988.624 71.272C988.24 70.68 988.048 70.016 988.048 69.28C988.048 68.512 988.232 67.84 988.6 67.264C988.984 66.688 989.584 66.24 990.4 65.92C991.216 65.584 992.28 65.416 993.592 65.416H997.024V67.6H994C993.12 67.6 992.512 67.744 992.176 68.032C991.856 68.32 991.696 68.68 991.696 69.112C991.696 69.592 991.88 69.976 992.248 70.264C992.632 70.536 993.152 70.672 993.808 70.672C994.432 70.672 994.992 70.528 995.488 70.24C995.984 69.936 996.344 69.496 996.568 68.92L997.144 70.648C996.872 71.48 996.376 72.112 995.656 72.544C994.936 72.976 994.008 73.192 992.872 73.192ZM1008.04 73.192C1006.94 73.192 1005.88 73.064 1004.85 72.808C1003.84 72.536 1003.04 72.2 1002.45 71.8L1003.7 69.112C1004.29 69.48 1004.99 69.784 1005.79 70.024C1006.6 70.248 1007.4 70.36 1008.19 70.36C1009.05 70.36 1009.66 70.256 1010.01 70.048C1010.38 69.84 1010.56 69.552 1010.56 69.184C1010.56 68.88 1010.42 68.656 1010.13 68.512C1009.86 68.352 1009.49 68.232 1009.03 68.152C1008.56 68.072 1008.05 67.992 1007.49 67.912C1006.95 67.832 1006.4 67.728 1005.84 67.6C1005.28 67.456 1004.76 67.248 1004.3 66.976C1003.84 66.704 1003.46 66.336 1003.17 65.872C1002.9 65.408 1002.76 64.808 1002.76 64.072C1002.76 63.256 1003 62.536 1003.46 61.912C1003.94 61.288 1004.63 60.8 1005.52 60.448C1006.42 60.08 1007.49 59.896 1008.74 59.896C1009.62 59.896 1010.52 59.992 1011.43 60.184C1012.34 60.376 1013.1 60.656 1013.71 61.024L1012.46 63.688C1011.84 63.32 1011.2 63.072 1010.56 62.944C1009.94 62.8 1009.33 62.728 1008.74 62.728C1007.91 62.728 1007.3 62.84 1006.92 63.064C1006.53 63.288 1006.34 63.576 1006.34 63.928C1006.34 64.248 1006.48 64.488 1006.75 64.648C1007.04 64.808 1007.41 64.936 1007.88 65.032C1008.34 65.128 1008.84 65.216 1009.39 65.296C1009.95 65.36 1010.51 65.464 1011.07 65.608C1011.63 65.752 1012.13 65.96 1012.58 66.232C1013.04 66.488 1013.42 66.848 1013.71 67.312C1014 67.76 1014.14 68.352 1014.14 69.088C1014.14 69.888 1013.9 70.6 1013.42 71.224C1012.94 71.832 1012.24 72.312 1011.33 72.664C1010.44 73.016 1009.34 73.192 1008.04 73.192ZM887.287 102V89.088H890.863V92.736L890.359 91.68C890.743 90.768 891.359 90.08 892.207 89.616C893.055 89.136 894.087 88.896 895.303 88.896V92.352C895.143 92.336 894.999 92.328 894.871 92.328C894.743 92.312 894.607 92.304 894.463 92.304C893.439 92.304 892.607 92.6 891.967 93.192C891.343 93.768 891.031 94.672 891.031 95.904V102H887.287ZM903.843 102.192C902.371 102.192 901.075 101.904 899.955 101.328C898.851 100.752 897.995 99.968 897.387 98.976C896.779 97.968 896.475 96.824 896.475 95.544C896.475 94.248 896.771 93.104 897.363 92.112C897.971 91.104 898.795 90.32 899.835 89.76C900.875 89.184 902.051 88.896 903.363 88.896C904.627 88.896 905.763 89.168 906.771 89.712C907.795 90.24 908.603 91.008 909.195 92.016C909.787 93.008 910.083 94.2 910.083 95.592C910.083 95.736 910.075 95.904 910.059 96.096C910.043 96.272 910.027 96.44 910.011 96.6H899.523V94.416H908.043L906.603 95.064C906.603 94.392 906.467 93.808 906.195 93.312C905.923 92.816 905.547 92.432 905.067 92.16C904.587 91.872 904.027 91.728 903.387 91.728C902.747 91.728 902.179 91.872 901.683 92.16C901.203 92.432 900.827 92.824 900.555 93.336C900.283 93.832 900.147 94.424 900.147 95.112V95.688C900.147 96.392 900.299 97.016 900.603 97.56C900.923 98.088 901.363 98.496 901.923 98.784C902.499 99.056 903.171 99.192 903.939 99.192C904.627 99.192 905.227 99.088 905.739 98.88C906.267 98.672 906.747 98.36 907.179 97.944L909.171 100.104C908.579 100.776 907.835 101.296 906.939 101.664C906.043 102.016 905.011 102.192 903.843 102.192ZM918.024 102.192C916.952 102.192 915.992 101.984 915.144 101.568C914.312 101.152 913.664 100.52 913.2 99.672C912.736 98.808 912.504 97.712 912.504 96.384V89.088H916.248V95.832C916.248 96.904 916.472 97.696 916.92 98.208C917.384 98.704 918.032 98.952 918.864 98.952C919.44 98.952 919.952 98.832 920.4 98.592C920.848 98.336 921.2 97.952 921.456 97.44C921.712 96.912 921.84 96.256 921.84 95.472V89.088H925.584V102H922.032V98.448L922.68 99.48C922.248 100.376 921.608 101.056 920.76 101.52C919.928 101.968 919.016 102.192 918.024 102.192ZM936.9 88.896C937.924 88.896 938.836 89.104 939.636 89.52C940.452 89.92 941.092 90.544 941.556 91.392C942.02 92.224 942.252 93.296 942.252 94.608V102H938.508V95.184C938.508 94.144 938.276 93.376 937.812 92.88C937.364 92.384 936.724 92.136 935.892 92.136C935.3 92.136 934.764 92.264 934.284 92.52C933.82 92.76 933.452 93.136 933.18 93.648C932.924 94.16 932.796 94.816 932.796 95.616V102H929.052V89.088H932.628V92.664L931.956 91.584C932.42 90.72 933.084 90.056 933.948 89.592C934.812 89.128 935.796 88.896 936.9 88.896ZM945.646 102V89.088H949.39V102H945.646ZM947.518 87.288C946.83 87.288 946.27 87.088 945.838 86.688C945.406 86.288 945.19 85.792 945.19 85.2C945.19 84.608 945.406 84.112 945.838 83.712C946.27 83.312 946.83 83.112 947.518 83.112C948.206 83.112 948.766 83.304 949.198 83.688C949.63 84.056 949.846 84.536 949.846 85.128C949.846 85.752 949.63 86.272 949.198 86.688C948.782 87.088 948.222 87.288 947.518 87.288ZM959.009 102.192C957.633 102.192 956.409 101.904 955.337 101.328C954.281 100.752 953.441 99.968 952.817 98.976C952.209 97.968 951.905 96.824 951.905 95.544C951.905 94.248 952.209 93.104 952.817 92.112C953.441 91.104 954.281 90.32 955.337 89.76C956.409 89.184 957.633 88.896 959.009 88.896C960.369 88.896 961.585 89.184 962.657 89.76C963.729 90.32 964.569 91.096 965.177 92.088C965.785 93.08 966.089 94.232 966.089 95.544C966.089 96.824 965.785 97.968 965.177 98.976C964.569 99.968 963.729 100.752 962.657 101.328C961.585 101.904 960.369 102.192 959.009 102.192ZM959.009 99.12C959.633 99.12 960.193 98.976 960.689 98.688C961.185 98.4 961.577 97.992 961.865 97.464C962.153 96.92 962.297 96.28 962.297 95.544C962.297 94.792 962.153 94.152 961.865 93.624C961.577 93.096 961.185 92.688 960.689 92.4C960.193 92.112 959.633 91.968 959.009 91.968C958.385 91.968 957.825 92.112 957.329 92.4C956.833 92.688 956.433 93.096 956.129 93.624C955.841 94.152 955.697 94.792 955.697 95.544C955.697 96.28 955.841 96.92 956.129 97.464C956.433 97.992 956.833 98.4 957.329 98.688C957.825 98.976 958.385 99.12 959.009 99.12ZM976.439 88.896C977.463 88.896 978.375 89.104 979.175 89.52C979.991 89.92 980.631 90.544 981.095 91.392C981.559 92.224 981.791 93.296 981.791 94.608V102H978.047V95.184C978.047 94.144 977.815 93.376 977.351 92.88C976.903 92.384 976.263 92.136 975.431 92.136C974.839 92.136 974.303 92.264 973.823 92.52C973.359 92.76 972.991 93.136 972.719 93.648C972.463 94.16 972.335 94.816 972.335 95.616V102H968.591V89.088H972.167V92.664L971.495 91.584C971.959 90.72 972.623 90.056 973.487 89.592C974.351 89.128 975.335 88.896 976.439 88.896ZM991.687 102.192C990.215 102.192 988.919 101.904 987.799 101.328C986.695 100.752 985.839 99.968 985.231 98.976C984.623 97.968 984.319 96.824 984.319 95.544C984.319 94.248 984.615 93.104 985.207 92.112C985.815 91.104 986.639 90.32 987.679 89.76C988.719 89.184 989.895 88.896 991.207 88.896C992.471 88.896 993.607 89.168 994.615 89.712C995.639 90.24 996.447 91.008 997.039 92.016C997.631 93.008 997.927 94.2 997.927 95.592C997.927 95.736 997.919 95.904 997.903 96.096C997.887 96.272 997.871 96.44 997.855 96.6H987.367V94.416H995.887L994.447 95.064C994.447 94.392 994.311 93.808 994.039 93.312C993.767 92.816 993.391 92.432 992.911 92.16C992.431 91.872 991.871 91.728 991.231 91.728C990.591 91.728 990.023 91.872 989.527 92.16C989.047 92.432 988.671 92.824 988.399 93.336C988.127 93.832 987.991 94.424 987.991 95.112V95.688C987.991 96.392 988.143 97.016 988.447 97.56C988.767 98.088 989.207 98.496 989.767 98.784C990.343 99.056 991.015 99.192 991.783 99.192C992.471 99.192 993.071 99.088 993.583 98.88C994.111 98.672 994.591 98.36 995.023 97.944L997.015 100.104C996.423 100.776 995.679 101.296 994.783 101.664C993.887 102.016 992.855 102.192 991.687 102.192ZM1004.76 102.192C1003.66 102.192 1002.6 102.064 1001.57 101.808C1000.56 101.536 999.763 101.2 999.171 100.8L1000.42 98.112C1001.01 98.48 1001.71 98.784 1002.51 99.024C1003.32 99.248 1004.12 99.36 1004.91 99.36C1005.77 99.36 1006.38 99.256 1006.73 99.048C1007.1 98.84 1007.28 98.552 1007.28 98.184C1007.28 97.88 1007.14 97.656 1006.85 97.512C1006.58 97.352 1006.21 97.232 1005.75 97.152C1005.28 97.072 1004.77 96.992 1004.21 96.912C1003.67 96.832 1003.12 96.728 1002.56 96.6C1002 96.456 1001.48 96.248 1001.02 95.976C1000.56 95.704 1000.18 95.336 999.891 94.872C999.619 94.408 999.483 93.808 999.483 93.072C999.483 92.256 999.715 91.536 1000.18 90.912C1000.66 90.288 1001.35 89.8 1002.24 89.448C1003.14 89.08 1004.21 88.896 1005.46 88.896C1006.34 88.896 1007.24 88.992 1008.15 89.184C1009.06 89.376 1009.82 89.656 1010.43 90.024L1009.18 92.688C1008.56 92.32 1007.92 92.072 1007.28 91.944C1006.66 91.8 1006.05 91.728 1005.46 91.728C1004.63 91.728 1004.02 91.84 1003.64 92.064C1003.25 92.288 1003.06 92.576 1003.06 92.928C1003.06 93.248 1003.2 93.488 1003.47 93.648C1003.76 93.808 1004.13 93.936 1004.6 94.032C1005.06 94.128 1005.56 94.216 1006.11 94.296C1006.67 94.36 1007.23 94.464 1007.79 94.608C1008.35 94.752 1008.85 94.96 1009.3 95.232C1009.76 95.488 1010.14 95.848 1010.43 96.312C1010.72 96.76 1010.86 97.352 1010.86 98.088C1010.86 98.888 1010.62 99.6 1010.14 100.224C1009.66 100.832 1008.96 101.312 1008.05 101.664C1007.16 102.016 1006.06 102.192 1004.76 102.192Z" fill="#87549F"/>
<mask id="mask0_382_22" style="mask-type:alpha" maskUnits="userSpaceOnUse" x="529" y="230" width="145" height="145">
<rect x="530.045" y="278.653" width="106.647" height="106.647" transform="rotate(-26.3004 530.045 278.653)" fill="#FEFEFE" stroke="#253A74"/>
</mask>
<g mask="url(#mask0_382_22)">
<path d="M573.246 336.796L573.24 336.784L573.229 336.79L565.198 340.759L547.318 304.581C546.226 302.373 546.078 300.094 546.874 297.744C547.669 295.394 549.171 293.673 551.38 292.581L607.669 264.761L643.709 276.96L653.638 297.049L645.607 301.018L645.596 301.023L645.601 301.035C647.256 304.383 647.491 307.807 646.305 311.309C645.12 314.81 642.854 317.388 639.506 319.043C636.158 320.698 632.734 320.932 629.232 319.747C625.73 318.562 623.152 316.295 621.498 312.948L621.492 312.936L621.481 312.942L597.355 324.866L597.344 324.871L597.349 324.883C599.004 328.231 599.239 331.655 598.053 335.157C596.868 338.658 594.602 341.236 591.254 342.891C587.906 344.546 584.482 344.78 580.98 343.595C577.478 342.41 574.901 340.143 573.246 336.796ZM609.551 288.833L609.557 288.844L609.568 288.838L625.652 280.889L625.679 280.876L625.65 280.866L607.626 274.765L607.627 274.76L607.616 274.766L603.595 276.753L603.584 276.759L603.589 276.77L609.551 288.833ZM585.425 300.757L585.431 300.768L585.442 300.762L601.526 292.813L601.537 292.808L601.532 292.796L595.57 280.733L595.564 280.722L595.553 280.728L579.469 288.677L579.458 288.683L579.463 288.694L585.425 300.757ZM561.299 312.681L561.305 312.692L561.316 312.686L577.4 304.737L577.411 304.732L577.406 304.72L571.444 292.657L571.438 292.646L571.427 292.652L555.343 300.601L555.332 300.607L555.337 300.618L561.299 312.681ZM569.249 328.765L569.254 328.776L569.266 328.77L572.482 327.18L572.485 327.186L572.489 327.173C573.031 325.405 573.857 323.789 574.966 322.324C576.075 320.86 577.533 319.681 579.341 318.787C581.149 317.894 582.971 317.451 584.808 317.46C586.645 317.468 588.431 317.794 590.165 318.437L590.163 318.442L590.175 318.436L620.734 303.332L620.737 303.338L620.741 303.325C621.283 301.557 622.109 299.941 623.218 298.476C624.327 297.012 625.785 295.833 627.593 294.939C629.401 294.046 631.223 293.603 633.06 293.612C634.897 293.62 636.683 293.946 638.417 294.589L638.415 294.594L638.427 294.588L641.643 292.998L641.655 292.993L641.649 292.982L637.674 284.94L637.669 284.928L637.658 284.934L565.28 320.706L565.269 320.712L565.274 320.723L569.249 328.765ZM587.787 335.877C589.198 335.18 590.149 334.103 590.642 332.648C591.134 331.193 591.032 329.76 590.335 328.349C589.638 326.939 588.562 325.987 587.107 325.495C585.651 325.002 584.218 325.105 582.808 325.802C581.398 326.499 580.446 327.575 579.953 329.03C579.461 330.485 579.563 331.919 580.26 333.329C580.957 334.739 582.034 335.691 583.489 336.183C584.944 336.676 586.377 336.574 587.787 335.877ZM636.039 312.029C637.449 311.332 638.401 310.255 638.894 308.8C639.386 307.345 639.284 305.912 638.587 304.501C637.89 303.091 636.814 302.139 635.358 301.647C633.903 301.154 632.47 301.257 631.06 301.954C629.65 302.651 628.698 303.727 628.205 305.182C627.713 306.637 627.815 308.071 628.512 309.481C629.209 310.891 630.285 311.843 631.741 312.335C633.196 312.828 634.629 312.726 636.039 312.029Z" fill="#253A74" stroke="#253A74" stroke-width="0.025"/>
</g>
<path d="M136.468 155.567L136.468 155.567C135.551 153.046 135.551 150.528 136.471 148.014C137.39 145.499 139.028 143.625 141.385 142.393C143.742 141.161 146.215 140.885 148.805 141.565C151.394 142.246 153.462 143.682 155.008 145.874L157.362 149.232L161.389 148.922C161.389 148.922 161.389 148.922 161.389 148.922C163.5 148.751 165.504 149.171 167.398 150.181C169.293 151.191 170.734 152.639 171.72 154.524C173.088 157.143 173.336 159.848 172.461 162.639C171.586 165.43 169.839 167.511 167.221 168.879L148.389 178.724C145.771 180.093 143.065 180.34 140.274 179.466C137.483 178.591 135.403 176.844 134.034 174.226C133.048 172.34 132.681 170.331 132.934 168.199C133.186 166.067 133.984 164.182 135.329 162.545L136.468 155.567ZM136.468 155.567L137.882 159.416L135.329 162.545L136.468 155.567ZM170.789 190.993L172.751 189.967L175.287 194.819L165.118 200.135L162.582 195.283L164.511 194.275L164.522 194.269L164.517 194.258L157.953 181.703L157.948 181.692L157.936 181.698L151.659 184.98C147.32 187.248 142.823 187.652 138.166 186.193C133.509 184.734 130.047 181.835 127.779 177.496C126.139 174.359 125.492 171.02 125.837 167.479C126.182 163.937 127.503 160.8 129.802 158.067L129.812 158.076L129.804 158.055C128.225 153.888 128.222 149.713 129.796 145.529C131.369 141.345 134.142 138.215 138.115 136.138C142.088 134.061 146.241 133.571 150.574 134.667C154.908 135.762 158.335 138.147 160.855 141.822L160.844 141.83L160.866 141.827C164.422 141.499 167.752 142.204 170.857 143.942C173.963 145.68 176.335 148.118 177.975 151.254C180.243 155.593 180.647 160.09 179.188 164.747C177.729 169.404 174.83 172.866 170.491 175.135L164.214 178.416L164.203 178.422L164.208 178.433L170.772 190.988L170.778 190.999L170.789 190.993Z" fill="#253A74" stroke="#253A74" stroke-width="0.025"/>
<path d="M757.468 199.567L757.468 199.567C756.551 197.046 756.551 194.528 757.471 192.014C758.39 189.499 760.028 187.625 762.385 186.393C764.742 185.161 767.215 184.885 769.805 185.565C772.394 186.246 774.462 187.682 776.008 189.874L778.362 193.232L782.389 192.922C782.389 192.922 782.389 192.922 782.389 192.922C784.5 192.751 786.504 193.171 788.398 194.181C790.293 195.191 791.734 196.639 792.72 198.524C794.088 201.143 794.336 203.848 793.461 206.639C792.586 209.43 790.839 211.511 788.221 212.879L769.389 222.724C766.771 224.093 764.065 224.34 761.274 223.466C758.483 222.591 756.403 220.844 755.034 218.226C754.048 216.34 753.681 214.331 753.934 212.199C754.186 210.067 754.984 208.182 756.329 206.545L757.468 199.567ZM757.468 199.567L758.882 203.416L756.329 206.545L757.468 199.567ZM791.789 234.993L793.751 233.967L796.287 238.819L786.118 244.135L783.582 239.283L785.511 238.275L785.522 238.269L785.517 238.258L778.953 225.703L778.948 225.692L778.936 225.698L772.659 228.98C768.32 231.248 763.823 231.652 759.166 230.193C754.509 228.734 751.047 225.835 748.779 221.496C747.139 218.359 746.492 215.02 746.837 211.479C747.182 207.937 748.503 204.8 750.802 202.067L750.812 202.076L750.804 202.055C749.225 197.888 749.222 193.713 750.796 189.529C752.369 185.345 755.142 182.215 759.115 180.138C763.088 178.061 767.241 177.571 771.574 178.667C775.908 179.762 779.335 182.147 781.855 185.822L781.844 185.83L781.866 185.827C785.422 185.499 788.752 186.204 791.857 187.942C794.963 189.68 797.335 192.118 798.975 195.254C801.243 199.593 801.647 204.09 800.188 208.747C798.729 213.404 795.83 216.866 791.491 219.135L785.214 222.416L785.203 222.422L785.208 222.433L791.772 234.988L791.778 234.999L791.789 234.993Z" fill="#253A74" stroke="#253A74" stroke-width="0.025"/>
<path d="M899.468 309.567L899.468 309.567C898.551 307.046 898.551 304.528 899.471 302.014C900.39 299.499 902.028 297.625 904.385 296.393C906.742 295.161 909.215 294.885 911.805 295.565C914.394 296.246 916.462 297.682 918.008 299.874L920.362 303.232L924.389 302.922C924.389 302.922 924.389 302.922 924.389 302.922C926.5 302.751 928.504 303.171 930.398 304.181C932.293 305.191 933.734 306.639 934.72 308.524C936.088 311.143 936.336 313.848 935.461 316.639C934.586 319.43 932.839 321.511 930.221 322.879L911.389 332.724C908.771 334.093 906.065 334.34 903.274 333.466C900.483 332.591 898.403 330.844 897.034 328.226C896.048 326.34 895.681 324.331 895.934 322.199C896.186 320.067 896.984 318.182 898.329 316.545L899.468 309.567ZM899.468 309.567L900.882 313.416L898.329 316.545L899.468 309.567ZM933.789 344.993L935.751 343.967L938.287 348.819L928.118 354.135L925.582 349.283L927.511 348.275L927.522 348.269L927.517 348.258L920.953 335.703L920.948 335.692L920.936 335.698L914.659 338.98C910.32 341.248 905.823 341.652 901.166 340.193C896.509 338.734 893.047 335.835 890.779 331.496C889.139 328.359 888.492 325.02 888.837 321.479C889.182 317.937 890.503 314.8 892.802 312.067L892.812 312.076L892.804 312.055C891.225 307.888 891.222 303.713 892.796 299.529C894.369 295.345 897.142 292.215 901.115 290.138C905.088 288.061 909.241 287.571 913.574 288.667C917.908 289.762 921.335 292.147 923.855 295.822L923.844 295.83L923.866 295.827C927.422 295.499 930.752 296.204 933.857 297.942C936.963 299.68 939.335 302.118 940.975 305.254C943.243 309.593 943.647 314.09 942.188 318.747C940.729 323.404 937.83 326.866 933.491 329.135L927.214 332.416L927.203 332.422L927.208 332.433L933.772 344.988L933.778 344.999L933.789 344.993Z" fill="#253A74" stroke="#253A74" stroke-width="0.025"/>
<path d="M1232.47 319.567L1232.47 319.567C1231.55 317.046 1231.55 314.528 1232.47 312.014C1233.39 309.499 1235.03 307.625 1237.38 306.393C1239.74 305.161 1242.22 304.885 1244.8 305.565C1247.39 306.246 1249.46 307.682 1251.01 309.874L1253.36 313.232L1257.39 312.922C1257.39 312.922 1257.39 312.922 1257.39 312.922C1259.5 312.751 1261.5 313.171 1263.4 314.181C1265.29 315.191 1266.73 316.639 1267.72 318.524C1269.09 321.143 1269.34 323.848 1268.46 326.639C1267.59 329.43 1265.84 331.511 1263.22 332.879L1244.39 342.724C1241.77 344.093 1239.07 344.34 1236.27 343.466C1233.48 342.591 1231.4 340.844 1230.03 338.226C1229.05 336.34 1228.68 334.331 1228.93 332.199C1229.19 330.067 1229.98 328.182 1231.33 326.545L1232.47 319.567ZM1232.47 319.567L1233.88 323.416L1231.33 326.545L1232.47 319.567ZM1266.79 354.993L1268.75 353.967L1271.29 358.819L1261.12 364.135L1258.58 359.283L1260.51 358.275L1260.52 358.269L1260.52 358.258L1253.95 345.703L1253.95 345.692L1253.94 345.698L1247.66 348.98C1243.32 351.248 1238.82 351.652 1234.17 350.193C1229.51 348.734 1226.05 345.835 1223.78 341.496C1222.14 338.359 1221.49 335.02 1221.84 331.479C1222.18 327.937 1223.5 324.8 1225.8 322.067L1225.81 322.076L1225.8 322.055C1224.23 317.888 1224.22 313.713 1225.8 309.529C1227.37 305.345 1230.14 302.215 1234.11 300.138C1238.09 298.061 1242.24 297.571 1246.57 298.667C1250.91 299.762 1254.33 302.147 1256.85 305.822L1256.84 305.83L1256.87 305.827C1260.42 305.499 1263.75 306.204 1266.86 307.942C1269.96 309.68 1272.33 312.118 1273.97 315.254C1276.24 319.593 1276.65 324.09 1275.19 328.747C1273.73 333.404 1270.83 336.866 1266.49 339.135L1260.21 342.416L1260.2 342.422L1260.21 342.433L1266.77 354.988L1266.78 354.999L1266.79 354.993Z" fill="#253A74" stroke="#253A74" stroke-width="0.025"/>
<path d="M279.989 23.288C278.693 23.288 277.485 23.08 276.365 22.664C275.261 22.232 274.301 21.624 273.485 20.84C272.669 20.056 272.029 19.136 271.565 18.08C271.117 17.024 270.893 15.864 270.893 14.6C270.893 13.336 271.117 12.176 271.565 11.12C272.029 10.064 272.669 9.144 273.485 8.36C274.317 7.576 275.285 6.976 276.389 6.56C277.493 6.128 278.701 5.912 280.013 5.912C281.469 5.912 282.781 6.168 283.949 6.68C285.133 7.176 286.125 7.912 286.925 8.888L284.429 11.192C283.853 10.536 283.213 10.048 282.509 9.728C281.805 9.392 281.037 9.224 280.205 9.224C279.421 9.224 278.701 9.352 278.045 9.608C277.389 9.864 276.821 10.232 276.341 10.712C275.861 11.192 275.485 11.76 275.213 12.416C274.957 13.072 274.829 13.8 274.829 14.6C274.829 15.4 274.957 16.128 275.213 16.784C275.485 17.44 275.861 18.008 276.341 18.488C276.821 18.968 277.389 19.336 278.045 19.592C278.701 19.848 279.421 19.976 280.205 19.976C281.037 19.976 281.805 19.816 282.509 19.496C283.213 19.16 283.853 18.656 284.429 17.984L286.925 20.288C286.125 21.264 285.133 22.008 283.949 22.52C282.781 23.032 281.461 23.288 279.989 23.288ZM294.985 23.192C293.609 23.192 292.385 22.904 291.313 22.328C290.257 21.752 289.417 20.968 288.793 19.976C288.185 18.968 287.881 17.824 287.881 16.544C287.881 15.248 288.185 14.104 288.793 13.112C289.417 12.104 290.257 11.32 291.313 10.76C292.385 10.184 293.609 9.896 294.985 9.896C296.345 9.896 297.561 10.184 298.633 10.76C299.705 11.32 300.545 12.096 301.153 13.088C301.761 14.08 302.065 15.232 302.065 16.544C302.065 17.824 301.761 18.968 301.153 19.976C300.545 20.968 299.705 21.752 298.633 22.328C297.561 22.904 296.345 23.192 294.985 23.192ZM294.985 20.12C295.609 20.12 296.169 19.976 296.665 19.688C297.161 19.4 297.553 18.992 297.841 18.464C298.129 17.92 298.273 17.28 298.273 16.544C298.273 15.792 298.129 15.152 297.841 14.624C297.553 14.096 297.161 13.688 296.665 13.4C296.169 13.112 295.609 12.968 294.985 12.968C294.361 12.968 293.801 13.112 293.305 13.4C292.809 13.688 292.409 14.096 292.105 14.624C291.817 15.152 291.673 15.792 291.673 16.544C291.673 17.28 291.817 17.92 292.105 18.464C292.409 18.992 292.809 19.4 293.305 19.688C293.801 19.976 294.361 20.12 294.985 20.12ZM321.104 9.896C322.128 9.896 323.032 10.104 323.816 10.52C324.616 10.92 325.24 11.544 325.688 12.392C326.152 13.224 326.384 14.296 326.384 15.608V23H322.64V16.184C322.64 15.144 322.424 14.376 321.992 13.88C321.56 13.384 320.952 13.136 320.168 13.136C319.624 13.136 319.136 13.264 318.704 13.52C318.272 13.76 317.936 14.128 317.696 14.624C317.456 15.12 317.336 15.752 317.336 16.52V23H313.592V16.184C313.592 15.144 313.376 14.376 312.944 13.88C312.528 13.384 311.928 13.136 311.144 13.136C310.6 13.136 310.112 13.264 309.68 13.52C309.248 13.76 308.912 14.128 308.672 14.624C308.432 15.12 308.312 15.752 308.312 16.52V23H304.568V10.088H308.144V13.616L307.472 12.584C307.92 11.704 308.552 11.04 309.368 10.592C310.2 10.128 311.144 9.896 312.2 9.896C313.384 9.896 314.416 10.2 315.296 10.808C316.192 11.4 316.784 12.312 317.072 13.544L315.752 13.184C316.184 12.176 316.872 11.376 317.816 10.784C318.776 10.192 319.872 9.896 321.104 9.896ZM337.372 23.192C336.284 23.192 335.332 22.952 334.516 22.472C333.7 21.992 333.06 21.264 332.596 20.288C332.148 19.296 331.924 18.048 331.924 16.544C331.924 15.024 332.14 13.776 332.572 12.8C333.004 11.824 333.628 11.096 334.444 10.616C335.26 10.136 336.236 9.896 337.372 9.896C338.588 9.896 339.676 10.176 340.636 10.736C341.612 11.28 342.38 12.048 342.94 13.04C343.516 14.032 343.804 15.2 343.804 16.544C343.804 17.904 343.516 19.08 342.94 20.072C342.38 21.064 341.612 21.832 340.636 22.376C339.676 22.92 338.588 23.192 337.372 23.192ZM329.74 27.656V10.088H333.316V12.728L333.244 16.568L333.484 20.384V27.656H329.74ZM336.724 20.12C337.348 20.12 337.9 19.976 338.38 19.688C338.876 19.4 339.268 18.992 339.556 18.464C339.86 17.92 340.012 17.28 340.012 16.544C340.012 15.792 339.86 15.152 339.556 14.624C339.268 14.096 338.876 13.688 338.38 13.4C337.9 13.112 337.348 12.968 336.724 12.968C336.1 12.968 335.54 13.112 335.044 13.4C334.548 13.688 334.156 14.096 333.868 14.624C333.58 15.152 333.436 15.792 333.436 16.544C333.436 17.28 333.58 17.92 333.868 18.464C334.156 18.992 334.548 19.4 335.044 19.688C335.54 19.976 336.1 20.12 336.724 20.12ZM354.019 23V20.48L353.779 19.928V15.416C353.779 14.616 353.531 13.992 353.035 13.544C352.555 13.096 351.811 12.872 350.803 12.872C350.115 12.872 349.435 12.984 348.763 13.208C348.107 13.416 347.547 13.704 347.083 14.072L345.739 11.456C346.443 10.96 347.291 10.576 348.283 10.304C349.275 10.032 350.283 9.896 351.307 9.896C353.275 9.896 354.803 10.36 355.891 11.288C356.979 12.216 357.523 13.664 357.523 15.632V23H354.019ZM350.083 23.192C349.075 23.192 348.211 23.024 347.491 22.688C346.771 22.336 346.219 21.864 345.835 21.272C345.451 20.68 345.259 20.016 345.259 19.28C345.259 18.512 345.443 17.84 345.811 17.264C346.195 16.688 346.795 16.24 347.611 15.92C348.427 15.584 349.491 15.416 350.803 15.416H354.235V17.6H351.211C350.331 17.6 349.723 17.744 349.387 18.032C349.067 18.32 348.907 18.68 348.907 19.112C348.907 19.592 349.091 19.976 349.459 20.264C349.843 20.536 350.363 20.672 351.019 20.672C351.643 20.672 352.203 20.528 352.699 20.24C353.195 19.936 353.555 19.496 353.779 18.92L354.355 20.648C354.083 21.48 353.587 22.112 352.867 22.544C352.147 22.976 351.219 23.192 350.083 23.192ZM360.912 23V10.088H364.488V13.736L363.984 12.68C364.368 11.768 364.984 11.08 365.832 10.616C366.68 10.136 367.712 9.896 368.928 9.896V13.352C368.768 13.336 368.624 13.328 368.496 13.328C368.368 13.312 368.232 13.304 368.088 13.304C367.064 13.304 366.232 13.6 365.592 14.192C364.968 14.768 364.656 15.672 364.656 16.904V23H360.912ZM376.879 23.192C375.359 23.192 374.175 22.808 373.327 22.04C372.479 21.256 372.055 20.096 372.055 18.56V7.232H375.799V18.512C375.799 19.056 375.943 19.48 376.231 19.784C376.519 20.072 376.911 20.216 377.407 20.216C377.999 20.216 378.503 20.056 378.919 19.736L379.927 22.376C379.543 22.648 379.079 22.856 378.535 23C378.007 23.128 377.455 23.192 376.879 23.192ZM370.063 13.256V10.376H379.015V13.256H370.063ZM388.038 23.192C386.566 23.192 385.27 22.904 384.15 22.328C383.046 21.752 382.19 20.968 381.582 19.976C380.974 18.968 380.67 17.824 380.67 16.544C380.67 15.248 380.966 14.104 381.558 13.112C382.166 12.104 382.99 11.32 384.03 10.76C385.07 10.184 386.246 9.896 387.558 9.896C388.822 9.896 389.958 10.168 390.966 10.712C391.99 11.24 392.798 12.008 393.39 13.016C393.982 14.008 394.278 15.2 394.278 16.592C394.278 16.736 394.27 16.904 394.254 17.096C394.238 17.272 394.222 17.44 394.206 17.6H383.718V15.416H392.238L390.798 16.064C390.798 15.392 390.662 14.808 390.39 14.312C390.118 13.816 389.742 13.432 389.262 13.16C388.782 12.872 388.222 12.728 387.582 12.728C386.942 12.728 386.374 12.872 385.878 13.16C385.398 13.432 385.022 13.824 384.75 14.336C384.478 14.832 384.342 15.424 384.342 16.112V16.688C384.342 17.392 384.494 18.016 384.798 18.56C385.118 19.088 385.558 19.496 386.118 19.784C386.694 20.056 387.366 20.192 388.134 20.192C388.822 20.192 389.422 20.088 389.934 19.88C390.462 19.672 390.942 19.36 391.374 18.944L393.366 21.104C392.774 21.776 392.03 22.296 391.134 22.664C390.238 23.016 389.206 23.192 388.038 23.192ZM270.794 52V39.088H274.538V52H270.794ZM272.666 37.288C271.978 37.288 271.418 37.088 270.986 36.688C270.554 36.288 270.338 35.792 270.338 35.2C270.338 34.608 270.554 34.112 270.986 33.712C271.418 33.312 271.978 33.112 272.666 33.112C273.354 33.112 273.914 33.304 274.346 33.688C274.778 34.056 274.994 34.536 274.994 35.128C274.994 35.752 274.778 36.272 274.346 36.688C273.93 37.088 273.37 37.288 272.666 37.288ZM283.293 52.192C281.773 52.192 280.589 51.808 279.741 51.04C278.893 50.256 278.469 49.096 278.469 47.56V36.232H282.213V47.512C282.213 48.056 282.357 48.48 282.645 48.784C282.933 49.072 283.325 49.216 283.821 49.216C284.413 49.216 284.917 49.056 285.333 48.736L286.341 51.376C285.957 51.648 285.493 51.856 284.949 52C284.421 52.128 283.869 52.192 283.293 52.192ZM276.477 42.256V39.376H285.429V42.256H276.477ZM288.443 52V39.088H292.187V52H288.443ZM290.315 37.288C289.627 37.288 289.067 37.088 288.635 36.688C288.203 36.288 287.987 35.792 287.987 35.2C287.987 34.608 288.203 34.112 288.635 33.712C289.067 33.312 289.627 33.112 290.315 33.112C291.003 33.112 291.563 33.304 291.995 33.688C292.427 34.056 292.643 34.536 292.643 35.128C292.643 35.752 292.427 36.272 291.995 36.688C291.579 37.088 291.019 37.288 290.315 37.288ZM303.51 38.896C304.534 38.896 305.446 39.104 306.246 39.52C307.062 39.92 307.702 40.544 308.166 41.392C308.63 42.224 308.862 43.296 308.862 44.608V52H305.118V45.184C305.118 44.144 304.886 43.376 304.422 42.88C303.974 42.384 303.334 42.136 302.502 42.136C301.91 42.136 301.374 42.264 300.894 42.52C300.43 42.76 300.062 43.136 299.79 43.648C299.534 44.16 299.406 44.816 299.406 45.616V52H295.662V39.088H299.238V42.664L298.566 41.584C299.03 40.72 299.694 40.056 300.558 39.592C301.422 39.128 302.406 38.896 303.51 38.896ZM318.757 52.192C317.285 52.192 315.989 51.904 314.869 51.328C313.765 50.752 312.909 49.968 312.301 48.976C311.693 47.968 311.389 46.824 311.389 45.544C311.389 44.248 311.685 43.104 312.277 42.112C312.885 41.104 313.709 40.32 314.749 39.76C315.789 39.184 316.965 38.896 318.277 38.896C319.541 38.896 320.677 39.168 321.685 39.712C322.709 40.24 323.517 41.008 324.109 42.016C324.701 43.008 324.997 44.2 324.997 45.592C324.997 45.736 324.989 45.904 324.973 46.096C324.957 46.272 324.941 46.44 324.925 46.6H314.437V44.416H322.957L321.517 45.064C321.517 44.392 321.381 43.808 321.109 43.312C320.837 42.816 320.461 42.432 319.981 42.16C319.501 41.872 318.941 41.728 318.301 41.728C317.661 41.728 317.093 41.872 316.597 42.16C316.117 42.432 315.741 42.824 315.469 43.336C315.197 43.832 315.061 44.424 315.061 45.112V45.688C315.061 46.392 315.213 47.016 315.517 47.56C315.837 48.088 316.277 48.496 316.837 48.784C317.413 49.056 318.085 49.192 318.853 49.192C319.541 49.192 320.141 49.088 320.653 48.88C321.181 48.672 321.661 48.36 322.093 47.944L324.085 50.104C323.493 50.776 322.749 51.296 321.853 51.664C320.957 52.016 319.925 52.192 318.757 52.192ZM327.49 52V39.088H331.066V42.736L330.562 41.68C330.946 40.768 331.562 40.08 332.41 39.616C333.258 39.136 334.29 38.896 335.506 38.896V42.352C335.346 42.336 335.202 42.328 335.074 42.328C334.946 42.312 334.81 42.304 334.666 42.304C333.642 42.304 332.81 42.6 332.17 43.192C331.546 43.768 331.234 44.672 331.234 45.904V52H327.49ZM344.808 52V49.48L344.568 48.928V44.416C344.568 43.616 344.32 42.992 343.824 42.544C343.344 42.096 342.6 41.872 341.592 41.872C340.904 41.872 340.224 41.984 339.552 42.208C338.896 42.416 338.336 42.704 337.872 43.072L336.528 40.456C337.232 39.96 338.08 39.576 339.072 39.304C340.064 39.032 341.072 38.896 342.096 38.896C344.064 38.896 345.592 39.36 346.68 40.288C347.768 41.216 348.312 42.664 348.312 44.632V52H344.808ZM340.872 52.192C339.864 52.192 339 52.024 338.28 51.688C337.56 51.336 337.008 50.864 336.624 50.272C336.24 49.68 336.048 49.016 336.048 48.28C336.048 47.512 336.232 46.84 336.6 46.264C336.984 45.688 337.584 45.24 338.4 44.92C339.216 44.584 340.28 44.416 341.592 44.416H345.024V46.6H342C341.12 46.6 340.512 46.744 340.176 47.032C339.856 47.32 339.696 47.68 339.696 48.112C339.696 48.592 339.88 48.976 340.248 49.264C340.632 49.536 341.152 49.672 341.808 49.672C342.432 49.672 342.992 49.528 343.488 49.24C343.984 48.936 344.344 48.496 344.568 47.92L345.144 49.648C344.872 50.48 344.376 51.112 343.656 51.544C342.936 51.976 342.008 52.192 340.872 52.192ZM351.701 52V39.088H355.277V42.736L354.773 41.68C355.157 40.768 355.773 40.08 356.621 39.616C357.469 39.136 358.501 38.896 359.717 38.896V42.352C359.557 42.336 359.413 42.328 359.285 42.328C359.157 42.312 359.021 42.304 358.877 42.304C357.853 42.304 357.021 42.6 356.381 43.192C355.757 43.768 355.445 44.672 355.445 45.904V52H351.701ZM361.966 52V39.088H365.71V52H361.966ZM363.838 37.288C363.15 37.288 362.59 37.088 362.158 36.688C361.726 36.288 361.51 35.792 361.51 35.2C361.51 34.608 361.726 34.112 362.158 33.712C362.59 33.312 363.15 33.112 363.838 33.112C364.526 33.112 365.086 33.304 365.518 33.688C365.95 34.056 366.166 34.536 366.166 35.128C366.166 35.752 365.95 36.272 365.518 36.688C365.102 37.088 364.542 37.288 363.838 37.288ZM375.329 52.192C373.953 52.192 372.729 51.904 371.657 51.328C370.601 50.752 369.761 49.968 369.137 48.976C368.529 47.968 368.225 46.824 368.225 45.544C368.225 44.248 368.529 43.104 369.137 42.112C369.761 41.104 370.601 40.32 371.657 39.76C372.729 39.184 373.953 38.896 375.329 38.896C376.689 38.896 377.905 39.184 378.977 39.76C380.049 40.32 380.889 41.096 381.497 42.088C382.105 43.08 382.409 44.232 382.409 45.544C382.409 46.824 382.105 47.968 381.497 48.976C380.889 49.968 380.049 50.752 378.977 51.328C377.905 51.904 376.689 52.192 375.329 52.192ZM375.329 49.12C375.953 49.12 376.513 48.976 377.009 48.688C377.505 48.4 377.897 47.992 378.185 47.464C378.473 46.92 378.617 46.28 378.617 45.544C378.617 44.792 378.473 44.152 378.185 43.624C377.897 43.096 377.505 42.688 377.009 42.4C376.513 42.112 375.953 41.968 375.329 41.968C374.705 41.968 374.145 42.112 373.649 42.4C373.153 42.688 372.753 43.096 372.449 43.624C372.161 44.152 372.017 44.792 372.017 45.544C372.017 46.28 372.161 46.92 372.449 47.464C372.753 47.992 373.153 48.4 373.649 48.688C374.145 48.976 374.705 49.12 375.329 49.12ZM389.256 52.192C388.152 52.192 387.088 52.064 386.064 51.808C385.056 51.536 384.256 51.2 383.664 50.8L384.912 48.112C385.504 48.48 386.2 48.784 387 49.024C387.816 49.248 388.616 49.36 389.4 49.36C390.264 49.36 390.872 49.256 391.224 49.048C391.592 48.84 391.776 48.552 391.776 48.184C391.776 47.88 391.632 47.656 391.344 47.512C391.072 47.352 390.704 47.232 390.24 47.152C389.776 47.072 389.264 46.992 388.704 46.912C388.16 46.832 387.608 46.728 387.048 46.6C386.488 46.456 385.976 46.248 385.512 45.976C385.048 45.704 384.672 45.336 384.384 44.872C384.112 44.408 383.976 43.808 383.976 43.072C383.976 42.256 384.208 41.536 384.672 40.912C385.152 40.288 385.84 39.8 386.736 39.448C387.632 39.08 388.704 38.896 389.952 38.896C390.832 38.896 391.728 38.992 392.64 39.184C393.552 39.376 394.312 39.656 394.92 40.024L393.672 42.688C393.048 42.32 392.416 42.072 391.776 41.944C391.152 41.8 390.544 41.728 389.952 41.728C389.12 41.728 388.512 41.84 388.128 42.064C387.744 42.288 387.552 42.576 387.552 42.928C387.552 43.248 387.688 43.488 387.96 43.648C388.248 43.808 388.624 43.936 389.088 44.032C389.552 44.128 390.056 44.216 390.6 44.296C391.16 44.36 391.72 44.464 392.28 44.608C392.84 44.752 393.344 44.96 393.792 45.232C394.256 45.488 394.632 45.848 394.92 46.312C395.208 46.76 395.352 47.352 395.352 48.088C395.352 48.888 395.112 49.6 394.632 50.224C394.152 50.832 393.456 51.312 392.544 51.664C391.648 52.016 390.552 52.192 389.256 52.192Z" fill="#87549F"/>
</g>
<defs>
<clipPath id="clip0_382_22">
<rect width="1426" height="526" fill="white"/>
</clipPath>
</defs>
</svg>
