<svg width="739" height="341" viewBox="0 0 739 341" fill="none" xmlns="http://www.w3.org/2000/svg">
<path d="M507.719 307.288C506.375 307.288 505.087 307.112 503.855 306.76C502.623 306.392 501.631 305.92 500.879 305.344L502.199 302.416C502.919 302.928 503.767 303.352 504.743 303.688C505.735 304.008 506.735 304.168 507.743 304.168C508.511 304.168 509.127 304.096 509.591 303.952C510.071 303.792 510.423 303.576 510.647 303.304C510.871 303.032 510.983 302.72 510.983 302.368C510.983 301.92 510.807 301.568 510.455 301.312C510.103 301.04 509.639 300.824 509.063 300.664C508.487 300.488 507.847 300.328 507.143 300.184C506.455 300.024 505.759 299.832 505.055 299.608C504.367 299.384 503.735 299.096 503.159 298.744C502.583 298.392 502.111 297.928 501.743 297.352C501.391 296.776 501.215 296.04 501.215 295.144C501.215 294.184 501.471 293.312 501.983 292.528C502.511 291.728 503.295 291.096 504.335 290.632C505.391 290.152 506.711 289.912 508.295 289.912C509.351 289.912 510.391 290.04 511.415 290.296C512.439 290.536 513.343 290.904 514.127 291.4L512.927 294.352C512.143 293.904 511.359 293.576 510.575 293.368C509.791 293.144 509.023 293.032 508.271 293.032C507.519 293.032 506.903 293.12 506.423 293.296C505.943 293.472 505.599 293.704 505.391 293.992C505.183 294.264 505.079 294.584 505.079 294.952C505.079 295.384 505.255 295.736 505.607 296.008C505.959 296.264 506.423 296.472 506.999 296.632C507.575 296.792 508.207 296.952 508.895 297.112C509.599 297.272 510.295 297.456 510.983 297.664C511.687 297.872 512.327 298.152 512.903 298.504C513.479 298.856 513.943 299.32 514.295 299.896C514.663 300.472 514.847 301.2 514.847 302.08C514.847 303.024 514.583 303.888 514.055 304.672C513.527 305.456 512.735 306.088 511.679 306.568C510.639 307.048 509.319 307.288 507.719 307.288ZM517.24 307V294.088H520.984V307H517.24ZM519.112 292.288C518.424 292.288 517.864 292.088 517.432 291.688C517 291.288 516.784 290.792 516.784 290.2C516.784 289.608 517 289.112 517.432 288.712C517.864 288.312 518.424 288.112 519.112 288.112C519.8 288.112 520.36 288.304 520.792 288.688C521.224 289.056 521.44 289.536 521.44 290.128C521.44 290.752 521.224 291.272 520.792 291.688C520.376 292.088 519.816 292.288 519.112 292.288ZM540.994 293.896C542.018 293.896 542.922 294.104 543.706 294.52C544.506 294.92 545.13 295.544 545.578 296.392C546.042 297.224 546.274 298.296 546.274 299.608V307H542.53V300.184C542.53 299.144 542.314 298.376 541.882 297.88C541.45 297.384 540.842 297.136 540.058 297.136C539.514 297.136 539.026 297.264 538.594 297.52C538.162 297.76 537.826 298.128 537.586 298.624C537.346 299.12 537.226 299.752 537.226 300.52V307H533.482V300.184C533.482 299.144 533.266 298.376 532.834 297.88C532.418 297.384 531.818 297.136 531.034 297.136C530.49 297.136 530.002 297.264 529.57 297.52C529.138 297.76 528.802 298.128 528.562 298.624C528.322 299.12 528.202 299.752 528.202 300.52V307H524.458V294.088H528.034V297.616L527.362 296.584C527.81 295.704 528.442 295.04 529.258 294.592C530.09 294.128 531.034 293.896 532.09 293.896C533.274 293.896 534.306 294.2 535.186 294.808C536.082 295.4 536.674 296.312 536.962 297.544L535.642 297.184C536.074 296.176 536.762 295.376 537.706 294.784C538.666 294.192 539.762 293.896 540.994 293.896ZM557.262 307.192C556.174 307.192 555.222 306.952 554.406 306.472C553.59 305.992 552.95 305.264 552.486 304.288C552.038 303.296 551.814 302.048 551.814 300.544C551.814 299.024 552.03 297.776 552.462 296.8C552.894 295.824 553.518 295.096 554.334 294.616C555.15 294.136 556.126 293.896 557.262 293.896C558.478 293.896 559.566 294.176 560.526 294.736C561.502 295.28 562.27 296.048 562.83 297.04C563.406 298.032 563.694 299.2 563.694 300.544C563.694 301.904 563.406 303.08 562.83 304.072C562.27 305.064 561.502 305.832 560.526 306.376C559.566 306.92 558.478 307.192 557.262 307.192ZM549.63 311.656V294.088H553.206V296.728L553.134 300.568L553.374 304.384V311.656H549.63ZM556.614 304.12C557.238 304.12 557.79 303.976 558.27 303.688C558.766 303.4 559.158 302.992 559.446 302.464C559.75 301.92 559.902 301.28 559.902 300.544C559.902 299.792 559.75 299.152 559.446 298.624C559.158 298.096 558.766 297.688 558.27 297.4C557.79 297.112 557.238 296.968 556.614 296.968C555.99 296.968 555.43 297.112 554.934 297.4C554.438 297.688 554.046 298.096 553.758 298.624C553.47 299.152 553.326 299.792 553.326 300.544C553.326 301.28 553.47 301.92 553.758 302.464C554.046 302.992 554.438 303.4 554.934 303.688C555.43 303.976 555.99 304.12 556.614 304.12ZM566.201 307V289.192H569.945V307H566.201ZM573.419 307V294.088H577.163V307H573.419ZM575.291 292.288C574.603 292.288 574.043 292.088 573.611 291.688C573.179 291.288 572.963 290.792 572.963 290.2C572.963 289.608 573.179 289.112 573.611 288.712C574.043 288.312 574.603 288.112 575.291 288.112C575.979 288.112 576.539 288.304 576.971 288.688C577.403 289.056 577.619 289.536 577.619 290.128C577.619 290.752 577.403 291.272 576.971 291.688C576.555 292.088 575.995 292.288 575.291 292.288ZM581.094 307V293.8C581.094 292.344 581.526 291.184 582.39 290.32C583.254 289.44 584.486 289 586.086 289C586.63 289 587.15 289.056 587.646 289.168C588.158 289.28 588.59 289.456 588.942 289.696L587.958 292.408C587.75 292.264 587.518 292.152 587.262 292.072C587.006 291.992 586.734 291.952 586.446 291.952C585.902 291.952 585.478 292.112 585.174 292.432C584.886 292.736 584.742 293.2 584.742 293.824V295.024L584.838 296.632V307H581.094ZM579.102 297.256V294.376H588.054V297.256H579.102ZM590.166 307V294.088H593.91V307H590.166ZM592.038 292.288C591.35 292.288 590.79 292.088 590.358 291.688C589.926 291.288 589.71 290.792 589.71 290.2C589.71 289.608 589.926 289.112 590.358 288.712C590.79 288.312 591.35 288.112 592.038 288.112C592.726 288.112 593.286 288.304 593.718 288.688C594.15 289.056 594.366 289.536 594.366 290.128C594.366 290.752 594.15 291.272 593.718 291.688C593.302 292.088 592.742 292.288 592.038 292.288ZM603.613 307.192C602.221 307.192 600.981 306.912 599.893 306.352C598.805 305.776 597.949 304.984 597.325 303.976C596.717 302.968 596.413 301.824 596.413 300.544C596.413 299.248 596.717 298.104 597.325 297.112C597.949 296.104 598.805 295.32 599.893 294.76C600.981 294.184 602.221 293.896 603.613 293.896C604.973 293.896 606.157 294.184 607.165 294.76C608.173 295.32 608.917 296.128 609.397 297.184L606.493 298.744C606.157 298.136 605.733 297.688 605.221 297.4C604.725 297.112 604.181 296.968 603.589 296.968C602.949 296.968 602.373 297.112 601.861 297.4C601.349 297.688 600.941 298.096 600.637 298.624C600.349 299.152 600.205 299.792 600.205 300.544C600.205 301.296 600.349 301.936 600.637 302.464C600.941 302.992 601.349 303.4 601.861 303.688C602.373 303.976 602.949 304.12 603.589 304.12C604.181 304.12 604.725 303.984 605.221 303.712C605.733 303.424 606.157 302.968 606.493 302.344L609.397 303.928C608.917 304.968 608.173 305.776 607.165 306.352C606.157 306.912 604.973 307.192 603.613 307.192ZM619.472 307V304.48L619.232 303.928V299.416C619.232 298.616 618.984 297.992 618.488 297.544C618.008 297.096 617.264 296.872 616.256 296.872C615.568 296.872 614.888 296.984 614.216 297.208C613.56 297.416 613 297.704 612.536 298.072L611.192 295.456C611.896 294.96 612.744 294.576 613.736 294.304C614.728 294.032 615.736 293.896 616.76 293.896C618.728 293.896 620.256 294.36 621.344 295.288C622.432 296.216 622.976 297.664 622.976 299.632V307H619.472ZM615.536 307.192C614.528 307.192 613.664 307.024 612.944 306.688C612.224 306.336 611.672 305.864 611.288 305.272C610.904 304.68 610.712 304.016 610.712 303.28C610.712 302.512 610.896 301.84 611.264 301.264C611.648 300.688 612.248 300.24 613.064 299.92C613.88 299.584 614.944 299.416 616.256 299.416H619.688V301.6H616.664C615.784 301.6 615.176 301.744 614.84 302.032C614.52 302.32 614.36 302.68 614.36 303.112C614.36 303.592 614.544 303.976 614.912 304.264C615.296 304.536 615.816 304.672 616.472 304.672C617.096 304.672 617.656 304.528 618.152 304.24C618.648 303.936 619.008 303.496 619.232 302.92L619.808 304.648C619.536 305.48 619.04 306.112 618.32 306.544C617.6 306.976 616.672 307.192 615.536 307.192ZM639.57 307.192C638.098 307.192 636.802 306.904 635.682 306.328C634.578 305.752 633.722 304.968 633.114 303.976C632.506 302.968 632.202 301.824 632.202 300.544C632.202 299.248 632.498 298.104 633.09 297.112C633.698 296.104 634.522 295.32 635.562 294.76C636.602 294.184 637.778 293.896 639.09 293.896C640.354 293.896 641.49 294.168 642.498 294.712C643.522 295.24 644.33 296.008 644.922 297.016C645.514 298.008 645.81 299.2 645.81 300.592C645.81 300.736 645.802 300.904 645.786 301.096C645.77 301.272 645.754 301.44 645.738 301.6H635.25V299.416H643.77L642.33 300.064C642.33 299.392 642.194 298.808 641.922 298.312C641.65 297.816 641.274 297.432 640.794 297.16C640.314 296.872 639.754 296.728 639.114 296.728C638.474 296.728 637.906 296.872 637.41 297.16C636.93 297.432 636.554 297.824 636.282 298.336C636.01 298.832 635.874 299.424 635.874 300.112V300.688C635.874 301.392 636.026 302.016 636.33 302.56C636.65 303.088 637.09 303.496 637.65 303.784C638.226 304.056 638.898 304.192 639.666 304.192C640.354 304.192 640.954 304.088 641.466 303.88C641.994 303.672 642.474 303.36 642.906 302.944L644.898 305.104C644.306 305.776 643.562 306.296 642.666 306.664C641.77 307.016 640.738 307.192 639.57 307.192ZM648.302 307V289.192H652.046V307H648.302ZM475.925 336.192C474.533 336.192 473.293 335.912 472.205 335.352C471.117 334.776 470.261 333.984 469.637 332.976C469.029 331.968 468.725 330.824 468.725 329.544C468.725 328.248 469.029 327.104 469.637 326.112C470.261 325.104 471.117 324.32 472.205 323.76C473.293 323.184 474.533 322.896 475.925 322.896C477.285 322.896 478.469 323.184 479.477 323.76C480.485 324.32 481.229 325.128 481.709 326.184L478.805 327.744C478.469 327.136 478.045 326.688 477.533 326.4C477.037 326.112 476.493 325.968 475.901 325.968C475.261 325.968 474.685 326.112 474.173 326.4C473.661 326.688 473.253 327.096 472.949 327.624C472.661 328.152 472.517 328.792 472.517 329.544C472.517 330.296 472.661 330.936 472.949 331.464C473.253 331.992 473.661 332.4 474.173 332.688C474.685 332.976 475.261 333.12 475.901 333.12C476.493 333.12 477.037 332.984 477.533 332.712C478.045 332.424 478.469 331.968 478.805 331.344L481.709 332.928C481.229 333.968 480.485 334.776 479.477 335.352C478.469 335.912 477.285 336.192 475.925 336.192ZM489.845 336.192C488.469 336.192 487.245 335.904 486.173 335.328C485.117 334.752 484.277 333.968 483.653 332.976C483.045 331.968 482.741 330.824 482.741 329.544C482.741 328.248 483.045 327.104 483.653 326.112C484.277 325.104 485.117 324.32 486.173 323.76C487.245 323.184 488.469 322.896 489.845 322.896C491.205 322.896 492.421 323.184 493.493 323.76C494.565 324.32 495.405 325.096 496.013 326.088C496.621 327.08 496.925 328.232 496.925 329.544C496.925 330.824 496.621 331.968 496.013 332.976C495.405 333.968 494.565 334.752 493.493 335.328C492.421 335.904 491.205 336.192 489.845 336.192ZM489.845 333.12C490.469 333.12 491.029 332.976 491.525 332.688C492.021 332.4 492.413 331.992 492.701 331.464C492.989 330.92 493.133 330.28 493.133 329.544C493.133 328.792 492.989 328.152 492.701 327.624C492.413 327.096 492.021 326.688 491.525 326.4C491.029 326.112 490.469 325.968 489.845 325.968C489.221 325.968 488.661 326.112 488.165 326.4C487.669 326.688 487.269 327.096 486.965 327.624C486.677 328.152 486.533 328.792 486.533 329.544C486.533 330.28 486.677 330.92 486.965 331.464C487.269 331.992 487.669 332.4 488.165 332.688C488.661 332.976 489.221 333.12 489.845 333.12ZM507.275 322.896C508.299 322.896 509.211 323.104 510.011 323.52C510.827 323.92 511.467 324.544 511.931 325.392C512.395 326.224 512.627 327.296 512.627 328.608V336H508.883V329.184C508.883 328.144 508.651 327.376 508.187 326.88C507.739 326.384 507.099 326.136 506.267 326.136C505.675 326.136 505.139 326.264 504.659 326.52C504.195 326.76 503.827 327.136 503.555 327.648C503.299 328.16 503.171 328.816 503.171 329.616V336H499.427V323.088H503.003V326.664L502.331 325.584C502.795 324.72 503.459 324.056 504.323 323.592C505.187 323.128 506.171 322.896 507.275 322.896ZM521.301 336.192C519.781 336.192 518.597 335.808 517.749 335.04C516.901 334.256 516.477 333.096 516.477 331.56V320.232H520.221V331.512C520.221 332.056 520.365 332.48 520.653 332.784C520.941 333.072 521.333 333.216 521.829 333.216C522.421 333.216 522.925 333.056 523.341 332.736L524.349 335.376C523.965 335.648 523.501 335.856 522.957 336C522.429 336.128 521.877 336.192 521.301 336.192ZM514.485 326.256V323.376H523.437V326.256H514.485ZM526.451 336V323.088H530.027V326.736L529.523 325.68C529.907 324.768 530.523 324.08 531.371 323.616C532.219 323.136 533.251 322.896 534.467 322.896V326.352C534.307 326.336 534.163 326.328 534.035 326.328C533.907 326.312 533.771 326.304 533.627 326.304C532.603 326.304 531.771 326.6 531.131 327.192C530.507 327.768 530.195 328.672 530.195 329.904V336H526.451ZM542.743 336.192C541.367 336.192 540.143 335.904 539.071 335.328C538.015 334.752 537.175 333.968 536.551 332.976C535.943 331.968 535.639 330.824 535.639 329.544C535.639 328.248 535.943 327.104 536.551 326.112C537.175 325.104 538.015 324.32 539.071 323.76C540.143 323.184 541.367 322.896 542.743 322.896C544.103 322.896 545.319 323.184 546.391 323.76C547.463 324.32 548.303 325.096 548.911 326.088C549.519 327.08 549.823 328.232 549.823 329.544C549.823 330.824 549.519 331.968 548.911 332.976C548.303 333.968 547.463 334.752 546.391 335.328C545.319 335.904 544.103 336.192 542.743 336.192ZM542.743 333.12C543.367 333.12 543.927 332.976 544.423 332.688C544.919 332.4 545.311 331.992 545.599 331.464C545.887 330.92 546.031 330.28 546.031 329.544C546.031 328.792 545.887 328.152 545.599 327.624C545.311 327.096 544.919 326.688 544.423 326.4C543.927 326.112 543.367 325.968 542.743 325.968C542.119 325.968 541.559 326.112 541.063 326.4C540.567 326.688 540.167 327.096 539.863 327.624C539.575 328.152 539.431 328.792 539.431 329.544C539.431 330.28 539.575 330.92 539.863 331.464C540.167 331.992 540.567 332.4 541.063 332.688C541.559 332.976 542.119 333.12 542.743 333.12ZM552.326 336V318.192H556.07V336H552.326ZM571.885 336.192C570.669 336.192 569.573 335.92 568.597 335.376C567.621 334.816 566.845 334.04 566.269 333.048C565.709 332.056 565.429 330.888 565.429 329.544C565.429 328.184 565.709 327.008 566.269 326.016C566.845 325.024 567.621 324.256 568.597 323.712C569.573 323.168 570.669 322.896 571.885 322.896C572.973 322.896 573.925 323.136 574.741 323.616C575.557 324.096 576.189 324.824 576.637 325.8C577.085 326.776 577.309 328.024 577.309 329.544C577.309 331.048 577.093 332.296 576.661 333.288C576.229 334.264 575.605 334.992 574.789 335.472C573.989 335.952 573.021 336.192 571.885 336.192ZM572.533 333.12C573.141 333.12 573.693 332.976 574.189 332.688C574.685 332.4 575.077 331.992 575.365 331.464C575.669 330.92 575.821 330.28 575.821 329.544C575.821 328.792 575.669 328.152 575.365 327.624C575.077 327.096 574.685 326.688 574.189 326.4C573.693 326.112 573.141 325.968 572.533 325.968C571.909 325.968 571.349 326.112 570.853 326.4C570.357 326.688 569.957 327.096 569.653 327.624C569.365 328.152 569.221 328.792 569.221 329.544C569.221 330.28 569.365 330.92 569.653 331.464C569.957 331.992 570.357 332.4 570.853 332.688C571.349 332.976 571.909 333.12 572.533 333.12ZM575.917 336V333.36L575.989 329.52L575.749 325.704V318.192H579.493V336H575.917ZM589.366 336.192C587.894 336.192 586.598 335.904 585.478 335.328C584.374 334.752 583.518 333.968 582.91 332.976C582.302 331.968 581.998 330.824 581.998 329.544C581.998 328.248 582.294 327.104 582.886 326.112C583.494 325.104 584.318 324.32 585.358 323.76C586.398 323.184 587.574 322.896 588.886 322.896C590.15 322.896 591.286 323.168 592.294 323.712C593.318 324.24 594.126 325.008 594.718 326.016C595.31 327.008 595.606 328.2 595.606 329.592C595.606 329.736 595.598 329.904 595.582 330.096C595.566 330.272 595.55 330.44 595.534 330.6H585.046V328.416H593.566L592.126 329.064C592.126 328.392 591.99 327.808 591.718 327.312C591.446 326.816 591.07 326.432 590.59 326.16C590.11 325.872 589.55 325.728 588.91 325.728C588.27 325.728 587.702 325.872 587.206 326.16C586.726 326.432 586.35 326.824 586.078 327.336C585.806 327.832 585.67 328.424 585.67 329.112V329.688C585.67 330.392 585.822 331.016 586.126 331.56C586.446 332.088 586.886 332.496 587.446 332.784C588.022 333.056 588.694 333.192 589.462 333.192C590.15 333.192 590.75 333.088 591.262 332.88C591.79 332.672 592.27 332.36 592.702 331.944L594.694 334.104C594.102 334.776 593.358 335.296 592.462 335.664C591.566 336.016 590.534 336.192 589.366 336.192ZM610.968 340.848C609.752 340.848 608.576 340.696 607.44 340.392C606.32 340.104 605.384 339.664 604.632 339.072L606.12 336.384C606.664 336.832 607.352 337.184 608.184 337.44C609.032 337.712 609.864 337.848 610.68 337.848C612.008 337.848 612.968 337.552 613.56 336.96C614.168 336.368 614.472 335.488 614.472 334.32V332.376L614.712 329.136L614.664 325.872V323.088H618.216V333.84C618.216 336.24 617.592 338.008 616.344 339.144C615.096 340.28 613.304 340.848 610.968 340.848ZM610.392 335.376C609.192 335.376 608.104 335.12 607.128 334.608C606.168 334.08 605.392 333.352 604.8 332.424C604.224 331.48 603.936 330.384 603.936 329.136C603.936 327.872 604.224 326.776 604.8 325.848C605.392 324.904 606.168 324.176 607.128 323.664C608.104 323.152 609.192 322.896 610.392 322.896C611.48 322.896 612.44 323.12 613.272 323.568C614.104 324 614.752 324.68 615.216 325.608C615.68 326.52 615.912 327.696 615.912 329.136C615.912 330.56 615.68 331.736 615.216 332.664C614.752 333.576 614.104 334.256 613.272 334.704C612.44 335.152 611.48 335.376 610.392 335.376ZM611.136 332.304C611.792 332.304 612.376 332.176 612.888 331.92C613.4 331.648 613.8 331.272 614.088 330.792C614.376 330.312 614.52 329.76 614.52 329.136C614.52 328.496 614.376 327.944 614.088 327.48C613.8 327 613.4 326.632 612.888 326.376C612.376 326.104 611.792 325.968 611.136 325.968C610.48 325.968 609.896 326.104 609.384 326.376C608.872 326.632 608.464 327 608.16 327.48C607.872 327.944 607.728 328.496 607.728 329.136C607.728 329.76 607.872 330.312 608.16 330.792C608.464 331.272 608.872 331.648 609.384 331.92C609.896 332.176 610.48 332.304 611.136 332.304ZM629.621 336V333.48L629.381 332.928V328.416C629.381 327.616 629.133 326.992 628.637 326.544C628.157 326.096 627.413 325.872 626.405 325.872C625.717 325.872 625.037 325.984 624.365 326.208C623.709 326.416 623.149 326.704 622.685 327.072L621.341 324.456C622.045 323.96 622.893 323.576 623.885 323.304C624.877 323.032 625.885 322.896 626.909 322.896C628.877 322.896 630.405 323.36 631.493 324.288C632.581 325.216 633.125 326.664 633.125 328.632V336H629.621ZM625.685 336.192C624.677 336.192 623.813 336.024 623.093 335.688C622.373 335.336 621.821 334.864 621.437 334.272C621.053 333.68 620.861 333.016 620.861 332.28C620.861 331.512 621.045 330.84 621.413 330.264C621.797 329.688 622.397 329.24 623.213 328.92C624.029 328.584 625.093 328.416 626.405 328.416H629.837V330.6H626.813C625.933 330.6 625.325 330.744 624.989 331.032C624.669 331.32 624.509 331.68 624.509 332.112C624.509 332.592 624.693 332.976 625.061 333.264C625.445 333.536 625.965 333.672 626.621 333.672C627.245 333.672 627.805 333.528 628.301 333.24C628.797 332.936 629.157 332.496 629.381 331.92L629.957 333.648C629.685 334.48 629.189 335.112 628.469 335.544C627.749 335.976 626.821 336.192 625.685 336.192ZM640.857 336.192C639.753 336.192 638.689 336.064 637.665 335.808C636.657 335.536 635.857 335.2 635.265 334.8L636.513 332.112C637.105 332.48 637.801 332.784 638.601 333.024C639.417 333.248 640.217 333.36 641.001 333.36C641.865 333.36 642.473 333.256 642.825 333.048C643.193 332.84 643.377 332.552 643.377 332.184C643.377 331.88 643.233 331.656 642.945 331.512C642.673 331.352 642.305 331.232 641.841 331.152C641.377 331.072 640.865 330.992 640.305 330.912C639.761 330.832 639.209 330.728 638.649 330.6C638.089 330.456 637.577 330.248 637.113 329.976C636.649 329.704 636.273 329.336 635.985 328.872C635.713 328.408 635.577 327.808 635.577 327.072C635.577 326.256 635.809 325.536 636.273 324.912C636.753 324.288 637.441 323.8 638.337 323.448C639.233 323.08 640.305 322.896 641.553 322.896C642.433 322.896 643.329 322.992 644.241 323.184C645.153 323.376 645.913 323.656 646.521 324.024L645.273 326.688C644.649 326.32 644.017 326.072 643.377 325.944C642.753 325.8 642.145 325.728 641.553 325.728C640.721 325.728 640.113 325.84 639.729 326.064C639.345 326.288 639.153 326.576 639.153 326.928C639.153 327.248 639.289 327.488 639.561 327.648C639.849 327.808 640.225 327.936 640.689 328.032C641.153 328.128 641.657 328.216 642.201 328.296C642.761 328.36 643.321 328.464 643.881 328.608C644.441 328.752 644.945 328.96 645.393 329.232C645.857 329.488 646.233 329.848 646.521 330.312C646.809 330.76 646.953 331.352 646.953 332.088C646.953 332.888 646.713 333.6 646.233 334.224C645.753 334.832 645.057 335.312 644.145 335.664C643.249 336.016 642.153 336.192 640.857 336.192ZM654.543 336.192C653.023 336.192 651.839 335.808 650.991 335.04C650.143 334.256 649.719 333.096 649.719 331.56V320.232H653.463V331.512C653.463 332.056 653.607 332.48 653.895 332.784C654.183 333.072 654.575 333.216 655.071 333.216C655.663 333.216 656.167 333.056 656.583 332.736L657.591 335.376C657.207 335.648 656.743 335.856 656.199 336C655.671 336.128 655.119 336.192 654.543 336.192ZM647.727 326.256V323.376H656.679V326.256H647.727ZM665.438 336.192C664.062 336.192 662.838 335.904 661.766 335.328C660.71 334.752 659.87 333.968 659.246 332.976C658.638 331.968 658.334 330.824 658.334 329.544C658.334 328.248 658.638 327.104 659.246 326.112C659.87 325.104 660.71 324.32 661.766 323.76C662.838 323.184 664.062 322.896 665.438 322.896C666.798 322.896 668.014 323.184 669.086 323.76C670.158 324.32 670.998 325.096 671.606 326.088C672.214 327.08 672.518 328.232 672.518 329.544C672.518 330.824 672.214 331.968 671.606 332.976C670.998 333.968 670.158 334.752 669.086 335.328C668.014 335.904 666.798 336.192 665.438 336.192ZM665.438 333.12C666.062 333.12 666.622 332.976 667.118 332.688C667.614 332.4 668.006 331.992 668.294 331.464C668.582 330.92 668.726 330.28 668.726 329.544C668.726 328.792 668.582 328.152 668.294 327.624C668.006 327.096 667.614 326.688 667.118 326.4C666.622 326.112 666.062 325.968 665.438 325.968C664.814 325.968 664.254 326.112 663.758 326.4C663.262 326.688 662.862 327.096 662.558 327.624C662.27 328.152 662.126 328.792 662.126 329.544C662.126 330.28 662.27 330.92 662.558 331.464C662.862 331.992 663.262 332.4 663.758 332.688C664.254 332.976 664.814 333.12 665.438 333.12ZM679.365 336.192C678.261 336.192 677.197 336.064 676.173 335.808C675.165 335.536 674.365 335.2 673.773 334.8L675.021 332.112C675.613 332.48 676.309 332.784 677.109 333.024C677.925 333.248 678.725 333.36 679.509 333.36C680.373 333.36 680.981 333.256 681.333 333.048C681.701 332.84 681.885 332.552 681.885 332.184C681.885 331.88 681.741 331.656 681.453 331.512C681.181 331.352 680.813 331.232 680.349 331.152C679.885 331.072 679.373 330.992 678.813 330.912C678.269 330.832 677.717 330.728 677.157 330.6C676.597 330.456 676.085 330.248 675.621 329.976C675.157 329.704 674.781 329.336 674.493 328.872C674.221 328.408 674.085 327.808 674.085 327.072C674.085 326.256 674.317 325.536 674.781 324.912C675.261 324.288 675.949 323.8 676.845 323.448C677.741 323.08 678.813 322.896 680.061 322.896C680.941 322.896 681.837 322.992 682.749 323.184C683.661 323.376 684.421 323.656 685.029 324.024L683.781 326.688C683.157 326.32 682.525 326.072 681.885 325.944C681.261 325.8 680.653 325.728 680.061 325.728C679.229 325.728 678.621 325.84 678.237 326.064C677.853 326.288 677.661 326.576 677.661 326.928C677.661 327.248 677.797 327.488 678.069 327.648C678.357 327.808 678.733 327.936 679.197 328.032C679.661 328.128 680.165 328.216 680.709 328.296C681.269 328.36 681.829 328.464 682.389 328.608C682.949 328.752 683.453 328.96 683.901 329.232C684.365 329.488 684.741 329.848 685.029 330.312C685.317 330.76 685.461 331.352 685.461 332.088C685.461 332.888 685.221 333.6 684.741 334.224C684.261 334.832 683.565 335.312 682.653 335.664C681.757 336.016 680.661 336.192 679.365 336.192Z" fill="#87549F"/>
<path d="M3.69507 168.428L6.74576 166.832" stroke="#253A74" stroke-width="7" stroke-linecap="round" stroke-linejoin="round"/>
<path d="M12.8298 163.657L237.789 46.1448C258.347 35.4082 283.705 43.3889 294.428 63.9665C305.151 84.5499 297.18 109.939 276.628 120.676L172.274 175.186C151.716 185.922 143.751 211.311 154.475 231.895C165.198 252.478 190.555 260.453 211.113 249.716L527.645 84.3719C548.203 73.6352 573.56 81.616 584.283 102.194C595.007 122.771 587.036 148.166 566.484 158.903L480.91 203.6C460.352 214.337 452.387 239.726 463.11 260.309C473.833 280.893 499.191 288.868 519.749 278.131L729.317 168.663" stroke="#253A74" stroke-width="7" stroke-linecap="round" stroke-linejoin="round" stroke-dasharray="11.97 11.97"/>
<path d="M732.351 167.073L735.401 165.482" stroke="#253A74" stroke-width="7" stroke-linecap="round" stroke-linejoin="round"/>
<path d="M172.601 90.8891C178.698 90.8891 183.64 85.9407 183.64 79.8366C183.64 73.7325 178.698 68.7842 172.601 68.7842C166.505 68.7842 161.562 73.7325 161.562 79.8366C161.562 85.9407 166.505 90.8891 172.601 90.8891Z" fill="#7ECDCE"/>
<path d="M489.712 115.578C495.809 115.578 500.751 110.629 500.751 104.525C500.751 98.421 495.809 93.4727 489.712 93.4727C483.616 93.4727 478.673 98.421 478.673 104.525C478.673 110.629 483.616 115.578 489.712 115.578Z" fill="#7ECDCE"/>
<path d="M235.966 245.622C242.062 245.622 247.005 240.674 247.005 234.57C247.005 228.466 242.062 223.518 235.966 223.518C229.869 223.518 224.927 228.466 224.927 234.57C224.927 240.674 229.869 245.622 235.966 245.622Z" fill="#7ECDCE"/>
<path d="M557.951 268.302C564.048 268.302 568.99 263.354 568.99 257.25C568.99 251.146 564.048 246.197 557.951 246.197C551.855 246.197 546.913 251.146 546.913 257.25C546.913 263.354 551.855 268.302 557.951 268.302Z" fill="#7ECDCE"/>
<path d="M169.972 284V267.2H177.604C179.428 267.2 181.036 267.552 182.428 268.256C183.82 268.944 184.908 269.912 185.692 271.16C186.476 272.408 186.868 273.888 186.868 275.6C186.868 277.296 186.476 278.776 185.692 280.04C184.908 281.288 183.82 282.264 182.428 282.968C181.036 283.656 179.428 284 177.604 284H169.972ZM173.86 280.808H177.412C178.532 280.808 179.5 280.6 180.316 280.184C181.148 279.752 181.788 279.144 182.236 278.36C182.7 277.576 182.932 276.656 182.932 275.6C182.932 274.528 182.7 273.608 182.236 272.84C181.788 272.056 181.148 271.456 180.316 271.04C179.5 270.608 178.532 270.392 177.412 270.392H173.86V280.808ZM189.537 284V271.088H193.281V284H189.537ZM191.409 269.288C190.721 269.288 190.161 269.088 189.729 268.688C189.297 268.288 189.081 267.792 189.081 267.2C189.081 266.608 189.297 266.112 189.729 265.712C190.161 265.312 190.721 265.112 191.409 265.112C192.097 265.112 192.657 265.304 193.089 265.688C193.521 266.056 193.737 266.536 193.737 267.128C193.737 267.752 193.521 268.272 193.089 268.688C192.673 269.088 192.113 269.288 191.409 269.288ZM200.259 284L194.835 271.088H198.699L203.211 282.2H201.291L205.971 271.088H209.571L204.123 284H200.259ZM211.099 284V271.088H214.843V284H211.099ZM212.971 269.288C212.283 269.288 211.723 269.088 211.291 268.688C210.859 268.288 210.643 267.792 210.643 267.2C210.643 266.608 210.859 266.112 211.291 265.712C211.723 265.312 212.283 265.112 212.971 265.112C213.659 265.112 214.219 265.304 214.651 265.688C215.083 266.056 215.299 266.536 215.299 267.128C215.299 267.752 215.083 268.272 214.651 268.688C214.235 269.088 213.675 269.288 212.971 269.288ZM223.862 284.192C222.646 284.192 221.55 283.92 220.574 283.376C219.598 282.816 218.822 282.04 218.246 281.048C217.686 280.056 217.406 278.888 217.406 277.544C217.406 276.184 217.686 275.008 218.246 274.016C218.822 273.024 219.598 272.256 220.574 271.712C221.55 271.168 222.646 270.896 223.862 270.896C224.95 270.896 225.902 271.136 226.718 271.616C227.534 272.096 228.166 272.824 228.614 273.8C229.062 274.776 229.286 276.024 229.286 277.544C229.286 279.048 229.07 280.296 228.638 281.288C228.206 282.264 227.582 282.992 226.766 283.472C225.966 283.952 224.998 284.192 223.862 284.192ZM224.51 281.12C225.118 281.12 225.67 280.976 226.166 280.688C226.662 280.4 227.054 279.992 227.342 279.464C227.646 278.92 227.798 278.28 227.798 277.544C227.798 276.792 227.646 276.152 227.342 275.624C227.054 275.096 226.662 274.688 226.166 274.4C225.67 274.112 225.118 273.968 224.51 273.968C223.886 273.968 223.326 274.112 222.83 274.4C222.334 274.688 221.934 275.096 221.63 275.624C221.342 276.152 221.198 276.792 221.198 277.544C221.198 278.28 221.342 278.92 221.63 279.464C221.934 279.992 222.334 280.4 222.83 280.688C223.326 280.976 223.886 281.12 224.51 281.12ZM227.894 284V281.36L227.966 277.52L227.726 273.704V266.192H231.47V284H227.894ZM241.343 284.192C239.871 284.192 238.575 283.904 237.455 283.328C236.351 282.752 235.495 281.968 234.887 280.976C234.279 279.968 233.975 278.824 233.975 277.544C233.975 276.248 234.271 275.104 234.863 274.112C235.471 273.104 236.295 272.32 237.335 271.76C238.375 271.184 239.551 270.896 240.863 270.896C242.127 270.896 243.263 271.168 244.271 271.712C245.295 272.24 246.103 273.008 246.695 274.016C247.287 275.008 247.583 276.2 247.583 277.592C247.583 277.736 247.575 277.904 247.559 278.096C247.543 278.272 247.527 278.44 247.511 278.6H237.023V276.416H245.543L244.103 277.064C244.103 276.392 243.967 275.808 243.695 275.312C243.423 274.816 243.047 274.432 242.567 274.16C242.087 273.872 241.527 273.728 240.887 273.728C240.247 273.728 239.679 273.872 239.183 274.16C238.703 274.432 238.327 274.824 238.055 275.336C237.783 275.832 237.647 276.424 237.647 277.112V277.688C237.647 278.392 237.799 279.016 238.103 279.56C238.423 280.088 238.863 280.496 239.423 280.784C239.999 281.056 240.671 281.192 241.439 281.192C242.127 281.192 242.727 281.088 243.239 280.88C243.767 280.672 244.247 280.36 244.679 279.944L246.671 282.104C246.079 282.776 245.335 283.296 244.439 283.664C243.543 284.016 242.511 284.192 241.343 284.192ZM262.945 288.848C261.729 288.848 260.553 288.696 259.417 288.392C258.297 288.104 257.361 287.664 256.609 287.072L258.097 284.384C258.641 284.832 259.329 285.184 260.161 285.44C261.009 285.712 261.841 285.848 262.657 285.848C263.985 285.848 264.945 285.552 265.537 284.96C266.145 284.368 266.449 283.488 266.449 282.32V280.376L266.689 277.136L266.641 273.872V271.088H270.193V281.84C270.193 284.24 269.569 286.008 268.321 287.144C267.073 288.28 265.281 288.848 262.945 288.848ZM262.369 283.376C261.169 283.376 260.081 283.12 259.105 282.608C258.145 282.08 257.369 281.352 256.777 280.424C256.201 279.48 255.913 278.384 255.913 277.136C255.913 275.872 256.201 274.776 256.777 273.848C257.369 272.904 258.145 272.176 259.105 271.664C260.081 271.152 261.169 270.896 262.369 270.896C263.457 270.896 264.417 271.12 265.249 271.568C266.081 272 266.729 272.68 267.193 273.608C267.657 274.52 267.889 275.696 267.889 277.136C267.889 278.56 267.657 279.736 267.193 280.664C266.729 281.576 266.081 282.256 265.249 282.704C264.417 283.152 263.457 283.376 262.369 283.376ZM263.113 280.304C263.769 280.304 264.353 280.176 264.865 279.92C265.377 279.648 265.777 279.272 266.065 278.792C266.353 278.312 266.497 277.76 266.497 277.136C266.497 276.496 266.353 275.944 266.065 275.48C265.777 275 265.377 274.632 264.865 274.376C264.353 274.104 263.769 273.968 263.113 273.968C262.457 273.968 261.873 274.104 261.361 274.376C260.849 274.632 260.441 275 260.137 275.48C259.849 275.944 259.705 276.496 259.705 277.136C259.705 277.76 259.849 278.312 260.137 278.792C260.441 279.272 260.849 279.648 261.361 279.92C261.873 280.176 262.457 280.304 263.113 280.304ZM281.597 284V281.48L281.357 280.928V276.416C281.357 275.616 281.109 274.992 280.613 274.544C280.133 274.096 279.389 273.872 278.381 273.872C277.693 273.872 277.013 273.984 276.341 274.208C275.685 274.416 275.125 274.704 274.661 275.072L273.317 272.456C274.021 271.96 274.869 271.576 275.861 271.304C276.853 271.032 277.861 270.896 278.885 270.896C280.853 270.896 282.381 271.36 283.469 272.288C284.557 273.216 285.101 274.664 285.101 276.632V284H281.597ZM277.661 284.192C276.653 284.192 275.789 284.024 275.069 283.688C274.349 283.336 273.797 282.864 273.413 282.272C273.029 281.68 272.837 281.016 272.837 280.28C272.837 279.512 273.021 278.84 273.389 278.264C273.773 277.688 274.373 277.24 275.189 276.92C276.005 276.584 277.069 276.416 278.381 276.416H281.813V278.6H278.789C277.909 278.6 277.301 278.744 276.965 279.032C276.645 279.32 276.485 279.68 276.485 280.112C276.485 280.592 276.669 280.976 277.037 281.264C277.421 281.536 277.941 281.672 278.597 281.672C279.221 281.672 279.781 281.528 280.277 281.24C280.773 280.936 281.133 280.496 281.357 279.92L281.933 281.648C281.661 282.48 281.165 283.112 280.445 283.544C279.725 283.976 278.797 284.192 277.661 284.192ZM292.834 284.192C291.73 284.192 290.666 284.064 289.642 283.808C288.634 283.536 287.834 283.2 287.242 282.8L288.49 280.112C289.082 280.48 289.778 280.784 290.578 281.024C291.394 281.248 292.194 281.36 292.978 281.36C293.842 281.36 294.45 281.256 294.802 281.048C295.17 280.84 295.354 280.552 295.354 280.184C295.354 279.88 295.21 279.656 294.922 279.512C294.65 279.352 294.282 279.232 293.818 279.152C293.354 279.072 292.842 278.992 292.282 278.912C291.738 278.832 291.186 278.728 290.626 278.6C290.066 278.456 289.554 278.248 289.09 277.976C288.626 277.704 288.25 277.336 287.962 276.872C287.69 276.408 287.554 275.808 287.554 275.072C287.554 274.256 287.786 273.536 288.25 272.912C288.73 272.288 289.418 271.8 290.314 271.448C291.21 271.08 292.282 270.896 293.53 270.896C294.41 270.896 295.306 270.992 296.218 271.184C297.13 271.376 297.89 271.656 298.498 272.024L297.25 274.688C296.626 274.32 295.994 274.072 295.354 273.944C294.73 273.8 294.122 273.728 293.53 273.728C292.698 273.728 292.09 273.84 291.706 274.064C291.322 274.288 291.13 274.576 291.13 274.928C291.13 275.248 291.266 275.488 291.538 275.648C291.826 275.808 292.202 275.936 292.666 276.032C293.13 276.128 293.634 276.216 294.178 276.296C294.738 276.36 295.298 276.464 295.858 276.608C296.418 276.752 296.922 276.96 297.37 277.232C297.834 277.488 298.21 277.848 298.498 278.312C298.786 278.76 298.93 279.352 298.93 280.088C298.93 280.888 298.69 281.6 298.21 282.224C297.73 282.832 297.034 283.312 296.122 283.664C295.226 284.016 294.13 284.192 292.834 284.192ZM306.52 284.192C305 284.192 303.816 283.808 302.968 283.04C302.12 282.256 301.696 281.096 301.696 279.56V268.232H305.44V279.512C305.44 280.056 305.584 280.48 305.872 280.784C306.16 281.072 306.552 281.216 307.048 281.216C307.64 281.216 308.144 281.056 308.56 280.736L309.568 283.376C309.184 283.648 308.72 283.856 308.176 284C307.648 284.128 307.096 284.192 306.52 284.192ZM299.704 274.256V271.376H308.656V274.256H299.704ZM317.415 284.192C316.039 284.192 314.815 283.904 313.743 283.328C312.687 282.752 311.847 281.968 311.223 280.976C310.615 279.968 310.311 278.824 310.311 277.544C310.311 276.248 310.615 275.104 311.223 274.112C311.847 273.104 312.687 272.32 313.743 271.76C314.815 271.184 316.039 270.896 317.415 270.896C318.775 270.896 319.991 271.184 321.063 271.76C322.135 272.32 322.975 273.096 323.583 274.088C324.191 275.08 324.495 276.232 324.495 277.544C324.495 278.824 324.191 279.968 323.583 280.976C322.975 281.968 322.135 282.752 321.063 283.328C319.991 283.904 318.775 284.192 317.415 284.192ZM317.415 281.12C318.039 281.12 318.599 280.976 319.095 280.688C319.591 280.4 319.983 279.992 320.271 279.464C320.559 278.92 320.703 278.28 320.703 277.544C320.703 276.792 320.559 276.152 320.271 275.624C319.983 275.096 319.591 274.688 319.095 274.4C318.599 274.112 318.039 273.968 317.415 273.968C316.791 273.968 316.231 274.112 315.735 274.4C315.239 274.688 314.839 275.096 314.535 275.624C314.247 276.152 314.103 276.792 314.103 277.544C314.103 278.28 314.247 278.92 314.535 279.464C314.839 279.992 315.239 280.4 315.735 280.688C316.231 280.976 316.791 281.12 317.415 281.12ZM331.342 284.192C330.238 284.192 329.174 284.064 328.15 283.808C327.142 283.536 326.342 283.2 325.75 282.8L326.998 280.112C327.59 280.48 328.286 280.784 329.086 281.024C329.902 281.248 330.702 281.36 331.486 281.36C332.35 281.36 332.958 281.256 333.31 281.048C333.678 280.84 333.862 280.552 333.862 280.184C333.862 279.88 333.718 279.656 333.43 279.512C333.158 279.352 332.79 279.232 332.326 279.152C331.862 279.072 331.35 278.992 330.79 278.912C330.246 278.832 329.694 278.728 329.134 278.6C328.574 278.456 328.062 278.248 327.598 277.976C327.134 277.704 326.758 277.336 326.47 276.872C326.198 276.408 326.062 275.808 326.062 275.072C326.062 274.256 326.294 273.536 326.758 272.912C327.238 272.288 327.926 271.8 328.822 271.448C329.718 271.08 330.79 270.896 332.038 270.896C332.918 270.896 333.814 270.992 334.726 271.184C335.638 271.376 336.398 271.656 337.006 272.024L335.758 274.688C335.134 274.32 334.502 274.072 333.862 273.944C333.238 273.8 332.63 273.728 332.038 273.728C331.206 273.728 330.598 273.84 330.214 274.064C329.83 274.288 329.638 274.576 329.638 274.928C329.638 275.248 329.774 275.488 330.046 275.648C330.334 275.808 330.71 275.936 331.174 276.032C331.638 276.128 332.142 276.216 332.686 276.296C333.246 276.36 333.806 276.464 334.366 276.608C334.926 276.752 335.43 276.96 335.878 277.232C336.342 277.488 336.718 277.848 337.006 278.312C337.294 278.76 337.438 279.352 337.438 280.088C337.438 280.888 337.198 281.6 336.718 282.224C336.238 282.832 335.542 283.312 334.63 283.664C333.734 284.016 332.638 284.192 331.342 284.192Z" fill="#87549F"/>
<mask id="mask0_0_1" style="mask-type:alpha" maskUnits="userSpaceOnUse" x="273" y="142" width="75" height="76">
<rect x="0.66948" y="0.226601" width="54.4315" height="54.438" transform="matrix(0.896284 -0.44348 0.442676 0.896682 273.453 167.777)" fill="#FEFEFE" stroke="#253A74"/>
</mask>
<g mask="url(#mask0_0_1)">
<path d="M296.066 197.518L296.061 197.506L296.049 197.512L291.921 199.555L282.724 180.926C282.163 179.79 282.087 178.617 282.496 177.408C282.905 176.199 283.677 175.314 284.813 174.752L313.788 160.415L332.333 166.693L337.438 177.033L333.309 179.076L333.298 179.081L333.303 179.093C334.154 180.816 334.274 182.578 333.664 184.38C333.054 186.183 331.889 187.51 330.167 188.362C328.445 189.214 326.684 189.335 324.883 188.726C323.082 188.116 321.757 186.95 320.906 185.227L320.9 185.216L320.889 185.221L308.469 191.367L308.458 191.372L308.464 191.383C309.314 193.106 309.434 194.869 308.825 196.671C308.215 198.474 307.049 199.801 305.327 200.653C303.605 201.505 301.844 201.626 300.043 201.016C298.242 200.407 296.917 199.241 296.066 197.518ZM314.749 172.811L314.754 172.822L314.765 172.817L323.045 168.72L323.072 168.707L323.044 168.697L313.766 165.556L313.768 165.551L313.757 165.557L311.687 166.581L311.676 166.587L311.681 166.598L314.749 172.811ZM302.329 178.957L302.334 178.968L302.345 178.962L310.625 174.865L310.637 174.86L310.631 174.849L307.564 168.635L307.558 168.624L307.547 168.629L299.267 172.726L299.256 172.732L299.261 172.743L302.329 178.957ZM289.909 185.102L289.914 185.113L289.925 185.108L298.205 181.011L298.217 181.005L298.211 180.994L295.144 174.78L295.138 174.769L295.127 174.775L286.847 178.872L286.836 178.877L286.841 178.888L289.909 185.102ZM293.999 193.386L294.004 193.398L294.015 193.392L295.671 192.573L295.674 192.578L295.678 192.565C295.957 191.655 296.382 190.823 296.953 190.069C297.523 189.315 298.273 188.708 299.203 188.248C300.133 187.788 301.07 187.56 302.014 187.564C302.959 187.569 303.878 187.736 304.769 188.067L304.767 188.072L304.779 188.066L320.511 180.282L320.514 180.287L320.518 180.274C320.797 179.364 321.222 178.532 321.793 177.778C322.363 177.025 323.113 176.418 324.043 175.958C324.973 175.497 325.91 175.27 326.854 175.274C327.799 175.278 328.717 175.445 329.609 175.776L329.607 175.781L329.619 175.775L331.275 174.956L331.286 174.951L331.281 174.939L329.236 170.797L329.23 170.786L329.219 170.791L291.959 189.227L291.948 189.233L291.954 189.244L293.999 193.386ZM303.548 197.051C304.276 196.691 304.767 196.135 305.021 195.384C305.275 194.632 305.223 193.892 304.864 193.165C304.504 192.437 303.949 191.946 303.198 191.691C302.448 191.437 301.709 191.49 300.981 191.85C300.254 192.21 299.763 192.766 299.508 193.517C299.254 194.269 299.307 195.008 299.666 195.736C300.025 196.464 300.581 196.955 301.331 197.209C302.082 197.464 302.821 197.41 303.548 197.051ZM328.388 184.76C329.116 184.4 329.607 183.844 329.861 183.093C330.115 182.342 330.063 181.602 329.703 180.874C329.344 180.146 328.789 179.655 328.038 179.401C327.288 179.147 326.548 179.2 325.821 179.56C325.094 179.92 324.603 180.475 324.348 181.227C324.094 181.978 324.147 182.718 324.506 183.446C324.865 184.173 325.42 184.665 326.171 184.919C326.922 185.173 327.661 185.12 328.388 184.76Z" fill="#253A74" stroke="#253A74" stroke-width="0.025"/>
</g>
<path d="M88.9122 122.406L89.9168 121.88L91.2168 124.37L85.9932 127.103L84.6932 124.614L85.6811 124.097L85.6922 124.091L85.6864 124.08L82.3081 117.612L82.3023 117.601L82.2912 117.607L79.0602 119.297C76.8283 120.465 74.515 120.673 72.1195 119.922C69.7241 119.171 67.9432 117.678 66.7764 115.444C65.9329 113.829 65.6 112.11 65.7774 110.287C65.9549 108.463 66.6347 106.848 67.8172 105.441L67.8272 105.45L67.8193 105.429C67.007 103.283 67.0055 101.134 67.8149 98.9797C68.6242 96.8255 70.0505 95.2139 72.0942 94.1446C74.1378 93.0752 76.2739 92.8226 78.5031 93.3868C80.7323 93.951 82.4948 95.179 83.7912 97.071L83.7803 97.0784L83.8026 97.0764C85.6317 96.9074 87.3447 97.2704 88.9419 98.1652C90.5392 99.0601 91.7594 100.315 92.6029 101.93C93.7697 104.164 93.9777 106.479 93.227 108.877C92.4763 111.275 90.9853 113.057 88.7534 114.225L85.5223 115.916L85.5112 115.922L85.517 115.933L88.8954 122.401L88.9011 122.412L88.9122 122.406ZM80.7918 99.1517L80.7918 99.1517C79.9951 98.0211 78.9294 97.2802 77.5952 96.9294C76.2609 96.5787 74.9862 96.721 73.7718 97.3565C72.5573 97.992 71.7131 98.9584 71.2393 100.255C70.7656 101.552 70.7652 102.851 71.2381 104.151L71.2381 104.151L71.9646 106.131L70.6529 107.74C69.9599 108.585 69.5484 109.557 69.4184 110.656C69.2884 111.756 69.4774 112.793 69.9853 113.765C70.6907 115.115 71.7627 116.017 73.201 116.468C74.6393 116.919 76.0334 116.791 77.3826 116.085L87.0758 111.013C88.425 110.307 89.3252 109.234 89.7759 107.794C90.2267 106.355 90.0993 104.959 89.394 103.609C88.886 102.636 88.1437 101.89 87.1672 101.369C86.1909 100.848 85.1586 100.631 84.0705 100.719L82.0013 100.879L80.7918 99.1517Z" fill="#253A74" stroke="#253A74" stroke-width="0.025"/>
<path d="M408.557 145.076L409.562 144.55L410.862 147.039L405.638 149.773L404.338 147.284L405.326 146.767L405.337 146.761L405.331 146.75L401.953 140.282L401.947 140.271L401.936 140.276L398.705 141.967C396.473 143.135 394.16 143.343 391.765 142.592C389.369 141.841 387.588 140.348 386.421 138.114C385.578 136.499 385.245 134.78 385.422 132.957C385.6 131.133 386.28 129.518 387.462 128.111L387.472 128.12L387.464 128.099C386.652 125.953 386.651 123.804 387.46 121.65C388.269 119.495 389.696 117.884 391.739 116.814C393.783 115.745 395.919 115.493 398.148 116.057C400.377 116.621 402.14 117.849 403.436 119.741L403.425 119.748L403.448 119.746C405.277 119.577 406.99 119.94 408.587 120.835C410.184 121.73 411.404 122.985 412.248 124.6C413.415 126.834 413.623 129.149 412.872 131.547C412.121 133.945 410.63 135.727 408.398 136.895L405.167 138.586L405.156 138.592L405.162 138.603L408.54 145.071L408.546 145.082L408.557 145.076ZM400.437 121.822L400.437 121.822C399.64 120.691 398.574 119.95 397.24 119.599C395.906 119.249 394.631 119.391 393.417 120.026C392.202 120.662 391.358 121.628 390.884 122.925C390.411 124.222 390.41 125.521 390.883 126.821L390.883 126.821L391.61 128.801L390.298 130.41C389.605 131.255 389.193 132.227 389.063 133.326C388.933 134.426 389.122 135.462 389.63 136.435C390.336 137.785 391.408 138.686 392.846 139.138C394.284 139.589 395.678 139.461 397.028 138.755L406.721 133.683C408.07 132.977 408.97 131.904 409.421 130.464C409.872 129.025 409.744 127.629 409.039 126.279C408.531 125.306 407.789 124.56 406.812 124.039C405.836 123.518 404.804 123.301 403.716 123.389L401.646 123.549L400.437 121.822Z" fill="#253A74" stroke="#253A74" stroke-width="0.025"/>
<path d="M481.649 201.749L482.653 201.223L483.953 203.712L478.73 206.446L477.43 203.957L478.417 203.44L478.429 203.434L478.423 203.423L475.044 196.955L475.039 196.944L475.028 196.949L471.796 198.64C469.565 199.808 467.251 200.016 464.856 199.265C462.46 198.513 460.68 197.021 459.513 194.787C458.669 193.172 458.336 191.453 458.514 189.629C458.691 187.806 459.371 186.191 460.554 184.784L460.564 184.792L460.556 184.771C459.743 182.626 459.742 180.477 460.551 178.322C461.361 176.168 462.787 174.557 464.83 173.487C466.874 172.418 469.01 172.165 471.239 172.73C473.469 173.294 475.231 174.522 476.527 176.414L476.517 176.421L476.539 176.419C478.368 176.25 480.081 176.613 481.678 177.508C483.275 178.403 484.496 179.658 485.339 181.273C486.506 183.507 486.714 185.822 485.963 188.22C485.213 190.617 483.722 192.4 481.49 193.568L478.259 195.259L478.248 195.264L478.253 195.275L481.632 201.744L481.637 201.755L481.649 201.749ZM473.528 178.495L473.528 178.494C472.731 177.364 471.666 176.623 470.332 176.272C468.997 175.921 467.723 176.064 466.508 176.699C465.294 177.335 464.449 178.301 463.976 179.598C463.502 180.895 463.502 182.194 463.974 183.494L463.974 183.494L464.701 185.473L463.389 187.083C462.696 187.927 462.285 188.899 462.155 189.999C462.025 191.099 462.214 192.135 462.722 193.108C463.427 194.458 464.499 195.359 465.937 195.81C467.376 196.262 468.77 196.134 470.119 195.428L479.812 190.356C481.161 189.65 482.062 188.577 482.512 187.137C482.963 185.698 482.836 184.302 482.13 182.952C481.622 181.979 480.88 181.232 479.904 180.712C478.927 180.191 477.895 179.974 476.807 180.062L474.738 180.221L473.528 178.495Z" fill="#253A74" stroke="#253A74" stroke-width="0.025"/>
<path d="M653.052 206.901L654.057 206.376L655.357 208.865L650.133 211.598L648.833 209.109L649.821 208.592L649.832 208.586L649.827 208.575L646.448 202.107L646.442 202.096L646.431 202.102L643.2 203.792C640.968 204.96 638.655 205.169 636.26 204.417C633.864 203.666 632.083 202.173 630.917 199.939C630.073 198.324 629.74 196.605 629.918 194.782C630.095 192.958 630.775 191.343 631.957 189.936L631.967 189.945L631.959 189.924C631.147 187.779 631.146 185.629 631.955 183.475C632.764 181.321 634.191 179.709 636.234 178.64C638.278 177.57 640.414 177.318 642.643 177.882C644.872 178.446 646.635 179.674 647.931 181.566L647.92 181.574L647.943 181.571C649.772 181.403 651.485 181.765 653.082 182.66C654.679 183.555 655.9 184.81 656.743 186.425C657.91 188.659 658.118 190.974 657.367 193.372C656.616 195.77 655.125 197.552 652.894 198.72L649.662 200.411L649.651 200.417L649.657 200.428L653.035 206.896L653.041 206.907L653.052 206.901ZM644.932 183.647L644.932 183.647C644.135 182.516 643.07 181.775 641.735 181.425C640.401 181.074 639.126 181.216 637.912 181.852C636.697 182.487 635.853 183.454 635.379 184.75C634.906 186.047 634.905 187.346 635.378 188.646L635.378 188.646L636.105 190.626L634.793 192.236C634.1 193.08 633.688 194.052 633.559 195.151C633.429 196.251 633.618 197.288 634.125 198.26C634.831 199.611 635.903 200.512 637.341 200.963C638.779 201.414 640.174 201.286 641.523 200.58L651.216 195.508C652.565 194.802 653.465 193.729 653.916 192.29C654.367 190.85 654.239 189.454 653.534 188.104C653.026 187.132 652.284 186.385 651.307 185.864C650.331 185.343 649.299 185.127 648.211 185.214L646.141 185.374L644.932 183.647Z" fill="#253A74" stroke="#253A74" stroke-width="0.025"/>
<path d="M120.489 18.288C119.193 18.288 117.985 18.08 116.865 17.664C115.761 17.232 114.801 16.624 113.985 15.84C113.169 15.056 112.529 14.136 112.065 13.08C111.617 12.024 111.393 10.864 111.393 9.6C111.393 8.336 111.617 7.176 112.065 6.12C112.529 5.064 113.169 4.144 113.985 3.36C114.817 2.576 115.785 1.976 116.889 1.56C117.993 1.128 119.201 0.912 120.513 0.912C121.969 0.912 123.281 1.168 124.449 1.68C125.633 2.176 126.625 2.912 127.425 3.888L124.929 6.192C124.353 5.536 123.713 5.048 123.009 4.728C122.305 4.392 121.537 4.224 120.705 4.224C119.921 4.224 119.201 4.352 118.545 4.608C117.889 4.864 117.321 5.232 116.841 5.712C116.361 6.192 115.985 6.76 115.713 7.416C115.457 8.072 115.329 8.8 115.329 9.6C115.329 10.4 115.457 11.128 115.713 11.784C115.985 12.44 116.361 13.008 116.841 13.488C117.321 13.968 117.889 14.336 118.545 14.592C119.201 14.848 119.921 14.976 120.705 14.976C121.537 14.976 122.305 14.816 123.009 14.496C123.713 14.16 124.353 13.656 124.929 12.984L127.425 15.288C126.625 16.264 125.633 17.008 124.449 17.52C123.281 18.032 121.961 18.288 120.489 18.288ZM135.485 18.192C134.109 18.192 132.885 17.904 131.813 17.328C130.757 16.752 129.917 15.968 129.293 14.976C128.685 13.968 128.381 12.824 128.381 11.544C128.381 10.248 128.685 9.104 129.293 8.112C129.917 7.104 130.757 6.32 131.813 5.76C132.885 5.184 134.109 4.896 135.485 4.896C136.845 4.896 138.061 5.184 139.133 5.76C140.205 6.32 141.045 7.096 141.653 8.088C142.261 9.08 142.565 10.232 142.565 11.544C142.565 12.824 142.261 13.968 141.653 14.976C141.045 15.968 140.205 16.752 139.133 17.328C138.061 17.904 136.845 18.192 135.485 18.192ZM135.485 15.12C136.109 15.12 136.669 14.976 137.165 14.688C137.661 14.4 138.053 13.992 138.341 13.464C138.629 12.92 138.773 12.28 138.773 11.544C138.773 10.792 138.629 10.152 138.341 9.624C138.053 9.096 137.661 8.688 137.165 8.4C136.669 8.112 136.109 7.968 135.485 7.968C134.861 7.968 134.301 8.112 133.805 8.4C133.309 8.688 132.909 9.096 132.605 9.624C132.317 10.152 132.173 10.792 132.173 11.544C132.173 12.28 132.317 12.92 132.605 13.464C132.909 13.992 133.309 14.4 133.805 14.688C134.301 14.976 134.861 15.12 135.485 15.12ZM161.604 4.896C162.628 4.896 163.532 5.104 164.316 5.52C165.116 5.92 165.74 6.544 166.188 7.392C166.652 8.224 166.884 9.296 166.884 10.608V18H163.14V11.184C163.14 10.144 162.924 9.376 162.492 8.88C162.06 8.384 161.452 8.136 160.668 8.136C160.124 8.136 159.636 8.264 159.204 8.52C158.772 8.76 158.436 9.128 158.196 9.624C157.956 10.12 157.836 10.752 157.836 11.52V18H154.092V11.184C154.092 10.144 153.876 9.376 153.444 8.88C153.028 8.384 152.428 8.136 151.644 8.136C151.1 8.136 150.612 8.264 150.18 8.52C149.748 8.76 149.412 9.128 149.172 9.624C148.932 10.12 148.812 10.752 148.812 11.52V18H145.068V5.088H148.644V8.616L147.972 7.584C148.42 6.704 149.052 6.04 149.868 5.592C150.7 5.128 151.644 4.896 152.7 4.896C153.884 4.896 154.916 5.2 155.796 5.808C156.692 6.4 157.284 7.312 157.572 8.544L156.252 8.184C156.684 7.176 157.372 6.376 158.316 5.784C159.276 5.192 160.372 4.896 161.604 4.896ZM177.872 18.192C176.784 18.192 175.832 17.952 175.016 17.472C174.2 16.992 173.56 16.264 173.096 15.288C172.648 14.296 172.424 13.048 172.424 11.544C172.424 10.024 172.64 8.776 173.072 7.8C173.504 6.824 174.128 6.096 174.944 5.616C175.76 5.136 176.736 4.896 177.872 4.896C179.088 4.896 180.176 5.176 181.136 5.736C182.112 6.28 182.88 7.048 183.44 8.04C184.016 9.032 184.304 10.2 184.304 11.544C184.304 12.904 184.016 14.08 183.44 15.072C182.88 16.064 182.112 16.832 181.136 17.376C180.176 17.92 179.088 18.192 177.872 18.192ZM170.24 22.656V5.088H173.816V7.728L173.744 11.568L173.984 15.384V22.656H170.24ZM177.224 15.12C177.848 15.12 178.4 14.976 178.88 14.688C179.376 14.4 179.768 13.992 180.056 13.464C180.36 12.92 180.512 12.28 180.512 11.544C180.512 10.792 180.36 10.152 180.056 9.624C179.768 9.096 179.376 8.688 178.88 8.4C178.4 8.112 177.848 7.968 177.224 7.968C176.6 7.968 176.04 8.112 175.544 8.4C175.048 8.688 174.656 9.096 174.368 9.624C174.08 10.152 173.936 10.792 173.936 11.544C173.936 12.28 174.08 12.92 174.368 13.464C174.656 13.992 175.048 14.4 175.544 14.688C176.04 14.976 176.6 15.12 177.224 15.12ZM194.519 18V15.48L194.279 14.928V10.416C194.279 9.616 194.031 8.992 193.535 8.544C193.055 8.096 192.311 7.872 191.303 7.872C190.615 7.872 189.935 7.984 189.263 8.208C188.607 8.416 188.047 8.704 187.583 9.072L186.239 6.456C186.943 5.96 187.791 5.576 188.783 5.304C189.775 5.032 190.783 4.896 191.807 4.896C193.775 4.896 195.303 5.36 196.391 6.288C197.479 7.216 198.023 8.664 198.023 10.632V18H194.519ZM190.583 18.192C189.575 18.192 188.711 18.024 187.991 17.688C187.271 17.336 186.719 16.864 186.335 16.272C185.951 15.68 185.759 15.016 185.759 14.28C185.759 13.512 185.943 12.84 186.311 12.264C186.695 11.688 187.295 11.24 188.111 10.92C188.927 10.584 189.991 10.416 191.303 10.416H194.735V12.6H191.711C190.831 12.6 190.223 12.744 189.887 13.032C189.567 13.32 189.407 13.68 189.407 14.112C189.407 14.592 189.591 14.976 189.959 15.264C190.343 15.536 190.863 15.672 191.519 15.672C192.143 15.672 192.703 15.528 193.199 15.24C193.695 14.936 194.055 14.496 194.279 13.92L194.855 15.648C194.583 16.48 194.087 17.112 193.367 17.544C192.647 17.976 191.719 18.192 190.583 18.192ZM201.412 18V5.088H204.988V8.736L204.484 7.68C204.868 6.768 205.484 6.08 206.332 5.616C207.18 5.136 208.212 4.896 209.428 4.896V8.352C209.268 8.336 209.124 8.328 208.996 8.328C208.868 8.312 208.732 8.304 208.588 8.304C207.564 8.304 206.732 8.6 206.092 9.192C205.468 9.768 205.156 10.672 205.156 11.904V18H201.412ZM217.379 18.192C215.859 18.192 214.675 17.808 213.827 17.04C212.979 16.256 212.555 15.096 212.555 13.56V2.232H216.299V13.512C216.299 14.056 216.443 14.48 216.731 14.784C217.019 15.072 217.411 15.216 217.907 15.216C218.499 15.216 219.003 15.056 219.419 14.736L220.427 17.376C220.043 17.648 219.579 17.856 219.035 18C218.507 18.128 217.955 18.192 217.379 18.192ZM210.563 8.256V5.376H219.515V8.256H210.563ZM228.538 18.192C227.066 18.192 225.77 17.904 224.65 17.328C223.546 16.752 222.69 15.968 222.082 14.976C221.474 13.968 221.17 12.824 221.17 11.544C221.17 10.248 221.466 9.104 222.058 8.112C222.666 7.104 223.49 6.32 224.53 5.76C225.57 5.184 226.746 4.896 228.058 4.896C229.322 4.896 230.458 5.168 231.466 5.712C232.49 6.24 233.298 7.008 233.89 8.016C234.482 9.008 234.778 10.2 234.778 11.592C234.778 11.736 234.77 11.904 234.754 12.096C234.738 12.272 234.722 12.44 234.706 12.6H224.218V10.416H232.738L231.298 11.064C231.298 10.392 231.162 9.808 230.89 9.312C230.618 8.816 230.242 8.432 229.762 8.16C229.282 7.872 228.722 7.728 228.082 7.728C227.442 7.728 226.874 7.872 226.378 8.16C225.898 8.432 225.522 8.824 225.25 9.336C224.978 9.832 224.842 10.424 224.842 11.112V11.688C224.842 12.392 224.994 13.016 225.298 13.56C225.618 14.088 226.058 14.496 226.618 14.784C227.194 15.056 227.866 15.192 228.634 15.192C229.322 15.192 229.922 15.088 230.434 14.88C230.962 14.672 231.442 14.36 231.874 13.944L233.866 16.104C233.274 16.776 232.53 17.296 231.634 17.664C230.738 18.016 229.706 18.192 228.538 18.192ZM111.294 47V34.088H115.038V47H111.294ZM113.166 32.288C112.478 32.288 111.918 32.088 111.486 31.688C111.054 31.288 110.838 30.792 110.838 30.2C110.838 29.608 111.054 29.112 111.486 28.712C111.918 28.312 112.478 28.112 113.166 28.112C113.854 28.112 114.414 28.304 114.846 28.688C115.278 29.056 115.494 29.536 115.494 30.128C115.494 30.752 115.278 31.272 114.846 31.688C114.43 32.088 113.87 32.288 113.166 32.288ZM123.793 47.192C122.273 47.192 121.089 46.808 120.241 46.04C119.393 45.256 118.969 44.096 118.969 42.56V31.232H122.713V42.512C122.713 43.056 122.857 43.48 123.145 43.784C123.433 44.072 123.825 44.216 124.321 44.216C124.913 44.216 125.417 44.056 125.833 43.736L126.841 46.376C126.457 46.648 125.993 46.856 125.449 47C124.921 47.128 124.369 47.192 123.793 47.192ZM116.977 37.256V34.376H125.929V37.256H116.977ZM128.943 47V34.088H132.687V47H128.943ZM130.815 32.288C130.127 32.288 129.567 32.088 129.135 31.688C128.703 31.288 128.487 30.792 128.487 30.2C128.487 29.608 128.703 29.112 129.135 28.712C129.567 28.312 130.127 28.112 130.815 28.112C131.503 28.112 132.063 28.304 132.495 28.688C132.927 29.056 133.143 29.536 133.143 30.128C133.143 30.752 132.927 31.272 132.495 31.688C132.079 32.088 131.519 32.288 130.815 32.288ZM144.01 33.896C145.034 33.896 145.946 34.104 146.746 34.52C147.562 34.92 148.202 35.544 148.666 36.392C149.13 37.224 149.362 38.296 149.362 39.608V47H145.618V40.184C145.618 39.144 145.386 38.376 144.922 37.88C144.474 37.384 143.834 37.136 143.002 37.136C142.41 37.136 141.874 37.264 141.394 37.52C140.93 37.76 140.562 38.136 140.29 38.648C140.034 39.16 139.906 39.816 139.906 40.616V47H136.162V34.088H139.738V37.664L139.066 36.584C139.53 35.72 140.194 35.056 141.058 34.592C141.922 34.128 142.906 33.896 144.01 33.896ZM159.257 47.192C157.785 47.192 156.489 46.904 155.369 46.328C154.265 45.752 153.409 44.968 152.801 43.976C152.193 42.968 151.889 41.824 151.889 40.544C151.889 39.248 152.185 38.104 152.777 37.112C153.385 36.104 154.209 35.32 155.249 34.76C156.289 34.184 157.465 33.896 158.777 33.896C160.041 33.896 161.177 34.168 162.185 34.712C163.209 35.24 164.017 36.008 164.609 37.016C165.201 38.008 165.497 39.2 165.497 40.592C165.497 40.736 165.489 40.904 165.473 41.096C165.457 41.272 165.441 41.44 165.425 41.6H154.937V39.416H163.457L162.017 40.064C162.017 39.392 161.881 38.808 161.609 38.312C161.337 37.816 160.961 37.432 160.481 37.16C160.001 36.872 159.441 36.728 158.801 36.728C158.161 36.728 157.593 36.872 157.097 37.16C156.617 37.432 156.241 37.824 155.969 38.336C155.697 38.832 155.561 39.424 155.561 40.112V40.688C155.561 41.392 155.713 42.016 156.017 42.56C156.337 43.088 156.777 43.496 157.337 43.784C157.913 44.056 158.585 44.192 159.353 44.192C160.041 44.192 160.641 44.088 161.153 43.88C161.681 43.672 162.161 43.36 162.593 42.944L164.585 45.104C163.993 45.776 163.249 46.296 162.353 46.664C161.457 47.016 160.425 47.192 159.257 47.192ZM167.99 47V34.088H171.566V37.736L171.062 36.68C171.446 35.768 172.062 35.08 172.91 34.616C173.758 34.136 174.79 33.896 176.006 33.896V37.352C175.846 37.336 175.702 37.328 175.574 37.328C175.446 37.312 175.31 37.304 175.166 37.304C174.142 37.304 173.31 37.6 172.67 38.192C172.046 38.768 171.734 39.672 171.734 40.904V47H167.99ZM185.308 47V44.48L185.068 43.928V39.416C185.068 38.616 184.82 37.992 184.324 37.544C183.844 37.096 183.1 36.872 182.092 36.872C181.404 36.872 180.724 36.984 180.052 37.208C179.396 37.416 178.836 37.704 178.372 38.072L177.028 35.456C177.732 34.96 178.58 34.576 179.572 34.304C180.564 34.032 181.572 33.896 182.596 33.896C184.564 33.896 186.092 34.36 187.18 35.288C188.268 36.216 188.812 37.664 188.812 39.632V47H185.308ZM181.372 47.192C180.364 47.192 179.5 47.024 178.78 46.688C178.06 46.336 177.508 45.864 177.124 45.272C176.74 44.68 176.548 44.016 176.548 43.28C176.548 42.512 176.732 41.84 177.1 41.264C177.484 40.688 178.084 40.24 178.9 39.92C179.716 39.584 180.78 39.416 182.092 39.416H185.524V41.6H182.5C181.62 41.6 181.012 41.744 180.676 42.032C180.356 42.32 180.196 42.68 180.196 43.112C180.196 43.592 180.38 43.976 180.748 44.264C181.132 44.536 181.652 44.672 182.308 44.672C182.932 44.672 183.492 44.528 183.988 44.24C184.484 43.936 184.844 43.496 185.068 42.92L185.644 44.648C185.372 45.48 184.876 46.112 184.156 46.544C183.436 46.976 182.508 47.192 181.372 47.192ZM192.201 47V34.088H195.777V37.736L195.273 36.68C195.657 35.768 196.273 35.08 197.121 34.616C197.969 34.136 199.001 33.896 200.217 33.896V37.352C200.057 37.336 199.913 37.328 199.785 37.328C199.657 37.312 199.521 37.304 199.377 37.304C198.353 37.304 197.521 37.6 196.881 38.192C196.257 38.768 195.945 39.672 195.945 40.904V47H192.201ZM202.466 47V34.088H206.21V47H202.466ZM204.338 32.288C203.65 32.288 203.09 32.088 202.658 31.688C202.226 31.288 202.01 30.792 202.01 30.2C202.01 29.608 202.226 29.112 202.658 28.712C203.09 28.312 203.65 28.112 204.338 28.112C205.026 28.112 205.586 28.304 206.018 28.688C206.45 29.056 206.666 29.536 206.666 30.128C206.666 30.752 206.45 31.272 206.018 31.688C205.602 32.088 205.042 32.288 204.338 32.288ZM215.829 47.192C214.453 47.192 213.229 46.904 212.157 46.328C211.101 45.752 210.261 44.968 209.637 43.976C209.029 42.968 208.725 41.824 208.725 40.544C208.725 39.248 209.029 38.104 209.637 37.112C210.261 36.104 211.101 35.32 212.157 34.76C213.229 34.184 214.453 33.896 215.829 33.896C217.189 33.896 218.405 34.184 219.477 34.76C220.549 35.32 221.389 36.096 221.997 37.088C222.605 38.08 222.909 39.232 222.909 40.544C222.909 41.824 222.605 42.968 221.997 43.976C221.389 44.968 220.549 45.752 219.477 46.328C218.405 46.904 217.189 47.192 215.829 47.192ZM215.829 44.12C216.453 44.12 217.013 43.976 217.509 43.688C218.005 43.4 218.397 42.992 218.685 42.464C218.973 41.92 219.117 41.28 219.117 40.544C219.117 39.792 218.973 39.152 218.685 38.624C218.397 38.096 218.005 37.688 217.509 37.4C217.013 37.112 216.453 36.968 215.829 36.968C215.205 36.968 214.645 37.112 214.149 37.4C213.653 37.688 213.253 38.096 212.949 38.624C212.661 39.152 212.517 39.792 212.517 40.544C212.517 41.28 212.661 41.92 212.949 42.464C213.253 42.992 213.653 43.4 214.149 43.688C214.645 43.976 215.205 44.12 215.829 44.12ZM229.756 47.192C228.652 47.192 227.588 47.064 226.564 46.808C225.556 46.536 224.756 46.2 224.164 45.8L225.412 43.112C226.004 43.48 226.7 43.784 227.5 44.024C228.316 44.248 229.116 44.36 229.9 44.36C230.764 44.36 231.372 44.256 231.724 44.048C232.092 43.84 232.276 43.552 232.276 43.184C232.276 42.88 232.132 42.656 231.844 42.512C231.572 42.352 231.204 42.232 230.74 42.152C230.276 42.072 229.764 41.992 229.204 41.912C228.66 41.832 228.108 41.728 227.548 41.6C226.988 41.456 226.476 41.248 226.012 40.976C225.548 40.704 225.172 40.336 224.884 39.872C224.612 39.408 224.476 38.808 224.476 38.072C224.476 37.256 224.708 36.536 225.172 35.912C225.652 35.288 226.34 34.8 227.236 34.448C228.132 34.08 229.204 33.896 230.452 33.896C231.332 33.896 232.228 33.992 233.14 34.184C234.052 34.376 234.812 34.656 235.42 35.024L234.172 37.688C233.548 37.32 232.916 37.072 232.276 36.944C231.652 36.8 231.044 36.728 230.452 36.728C229.62 36.728 229.012 36.84 228.628 37.064C228.244 37.288 228.052 37.576 228.052 37.928C228.052 38.248 228.188 38.488 228.46 38.648C228.748 38.808 229.124 38.936 229.588 39.032C230.052 39.128 230.556 39.216 231.1 39.296C231.66 39.36 232.22 39.464 232.78 39.608C233.34 39.752 233.844 39.96 234.292 40.232C234.756 40.488 235.132 40.848 235.42 41.312C235.708 41.76 235.852 42.352 235.852 43.088C235.852 43.888 235.612 44.6 235.132 45.224C234.652 45.832 233.956 46.312 233.044 46.664C232.148 47.016 231.052 47.192 229.756 47.192Z" fill="#87549F"/>
<path d="M423.369 14.76H431.433V17.88H423.369V14.76ZM423.657 24H419.769V7.2H432.465V10.32H423.657V24ZM442.378 24V21.48L442.138 20.928V16.416C442.138 15.616 441.89 14.992 441.394 14.544C440.914 14.096 440.17 13.872 439.162 13.872C438.474 13.872 437.794 13.984 437.122 14.208C436.466 14.416 435.906 14.704 435.442 15.072L434.098 12.456C434.802 11.96 435.65 11.576 436.642 11.304C437.634 11.032 438.642 10.896 439.666 10.896C441.634 10.896 443.162 11.36 444.25 12.288C445.338 13.216 445.882 14.664 445.882 16.632V24H442.378ZM438.442 24.192C437.434 24.192 436.57 24.024 435.85 23.688C435.13 23.336 434.578 22.864 434.194 22.272C433.81 21.68 433.618 21.016 433.618 20.28C433.618 19.512 433.802 18.84 434.17 18.264C434.554 17.688 435.154 17.24 435.97 16.92C436.786 16.584 437.85 16.416 439.162 16.416H442.594V18.6H439.57C438.69 18.6 438.082 18.744 437.746 19.032C437.426 19.32 437.266 19.68 437.266 20.112C437.266 20.592 437.45 20.976 437.818 21.264C438.202 21.536 438.722 21.672 439.378 21.672C440.002 21.672 440.562 21.528 441.058 21.24C441.554 20.936 441.914 20.496 442.138 19.92L442.714 21.648C442.442 22.48 441.946 23.112 441.226 23.544C440.506 23.976 439.578 24.192 438.442 24.192ZM455.605 24.192C454.213 24.192 452.973 23.912 451.885 23.352C450.797 22.776 449.941 21.984 449.317 20.976C448.709 19.968 448.405 18.824 448.405 17.544C448.405 16.248 448.709 15.104 449.317 14.112C449.941 13.104 450.797 12.32 451.885 11.76C452.973 11.184 454.213 10.896 455.605 10.896C456.965 10.896 458.149 11.184 459.157 11.76C460.165 12.32 460.909 13.128 461.389 14.184L458.485 15.744C458.149 15.136 457.725 14.688 457.213 14.4C456.717 14.112 456.173 13.968 455.581 13.968C454.941 13.968 454.365 14.112 453.853 14.4C453.341 14.688 452.933 15.096 452.629 15.624C452.341 16.152 452.197 16.792 452.197 17.544C452.197 18.296 452.341 18.936 452.629 19.464C452.933 19.992 453.341 20.4 453.853 20.688C454.365 20.976 454.941 21.12 455.581 21.12C456.173 21.12 456.717 20.984 457.213 20.712C457.725 20.424 458.149 19.968 458.485 19.344L461.389 20.928C460.909 21.968 460.165 22.776 459.157 23.352C458.149 23.912 456.965 24.192 455.605 24.192ZM463.474 24V11.088H467.218V24H463.474ZM465.346 9.288C464.658 9.288 464.098 9.088 463.666 8.688C463.234 8.288 463.018 7.792 463.018 7.2C463.018 6.608 463.234 6.112 463.666 5.712C464.098 5.312 464.658 5.112 465.346 5.112C466.034 5.112 466.594 5.304 467.026 5.688C467.458 6.056 467.674 6.536 467.674 7.128C467.674 7.752 467.458 8.272 467.026 8.688C466.61 9.088 466.05 9.288 465.346 9.288ZM470.693 24V6.192H474.437V24H470.693ZM477.912 24V11.088H481.656V24H477.912ZM479.784 9.288C479.096 9.288 478.536 9.088 478.104 8.688C477.672 8.288 477.456 7.792 477.456 7.2C477.456 6.608 477.672 6.112 478.104 5.712C478.536 5.312 479.096 5.112 479.784 5.112C480.472 5.112 481.032 5.304 481.464 5.688C481.896 6.056 482.112 6.536 482.112 7.128C482.112 7.752 481.896 8.272 481.464 8.688C481.048 9.088 480.488 9.288 479.784 9.288ZM490.41 24.192C488.89 24.192 487.706 23.808 486.858 23.04C486.01 22.256 485.586 21.096 485.586 19.56V8.232H489.33V19.512C489.33 20.056 489.474 20.48 489.762 20.784C490.05 21.072 490.442 21.216 490.938 21.216C491.53 21.216 492.034 21.056 492.45 20.736L493.458 23.376C493.074 23.648 492.61 23.856 492.066 24C491.538 24.128 490.986 24.192 490.41 24.192ZM483.594 14.256V11.376H492.546V14.256H483.594ZM503.48 24V21.48L503.24 20.928V16.416C503.24 15.616 502.992 14.992 502.496 14.544C502.016 14.096 501.272 13.872 500.264 13.872C499.576 13.872 498.896 13.984 498.224 14.208C497.568 14.416 497.008 14.704 496.544 15.072L495.2 12.456C495.904 11.96 496.752 11.576 497.744 11.304C498.736 11.032 499.744 10.896 500.768 10.896C502.736 10.896 504.264 11.36 505.352 12.288C506.44 13.216 506.984 14.664 506.984 16.632V24H503.48ZM499.544 24.192C498.536 24.192 497.672 24.024 496.952 23.688C496.232 23.336 495.68 22.864 495.296 22.272C494.912 21.68 494.72 21.016 494.72 20.28C494.72 19.512 494.904 18.84 495.272 18.264C495.656 17.688 496.256 17.24 497.072 16.92C497.888 16.584 498.952 16.416 500.264 16.416H503.696V18.6H500.672C499.792 18.6 499.184 18.744 498.848 19.032C498.528 19.32 498.368 19.68 498.368 20.112C498.368 20.592 498.552 20.976 498.92 21.264C499.304 21.536 499.824 21.672 500.48 21.672C501.104 21.672 501.664 21.528 502.16 21.24C502.656 20.936 503.016 20.496 503.24 19.92L503.816 21.648C503.544 22.48 503.048 23.112 502.328 23.544C501.608 23.976 500.68 24.192 499.544 24.192ZM517.169 24V6.192H520.913V24H517.169ZM532.308 24V21.48L532.068 20.928V16.416C532.068 15.616 531.82 14.992 531.324 14.544C530.844 14.096 530.1 13.872 529.092 13.872C528.404 13.872 527.724 13.984 527.052 14.208C526.396 14.416 525.836 14.704 525.372 15.072L524.028 12.456C524.732 11.96 525.58 11.576 526.572 11.304C527.564 11.032 528.572 10.896 529.596 10.896C531.564 10.896 533.092 11.36 534.18 12.288C535.268 13.216 535.812 14.664 535.812 16.632V24H532.308ZM528.372 24.192C527.364 24.192 526.5 24.024 525.78 23.688C525.06 23.336 524.508 22.864 524.124 22.272C523.74 21.68 523.548 21.016 523.548 20.28C523.548 19.512 523.732 18.84 524.1 18.264C524.484 17.688 525.084 17.24 525.9 16.92C526.716 16.584 527.78 16.416 529.092 16.416H532.524V18.6H529.5C528.62 18.6 528.012 18.744 527.676 19.032C527.356 19.32 527.196 19.68 527.196 20.112C527.196 20.592 527.38 20.976 527.748 21.264C528.132 21.536 528.652 21.672 529.308 21.672C529.932 21.672 530.492 21.528 530.988 21.24C531.484 20.936 531.844 20.496 532.068 19.92L532.644 21.648C532.372 22.48 531.876 23.112 531.156 23.544C530.436 23.976 529.508 24.192 528.372 24.192ZM543.545 24.192C542.441 24.192 541.377 24.064 540.353 23.808C539.345 23.536 538.545 23.2 537.953 22.8L539.201 20.112C539.793 20.48 540.489 20.784 541.289 21.024C542.105 21.248 542.905 21.36 543.689 21.36C544.553 21.36 545.161 21.256 545.513 21.048C545.881 20.84 546.065 20.552 546.065 20.184C546.065 19.88 545.921 19.656 545.633 19.512C545.361 19.352 544.993 19.232 544.529 19.152C544.065 19.072 543.553 18.992 542.993 18.912C542.449 18.832 541.897 18.728 541.337 18.6C540.777 18.456 540.265 18.248 539.801 17.976C539.337 17.704 538.961 17.336 538.673 16.872C538.401 16.408 538.265 15.808 538.265 15.072C538.265 14.256 538.497 13.536 538.961 12.912C539.441 12.288 540.129 11.8 541.025 11.448C541.921 11.08 542.993 10.896 544.241 10.896C545.121 10.896 546.017 10.992 546.929 11.184C547.841 11.376 548.601 11.656 549.209 12.024L547.961 14.688C547.337 14.32 546.705 14.072 546.065 13.944C545.441 13.8 544.833 13.728 544.241 13.728C543.409 13.728 542.801 13.84 542.417 14.064C542.033 14.288 541.841 14.576 541.841 14.928C541.841 15.248 541.977 15.488 542.249 15.648C542.537 15.808 542.913 15.936 543.377 16.032C543.841 16.128 544.345 16.216 544.889 16.296C545.449 16.36 546.009 16.464 546.569 16.608C547.129 16.752 547.633 16.96 548.081 17.232C548.545 17.488 548.921 17.848 549.209 18.312C549.497 18.76 549.641 19.352 549.641 20.088C549.641 20.888 549.401 21.6 548.921 22.224C548.441 22.832 547.745 23.312 546.833 23.664C545.937 24.016 544.841 24.192 543.545 24.192ZM422.787 53V40.088H426.363V43.736L425.859 42.68C426.243 41.768 426.859 41.08 427.707 40.616C428.555 40.136 429.587 39.896 430.803 39.896V43.352C430.643 43.336 430.499 43.328 430.371 43.328C430.243 43.312 430.107 43.304 429.963 43.304C428.939 43.304 428.107 43.6 427.467 44.192C426.843 44.768 426.531 45.672 426.531 46.904V53H422.787ZM439.343 53.192C437.871 53.192 436.575 52.904 435.455 52.328C434.351 51.752 433.495 50.968 432.887 49.976C432.279 48.968 431.975 47.824 431.975 46.544C431.975 45.248 432.271 44.104 432.863 43.112C433.471 42.104 434.295 41.32 435.335 40.76C436.375 40.184 437.551 39.896 438.863 39.896C440.127 39.896 441.263 40.168 442.271 40.712C443.295 41.24 444.103 42.008 444.695 43.016C445.287 44.008 445.583 45.2 445.583 46.592C445.583 46.736 445.575 46.904 445.559 47.096C445.543 47.272 445.527 47.44 445.511 47.6H435.023V45.416H443.543L442.103 46.064C442.103 45.392 441.967 44.808 441.695 44.312C441.423 43.816 441.047 43.432 440.567 43.16C440.087 42.872 439.527 42.728 438.887 42.728C438.247 42.728 437.679 42.872 437.183 43.16C436.703 43.432 436.327 43.824 436.055 44.336C435.783 44.832 435.647 45.424 435.647 46.112V46.688C435.647 47.392 435.799 48.016 436.103 48.56C436.423 49.088 436.863 49.496 437.423 49.784C437.999 50.056 438.671 50.192 439.439 50.192C440.127 50.192 440.727 50.088 441.239 49.88C441.767 49.672 442.247 49.36 442.679 48.944L444.671 51.104C444.079 51.776 443.335 52.296 442.439 52.664C441.543 53.016 440.511 53.192 439.343 53.192ZM453.524 53.192C452.452 53.192 451.492 52.984 450.644 52.568C449.812 52.152 449.164 51.52 448.7 50.672C448.236 49.808 448.004 48.712 448.004 47.384V40.088H451.748V46.832C451.748 47.904 451.972 48.696 452.42 49.208C452.884 49.704 453.532 49.952 454.364 49.952C454.94 49.952 455.452 49.832 455.9 49.592C456.348 49.336 456.7 48.952 456.956 48.44C457.212 47.912 457.34 47.256 457.34 46.472V40.088H461.084V53H457.532V49.448L458.18 50.48C457.748 51.376 457.108 52.056 456.26 52.52C455.428 52.968 454.516 53.192 453.524 53.192ZM472.4 39.896C473.424 39.896 474.336 40.104 475.136 40.52C475.952 40.92 476.592 41.544 477.056 42.392C477.52 43.224 477.752 44.296 477.752 45.608V53H474.008V46.184C474.008 45.144 473.776 44.376 473.312 43.88C472.864 43.384 472.224 43.136 471.392 43.136C470.8 43.136 470.264 43.264 469.784 43.52C469.32 43.76 468.952 44.136 468.68 44.648C468.424 45.16 468.296 45.816 468.296 46.616V53H464.552V40.088H468.128V43.664L467.456 42.584C467.92 41.72 468.584 41.056 469.448 40.592C470.312 40.128 471.296 39.896 472.4 39.896ZM481.146 53V40.088H484.89V53H481.146ZM483.018 38.288C482.33 38.288 481.77 38.088 481.338 37.688C480.906 37.288 480.69 36.792 480.69 36.2C480.69 35.608 480.906 35.112 481.338 34.712C481.77 34.312 482.33 34.112 483.018 34.112C483.706 34.112 484.266 34.304 484.698 34.688C485.13 35.056 485.346 35.536 485.346 36.128C485.346 36.752 485.13 37.272 484.698 37.688C484.282 38.088 483.722 38.288 483.018 38.288ZM494.509 53.192C493.133 53.192 491.909 52.904 490.837 52.328C489.781 51.752 488.941 50.968 488.317 49.976C487.709 48.968 487.405 47.824 487.405 46.544C487.405 45.248 487.709 44.104 488.317 43.112C488.941 42.104 489.781 41.32 490.837 40.76C491.909 40.184 493.133 39.896 494.509 39.896C495.869 39.896 497.085 40.184 498.157 40.76C499.229 41.32 500.069 42.096 500.677 43.088C501.285 44.08 501.589 45.232 501.589 46.544C501.589 47.824 501.285 48.968 500.677 49.976C500.069 50.968 499.229 51.752 498.157 52.328C497.085 52.904 495.869 53.192 494.509 53.192ZM494.509 50.12C495.133 50.12 495.693 49.976 496.189 49.688C496.685 49.4 497.077 48.992 497.365 48.464C497.653 47.92 497.797 47.28 497.797 46.544C497.797 45.792 497.653 45.152 497.365 44.624C497.077 44.096 496.685 43.688 496.189 43.4C495.693 43.112 495.133 42.968 494.509 42.968C493.885 42.968 493.325 43.112 492.829 43.4C492.333 43.688 491.933 44.096 491.629 44.624C491.341 45.152 491.197 45.792 491.197 46.544C491.197 47.28 491.341 47.92 491.629 48.464C491.933 48.992 492.333 49.4 492.829 49.688C493.325 49.976 493.885 50.12 494.509 50.12ZM511.939 39.896C512.963 39.896 513.875 40.104 514.675 40.52C515.491 40.92 516.131 41.544 516.595 42.392C517.059 43.224 517.291 44.296 517.291 45.608V53H513.547V46.184C513.547 45.144 513.315 44.376 512.851 43.88C512.403 43.384 511.763 43.136 510.931 43.136C510.339 43.136 509.803 43.264 509.323 43.52C508.859 43.76 508.491 44.136 508.219 44.648C507.963 45.16 507.835 45.816 507.835 46.616V53H504.091V40.088H507.667V43.664L506.995 42.584C507.459 41.72 508.123 41.056 508.987 40.592C509.851 40.128 510.835 39.896 511.939 39.896ZM527.187 53.192C525.715 53.192 524.419 52.904 523.299 52.328C522.195 51.752 521.339 50.968 520.731 49.976C520.123 48.968 519.819 47.824 519.819 46.544C519.819 45.248 520.115 44.104 520.707 43.112C521.315 42.104 522.139 41.32 523.179 40.76C524.219 40.184 525.395 39.896 526.707 39.896C527.971 39.896 529.107 40.168 530.115 40.712C531.139 41.24 531.947 42.008 532.539 43.016C533.131 44.008 533.427 45.2 533.427 46.592C533.427 46.736 533.419 46.904 533.403 47.096C533.387 47.272 533.371 47.44 533.355 47.6H522.867V45.416H531.387L529.947 46.064C529.947 45.392 529.811 44.808 529.539 44.312C529.267 43.816 528.891 43.432 528.411 43.16C527.931 42.872 527.371 42.728 526.731 42.728C526.091 42.728 525.523 42.872 525.027 43.16C524.547 43.432 524.171 43.824 523.899 44.336C523.627 44.832 523.491 45.424 523.491 46.112V46.688C523.491 47.392 523.643 48.016 523.947 48.56C524.267 49.088 524.707 49.496 525.267 49.784C525.843 50.056 526.515 50.192 527.283 50.192C527.971 50.192 528.571 50.088 529.083 49.88C529.611 49.672 530.091 49.36 530.523 48.944L532.515 51.104C531.923 51.776 531.179 52.296 530.283 52.664C529.387 53.016 528.355 53.192 527.187 53.192ZM540.263 53.192C539.159 53.192 538.095 53.064 537.071 52.808C536.063 52.536 535.263 52.2 534.671 51.8L535.919 49.112C536.511 49.48 537.207 49.784 538.007 50.024C538.823 50.248 539.623 50.36 540.407 50.36C541.271 50.36 541.879 50.256 542.231 50.048C542.599 49.84 542.783 49.552 542.783 49.184C542.783 48.88 542.639 48.656 542.351 48.512C542.079 48.352 541.711 48.232 541.247 48.152C540.783 48.072 540.271 47.992 539.711 47.912C539.167 47.832 538.615 47.728 538.055 47.6C537.495 47.456 536.983 47.248 536.519 46.976C536.055 46.704 535.679 46.336 535.391 45.872C535.119 45.408 534.983 44.808 534.983 44.072C534.983 43.256 535.215 42.536 535.679 41.912C536.159 41.288 536.847 40.8 537.743 40.448C538.639 40.08 539.711 39.896 540.959 39.896C541.839 39.896 542.735 39.992 543.647 40.184C544.559 40.376 545.319 40.656 545.927 41.024L544.679 43.688C544.055 43.32 543.423 43.072 542.783 42.944C542.159 42.8 541.551 42.728 540.959 42.728C540.127 42.728 539.519 42.84 539.135 43.064C538.751 43.288 538.559 43.576 538.559 43.928C538.559 44.248 538.695 44.488 538.967 44.648C539.255 44.808 539.631 44.936 540.095 45.032C540.559 45.128 541.063 45.216 541.607 45.296C542.167 45.36 542.727 45.464 543.287 45.608C543.847 45.752 544.351 45.96 544.799 46.232C545.263 46.488 545.639 46.848 545.927 47.312C546.215 47.76 546.359 48.352 546.359 49.088C546.359 49.888 546.119 50.6 545.639 51.224C545.159 51.832 544.463 52.312 543.551 52.664C542.655 53.016 541.559 53.192 540.263 53.192Z" fill="#87549F"/>
</svg>
