<svg width="998" height="375" viewBox="0 0 998 375" fill="none" xmlns="http://www.w3.org/2000/svg">
<path d="M669.219 341.288C667.875 341.288 666.587 341.112 665.355 340.76C664.123 340.392 663.131 339.92 662.379 339.344L663.699 336.416C664.419 336.928 665.267 337.352 666.243 337.688C667.235 338.008 668.235 338.168 669.243 338.168C670.011 338.168 670.627 338.096 671.091 337.952C671.571 337.792 671.923 337.576 672.147 337.304C672.371 337.032 672.483 336.72 672.483 336.368C672.483 335.92 672.307 335.568 671.955 335.312C671.603 335.04 671.139 334.824 670.563 334.664C669.987 334.488 669.347 334.328 668.643 334.184C667.955 334.024 667.259 333.832 666.555 333.608C665.867 333.384 665.235 333.096 664.659 332.744C664.083 332.392 663.611 331.928 663.243 331.352C662.891 330.776 662.715 330.04 662.715 329.144C662.715 328.184 662.971 327.312 663.483 326.528C664.011 325.728 664.795 325.096 665.835 324.632C666.891 324.152 668.211 323.912 669.795 323.912C670.851 323.912 671.891 324.04 672.915 324.296C673.939 324.536 674.843 324.904 675.627 325.4L674.427 328.352C673.643 327.904 672.859 327.576 672.075 327.368C671.291 327.144 670.523 327.032 669.771 327.032C669.019 327.032 668.403 327.12 667.923 327.296C667.443 327.472 667.099 327.704 666.891 327.992C666.683 328.264 666.579 328.584 666.579 328.952C666.579 329.384 666.755 329.736 667.107 330.008C667.459 330.264 667.923 330.472 668.499 330.632C669.075 330.792 669.707 330.952 670.395 331.112C671.099 331.272 671.795 331.456 672.483 331.664C673.187 331.872 673.827 332.152 674.403 332.504C674.979 332.856 675.443 333.32 675.795 333.896C676.163 334.472 676.347 335.2 676.347 336.08C676.347 337.024 676.083 337.888 675.555 338.672C675.027 339.456 674.235 340.088 673.179 340.568C672.139 341.048 670.819 341.288 669.219 341.288ZM678.74 341V328.088H682.484V341H678.74ZM680.612 326.288C679.924 326.288 679.364 326.088 678.932 325.688C678.5 325.288 678.284 324.792 678.284 324.2C678.284 323.608 678.5 323.112 678.932 322.712C679.364 322.312 679.924 322.112 680.612 322.112C681.3 322.112 681.86 322.304 682.292 322.688C682.724 323.056 682.94 323.536 682.94 324.128C682.94 324.752 682.724 325.272 682.292 325.688C681.876 326.088 681.316 326.288 680.612 326.288ZM702.494 327.896C703.518 327.896 704.422 328.104 705.206 328.52C706.006 328.92 706.63 329.544 707.078 330.392C707.542 331.224 707.774 332.296 707.774 333.608V341H704.03V334.184C704.03 333.144 703.814 332.376 703.382 331.88C702.95 331.384 702.342 331.136 701.558 331.136C701.014 331.136 700.526 331.264 700.094 331.52C699.662 331.76 699.326 332.128 699.086 332.624C698.846 333.12 698.726 333.752 698.726 334.52V341H694.982V334.184C694.982 333.144 694.766 332.376 694.334 331.88C693.918 331.384 693.318 331.136 692.534 331.136C691.99 331.136 691.502 331.264 691.07 331.52C690.638 331.76 690.302 332.128 690.062 332.624C689.822 333.12 689.702 333.752 689.702 334.52V341H685.958V328.088H689.534V331.616L688.862 330.584C689.31 329.704 689.942 329.04 690.758 328.592C691.59 328.128 692.534 327.896 693.59 327.896C694.774 327.896 695.806 328.2 696.686 328.808C697.582 329.4 698.174 330.312 698.462 331.544L697.142 331.184C697.574 330.176 698.262 329.376 699.206 328.784C700.166 328.192 701.262 327.896 702.494 327.896ZM718.762 341.192C717.674 341.192 716.722 340.952 715.906 340.472C715.09 339.992 714.45 339.264 713.986 338.288C713.538 337.296 713.314 336.048 713.314 334.544C713.314 333.024 713.53 331.776 713.962 330.8C714.394 329.824 715.018 329.096 715.834 328.616C716.65 328.136 717.626 327.896 718.762 327.896C719.978 327.896 721.066 328.176 722.026 328.736C723.002 329.28 723.77 330.048 724.33 331.04C724.906 332.032 725.194 333.2 725.194 334.544C725.194 335.904 724.906 337.08 724.33 338.072C723.77 339.064 723.002 339.832 722.026 340.376C721.066 340.92 719.978 341.192 718.762 341.192ZM711.13 345.656V328.088H714.706V330.728L714.634 334.568L714.874 338.384V345.656H711.13ZM718.114 338.12C718.738 338.12 719.29 337.976 719.77 337.688C720.266 337.4 720.658 336.992 720.946 336.464C721.25 335.92 721.402 335.28 721.402 334.544C721.402 333.792 721.25 333.152 720.946 332.624C720.658 332.096 720.266 331.688 719.77 331.4C719.29 331.112 718.738 330.968 718.114 330.968C717.49 330.968 716.93 331.112 716.434 331.4C715.938 331.688 715.546 332.096 715.258 332.624C714.97 333.152 714.826 333.792 714.826 334.544C714.826 335.28 714.97 335.92 715.258 336.464C715.546 336.992 715.938 337.4 716.434 337.688C716.93 337.976 717.49 338.12 718.114 338.12ZM727.701 341V323.192H731.445V341H727.701ZM734.919 341V328.088H738.663V341H734.919ZM736.791 326.288C736.103 326.288 735.543 326.088 735.111 325.688C734.679 325.288 734.463 324.792 734.463 324.2C734.463 323.608 734.679 323.112 735.111 322.712C735.543 322.312 736.103 322.112 736.791 322.112C737.479 322.112 738.039 322.304 738.471 322.688C738.903 323.056 739.119 323.536 739.119 324.128C739.119 324.752 738.903 325.272 738.471 325.688C738.055 326.088 737.495 326.288 736.791 326.288ZM742.594 341V327.8C742.594 326.344 743.026 325.184 743.89 324.32C744.754 323.44 745.986 323 747.586 323C748.13 323 748.65 323.056 749.146 323.168C749.658 323.28 750.09 323.456 750.442 323.696L749.458 326.408C749.25 326.264 749.018 326.152 748.762 326.072C748.506 325.992 748.234 325.952 747.946 325.952C747.402 325.952 746.978 326.112 746.674 326.432C746.386 326.736 746.242 327.2 746.242 327.824V329.024L746.338 330.632V341H742.594ZM740.602 331.256V328.376H749.554V331.256H740.602ZM751.666 341V328.088H755.41V341H751.666ZM753.538 326.288C752.85 326.288 752.29 326.088 751.858 325.688C751.426 325.288 751.21 324.792 751.21 324.2C751.21 323.608 751.426 323.112 751.858 322.712C752.29 322.312 752.85 322.112 753.538 322.112C754.226 322.112 754.786 322.304 755.218 322.688C755.65 323.056 755.866 323.536 755.866 324.128C755.866 324.752 755.65 325.272 755.218 325.688C754.802 326.088 754.242 326.288 753.538 326.288ZM765.113 341.192C763.721 341.192 762.481 340.912 761.393 340.352C760.305 339.776 759.449 338.984 758.825 337.976C758.217 336.968 757.913 335.824 757.913 334.544C757.913 333.248 758.217 332.104 758.825 331.112C759.449 330.104 760.305 329.32 761.393 328.76C762.481 328.184 763.721 327.896 765.113 327.896C766.473 327.896 767.657 328.184 768.665 328.76C769.673 329.32 770.417 330.128 770.897 331.184L767.993 332.744C767.657 332.136 767.233 331.688 766.721 331.4C766.225 331.112 765.681 330.968 765.089 330.968C764.449 330.968 763.873 331.112 763.361 331.4C762.849 331.688 762.441 332.096 762.137 332.624C761.849 333.152 761.705 333.792 761.705 334.544C761.705 335.296 761.849 335.936 762.137 336.464C762.441 336.992 762.849 337.4 763.361 337.688C763.873 337.976 764.449 338.12 765.089 338.12C765.681 338.12 766.225 337.984 766.721 337.712C767.233 337.424 767.657 336.968 767.993 336.344L770.897 337.928C770.417 338.968 769.673 339.776 768.665 340.352C767.657 340.912 766.473 341.192 765.113 341.192ZM780.972 341V338.48L780.732 337.928V333.416C780.732 332.616 780.484 331.992 779.988 331.544C779.508 331.096 778.764 330.872 777.756 330.872C777.068 330.872 776.388 330.984 775.716 331.208C775.06 331.416 774.5 331.704 774.036 332.072L772.692 329.456C773.396 328.96 774.244 328.576 775.236 328.304C776.228 328.032 777.236 327.896 778.26 327.896C780.228 327.896 781.756 328.36 782.844 329.288C783.932 330.216 784.476 331.664 784.476 333.632V341H780.972ZM777.036 341.192C776.028 341.192 775.164 341.024 774.444 340.688C773.724 340.336 773.172 339.864 772.788 339.272C772.404 338.68 772.212 338.016 772.212 337.28C772.212 336.512 772.396 335.84 772.764 335.264C773.148 334.688 773.748 334.24 774.564 333.92C775.38 333.584 776.444 333.416 777.756 333.416H781.188V335.6H778.164C777.284 335.6 776.676 335.744 776.34 336.032C776.02 336.32 775.86 336.68 775.86 337.112C775.86 337.592 776.044 337.976 776.412 338.264C776.796 338.536 777.316 338.672 777.972 338.672C778.596 338.672 779.156 338.528 779.652 338.24C780.148 337.936 780.508 337.496 780.732 336.92L781.308 338.648C781.036 339.48 780.54 340.112 779.82 340.544C779.1 340.976 778.172 341.192 777.036 341.192ZM801.07 341.192C799.598 341.192 798.302 340.904 797.182 340.328C796.078 339.752 795.222 338.968 794.614 337.976C794.006 336.968 793.702 335.824 793.702 334.544C793.702 333.248 793.998 332.104 794.59 331.112C795.198 330.104 796.022 329.32 797.062 328.76C798.102 328.184 799.278 327.896 800.59 327.896C801.854 327.896 802.99 328.168 803.998 328.712C805.022 329.24 805.83 330.008 806.422 331.016C807.014 332.008 807.31 333.2 807.31 334.592C807.31 334.736 807.302 334.904 807.286 335.096C807.27 335.272 807.254 335.44 807.238 335.6H796.75V333.416H805.27L803.83 334.064C803.83 333.392 803.694 332.808 803.422 332.312C803.15 331.816 802.774 331.432 802.294 331.16C801.814 330.872 801.254 330.728 800.614 330.728C799.974 330.728 799.406 330.872 798.91 331.16C798.43 331.432 798.054 331.824 797.782 332.336C797.51 332.832 797.374 333.424 797.374 334.112V334.688C797.374 335.392 797.526 336.016 797.83 336.56C798.15 337.088 798.59 337.496 799.15 337.784C799.726 338.056 800.398 338.192 801.166 338.192C801.854 338.192 802.454 338.088 802.966 337.88C803.494 337.672 803.974 337.36 804.406 336.944L806.398 339.104C805.806 339.776 805.062 340.296 804.166 340.664C803.27 341.016 802.238 341.192 801.07 341.192ZM809.802 341V323.192H813.546V341H809.802ZM637.425 370.192C636.033 370.192 634.793 369.912 633.705 369.352C632.617 368.776 631.761 367.984 631.137 366.976C630.529 365.968 630.225 364.824 630.225 363.544C630.225 362.248 630.529 361.104 631.137 360.112C631.761 359.104 632.617 358.32 633.705 357.76C634.793 357.184 636.033 356.896 637.425 356.896C638.785 356.896 639.969 357.184 640.977 357.76C641.985 358.32 642.729 359.128 643.209 360.184L640.305 361.744C639.969 361.136 639.545 360.688 639.033 360.4C638.537 360.112 637.993 359.968 637.401 359.968C636.761 359.968 636.185 360.112 635.673 360.4C635.161 360.688 634.753 361.096 634.449 361.624C634.161 362.152 634.017 362.792 634.017 363.544C634.017 364.296 634.161 364.936 634.449 365.464C634.753 365.992 635.161 366.4 635.673 366.688C636.185 366.976 636.761 367.12 637.401 367.12C637.993 367.12 638.537 366.984 639.033 366.712C639.545 366.424 639.969 365.968 640.305 365.344L643.209 366.928C642.729 367.968 641.985 368.776 640.977 369.352C639.969 369.912 638.785 370.192 637.425 370.192ZM651.345 370.192C649.969 370.192 648.745 369.904 647.673 369.328C646.617 368.752 645.777 367.968 645.153 366.976C644.545 365.968 644.241 364.824 644.241 363.544C644.241 362.248 644.545 361.104 645.153 360.112C645.777 359.104 646.617 358.32 647.673 357.76C648.745 357.184 649.969 356.896 651.345 356.896C652.705 356.896 653.921 357.184 654.993 357.76C656.065 358.32 656.905 359.096 657.513 360.088C658.121 361.08 658.425 362.232 658.425 363.544C658.425 364.824 658.121 365.968 657.513 366.976C656.905 367.968 656.065 368.752 654.993 369.328C653.921 369.904 652.705 370.192 651.345 370.192ZM651.345 367.12C651.969 367.12 652.529 366.976 653.025 366.688C653.521 366.4 653.913 365.992 654.201 365.464C654.489 364.92 654.633 364.28 654.633 363.544C654.633 362.792 654.489 362.152 654.201 361.624C653.913 361.096 653.521 360.688 653.025 360.4C652.529 360.112 651.969 359.968 651.345 359.968C650.721 359.968 650.161 360.112 649.665 360.4C649.169 360.688 648.769 361.096 648.465 361.624C648.177 362.152 648.033 362.792 648.033 363.544C648.033 364.28 648.177 364.92 648.465 365.464C648.769 365.992 649.169 366.4 649.665 366.688C650.161 366.976 650.721 367.12 651.345 367.12ZM668.775 356.896C669.799 356.896 670.711 357.104 671.511 357.52C672.327 357.92 672.967 358.544 673.431 359.392C673.895 360.224 674.127 361.296 674.127 362.608V370H670.383V363.184C670.383 362.144 670.151 361.376 669.687 360.88C669.239 360.384 668.599 360.136 667.767 360.136C667.175 360.136 666.639 360.264 666.159 360.52C665.695 360.76 665.327 361.136 665.055 361.648C664.799 362.16 664.671 362.816 664.671 363.616V370H660.927V357.088H664.503V360.664L663.831 359.584C664.295 358.72 664.959 358.056 665.823 357.592C666.687 357.128 667.671 356.896 668.775 356.896ZM682.801 370.192C681.281 370.192 680.097 369.808 679.249 369.04C678.401 368.256 677.977 367.096 677.977 365.56V354.232H681.721V365.512C681.721 366.056 681.865 366.48 682.153 366.784C682.441 367.072 682.833 367.216 683.329 367.216C683.921 367.216 684.425 367.056 684.841 366.736L685.849 369.376C685.465 369.648 685.001 369.856 684.457 370C683.929 370.128 683.377 370.192 682.801 370.192ZM675.985 360.256V357.376H684.937V360.256H675.985ZM687.951 370V357.088H691.527V360.736L691.023 359.68C691.407 358.768 692.023 358.08 692.871 357.616C693.719 357.136 694.751 356.896 695.967 356.896V360.352C695.807 360.336 695.663 360.328 695.535 360.328C695.407 360.312 695.271 360.304 695.127 360.304C694.103 360.304 693.271 360.6 692.631 361.192C692.007 361.768 691.695 362.672 691.695 363.904V370H687.951ZM704.243 370.192C702.867 370.192 701.643 369.904 700.571 369.328C699.515 368.752 698.675 367.968 698.051 366.976C697.443 365.968 697.139 364.824 697.139 363.544C697.139 362.248 697.443 361.104 698.051 360.112C698.675 359.104 699.515 358.32 700.571 357.76C701.643 357.184 702.867 356.896 704.243 356.896C705.603 356.896 706.819 357.184 707.891 357.76C708.963 358.32 709.803 359.096 710.411 360.088C711.019 361.08 711.323 362.232 711.323 363.544C711.323 364.824 711.019 365.968 710.411 366.976C709.803 367.968 708.963 368.752 707.891 369.328C706.819 369.904 705.603 370.192 704.243 370.192ZM704.243 367.12C704.867 367.12 705.427 366.976 705.923 366.688C706.419 366.4 706.811 365.992 707.099 365.464C707.387 364.92 707.531 364.28 707.531 363.544C707.531 362.792 707.387 362.152 707.099 361.624C706.811 361.096 706.419 360.688 705.923 360.4C705.427 360.112 704.867 359.968 704.243 359.968C703.619 359.968 703.059 360.112 702.563 360.4C702.067 360.688 701.667 361.096 701.363 361.624C701.075 362.152 700.931 362.792 700.931 363.544C700.931 364.28 701.075 364.92 701.363 365.464C701.667 365.992 702.067 366.4 702.563 366.688C703.059 366.976 703.619 367.12 704.243 367.12ZM713.826 370V352.192H717.57V370H713.826ZM733.385 370.192C732.169 370.192 731.073 369.92 730.097 369.376C729.121 368.816 728.345 368.04 727.769 367.048C727.209 366.056 726.929 364.888 726.929 363.544C726.929 362.184 727.209 361.008 727.769 360.016C728.345 359.024 729.121 358.256 730.097 357.712C731.073 357.168 732.169 356.896 733.385 356.896C734.473 356.896 735.425 357.136 736.241 357.616C737.057 358.096 737.689 358.824 738.137 359.8C738.585 360.776 738.809 362.024 738.809 363.544C738.809 365.048 738.593 366.296 738.161 367.288C737.729 368.264 737.105 368.992 736.289 369.472C735.489 369.952 734.521 370.192 733.385 370.192ZM734.033 367.12C734.641 367.12 735.193 366.976 735.689 366.688C736.185 366.4 736.577 365.992 736.865 365.464C737.169 364.92 737.321 364.28 737.321 363.544C737.321 362.792 737.169 362.152 736.865 361.624C736.577 361.096 736.185 360.688 735.689 360.4C735.193 360.112 734.641 359.968 734.033 359.968C733.409 359.968 732.849 360.112 732.353 360.4C731.857 360.688 731.457 361.096 731.153 361.624C730.865 362.152 730.721 362.792 730.721 363.544C730.721 364.28 730.865 364.92 731.153 365.464C731.457 365.992 731.857 366.4 732.353 366.688C732.849 366.976 733.409 367.12 734.033 367.12ZM737.417 370V367.36L737.489 363.52L737.249 359.704V352.192H740.993V370H737.417ZM750.866 370.192C749.394 370.192 748.098 369.904 746.978 369.328C745.874 368.752 745.018 367.968 744.41 366.976C743.802 365.968 743.498 364.824 743.498 363.544C743.498 362.248 743.794 361.104 744.386 360.112C744.994 359.104 745.818 358.32 746.858 357.76C747.898 357.184 749.074 356.896 750.386 356.896C751.65 356.896 752.786 357.168 753.794 357.712C754.818 358.24 755.626 359.008 756.218 360.016C756.81 361.008 757.106 362.2 757.106 363.592C757.106 363.736 757.098 363.904 757.082 364.096C757.066 364.272 757.05 364.44 757.034 364.6H746.546V362.416H755.066L753.626 363.064C753.626 362.392 753.49 361.808 753.218 361.312C752.946 360.816 752.57 360.432 752.09 360.16C751.61 359.872 751.05 359.728 750.41 359.728C749.77 359.728 749.202 359.872 748.706 360.16C748.226 360.432 747.85 360.824 747.578 361.336C747.306 361.832 747.17 362.424 747.17 363.112V363.688C747.17 364.392 747.322 365.016 747.626 365.56C747.946 366.088 748.386 366.496 748.946 366.784C749.522 367.056 750.194 367.192 750.962 367.192C751.65 367.192 752.25 367.088 752.762 366.88C753.29 366.672 753.77 366.36 754.202 365.944L756.194 368.104C755.602 368.776 754.858 369.296 753.962 369.664C753.066 370.016 752.034 370.192 750.866 370.192ZM772.468 374.848C771.252 374.848 770.076 374.696 768.94 374.392C767.82 374.104 766.884 373.664 766.132 373.072L767.62 370.384C768.164 370.832 768.852 371.184 769.684 371.44C770.532 371.712 771.364 371.848 772.18 371.848C773.508 371.848 774.468 371.552 775.06 370.96C775.668 370.368 775.972 369.488 775.972 368.32V366.376L776.212 363.136L776.164 359.872V357.088H779.716V367.84C779.716 370.24 779.092 372.008 777.844 373.144C776.596 374.28 774.804 374.848 772.468 374.848ZM771.892 369.376C770.692 369.376 769.604 369.12 768.628 368.608C767.668 368.08 766.892 367.352 766.3 366.424C765.724 365.48 765.436 364.384 765.436 363.136C765.436 361.872 765.724 360.776 766.3 359.848C766.892 358.904 767.668 358.176 768.628 357.664C769.604 357.152 770.692 356.896 771.892 356.896C772.98 356.896 773.94 357.12 774.772 357.568C775.604 358 776.252 358.68 776.716 359.608C777.18 360.52 777.412 361.696 777.412 363.136C777.412 364.56 777.18 365.736 776.716 366.664C776.252 367.576 775.604 368.256 774.772 368.704C773.94 369.152 772.98 369.376 771.892 369.376ZM772.636 366.304C773.292 366.304 773.876 366.176 774.388 365.92C774.9 365.648 775.3 365.272 775.588 364.792C775.876 364.312 776.02 363.76 776.02 363.136C776.02 362.496 775.876 361.944 775.588 361.48C775.3 361 774.9 360.632 774.388 360.376C773.876 360.104 773.292 359.968 772.636 359.968C771.98 359.968 771.396 360.104 770.884 360.376C770.372 360.632 769.964 361 769.66 361.48C769.372 361.944 769.228 362.496 769.228 363.136C769.228 363.76 769.372 364.312 769.66 364.792C769.964 365.272 770.372 365.648 770.884 365.92C771.396 366.176 771.98 366.304 772.636 366.304ZM791.121 370V367.48L790.881 366.928V362.416C790.881 361.616 790.633 360.992 790.137 360.544C789.657 360.096 788.913 359.872 787.905 359.872C787.217 359.872 786.537 359.984 785.865 360.208C785.209 360.416 784.649 360.704 784.185 361.072L782.841 358.456C783.545 357.96 784.393 357.576 785.385 357.304C786.377 357.032 787.385 356.896 788.409 356.896C790.377 356.896 791.905 357.36 792.993 358.288C794.081 359.216 794.625 360.664 794.625 362.632V370H791.121ZM787.185 370.192C786.177 370.192 785.313 370.024 784.593 369.688C783.873 369.336 783.321 368.864 782.937 368.272C782.553 367.68 782.361 367.016 782.361 366.28C782.361 365.512 782.545 364.84 782.913 364.264C783.297 363.688 783.897 363.24 784.713 362.92C785.529 362.584 786.593 362.416 787.905 362.416H791.337V364.6H788.313C787.433 364.6 786.825 364.744 786.489 365.032C786.169 365.32 786.009 365.68 786.009 366.112C786.009 366.592 786.193 366.976 786.561 367.264C786.945 367.536 787.465 367.672 788.121 367.672C788.745 367.672 789.305 367.528 789.801 367.24C790.297 366.936 790.657 366.496 790.881 365.92L791.457 367.648C791.185 368.48 790.689 369.112 789.969 369.544C789.249 369.976 788.321 370.192 787.185 370.192ZM802.357 370.192C801.253 370.192 800.189 370.064 799.165 369.808C798.157 369.536 797.357 369.2 796.765 368.8L798.013 366.112C798.605 366.48 799.301 366.784 800.101 367.024C800.917 367.248 801.717 367.36 802.501 367.36C803.365 367.36 803.973 367.256 804.325 367.048C804.693 366.84 804.877 366.552 804.877 366.184C804.877 365.88 804.733 365.656 804.445 365.512C804.173 365.352 803.805 365.232 803.341 365.152C802.877 365.072 802.365 364.992 801.805 364.912C801.261 364.832 800.709 364.728 800.149 364.6C799.589 364.456 799.077 364.248 798.613 363.976C798.149 363.704 797.773 363.336 797.485 362.872C797.213 362.408 797.077 361.808 797.077 361.072C797.077 360.256 797.309 359.536 797.773 358.912C798.253 358.288 798.941 357.8 799.837 357.448C800.733 357.08 801.805 356.896 803.053 356.896C803.933 356.896 804.829 356.992 805.741 357.184C806.653 357.376 807.413 357.656 808.021 358.024L806.773 360.688C806.149 360.32 805.517 360.072 804.877 359.944C804.253 359.8 803.645 359.728 803.053 359.728C802.221 359.728 801.613 359.84 801.229 360.064C800.845 360.288 800.653 360.576 800.653 360.928C800.653 361.248 800.789 361.488 801.061 361.648C801.349 361.808 801.725 361.936 802.189 362.032C802.653 362.128 803.157 362.216 803.701 362.296C804.261 362.36 804.821 362.464 805.381 362.608C805.941 362.752 806.445 362.96 806.893 363.232C807.357 363.488 807.733 363.848 808.021 364.312C808.309 364.76 808.453 365.352 808.453 366.088C808.453 366.888 808.213 367.6 807.733 368.224C807.253 368.832 806.557 369.312 805.645 369.664C804.749 370.016 803.653 370.192 802.357 370.192ZM816.043 370.192C814.523 370.192 813.339 369.808 812.491 369.04C811.643 368.256 811.219 367.096 811.219 365.56V354.232H814.963V365.512C814.963 366.056 815.107 366.48 815.395 366.784C815.683 367.072 816.075 367.216 816.571 367.216C817.163 367.216 817.667 367.056 818.083 366.736L819.091 369.376C818.707 369.648 818.243 369.856 817.699 370C817.171 370.128 816.619 370.192 816.043 370.192ZM809.227 360.256V357.376H818.179V360.256H809.227ZM826.938 370.192C825.562 370.192 824.338 369.904 823.266 369.328C822.21 368.752 821.37 367.968 820.746 366.976C820.138 365.968 819.834 364.824 819.834 363.544C819.834 362.248 820.138 361.104 820.746 360.112C821.37 359.104 822.21 358.32 823.266 357.76C824.338 357.184 825.562 356.896 826.938 356.896C828.298 356.896 829.514 357.184 830.586 357.76C831.658 358.32 832.498 359.096 833.106 360.088C833.714 361.08 834.018 362.232 834.018 363.544C834.018 364.824 833.714 365.968 833.106 366.976C832.498 367.968 831.658 368.752 830.586 369.328C829.514 369.904 828.298 370.192 826.938 370.192ZM826.938 367.12C827.562 367.12 828.122 366.976 828.618 366.688C829.114 366.4 829.506 365.992 829.794 365.464C830.082 364.92 830.226 364.28 830.226 363.544C830.226 362.792 830.082 362.152 829.794 361.624C829.506 361.096 829.114 360.688 828.618 360.4C828.122 360.112 827.562 359.968 826.938 359.968C826.314 359.968 825.754 360.112 825.258 360.4C824.762 360.688 824.362 361.096 824.058 361.624C823.77 362.152 823.626 362.792 823.626 363.544C823.626 364.28 823.77 364.92 824.058 365.464C824.362 365.992 824.762 366.4 825.258 366.688C825.754 366.976 826.314 367.12 826.938 367.12ZM840.865 370.192C839.761 370.192 838.697 370.064 837.673 369.808C836.665 369.536 835.865 369.2 835.273 368.8L836.521 366.112C837.113 366.48 837.809 366.784 838.609 367.024C839.425 367.248 840.225 367.36 841.009 367.36C841.873 367.36 842.481 367.256 842.833 367.048C843.201 366.84 843.385 366.552 843.385 366.184C843.385 365.88 843.241 365.656 842.953 365.512C842.681 365.352 842.313 365.232 841.849 365.152C841.385 365.072 840.873 364.992 840.313 364.912C839.769 364.832 839.217 364.728 838.657 364.6C838.097 364.456 837.585 364.248 837.121 363.976C836.657 363.704 836.281 363.336 835.993 362.872C835.721 362.408 835.585 361.808 835.585 361.072C835.585 360.256 835.817 359.536 836.281 358.912C836.761 358.288 837.449 357.8 838.345 357.448C839.241 357.08 840.313 356.896 841.561 356.896C842.441 356.896 843.337 356.992 844.249 357.184C845.161 357.376 845.921 357.656 846.529 358.024L845.281 360.688C844.657 360.32 844.025 360.072 843.385 359.944C842.761 359.8 842.153 359.728 841.561 359.728C840.729 359.728 840.121 359.84 839.737 360.064C839.353 360.288 839.161 360.576 839.161 360.928C839.161 361.248 839.297 361.488 839.569 361.648C839.857 361.808 840.233 361.936 840.697 362.032C841.161 362.128 841.665 362.216 842.209 362.296C842.769 362.36 843.329 362.464 843.889 362.608C844.449 362.752 844.953 362.96 845.401 363.232C845.865 363.488 846.241 363.848 846.529 364.312C846.817 364.76 846.961 365.352 846.961 366.088C846.961 366.888 846.721 367.6 846.241 368.224C845.761 368.832 845.065 369.312 844.153 369.664C843.257 370.016 842.161 370.192 840.865 370.192Z" fill="#87549F"/>
<path d="M3.646 185.482L7.77315 183.697" stroke="#253A74" stroke-width="7" stroke-linecap="round" stroke-linejoin="round"/>
<path d="M16.0044 180.147L320.343 48.7594C348.155 36.7549 382.46 45.678 396.967 68.6855C411.474 91.6994 400.691 120.086 372.887 132.091L231.71 193.037C203.899 205.042 193.123 233.429 207.63 256.443C222.137 279.457 256.442 288.373 284.254 276.369L712.478 91.5004C740.289 79.4959 774.594 88.419 789.101 111.426C803.608 134.434 792.825 162.827 765.021 174.832L649.251 224.808C621.44 236.812 610.664 265.199 625.171 288.213C639.678 311.227 673.983 320.143 701.795 308.139L985.312 185.745" stroke="#253A74" stroke-width="7" stroke-linecap="round" stroke-linejoin="round" stroke-dasharray="11.97 11.97"/>
<path d="M989.416 183.967L993.543 182.188" stroke="#253A74" stroke-width="7" stroke-linecap="round" stroke-linejoin="round"/>
<path d="M232.153 98.7873C240.4 98.7873 247.086 93.2547 247.086 86.4298C247.086 79.6049 240.4 74.0723 232.153 74.0723C223.905 74.0723 217.219 79.6049 217.219 86.4298C217.219 93.2547 223.905 98.7873 232.153 98.7873Z" fill="#7ECDCE"/>
<path d="M661.159 126.391C669.407 126.391 676.093 120.858 676.093 114.033C676.093 107.208 669.407 101.676 661.159 101.676C652.912 101.676 646.226 107.208 646.226 114.033C646.226 120.858 652.912 126.391 661.159 126.391Z" fill="#7ECDCE"/>
<path d="M317.876 271.792C326.124 271.792 332.81 266.26 332.81 259.435C332.81 252.61 326.124 247.077 317.876 247.077C309.628 247.077 302.942 252.61 302.942 259.435C302.942 266.26 309.628 271.792 317.876 271.792Z" fill="#7ECDCE"/>
<path d="M753.478 297.15C761.725 297.15 768.412 291.617 768.412 284.792C768.412 277.967 761.725 272.435 753.478 272.435C745.23 272.435 738.544 277.967 738.544 284.792C738.544 291.617 745.23 297.15 753.478 297.15Z" fill="#7ECDCE"/>
<path d="M257.894 313.812V297.012H265.526C267.35 297.012 268.958 297.364 270.35 298.068C271.742 298.756 272.83 299.724 273.614 300.972C274.398 302.22 274.79 303.7 274.79 305.412C274.79 307.108 274.398 308.588 273.614 309.852C272.83 311.1 271.742 312.076 270.35 312.78C268.958 313.468 267.35 313.812 265.526 313.812H257.894ZM261.782 310.62H265.334C266.454 310.62 267.422 310.412 268.238 309.996C269.07 309.564 269.71 308.956 270.158 308.172C270.622 307.388 270.854 306.468 270.854 305.412C270.854 304.34 270.622 303.42 270.158 302.652C269.71 301.868 269.07 301.268 268.238 300.852C267.422 300.42 266.454 300.204 265.334 300.204H261.782V310.62ZM277.458 313.812V300.9H281.202V313.812H277.458ZM279.33 299.1C278.642 299.1 278.082 298.9 277.65 298.5C277.218 298.1 277.002 297.604 277.002 297.012C277.002 296.42 277.218 295.924 277.65 295.524C278.082 295.124 278.642 294.924 279.33 294.924C280.018 294.924 280.578 295.116 281.01 295.5C281.442 295.868 281.658 296.348 281.658 296.94C281.658 297.564 281.442 298.084 281.01 298.5C280.594 298.9 280.034 299.1 279.33 299.1ZM288.181 313.812L282.757 300.9H286.621L291.133 312.012H289.213L293.893 300.9H297.493L292.045 313.812H288.181ZM299.02 313.812V300.9H302.764V313.812H299.02ZM300.892 299.1C300.204 299.1 299.644 298.9 299.212 298.5C298.78 298.1 298.564 297.604 298.564 297.012C298.564 296.42 298.78 295.924 299.212 295.524C299.644 295.124 300.204 294.924 300.892 294.924C301.58 294.924 302.14 295.116 302.572 295.5C303.004 295.868 303.22 296.348 303.22 296.94C303.22 297.564 303.004 298.084 302.572 298.5C302.156 298.9 301.596 299.1 300.892 299.1ZM311.783 314.004C310.567 314.004 309.471 313.732 308.495 313.188C307.519 312.628 306.743 311.852 306.167 310.86C305.607 309.868 305.327 308.7 305.327 307.356C305.327 305.996 305.607 304.82 306.167 303.828C306.743 302.836 307.519 302.068 308.495 301.524C309.471 300.98 310.567 300.708 311.783 300.708C312.871 300.708 313.823 300.948 314.639 301.428C315.455 301.908 316.087 302.636 316.535 303.612C316.983 304.588 317.207 305.836 317.207 307.356C317.207 308.86 316.991 310.108 316.559 311.1C316.127 312.076 315.503 312.804 314.687 313.284C313.887 313.764 312.919 314.004 311.783 314.004ZM312.431 310.932C313.039 310.932 313.591 310.788 314.087 310.5C314.583 310.212 314.975 309.804 315.263 309.276C315.567 308.732 315.719 308.092 315.719 307.356C315.719 306.604 315.567 305.964 315.263 305.436C314.975 304.908 314.583 304.5 314.087 304.212C313.591 303.924 313.039 303.78 312.431 303.78C311.807 303.78 311.247 303.924 310.751 304.212C310.255 304.5 309.855 304.908 309.551 305.436C309.263 305.964 309.119 306.604 309.119 307.356C309.119 308.092 309.263 308.732 309.551 309.276C309.855 309.804 310.255 310.212 310.751 310.5C311.247 310.788 311.807 310.932 312.431 310.932ZM315.815 313.812V311.172L315.887 307.332L315.647 303.516V296.004H319.391V313.812H315.815ZM329.264 314.004C327.792 314.004 326.496 313.716 325.376 313.14C324.272 312.564 323.416 311.78 322.808 310.788C322.2 309.78 321.896 308.636 321.896 307.356C321.896 306.06 322.192 304.916 322.784 303.924C323.392 302.916 324.216 302.132 325.256 301.572C326.296 300.996 327.472 300.708 328.784 300.708C330.048 300.708 331.184 300.98 332.192 301.524C333.216 302.052 334.024 302.82 334.616 303.828C335.208 304.82 335.504 306.012 335.504 307.404C335.504 307.548 335.496 307.716 335.48 307.908C335.464 308.084 335.448 308.252 335.432 308.412H324.944V306.228H333.464L332.024 306.876C332.024 306.204 331.888 305.62 331.616 305.124C331.344 304.628 330.968 304.244 330.488 303.972C330.008 303.684 329.448 303.54 328.808 303.54C328.168 303.54 327.6 303.684 327.104 303.972C326.624 304.244 326.248 304.636 325.976 305.148C325.704 305.644 325.568 306.236 325.568 306.924V307.5C325.568 308.204 325.72 308.828 326.024 309.372C326.344 309.9 326.784 310.308 327.344 310.596C327.92 310.868 328.592 311.004 329.36 311.004C330.048 311.004 330.648 310.9 331.16 310.692C331.688 310.484 332.168 310.172 332.6 309.756L334.592 311.916C334 312.588 333.256 313.108 332.36 313.476C331.464 313.828 330.432 314.004 329.264 314.004ZM350.866 318.66C349.65 318.66 348.474 318.508 347.338 318.204C346.218 317.916 345.282 317.476 344.53 316.884L346.018 314.196C346.562 314.644 347.25 314.996 348.082 315.252C348.93 315.524 349.762 315.66 350.578 315.66C351.906 315.66 352.866 315.364 353.458 314.772C354.066 314.18 354.37 313.3 354.37 312.132V310.188L354.61 306.948L354.562 303.684V300.9H358.114V311.652C358.114 314.052 357.49 315.82 356.242 316.956C354.994 318.092 353.202 318.66 350.866 318.66ZM350.29 313.188C349.09 313.188 348.002 312.932 347.026 312.42C346.066 311.892 345.29 311.164 344.698 310.236C344.122 309.292 343.834 308.196 343.834 306.948C343.834 305.684 344.122 304.588 344.698 303.66C345.29 302.716 346.066 301.988 347.026 301.476C348.002 300.964 349.09 300.708 350.29 300.708C351.378 300.708 352.338 300.932 353.17 301.38C354.002 301.812 354.65 302.492 355.114 303.42C355.578 304.332 355.81 305.508 355.81 306.948C355.81 308.372 355.578 309.548 355.114 310.476C354.65 311.388 354.002 312.068 353.17 312.516C352.338 312.964 351.378 313.188 350.29 313.188ZM351.034 310.116C351.69 310.116 352.274 309.988 352.786 309.732C353.298 309.46 353.698 309.084 353.986 308.604C354.274 308.124 354.418 307.572 354.418 306.948C354.418 306.308 354.274 305.756 353.986 305.292C353.698 304.812 353.298 304.444 352.786 304.188C352.274 303.916 351.69 303.78 351.034 303.78C350.378 303.78 349.794 303.916 349.282 304.188C348.77 304.444 348.362 304.812 348.058 305.292C347.77 305.756 347.626 306.308 347.626 306.948C347.626 307.572 347.77 308.124 348.058 308.604C348.362 309.084 348.77 309.46 349.282 309.732C349.794 309.988 350.378 310.116 351.034 310.116ZM369.518 313.812V311.292L369.278 310.74V306.228C369.278 305.428 369.03 304.804 368.534 304.356C368.054 303.908 367.31 303.684 366.302 303.684C365.614 303.684 364.934 303.796 364.262 304.02C363.606 304.228 363.046 304.516 362.582 304.884L361.238 302.268C361.942 301.772 362.79 301.388 363.782 301.116C364.774 300.844 365.782 300.708 366.806 300.708C368.774 300.708 370.302 301.172 371.39 302.1C372.478 303.028 373.022 304.476 373.022 306.444V313.812H369.518ZM365.582 314.004C364.574 314.004 363.71 313.836 362.99 313.5C362.27 313.148 361.718 312.676 361.334 312.084C360.95 311.492 360.758 310.828 360.758 310.092C360.758 309.324 360.942 308.652 361.31 308.076C361.694 307.5 362.294 307.052 363.11 306.732C363.926 306.396 364.99 306.228 366.302 306.228H369.734V308.412H366.71C365.83 308.412 365.222 308.556 364.886 308.844C364.566 309.132 364.406 309.492 364.406 309.924C364.406 310.404 364.59 310.788 364.958 311.076C365.342 311.348 365.862 311.484 366.518 311.484C367.142 311.484 367.702 311.34 368.198 311.052C368.694 310.748 369.054 310.308 369.278 309.732L369.854 311.46C369.582 312.292 369.086 312.924 368.366 313.356C367.646 313.788 366.718 314.004 365.582 314.004ZM380.755 314.004C379.651 314.004 378.587 313.876 377.563 313.62C376.555 313.348 375.755 313.012 375.163 312.612L376.411 309.924C377.003 310.292 377.699 310.596 378.499 310.836C379.315 311.06 380.115 311.172 380.899 311.172C381.763 311.172 382.371 311.068 382.723 310.86C383.091 310.652 383.275 310.364 383.275 309.996C383.275 309.692 383.131 309.468 382.843 309.324C382.571 309.164 382.203 309.044 381.739 308.964C381.275 308.884 380.763 308.804 380.203 308.724C379.659 308.644 379.107 308.54 378.547 308.412C377.987 308.268 377.475 308.06 377.011 307.788C376.547 307.516 376.171 307.148 375.883 306.684C375.611 306.22 375.475 305.62 375.475 304.884C375.475 304.068 375.707 303.348 376.171 302.724C376.651 302.1 377.339 301.612 378.235 301.26C379.131 300.892 380.203 300.708 381.451 300.708C382.331 300.708 383.227 300.804 384.139 300.996C385.051 301.188 385.811 301.468 386.419 301.836L385.171 304.5C384.547 304.132 383.915 303.884 383.275 303.756C382.651 303.612 382.043 303.54 381.451 303.54C380.619 303.54 380.011 303.652 379.627 303.876C379.243 304.1 379.051 304.388 379.051 304.74C379.051 305.06 379.187 305.3 379.459 305.46C379.747 305.62 380.123 305.748 380.587 305.844C381.051 305.94 381.555 306.028 382.099 306.108C382.659 306.172 383.219 306.276 383.779 306.42C384.339 306.564 384.843 306.772 385.291 307.044C385.755 307.3 386.131 307.66 386.419 308.124C386.707 308.572 386.851 309.164 386.851 309.9C386.851 310.7 386.611 311.412 386.131 312.036C385.651 312.644 384.955 313.124 384.043 313.476C383.147 313.828 382.051 314.004 380.755 314.004ZM394.441 314.004C392.921 314.004 391.737 313.62 390.889 312.852C390.041 312.068 389.617 310.908 389.617 309.372V298.044H393.361V309.324C393.361 309.868 393.505 310.292 393.793 310.596C394.081 310.884 394.473 311.028 394.969 311.028C395.561 311.028 396.065 310.868 396.481 310.548L397.489 313.188C397.105 313.46 396.641 313.668 396.097 313.812C395.569 313.94 395.017 314.004 394.441 314.004ZM387.625 304.068V301.188H396.577V304.068H387.625ZM405.336 314.004C403.96 314.004 402.736 313.716 401.664 313.14C400.608 312.564 399.768 311.78 399.144 310.788C398.536 309.78 398.232 308.636 398.232 307.356C398.232 306.06 398.536 304.916 399.144 303.924C399.768 302.916 400.608 302.132 401.664 301.572C402.736 300.996 403.96 300.708 405.336 300.708C406.696 300.708 407.912 300.996 408.984 301.572C410.056 302.132 410.896 302.908 411.504 303.9C412.112 304.892 412.416 306.044 412.416 307.356C412.416 308.636 412.112 309.78 411.504 310.788C410.896 311.78 410.056 312.564 408.984 313.14C407.912 313.716 406.696 314.004 405.336 314.004ZM405.336 310.932C405.96 310.932 406.52 310.788 407.016 310.5C407.512 310.212 407.904 309.804 408.192 309.276C408.48 308.732 408.624 308.092 408.624 307.356C408.624 306.604 408.48 305.964 408.192 305.436C407.904 304.908 407.512 304.5 407.016 304.212C406.52 303.924 405.96 303.78 405.336 303.78C404.712 303.78 404.152 303.924 403.656 304.212C403.16 304.5 402.76 304.908 402.456 305.436C402.168 305.964 402.024 306.604 402.024 307.356C402.024 308.092 402.168 308.732 402.456 309.276C402.76 309.804 403.16 310.212 403.656 310.5C404.152 310.788 404.712 310.932 405.336 310.932ZM419.263 314.004C418.159 314.004 417.095 313.876 416.071 313.62C415.063 313.348 414.263 313.012 413.671 312.612L414.919 309.924C415.511 310.292 416.207 310.596 417.007 310.836C417.823 311.06 418.623 311.172 419.407 311.172C420.271 311.172 420.879 311.068 421.231 310.86C421.599 310.652 421.783 310.364 421.783 309.996C421.783 309.692 421.639 309.468 421.351 309.324C421.079 309.164 420.711 309.044 420.247 308.964C419.783 308.884 419.271 308.804 418.711 308.724C418.167 308.644 417.615 308.54 417.055 308.412C416.495 308.268 415.983 308.06 415.519 307.788C415.055 307.516 414.679 307.148 414.391 306.684C414.119 306.22 413.983 305.62 413.983 304.884C413.983 304.068 414.215 303.348 414.679 302.724C415.159 302.1 415.847 301.612 416.743 301.26C417.639 300.892 418.711 300.708 419.959 300.708C420.839 300.708 421.735 300.804 422.647 300.996C423.559 301.188 424.319 301.468 424.927 301.836L423.679 304.5C423.055 304.132 422.423 303.884 421.783 303.756C421.159 303.612 420.551 303.54 419.959 303.54C419.127 303.54 418.519 303.652 418.135 303.876C417.751 304.1 417.559 304.388 417.559 304.74C417.559 305.06 417.695 305.3 417.967 305.46C418.255 305.62 418.631 305.748 419.095 305.844C419.559 305.94 420.063 306.028 420.607 306.108C421.167 306.172 421.727 306.276 422.287 306.42C422.847 306.564 423.351 306.772 423.799 307.044C424.263 307.3 424.639 307.66 424.927 308.124C425.215 308.572 425.359 309.164 425.359 309.9C425.359 310.7 425.119 311.412 424.639 312.036C424.159 312.644 423.463 313.124 422.551 313.476C421.655 313.828 420.559 314.004 419.263 314.004Z" fill="#87549F"/>
<mask id="mask0_402_21" style="mask-type:alpha" maskUnits="userSpaceOnUse" x="368" y="156" width="102" height="84">
<rect x="0.730836" y="0.242176" width="68.2779" height="66.6768" transform="matrix(0.932259 -0.367173 0.529413 0.851526 368.553 182.652)" fill="#FEFEFE" stroke="#253A74"/>
</mask>
<g mask="url(#mask0_402_21)">
<path d="M400.403 217.811L400.397 217.8L400.385 217.805L394.956 219.945L381.381 198.087C380.553 196.753 380.375 195.402 380.849 194.033C381.322 192.664 382.305 191.686 383.798 191.097L421.879 176.084L447.245 184.225L454.781 196.359L449.352 198.5L449.34 198.504L449.346 198.515C450.602 200.537 450.877 202.568 450.172 204.608C449.466 206.648 447.982 208.114 445.718 209.007C443.454 209.9 441.09 209.95 438.627 209.16C436.163 208.369 434.303 206.963 433.048 204.941L433.041 204.93L433.029 204.935L416.707 211.37L416.696 211.374L416.702 211.385C417.958 213.407 418.233 215.438 417.527 217.478C416.822 219.518 415.337 220.984 413.073 221.877C410.809 222.769 408.446 222.82 405.982 222.03C403.518 221.239 401.659 219.833 400.403 217.811ZM423.97 190.371L423.976 190.381L423.988 190.377L434.87 186.087L434.898 186.075L434.866 186.065L422.178 181.993L422.179 181.989L422.168 181.993L419.448 183.066L419.436 183.07L419.443 183.081L423.97 190.371ZM407.648 196.806L407.654 196.816L407.666 196.812L418.547 192.522L418.559 192.517L418.552 192.506L414.025 185.217L414.019 185.206L414.007 185.211L403.126 189.501L403.114 189.505L403.12 189.516L407.648 196.806ZM391.326 203.241L391.332 203.251L391.344 203.247L402.225 198.957L402.237 198.952L402.23 198.941L397.703 191.652L397.696 191.641L397.685 191.646L386.803 195.936L386.792 195.94L386.798 195.951L391.326 203.241ZM397.362 212.96L397.368 212.971L397.38 212.966L399.556 212.108L399.559 212.113L399.563 212.102C399.88 211.07 400.399 210.135 401.119 209.298C401.839 208.46 402.81 207.801 404.032 207.319C405.255 206.837 406.502 206.622 407.774 206.674C409.046 206.726 410.294 206.965 411.516 207.389L411.514 207.394L411.526 207.389L432.201 199.238L432.204 199.243L432.207 199.232C432.525 198.2 433.044 197.266 433.763 196.428C434.483 195.591 435.454 194.931 436.676 194.449C437.899 193.967 439.146 193.752 440.418 193.804C441.691 193.856 442.938 194.095 444.16 194.519L444.158 194.524L444.17 194.519L446.347 193.661L446.358 193.657L446.352 193.646L443.333 188.786L443.327 188.776L443.315 188.78L394.349 208.085L394.337 208.09L394.344 208.1L397.362 212.96ZM410.446 217.646C411.401 217.269 412.025 216.656 412.319 215.807C412.613 214.958 412.495 214.106 411.965 213.253C411.435 212.399 410.657 211.808 409.631 211.479C408.606 211.149 407.615 211.173 406.66 211.55C405.705 211.926 405.08 212.539 404.786 213.389C404.492 214.238 404.611 215.09 405.141 215.943C405.671 216.796 406.449 217.388 407.474 217.717C408.5 218.046 409.491 218.022 410.446 217.646ZM443.09 204.776C444.045 204.399 444.67 203.786 444.964 202.937C445.257 202.088 445.139 201.236 444.609 200.383C444.079 199.529 443.301 198.938 442.275 198.609C441.25 198.28 440.259 198.303 439.304 198.68C438.349 199.056 437.724 199.67 437.431 200.519C437.137 201.368 437.255 202.22 437.785 203.073C438.315 203.926 439.093 204.518 440.119 204.847C441.144 205.176 442.135 205.152 443.09 204.776Z" fill="#253A74" stroke="#253A74" stroke-width="0.025"/>
</g>
<path d="M107.944 108.027L107.944 108.027L109.581 109.959L112.382 109.781L107.944 108.027ZM107.944 108.027C106.866 106.763 105.425 105.935 103.621 105.543C101.816 105.151 100.093 105.31 98.4513 106.02C96.8096 106.73 95.6682 107.81 95.0276 109.259C94.387 110.709 94.3864 112.16 95.0261 113.614L95.0261 113.614M107.944 108.027L95.0261 113.614M95.0261 113.614L96.0093 115.828L94.2335 117.629L95.0261 113.614ZM120.098 117.689C119.489 119.298 118.272 120.497 116.448 121.286L103.334 126.957C101.51 127.746 99.6252 127.888 97.6804 127.384C95.7354 126.88 94.2853 125.873 93.3312 124.363C92.6441 123.276 92.3885 122.117 92.5643 120.888C92.74 119.659 93.2965 118.573 94.2335 117.629L120.098 117.689ZM120.098 117.689C120.708 116.08 120.535 114.521 119.581 113.011M120.098 117.689L119.581 113.011M119.581 113.011C118.894 111.924 117.89 111.089 116.57 110.507M119.581 113.011L116.57 110.507M116.57 110.507C115.249 109.925 113.853 109.683 112.382 109.781L116.57 110.507ZM118.932 134.024L120.295 133.435L122.056 136.222L114.982 139.281L113.221 136.494L114.561 135.915L114.572 135.91L114.566 135.899L109.995 128.667L109.988 128.657L109.977 128.662L105.606 130.552C102.585 131.858 99.4541 132.091 96.2125 131.251C92.971 130.41 90.5615 128.741 88.9829 126.244C87.8418 124.438 87.3912 122.516 87.6313 120.476C87.8714 118.437 88.7914 116.631 90.3918 115.057L90.4034 115.066L90.3938 115.045C89.2948 112.647 89.2926 110.243 90.3879 107.834C91.4832 105.424 93.4135 103.622 96.1795 102.426C98.9454 101.229 101.837 100.947 104.853 101.578C107.87 102.209 110.255 103.582 112.008 105.698L111.997 105.705L112.021 105.703C114.497 105.514 116.815 105.92 118.976 106.921C121.137 107.922 122.788 109.325 123.93 111.13C125.508 113.628 125.79 116.217 124.774 118.899C123.758 121.581 121.74 123.574 118.719 124.881L114.348 126.771L114.337 126.776L114.343 126.787L118.914 134.019L118.92 134.029L118.932 134.024Z" fill="#253A74" stroke="#253A74" stroke-width="0.025"/>
<path d="M540.379 133.374L540.379 133.374L542.016 135.306L544.818 135.127L540.379 133.374ZM540.379 133.374C539.302 132.11 537.86 131.282 536.056 130.89C534.252 130.498 532.529 130.657 530.887 131.367C529.245 132.077 528.104 133.157 527.463 134.606C526.823 136.055 526.822 137.507 527.462 138.961L527.462 138.961M540.379 133.374L527.462 138.961M527.462 138.961L528.445 141.175L526.669 142.976L527.462 138.961ZM552.534 143.036C551.924 144.645 550.707 145.844 548.883 146.633L535.769 152.304C533.946 153.093 532.061 153.235 530.116 152.731C528.171 152.227 526.721 151.22 525.767 149.71C525.08 148.623 524.824 147.464 525 146.235C525.176 145.006 525.732 143.919 526.669 142.976L552.534 143.036ZM552.534 143.036C553.143 141.427 552.971 139.867 552.017 138.357M552.534 143.036L552.017 138.357M552.017 138.357C551.33 137.27 550.326 136.435 549.005 135.853M552.017 138.357L549.005 135.853M549.005 135.853C547.685 135.271 546.289 135.029 544.818 135.127L549.005 135.853ZM551.368 159.371L552.73 158.782L554.491 161.568L547.417 164.628L545.656 161.841L546.996 161.261L547.008 161.256L547.001 161.246L542.431 154.014L542.424 154.003L542.413 154.008L538.041 155.899C535.021 157.205 531.89 157.438 528.648 156.597C525.407 155.757 522.997 154.088 521.418 151.59C520.277 149.785 519.827 147.862 520.067 145.823C520.307 143.784 521.227 141.977 522.827 140.404L522.839 140.413L522.829 140.392C521.73 137.993 521.728 135.59 522.823 133.18C523.919 130.771 525.849 128.968 528.615 127.772C531.381 126.576 534.272 126.294 537.289 126.925C540.305 127.556 542.69 128.929 544.444 131.044L544.432 131.052L544.457 131.05C546.932 130.861 549.25 131.267 551.412 132.267C553.573 133.268 555.224 134.671 556.365 136.477C557.944 138.975 558.225 141.564 557.209 144.246C556.194 146.927 554.176 148.921 551.155 150.227L546.784 152.118L546.772 152.123L546.779 152.133L551.349 159.365L551.356 159.376L551.368 159.371Z" fill="#253A74" stroke="#253A74" stroke-width="0.025"/>
<path d="M639.262 196.739L639.262 196.739L640.899 198.671L643.7 198.493L639.262 196.739ZM639.262 196.739C638.184 195.475 636.743 194.647 634.938 194.255C633.134 193.863 631.411 194.022 629.769 194.732C628.127 195.442 626.986 196.522 626.345 197.971C625.705 199.421 625.704 200.872 626.344 202.326L626.344 202.326M639.262 196.739L626.344 202.326M626.344 202.326L627.327 204.54L625.551 206.341L626.344 202.326ZM651.416 206.401C650.806 208.01 649.589 209.209 647.765 209.998L634.652 215.669C632.828 216.458 630.943 216.6 628.998 216.096C627.053 215.592 625.603 214.585 624.649 213.075C623.962 211.988 623.706 210.829 623.882 209.6C624.058 208.371 624.614 207.285 625.551 206.341L651.416 206.401ZM651.416 206.401C652.025 204.792 651.853 203.233 650.899 201.723M651.416 206.401L650.899 201.723M650.899 201.723C650.212 200.635 649.208 199.801 647.887 199.219M650.899 201.723L647.887 199.219M647.887 199.219C646.567 198.636 645.171 198.395 643.7 198.493L647.887 199.219ZM650.25 222.736L651.612 222.147L653.373 224.934L646.3 227.993L644.539 225.206L645.879 224.627L645.89 224.622L645.883 224.611L641.313 217.379L641.306 217.369L641.295 217.373L636.924 219.264C633.903 220.57 630.772 220.803 627.53 219.963C624.289 219.122 621.879 217.453 620.301 214.956C619.16 213.15 618.709 211.228 618.949 209.188C619.189 207.149 620.109 205.343 621.71 203.769L621.721 203.778L621.712 203.757C620.613 201.359 620.611 198.955 621.706 196.546C622.801 194.136 624.731 192.334 627.497 191.137C630.263 189.941 633.154 189.659 636.171 190.29C639.188 190.921 641.573 192.294 643.326 194.41L643.314 194.417L643.339 194.415C645.815 194.226 648.133 194.632 650.294 195.633C652.455 196.633 654.106 198.037 655.247 199.842C656.826 202.34 657.108 204.929 656.092 207.611C655.076 210.292 653.058 212.286 650.037 213.593L645.666 215.483L645.655 215.488L645.661 215.499L650.232 222.731L650.238 222.741L650.25 222.736Z" fill="#253A74" stroke="#253A74" stroke-width="0.025"/>
<path d="M871.147 202.5L871.147 202.5L872.784 204.432L875.585 204.253L871.147 202.5ZM871.147 202.5C870.069 201.236 868.628 200.408 866.824 200.016C865.019 199.624 863.296 199.783 861.654 200.493C860.013 201.203 858.871 202.283 858.231 203.732C857.59 205.181 857.589 206.633 858.229 208.087L858.229 208.087M871.147 202.5L858.229 208.087M858.229 208.087L859.212 210.301L857.437 212.102L858.229 208.087ZM883.301 212.162C882.692 213.771 881.475 214.97 879.651 215.759L866.537 221.43C864.713 222.219 862.828 222.361 860.883 221.857C858.939 221.353 857.488 220.346 856.534 218.836C855.847 217.749 855.592 216.59 855.767 215.361C855.943 214.132 856.5 213.045 857.437 212.102L883.301 212.162ZM883.301 212.162C883.911 210.553 883.739 208.993 882.784 207.483M883.301 212.162L882.784 207.483M882.784 207.483C882.097 206.396 881.093 205.561 879.773 204.979M882.784 207.483L879.773 204.979M879.773 204.979C878.452 204.397 877.056 204.155 875.585 204.253L879.773 204.979ZM882.135 228.497L883.498 227.908L885.259 230.694L878.185 233.753L876.424 230.967L877.764 230.387L877.775 230.382L877.769 230.372L873.198 223.14L873.192 223.129L873.18 223.134L868.809 225.025C865.788 226.331 862.657 226.564 859.416 225.723C856.174 224.883 853.765 223.214 852.186 220.716C851.045 218.911 850.594 216.988 850.834 214.949C851.075 212.91 851.995 211.103 853.595 209.53L853.607 209.539L853.597 209.518C852.498 207.119 852.496 204.716 853.591 202.306C854.686 199.897 856.617 198.094 859.383 196.898C862.149 195.702 865.04 195.42 868.056 196.051C871.073 196.682 873.458 198.055 875.212 200.17L875.2 200.178L875.224 200.176C877.7 199.987 880.018 200.393 882.179 201.393C884.341 202.394 885.992 203.797 887.133 205.603C888.711 208.101 888.993 210.69 887.977 213.372C886.961 216.053 884.943 218.047 881.923 219.353L877.551 221.244L877.54 221.249L877.547 221.259L882.117 228.491L882.124 228.502L882.135 228.497Z" fill="#253A74" stroke="#253A74" stroke-width="0.025"/>
<path d="M179.989 18.288C178.693 18.288 177.485 18.08 176.365 17.664C175.261 17.232 174.301 16.624 173.485 15.84C172.669 15.056 172.029 14.136 171.565 13.08C171.117 12.024 170.893 10.864 170.893 9.6C170.893 8.336 171.117 7.176 171.565 6.12C172.029 5.064 172.669 4.144 173.485 3.36C174.317 2.576 175.285 1.976 176.389 1.56C177.493 1.128 178.701 0.912 180.013 0.912C181.469 0.912 182.781 1.168 183.949 1.68C185.133 2.176 186.125 2.912 186.925 3.888L184.429 6.192C183.853 5.536 183.213 5.048 182.509 4.728C181.805 4.392 181.037 4.224 180.205 4.224C179.421 4.224 178.701 4.352 178.045 4.608C177.389 4.864 176.821 5.232 176.341 5.712C175.861 6.192 175.485 6.76 175.213 7.416C174.957 8.072 174.829 8.8 174.829 9.6C174.829 10.4 174.957 11.128 175.213 11.784C175.485 12.44 175.861 13.008 176.341 13.488C176.821 13.968 177.389 14.336 178.045 14.592C178.701 14.848 179.421 14.976 180.205 14.976C181.037 14.976 181.805 14.816 182.509 14.496C183.213 14.16 183.853 13.656 184.429 12.984L186.925 15.288C186.125 16.264 185.133 17.008 183.949 17.52C182.781 18.032 181.461 18.288 179.989 18.288ZM194.985 18.192C193.609 18.192 192.385 17.904 191.313 17.328C190.257 16.752 189.417 15.968 188.793 14.976C188.185 13.968 187.881 12.824 187.881 11.544C187.881 10.248 188.185 9.104 188.793 8.112C189.417 7.104 190.257 6.32 191.313 5.76C192.385 5.184 193.609 4.896 194.985 4.896C196.345 4.896 197.561 5.184 198.633 5.76C199.705 6.32 200.545 7.096 201.153 8.088C201.761 9.08 202.065 10.232 202.065 11.544C202.065 12.824 201.761 13.968 201.153 14.976C200.545 15.968 199.705 16.752 198.633 17.328C197.561 17.904 196.345 18.192 194.985 18.192ZM194.985 15.12C195.609 15.12 196.169 14.976 196.665 14.688C197.161 14.4 197.553 13.992 197.841 13.464C198.129 12.92 198.273 12.28 198.273 11.544C198.273 10.792 198.129 10.152 197.841 9.624C197.553 9.096 197.161 8.688 196.665 8.4C196.169 8.112 195.609 7.968 194.985 7.968C194.361 7.968 193.801 8.112 193.305 8.4C192.809 8.688 192.409 9.096 192.105 9.624C191.817 10.152 191.673 10.792 191.673 11.544C191.673 12.28 191.817 12.92 192.105 13.464C192.409 13.992 192.809 14.4 193.305 14.688C193.801 14.976 194.361 15.12 194.985 15.12ZM221.104 4.896C222.128 4.896 223.032 5.104 223.816 5.52C224.616 5.92 225.24 6.544 225.688 7.392C226.152 8.224 226.384 9.296 226.384 10.608V18H222.64V11.184C222.64 10.144 222.424 9.376 221.992 8.88C221.56 8.384 220.952 8.136 220.168 8.136C219.624 8.136 219.136 8.264 218.704 8.52C218.272 8.76 217.936 9.128 217.696 9.624C217.456 10.12 217.336 10.752 217.336 11.52V18H213.592V11.184C213.592 10.144 213.376 9.376 212.944 8.88C212.528 8.384 211.928 8.136 211.144 8.136C210.6 8.136 210.112 8.264 209.68 8.52C209.248 8.76 208.912 9.128 208.672 9.624C208.432 10.12 208.312 10.752 208.312 11.52V18H204.568V5.088H208.144V8.616L207.472 7.584C207.92 6.704 208.552 6.04 209.368 5.592C210.2 5.128 211.144 4.896 212.2 4.896C213.384 4.896 214.416 5.2 215.296 5.808C216.192 6.4 216.784 7.312 217.072 8.544L215.752 8.184C216.184 7.176 216.872 6.376 217.816 5.784C218.776 5.192 219.872 4.896 221.104 4.896ZM237.372 18.192C236.284 18.192 235.332 17.952 234.516 17.472C233.7 16.992 233.06 16.264 232.596 15.288C232.148 14.296 231.924 13.048 231.924 11.544C231.924 10.024 232.14 8.776 232.572 7.8C233.004 6.824 233.628 6.096 234.444 5.616C235.26 5.136 236.236 4.896 237.372 4.896C238.588 4.896 239.676 5.176 240.636 5.736C241.612 6.28 242.38 7.048 242.94 8.04C243.516 9.032 243.804 10.2 243.804 11.544C243.804 12.904 243.516 14.08 242.94 15.072C242.38 16.064 241.612 16.832 240.636 17.376C239.676 17.92 238.588 18.192 237.372 18.192ZM229.74 22.656V5.088H233.316V7.728L233.244 11.568L233.484 15.384V22.656H229.74ZM236.724 15.12C237.348 15.12 237.9 14.976 238.38 14.688C238.876 14.4 239.268 13.992 239.556 13.464C239.86 12.92 240.012 12.28 240.012 11.544C240.012 10.792 239.86 10.152 239.556 9.624C239.268 9.096 238.876 8.688 238.38 8.4C237.9 8.112 237.348 7.968 236.724 7.968C236.1 7.968 235.54 8.112 235.044 8.4C234.548 8.688 234.156 9.096 233.868 9.624C233.58 10.152 233.436 10.792 233.436 11.544C233.436 12.28 233.58 12.92 233.868 13.464C234.156 13.992 234.548 14.4 235.044 14.688C235.54 14.976 236.1 15.12 236.724 15.12ZM254.019 18V15.48L253.779 14.928V10.416C253.779 9.616 253.531 8.992 253.035 8.544C252.555 8.096 251.811 7.872 250.803 7.872C250.115 7.872 249.435 7.984 248.763 8.208C248.107 8.416 247.547 8.704 247.083 9.072L245.739 6.456C246.443 5.96 247.291 5.576 248.283 5.304C249.275 5.032 250.283 4.896 251.307 4.896C253.275 4.896 254.803 5.36 255.891 6.288C256.979 7.216 257.523 8.664 257.523 10.632V18H254.019ZM250.083 18.192C249.075 18.192 248.211 18.024 247.491 17.688C246.771 17.336 246.219 16.864 245.835 16.272C245.451 15.68 245.259 15.016 245.259 14.28C245.259 13.512 245.443 12.84 245.811 12.264C246.195 11.688 246.795 11.24 247.611 10.92C248.427 10.584 249.491 10.416 250.803 10.416H254.235V12.6H251.211C250.331 12.6 249.723 12.744 249.387 13.032C249.067 13.32 248.907 13.68 248.907 14.112C248.907 14.592 249.091 14.976 249.459 15.264C249.843 15.536 250.363 15.672 251.019 15.672C251.643 15.672 252.203 15.528 252.699 15.24C253.195 14.936 253.555 14.496 253.779 13.92L254.355 15.648C254.083 16.48 253.587 17.112 252.867 17.544C252.147 17.976 251.219 18.192 250.083 18.192ZM260.912 18V5.088H264.488V8.736L263.984 7.68C264.368 6.768 264.984 6.08 265.832 5.616C266.68 5.136 267.712 4.896 268.928 4.896V8.352C268.768 8.336 268.624 8.328 268.496 8.328C268.368 8.312 268.232 8.304 268.088 8.304C267.064 8.304 266.232 8.6 265.592 9.192C264.968 9.768 264.656 10.672 264.656 11.904V18H260.912ZM276.879 18.192C275.359 18.192 274.175 17.808 273.327 17.04C272.479 16.256 272.055 15.096 272.055 13.56V2.232H275.799V13.512C275.799 14.056 275.943 14.48 276.231 14.784C276.519 15.072 276.911 15.216 277.407 15.216C277.999 15.216 278.503 15.056 278.919 14.736L279.927 17.376C279.543 17.648 279.079 17.856 278.535 18C278.007 18.128 277.455 18.192 276.879 18.192ZM270.063 8.256V5.376H279.015V8.256H270.063ZM288.038 18.192C286.566 18.192 285.27 17.904 284.15 17.328C283.046 16.752 282.19 15.968 281.582 14.976C280.974 13.968 280.67 12.824 280.67 11.544C280.67 10.248 280.966 9.104 281.558 8.112C282.166 7.104 282.99 6.32 284.03 5.76C285.07 5.184 286.246 4.896 287.558 4.896C288.822 4.896 289.958 5.168 290.966 5.712C291.99 6.24 292.798 7.008 293.39 8.016C293.982 9.008 294.278 10.2 294.278 11.592C294.278 11.736 294.27 11.904 294.254 12.096C294.238 12.272 294.222 12.44 294.206 12.6H283.718V10.416H292.238L290.798 11.064C290.798 10.392 290.662 9.808 290.39 9.312C290.118 8.816 289.742 8.432 289.262 8.16C288.782 7.872 288.222 7.728 287.582 7.728C286.942 7.728 286.374 7.872 285.878 8.16C285.398 8.432 285.022 8.824 284.75 9.336C284.478 9.832 284.342 10.424 284.342 11.112V11.688C284.342 12.392 284.494 13.016 284.798 13.56C285.118 14.088 285.558 14.496 286.118 14.784C286.694 15.056 287.366 15.192 288.134 15.192C288.822 15.192 289.422 15.088 289.934 14.88C290.462 14.672 290.942 14.36 291.374 13.944L293.366 16.104C292.774 16.776 292.03 17.296 291.134 17.664C290.238 18.016 289.206 18.192 288.038 18.192ZM170.794 47V34.088H174.538V47H170.794ZM172.666 32.288C171.978 32.288 171.418 32.088 170.986 31.688C170.554 31.288 170.338 30.792 170.338 30.2C170.338 29.608 170.554 29.112 170.986 28.712C171.418 28.312 171.978 28.112 172.666 28.112C173.354 28.112 173.914 28.304 174.346 28.688C174.778 29.056 174.994 29.536 174.994 30.128C174.994 30.752 174.778 31.272 174.346 31.688C173.93 32.088 173.37 32.288 172.666 32.288ZM183.293 47.192C181.773 47.192 180.589 46.808 179.741 46.04C178.893 45.256 178.469 44.096 178.469 42.56V31.232H182.213V42.512C182.213 43.056 182.357 43.48 182.645 43.784C182.933 44.072 183.325 44.216 183.821 44.216C184.413 44.216 184.917 44.056 185.333 43.736L186.341 46.376C185.957 46.648 185.493 46.856 184.949 47C184.421 47.128 183.869 47.192 183.293 47.192ZM176.477 37.256V34.376H185.429V37.256H176.477ZM188.443 47V34.088H192.187V47H188.443ZM190.315 32.288C189.627 32.288 189.067 32.088 188.635 31.688C188.203 31.288 187.987 30.792 187.987 30.2C187.987 29.608 188.203 29.112 188.635 28.712C189.067 28.312 189.627 28.112 190.315 28.112C191.003 28.112 191.563 28.304 191.995 28.688C192.427 29.056 192.643 29.536 192.643 30.128C192.643 30.752 192.427 31.272 191.995 31.688C191.579 32.088 191.019 32.288 190.315 32.288ZM203.51 33.896C204.534 33.896 205.446 34.104 206.246 34.52C207.062 34.92 207.702 35.544 208.166 36.392C208.63 37.224 208.862 38.296 208.862 39.608V47H205.118V40.184C205.118 39.144 204.886 38.376 204.422 37.88C203.974 37.384 203.334 37.136 202.502 37.136C201.91 37.136 201.374 37.264 200.894 37.52C200.43 37.76 200.062 38.136 199.79 38.648C199.534 39.16 199.406 39.816 199.406 40.616V47H195.662V34.088H199.238V37.664L198.566 36.584C199.03 35.72 199.694 35.056 200.558 34.592C201.422 34.128 202.406 33.896 203.51 33.896ZM218.757 47.192C217.285 47.192 215.989 46.904 214.869 46.328C213.765 45.752 212.909 44.968 212.301 43.976C211.693 42.968 211.389 41.824 211.389 40.544C211.389 39.248 211.685 38.104 212.277 37.112C212.885 36.104 213.709 35.32 214.749 34.76C215.789 34.184 216.965 33.896 218.277 33.896C219.541 33.896 220.677 34.168 221.685 34.712C222.709 35.24 223.517 36.008 224.109 37.016C224.701 38.008 224.997 39.2 224.997 40.592C224.997 40.736 224.989 40.904 224.973 41.096C224.957 41.272 224.941 41.44 224.925 41.6H214.437V39.416H222.957L221.517 40.064C221.517 39.392 221.381 38.808 221.109 38.312C220.837 37.816 220.461 37.432 219.981 37.16C219.501 36.872 218.941 36.728 218.301 36.728C217.661 36.728 217.093 36.872 216.597 37.16C216.117 37.432 215.741 37.824 215.469 38.336C215.197 38.832 215.061 39.424 215.061 40.112V40.688C215.061 41.392 215.213 42.016 215.517 42.56C215.837 43.088 216.277 43.496 216.837 43.784C217.413 44.056 218.085 44.192 218.853 44.192C219.541 44.192 220.141 44.088 220.653 43.88C221.181 43.672 221.661 43.36 222.093 42.944L224.085 45.104C223.493 45.776 222.749 46.296 221.853 46.664C220.957 47.016 219.925 47.192 218.757 47.192ZM227.49 47V34.088H231.066V37.736L230.562 36.68C230.946 35.768 231.562 35.08 232.41 34.616C233.258 34.136 234.29 33.896 235.506 33.896V37.352C235.346 37.336 235.202 37.328 235.074 37.328C234.946 37.312 234.81 37.304 234.666 37.304C233.642 37.304 232.81 37.6 232.17 38.192C231.546 38.768 231.234 39.672 231.234 40.904V47H227.49ZM244.808 47V44.48L244.568 43.928V39.416C244.568 38.616 244.32 37.992 243.824 37.544C243.344 37.096 242.6 36.872 241.592 36.872C240.904 36.872 240.224 36.984 239.552 37.208C238.896 37.416 238.336 37.704 237.872 38.072L236.528 35.456C237.232 34.96 238.08 34.576 239.072 34.304C240.064 34.032 241.072 33.896 242.096 33.896C244.064 33.896 245.592 34.36 246.68 35.288C247.768 36.216 248.312 37.664 248.312 39.632V47H244.808ZM240.872 47.192C239.864 47.192 239 47.024 238.28 46.688C237.56 46.336 237.008 45.864 236.624 45.272C236.24 44.68 236.048 44.016 236.048 43.28C236.048 42.512 236.232 41.84 236.6 41.264C236.984 40.688 237.584 40.24 238.4 39.92C239.216 39.584 240.28 39.416 241.592 39.416H245.024V41.6H242C241.12 41.6 240.512 41.744 240.176 42.032C239.856 42.32 239.696 42.68 239.696 43.112C239.696 43.592 239.88 43.976 240.248 44.264C240.632 44.536 241.152 44.672 241.808 44.672C242.432 44.672 242.992 44.528 243.488 44.24C243.984 43.936 244.344 43.496 244.568 42.92L245.144 44.648C244.872 45.48 244.376 46.112 243.656 46.544C242.936 46.976 242.008 47.192 240.872 47.192ZM251.701 47V34.088H255.277V37.736L254.773 36.68C255.157 35.768 255.773 35.08 256.621 34.616C257.469 34.136 258.501 33.896 259.717 33.896V37.352C259.557 37.336 259.413 37.328 259.285 37.328C259.157 37.312 259.021 37.304 258.877 37.304C257.853 37.304 257.021 37.6 256.381 38.192C255.757 38.768 255.445 39.672 255.445 40.904V47H251.701ZM261.966 47V34.088H265.71V47H261.966ZM263.838 32.288C263.15 32.288 262.59 32.088 262.158 31.688C261.726 31.288 261.51 30.792 261.51 30.2C261.51 29.608 261.726 29.112 262.158 28.712C262.59 28.312 263.15 28.112 263.838 28.112C264.526 28.112 265.086 28.304 265.518 28.688C265.95 29.056 266.166 29.536 266.166 30.128C266.166 30.752 265.95 31.272 265.518 31.688C265.102 32.088 264.542 32.288 263.838 32.288ZM275.329 47.192C273.953 47.192 272.729 46.904 271.657 46.328C270.601 45.752 269.761 44.968 269.137 43.976C268.529 42.968 268.225 41.824 268.225 40.544C268.225 39.248 268.529 38.104 269.137 37.112C269.761 36.104 270.601 35.32 271.657 34.76C272.729 34.184 273.953 33.896 275.329 33.896C276.689 33.896 277.905 34.184 278.977 34.76C280.049 35.32 280.889 36.096 281.497 37.088C282.105 38.08 282.409 39.232 282.409 40.544C282.409 41.824 282.105 42.968 281.497 43.976C280.889 44.968 280.049 45.752 278.977 46.328C277.905 46.904 276.689 47.192 275.329 47.192ZM275.329 44.12C275.953 44.12 276.513 43.976 277.009 43.688C277.505 43.4 277.897 42.992 278.185 42.464C278.473 41.92 278.617 41.28 278.617 40.544C278.617 39.792 278.473 39.152 278.185 38.624C277.897 38.096 277.505 37.688 277.009 37.4C276.513 37.112 275.953 36.968 275.329 36.968C274.705 36.968 274.145 37.112 273.649 37.4C273.153 37.688 272.753 38.096 272.449 38.624C272.161 39.152 272.017 39.792 272.017 40.544C272.017 41.28 272.161 41.92 272.449 42.464C272.753 42.992 273.153 43.4 273.649 43.688C274.145 43.976 274.705 44.12 275.329 44.12ZM289.256 47.192C288.152 47.192 287.088 47.064 286.064 46.808C285.056 46.536 284.256 46.2 283.664 45.8L284.912 43.112C285.504 43.48 286.2 43.784 287 44.024C287.816 44.248 288.616 44.36 289.4 44.36C290.264 44.36 290.872 44.256 291.224 44.048C291.592 43.84 291.776 43.552 291.776 43.184C291.776 42.88 291.632 42.656 291.344 42.512C291.072 42.352 290.704 42.232 290.24 42.152C289.776 42.072 289.264 41.992 288.704 41.912C288.16 41.832 287.608 41.728 287.048 41.6C286.488 41.456 285.976 41.248 285.512 40.976C285.048 40.704 284.672 40.336 284.384 39.872C284.112 39.408 283.976 38.808 283.976 38.072C283.976 37.256 284.208 36.536 284.672 35.912C285.152 35.288 285.84 34.8 286.736 34.448C287.632 34.08 288.704 33.896 289.952 33.896C290.832 33.896 291.728 33.992 292.64 34.184C293.552 34.376 294.312 34.656 294.92 35.024L293.672 37.688C293.048 37.32 292.416 37.072 291.776 36.944C291.152 36.8 290.544 36.728 289.952 36.728C289.12 36.728 288.512 36.84 288.128 37.064C287.744 37.288 287.552 37.576 287.552 37.928C287.552 38.248 287.688 38.488 287.96 38.648C288.248 38.808 288.624 38.936 289.088 39.032C289.552 39.128 290.056 39.216 290.6 39.296C291.16 39.36 291.72 39.464 292.28 39.608C292.84 39.752 293.344 39.96 293.792 40.232C294.256 40.488 294.632 40.848 294.92 41.312C295.208 41.76 295.352 42.352 295.352 43.088C295.352 43.888 295.112 44.6 294.632 45.224C294.152 45.832 293.456 46.312 292.544 46.664C291.648 47.016 290.552 47.192 289.256 47.192Z" fill="#87549F"/>
<path d="M552.869 15.76H560.933V18.88H552.869V15.76ZM553.157 25H549.269V8.2H561.965V11.32H553.157V25ZM571.878 25V22.48L571.638 21.928V17.416C571.638 16.616 571.39 15.992 570.894 15.544C570.414 15.096 569.67 14.872 568.662 14.872C567.974 14.872 567.294 14.984 566.622 15.208C565.966 15.416 565.406 15.704 564.942 16.072L563.598 13.456C564.302 12.96 565.15 12.576 566.142 12.304C567.134 12.032 568.142 11.896 569.166 11.896C571.134 11.896 572.662 12.36 573.75 13.288C574.838 14.216 575.382 15.664 575.382 17.632V25H571.878ZM567.942 25.192C566.934 25.192 566.07 25.024 565.35 24.688C564.63 24.336 564.078 23.864 563.694 23.272C563.31 22.68 563.118 22.016 563.118 21.28C563.118 20.512 563.302 19.84 563.67 19.264C564.054 18.688 564.654 18.24 565.47 17.92C566.286 17.584 567.35 17.416 568.662 17.416H572.094V19.6H569.07C568.19 19.6 567.582 19.744 567.246 20.032C566.926 20.32 566.766 20.68 566.766 21.112C566.766 21.592 566.95 21.976 567.318 22.264C567.702 22.536 568.222 22.672 568.878 22.672C569.502 22.672 570.062 22.528 570.558 22.24C571.054 21.936 571.414 21.496 571.638 20.92L572.214 22.648C571.942 23.48 571.446 24.112 570.726 24.544C570.006 24.976 569.078 25.192 567.942 25.192ZM585.105 25.192C583.713 25.192 582.473 24.912 581.385 24.352C580.297 23.776 579.441 22.984 578.817 21.976C578.209 20.968 577.905 19.824 577.905 18.544C577.905 17.248 578.209 16.104 578.817 15.112C579.441 14.104 580.297 13.32 581.385 12.76C582.473 12.184 583.713 11.896 585.105 11.896C586.465 11.896 587.649 12.184 588.657 12.76C589.665 13.32 590.409 14.128 590.889 15.184L587.985 16.744C587.649 16.136 587.225 15.688 586.713 15.4C586.217 15.112 585.673 14.968 585.081 14.968C584.441 14.968 583.865 15.112 583.353 15.4C582.841 15.688 582.433 16.096 582.129 16.624C581.841 17.152 581.697 17.792 581.697 18.544C581.697 19.296 581.841 19.936 582.129 20.464C582.433 20.992 582.841 21.4 583.353 21.688C583.865 21.976 584.441 22.12 585.081 22.12C585.673 22.12 586.217 21.984 586.713 21.712C587.225 21.424 587.649 20.968 587.985 20.344L590.889 21.928C590.409 22.968 589.665 23.776 588.657 24.352C587.649 24.912 586.465 25.192 585.105 25.192ZM592.974 25V12.088H596.718V25H592.974ZM594.846 10.288C594.158 10.288 593.598 10.088 593.166 9.688C592.734 9.288 592.518 8.792 592.518 8.2C592.518 7.608 592.734 7.112 593.166 6.712C593.598 6.312 594.158 6.112 594.846 6.112C595.534 6.112 596.094 6.304 596.526 6.688C596.958 7.056 597.174 7.536 597.174 8.128C597.174 8.752 596.958 9.272 596.526 9.688C596.11 10.088 595.55 10.288 594.846 10.288ZM600.193 25V7.192H603.937V25H600.193ZM607.412 25V12.088H611.156V25H607.412ZM609.284 10.288C608.596 10.288 608.036 10.088 607.604 9.688C607.172 9.288 606.956 8.792 606.956 8.2C606.956 7.608 607.172 7.112 607.604 6.712C608.036 6.312 608.596 6.112 609.284 6.112C609.972 6.112 610.532 6.304 610.964 6.688C611.396 7.056 611.612 7.536 611.612 8.128C611.612 8.752 611.396 9.272 610.964 9.688C610.548 10.088 609.988 10.288 609.284 10.288ZM619.91 25.192C618.39 25.192 617.206 24.808 616.358 24.04C615.51 23.256 615.086 22.096 615.086 20.56V9.232H618.83V20.512C618.83 21.056 618.974 21.48 619.262 21.784C619.55 22.072 619.942 22.216 620.438 22.216C621.03 22.216 621.534 22.056 621.95 21.736L622.958 24.376C622.574 24.648 622.11 24.856 621.566 25C621.038 25.128 620.486 25.192 619.91 25.192ZM613.094 15.256V12.376H622.046V15.256H613.094ZM632.98 25V22.48L632.74 21.928V17.416C632.74 16.616 632.492 15.992 631.996 15.544C631.516 15.096 630.772 14.872 629.764 14.872C629.076 14.872 628.396 14.984 627.724 15.208C627.068 15.416 626.508 15.704 626.044 16.072L624.7 13.456C625.404 12.96 626.252 12.576 627.244 12.304C628.236 12.032 629.244 11.896 630.268 11.896C632.236 11.896 633.764 12.36 634.852 13.288C635.94 14.216 636.484 15.664 636.484 17.632V25H632.98ZM629.044 25.192C628.036 25.192 627.172 25.024 626.452 24.688C625.732 24.336 625.18 23.864 624.796 23.272C624.412 22.68 624.22 22.016 624.22 21.28C624.22 20.512 624.404 19.84 624.772 19.264C625.156 18.688 625.756 18.24 626.572 17.92C627.388 17.584 628.452 17.416 629.764 17.416H633.196V19.6H630.172C629.292 19.6 628.684 19.744 628.348 20.032C628.028 20.32 627.868 20.68 627.868 21.112C627.868 21.592 628.052 21.976 628.42 22.264C628.804 22.536 629.324 22.672 629.98 22.672C630.604 22.672 631.164 22.528 631.66 22.24C632.156 21.936 632.516 21.496 632.74 20.92L633.316 22.648C633.044 23.48 632.548 24.112 631.828 24.544C631.108 24.976 630.18 25.192 629.044 25.192ZM646.669 25V7.192H650.413V25H646.669ZM661.808 25V22.48L661.568 21.928V17.416C661.568 16.616 661.32 15.992 660.824 15.544C660.344 15.096 659.6 14.872 658.592 14.872C657.904 14.872 657.224 14.984 656.552 15.208C655.896 15.416 655.336 15.704 654.872 16.072L653.528 13.456C654.232 12.96 655.08 12.576 656.072 12.304C657.064 12.032 658.072 11.896 659.096 11.896C661.064 11.896 662.592 12.36 663.68 13.288C664.768 14.216 665.312 15.664 665.312 17.632V25H661.808ZM657.872 25.192C656.864 25.192 656 25.024 655.28 24.688C654.56 24.336 654.008 23.864 653.624 23.272C653.24 22.68 653.048 22.016 653.048 21.28C653.048 20.512 653.232 19.84 653.6 19.264C653.984 18.688 654.584 18.24 655.4 17.92C656.216 17.584 657.28 17.416 658.592 17.416H662.024V19.6H659C658.12 19.6 657.512 19.744 657.176 20.032C656.856 20.32 656.696 20.68 656.696 21.112C656.696 21.592 656.88 21.976 657.248 22.264C657.632 22.536 658.152 22.672 658.808 22.672C659.432 22.672 659.992 22.528 660.488 22.24C660.984 21.936 661.344 21.496 661.568 20.92L662.144 22.648C661.872 23.48 661.376 24.112 660.656 24.544C659.936 24.976 659.008 25.192 657.872 25.192ZM673.045 25.192C671.941 25.192 670.877 25.064 669.853 24.808C668.845 24.536 668.045 24.2 667.453 23.8L668.701 21.112C669.293 21.48 669.989 21.784 670.789 22.024C671.605 22.248 672.405 22.36 673.189 22.36C674.053 22.36 674.661 22.256 675.013 22.048C675.381 21.84 675.565 21.552 675.565 21.184C675.565 20.88 675.421 20.656 675.133 20.512C674.861 20.352 674.493 20.232 674.029 20.152C673.565 20.072 673.053 19.992 672.493 19.912C671.949 19.832 671.397 19.728 670.837 19.6C670.277 19.456 669.765 19.248 669.301 18.976C668.837 18.704 668.461 18.336 668.173 17.872C667.901 17.408 667.765 16.808 667.765 16.072C667.765 15.256 667.997 14.536 668.461 13.912C668.941 13.288 669.629 12.8 670.525 12.448C671.421 12.08 672.493 11.896 673.741 11.896C674.621 11.896 675.517 11.992 676.429 12.184C677.341 12.376 678.101 12.656 678.709 13.024L677.461 15.688C676.837 15.32 676.205 15.072 675.565 14.944C674.941 14.8 674.333 14.728 673.741 14.728C672.909 14.728 672.301 14.84 671.917 15.064C671.533 15.288 671.341 15.576 671.341 15.928C671.341 16.248 671.477 16.488 671.749 16.648C672.037 16.808 672.413 16.936 672.877 17.032C673.341 17.128 673.845 17.216 674.389 17.296C674.949 17.36 675.509 17.464 676.069 17.608C676.629 17.752 677.133 17.96 677.581 18.232C678.045 18.488 678.421 18.848 678.709 19.312C678.997 19.76 679.141 20.352 679.141 21.088C679.141 21.888 678.901 22.6 678.421 23.224C677.941 23.832 677.245 24.312 676.333 24.664C675.437 25.016 674.341 25.192 673.045 25.192ZM552.287 54V41.088H555.863V44.736L555.359 43.68C555.743 42.768 556.359 42.08 557.207 41.616C558.055 41.136 559.087 40.896 560.303 40.896V44.352C560.143 44.336 559.999 44.328 559.871 44.328C559.743 44.312 559.607 44.304 559.463 44.304C558.439 44.304 557.607 44.6 556.967 45.192C556.343 45.768 556.031 46.672 556.031 47.904V54H552.287ZM568.843 54.192C567.371 54.192 566.075 53.904 564.955 53.328C563.851 52.752 562.995 51.968 562.387 50.976C561.779 49.968 561.475 48.824 561.475 47.544C561.475 46.248 561.771 45.104 562.363 44.112C562.971 43.104 563.795 42.32 564.835 41.76C565.875 41.184 567.051 40.896 568.363 40.896C569.627 40.896 570.763 41.168 571.771 41.712C572.795 42.24 573.603 43.008 574.195 44.016C574.787 45.008 575.083 46.2 575.083 47.592C575.083 47.736 575.075 47.904 575.059 48.096C575.043 48.272 575.027 48.44 575.011 48.6H564.523V46.416H573.043L571.603 47.064C571.603 46.392 571.467 45.808 571.195 45.312C570.923 44.816 570.547 44.432 570.067 44.16C569.587 43.872 569.027 43.728 568.387 43.728C567.747 43.728 567.179 43.872 566.683 44.16C566.203 44.432 565.827 44.824 565.555 45.336C565.283 45.832 565.147 46.424 565.147 47.112V47.688C565.147 48.392 565.299 49.016 565.603 49.56C565.923 50.088 566.363 50.496 566.923 50.784C567.499 51.056 568.171 51.192 568.939 51.192C569.627 51.192 570.227 51.088 570.739 50.88C571.267 50.672 571.747 50.36 572.179 49.944L574.171 52.104C573.579 52.776 572.835 53.296 571.939 53.664C571.043 54.016 570.011 54.192 568.843 54.192ZM583.024 54.192C581.952 54.192 580.992 53.984 580.144 53.568C579.312 53.152 578.664 52.52 578.2 51.672C577.736 50.808 577.504 49.712 577.504 48.384V41.088H581.248V47.832C581.248 48.904 581.472 49.696 581.92 50.208C582.384 50.704 583.032 50.952 583.864 50.952C584.44 50.952 584.952 50.832 585.4 50.592C585.848 50.336 586.2 49.952 586.456 49.44C586.712 48.912 586.84 48.256 586.84 47.472V41.088H590.584V54H587.032V50.448L587.68 51.48C587.248 52.376 586.608 53.056 585.76 53.52C584.928 53.968 584.016 54.192 583.024 54.192ZM601.9 40.896C602.924 40.896 603.836 41.104 604.636 41.52C605.452 41.92 606.092 42.544 606.556 43.392C607.02 44.224 607.252 45.296 607.252 46.608V54H603.508V47.184C603.508 46.144 603.276 45.376 602.812 44.88C602.364 44.384 601.724 44.136 600.892 44.136C600.3 44.136 599.764 44.264 599.284 44.52C598.82 44.76 598.452 45.136 598.18 45.648C597.924 46.16 597.796 46.816 597.796 47.616V54H594.052V41.088H597.628V44.664L596.956 43.584C597.42 42.72 598.084 42.056 598.948 41.592C599.812 41.128 600.796 40.896 601.9 40.896ZM610.646 54V41.088H614.39V54H610.646ZM612.518 39.288C611.83 39.288 611.27 39.088 610.838 38.688C610.406 38.288 610.19 37.792 610.19 37.2C610.19 36.608 610.406 36.112 610.838 35.712C611.27 35.312 611.83 35.112 612.518 35.112C613.206 35.112 613.766 35.304 614.198 35.688C614.63 36.056 614.846 36.536 614.846 37.128C614.846 37.752 614.63 38.272 614.198 38.688C613.782 39.088 613.222 39.288 612.518 39.288ZM624.009 54.192C622.633 54.192 621.409 53.904 620.337 53.328C619.281 52.752 618.441 51.968 617.817 50.976C617.209 49.968 616.905 48.824 616.905 47.544C616.905 46.248 617.209 45.104 617.817 44.112C618.441 43.104 619.281 42.32 620.337 41.76C621.409 41.184 622.633 40.896 624.009 40.896C625.369 40.896 626.585 41.184 627.657 41.76C628.729 42.32 629.569 43.096 630.177 44.088C630.785 45.08 631.089 46.232 631.089 47.544C631.089 48.824 630.785 49.968 630.177 50.976C629.569 51.968 628.729 52.752 627.657 53.328C626.585 53.904 625.369 54.192 624.009 54.192ZM624.009 51.12C624.633 51.12 625.193 50.976 625.689 50.688C626.185 50.4 626.577 49.992 626.865 49.464C627.153 48.92 627.297 48.28 627.297 47.544C627.297 46.792 627.153 46.152 626.865 45.624C626.577 45.096 626.185 44.688 625.689 44.4C625.193 44.112 624.633 43.968 624.009 43.968C623.385 43.968 622.825 44.112 622.329 44.4C621.833 44.688 621.433 45.096 621.129 45.624C620.841 46.152 620.697 46.792 620.697 47.544C620.697 48.28 620.841 48.92 621.129 49.464C621.433 49.992 621.833 50.4 622.329 50.688C622.825 50.976 623.385 51.12 624.009 51.12ZM641.439 40.896C642.463 40.896 643.375 41.104 644.175 41.52C644.991 41.92 645.631 42.544 646.095 43.392C646.559 44.224 646.791 45.296 646.791 46.608V54H643.047V47.184C643.047 46.144 642.815 45.376 642.351 44.88C641.903 44.384 641.263 44.136 640.431 44.136C639.839 44.136 639.303 44.264 638.823 44.52C638.359 44.76 637.991 45.136 637.719 45.648C637.463 46.16 637.335 46.816 637.335 47.616V54H633.591V41.088H637.167V44.664L636.495 43.584C636.959 42.72 637.623 42.056 638.487 41.592C639.351 41.128 640.335 40.896 641.439 40.896ZM656.687 54.192C655.215 54.192 653.919 53.904 652.799 53.328C651.695 52.752 650.839 51.968 650.231 50.976C649.623 49.968 649.319 48.824 649.319 47.544C649.319 46.248 649.615 45.104 650.207 44.112C650.815 43.104 651.639 42.32 652.679 41.76C653.719 41.184 654.895 40.896 656.207 40.896C657.471 40.896 658.607 41.168 659.615 41.712C660.639 42.24 661.447 43.008 662.039 44.016C662.631 45.008 662.927 46.2 662.927 47.592C662.927 47.736 662.919 47.904 662.903 48.096C662.887 48.272 662.871 48.44 662.855 48.6H652.367V46.416H660.887L659.447 47.064C659.447 46.392 659.311 45.808 659.039 45.312C658.767 44.816 658.391 44.432 657.911 44.16C657.431 43.872 656.871 43.728 656.231 43.728C655.591 43.728 655.023 43.872 654.527 44.16C654.047 44.432 653.671 44.824 653.399 45.336C653.127 45.832 652.991 46.424 652.991 47.112V47.688C652.991 48.392 653.143 49.016 653.447 49.56C653.767 50.088 654.207 50.496 654.767 50.784C655.343 51.056 656.015 51.192 656.783 51.192C657.471 51.192 658.071 51.088 658.583 50.88C659.111 50.672 659.591 50.36 660.023 49.944L662.015 52.104C661.423 52.776 660.679 53.296 659.783 53.664C658.887 54.016 657.855 54.192 656.687 54.192ZM669.763 54.192C668.659 54.192 667.595 54.064 666.571 53.808C665.563 53.536 664.763 53.2 664.171 52.8L665.419 50.112C666.011 50.48 666.707 50.784 667.507 51.024C668.323 51.248 669.123 51.36 669.907 51.36C670.771 51.36 671.379 51.256 671.731 51.048C672.099 50.84 672.283 50.552 672.283 50.184C672.283 49.88 672.139 49.656 671.851 49.512C671.579 49.352 671.211 49.232 670.747 49.152C670.283 49.072 669.771 48.992 669.211 48.912C668.667 48.832 668.115 48.728 667.555 48.6C666.995 48.456 666.483 48.248 666.019 47.976C665.555 47.704 665.179 47.336 664.891 46.872C664.619 46.408 664.483 45.808 664.483 45.072C664.483 44.256 664.715 43.536 665.179 42.912C665.659 42.288 666.347 41.8 667.243 41.448C668.139 41.08 669.211 40.896 670.459 40.896C671.339 40.896 672.235 40.992 673.147 41.184C674.059 41.376 674.819 41.656 675.427 42.024L674.179 44.688C673.555 44.32 672.923 44.072 672.283 43.944C671.659 43.8 671.051 43.728 670.459 43.728C669.627 43.728 669.019 43.84 668.635 44.064C668.251 44.288 668.059 44.576 668.059 44.928C668.059 45.248 668.195 45.488 668.467 45.648C668.755 45.808 669.131 45.936 669.595 46.032C670.059 46.128 670.563 46.216 671.107 46.296C671.667 46.36 672.227 46.464 672.787 46.608C673.347 46.752 673.851 46.96 674.299 47.232C674.763 47.488 675.139 47.848 675.427 48.312C675.715 48.76 675.859 49.352 675.859 50.088C675.859 50.888 675.619 51.6 675.139 52.224C674.659 52.832 673.963 53.312 673.051 53.664C672.155 54.016 671.059 54.192 669.763 54.192Z" fill="#87549F"/>
</svg>
