<svg width="2228" height="431" viewBox="0 0 2228 431" fill="none" xmlns="http://www.w3.org/2000/svg">
<g clip-path="url(#clip0_105_2659)">
<path d="M8.18115 229.7L17.4413 227.161" stroke="#253A74" stroke-width="7" stroke-linecap="round" stroke-linejoin="round"/>
<path d="M35.9092 222.111L718.756 35.2197C781.158 18.144 858.128 30.8366 890.678 63.5634C923.228 96.2993 899.033 136.678 836.649 153.754L519.89 240.447C457.489 257.523 433.311 297.901 465.861 330.637C498.411 363.373 575.381 376.057 637.782 358.981L1598.59 96.0163C1660.99 78.9406 1737.96 91.6332 1770.51 124.36C1803.06 157.087 1778.87 197.475 1716.48 214.55L1456.73 285.638C1394.33 302.714 1370.15 343.092 1402.7 375.828C1435.25 408.564 1512.22 421.248 1574.62 404.172L2210.75 230.074" stroke="#253A74" stroke-width="7" stroke-linecap="round" stroke-linejoin="round" stroke-dasharray="11.97 11.97"/>
<path d="M2219.96 227.544L2229.22 225.015" stroke="#253A74" stroke-width="7" stroke-linecap="round" stroke-linejoin="round"/>
<path d="M520.882 106.38C539.387 106.38 554.389 98.5105 554.389 88.8025C554.389 79.0945 539.387 71.2246 520.882 71.2246C502.377 71.2246 487.375 79.0945 487.375 88.8025C487.375 98.5105 502.377 106.38 520.882 106.38Z" fill="#7ECDCE"/>
<path d="M1483.45 145.645C1501.95 145.645 1516.95 137.775 1516.95 128.067C1516.95 118.359 1501.95 110.489 1483.45 110.489C1464.94 110.489 1449.94 118.359 1449.94 128.067C1449.94 137.775 1464.94 145.645 1483.45 145.645Z" fill="#7ECDCE"/>
<path d="M713.221 352.47C731.726 352.47 746.728 344.6 746.728 334.892C746.728 325.184 731.726 317.314 713.221 317.314C694.715 317.314 679.714 325.184 679.714 334.892C679.714 344.6 694.715 352.47 713.221 352.47Z" fill="#7ECDCE"/>
<path d="M1690.58 388.54C1709.09 388.54 1724.09 380.67 1724.09 370.962C1724.09 361.254 1709.09 353.384 1690.58 353.384C1672.08 353.384 1657.08 361.254 1657.08 370.962C1657.08 380.67 1672.08 388.54 1690.58 388.54Z" fill="#7ECDCE"/>
<path d="M705.209 396.92V380.12H712.841C714.665 380.12 716.273 380.472 717.665 381.176C719.057 381.864 720.145 382.832 720.929 384.08C721.713 385.328 722.105 386.808 722.105 388.52C722.105 390.216 721.713 391.696 720.929 392.96C720.145 394.208 719.057 395.184 717.665 395.888C716.273 396.576 714.665 396.92 712.841 396.92H705.209ZM709.097 393.728H712.649C713.769 393.728 714.737 393.52 715.553 393.104C716.385 392.672 717.025 392.064 717.473 391.28C717.937 390.496 718.169 389.576 718.169 388.52C718.169 387.448 717.937 386.528 717.473 385.76C717.025 384.976 716.385 384.376 715.553 383.96C714.737 383.528 713.769 383.312 712.649 383.312H709.097V393.728ZM724.773 396.92V384.008H728.517V396.92H724.773ZM726.645 382.208C725.957 382.208 725.397 382.008 724.965 381.608C724.533 381.208 724.317 380.712 724.317 380.12C724.317 379.528 724.533 379.032 724.965 378.632C725.397 378.232 725.957 378.032 726.645 378.032C727.333 378.032 727.893 378.224 728.325 378.608C728.757 378.976 728.973 379.456 728.973 380.048C728.973 380.672 728.757 381.192 728.325 381.608C727.909 382.008 727.349 382.208 726.645 382.208ZM735.496 396.92L730.072 384.008H733.936L738.448 395.12H736.528L741.208 384.008H744.808L739.36 396.92H735.496ZM746.336 396.92V384.008H750.08V396.92H746.336ZM748.208 382.208C747.52 382.208 746.96 382.008 746.528 381.608C746.096 381.208 745.88 380.712 745.88 380.12C745.88 379.528 746.096 379.032 746.528 378.632C746.96 378.232 747.52 378.032 748.208 378.032C748.896 378.032 749.456 378.224 749.888 378.608C750.32 378.976 750.536 379.456 750.536 380.048C750.536 380.672 750.32 381.192 749.888 381.608C749.472 382.008 748.912 382.208 748.208 382.208ZM759.099 397.112C757.883 397.112 756.787 396.84 755.811 396.296C754.835 395.736 754.059 394.96 753.483 393.968C752.923 392.976 752.643 391.808 752.643 390.464C752.643 389.104 752.923 387.928 753.483 386.936C754.059 385.944 754.835 385.176 755.811 384.632C756.787 384.088 757.883 383.816 759.099 383.816C760.187 383.816 761.139 384.056 761.955 384.536C762.771 385.016 763.403 385.744 763.851 386.72C764.299 387.696 764.523 388.944 764.523 390.464C764.523 391.968 764.307 393.216 763.875 394.208C763.443 395.184 762.819 395.912 762.003 396.392C761.203 396.872 760.235 397.112 759.099 397.112ZM759.747 394.04C760.355 394.04 760.907 393.896 761.403 393.608C761.899 393.32 762.291 392.912 762.579 392.384C762.883 391.84 763.035 391.2 763.035 390.464C763.035 389.712 762.883 389.072 762.579 388.544C762.291 388.016 761.899 387.608 761.403 387.32C760.907 387.032 760.355 386.888 759.747 386.888C759.123 386.888 758.563 387.032 758.067 387.32C757.571 387.608 757.171 388.016 756.867 388.544C756.579 389.072 756.435 389.712 756.435 390.464C756.435 391.2 756.579 391.84 756.867 392.384C757.171 392.912 757.571 393.32 758.067 393.608C758.563 393.896 759.123 394.04 759.747 394.04ZM763.131 396.92V394.28L763.203 390.44L762.963 386.624V379.112H766.707V396.92H763.131ZM776.58 397.112C775.108 397.112 773.812 396.824 772.692 396.248C771.588 395.672 770.732 394.888 770.124 393.896C769.516 392.888 769.212 391.744 769.212 390.464C769.212 389.168 769.508 388.024 770.1 387.032C770.708 386.024 771.532 385.24 772.572 384.68C773.612 384.104 774.788 383.816 776.1 383.816C777.364 383.816 778.5 384.088 779.508 384.632C780.532 385.16 781.34 385.928 781.932 386.936C782.524 387.928 782.82 389.12 782.82 390.512C782.82 390.656 782.812 390.824 782.796 391.016C782.78 391.192 782.764 391.36 782.748 391.52H772.26V389.336H780.78L779.34 389.984C779.34 389.312 779.204 388.728 778.932 388.232C778.66 387.736 778.284 387.352 777.804 387.08C777.324 386.792 776.764 386.648 776.124 386.648C775.484 386.648 774.916 386.792 774.42 387.08C773.94 387.352 773.564 387.744 773.292 388.256C773.02 388.752 772.884 389.344 772.884 390.032V390.608C772.884 391.312 773.036 391.936 773.34 392.48C773.66 393.008 774.1 393.416 774.66 393.704C775.236 393.976 775.908 394.112 776.676 394.112C777.364 394.112 777.964 394.008 778.476 393.8C779.004 393.592 779.484 393.28 779.916 392.864L781.908 395.024C781.316 395.696 780.572 396.216 779.676 396.584C778.78 396.936 777.748 397.112 776.58 397.112ZM798.181 401.768C796.965 401.768 795.789 401.616 794.653 401.312C793.533 401.024 792.597 400.584 791.845 399.992L793.333 397.304C793.877 397.752 794.565 398.104 795.397 398.36C796.245 398.632 797.077 398.768 797.893 398.768C799.221 398.768 800.181 398.472 800.773 397.88C801.381 397.288 801.685 396.408 801.685 395.24V393.296L801.925 390.056L801.877 386.792V384.008H805.429V394.76C805.429 397.16 804.805 398.928 803.557 400.064C802.309 401.2 800.517 401.768 798.181 401.768ZM797.605 396.296C796.405 396.296 795.317 396.04 794.341 395.528C793.381 395 792.605 394.272 792.013 393.344C791.437 392.4 791.149 391.304 791.149 390.056C791.149 388.792 791.437 387.696 792.013 386.768C792.605 385.824 793.381 385.096 794.341 384.584C795.317 384.072 796.405 383.816 797.605 383.816C798.693 383.816 799.653 384.04 800.485 384.488C801.317 384.92 801.965 385.6 802.429 386.528C802.893 387.44 803.125 388.616 803.125 390.056C803.125 391.48 802.893 392.656 802.429 393.584C801.965 394.496 801.317 395.176 800.485 395.624C799.653 396.072 798.693 396.296 797.605 396.296ZM798.349 393.224C799.005 393.224 799.589 393.096 800.101 392.84C800.613 392.568 801.013 392.192 801.301 391.712C801.589 391.232 801.733 390.68 801.733 390.056C801.733 389.416 801.589 388.864 801.301 388.4C801.013 387.92 800.613 387.552 800.101 387.296C799.589 387.024 799.005 386.888 798.349 386.888C797.693 386.888 797.109 387.024 796.597 387.296C796.085 387.552 795.677 387.92 795.373 388.4C795.085 388.864 794.941 389.416 794.941 390.056C794.941 390.68 795.085 391.232 795.373 391.712C795.677 392.192 796.085 392.568 796.597 392.84C797.109 393.096 797.693 393.224 798.349 393.224ZM816.834 396.92V394.4L816.594 393.848V389.336C816.594 388.536 816.346 387.912 815.85 387.464C815.37 387.016 814.626 386.792 813.618 386.792C812.93 386.792 812.25 386.904 811.578 387.128C810.922 387.336 810.362 387.624 809.898 387.992L808.554 385.376C809.258 384.88 810.106 384.496 811.098 384.224C812.09 383.952 813.098 383.816 814.122 383.816C816.09 383.816 817.618 384.28 818.706 385.208C819.794 386.136 820.338 387.584 820.338 389.552V396.92H816.834ZM812.898 397.112C811.89 397.112 811.026 396.944 810.306 396.608C809.586 396.256 809.034 395.784 808.65 395.192C808.266 394.6 808.074 393.936 808.074 393.2C808.074 392.432 808.258 391.76 808.626 391.184C809.01 390.608 809.61 390.16 810.426 389.84C811.242 389.504 812.306 389.336 813.618 389.336H817.05V391.52H814.026C813.146 391.52 812.538 391.664 812.202 391.952C811.882 392.24 811.722 392.6 811.722 393.032C811.722 393.512 811.906 393.896 812.274 394.184C812.658 394.456 813.178 394.592 813.834 394.592C814.458 394.592 815.018 394.448 815.514 394.16C816.01 393.856 816.37 393.416 816.594 392.84L817.17 394.568C816.898 395.4 816.402 396.032 815.682 396.464C814.962 396.896 814.034 397.112 812.898 397.112ZM828.071 397.112C826.967 397.112 825.903 396.984 824.879 396.728C823.871 396.456 823.071 396.12 822.479 395.72L823.727 393.032C824.319 393.4 825.015 393.704 825.815 393.944C826.631 394.168 827.431 394.28 828.215 394.28C829.079 394.28 829.687 394.176 830.039 393.968C830.407 393.76 830.591 393.472 830.591 393.104C830.591 392.8 830.447 392.576 830.159 392.432C829.887 392.272 829.519 392.152 829.055 392.072C828.591 391.992 828.079 391.912 827.519 391.832C826.975 391.752 826.423 391.648 825.863 391.52C825.303 391.376 824.791 391.168 824.327 390.896C823.863 390.624 823.487 390.256 823.199 389.792C822.927 389.328 822.791 388.728 822.791 387.992C822.791 387.176 823.023 386.456 823.487 385.832C823.967 385.208 824.655 384.72 825.551 384.368C826.447 384 827.519 383.816 828.767 383.816C829.647 383.816 830.543 383.912 831.455 384.104C832.367 384.296 833.127 384.576 833.735 384.944L832.487 387.608C831.863 387.24 831.231 386.992 830.591 386.864C829.967 386.72 829.359 386.648 828.767 386.648C827.935 386.648 827.327 386.76 826.943 386.984C826.559 387.208 826.367 387.496 826.367 387.848C826.367 388.168 826.503 388.408 826.775 388.568C827.063 388.728 827.439 388.856 827.903 388.952C828.367 389.048 828.871 389.136 829.415 389.216C829.975 389.28 830.535 389.384 831.095 389.528C831.655 389.672 832.159 389.88 832.607 390.152C833.071 390.408 833.447 390.768 833.735 391.232C834.023 391.68 834.167 392.272 834.167 393.008C834.167 393.808 833.927 394.52 833.447 395.144C832.967 395.752 832.271 396.232 831.359 396.584C830.463 396.936 829.367 397.112 828.071 397.112ZM841.757 397.112C840.237 397.112 839.053 396.728 838.205 395.96C837.357 395.176 836.933 394.016 836.933 392.48V381.152H840.677V392.432C840.677 392.976 840.821 393.4 841.109 393.704C841.397 393.992 841.789 394.136 842.285 394.136C842.877 394.136 843.381 393.976 843.797 393.656L844.805 396.296C844.421 396.568 843.957 396.776 843.413 396.92C842.885 397.048 842.333 397.112 841.757 397.112ZM834.941 387.176V384.296H843.893V387.176H834.941ZM852.652 397.112C851.276 397.112 850.052 396.824 848.98 396.248C847.924 395.672 847.084 394.888 846.46 393.896C845.852 392.888 845.548 391.744 845.548 390.464C845.548 389.168 845.852 388.024 846.46 387.032C847.084 386.024 847.924 385.24 848.98 384.68C850.052 384.104 851.276 383.816 852.652 383.816C854.012 383.816 855.228 384.104 856.3 384.68C857.372 385.24 858.212 386.016 858.82 387.008C859.428 388 859.732 389.152 859.732 390.464C859.732 391.744 859.428 392.888 858.82 393.896C858.212 394.888 857.372 395.672 856.3 396.248C855.228 396.824 854.012 397.112 852.652 397.112ZM852.652 394.04C853.276 394.04 853.836 393.896 854.332 393.608C854.828 393.32 855.22 392.912 855.508 392.384C855.796 391.84 855.94 391.2 855.94 390.464C855.94 389.712 855.796 389.072 855.508 388.544C855.22 388.016 854.828 387.608 854.332 387.32C853.836 387.032 853.276 386.888 852.652 386.888C852.028 386.888 851.468 387.032 850.972 387.32C850.476 387.608 850.076 388.016 849.772 388.544C849.484 389.072 849.34 389.712 849.34 390.464C849.34 391.2 849.484 391.84 849.772 392.384C850.076 392.912 850.476 393.32 850.972 393.608C851.468 393.896 852.028 394.04 852.652 394.04ZM866.578 397.112C865.474 397.112 864.41 396.984 863.386 396.728C862.378 396.456 861.578 396.12 860.986 395.72L862.234 393.032C862.826 393.4 863.522 393.704 864.322 393.944C865.138 394.168 865.938 394.28 866.722 394.28C867.586 394.28 868.194 394.176 868.546 393.968C868.914 393.76 869.098 393.472 869.098 393.104C869.098 392.8 868.954 392.576 868.666 392.432C868.394 392.272 868.026 392.152 867.562 392.072C867.098 391.992 866.586 391.912 866.026 391.832C865.482 391.752 864.93 391.648 864.37 391.52C863.81 391.376 863.298 391.168 862.834 390.896C862.37 390.624 861.994 390.256 861.706 389.792C861.434 389.328 861.298 388.728 861.298 387.992C861.298 387.176 861.53 386.456 861.994 385.832C862.474 385.208 863.162 384.72 864.058 384.368C864.954 384 866.026 383.816 867.274 383.816C868.154 383.816 869.05 383.912 869.962 384.104C870.874 384.296 871.634 384.576 872.242 384.944L870.994 387.608C870.37 387.24 869.738 386.992 869.098 386.864C868.474 386.72 867.866 386.648 867.274 386.648C866.442 386.648 865.834 386.76 865.45 386.984C865.066 387.208 864.874 387.496 864.874 387.848C864.874 388.168 865.01 388.408 865.282 388.568C865.57 388.728 865.946 388.856 866.41 388.952C866.874 389.048 867.378 389.136 867.922 389.216C868.482 389.28 869.042 389.384 869.602 389.528C870.162 389.672 870.666 389.88 871.114 390.152C871.578 390.408 871.954 390.768 872.242 391.232C872.53 391.68 872.674 392.272 872.674 393.008C872.674 393.808 872.434 394.52 871.954 395.144C871.474 395.752 870.778 396.232 869.866 396.584C868.97 396.936 867.874 397.112 866.578 397.112Z" fill="#87549F"/>
<path d="M1400.37 49.76H1408.43V52.88H1400.37V49.76ZM1400.66 59H1396.77V42.2H1409.47V45.32H1400.66V59ZM1419.38 59V56.48L1419.14 55.928V51.416C1419.14 50.616 1418.89 49.992 1418.39 49.544C1417.91 49.096 1417.17 48.872 1416.16 48.872C1415.47 48.872 1414.79 48.984 1414.12 49.208C1413.47 49.416 1412.91 49.704 1412.44 50.072L1411.1 47.456C1411.8 46.96 1412.65 46.576 1413.64 46.304C1414.63 46.032 1415.64 45.896 1416.67 45.896C1418.63 45.896 1420.16 46.36 1421.25 47.288C1422.34 48.216 1422.88 49.664 1422.88 51.632V59H1419.38ZM1415.44 59.192C1414.43 59.192 1413.57 59.024 1412.85 58.688C1412.13 58.336 1411.58 57.864 1411.19 57.272C1410.81 56.68 1410.62 56.016 1410.62 55.28C1410.62 54.512 1410.8 53.84 1411.17 53.264C1411.55 52.688 1412.15 52.24 1412.97 51.92C1413.79 51.584 1414.85 51.416 1416.16 51.416H1419.59V53.6H1416.57C1415.69 53.6 1415.08 53.744 1414.75 54.032C1414.43 54.32 1414.27 54.68 1414.27 55.112C1414.27 55.592 1414.45 55.976 1414.82 56.264C1415.2 56.536 1415.72 56.672 1416.38 56.672C1417 56.672 1417.56 56.528 1418.06 56.24C1418.55 55.936 1418.91 55.496 1419.14 54.92L1419.71 56.648C1419.44 57.48 1418.95 58.112 1418.23 58.544C1417.51 58.976 1416.58 59.192 1415.44 59.192ZM1432.6 59.192C1431.21 59.192 1429.97 58.912 1428.88 58.352C1427.8 57.776 1426.94 56.984 1426.32 55.976C1425.71 54.968 1425.4 53.824 1425.4 52.544C1425.4 51.248 1425.71 50.104 1426.32 49.112C1426.94 48.104 1427.8 47.32 1428.88 46.76C1429.97 46.184 1431.21 45.896 1432.6 45.896C1433.96 45.896 1435.15 46.184 1436.16 46.76C1437.16 47.32 1437.91 48.128 1438.39 49.184L1435.48 50.744C1435.15 50.136 1434.72 49.688 1434.21 49.4C1433.72 49.112 1433.17 48.968 1432.58 48.968C1431.94 48.968 1431.36 49.112 1430.85 49.4C1430.34 49.688 1429.93 50.096 1429.63 50.624C1429.34 51.152 1429.2 51.792 1429.2 52.544C1429.2 53.296 1429.34 53.936 1429.63 54.464C1429.93 54.992 1430.34 55.4 1430.85 55.688C1431.36 55.976 1431.94 56.12 1432.58 56.12C1433.17 56.12 1433.72 55.984 1434.21 55.712C1434.72 55.424 1435.15 54.968 1435.48 54.344L1438.39 55.928C1437.91 56.968 1437.16 57.776 1436.16 58.352C1435.15 58.912 1433.96 59.192 1432.6 59.192ZM1440.47 59V46.088H1444.22V59H1440.47ZM1442.35 44.288C1441.66 44.288 1441.1 44.088 1440.67 43.688C1440.23 43.288 1440.02 42.792 1440.02 42.2C1440.02 41.608 1440.23 41.112 1440.67 40.712C1441.1 40.312 1441.66 40.112 1442.35 40.112C1443.03 40.112 1443.59 40.304 1444.03 40.688C1444.46 41.056 1444.67 41.536 1444.67 42.128C1444.67 42.752 1444.46 43.272 1444.03 43.688C1443.61 44.088 1443.05 44.288 1442.35 44.288ZM1447.69 59V41.192H1451.44V59H1447.69ZM1454.91 59V46.088H1458.66V59H1454.91ZM1456.78 44.288C1456.1 44.288 1455.54 44.088 1455.1 43.688C1454.67 43.288 1454.46 42.792 1454.46 42.2C1454.46 41.608 1454.67 41.112 1455.1 40.712C1455.54 40.312 1456.1 40.112 1456.78 40.112C1457.47 40.112 1458.03 40.304 1458.46 40.688C1458.9 41.056 1459.11 41.536 1459.11 42.128C1459.11 42.752 1458.9 43.272 1458.46 43.688C1458.05 44.088 1457.49 44.288 1456.78 44.288ZM1467.41 59.192C1465.89 59.192 1464.71 58.808 1463.86 58.04C1463.01 57.256 1462.59 56.096 1462.59 54.56V43.232H1466.33V54.512C1466.33 55.056 1466.47 55.48 1466.76 55.784C1467.05 56.072 1467.44 56.216 1467.94 56.216C1468.53 56.216 1469.03 56.056 1469.45 55.736L1470.46 58.376C1470.07 58.648 1469.61 58.856 1469.07 59C1468.54 59.128 1467.99 59.192 1467.41 59.192ZM1460.59 49.256V46.376H1469.55V49.256H1460.59ZM1480.48 59V56.48L1480.24 55.928V51.416C1480.24 50.616 1479.99 49.992 1479.5 49.544C1479.02 49.096 1478.27 48.872 1477.26 48.872C1476.58 48.872 1475.9 48.984 1475.22 49.208C1474.57 49.416 1474.01 49.704 1473.54 50.072L1472.2 47.456C1472.9 46.96 1473.75 46.576 1474.74 46.304C1475.74 46.032 1476.74 45.896 1477.77 45.896C1479.74 45.896 1481.26 46.36 1482.35 47.288C1483.44 48.216 1483.98 49.664 1483.98 51.632V59H1480.48ZM1476.54 59.192C1475.54 59.192 1474.67 59.024 1473.95 58.688C1473.23 58.336 1472.68 57.864 1472.3 57.272C1471.91 56.68 1471.72 56.016 1471.72 55.28C1471.72 54.512 1471.9 53.84 1472.27 53.264C1472.66 52.688 1473.26 52.24 1474.07 51.92C1474.89 51.584 1475.95 51.416 1477.26 51.416H1480.7V53.6H1477.67C1476.79 53.6 1476.18 53.744 1475.85 54.032C1475.53 54.32 1475.37 54.68 1475.37 55.112C1475.37 55.592 1475.55 55.976 1475.92 56.264C1476.3 56.536 1476.82 56.672 1477.48 56.672C1478.1 56.672 1478.66 56.528 1479.16 56.24C1479.66 55.936 1480.02 55.496 1480.24 54.92L1480.82 56.648C1480.54 57.48 1480.05 58.112 1479.33 58.544C1478.61 58.976 1477.68 59.192 1476.54 59.192ZM1494.17 59V41.192H1497.91V59H1494.17ZM1509.31 59V56.48L1509.07 55.928V51.416C1509.07 50.616 1508.82 49.992 1508.32 49.544C1507.84 49.096 1507.1 48.872 1506.09 48.872C1505.4 48.872 1504.72 48.984 1504.05 49.208C1503.4 49.416 1502.84 49.704 1502.37 50.072L1501.03 47.456C1501.73 46.96 1502.58 46.576 1503.57 46.304C1504.56 46.032 1505.57 45.896 1506.6 45.896C1508.56 45.896 1510.09 46.36 1511.18 47.288C1512.27 48.216 1512.81 49.664 1512.81 51.632V59H1509.31ZM1505.37 59.192C1504.36 59.192 1503.5 59.024 1502.78 58.688C1502.06 58.336 1501.51 57.864 1501.12 57.272C1500.74 56.68 1500.55 56.016 1500.55 55.28C1500.55 54.512 1500.73 53.84 1501.1 53.264C1501.48 52.688 1502.08 52.24 1502.9 51.92C1503.72 51.584 1504.78 51.416 1506.09 51.416H1509.52V53.6H1506.5C1505.62 53.6 1505.01 53.744 1504.68 54.032C1504.36 54.32 1504.2 54.68 1504.2 55.112C1504.2 55.592 1504.38 55.976 1504.75 56.264C1505.13 56.536 1505.65 56.672 1506.31 56.672C1506.93 56.672 1507.49 56.528 1507.99 56.24C1508.48 55.936 1508.84 55.496 1509.07 54.92L1509.64 56.648C1509.37 57.48 1508.88 58.112 1508.16 58.544C1507.44 58.976 1506.51 59.192 1505.37 59.192ZM1520.54 59.192C1519.44 59.192 1518.38 59.064 1517.35 58.808C1516.34 58.536 1515.54 58.2 1514.95 57.8L1516.2 55.112C1516.79 55.48 1517.49 55.784 1518.29 56.024C1519.1 56.248 1519.9 56.36 1520.69 56.36C1521.55 56.36 1522.16 56.256 1522.51 56.048C1522.88 55.84 1523.06 55.552 1523.06 55.184C1523.06 54.88 1522.92 54.656 1522.63 54.512C1522.36 54.352 1521.99 54.232 1521.53 54.152C1521.06 54.072 1520.55 53.992 1519.99 53.912C1519.45 53.832 1518.9 53.728 1518.34 53.6C1517.78 53.456 1517.26 53.248 1516.8 52.976C1516.34 52.704 1515.96 52.336 1515.67 51.872C1515.4 51.408 1515.26 50.808 1515.26 50.072C1515.26 49.256 1515.5 48.536 1515.96 47.912C1516.44 47.288 1517.13 46.8 1518.02 46.448C1518.92 46.08 1519.99 45.896 1521.24 45.896C1522.12 45.896 1523.02 45.992 1523.93 46.184C1524.84 46.376 1525.6 46.656 1526.21 47.024L1524.96 49.688C1524.34 49.32 1523.7 49.072 1523.06 48.944C1522.44 48.8 1521.83 48.728 1521.24 48.728C1520.41 48.728 1519.8 48.84 1519.42 49.064C1519.03 49.288 1518.84 49.576 1518.84 49.928C1518.84 50.248 1518.98 50.488 1519.25 50.648C1519.54 50.808 1519.91 50.936 1520.38 51.032C1520.84 51.128 1521.34 51.216 1521.89 51.296C1522.45 51.36 1523.01 51.464 1523.57 51.608C1524.13 51.752 1524.63 51.96 1525.08 52.232C1525.54 52.488 1525.92 52.848 1526.21 53.312C1526.5 53.76 1526.64 54.352 1526.64 55.088C1526.64 55.888 1526.4 56.6 1525.92 57.224C1525.44 57.832 1524.74 58.312 1523.83 58.664C1522.94 59.016 1521.84 59.192 1520.54 59.192ZM1399.79 88V75.088H1403.36V78.736L1402.86 77.68C1403.24 76.768 1403.86 76.08 1404.71 75.616C1405.55 75.136 1406.59 74.896 1407.8 74.896V78.352C1407.64 78.336 1407.5 78.328 1407.37 78.328C1407.24 78.312 1407.11 78.304 1406.96 78.304C1405.94 78.304 1405.11 78.6 1404.47 79.192C1403.84 79.768 1403.53 80.672 1403.53 81.904V88H1399.79ZM1416.34 88.192C1414.87 88.192 1413.58 87.904 1412.46 87.328C1411.35 86.752 1410.5 85.968 1409.89 84.976C1409.28 83.968 1408.98 82.824 1408.98 81.544C1408.98 80.248 1409.27 79.104 1409.86 78.112C1410.47 77.104 1411.3 76.32 1412.34 75.76C1413.38 75.184 1414.55 74.896 1415.86 74.896C1417.13 74.896 1418.26 75.168 1419.27 75.712C1420.3 76.24 1421.1 77.008 1421.7 78.016C1422.29 79.008 1422.58 80.2 1422.58 81.592C1422.58 81.736 1422.58 81.904 1422.56 82.096C1422.54 82.272 1422.53 82.44 1422.51 82.6H1412.02V80.416H1420.54L1419.1 81.064C1419.1 80.392 1418.97 79.808 1418.7 79.312C1418.42 78.816 1418.05 78.432 1417.57 78.16C1417.09 77.872 1416.53 77.728 1415.89 77.728C1415.25 77.728 1414.68 77.872 1414.18 78.16C1413.7 78.432 1413.33 78.824 1413.06 79.336C1412.78 79.832 1412.65 80.424 1412.65 81.112V81.688C1412.65 82.392 1412.8 83.016 1413.1 83.56C1413.42 84.088 1413.86 84.496 1414.42 84.784C1415 85.056 1415.67 85.192 1416.44 85.192C1417.13 85.192 1417.73 85.088 1418.24 84.88C1418.77 84.672 1419.25 84.36 1419.68 83.944L1421.67 86.104C1421.08 86.776 1420.34 87.296 1419.44 87.664C1418.54 88.016 1417.51 88.192 1416.34 88.192ZM1430.52 88.192C1429.45 88.192 1428.49 87.984 1427.64 87.568C1426.81 87.152 1426.16 86.52 1425.7 85.672C1425.24 84.808 1425 83.712 1425 82.384V75.088H1428.75V81.832C1428.75 82.904 1428.97 83.696 1429.42 84.208C1429.88 84.704 1430.53 84.952 1431.36 84.952C1431.94 84.952 1432.45 84.832 1432.9 84.592C1433.35 84.336 1433.7 83.952 1433.96 83.44C1434.21 82.912 1434.34 82.256 1434.34 81.472V75.088H1438.08V88H1434.53V84.448L1435.18 85.48C1434.75 86.376 1434.11 87.056 1433.26 87.52C1432.43 87.968 1431.52 88.192 1430.52 88.192ZM1449.4 74.896C1450.42 74.896 1451.34 75.104 1452.14 75.52C1452.95 75.92 1453.59 76.544 1454.06 77.392C1454.52 78.224 1454.75 79.296 1454.75 80.608V88H1451.01V81.184C1451.01 80.144 1450.78 79.376 1450.31 78.88C1449.86 78.384 1449.22 78.136 1448.39 78.136C1447.8 78.136 1447.26 78.264 1446.78 78.52C1446.32 78.76 1445.95 79.136 1445.68 79.648C1445.42 80.16 1445.3 80.816 1445.3 81.616V88H1441.55V75.088H1445.13V78.664L1444.46 77.584C1444.92 76.72 1445.58 76.056 1446.45 75.592C1447.31 75.128 1448.3 74.896 1449.4 74.896ZM1458.15 88V75.088H1461.89V88H1458.15ZM1460.02 73.288C1459.33 73.288 1458.77 73.088 1458.34 72.688C1457.91 72.288 1457.69 71.792 1457.69 71.2C1457.69 70.608 1457.91 70.112 1458.34 69.712C1458.77 69.312 1459.33 69.112 1460.02 69.112C1460.71 69.112 1461.27 69.304 1461.7 69.688C1462.13 70.056 1462.35 70.536 1462.35 71.128C1462.35 71.752 1462.13 72.272 1461.7 72.688C1461.28 73.088 1460.72 73.288 1460.02 73.288ZM1471.51 88.192C1470.13 88.192 1468.91 87.904 1467.84 87.328C1466.78 86.752 1465.94 85.968 1465.32 84.976C1464.71 83.968 1464.4 82.824 1464.4 81.544C1464.4 80.248 1464.71 79.104 1465.32 78.112C1465.94 77.104 1466.78 76.32 1467.84 75.76C1468.91 75.184 1470.13 74.896 1471.51 74.896C1472.87 74.896 1474.08 75.184 1475.16 75.76C1476.23 76.32 1477.07 77.096 1477.68 78.088C1478.28 79.08 1478.59 80.232 1478.59 81.544C1478.59 82.824 1478.28 83.968 1477.68 84.976C1477.07 85.968 1476.23 86.752 1475.16 87.328C1474.08 87.904 1472.87 88.192 1471.51 88.192ZM1471.51 85.12C1472.13 85.12 1472.69 84.976 1473.19 84.688C1473.68 84.4 1474.08 83.992 1474.36 83.464C1474.65 82.92 1474.8 82.28 1474.8 81.544C1474.8 80.792 1474.65 80.152 1474.36 79.624C1474.08 79.096 1473.68 78.688 1473.19 78.4C1472.69 78.112 1472.13 77.968 1471.51 77.968C1470.88 77.968 1470.32 78.112 1469.83 78.4C1469.33 78.688 1468.93 79.096 1468.63 79.624C1468.34 80.152 1468.2 80.792 1468.2 81.544C1468.2 82.28 1468.34 82.92 1468.63 83.464C1468.93 83.992 1469.33 84.4 1469.83 84.688C1470.32 84.976 1470.88 85.12 1471.51 85.12ZM1488.94 74.896C1489.96 74.896 1490.88 75.104 1491.68 75.52C1492.49 75.92 1493.13 76.544 1493.6 77.392C1494.06 78.224 1494.29 79.296 1494.29 80.608V88H1490.55V81.184C1490.55 80.144 1490.32 79.376 1489.85 78.88C1489.4 78.384 1488.76 78.136 1487.93 78.136C1487.34 78.136 1486.8 78.264 1486.32 78.52C1485.86 78.76 1485.49 79.136 1485.22 79.648C1484.96 80.16 1484.84 80.816 1484.84 81.616V88H1481.09V75.088H1484.67V78.664L1484 77.584C1484.46 76.72 1485.12 76.056 1485.99 75.592C1486.85 75.128 1487.84 74.896 1488.94 74.896ZM1504.19 88.192C1502.71 88.192 1501.42 87.904 1500.3 87.328C1499.19 86.752 1498.34 85.968 1497.73 84.976C1497.12 83.968 1496.82 82.824 1496.82 81.544C1496.82 80.248 1497.11 79.104 1497.71 78.112C1498.31 77.104 1499.14 76.32 1500.18 75.76C1501.22 75.184 1502.39 74.896 1503.71 74.896C1504.97 74.896 1506.11 75.168 1507.11 75.712C1508.14 76.24 1508.95 77.008 1509.54 78.016C1510.13 79.008 1510.43 80.2 1510.43 81.592C1510.43 81.736 1510.42 81.904 1510.4 82.096C1510.39 82.272 1510.37 82.44 1510.35 82.6H1499.87V80.416H1508.39L1506.95 81.064C1506.95 80.392 1506.81 79.808 1506.54 79.312C1506.27 78.816 1505.89 78.432 1505.41 78.16C1504.93 77.872 1504.37 77.728 1503.73 77.728C1503.09 77.728 1502.52 77.872 1502.03 78.16C1501.55 78.432 1501.17 78.824 1500.9 79.336C1500.63 79.832 1500.49 80.424 1500.49 81.112V81.688C1500.49 82.392 1500.64 83.016 1500.95 83.56C1501.27 84.088 1501.71 84.496 1502.27 84.784C1502.84 85.056 1503.51 85.192 1504.28 85.192C1504.97 85.192 1505.57 85.088 1506.08 84.88C1506.61 84.672 1507.09 84.36 1507.52 83.944L1509.51 86.104C1508.92 86.776 1508.18 87.296 1507.28 87.664C1506.39 88.016 1505.35 88.192 1504.19 88.192ZM1517.26 88.192C1516.16 88.192 1515.1 88.064 1514.07 87.808C1513.06 87.536 1512.26 87.2 1511.67 86.8L1512.92 84.112C1513.51 84.48 1514.21 84.784 1515.01 85.024C1515.82 85.248 1516.62 85.36 1517.41 85.36C1518.27 85.36 1518.88 85.256 1519.23 85.048C1519.6 84.84 1519.78 84.552 1519.78 84.184C1519.78 83.88 1519.64 83.656 1519.35 83.512C1519.08 83.352 1518.71 83.232 1518.25 83.152C1517.78 83.072 1517.27 82.992 1516.71 82.912C1516.17 82.832 1515.62 82.728 1515.06 82.6C1514.5 82.456 1513.98 82.248 1513.52 81.976C1513.06 81.704 1512.68 81.336 1512.39 80.872C1512.12 80.408 1511.98 79.808 1511.98 79.072C1511.98 78.256 1512.22 77.536 1512.68 76.912C1513.16 76.288 1513.85 75.8 1514.74 75.448C1515.64 75.08 1516.71 74.896 1517.96 74.896C1518.84 74.896 1519.74 74.992 1520.65 75.184C1521.56 75.376 1522.32 75.656 1522.93 76.024L1521.68 78.688C1521.06 78.32 1520.42 78.072 1519.78 77.944C1519.16 77.8 1518.55 77.728 1517.96 77.728C1517.13 77.728 1516.52 77.84 1516.14 78.064C1515.75 78.288 1515.56 78.576 1515.56 78.928C1515.56 79.248 1515.7 79.488 1515.97 79.648C1516.26 79.808 1516.63 79.936 1517.1 80.032C1517.56 80.128 1518.06 80.216 1518.61 80.296C1519.17 80.36 1519.73 80.464 1520.29 80.608C1520.85 80.752 1521.35 80.96 1521.8 81.232C1522.26 81.488 1522.64 81.848 1522.93 82.312C1523.22 82.76 1523.36 83.352 1523.36 84.088C1523.36 84.888 1523.12 85.6 1522.64 86.224C1522.16 86.832 1521.46 87.312 1520.55 87.664C1519.66 88.016 1518.56 88.192 1517.26 88.192Z" fill="#87549F"/>
<mask id="mask0_105_2659" style="mask-type:alpha" maskUnits="userSpaceOnUse" x="827" y="189" width="226" height="119">
<rect x="0.869328" y="0.243201" width="132.609" height="123.225" transform="matrix(0.992631 -0.223915 0.746026 0.710317 826.927 219.241)" fill="#FEFEFE" stroke="#253A74"/>
</mask>
<g mask="url(#mask0_105_2659)">
<path d="M904.305 275.064L904.296 275.055L904.283 275.058L892.865 277.646L856.912 243.291C854.718 241.193 853.956 239.145 854.629 237.144C855.302 235.143 857.209 233.787 860.349 233.076L940.364 214.943L998.619 230.077L1018.58 249.155L1007.17 251.743L1007.15 251.746L1007.16 251.755C1010.49 254.934 1011.65 258.014 1010.65 260.994C1009.65 263.975 1006.77 266.005 1002.01 267.084C997.245 268.162 992.035 267.966 986.374 266.496C980.713 265.025 976.22 262.7 972.893 259.521L972.884 259.512L972.871 259.515L938.577 267.287L938.565 267.289L938.574 267.298C941.901 270.478 943.064 273.557 942.061 276.538C941.058 279.519 938.178 281.548 933.417 282.627C928.657 283.706 923.447 283.51 917.786 282.039C912.126 280.568 907.632 278.244 904.305 275.064ZM948.894 236.617L948.903 236.626L948.916 236.623L971.778 231.442L971.81 231.435L971.771 231.425L942.636 223.856L942.637 223.853L942.626 223.855L936.91 225.151L936.898 225.154L936.907 225.162L948.894 236.617ZM914.6 244.389L914.609 244.398L914.622 244.395L937.484 239.214L937.497 239.211L937.487 239.202L925.5 227.747L925.491 227.739L925.479 227.741L902.616 232.922L902.604 232.925L902.613 232.934L914.6 244.389ZM880.306 252.161L880.315 252.169L880.328 252.167L903.19 246.986L903.203 246.983L903.194 246.974L891.206 235.519L891.197 235.51L891.185 235.513L868.322 240.694L868.31 240.697L868.319 240.706L880.306 252.161ZM896.289 267.434L896.298 267.442L896.311 267.44L900.883 266.403L900.887 266.407L900.889 266.399C901.31 264.887 902.201 263.544 903.563 262.37C904.925 261.196 906.891 260.318 909.462 259.736C912.032 259.153 914.73 258.974 917.556 259.199C920.383 259.424 923.204 259.926 926.021 260.704L926.02 260.707L926.032 260.704L969.471 250.86L969.475 250.863L969.477 250.855C969.897 249.344 970.789 248.001 972.151 246.827C973.513 245.653 975.479 244.775 978.05 244.192C980.62 243.61 983.318 243.431 986.144 243.656C988.971 243.881 991.792 244.382 994.608 245.16L994.608 245.163L994.62 245.161L999.192 244.124L999.205 244.122L999.195 244.113L991.204 236.476L991.195 236.467L991.182 236.47L888.301 259.785L888.288 259.788L888.298 259.797L896.289 267.434ZM926.444 275.963C928.447 275.509 929.657 274.663 930.074 273.425C930.49 272.187 929.998 270.898 928.597 269.559C927.196 268.221 925.319 267.245 922.968 266.635C920.617 266.024 918.439 265.946 916.436 266.4C914.432 266.854 913.222 267.7 912.806 268.938C912.389 270.176 912.882 271.464 914.283 272.803C915.684 274.142 917.56 275.117 919.912 275.728C922.263 276.339 924.44 276.417 926.444 275.963ZM995.031 260.42C997.035 259.965 998.245 259.119 998.662 257.882C999.078 256.644 998.586 255.355 997.184 254.016C995.783 252.677 993.907 251.702 991.556 251.091C989.205 250.48 987.027 250.402 985.024 250.856C983.02 251.31 981.81 252.156 981.393 253.394C980.977 254.632 981.469 255.921 982.871 257.26C984.272 258.599 986.148 259.574 988.499 260.184C990.85 260.795 993.028 260.874 995.031 260.42Z" fill="#253A74" stroke="#253A74" stroke-width="0.025"/>
</g>
<path d="M266.842 156.498L269.913 155.656L273.877 159.632L257.978 163.991L254.014 160.015L257.035 159.187L257.047 159.184L257.038 159.175L246.783 148.888L246.774 148.879L246.762 148.882L236.955 151.571C230.173 153.431 223.144 153.762 215.866 152.566C208.589 151.37 203.181 148.995 199.638 145.441C197.077 142.871 196.065 140.136 196.604 137.234C197.143 134.331 199.209 131.76 202.801 129.521L202.817 129.53L202.803 129.511C200.336 126.098 200.331 122.677 202.79 119.248C205.249 115.819 209.583 113.253 215.792 111.551C222.002 109.848 228.493 109.446 235.265 110.344C242.037 111.242 247.391 113.197 251.327 116.207L251.314 116.213L251.343 116.212C256.9 115.943 262.105 116.521 266.957 117.945C271.808 119.369 275.514 121.366 278.075 123.935C281.618 127.489 282.251 131.174 279.97 134.991C277.69 138.807 273.159 141.645 266.378 143.504L256.57 146.193L256.558 146.197L256.567 146.206L266.821 156.493L266.83 156.502L266.842 156.498ZM242.181 119.53L242.181 119.53C239.764 117.732 236.533 116.556 232.489 115.999C228.444 115.442 224.582 115.668 220.902 116.677C217.222 117.686 214.664 119.22 213.228 121.279C211.792 123.339 211.79 125.402 213.225 127.469L213.225 127.469L215.433 130.622L211.444 133.188C209.343 134.528 208.096 136.072 207.702 137.819C207.308 139.566 207.881 141.212 209.421 142.758C211.561 144.905 214.813 146.336 219.172 147.053C223.532 147.769 227.756 147.567 231.845 146.446L261.268 138.379C265.357 137.258 268.084 135.554 269.451 133.268C270.817 130.981 270.432 128.764 268.292 126.618C266.751 125.072 264.499 123.885 261.539 123.058C258.579 122.231 255.45 121.887 252.152 122.026L245.858 122.281L242.181 119.53Z" fill="#253A74" stroke="#253A74" stroke-width="0.025"/>
<path d="M1237.1 192.551L1240.17 191.709L1244.13 195.685L1228.24 200.044L1224.27 196.068L1227.29 195.24L1227.3 195.237L1227.3 195.228L1217.04 184.941L1217.03 184.932L1217.02 184.935L1207.21 187.624C1200.43 189.483 1193.4 189.815 1186.12 188.619C1178.85 187.423 1173.44 185.047 1169.9 181.493C1167.33 178.924 1166.32 176.189 1166.86 173.286C1167.4 170.384 1169.47 167.813 1173.06 165.573L1173.07 165.583L1173.06 165.564C1170.59 162.151 1170.59 158.73 1173.05 155.301C1175.51 151.872 1179.84 149.306 1186.05 147.604C1192.26 145.901 1198.75 145.499 1205.52 146.397C1212.3 147.295 1217.65 149.25 1221.59 152.26L1221.57 152.266L1221.6 152.265C1227.16 151.996 1232.36 152.574 1237.21 153.998C1242.07 155.422 1245.77 157.419 1248.33 159.988C1251.88 163.542 1252.51 167.227 1250.23 171.043C1247.95 174.86 1243.42 177.698 1236.64 179.557L1226.83 182.246L1226.82 182.249L1226.82 182.258L1237.08 192.545L1237.09 192.554L1237.1 192.551ZM1212.44 155.582L1212.44 155.582C1210.02 153.785 1206.79 152.608 1202.75 152.051C1198.7 151.494 1194.84 151.72 1191.16 152.729C1187.48 153.738 1184.92 155.272 1183.49 157.332C1182.05 159.392 1182.05 161.455 1183.48 163.521L1183.48 163.521L1185.69 166.675L1181.7 169.24C1179.6 170.581 1178.35 172.124 1177.96 173.871C1177.57 175.618 1178.14 177.265 1179.68 178.811C1181.82 180.957 1185.07 182.389 1189.43 183.105C1193.79 183.822 1198.01 183.619 1202.1 182.498L1231.53 174.431C1235.61 173.31 1238.34 171.607 1239.71 169.32C1241.07 167.034 1240.69 164.817 1238.55 162.67C1237.01 161.125 1234.76 159.938 1231.8 159.111C1228.84 158.283 1225.71 157.94 1222.41 158.079L1216.12 158.333L1212.44 155.582Z" fill="#253A74" stroke="#253A74" stroke-width="0.025"/>
<path d="M1458.96 282.684L1462.03 281.842L1466 285.818L1450.1 290.177L1446.13 286.201L1449.16 285.373L1449.17 285.369L1449.16 285.361L1438.9 275.073L1438.89 275.065L1438.88 275.068L1429.08 277.757C1422.29 279.616 1415.26 279.948 1407.99 278.752C1400.71 277.556 1395.3 275.18 1391.76 271.626C1389.2 269.057 1388.19 266.321 1388.72 263.419C1389.26 260.517 1391.33 257.946 1394.92 255.706L1394.94 255.716L1394.92 255.697C1392.46 252.284 1392.45 248.863 1394.91 245.434C1397.37 242.005 1401.7 239.439 1407.91 237.736C1414.12 236.034 1420.61 235.632 1427.39 236.53C1434.16 237.428 1439.51 239.383 1443.45 242.393L1443.43 242.399L1443.46 242.397C1449.02 242.129 1454.23 242.706 1459.08 244.131C1463.93 245.555 1467.63 247.552 1470.2 250.121C1473.74 253.675 1474.37 257.36 1472.09 261.176C1469.81 264.993 1465.28 267.831 1458.5 269.69L1448.69 272.379L1448.68 272.382L1448.69 272.391L1458.94 282.678L1458.95 282.687L1458.96 282.684ZM1434.3 245.715L1434.3 245.715C1431.88 243.918 1428.65 242.741 1424.61 242.184C1420.56 241.627 1416.7 241.853 1413.02 242.862C1409.34 243.871 1406.78 245.405 1405.35 247.465C1403.91 249.525 1403.91 251.588 1405.35 253.654L1405.35 253.654L1407.55 256.808L1403.56 259.373C1401.46 260.714 1400.22 262.257 1399.82 264.004C1399.43 265.751 1400 267.398 1401.54 268.944C1403.68 271.09 1406.93 272.522 1411.29 273.238C1415.65 273.955 1419.88 273.752 1423.97 272.631L1453.39 264.564C1457.48 263.443 1460.21 261.74 1461.57 259.453C1462.94 257.167 1462.55 254.95 1460.41 252.803C1458.87 251.257 1456.62 250.071 1453.66 249.244C1450.7 248.416 1447.57 248.073 1444.27 248.212L1437.98 248.466L1434.3 245.715Z" fill="#253A74" stroke="#253A74" stroke-width="0.025"/>
<path d="M1979.25 290.878L1982.32 290.036L1986.28 294.012L1970.38 298.371L1966.42 294.395L1969.44 293.567L1969.45 293.564L1969.44 293.555L1959.19 283.268L1959.18 283.259L1959.17 283.262L1949.36 285.951C1942.58 287.811 1935.55 288.142 1928.27 286.946C1920.99 285.75 1915.58 283.375 1912.04 279.82C1909.48 277.251 1908.47 274.516 1909.01 271.614C1909.55 268.711 1911.61 266.14 1915.21 263.9L1915.22 263.91L1915.21 263.891C1912.74 260.478 1912.73 257.057 1915.19 253.628C1917.65 250.199 1921.99 247.633 1928.2 245.931C1934.41 244.228 1940.9 243.826 1947.67 244.724C1954.44 245.622 1959.79 247.577 1963.73 250.587L1963.72 250.593L1963.75 250.592C1969.3 250.323 1974.51 250.901 1979.36 252.325C1984.21 253.749 1987.92 255.746 1990.48 258.315C1994.02 261.869 1994.65 265.554 1992.37 269.371C1990.09 273.187 1985.56 276.025 1978.78 277.884L1968.97 280.573L1968.96 280.577L1968.97 280.585L1979.23 290.873L1979.23 290.881L1979.25 290.878ZM1954.58 253.909L1954.58 253.909C1952.17 252.112 1948.94 250.936 1944.89 250.379C1940.85 249.821 1936.99 250.048 1933.31 251.057C1929.63 252.065 1927.07 253.6 1925.63 255.659C1924.2 257.719 1924.19 259.782 1925.63 261.848L1925.63 261.848L1927.84 265.002L1923.85 267.568C1921.75 268.908 1920.5 270.452 1920.11 272.199C1919.71 273.946 1920.28 275.592 1921.83 277.138C1923.97 279.285 1927.22 280.716 1931.58 281.432C1935.94 282.149 1940.16 281.946 1944.25 280.825L1973.67 272.758C1977.76 271.637 1980.49 269.934 1981.85 267.648C1983.22 265.361 1982.84 263.144 1980.7 260.998C1979.15 259.452 1976.9 258.265 1973.94 257.438C1970.98 256.611 1967.85 256.267 1964.56 256.406L1958.26 256.66L1954.58 253.909Z" fill="#253A74" stroke="#253A74" stroke-width="0.025"/>
<path d="M449.989 18.288C448.693 18.288 447.485 18.08 446.365 17.664C445.261 17.232 444.301 16.624 443.485 15.84C442.669 15.056 442.029 14.136 441.565 13.08C441.117 12.024 440.893 10.864 440.893 9.6C440.893 8.336 441.117 7.176 441.565 6.12C442.029 5.064 442.669 4.144 443.485 3.36C444.317 2.576 445.285 1.976 446.389 1.56C447.493 1.128 448.701 0.912 450.013 0.912C451.469 0.912 452.781 1.168 453.949 1.68C455.133 2.176 456.125 2.912 456.925 3.888L454.429 6.192C453.853 5.536 453.213 5.048 452.509 4.728C451.805 4.392 451.037 4.224 450.205 4.224C449.421 4.224 448.701 4.352 448.045 4.608C447.389 4.864 446.821 5.232 446.341 5.712C445.861 6.192 445.485 6.76 445.213 7.416C444.957 8.072 444.829 8.8 444.829 9.6C444.829 10.4 444.957 11.128 445.213 11.784C445.485 12.44 445.861 13.008 446.341 13.488C446.821 13.968 447.389 14.336 448.045 14.592C448.701 14.848 449.421 14.976 450.205 14.976C451.037 14.976 451.805 14.816 452.509 14.496C453.213 14.16 453.853 13.656 454.429 12.984L456.925 15.288C456.125 16.264 455.133 17.008 453.949 17.52C452.781 18.032 451.461 18.288 449.989 18.288ZM464.985 18.192C463.609 18.192 462.385 17.904 461.313 17.328C460.257 16.752 459.417 15.968 458.793 14.976C458.185 13.968 457.881 12.824 457.881 11.544C457.881 10.248 458.185 9.104 458.793 8.112C459.417 7.104 460.257 6.32 461.313 5.76C462.385 5.184 463.609 4.896 464.985 4.896C466.345 4.896 467.561 5.184 468.633 5.76C469.705 6.32 470.545 7.096 471.153 8.088C471.761 9.08 472.065 10.232 472.065 11.544C472.065 12.824 471.761 13.968 471.153 14.976C470.545 15.968 469.705 16.752 468.633 17.328C467.561 17.904 466.345 18.192 464.985 18.192ZM464.985 15.12C465.609 15.12 466.169 14.976 466.665 14.688C467.161 14.4 467.553 13.992 467.841 13.464C468.129 12.92 468.273 12.28 468.273 11.544C468.273 10.792 468.129 10.152 467.841 9.624C467.553 9.096 467.161 8.688 466.665 8.4C466.169 8.112 465.609 7.968 464.985 7.968C464.361 7.968 463.801 8.112 463.305 8.4C462.809 8.688 462.409 9.096 462.105 9.624C461.817 10.152 461.673 10.792 461.673 11.544C461.673 12.28 461.817 12.92 462.105 13.464C462.409 13.992 462.809 14.4 463.305 14.688C463.801 14.976 464.361 15.12 464.985 15.12ZM491.104 4.896C492.128 4.896 493.032 5.104 493.816 5.52C494.616 5.92 495.24 6.544 495.688 7.392C496.152 8.224 496.384 9.296 496.384 10.608V18H492.64V11.184C492.64 10.144 492.424 9.376 491.992 8.88C491.56 8.384 490.952 8.136 490.168 8.136C489.624 8.136 489.136 8.264 488.704 8.52C488.272 8.76 487.936 9.128 487.696 9.624C487.456 10.12 487.336 10.752 487.336 11.52V18H483.592V11.184C483.592 10.144 483.376 9.376 482.944 8.88C482.528 8.384 481.928 8.136 481.144 8.136C480.6 8.136 480.112 8.264 479.68 8.52C479.248 8.76 478.912 9.128 478.672 9.624C478.432 10.12 478.312 10.752 478.312 11.52V18H474.568V5.088H478.144V8.616L477.472 7.584C477.92 6.704 478.552 6.04 479.368 5.592C480.2 5.128 481.144 4.896 482.2 4.896C483.384 4.896 484.416 5.2 485.296 5.808C486.192 6.4 486.784 7.312 487.072 8.544L485.752 8.184C486.184 7.176 486.872 6.376 487.816 5.784C488.776 5.192 489.872 4.896 491.104 4.896ZM507.372 18.192C506.284 18.192 505.332 17.952 504.516 17.472C503.7 16.992 503.06 16.264 502.596 15.288C502.148 14.296 501.924 13.048 501.924 11.544C501.924 10.024 502.14 8.776 502.572 7.8C503.004 6.824 503.628 6.096 504.444 5.616C505.26 5.136 506.236 4.896 507.372 4.896C508.588 4.896 509.676 5.176 510.636 5.736C511.612 6.28 512.38 7.048 512.94 8.04C513.516 9.032 513.804 10.2 513.804 11.544C513.804 12.904 513.516 14.08 512.94 15.072C512.38 16.064 511.612 16.832 510.636 17.376C509.676 17.92 508.588 18.192 507.372 18.192ZM499.74 22.656V5.088H503.316V7.728L503.244 11.568L503.484 15.384V22.656H499.74ZM506.724 15.12C507.348 15.12 507.9 14.976 508.38 14.688C508.876 14.4 509.268 13.992 509.556 13.464C509.86 12.92 510.012 12.28 510.012 11.544C510.012 10.792 509.86 10.152 509.556 9.624C509.268 9.096 508.876 8.688 508.38 8.4C507.9 8.112 507.348 7.968 506.724 7.968C506.1 7.968 505.54 8.112 505.044 8.4C504.548 8.688 504.156 9.096 503.868 9.624C503.58 10.152 503.436 10.792 503.436 11.544C503.436 12.28 503.58 12.92 503.868 13.464C504.156 13.992 504.548 14.4 505.044 14.688C505.54 14.976 506.1 15.12 506.724 15.12ZM524.019 18V15.48L523.779 14.928V10.416C523.779 9.616 523.531 8.992 523.035 8.544C522.555 8.096 521.811 7.872 520.803 7.872C520.115 7.872 519.435 7.984 518.763 8.208C518.107 8.416 517.547 8.704 517.083 9.072L515.739 6.456C516.443 5.96 517.291 5.576 518.283 5.304C519.275 5.032 520.283 4.896 521.307 4.896C523.275 4.896 524.803 5.36 525.891 6.288C526.979 7.216 527.523 8.664 527.523 10.632V18H524.019ZM520.083 18.192C519.075 18.192 518.211 18.024 517.491 17.688C516.771 17.336 516.219 16.864 515.835 16.272C515.451 15.68 515.259 15.016 515.259 14.28C515.259 13.512 515.443 12.84 515.811 12.264C516.195 11.688 516.795 11.24 517.611 10.92C518.427 10.584 519.491 10.416 520.803 10.416H524.235V12.6H521.211C520.331 12.6 519.723 12.744 519.387 13.032C519.067 13.32 518.907 13.68 518.907 14.112C518.907 14.592 519.091 14.976 519.459 15.264C519.843 15.536 520.363 15.672 521.019 15.672C521.643 15.672 522.203 15.528 522.699 15.24C523.195 14.936 523.555 14.496 523.779 13.92L524.355 15.648C524.083 16.48 523.587 17.112 522.867 17.544C522.147 17.976 521.219 18.192 520.083 18.192ZM530.912 18V5.088H534.488V8.736L533.984 7.68C534.368 6.768 534.984 6.08 535.832 5.616C536.68 5.136 537.712 4.896 538.928 4.896V8.352C538.768 8.336 538.624 8.328 538.496 8.328C538.368 8.312 538.232 8.304 538.088 8.304C537.064 8.304 536.232 8.6 535.592 9.192C534.968 9.768 534.656 10.672 534.656 11.904V18H530.912ZM546.879 18.192C545.359 18.192 544.175 17.808 543.327 17.04C542.479 16.256 542.055 15.096 542.055 13.56V2.232H545.799V13.512C545.799 14.056 545.943 14.48 546.231 14.784C546.519 15.072 546.911 15.216 547.407 15.216C547.999 15.216 548.503 15.056 548.919 14.736L549.927 17.376C549.543 17.648 549.079 17.856 548.535 18C548.007 18.128 547.455 18.192 546.879 18.192ZM540.063 8.256V5.376H549.015V8.256H540.063ZM558.038 18.192C556.566 18.192 555.27 17.904 554.15 17.328C553.046 16.752 552.19 15.968 551.582 14.976C550.974 13.968 550.67 12.824 550.67 11.544C550.67 10.248 550.966 9.104 551.558 8.112C552.166 7.104 552.99 6.32 554.03 5.76C555.07 5.184 556.246 4.896 557.558 4.896C558.822 4.896 559.958 5.168 560.966 5.712C561.99 6.24 562.798 7.008 563.39 8.016C563.982 9.008 564.278 10.2 564.278 11.592C564.278 11.736 564.27 11.904 564.254 12.096C564.238 12.272 564.222 12.44 564.206 12.6H553.718V10.416H562.238L560.798 11.064C560.798 10.392 560.662 9.808 560.39 9.312C560.118 8.816 559.742 8.432 559.262 8.16C558.782 7.872 558.222 7.728 557.582 7.728C556.942 7.728 556.374 7.872 555.878 8.16C555.398 8.432 555.022 8.824 554.75 9.336C554.478 9.832 554.342 10.424 554.342 11.112V11.688C554.342 12.392 554.494 13.016 554.798 13.56C555.118 14.088 555.558 14.496 556.118 14.784C556.694 15.056 557.366 15.192 558.134 15.192C558.822 15.192 559.422 15.088 559.934 14.88C560.462 14.672 560.942 14.36 561.374 13.944L563.366 16.104C562.774 16.776 562.03 17.296 561.134 17.664C560.238 18.016 559.206 18.192 558.038 18.192ZM440.794 47V34.088H444.538V47H440.794ZM442.666 32.288C441.978 32.288 441.418 32.088 440.986 31.688C440.554 31.288 440.338 30.792 440.338 30.2C440.338 29.608 440.554 29.112 440.986 28.712C441.418 28.312 441.978 28.112 442.666 28.112C443.354 28.112 443.914 28.304 444.346 28.688C444.778 29.056 444.994 29.536 444.994 30.128C444.994 30.752 444.778 31.272 444.346 31.688C443.93 32.088 443.37 32.288 442.666 32.288ZM453.293 47.192C451.773 47.192 450.589 46.808 449.741 46.04C448.893 45.256 448.469 44.096 448.469 42.56V31.232H452.213V42.512C452.213 43.056 452.357 43.48 452.645 43.784C452.933 44.072 453.325 44.216 453.821 44.216C454.413 44.216 454.917 44.056 455.333 43.736L456.341 46.376C455.957 46.648 455.493 46.856 454.949 47C454.421 47.128 453.869 47.192 453.293 47.192ZM446.477 37.256V34.376H455.429V37.256H446.477ZM458.443 47V34.088H462.187V47H458.443ZM460.315 32.288C459.627 32.288 459.067 32.088 458.635 31.688C458.203 31.288 457.987 30.792 457.987 30.2C457.987 29.608 458.203 29.112 458.635 28.712C459.067 28.312 459.627 28.112 460.315 28.112C461.003 28.112 461.563 28.304 461.995 28.688C462.427 29.056 462.643 29.536 462.643 30.128C462.643 30.752 462.427 31.272 461.995 31.688C461.579 32.088 461.019 32.288 460.315 32.288ZM473.51 33.896C474.534 33.896 475.446 34.104 476.246 34.52C477.062 34.92 477.702 35.544 478.166 36.392C478.63 37.224 478.862 38.296 478.862 39.608V47H475.118V40.184C475.118 39.144 474.886 38.376 474.422 37.88C473.974 37.384 473.334 37.136 472.502 37.136C471.91 37.136 471.374 37.264 470.894 37.52C470.43 37.76 470.062 38.136 469.79 38.648C469.534 39.16 469.406 39.816 469.406 40.616V47H465.662V34.088H469.238V37.664L468.566 36.584C469.03 35.72 469.694 35.056 470.558 34.592C471.422 34.128 472.406 33.896 473.51 33.896ZM488.757 47.192C487.285 47.192 485.989 46.904 484.869 46.328C483.765 45.752 482.909 44.968 482.301 43.976C481.693 42.968 481.389 41.824 481.389 40.544C481.389 39.248 481.685 38.104 482.277 37.112C482.885 36.104 483.709 35.32 484.749 34.76C485.789 34.184 486.965 33.896 488.277 33.896C489.541 33.896 490.677 34.168 491.685 34.712C492.709 35.24 493.517 36.008 494.109 37.016C494.701 38.008 494.997 39.2 494.997 40.592C494.997 40.736 494.989 40.904 494.973 41.096C494.957 41.272 494.941 41.44 494.925 41.6H484.437V39.416H492.957L491.517 40.064C491.517 39.392 491.381 38.808 491.109 38.312C490.837 37.816 490.461 37.432 489.981 37.16C489.501 36.872 488.941 36.728 488.301 36.728C487.661 36.728 487.093 36.872 486.597 37.16C486.117 37.432 485.741 37.824 485.469 38.336C485.197 38.832 485.061 39.424 485.061 40.112V40.688C485.061 41.392 485.213 42.016 485.517 42.56C485.837 43.088 486.277 43.496 486.837 43.784C487.413 44.056 488.085 44.192 488.853 44.192C489.541 44.192 490.141 44.088 490.653 43.88C491.181 43.672 491.661 43.36 492.093 42.944L494.085 45.104C493.493 45.776 492.749 46.296 491.853 46.664C490.957 47.016 489.925 47.192 488.757 47.192ZM497.49 47V34.088H501.066V37.736L500.562 36.68C500.946 35.768 501.562 35.08 502.41 34.616C503.258 34.136 504.29 33.896 505.506 33.896V37.352C505.346 37.336 505.202 37.328 505.074 37.328C504.946 37.312 504.81 37.304 504.666 37.304C503.642 37.304 502.81 37.6 502.17 38.192C501.546 38.768 501.234 39.672 501.234 40.904V47H497.49ZM514.808 47V44.48L514.568 43.928V39.416C514.568 38.616 514.32 37.992 513.824 37.544C513.344 37.096 512.6 36.872 511.592 36.872C510.904 36.872 510.224 36.984 509.552 37.208C508.896 37.416 508.336 37.704 507.872 38.072L506.528 35.456C507.232 34.96 508.08 34.576 509.072 34.304C510.064 34.032 511.072 33.896 512.096 33.896C514.064 33.896 515.592 34.36 516.68 35.288C517.768 36.216 518.312 37.664 518.312 39.632V47H514.808ZM510.872 47.192C509.864 47.192 509 47.024 508.28 46.688C507.56 46.336 507.008 45.864 506.624 45.272C506.24 44.68 506.048 44.016 506.048 43.28C506.048 42.512 506.232 41.84 506.6 41.264C506.984 40.688 507.584 40.24 508.4 39.92C509.216 39.584 510.28 39.416 511.592 39.416H515.024V41.6H512C511.12 41.6 510.512 41.744 510.176 42.032C509.856 42.32 509.696 42.68 509.696 43.112C509.696 43.592 509.88 43.976 510.248 44.264C510.632 44.536 511.152 44.672 511.808 44.672C512.432 44.672 512.992 44.528 513.488 44.24C513.984 43.936 514.344 43.496 514.568 42.92L515.144 44.648C514.872 45.48 514.376 46.112 513.656 46.544C512.936 46.976 512.008 47.192 510.872 47.192ZM521.701 47V34.088H525.277V37.736L524.773 36.68C525.157 35.768 525.773 35.08 526.621 34.616C527.469 34.136 528.501 33.896 529.717 33.896V37.352C529.557 37.336 529.413 37.328 529.285 37.328C529.157 37.312 529.021 37.304 528.877 37.304C527.853 37.304 527.021 37.6 526.381 38.192C525.757 38.768 525.445 39.672 525.445 40.904V47H521.701ZM531.966 47V34.088H535.71V47H531.966ZM533.838 32.288C533.15 32.288 532.59 32.088 532.158 31.688C531.726 31.288 531.51 30.792 531.51 30.2C531.51 29.608 531.726 29.112 532.158 28.712C532.59 28.312 533.15 28.112 533.838 28.112C534.526 28.112 535.086 28.304 535.518 28.688C535.95 29.056 536.166 29.536 536.166 30.128C536.166 30.752 535.95 31.272 535.518 31.688C535.102 32.088 534.542 32.288 533.838 32.288ZM545.329 47.192C543.953 47.192 542.729 46.904 541.657 46.328C540.601 45.752 539.761 44.968 539.137 43.976C538.529 42.968 538.225 41.824 538.225 40.544C538.225 39.248 538.529 38.104 539.137 37.112C539.761 36.104 540.601 35.32 541.657 34.76C542.729 34.184 543.953 33.896 545.329 33.896C546.689 33.896 547.905 34.184 548.977 34.76C550.049 35.32 550.889 36.096 551.497 37.088C552.105 38.08 552.409 39.232 552.409 40.544C552.409 41.824 552.105 42.968 551.497 43.976C550.889 44.968 550.049 45.752 548.977 46.328C547.905 46.904 546.689 47.192 545.329 47.192ZM545.329 44.12C545.953 44.12 546.513 43.976 547.009 43.688C547.505 43.4 547.897 42.992 548.185 42.464C548.473 41.92 548.617 41.28 548.617 40.544C548.617 39.792 548.473 39.152 548.185 38.624C547.897 38.096 547.505 37.688 547.009 37.4C546.513 37.112 545.953 36.968 545.329 36.968C544.705 36.968 544.145 37.112 543.649 37.4C543.153 37.688 542.753 38.096 542.449 38.624C542.161 39.152 542.017 39.792 542.017 40.544C542.017 41.28 542.161 41.92 542.449 42.464C542.753 42.992 543.153 43.4 543.649 43.688C544.145 43.976 544.705 44.12 545.329 44.12ZM559.256 47.192C558.152 47.192 557.088 47.064 556.064 46.808C555.056 46.536 554.256 46.2 553.664 45.8L554.912 43.112C555.504 43.48 556.2 43.784 557 44.024C557.816 44.248 558.616 44.36 559.4 44.36C560.264 44.36 560.872 44.256 561.224 44.048C561.592 43.84 561.776 43.552 561.776 43.184C561.776 42.88 561.632 42.656 561.344 42.512C561.072 42.352 560.704 42.232 560.24 42.152C559.776 42.072 559.264 41.992 558.704 41.912C558.16 41.832 557.608 41.728 557.048 41.6C556.488 41.456 555.976 41.248 555.512 40.976C555.048 40.704 554.672 40.336 554.384 39.872C554.112 39.408 553.976 38.808 553.976 38.072C553.976 37.256 554.208 36.536 554.672 35.912C555.152 35.288 555.84 34.8 556.736 34.448C557.632 34.08 558.704 33.896 559.952 33.896C560.832 33.896 561.728 33.992 562.64 34.184C563.552 34.376 564.312 34.656 564.92 35.024L563.672 37.688C563.048 37.32 562.416 37.072 561.776 36.944C561.152 36.8 560.544 36.728 559.952 36.728C559.12 36.728 558.512 36.84 558.128 37.064C557.744 37.288 557.552 37.576 557.552 37.928C557.552 38.248 557.688 38.488 557.96 38.648C558.248 38.808 558.624 38.936 559.088 39.032C559.552 39.128 560.056 39.216 560.6 39.296C561.16 39.36 561.72 39.464 562.28 39.608C562.84 39.752 563.344 39.96 563.792 40.232C564.256 40.488 564.632 40.848 564.92 41.312C565.208 41.76 565.352 42.352 565.352 43.088C565.352 43.888 565.112 44.6 564.632 45.224C564.152 45.832 563.456 46.312 562.544 46.664C561.648 47.016 560.552 47.192 559.256 47.192Z" fill="#87549F"/>
</g>
<defs>
<clipPath id="clip0_105_2659">
<rect width="2228" height="431" fill="white"/>
</clipPath>
</defs>
</svg>
