<svg width="24" height="24" viewBox="0 0 24 24" fill="none" xmlns="http://www.w3.org/2000/svg">
<g clip-path="url(#clip0_240_3786)">
<path d="M5.54998 21.1501C5.08331 21.1501 4.68331 20.9834 4.34998 20.6501C4.01664 20.3168 3.84998 19.9168 3.84998 19.4501V9.7751C3.84998 9.50843 3.90831 9.25426 4.02498 9.0126C4.14164 8.77093 4.30831 8.56676 4.52498 8.4001L10.975 3.5751C11.125 3.45843 11.2875 3.37093 11.4625 3.3126C11.6375 3.25426 11.8166 3.2251 12 3.2251C12.1833 3.2251 12.3625 3.25426 12.5375 3.3126C12.7125 3.37093 12.875 3.45843 13.025 3.5751L19.475 8.4001C19.6916 8.56676 19.8583 8.77093 19.975 9.0126C20.0916 9.25426 20.15 9.50843 20.15 9.7751V19.4501C20.15 19.9168 19.9833 20.3168 19.65 20.6501C19.3166 20.9834 18.9166 21.1501 18.45 21.1501H16.025C14.9204 21.1501 14.025 20.2547 14.025 19.1501V15.9751C14.025 14.8705 13.1295 13.9751 12.025 13.9751H11.975C10.8704 13.9751 9.97498 14.8705 9.97498 15.9751V19.1501C9.97498 20.2547 9.07955 21.1501 7.97498 21.1501H5.54998Z" fill="#455A64"/>
<path d="M23.3663 7.76442C23.4431 7.91231 23.4922 8.06995 23.5134 8.23734C23.5347 8.40474 23.5317 8.57065 23.5044 8.73507L23.5211 19.6916C23.4802 19.9382 23.3506 20.1135 23.1323 20.2176C22.914 20.3216 22.6922 20.3195 22.4669 20.2112C22.3167 20.139 22.2032 20.029 22.1263 19.8811C22.0495 19.7332 22.0247 19.577 22.0519 19.4126L22.0353 8.45611L14.5557 2.37016C14.4055 2.29796 14.2919 2.18792 14.2151 2.04003C14.1382 1.89214 14.1134 1.73598 14.1407 1.57156C14.1815 1.32492 14.3073 1.14219 14.5179 1.02335C14.7285 0.904519 14.9464 0.89925 15.1717 1.00755L22.6513 7.0935C22.8016 7.1657 22.9391 7.2586 23.0638 7.37219C23.1886 7.48579 23.2894 7.61653 23.3663 7.76442Z" fill="#78909C"/>
</g>
<defs>
<clipPath id="clip0_240_3786">
<rect width="24" height="24" fill="white"/>
</clipPath>
</defs>
</svg>
