<svg width="21" height="21" viewBox="0 0 21 21" fill="none" xmlns="http://www.w3.org/2000/svg">
<path d="M0 5.25C0 4.55381 0.276562 3.88613 0.768845 3.39384C1.26113 2.90156 1.92881 2.625 2.625 2.625H18.375C19.0712 2.625 19.7389 2.90156 20.2312 3.39384C20.7234 3.88613 21 4.55381 21 5.25V11.1562C21 11.3303 20.9309 11.4972 20.8078 11.6203C20.6847 11.7434 20.5178 11.8125 20.3438 11.8125C20.1697 11.8125 20.0028 11.7434 19.8797 11.6203C19.7566 11.4972 19.6875 11.3303 19.6875 11.1562V7.06519L10.5 12.5777L8.75962 11.5343L1.35713 16.0886C1.43171 16.3679 1.59642 16.6148 1.82567 16.7909C2.05493 16.967 2.33592 17.0625 2.625 17.0625H9.84375C10.0178 17.0625 10.1847 17.1316 10.3078 17.2547C10.4309 17.3778 10.5 17.5447 10.5 17.7188C10.5 17.8928 10.4309 18.0597 10.3078 18.1828C10.1847 18.3059 10.0178 18.375 9.84375 18.375H2.625C1.93107 18.375 1.26538 18.1002 0.77347 17.6108C0.281562 17.1214 0.00346963 16.457 0 15.7631L0 5.25ZM1.3125 14.5753L7.49175 10.773L1.3125 7.06519V14.5753ZM1.3125 5.25V5.53481L10.5 11.0473L19.6875 5.53481V5.25C19.6875 4.9019 19.5492 4.56806 19.3031 4.32192C19.0569 4.07578 18.7231 3.9375 18.375 3.9375H2.625C2.2769 3.9375 1.94306 4.07578 1.69692 4.32192C1.45078 4.56806 1.3125 4.9019 1.3125 5.25Z" fill="#253A74"/>
<path d="M16.4062 21C17.6246 21 18.793 20.516 19.6545 19.6545C20.516 18.793 21 17.6246 21 16.4062C21 15.1879 20.516 14.0195 19.6545 13.158C18.793 12.2965 17.6246 11.8125 16.4062 11.8125C15.1879 11.8125 14.0195 12.2965 13.158 13.158C12.2965 14.0195 11.8125 15.1879 11.8125 16.4062C11.8125 17.6246 12.2965 18.793 13.158 19.6545C14.0195 20.516 15.1879 21 16.4062 21ZM16.8709 13.9729L18.5115 15.6135C18.6347 15.7367 18.704 15.9039 18.704 16.0781C18.704 16.2524 18.6347 16.4195 18.5115 16.5428C18.3883 16.666 18.2211 16.7352 18.0469 16.7352C17.8726 16.7352 17.7055 16.666 17.5822 16.5428L17.0625 16.0217V18.375C17.0625 18.549 16.9934 18.716 16.8703 18.839C16.7472 18.9621 16.5803 19.0312 16.4062 19.0312C16.2322 19.0312 16.0653 18.9621 15.9422 18.839C15.8191 18.716 15.75 18.549 15.75 18.375V16.1214L15.3825 16.5218C15.2648 16.65 15.101 16.7263 14.9272 16.7338C14.7533 16.7413 14.5835 16.6794 14.4552 16.5618C14.3269 16.4441 14.2507 16.2803 14.2432 16.1064C14.2356 15.9325 14.2975 15.7628 14.4152 15.6345L15.9232 13.9939C15.9831 13.9286 16.0555 13.8761 16.1362 13.8395C16.2168 13.8029 16.304 13.7831 16.3926 13.7811C16.4811 13.7791 16.5691 13.7951 16.6513 13.8281C16.7335 13.861 16.8082 13.9103 16.8709 13.9729Z" fill="#253A74"/>
</svg>
