<svg xmlns="http://www.w3.org/2000/svg" viewBox="0 0 500 500"><g id="freepik--Floor--inject-168"><g id="freepik--Mountains--inject-168"><g id="freepik--mountains--inject-168"><path d="M463.81,199.05s-87-69-93.79-68.67c-5.18.26-14.93,8.09-14.93,8.09s-31.72-32-37.9-32.81-95.27,89.65-95.27,89.65V321.92H463.81Z" style="fill:#e0e0e0"></path><path d="M463.81,199.05s-87-69-93.79-68.67c-5.18.26-14.93,8.09-14.93,8.09s-31.72-32-37.9-32.81-95.27,89.65-95.27,89.65V321.92H463.81Z" style="fill:#7ECDCE"></path><path d="M463.81,199.05s-87-69-93.79-68.67c-5.18.26-14.93,8.09-14.93,8.09s-31.72-32-37.9-32.81-95.27,89.65-95.27,89.65V321.92H463.81Z" style="fill:#fff;opacity:0.15"></path><path d="M355.09,138.47l-12,9c3.62-2.72,6.91,1.7,12,1.52s7.94-4.53,12.83-3.17c4,1.13,5.57,2.85,8.4,3.3,5.17.83,3.74-2,6.67-2.61,2-.42,12.08,1.11,16.19,2.82-14.73-10.83-26.79-19.1-29.16-19a8.45,8.45,0,0,0-1.84.35,20.19,20.19,0,0,0-3.5,1.43l-1,.52a61.06,61.06,0,0,0-6.19,4c-1.47,1-2.42,1.82-2.42,1.82Z" style="fill:#f0f0f0"></path><path d="M314.7,125.2c3.92.31,10.28,4.08,12.93,1.7s8.62-6.62,11.23-4.18c-8.81-8.22-18.53-16.68-21.67-17.06-2.07-.25-13.4,9.68-27.56,23,5.95-3.47,10,.77,13.56,1.71S310.79,124.89,314.7,125.2Z" style="fill:#f0f0f0"></path><path d="M324.17,118.28c4.18,5.2-4.08,1.17-8.05,2.34s14.66,14,11.36,17.11c-1.84,1.7-13.75-2.87-11.51,1.28.72,1.34,13,10.93,7.26,11.66-3.41.44-8.08-1.33-6.12,3.52a25.72,25.72,0,0,0,5.74,8.55l32.24-24.27s-30.29-30.61-37.44-32.7l-.46-.11C315.89,106.09,320,113.07,324.17,118.28Z" style="fill:#fff;opacity:0.30000000000000004"></path><path d="M370,130.38c-.2,0-.42.05-.63.08-2.08.93,3.28,7.28,4.4,9.61,1.22,2.53-10.28,0-10.75,1.7s15.59,13.28,15.77,15.35-14.43-1.93-14.87-.07,16.65,15.08,16.9,19c.13,2.11-6.16.52-11-1.19-3.38-1.19-9,0-4.06,5.76,2.9,3.4,98.06,75.77,98.06,75.77L463.7,199C460.35,196.31,376.69,130,370,130.38Z" style="fill:#fff;opacity:0.30000000000000004"></path><path d="M269.42,184.63S209,131.07,203.2,131.36c-4.4.23-29.82,19.06-29.82,19.06s-29.62-26.56-34.88-27.2-98.29,71.5-98.29,71.5l.07,127.2H269.45Z" style="fill:#e0e0e0"></path><path d="M269.42,184.63S209,131.07,203.2,131.36c-4.4.23-29.82,19.06-29.82,19.06s-29.62-26.56-34.88-27.2-98.29,71.5-98.29,71.5l.07,127.2H269.45Z" style="fill:#7ECDCE"></path><path d="M203.2,131.36c-2.76.15-13.78,7.6-21.61,13.14,2.23.45,6,2.81,8.92,2.71,4.33-.16,7.63-4.13,10.72-2.41s6.66,6,10.63,6.65c6.37,1.05,7.34-1.59,10.76-.81a79.5,79.5,0,0,0,8.68,1.23C218,140.81,205.65,131.24,203.2,131.36Z" style="fill:#f0f0f0"></path><path d="M136.39,139.82c3.33.27,8.73,3.47,11,1.45s5.15-3.58,7.88-2.78,6.79,2.1,6.79,2.1h0c-9-7.63-20.49-17-23.58-17.36-1.72-.21-12.77,7.33-26.89,17.57,7.06-1.38,8.62,4.53,13.2,3.52C129.57,143.25,133.06,139.56,136.39,139.82Z" style="fill:#f0f0f0"></path><path d="M144.43,133.94c3.56,4.43-3.46,1-6.83,2s11.76,9.74,9,12.34c-1.56,1.45-9.12-2-7.22,1.5s14.24,14.13,14.24,14.13l19.81-13.49S145,125.09,138.89,123.31l-.39-.09C137.39,123.58,140.88,129.52,144.43,133.94Z" style="fill:#fff;opacity:0.30000000000000004"></path><path d="M205.16,141.05c1,2.15-7.49-1.44-7.89,0s11.56,13.61,11.71,15.37-10.58-4-10.95-2.39,14.15,12.82,14.36,16.12c.12,1.79-5.23.44-9.37-1-2.87-1-7.63,0-3.45,4.89,2.45,2.87,69,58.6,69.86,59.28V184.63S209,131.07,203.2,131.36a3,3,0,0,0-.58.11C201,132.38,204.22,139.08,205.16,141.05Z" style="fill:#fff;opacity:0.30000000000000004"></path></g></g><g id="freepik--floor--inject-168"><path id="freepik--Buildings--inject-168" d="M454.64,240.7l-7.83,4.52V226.58l-3.91-2.26-7.83,4.52v3.5l-7.83,4.52V217.42l-7.83-4.52-7.83,4.52v2l-7.83,4.52V199.38l-7.83-4.52-7.84,4.52V186.63l-7.83-4.52-11.74,6.78v4.52l-7.83,4.52v3.71l-7.83-4.52V181.36s-7.69-4.3-7.83-4.3-7.83,4.3-7.83,4.3v6.72l-7.83-4.52-7.83,4.52v9l-7.83,4.52V178.72l-3.92-2.26-3.91,2.26v9L302,185.5,294.12,190v-6.88l-3.91-2.26-7.83,4.52v11.4l-3.92-2.26V190l-7.83-4.52L262.8,190V185.5l-11.74-6.78-7.83,4.52v-9l-7.83-4.52-7.83,4.52v12.56L223.65,189v-9l-7.83-4.52L208,180v13.56l-11.75-6.78v-9l-7.83-4.52-7.83,4.52v13.56L176.67,189l-7.83,4.52v5.52L161,203.58v-4.52l-7.83-4.52-11.75,6.78V191.11l-7.83-4.52-11.74,6.78v23.32l-11.75-6.78-15.66,9v-2l-7.83-4.52L78.79,217v10.43L71,231.93v10.64l-11.74,6.78v-4.92l-7.83-4.52-11.18,6.45v86.07h423.6V246Z" style="fill:#37474f"></path><g id="freepik--floor--inject-168"><ellipse id="freepik--Grass--inject-168" cx="252.02" cy="337.97" rx="233.1" ry="133.97" style="fill:#7ECDCE"></ellipse><ellipse id="freepik--grass--inject-168" cx="252.02" cy="337.97" rx="233.1" ry="133.97" style="fill:#fff;opacity:0.45"></ellipse></g><path id="freepik--Way--inject-168" d="M347.53,460.22c106.89-62.74,43.31-109.86-14.19-132.54-25.64-10.11-57.93-17.12-66.26-22.72-12-8-5.7-18.72,29.59-26.48,37.67-8.29,77-25.22,64.61-42-14.23-19.2-52.37-27-73.21-30.9-6.18-.55-12.41-1-18.64-1.23,18.58,5.14,38.39,14.75,48.92,24.81,27.07,25.85-55.83,28.27-104.73,46.95-30.68,11.73-34.75,42.22,38.37,65.67,11.83,3.79,41.63,14.65,24.48,39.82-18.42,27-85.48,55.87-91.91,64.35-10.87,5.42-15.41,11.39-15.53,17.23C226.57,475.79,291.06,474.77,347.53,460.22Z" style="fill:#fff;opacity:0.8"></path></g></g><g id="freepik--Flag--inject-168"><g id="freepik--flag--inject-168"><path d="M317.16,91.88c2.92,0,5.35-.2,6.5,1S322.73,95,324.8,95s5-.16,4.7,1.13c-.15.69-.45,1.37-.15,1.61.71.57,1.89.82,4,.74-1.61.78-6.05.61-5.45-.31.41-.64-.71-.52-3.22-.52s-2.9-.77-2.52-1.71-5-.47-5-.47Z" style="fill:#7ECDCE"></path><path d="M317.16,107.6a.45.45,0,0,1-.45-.45V90.46a.46.46,0,1,1,.91,0v16.69A.45.45,0,0,1,317.16,107.6Z" style="fill:#455a64"></path></g></g><g id="freepik--rocks-2--inject-168"><g id="freepik--Rocks--inject-168"><g id="freepik--grass--inject-168"><path d="M424.85,285.29c-.19,12.22,5.55,26.68,5.55,26.68l-2.8-1C422.83,294.72,424.85,285.29,424.85,285.29Z" style="fill:#7ECDCE"></path><path d="M424.85,285.29c-.19,12.22,5.55,26.68,5.55,26.68l-2.8-1C422.83,294.72,424.85,285.29,424.85,285.29Z" style="fill:#fff;opacity:0.15"></path><path d="M428.93,311.33c0,.05,0,.09.05.13l-1.38-.5c-4.77-16.24-2.75-25.67-2.75-25.67C423.89,291.36,426.49,305.13,428.93,311.33Z" style="fill:#7ECDCE;opacity:0.6000000000000001"></path><path d="M430.4,312a76.58,76.58,0,0,1,1.5-20.84c2.37-9.95,6.71-15,6.71-15s-5.7,4-9,14.77a64.77,64.77,0,0,0-2.89,19.73Z" style="fill:#7ECDCE"></path><path d="M430.4,312a76.58,76.58,0,0,1,1.5-20.84c2.37-9.95,6.71-15,6.71-15s-5.7,4-9,14.77a64.77,64.77,0,0,0-2.89,19.73Z" style="fill:#fff;opacity:0.2"></path><path d="M428.47,311.28h0l-1.75-.63a64.77,64.77,0,0,1,2.89-19.73c3.3-10.82,9-14.77,9-14.77C433.26,281.13,427.49,295.36,428.47,311.28Z" style="fill:#7ECDCE;opacity:0.6000000000000001"></path><path d="M430.4,312s.19-9.12,9.8-18.41A31,31,0,0,0,427.6,311Z" style="fill:#7ECDCE"></path><path d="M430.4,312s.19-9.12,9.8-18.41A31,31,0,0,0,427.6,311Z" style="fill:#fff;opacity:0.2"></path><path d="M428.93,311.33a.43.43,0,0,1,0,.11L427.6,311a31,31,0,0,1,12.6-17.4C435.65,297.4,430.36,303.51,428.93,311.33Z" style="fill:#7ECDCE;opacity:0.6000000000000001"></path></g><g id="freepik--rocks--inject-168"><polygon id="freepik--Shadow--inject-168" points="383.81 313.96 387.78 316.41 391.03 320.89 394.1 320.22 398.08 322.08 402.83 318.33 407.86 317.62 413.76 318.07 416.2 320.71 420.49 321.91 426.76 318.72 432.93 311.67 424.23 311.13 410.6 313.39 415.9 311.34 419.13 307.8 417.91 305.87 413.44 299.81 405.57 300.1 383.42 303.62 383.81 313.96" style="opacity:0.1"></polygon><g id="freepik--rocks--inject-168"><g id="freepik--Rock--inject-168"><polygon points="397.18 290.89 387.67 297.26 384.46 301.85 390.69 302.72 398.62 306.34 400.66 301.33 397.03 296.39 397.18 290.89" style="fill:#7ECDCE"></polygon><polygon points="397.18 290.89 387.67 297.26 384.46 301.85 390.69 302.72 398.62 306.34 400.66 301.33 397.03 296.39 397.18 290.89" style="opacity:0.30000000000000004"></polygon><polygon points="397.18 290.89 403 291.07 404.28 296.96 400.66 301.33 397.03 296.39 397.18 290.89" style="fill:#7ECDCE"></polygon><polygon points="397.18 290.89 403 291.07 404.28 296.96 400.66 301.33 397.03 296.39 397.18 290.89" style="opacity:0.35000000000000003"></polygon><polygon points="411.51 297.35 412.34 301.96 408.12 300.63 403.09 303.28 400.84 306.13 399.12 311.71 397.4 319.53 394.86 312.83 398.62 306.34 402.33 302.1 407.81 300.13 411.51 297.35" style="fill:#7ECDCE"></polygon><polygon points="406.29 315 413.39 308.92 410.31 303.53 406.29 315" style="fill:#7ECDCE"></polygon><g style="opacity:0.5"><polygon points="411.51 297.35 412.34 301.96 408.12 300.63 403.09 303.28 400.84 306.13 399.12 311.71 397.4 319.53 394.86 312.83 398.62 306.34 402.33 302.1 407.81 300.13 411.51 297.35"></polygon><polygon points="406.29 315 413.39 308.92 410.31 303.53 406.29 315"></polygon></g><polygon points="391.63 294.61 388.19 298.66 387.41 300.91 390.86 301.05 398.62 306.34 390.69 302.72 384.46 301.85 387.67 297.26 391.63 294.61" style="fill:#7ECDCE"></polygon><polygon points="403 291.07 402.93 296.69 399.72 300.05 400.66 301.33 404.28 296.96 403 291.07" style="fill:#7ECDCE"></polygon><polygon points="394.86 312.83 390.43 312.05 381.4 309.33 375.66 305.18 377.69 302.1 381.06 301.5 378.34 302.75 377.95 304.9 381.07 307.25 394.35 311.56 398.62 306.34 394.86 312.83" style="fill:#7ECDCE"></polygon><g style="opacity:0.25"><polygon points="391.63 294.61 388.19 298.66 387.41 300.91 390.86 301.05 398.62 306.34 390.69 302.72 384.46 301.85 387.67 297.26 391.63 294.61"></polygon><polygon points="403 291.07 402.93 296.69 399.72 300.05 400.66 301.33 404.28 296.96 403 291.07"></polygon><polygon points="394.86 312.83 390.43 312.05 381.4 309.33 375.66 305.18 377.69 302.1 381.06 301.5 378.34 302.75 377.95 304.9 381.07 307.25 394.35 311.56 398.62 306.34 394.86 312.83"></polygon></g><polygon points="387.67 297.26 381.06 301.5 378.34 302.75 377.95 304.9 381.07 307.25 394.35 311.56 395.56 310.08 390.92 305.93 387.51 306.25 384.46 301.85 387.67 297.26" style="fill:#7ECDCE"></polygon><polygon points="387.67 297.26 381.06 301.5 378.34 302.75 377.95 304.9 381.07 307.25 394.35 311.56 395.56 310.08 390.92 305.93 387.51 306.25 384.46 301.85 387.67 297.26" style="opacity:0.35000000000000003"></polygon><polygon points="403 291.07 411.51 297.35 407.81 300.13 402.33 302.1 398.62 306.34 400.66 301.33 404.28 296.96 403 291.07" style="fill:#7ECDCE"></polygon><polygon points="408.12 300.63 403.09 303.28 400.84 306.13 399.12 311.71 400.72 316.84 406.29 315 410.31 303.53 408.12 300.63" style="fill:#7ECDCE"></polygon><polygon points="384.46 301.85 387.51 306.25 390.92 305.93 390.69 302.72 384.46 301.85" style="fill:#7ECDCE"></polygon><polygon points="380.11 312.55 382.95 313.21 384.32 311.63 390.43 312.05 381.4 309.33 380.11 312.55" style="fill:#7ECDCE"></polygon><g style="opacity:0.45"><polygon points="403 291.07 411.51 297.35 407.81 300.13 402.33 302.1 398.62 306.34 400.66 301.33 404.28 296.96 403 291.07"></polygon><polygon points="408.12 300.63 403.09 303.28 400.84 306.13 399.12 311.71 400.72 316.84 406.29 315 410.31 303.53 408.12 300.63"></polygon><polygon points="384.46 301.85 387.51 306.25 390.92 305.93 390.69 302.72 384.46 301.85"></polygon><polygon points="380.11 312.55 382.95 313.21 384.32 311.63 390.43 312.05 381.4 309.33 380.11 312.55"></polygon></g><polygon points="393.01 312.51 390.43 312.05 388 314.99 390.55 318.25 393.01 312.51" style="fill:#7ECDCE"></polygon><polygon points="393.01 312.51 390.43 312.05 388 314.99 390.55 318.25 393.01 312.51" style="opacity:0.35000000000000003"></polygon><polygon points="412.34 301.96 415.73 306.39 413.39 308.92 410.31 303.53 408.12 300.63 412.34 301.96" style="fill:#7ECDCE"></polygon><polygon points="397.4 319.53 400.72 316.84 399.12 311.71 397.4 319.53" style="fill:#7ECDCE"></polygon><polygon points="398.62 306.34 395.56 310.08 390.92 305.93 390.69 302.72 398.62 306.34" style="fill:#7ECDCE"></polygon><polygon points="375.66 305.18 374.31 309.07 380.11 312.55 381.4 309.33 375.66 305.18" style="fill:#7ECDCE"></polygon><polygon points="397.4 319.53 390.55 318.25 393.01 312.51 394.86 312.83 397.4 319.53" style="fill:#7ECDCE"></polygon><polygon points="382.95 313.21 388 314.99 390.43 312.05 384.32 311.63 382.95 313.21" style="fill:#7ECDCE"></polygon><g style="opacity:0.4"><polygon points="412.34 301.96 415.73 306.39 413.39 308.92 410.31 303.53 408.12 300.63 412.34 301.96"></polygon><polygon points="397.4 319.53 400.72 316.84 399.12 311.71 397.4 319.53"></polygon><polygon points="398.62 306.34 395.56 310.08 390.92 305.93 390.69 302.72 398.62 306.34"></polygon><polygon points="375.66 305.18 374.31 309.07 380.11 312.55 381.4 309.33 375.66 305.18"></polygon><polygon points="397.4 319.53 390.55 318.25 393.01 312.51 394.86 312.83 397.4 319.53"></polygon><polygon points="382.95 313.21 388 314.99 390.43 312.05 384.32 311.63 382.95 313.21"></polygon></g></g><g id="freepik--rock--inject-168"><polygon points="420.19 303.44 414.95 306.94 413.19 309.47 416.62 309.95 420.98 311.94 422.11 309.18 420.11 306.46 420.19 303.44" style="fill:#7ECDCE"></polygon><polygon points="420.19 303.44 414.95 306.94 413.19 309.47 416.62 309.95 420.98 311.94 422.11 309.18 420.11 306.46 420.19 303.44" style="opacity:0.30000000000000004"></polygon><polygon points="420.19 303.44 423.4 303.54 424.1 306.78 422.11 309.18 420.11 306.46 420.19 303.44" style="fill:#7ECDCE"></polygon><polygon points="420.19 303.44 423.4 303.54 424.1 306.78 422.11 309.18 420.11 306.46 420.19 303.44" style="opacity:0.35000000000000003"></polygon><polygon points="428.08 306.99 428.54 309.53 426.21 308.8 423.44 310.26 422.21 311.83 421.26 314.9 420.31 319.2 418.92 315.51 420.98 311.94 423.03 309.61 426.04 308.52 428.08 306.99" style="fill:#7ECDCE"></polygon><polygon points="425.21 316.71 429.11 313.36 427.42 310.4 425.21 316.71" style="fill:#7ECDCE"></polygon><g style="opacity:0.5"><polygon points="428.08 306.99 428.54 309.53 426.21 308.8 423.44 310.26 422.21 311.83 421.26 314.9 420.31 319.2 418.92 315.51 420.98 311.94 423.03 309.61 426.04 308.52 428.08 306.99"></polygon><polygon points="425.21 316.71 429.11 313.36 427.42 310.4 425.21 316.71"></polygon></g><polygon points="417.13 305.48 415.24 307.71 414.81 308.95 416.71 309.03 420.98 311.94 416.62 309.95 413.19 309.47 414.95 306.94 417.13 305.48" style="fill:#7ECDCE"></polygon><polygon points="423.4 303.54 423.36 306.63 421.59 308.48 422.11 309.18 424.1 306.78 423.4 303.54" style="fill:#7ECDCE"></polygon><polygon points="418.92 315.51 416.48 315.09 411.5 313.59 408.34 311.3 409.46 309.61 411.32 309.28 409.82 309.96 409.6 311.15 411.32 312.44 418.63 314.81 420.98 311.94 418.92 315.51" style="fill:#7ECDCE"></polygon><g style="opacity:0.25"><polygon points="417.13 305.48 415.24 307.71 414.81 308.95 416.71 309.03 420.98 311.94 416.62 309.95 413.19 309.47 414.95 306.94 417.13 305.48"></polygon><polygon points="423.4 303.54 423.36 306.63 421.59 308.48 422.11 309.18 424.1 306.78 423.4 303.54"></polygon><polygon points="418.92 315.51 416.48 315.09 411.5 313.59 408.34 311.3 409.46 309.61 411.32 309.28 409.82 309.96 409.6 311.15 411.32 312.44 418.63 314.81 420.98 311.94 418.92 315.51"></polygon></g><polygon points="414.95 306.94 411.32 309.28 409.82 309.96 409.6 311.15 411.32 312.44 418.63 314.81 419.3 314 416.74 311.72 414.87 311.89 413.19 309.47 414.95 306.94" style="fill:#7ECDCE"></polygon><polygon points="414.95 306.94 411.32 309.28 409.82 309.96 409.6 311.15 411.32 312.44 418.63 314.81 419.3 314 416.74 311.72 414.87 311.89 413.19 309.47 414.95 306.94" style="opacity:0.35000000000000003"></polygon><polygon points="423.4 303.54 428.08 306.99 426.04 308.52 423.03 309.61 420.98 311.94 422.11 309.18 424.1 306.78 423.4 303.54" style="fill:#7ECDCE"></polygon><polygon points="426.21 308.8 423.44 310.26 422.21 311.83 421.26 314.9 422.14 317.72 425.21 316.71 427.42 310.4 426.21 308.8" style="fill:#7ECDCE"></polygon><polygon points="413.19 309.47 414.87 311.89 416.74 311.72 416.62 309.95 413.19 309.47" style="fill:#7ECDCE"></polygon><polygon points="410.79 315.36 412.36 315.73 413.11 314.86 416.48 315.09 411.5 313.59 410.79 315.36" style="fill:#7ECDCE"></polygon><g style="opacity:0.45"><polygon points="423.4 303.54 428.08 306.99 426.04 308.52 423.03 309.61 420.98 311.94 422.11 309.18 424.1 306.78 423.4 303.54"></polygon><polygon points="426.21 308.8 423.44 310.26 422.21 311.83 421.26 314.9 422.14 317.72 425.21 316.71 427.42 310.4 426.21 308.8"></polygon><polygon points="413.19 309.47 414.87 311.89 416.74 311.72 416.62 309.95 413.19 309.47"></polygon><polygon points="410.79 315.36 412.36 315.73 413.11 314.86 416.48 315.09 411.5 313.59 410.79 315.36"></polygon></g><polygon points="417.9 315.34 416.48 315.09 415.14 316.7 416.54 318.5 417.9 315.34" style="fill:#7ECDCE"></polygon><polygon points="417.9 315.34 416.48 315.09 415.14 316.7 416.54 318.5 417.9 315.34" style="opacity:0.35000000000000003"></polygon><polygon points="428.54 309.53 430.4 311.97 429.11 313.36 427.42 310.4 426.21 308.8 428.54 309.53" style="fill:#7ECDCE"></polygon><polygon points="420.31 319.2 422.14 317.72 421.26 314.9 420.31 319.2" style="fill:#7ECDCE"></polygon><polygon points="420.98 311.94 419.3 314 416.74 311.72 416.62 309.95 420.98 311.94" style="fill:#7ECDCE"></polygon><polygon points="408.34 311.3 407.6 313.44 410.79 315.36 411.5 313.59 408.34 311.3" style="fill:#7ECDCE"></polygon><polygon points="420.31 319.2 416.54 318.5 417.9 315.34 418.92 315.51 420.31 319.2" style="fill:#7ECDCE"></polygon><polygon points="412.36 315.73 415.14 316.7 416.48 315.09 413.11 314.86 412.36 315.73" style="fill:#7ECDCE"></polygon><g style="opacity:0.4"><polygon points="428.54 309.53 430.4 311.97 429.11 313.36 427.42 310.4 426.21 308.8 428.54 309.53"></polygon><polygon points="420.31 319.2 422.14 317.72 421.26 314.9 420.31 319.2"></polygon><polygon points="420.98 311.94 419.3 314 416.74 311.72 416.62 309.95 420.98 311.94"></polygon><polygon points="408.34 311.3 407.6 313.44 410.79 315.36 411.5 313.59 408.34 311.3"></polygon><polygon points="420.31 319.2 416.54 318.5 417.9 315.34 418.92 315.51 420.31 319.2"></polygon><polygon points="412.36 315.73 415.14 316.7 416.48 315.09 413.11 314.86 412.36 315.73"></polygon></g></g></g></g></g></g><g id="freepik--Clouds--inject-168"><path id="freepik--Cloud--inject-168" d="M144.47,27.69c-1.56,1.16-3.88,1.17-5.91,1-2.37-.22-5.06-.46-6.85,1.12a19.72,19.72,0,0,0-2.18,2.91c-2,2.62-6.23,1-7.89,4.5-.23.51-.16,2.12-.81,2.31s-2.06-.8-2.75-.88a23.23,23.23,0,0,0-6.7.6,7.74,7.74,0,0,0-5,3.29c-.56.86-1,1.92-2,2.19a3.31,3.31,0,0,1-1.73-.14,20.6,20.6,0,0,0-6-1.13c-2.06.07-4.24,1.07-5,2.93-.11.26-.22.58-.5.65s-.55-.13-.77-.31a6.21,6.21,0,0,0-5.54-1.1,3.06,3.06,0,0,0-1.6,1c-.54.73-.5,1.74-1,2.47-.93,1.26-2.9,1-4.47.65-2.07-.44-4.48-.69-6.12.64-.44.36-.79.81-1.26,1.14-1.25.91-3,.73-4.52.67-1,0-13,1-12.74,2s3.21.63,3.89.66c1,0,2,.2,3,.18A8.39,8.39,0,0,1,63,55c.63.24,1.06.75,1.75.93a7.77,7.77,0,0,0,4.77-.61c1.75-.69,3.61-1.8,5.55-1.82a8.46,8.46,0,0,1,2.65.81,9.31,9.31,0,0,0,5.38-.19c1-.31,2.56-1.13,3.68-.9.63.13,1.34.71,2,.91a13.53,13.53,0,0,0,2.65.53c3.21.28,6.26-1.63,9.23-2.54,3.8-1.15,6-.42,9,1.69a9.27,9.27,0,0,0,8.74.91,23,23,0,0,1,2.55-1.13,10.09,10.09,0,0,1,6.73.15,16.14,16.14,0,0,0,3.92,1.69c4.59.82,8.66-4.71,13.19-3.61a12.23,12.23,0,0,1,2.6,1.14,39.83,39.83,0,0,0,7.88,2.62,4.57,4.57,0,0,0,1.51.22,4.37,4.37,0,0,0,1.93-.8,20.42,20.42,0,0,1,3.53-2,4.84,4.84,0,0,1,3.93,0A9.51,9.51,0,0,0,168,54.14c1.82.45,3.28-1.67,5.13-2s3.49,1.08,5.33.85,3.73-1.31,5.75-1.51c4.53-.45,9.16.5,13.61-.77a23,23,0,0,1,5.11-1.26c3.24-.16,6.47,1.76,9.6.93a.87.87,0,0,0,.34-.15c.33-.27.14-.86-.24-1.06a2.23,2.23,0,0,0-1.26-.12,10.7,10.7,0,0,1-3.94-.43,38.26,38.26,0,0,0-3.95-1.34c-4.21-.8-8.7,2.36-12.67.74a30.2,30.2,0,0,0-3.14-1.52c-2.26-.62-4.66.76-7,.34-1.85-.33-3.3-1.75-4.51-3.19a14.86,14.86,0,0,0-4-3.9c-1.66-.89-4-.81-5.1.74a14.88,14.88,0,0,0-1.82-4.23,5.08,5.08,0,0,0-3.79-2.33,3.71,3.71,0,0,1-2-.27,2.86,2.86,0,0,1-.83-1.92,8.68,8.68,0,0,0-4.19-5.81,16.13,16.13,0,0,0-4.67-1.77,3.69,3.69,0,0,0-3.21.81,21.58,21.58,0,0,0-1.39,2A4,4,0,0,1,144.47,27.69Z" style="fill:#f0f0f0"></path><path id="freepik--cloud--inject-168" d="M241.9,62.86l-.34.17c-1.83.84-3.95.14-6,.16a8.18,8.18,0,0,0-5.29,2c-.86.77-1.55,1.71-2.39,2.51a10,10,0,0,1-8.15,2.65A20.35,20.35,0,0,0,217,70c-2.36,0-4.42,1.53-6.68,2.22-5,1.51-10.35-1.22-15.45-.28-2.86.53-5.43,2.18-8.31,2.55-1.77.23-3.6-.07-5.35.37,0,1,3.78,1.3,4.62,1.34a14.45,14.45,0,0,0,5.68-.83,31.74,31.74,0,0,1,3.45-1.26c2.91-.68,5.83.41,8.39,1.7a16.94,16.94,0,0,0,3.36.92c1.5.43,2.91,1.18,4.42,1.62a14.22,14.22,0,0,0,8.75.22c1.69-.61,3.21-1.67,4.95-2.12,2.92-.76,6,.33,8.68,1.75,1.65.87,3.38,1.91,5.23,1.67,2.6-.33,4.22-3,6.6-4.08,3.14-1.43,7-.22,10,1a33.38,33.38,0,0,0,5.23,1.82,11.29,11.29,0,0,0,5.48,0,29.33,29.33,0,0,1,4-1.31c1.64-.24,3.32.29,5,.06a10.08,10.08,0,0,0,1.7-.43,12.09,12.09,0,0,1,4.26-.65.5.5,0,0,0,.36-.08.36.36,0,0,0,.08-.33,1,1,0,0,0-.69-.73,3,3,0,0,0-1-.11c-2.15,0-4.31.15-6.46.34a16,16,0,0,1-5.69-.77c-1.36-.39-2.63-1-4-1.22a5.35,5.35,0,0,1-3-2.33c-1.13-1.44-2.33-3.3-4.35-3.43a2.75,2.75,0,0,1-1.15-.17c-.52-.27-.67-.93-.83-1.49a10.74,10.74,0,0,0-4.94-5.81,4.07,4.07,0,0,0-4.91.56A17.16,17.16,0,0,1,241.9,62.86Z" style="fill:#f0f0f0"></path></g><g id="freepik--Sun--inject-168"><circle id="freepik--sun--inject-168" cx="417.77" cy="65.38" r="14.07" style="fill:#ffbda7"></circle></g><g id="freepik--Plants--inject-168"><g id="freepik--Tree--inject-168"><g id="freepik--tree--inject-168"><path d="M72.87,225.67a4,4,0,0,1,2.26.41,22.92,22.92,0,0,1,3.7,2.61,7.49,7.49,0,0,0,4.1,1.77,3.29,3.29,0,0,0,3.41-2.38,2.14,2.14,0,0,1,.2-.75,1.11,1.11,0,0,1,1.29-.34,7.69,7.69,0,0,1,1.24.72c1.53.91,3.45.7,5.21.44,1.46-.21,3.3-.85,3.3-2.33,0-1-.85-1.68-1.51-2.38s-1.2-1.82-.6-2.57a1.87,1.87,0,0,1,.85-.52c1.83-.59,4.06.2,5.61-.94a3.23,3.23,0,0,0,.81-3.87A4.91,4.91,0,0,0,99.45,213c-1.23-.31-2.79-.46-3.25-1.64-.4-1,.41-2.15,1.32-2.79a9.46,9.46,0,0,0,2.63-2,3.15,3.15,0,0,0,.09-3.27,4,4,0,0,0-2.75-1.89,6.3,6.3,0,0,1-1.68-.37,1.11,1.11,0,0,1-.61-1.41c.16-.3.51-.46.71-.74a1.34,1.34,0,0,0-.49-1.74,6.7,6.7,0,0,0-1.87-.71c-1.33-.44-1.41-1.69-1-3s1.11-1.89,1.68-3.23a2.9,2.9,0,0,0-1.36-3.29,23.71,23.71,0,0,0-3.52-1.57A3.73,3.73,0,0,1,87,182.55c-.1-1.31.89-2.42,1.69-3.46s1.49-2.51.79-3.63-2.18-1.13-3.39-1.52a5.49,5.49,0,0,1-3.33-3c-.32-.74-.47-1.56-.86-2.27-1.2-2.21-4.21-3.18-6.54-2.91a2.66,2.66,0,0,0-2.23,1.51,3.52,3.52,0,0,0-.81,1.53c-.15.92.26,2-.25,2.82s-1.7,1.16-2.43,1.84a4.47,4.47,0,0,0-1.18,3.07,5.11,5.11,0,0,0,.1,1.41,11.8,11.8,0,0,1,.52,2A2.46,2.46,0,0,1,67.88,182a3.27,3.27,0,0,1-2.24.47c-1.31,0-2.4-.07-3.36.92-1.68,1.74-.68,3.32.81,4.66,1.7,1.52.8,2.19.58,4.17-.11.95.11,1.25-.74,1.88-1.61,1.19-2.51.79-2.06,3.13.42,2.14-.22,1.4-2.07,2.2-1.64.71-2.73,2.47-4.06,3.58-.85.7-2.16,1.25-2.24,2.5-.15,2.38,2.81,1.86,4.22,2.43,2.3.93,1.62,3.94-.18,5.07s-4.68,1.64-4.83,4.37c-.12,2.09,1.07,2.55,2.7,3.25,1.29.56,1.13.73,1.13,2.27,0,3.12,1,4,4.12,3.5a7.69,7.69,0,0,1,3-.25c1.17.36.78.65.81,1.63.08,2.52,3,1.81,4.26.73C69.13,227.3,70.93,225.86,72.87,225.67Z" style="fill:#7ECDCE"></path><path d="M72.87,225.67a4,4,0,0,1,2.26.41,22.92,22.92,0,0,1,3.7,2.61,7.49,7.49,0,0,0,4.1,1.77,3.29,3.29,0,0,0,3.41-2.38,2.14,2.14,0,0,1,.2-.75,1.11,1.11,0,0,1,1.29-.34,7.69,7.69,0,0,1,1.24.72c1.53.91,3.45.7,5.21.44,1.46-.21,3.3-.85,3.3-2.33,0-1-.85-1.68-1.51-2.38s-1.2-1.82-.6-2.57a1.87,1.87,0,0,1,.85-.52c1.83-.59,4.06.2,5.61-.94a3.23,3.23,0,0,0,.81-3.87A4.91,4.91,0,0,0,99.45,213c-1.23-.31-2.79-.46-3.25-1.64-.4-1,.41-2.15,1.32-2.79a9.46,9.46,0,0,0,2.63-2,3.15,3.15,0,0,0,.09-3.27,4,4,0,0,0-2.75-1.89,6.3,6.3,0,0,1-1.68-.37,1.11,1.11,0,0,1-.61-1.41c.16-.3.51-.46.71-.74a1.34,1.34,0,0,0-.49-1.74,6.7,6.7,0,0,0-1.87-.71c-1.33-.44-1.41-1.69-1-3s1.11-1.89,1.68-3.23a2.9,2.9,0,0,0-1.36-3.29,23.71,23.71,0,0,0-3.52-1.57A3.73,3.73,0,0,1,87,182.55c-.1-1.31.89-2.42,1.69-3.46s1.49-2.51.79-3.63-2.18-1.13-3.39-1.52a5.49,5.49,0,0,1-3.33-3c-.32-.74-.47-1.56-.86-2.27-1.2-2.21-4.21-3.18-6.54-2.91a2.66,2.66,0,0,0-2.23,1.51,3.52,3.52,0,0,0-.81,1.53c-.15.92.26,2-.25,2.82s-1.7,1.16-2.43,1.84a4.47,4.47,0,0,0-1.18,3.07,5.11,5.11,0,0,0,.1,1.41,11.8,11.8,0,0,1,.52,2A2.46,2.46,0,0,1,67.88,182a3.27,3.27,0,0,1-2.24.47c-1.31,0-2.4-.07-3.36.92-1.68,1.74-.68,3.32.81,4.66,1.7,1.52.8,2.19.58,4.17-.11.95.11,1.25-.74,1.88-1.61,1.19-2.51.79-2.06,3.13.42,2.14-.22,1.4-2.07,2.2-1.64.71-2.73,2.47-4.06,3.58-.85.7-2.16,1.25-2.24,2.5-.15,2.38,2.81,1.86,4.22,2.43,2.3.93,1.62,3.94-.18,5.07s-4.68,1.64-4.83,4.37c-.12,2.09,1.07,2.55,2.7,3.25,1.29.56,1.13.73,1.13,2.27,0,3.12,1,4,4.12,3.5a7.69,7.69,0,0,1,3-.25c1.17.36.78.65.81,1.63.08,2.52,3,1.81,4.26.73C69.13,227.3,70.93,225.86,72.87,225.67Z" style="opacity:0.25"></path><path d="M97.43,225.14a3.36,3.36,0,0,0-.59-.89c-.25-.28-.52-.54-.77-.81a3.35,3.35,0,0,1-.77-1.26,1.36,1.36,0,0,1,.17-1.31,1.3,1.3,0,0,1,.39-.31,2.4,2.4,0,0,1,.46-.21c.21-.06.43-.11.65-.15l.19,0a4.4,4.4,0,0,1,.51-.05l.17,0c.54,0,1.09,0,1.63,0l.29,0a1.84,1.84,0,0,0,.33,0l.35,0,.28-.05h0a16.45,16.45,0,0,0-2.47-.39,7,7,0,0,0-5.36,2.13A4.86,4.86,0,0,1,94,224.88c-3.49,1-6.92-3.72-10.24-2.3.2,1.68,0,3.95-1.63,4.32a2.67,2.67,0,0,1-2.54-1.22c-.6-.78-1-1.73-1.57-2.52a5.23,5.23,0,0,0-3.82-1.93,14.68,14.68,0,0,1-1.84.12A10.55,10.55,0,0,1,69.89,220c-.78-.42-1.67-1.07-1.54-1.95s1.05-1.19,1.6-1.8a2.31,2.31,0,0,0,.38-2.42c-.32-.7-1-1.25-1.08-2-.11-1,.91-1.87,1-2.9a2.68,2.68,0,0,0-1.7-2.23,12.1,12.1,0,0,1-2.64-1.33,1.87,1.87,0,0,1-.4-2.61c.23-.23.58-.4.67-.72a1,1,0,0,0-.21-.76,12.18,12.18,0,0,0-2.75-2.5c-1-.79-2.78-2.38-2.11-3.45-.32.34-.41.83-.2,1.94.42,2.14-.22,1.4-2.07,2.2-1.64.71-2.73,2.47-4.06,3.58h0c-.21.17-.45.34-.7.51-.73.51-1.48,1-1.54,2a2.46,2.46,0,0,0,.08.76,1.39,1.39,0,0,0,.32.54,1.43,1.43,0,0,0,.23.2,2.54,2.54,0,0,0,.57.29c.95.34,2.23.32,3,.64a2.29,2.29,0,0,1,.73.44,2.18,2.18,0,0,1,.73,1.64,3.59,3.59,0,0,1-1.64,3q-.36.22-.75.42c-.51.27-1.06.51-1.57.77a8,8,0,0,0-1.1.66,3.19,3.19,0,0,0-1.41,2.52,2.62,2.62,0,0,0,1.84,2.87c.27.13.55.25.86.38.81.35,1.05.55,1.11,1a4.09,4.09,0,0,1,0,.73v.52a6.76,6.76,0,0,0,.21,1.94,2.08,2.08,0,0,0,1.25,1.5,3.88,3.88,0,0,0,1.6.18c.32,0,.68-.06,1.06-.12a13.76,13.76,0,0,1,2.27-.33,2.59,2.59,0,0,1,.7.08,1.4,1.4,0,0,1,.76.41h0c.18.26,0,.61,0,1.22a1.78,1.78,0,0,0,.52,1.33,1.38,1.38,0,0,0,.25.17,1.89,1.89,0,0,0,.92.21,2,2,0,0,0,.35,0,4.44,4.44,0,0,0,1.68-.59,3.06,3.06,0,0,0,.54-.38l.81-.68a12.67,12.67,0,0,1,2.24-1.53,6.08,6.08,0,0,1,2.12-.66,3.84,3.84,0,0,1,1.12,0,3.89,3.89,0,0,1,1.14.37,8.5,8.5,0,0,1,1,.55q.48.31.93.66c.6.46,1.18,1,1.79,1.4a9.88,9.88,0,0,0,2.45,1.43,5.17,5.17,0,0,0,1.65.34,3.63,3.63,0,0,0,3-1.37,2.4,2.4,0,0,0,.43-1c0-.12,0-.26.07-.39a.92.92,0,0,1,.13-.36.64.64,0,0,1,.24-.25,1.22,1.22,0,0,1,.69-.16,2.29,2.29,0,0,1,.36.07,7.69,7.69,0,0,1,1.24.72,4.92,4.92,0,0,0,1.86.61l.66.05h.67a19.19,19.19,0,0,0,2-.22,4.61,4.61,0,0,0,3-1.37,1.64,1.64,0,0,0,.31-1A1.73,1.73,0,0,0,97.43,225.14Z" style="opacity:0.15"></path><path d="M68.07,200l8.39,16.64V209l.86-32.62L78.56,209v5.15L87.78,198l-9.22,19.8V262a.53.53,0,0,1-.31.43,1.61,1.61,0,0,1-1.48,0,.53.53,0,0,1-.31-.43V220.86Z" style="fill:#263238"></path></g><g id="freepik--Bush--inject-168"><path id="freepik--bush--inject-168" d="M68.44,264c4.11.65,7.78-.48,8.41-4.93a39.42,39.42,0,0,0,0-11c-.19-1.31-.66-2.87-1.94-3.21a2.44,2.44,0,0,0-2.65,1.48,7.18,7.18,0,0,0-.45,3.23c-.65-1.44-1.61-3.1-3.19-3.14s-2.57,1.5-2.62,3a8.52,8.52,0,0,0,1.34,4.12,4,4,0,0,0-3.2.5A2.8,2.8,0,0,0,64,257.6a8.16,8.16,0,0,0,3.22,2.31,1.45,1.45,0,0,0-2,.95,2.2,2.2,0,0,0,.83,2.21A4.78,4.78,0,0,0,68.44,264Z" style="fill:#455a64"></path><g id="freepik--bush--inject-168"><path id="freepik--bush--inject-168" d="M75.57,265.71,85.38,260a7.74,7.74,0,0,0,2.13-2,5.47,5.47,0,0,0,1.19-2.54,1.27,1.27,0,0,0-.1-1c-.35-.52-1.19-.34-1.66.08a18.28,18.28,0,0,0-1.33,1.32,15,15,0,0,0,.19-3.41,1.51,1.51,0,0,0-.42-1.13,1.26,1.26,0,0,0-1.37,0c-1.28.69-1.83,2.22-2.27,3.61a11.9,11.9,0,0,0-.13-4.33c-.34-1.54-2.12-2.15-2.72-.67a8.25,8.25,0,0,0-.52,2.47,9.9,9.9,0,0,0,.22,3.26A10.24,10.24,0,0,0,76,252.13a1.59,1.59,0,0,0-1.51-.53c-.62.24-.72,1.07-.66,1.73a9.24,9.24,0,0,0,1.34,3.95A8.35,8.35,0,0,0,71.82,256a1,1,0,0,0-1,.34,1.31,1.31,0,0,0,.23,1.36,8.15,8.15,0,0,0,2.63,2.45,8.69,8.69,0,0,0-3.21-.34,1.11,1.11,0,0,0-.86.37c-.28.4.05.95.41,1.3a9.93,9.93,0,0,0,2.29,1.37,3.42,3.42,0,0,0-1.42.23,1.15,1.15,0,0,0-.67,1.17,1.44,1.44,0,0,0,1,.91C73.13,265.8,73.66,266,75.57,265.71Z" style="fill:#7ECDCE"></path></g></g></g><g id="freepik--tree--inject-168"><g id="freepik--tree--inject-168"><path d="M35.18,234.86a4.77,4.77,0,0,1,2.62.47,25.91,25.91,0,0,1,4.28,3,8.71,8.71,0,0,0,4.75,2,3.83,3.83,0,0,0,4-2.75,2.38,2.38,0,0,1,.22-.88,1.29,1.29,0,0,1,1.5-.39,8.06,8.06,0,0,1,1.44.84c1.77,1,4,.8,6,.51,1.69-.25,3.82-1,3.82-2.71,0-1.11-1-1.94-1.75-2.75s-1.39-2.11-.69-3a2,2,0,0,1,1-.61c2.12-.68,4.71.23,6.5-1.09a3.73,3.73,0,0,0,.94-4.48A5.71,5.71,0,0,0,66,220.22c-1.42-.36-3.23-.53-3.75-1.89-.47-1.2.46-2.5,1.52-3.24s2.32-1.25,3.05-2.31a3.66,3.66,0,0,0,.1-3.79,4.61,4.61,0,0,0-3.19-2.18,7.31,7.31,0,0,1-1.93-.43,1.29,1.29,0,0,1-.72-1.63c.19-.35.6-.53.83-.85a1.55,1.55,0,0,0-.57-2,8,8,0,0,0-2.17-.83c-1.53-.51-3-2-2.57-3.55s2.68-2.14,3.34-3.69c.58-1.38-.34-3-1.57-3.82a28.78,28.78,0,0,0-4.08-1.82c-1.35-.63-2.65-1.76-2.76-3.24s1-2.81,2-4,1.72-2.9.91-4.2-2.52-1.31-3.92-1.76a6.36,6.36,0,0,1-3.86-3.48c-.37-.86-.55-1.8-1-2.62-1.39-2.56-4.88-3.69-7.58-3.37a3.08,3.08,0,0,0-2.58,1.75,4.07,4.07,0,0,0-.94,1.77c-.21,1.24.45,2.81-.72,3.76-1.77,1.44-4.49-.5-4.4,2.71a14,14,0,0,0,.6,4c.49,1.34,1.45,1.93.65,3.44-1,2-1.73,2-3.81,1.94-1.52,0-2.78-.08-3.89,1.07-2,2-.79,3.84.94,5.39,2,1.77.93,2.55.67,4.84-.12,1.1.13,1.44-.86,2.17-1.86,1.38-2.9.92-2.38,3.63.48,2.47-.26,1.62-2.4,2.54-1.9.82-3.16,2.87-4.7,4.15-1,.82-2.5,1.45-2.59,2.89-.18,2.76,3.25,2.16,4.88,2.82,2.67,1.07,1.87,4.57-.21,5.88s-5.41,1.89-5.59,5c-.13,2.43,1.24,3,3.12,3.77,1.5.65,1.31.84,1.31,2.63,0,3.61,1.21,4.63,4.77,4.05a9,9,0,0,1,3.44-.29c1.36.41.9.75.94,1.89.1,2.92,3.49,2.09,4.93.84C30.85,236.75,32.93,235.08,35.18,234.86Z" style="fill:#7ECDCE"></path><path d="M35.18,234.86a4.77,4.77,0,0,1,2.62.47,25.91,25.91,0,0,1,4.28,3,8.71,8.71,0,0,0,4.75,2,3.83,3.83,0,0,0,4-2.75,2.38,2.38,0,0,1,.22-.88,1.29,1.29,0,0,1,1.5-.39,8.06,8.06,0,0,1,1.44.84c1.77,1,4,.8,6,.51,1.69-.25,3.82-1,3.82-2.71,0-1.11-1-1.94-1.75-2.75s-1.39-2.11-.69-3a2,2,0,0,1,1-.61c2.12-.68,4.71.23,6.5-1.09a3.73,3.73,0,0,0,.94-4.48A5.71,5.71,0,0,0,66,220.22c-1.42-.36-3.23-.53-3.75-1.89-.47-1.2.46-2.5,1.52-3.24s2.32-1.25,3.05-2.31a3.66,3.66,0,0,0,.1-3.79,4.61,4.61,0,0,0-3.19-2.18,7.31,7.31,0,0,1-1.93-.43,1.29,1.29,0,0,1-.72-1.63c.19-.35.6-.53.83-.85a1.55,1.55,0,0,0-.57-2,8,8,0,0,0-2.17-.83c-1.53-.51-3-2-2.57-3.55s2.68-2.14,3.34-3.69c.58-1.38-.34-3-1.57-3.82a28.78,28.78,0,0,0-4.08-1.82c-1.35-.63-2.65-1.76-2.76-3.24s1-2.81,2-4,1.72-2.9.91-4.2-2.52-1.31-3.92-1.76a6.36,6.36,0,0,1-3.86-3.48c-.37-.86-.55-1.8-1-2.62-1.39-2.56-4.88-3.69-7.58-3.37a3.08,3.08,0,0,0-2.58,1.75,4.07,4.07,0,0,0-.94,1.77c-.21,1.24.45,2.81-.72,3.76-1.77,1.44-4.49-.5-4.4,2.71a14,14,0,0,0,.6,4c.49,1.34,1.45,1.93.65,3.44-1,2-1.73,2-3.81,1.94-1.52,0-2.78-.08-3.89,1.07-2,2-.79,3.84.94,5.39,2,1.77.93,2.55.67,4.84-.12,1.1.13,1.44-.86,2.17-1.86,1.38-2.9.92-2.38,3.63.48,2.47-.26,1.62-2.4,2.54-1.9.82-3.16,2.87-4.7,4.15-1,.82-2.5,1.45-2.59,2.89-.18,2.76,3.25,2.16,4.88,2.82,2.67,1.07,1.87,4.57-.21,5.88s-5.41,1.89-5.59,5c-.13,2.43,1.24,3,3.12,3.77,1.5.65,1.31.84,1.31,2.63,0,3.61,1.21,4.63,4.77,4.05a9,9,0,0,1,3.44-.29c1.36.41.9.75.94,1.89.1,2.92,3.49,2.09,4.93.84C30.85,236.75,32.93,235.08,35.18,234.86Z" style="opacity:0.4"></path><path d="M62.34,228.7c1.63-.52,3.53-.11,5.14-.49a19.75,19.75,0,0,0-2.88-.45,8.17,8.17,0,0,0-6.21,2.46A5.62,5.62,0,0,1,59.64,234c-4,1.09-8-4.32-11.85-2.67.23,1.95,0,4.58-1.9,5A3.09,3.09,0,0,1,43,234.88c-.69-.92-1.12-2-1.82-2.92a6.17,6.17,0,0,0-8.2-1.2c-1,.76-2.35,1.9-3.39,1.15s-.44-3-1.67-3.62c-.82-.41-2,.24-2.66-.37a1.9,1.9,0,0,1-.47-1c-.49-2.06-.91-4.45.38-6.12,1.16-1.49,3.6-2.41,3.34-4.28-.22-1.59-2.25-2.08-3.86-2.26s-3.62-.94-3.54-2.55,2.22-2.35,2.53-3.9c.14-.66-.09-1.4.21-2,.46-.91,1.76-1,2.53-1.62,1.37-1.21.3-3.48.69-5.27.28-1.26,1.3-2.26,1.64-3.5.68-2.5-1.59-4.87-4-5.89a14.41,14.41,0,0,1-2.7-1.25l-.09-.07a5,5,0,0,0,1.95,3.12c2,1.77.93,2.55.67,4.84-.12,1.1.13,1.44-.86,2.17-1.86,1.38-2.9.92-2.38,3.63.48,2.47-.26,1.62-2.4,2.54-1.9.82-3.16,2.87-4.7,4.15-1,.82-2.5,1.45-2.59,2.89-.18,2.76,3.25,2.16,4.88,2.82,2.67,1.07,1.87,4.57-.21,5.88s-5.41,1.89-5.59,5c-.13,2.43,1.24,3,3.12,3.77,1.5.65,1.31.84,1.31,2.63,0,3.61,1.21,4.63,4.77,4.05a9,9,0,0,1,3.44-.29c1.36.41.9.75.94,1.89.1,2.92,3.49,2.09,4.93.84,1.66-1.43,3.74-3.1,6-3.32a4.77,4.77,0,0,1,2.62.47,25.91,25.91,0,0,1,4.28,3,8.71,8.71,0,0,0,4.75,2,3.83,3.83,0,0,0,4-2.75,2.38,2.38,0,0,1,.22-.88,1.29,1.29,0,0,1,1.5-.39,8.06,8.06,0,0,1,1.44.84c1.77,1,4,.8,6,.51,1.69-.25,3.82-1,3.82-2.71,0-1.11-1-1.94-1.75-2.75s-1.39-2.11-.69-3A2,2,0,0,1,62.34,228.7Z" style="opacity:0.15"></path><path d="M29.62,205.1l9.72,19.27V215.5l1-37.77,1.44,37.77v6l10.68-18.68L41.77,225.72v58.54a.61.61,0,0,1-.35.49,1.93,1.93,0,0,1-1.72,0,.6.6,0,0,1-.36-.49v-55Z" style="fill:#263238"></path></g><g id="freepik--bush--inject-168"><path id="freepik--bush--inject-168" d="M33.75,288.83c2.78.44,5.27-.32,5.7-3.33a26.63,26.63,0,0,0,0-7.46c-.12-.89-.44-2-1.31-2.18a1.66,1.66,0,0,0-1.79,1,4.79,4.79,0,0,0-.31,2.19c-.44-1-1.09-2.1-2.16-2.12a2,2,0,0,0-1.77,2,5.68,5.68,0,0,0,.9,2.79,2.75,2.75,0,0,0-2.17.34,1.91,1.91,0,0,0-.08,2.47,5.63,5.63,0,0,0,2.18,1.56,1,1,0,0,0-1.32.65,1.49,1.49,0,0,0,.57,1.49A3.21,3.21,0,0,0,33.75,288.83Z" style="fill:#455a64"></path><g id="freepik--bush--inject-168"><path id="freepik--bush--inject-168" d="M38.58,290l6.65-3.84a5.46,5.46,0,0,0,1.44-1.36,3.85,3.85,0,0,0,.81-1.72.88.88,0,0,0-.07-.66c-.24-.35-.81-.23-1.13.06a12.46,12.46,0,0,0-.9.89,9.85,9.85,0,0,0,.13-2.3,1,1,0,0,0-.28-.77.85.85,0,0,0-.93,0,3.92,3.92,0,0,0-1.54,2.45,8.08,8.08,0,0,0-.09-2.94c-.23-1.05-1.43-1.46-1.84-.45a5.59,5.59,0,0,0-.35,1.67,6.84,6.84,0,0,0,.15,2.21,6.88,6.88,0,0,0-1.78-2.46,1.08,1.08,0,0,0-1-.36c-.42.17-.49.73-.45,1.17a6.38,6.38,0,0,0,.91,2.68,5.76,5.76,0,0,0-2.25-.88.69.69,0,0,0-.71.23.93.93,0,0,0,.16.93,5.5,5.5,0,0,0,1.79,1.66A5.76,5.76,0,0,0,35.1,286a.74.74,0,0,0-.58.24c-.19.28,0,.65.27.89a6.75,6.75,0,0,0,1.56.92,2.37,2.37,0,0,0-1,.16.76.76,0,0,0-.46.79,1,1,0,0,0,.7.62A4.7,4.7,0,0,0,38.58,290Z" style="fill:#7ECDCE"></path></g></g></g><g id="freepik--tree--inject-168"><g id="freepik--tree--inject-168"><path d="M431.93,224.19a4.22,4.22,0,0,0-2.27.41,23.62,23.62,0,0,0-3.7,2.62,7.43,7.43,0,0,1-4.1,1.77,3.29,3.29,0,0,1-3.41-2.38,2.19,2.19,0,0,0-.2-.76,1.1,1.1,0,0,0-1.29-.33,6.45,6.45,0,0,0-1.24.72c-1.53.9-3.45.7-5.21.44-1.46-.21-3.3-.86-3.3-2.34,0-1,.85-1.67,1.51-2.37s1.2-1.82.6-2.57a1.74,1.74,0,0,0-.85-.52c-1.83-.6-4.06.2-5.61-.95a3.23,3.23,0,0,1-.81-3.86,4.88,4.88,0,0,1,3.29-2.51c1.23-.32,2.79-.46,3.25-1.64s-.41-2.16-1.31-2.79a9.59,9.59,0,0,1-2.64-2,3.15,3.15,0,0,1-.09-3.27A4,4,0,0,1,407.3,200a5.94,5.94,0,0,0,1.68-.37,1.11,1.11,0,0,0,.62-1.4c-.17-.31-.52-.46-.72-.74a1.34,1.34,0,0,1,.49-1.74,7.18,7.18,0,0,1,1.87-.72c1.33-.44,2.61-1.72,2.22-3.06s-2.31-1.85-2.88-3.19a2.91,2.91,0,0,1,1.36-3.3,24.79,24.79,0,0,1,3.52-1.57,3.73,3.73,0,0,0,2.38-2.8c.1-1.32-.89-2.42-1.69-3.47s-1.49-2.51-.79-3.62,2.18-1.14,3.39-1.52a5.51,5.51,0,0,0,3.33-3c.32-.74.47-1.55.86-2.26,1.2-2.22,4.21-3.19,6.54-2.91a2.64,2.64,0,0,1,2.23,1.51,3.52,3.52,0,0,1,.81,1.53c.18,1.07-.39,2.43.62,3.24,1.53,1.24,3.88-.43,3.8,2.35a11.54,11.54,0,0,1-.52,3.45c-.42,1.17-1.25,1.67-.56,3,.9,1.69,1.49,1.68,3.3,1.67,1.3,0,2.39-.07,3.35.92,1.68,1.74.68,3.32-.81,4.66-1.7,1.53-.8,2.2-.58,4.18.11.95-.11,1.24.74,1.87,1.61,1.2,2.51.79,2.06,3.13-.41,2.14.22,1.41,2.07,2.2,1.64.71,2.73,2.48,4.06,3.58.85.71,2.16,1.26,2.24,2.5.15,2.38-2.81,1.86-4.22,2.43-2.3.93-1.62,3.95.18,5.08s4.68,1.64,4.83,4.36c.12,2.1-1.07,2.56-2.7,3.26-1.29.56-1.13.72-1.12,2.27,0,3.12-1.05,4-4.13,3.49a7.69,7.69,0,0,0-3-.24c-1.17.35-.77.64-.81,1.63-.08,2.51-3,1.8-4.26.73C435.66,225.82,433.87,224.38,431.93,224.19Z" style="fill:#7ECDCE"></path><path d="M431.93,224.19a4.22,4.22,0,0,0-2.27.41,23.62,23.62,0,0,0-3.7,2.62,7.43,7.43,0,0,1-4.1,1.77,3.29,3.29,0,0,1-3.41-2.38,2.19,2.19,0,0,0-.2-.76,1.1,1.1,0,0,0-1.29-.33,6.45,6.45,0,0,0-1.24.72c-1.53.9-3.45.7-5.21.44-1.46-.21-3.3-.86-3.3-2.34,0-1,.85-1.67,1.51-2.37s1.2-1.82.6-2.57a1.74,1.74,0,0,0-.85-.52c-1.83-.6-4.06.2-5.61-.95a3.23,3.23,0,0,1-.81-3.86,4.88,4.88,0,0,1,3.29-2.51c1.23-.32,2.79-.46,3.25-1.64s-.41-2.16-1.31-2.79a9.59,9.59,0,0,1-2.64-2,3.15,3.15,0,0,1-.09-3.27A4,4,0,0,1,407.3,200a5.94,5.94,0,0,0,1.68-.37,1.11,1.11,0,0,0,.62-1.4c-.17-.31-.52-.46-.72-.74a1.34,1.34,0,0,1,.49-1.74,7.18,7.18,0,0,1,1.87-.72c1.33-.44,2.61-1.72,2.22-3.06s-2.31-1.85-2.88-3.19a2.91,2.91,0,0,1,1.36-3.3,24.79,24.79,0,0,1,3.52-1.57,3.73,3.73,0,0,0,2.38-2.8c.1-1.32-.89-2.42-1.69-3.47s-1.49-2.51-.79-3.62,2.18-1.14,3.39-1.52a5.51,5.51,0,0,0,3.33-3c.32-.74.47-1.55.86-2.26,1.2-2.22,4.21-3.19,6.54-2.91a2.64,2.64,0,0,1,2.23,1.51,3.52,3.52,0,0,1,.81,1.53c.18,1.07-.39,2.43.62,3.24,1.53,1.24,3.88-.43,3.8,2.35a11.54,11.54,0,0,1-.52,3.45c-.42,1.17-1.25,1.67-.56,3,.9,1.69,1.49,1.68,3.3,1.67,1.3,0,2.39-.07,3.35.92,1.68,1.74.68,3.32-.81,4.66-1.7,1.53-.8,2.2-.58,4.18.11.95-.11,1.24.74,1.87,1.61,1.2,2.51.79,2.06,3.13-.41,2.14.22,1.41,2.07,2.2,1.64.71,2.73,2.48,4.06,3.58.85.71,2.16,1.26,2.24,2.5.15,2.38-2.81,1.86-4.22,2.43-2.3.93-1.62,3.95.18,5.08s4.68,1.64,4.83,4.36c.12,2.1-1.07,2.56-2.7,3.26-1.29.56-1.13.72-1.12,2.27,0,3.12-1.05,4-4.13,3.49a7.69,7.69,0,0,0-3-.24c-1.17.35-.77.64-.81,1.63-.08,2.51-3,1.8-4.26.73C435.66,225.82,433.87,224.38,431.93,224.19Z" style="opacity:0.25"></path><path d="M448.25,211.57c-1.8-1.13-2.48-4.15-.18-5.08,1.41-.57,4.37-.05,4.22-2.43-.08-1.24-1.39-1.79-2.24-2.5-1.33-1.1-2.42-2.87-4.06-3.58-1.85-.79-2.48-.06-2.07-2.2.45-2.34-.45-1.93-2.06-3.13-.78-.58-.66-.88-.72-1.67a4.4,4.4,0,0,0-.92,1.23c-.62,1.34-.12,2.94.57,4.25.52,1,1.1,2.33.27,3.09a4.24,4.24,0,0,1-1.36.58,2.73,2.73,0,0,0-1.66,2.21c-.1,1,.41,2.16,0,3.13a3.93,3.93,0,0,1-1.51,1.49,5.39,5.39,0,0,0-2.6,3.46c-.25,2.1,1.61,3.79,3.26,5.13.55.45,1.08,1.38.46,1.74a1.38,1.38,0,0,1-.76.08,3,3,0,0,0-2.41,1.09c-.54.68-.88,1.68-1.73,1.85a2.52,2.52,0,0,1-1-.07,7.15,7.15,0,0,0-6.51,2.28c-.9,1-2,2.46-3.25,1.92-1.08-.48-1.1-2.08-2-2.81a1.51,1.51,0,0,0-.26-.18c-1.18-.72-2.62-.11-3.74.42-.69.33-1.36.69-2.06,1s-1.43.7-2.13.3a1.18,1.18,0,0,1-.53-1.4c.12-.39.3-.76.41-1.15a1.65,1.65,0,0,0,0-1.2,1.88,1.88,0,0,0-.8-.78,5.56,5.56,0,0,0-2-.7l-.11,0a13.63,13.63,0,0,0-2.39,0,8,8,0,0,1-2.49-.14,3.08,3.08,0,0,1-2-1.42h0a2.79,2.79,0,0,0,1,1.55c1.55,1.15,3.78.35,5.61.95a1.74,1.74,0,0,1,.85.52c.6.75.06,1.87-.6,2.57s-1.5,1.41-1.51,2.37c0,1.48,1.84,2.13,3.3,2.34,1.76.26,3.68.46,5.21-.44a6.45,6.45,0,0,1,1.24-.72,1.1,1.1,0,0,1,1.29.33,2.19,2.19,0,0,1,.2.76,3.29,3.29,0,0,0,3.41,2.38,7.43,7.43,0,0,0,4.1-1.77,23.62,23.62,0,0,1,3.7-2.62,4.22,4.22,0,0,1,2.27-.41c1.94.19,3.73,1.63,5.16,2.88,1.25,1.07,4.18,1.78,4.26-.73,0-1-.36-1.28.81-1.63a7.69,7.69,0,0,1,3,.24c3.08.51,4.13-.37,4.13-3.49,0-1.55-.17-1.71,1.12-2.27,1.63-.7,2.82-1.16,2.7-3.26C452.93,213.21,450.15,212.76,448.25,211.57Z" style="opacity:0.15"></path><path d="M436.72,198.5l-8.39,16.64v-7.66l-.85-32.61-1.25,32.61v5.15L417,196.51l9.22,19.79v44.24a.52.52,0,0,0,.31.42,1.61,1.61,0,0,0,1.48,0,.5.5,0,0,0,.31-.42V219.38Z" style="fill:#263238"></path></g><g id="freepik--bush--inject-168"><path id="freepik--bush--inject-168" d="M436.35,262.48c-4.1.66-7.78-.48-8.41-4.92a39.42,39.42,0,0,1,0-11c.19-1.32.66-2.88,1.95-3.22a2.45,2.45,0,0,1,2.64,1.49,7.18,7.18,0,0,1,.45,3.23c.65-1.44,1.62-3.11,3.2-3.14s2.56,1.5,2.61,3a8.41,8.41,0,0,1-1.34,4.12,4,4,0,0,1,3.2.5,2.8,2.8,0,0,1,.12,3.64,8.24,8.24,0,0,1-3.22,2.3,1.46,1.46,0,0,1,2,1,2.24,2.24,0,0,1-.84,2.21A4.87,4.87,0,0,1,436.35,262.48Z" style="fill:#455a64"></path><g id="freepik--bush--inject-168"><path id="freepik--bush--inject-168" d="M429.23,264.23l-9.82-5.66a7.9,7.9,0,0,1-2.13-2,5.56,5.56,0,0,1-1.19-2.54,1.3,1.3,0,0,1,.1-1c.35-.52,1.19-.34,1.66.08a18.28,18.28,0,0,1,1.33,1.32,15.5,15.5,0,0,1-.19-3.4,1.58,1.58,0,0,1,.42-1.14,1.28,1.28,0,0,1,1.37,0c1.28.7,1.83,2.23,2.27,3.62a11.89,11.89,0,0,1,.13-4.33c.35-1.55,2.12-2.15,2.72-.68a8.38,8.38,0,0,1,.52,2.47,9.9,9.9,0,0,1-.22,3.26,10.12,10.12,0,0,1,2.62-3.62,1.57,1.57,0,0,1,1.51-.53c.62.24.72,1.07.66,1.73a9.25,9.25,0,0,1-1.34,3.94,8.5,8.5,0,0,1,3.32-1.29,1,1,0,0,1,1,.34,1.35,1.35,0,0,1-.22,1.37,8.41,8.41,0,0,1-2.64,2.45,8.49,8.49,0,0,1,3.21-.34,1.1,1.1,0,0,1,.86.36c.28.41-.05,1-.4,1.3a9.52,9.52,0,0,1-2.3,1.37,3.43,3.43,0,0,1,1.42.24,1.13,1.13,0,0,1,.67,1.16,1.45,1.45,0,0,1-1,.92C431.66,264.33,431.13,264.54,429.23,264.23Z" style="fill:#7ECDCE"></path></g></g></g><g id="freepik--tree--inject-168"><g id="freepik--tree--inject-168"><path d="M469.06,234.86a4.77,4.77,0,0,0-2.62.47,26.34,26.34,0,0,0-4.28,3,8.71,8.71,0,0,1-4.75,2,3.83,3.83,0,0,1-4-2.75,2.38,2.38,0,0,0-.22-.88,1.28,1.28,0,0,0-1.49-.39,7.81,7.81,0,0,0-1.45.84c-1.77,1-4,.8-6,.51-1.7-.25-3.83-1-3.83-2.71,0-1.11,1-1.94,1.75-2.75s1.39-2.11.69-3a2,2,0,0,0-1-.61c-2.12-.68-4.71.23-6.5-1.09a3.74,3.74,0,0,1-.93-4.48,5.67,5.67,0,0,1,3.81-2.91c1.42-.36,3.23-.53,3.76-1.89.46-1.2-.47-2.5-1.52-3.24s-2.33-1.25-3.06-2.31a3.66,3.66,0,0,1-.1-3.79,4.61,4.61,0,0,1,3.19-2.18,7.48,7.48,0,0,0,1.94-.43,1.29,1.29,0,0,0,.71-1.63c-.19-.35-.59-.53-.82-.85a1.55,1.55,0,0,1,.57-2,7.93,7.93,0,0,1,2.16-.83c1.53-.51,3-2,2.57-3.55s-2.68-2.14-3.34-3.69c-.57-1.38.34-3,1.58-3.82a28.66,28.66,0,0,1,4.07-1.82c1.35-.63,2.65-1.76,2.76-3.24s-1-2.81-2-4-1.72-2.9-.91-4.2,2.52-1.31,3.92-1.76a6.36,6.36,0,0,0,3.86-3.48c.37-.86.55-1.8,1-2.62,1.38-2.56,4.87-3.69,7.58-3.37a3.08,3.08,0,0,1,2.57,1.75,3.88,3.88,0,0,1,.94,1.77c.21,1.24-.44,2.81.72,3.76,1.78,1.44,4.5-.5,4.4,2.71a14,14,0,0,1-.6,4c-.48,1.34-1.45,1.93-.65,3.44,1.05,2,1.73,2,3.82,1.94,1.51,0,2.77-.08,3.88,1.07,1.95,2,.79,3.84-.94,5.39-2,1.77-.92,2.55-.67,4.84.13,1.1-.12,1.44.86,2.17,1.86,1.38,2.91.92,2.38,3.63-.48,2.47.26,1.62,2.41,2.54,1.9.82,3.15,2.87,4.69,4.15,1,.82,2.5,1.45,2.59,2.89.18,2.76-3.25,2.16-4.88,2.82-2.66,1.07-1.87,4.57.21,5.88s5.42,1.89,5.59,5c.14,2.43-1.24,3-3.12,3.77-1.5.65-1.31.84-1.31,2.63,0,3.61-1.21,4.63-4.77,4.05a9,9,0,0,0-3.44-.29c-1.36.41-.9.75-.94,1.89-.1,2.92-3.49,2.09-4.93.84C473.39,236.75,471.31,235.08,469.06,234.86Z" style="fill:#7ECDCE"></path><path d="M469.06,234.86a4.77,4.77,0,0,0-2.62.47,26.34,26.34,0,0,0-4.28,3,8.71,8.71,0,0,1-4.75,2,3.83,3.83,0,0,1-4-2.75,2.38,2.38,0,0,0-.22-.88,1.28,1.28,0,0,0-1.49-.39,7.81,7.81,0,0,0-1.45.84c-1.77,1-4,.8-6,.51-1.7-.25-3.83-1-3.83-2.71,0-1.11,1-1.94,1.75-2.75s1.39-2.11.69-3a2,2,0,0,0-1-.61c-2.12-.68-4.71.23-6.5-1.09a3.74,3.74,0,0,1-.93-4.48,5.67,5.67,0,0,1,3.81-2.91c1.42-.36,3.23-.53,3.76-1.89.46-1.2-.47-2.5-1.52-3.24s-2.33-1.25-3.06-2.31a3.66,3.66,0,0,1-.1-3.79,4.61,4.61,0,0,1,3.19-2.18,7.48,7.48,0,0,0,1.94-.43,1.29,1.29,0,0,0,.71-1.63c-.19-.35-.59-.53-.82-.85a1.55,1.55,0,0,1,.57-2,7.93,7.93,0,0,1,2.16-.83c1.53-.51,3-2,2.57-3.55s-2.68-2.14-3.34-3.69c-.57-1.38.34-3,1.58-3.82a28.66,28.66,0,0,1,4.07-1.82c1.35-.63,2.65-1.76,2.76-3.24s-1-2.81-2-4-1.72-2.9-.91-4.2,2.52-1.31,3.92-1.76a6.36,6.36,0,0,0,3.86-3.48c.37-.86.55-1.8,1-2.62,1.38-2.56,4.87-3.69,7.58-3.37a3.08,3.08,0,0,1,2.57,1.75,3.88,3.88,0,0,1,.94,1.77c.21,1.24-.44,2.81.72,3.76,1.78,1.44,4.5-.5,4.4,2.71a14,14,0,0,1-.6,4c-.48,1.34-1.45,1.93-.65,3.44,1.05,2,1.73,2,3.82,1.94,1.51,0,2.77-.08,3.88,1.07,1.95,2,.79,3.84-.94,5.39-2,1.77-.92,2.55-.67,4.84.13,1.1-.12,1.44.86,2.17,1.86,1.38,2.91.92,2.38,3.63-.48,2.47.26,1.62,2.41,2.54,1.9.82,3.15,2.87,4.69,4.15,1,.82,2.5,1.45,2.59,2.89.18,2.76-3.25,2.16-4.88,2.82-2.66,1.07-1.87,4.57.21,5.88s5.42,1.89,5.59,5c.14,2.43-1.24,3-3.12,3.77-1.5.65-1.31.84-1.31,2.63,0,3.61-1.21,4.63-4.77,4.05a9,9,0,0,0-3.44-.29c-1.36.41-.9.75-.94,1.89-.1,2.92-3.49,2.09-4.93.84C473.39,236.75,471.31,235.08,469.06,234.86Z" style="opacity:0.4"></path><path d="M441.9,228.7c-1.62-.52-3.53-.11-5.13-.49a19.41,19.41,0,0,1,2.87-.45,8.16,8.16,0,0,1,6.21,2.46A5.62,5.62,0,0,0,444.6,234c4,1.09,8-4.32,11.86-2.67-.24,1.95,0,4.58,1.89,5a3.09,3.09,0,0,0,2.93-1.41c.7-.92,1.12-2,1.82-2.92a6.18,6.18,0,0,1,8.21-1.2c1,.76,2.34,1.9,3.38,1.15s.44-3,1.67-3.62c.82-.41,2,.24,2.66-.37a1.76,1.76,0,0,0,.47-1c.49-2.06.92-4.45-.38-6.12-1.16-1.49-3.6-2.41-3.34-4.28.23-1.59,2.26-2.08,3.86-2.26s3.63-.94,3.55-2.55-2.22-2.35-2.54-3.9c-.13-.66.09-1.4-.21-2-.46-.91-1.76-1-2.52-1.62-1.37-1.21-.31-3.48-.7-5.27-.27-1.26-1.3-2.26-1.64-3.5-.67-2.5,1.59-4.87,4-5.89a14.5,14.5,0,0,0,2.71-1.25l.08-.07a4.91,4.91,0,0,1-1.95,3.12c-2,1.77-.92,2.55-.67,4.84.13,1.1-.12,1.44.86,2.17,1.86,1.38,2.91.92,2.38,3.63-.48,2.47.26,1.62,2.41,2.54,1.9.82,3.15,2.87,4.69,4.15,1,.82,2.5,1.45,2.59,2.89.18,2.76-3.25,2.16-4.88,2.82-2.66,1.07-1.87,4.57.21,5.88s5.42,1.89,5.59,5c.14,2.43-1.24,3-3.12,3.77-1.5.65-1.31.84-1.31,2.63,0,3.61-1.21,4.63-4.77,4.05a9,9,0,0,0-3.44-.29c-1.36.41-.9.75-.94,1.89-.1,2.92-3.49,2.09-4.93.84-1.66-1.43-3.74-3.1-6-3.32a4.77,4.77,0,0,0-2.62.47,26.34,26.34,0,0,0-4.28,3,8.71,8.71,0,0,1-4.75,2,3.83,3.83,0,0,1-4-2.75,2.38,2.38,0,0,0-.22-.88,1.28,1.28,0,0,0-1.49-.39,7.81,7.81,0,0,0-1.45.84c-1.77,1-4,.8-6,.51-1.7-.25-3.83-1-3.83-2.71,0-1.11,1-1.94,1.75-2.75s1.39-2.11.69-3A2,2,0,0,0,441.9,228.7Z" style="opacity:0.15"></path><path d="M474.62,205.1l-9.72,19.27V215.5l-1-37.77-1.44,37.77v6l-10.68-18.68,10.68,22.93v58.54a.6.6,0,0,0,.36.49,1.91,1.91,0,0,0,1.71,0,.6.6,0,0,0,.36-.49v-55Z" style="fill:#263238"></path></g><g id="freepik--bush--inject-168"><path id="freepik--bush--inject-168" d="M470.49,288.83c-2.78.44-5.27-.32-5.7-3.33a26.63,26.63,0,0,1,0-7.46c.13-.89.44-2,1.32-2.18a1.66,1.66,0,0,1,1.79,1,4.92,4.92,0,0,1,.3,2.19c.44-1,1.1-2.1,2.17-2.12a2,2,0,0,1,1.77,2,5.8,5.8,0,0,1-.91,2.79,2.75,2.75,0,0,1,2.17.34,1.9,1.9,0,0,1,.08,2.47,5.63,5.63,0,0,1-2.18,1.56,1,1,0,0,1,1.32.65,1.49,1.49,0,0,1-.57,1.49A3.17,3.17,0,0,1,470.49,288.83Z" style="fill:#455a64"></path><g id="freepik--bush--inject-168"><path id="freepik--bush--inject-168" d="M465.67,290,459,286.18a5.33,5.33,0,0,1-1.45-1.36,3.85,3.85,0,0,1-.81-1.72,1,1,0,0,1,.07-.66c.24-.35.81-.23,1.13.06a12.46,12.46,0,0,1,.9.89,10.42,10.42,0,0,1-.13-2.3,1.09,1.09,0,0,1,.28-.77.85.85,0,0,1,.93,0,3.92,3.92,0,0,1,1.54,2.45,8.08,8.08,0,0,1,.09-2.94c.23-1.05,1.43-1.46,1.84-.45a5.93,5.93,0,0,1,.36,1.67,6.84,6.84,0,0,1-.15,2.21,7,7,0,0,1,1.77-2.46,1.09,1.09,0,0,1,1-.36c.42.17.49.73.45,1.17a6.37,6.37,0,0,1-.9,2.68,5.65,5.65,0,0,1,2.24-.88.68.68,0,0,1,.71.23.9.9,0,0,1-.16.93,5.57,5.57,0,0,1-1.78,1.66,5.69,5.69,0,0,1,2.17-.23.78.78,0,0,1,.59.24c.18.28,0,.65-.28.89a6.9,6.9,0,0,1-1.55.92,2.43,2.43,0,0,1,1,.16.77.77,0,0,1,.45.79c-.06.32-.39.51-.7.62A4.67,4.67,0,0,1,465.67,290Z" style="fill:#7ECDCE"></path></g></g></g></g><g id="freepik--Locators--inject-168"><g id="freepik--Lines--inject-168"><path d="M353.91,131.8a.47.47,0,0,1-.39-.19.49.49,0,0,1,.08-.7l1.18-.93a.5.5,0,0,1,.62.79l-1.18.93A.5.5,0,0,1,353.91,131.8Z" style="fill:#f0f0f0"></path><path d="M282.61,181.76a.48.48,0,0,1-.42-.23.5.5,0,0,1,.15-.69l2.5-1.6a.5.5,0,1,1,.54.84l-2.5,1.6A.47.47,0,0,1,282.61,181.76Zm6.66-4.28a.51.51,0,0,1-.42-.23.5.5,0,0,1,.15-.69l2.49-1.62a.5.5,0,0,1,.69.15.49.49,0,0,1-.15.69l-2.49,1.62A.5.5,0,0,1,289.27,177.48Zm6.63-4.33a.51.51,0,0,1-.42-.23.5.5,0,0,1,.14-.69l2.48-1.64a.5.5,0,0,1,.69.14.51.51,0,0,1-.14.7l-2.48,1.63A.46.46,0,0,1,295.9,173.15Zm6.59-4.38a.48.48,0,0,1-.41-.23.5.5,0,0,1,.13-.69l2.47-1.65a.5.5,0,1,1,.56.82l-2.47,1.66A.47.47,0,0,1,302.49,168.77Zm6.57-4.43a.5.5,0,0,1-.29-.92l2.46-1.67a.5.5,0,0,1,.56.83l-2.45,1.67A.51.51,0,0,1,309.06,164.34Zm6.52-4.48a.52.52,0,0,1-.41-.22.5.5,0,0,1,.13-.69l2.44-1.69a.5.5,0,0,1,.57.82l-2.44,1.69A.52.52,0,0,1,315.58,159.86Zm6.5-4.53a.49.49,0,0,1-.41-.21.51.51,0,0,1,.12-.7c.81-.56,1.61-1.13,2.43-1.71a.51.51,0,0,1,.69.12.5.5,0,0,1-.12.7l-2.42,1.71A.52.52,0,0,1,322.08,155.33Zm6.46-4.58a.49.49,0,0,1-.41-.21.5.5,0,0,1,.12-.7c.8-.57,1.6-1.14,2.4-1.73a.5.5,0,0,1,.7.12.51.51,0,0,1-.11.7l-2.41,1.73A.52.52,0,0,1,328.54,150.75Zm6.41-4.63a.52.52,0,0,1-.4-.21.49.49,0,0,1,.11-.7l2.39-1.75a.5.5,0,0,1,.7.1.51.51,0,0,1-.11.7L335.25,146A.57.57,0,0,1,335,146.12Zm6.37-4.7a.49.49,0,0,1-.4-.21.5.5,0,0,1,.1-.7l2.38-1.78a.51.51,0,0,1,.7.1.5.5,0,0,1-.1.7l-2.38,1.79A.54.54,0,0,1,341.32,141.42Zm6.33-4.78a.5.5,0,0,1-.4-.19.5.5,0,0,1,.09-.7l2.36-1.81a.5.5,0,1,1,.61.79c-.78.61-1.57,1.21-2.36,1.81A.49.49,0,0,1,347.65,136.64Z" style="fill:#f0f0f0"></path><path d="M277.2,185.17a.5.5,0,0,1-.26-.93l1.27-.79a.5.5,0,0,1,.53.85l-1.28.79A.5.5,0,0,1,277.2,185.17Z" style="fill:#f0f0f0"></path><path d="M322.38,79.29a.46.46,0,0,1-.23-.05c-.49-.26-.93-.48-1.32-.67a.5.5,0,1,1,.43-.9c.41.19.86.42,1.35.68a.5.5,0,0,1,.21.68A.49.49,0,0,1,322.38,79.29Z" style="fill:#e0e0e0"></path><path d="M358.46,109.3a.48.48,0,0,1-.42-.23c-.5-.79-1.06-1.6-1.66-2.4a.5.5,0,0,1,.1-.7.49.49,0,0,1,.7.1c.61.82,1.19,1.65,1.7,2.46a.5.5,0,0,1-.15.69A.53.53,0,0,1,358.46,109.3Zm-4.82-6.24a.49.49,0,0,1-.37-.16c-.65-.72-1.32-1.43-2-2.14a.5.5,0,1,1,.71-.7c.71.72,1.39,1.44,2,2.17a.5.5,0,0,1,0,.71A.54.54,0,0,1,353.64,103.06Zm-5.58-5.57a.46.46,0,0,1-.33-.13c-.73-.66-1.46-1.31-2.21-2a.51.51,0,0,1,0-.71.51.51,0,0,1,.71,0c.75.65,1.49,1.31,2.22,2a.5.5,0,0,1,0,.71A.49.49,0,0,1,348.06,97.49Zm-6-5.1a.45.45,0,0,1-.31-.11c-.78-.61-1.55-1.21-2.33-1.8a.5.5,0,1,1,.6-.8c.79.59,1.57,1.2,2.35,1.82a.5.5,0,0,1,.08.7A.48.48,0,0,1,342.05,92.39Zm-6.32-4.72a.46.46,0,0,1-.29-.1c-.81-.57-1.62-1.14-2.42-1.68a.5.5,0,1,1,.56-.82c.8.54,1.62,1.1,2.44,1.69a.5.5,0,0,1,.12.7A.52.52,0,0,1,335.73,87.67Zm-6.55-4.39a.56.56,0,0,1-.27-.08c-.87-.55-1.71-1.07-2.51-1.55a.5.5,0,1,1,.52-.85c.8.48,1.65,1,2.53,1.55a.5.5,0,0,1,.15.69A.48.48,0,0,1,329.18,83.28Z" style="fill:#e0e0e0"></path><path d="M361.25,115.05a.5.5,0,0,1-.48-.35c-.14-.45-.31-.91-.49-1.37a.5.5,0,1,1,.92-.37c.2.48.37,1,.53,1.44a.51.51,0,0,1-.33.63Z" style="fill:#e0e0e0"></path></g><path id="freepik--Pin--inject-168" d="M327.14,59.4a10.16,10.16,0,1,0-20.31,0v1.32c0,4.45,6.23,12.82,8.79,16a1.69,1.69,0,0,0,2.53.06c2.89-3.35,9-11.28,9-16.07ZM317,63.66a4.91,4.91,0,1,1,5.08-4.91A5,5,0,0,1,317,63.66Z" style="fill:#7ECDCE"></path><path id="freepik--pin--inject-168" d="M362.88,115.61a6.74,6.74,0,1,0-13.47,0v.87c0,3,4,8.32,5.83,10.62a1.12,1.12,0,0,0,1.75.08c1.85-2.35,5.89-7.52,5.89-10.7Zm-6.74,2.83a3.26,3.26,0,1,1,3.37-3.26A3.32,3.32,0,0,1,356.14,118.44Z" style="fill:#37474f"></path><path id="freepik--pin--inject-168" d="M319.85,145.1a5.56,5.56,0,1,0-11.12,0v.72c0,2.44,3.47,7.35,4.82,8.77a.85.85,0,0,0,1.36,0c1.38-1.55,4.94-6.15,4.94-8.78Zm-5.56,2.34a2.69,2.69,0,1,1,2.78-2.69A2.74,2.74,0,0,1,314.29,147.44Z" style="fill:#37474f"></path><path id="freepik--pin--inject-168" d="M281.26,171.81a4.06,4.06,0,1,0-8.12,0v.52c0,1.79,2.41,5,3.52,6.41a.58.58,0,0,0,1,0c1.05-1.23,3.64-4.49,3.64-6.41Zm-4.06,1.7a2,2,0,1,1,2-2A2,2,0,0,1,277.2,173.51Z" style="fill:#37474f"></path><path id="freepik--pin--inject-168" d="M336.32,198.47a4.07,4.07,0,1,0-8.13,0V199c0,1.79,2.41,5,3.52,6.41.27.34.71.48.87.28.95-1.17,3.74-4.77,3.74-6.69Zm-4.06,1.7a2,2,0,1,1,2-2A2,2,0,0,1,332.26,200.17Z" style="fill:#fafafa"></path></g></svg>
