<svg width="120" height="132" viewBox="0 0 120 132" fill="none" xmlns="http://www.w3.org/2000/svg">
<g filter="url(#filter0_d_552_487)">
<path d="M26.7385 55.1225C26.7385 34.2171 42.5404 20.7385 60 20.7385C77.4596 20.7385 93.2615 34.2171 93.2615 55.1225C93.2615 61.7221 90.7461 67.9091 85.61 74.7738C80.4636 81.6522 72.7265 89.1579 62.3589 98.3862C61.0229 99.5535 59.0189 99.5533 57.6831 98.3857C47.2943 89.1575 39.5467 81.6518 34.3951 74.7735C29.2538 67.9089 26.7385 61.722 26.7385 55.1225Z" fill="#C92CE5" stroke="white" stroke-width="1.47692"/>
</g>
<path d="M43.0447 42.0497C41.7291 43.4222 41.0662 45.8292 41.4621 47.7982C41.6971 49.0465 42.475 50.8057 43.0172 51.3747L43.3874 51.7676L42.1537 52.6455C41.0732 53.4048 40.8741 53.63 40.3812 54.5258C38.0767 58.6898 41.4985 64.0477 47.0408 64.9582C48.1992 65.1462 50.1734 65.0539 50.6054 64.7734C50.8078 64.6419 50.795 64.5927 51.2249 65.9639C51.6501 67.3573 53.0268 69.8023 53.8819 70.7054C55.4911 72.3854 57.0858 73.0385 58.9191 72.7883C59.724 72.6685 60.0696 72.5209 61.0191 71.8851C61.9775 71.2627 62.4607 70.7954 63.9053 69.0896C66.7033 65.8333 67.4592 65.3425 71.6888 64.0542C75.6896 62.8569 77.0994 61.807 77.715 59.6226C77.9671 58.7105 77.7943 57.1147 77.3225 55.8859C76.7207 54.3386 74.5007 51.4816 73.1598 50.5102C72.9959 50.4055 73.079 50.1789 73.4645 49.6791C75.755 46.6756 75.5088 41.539 72.9266 38.7446C71.4989 37.1963 69.5574 36.4229 67.7201 36.6374C66.9421 36.7396 66.4758 36.9081 65.5317 37.4637L64.3223 38.1723L63.5138 37.1046C61.563 34.5142 59.1615 33.3872 56.416 33.7692C55.6023 33.8755 55.2568 34.0231 54.2309 34.6893C53.1916 35.3642 52.9432 35.6023 52.4652 36.3733C51.7279 37.5429 51.2294 38.9029 51.1541 39.9689L51.0856 40.8386L49.9691 40.5082C47.3711 39.7582 44.6498 40.3548 43.0447 42.0497ZM46.9508 41.2977C48.1222 41.1511 49.5565 41.4094 51.0311 42.0254L52.1503 42.5076L52.1697 41.2668C52.2139 38.705 52.9987 36.9288 54.6293 35.7164C55.4985 35.0751 55.7408 34.9753 56.6935 34.8172C58.0754 34.6106 59.7087 35.0276 60.9079 35.8991C61.6337 36.4257 61.9109 36.7638 62.8751 38.2486L63.9971 39.9763L64.7368 39.3424C66.4282 37.8985 67.6746 37.4538 69.2465 37.7762C72.6797 38.4827 74.81 42.8564 73.6816 46.8515C73.4255 47.7278 72.4775 49.3413 71.8545 49.9186C71.6062 50.1567 71.4468 50.4137 71.5082 50.5081C71.5608 50.5891 72.0599 51.0326 72.6257 51.4903C75.698 54.0048 77.4122 57.7083 76.4937 59.84C75.8143 61.3942 74.7622 62.0199 70.9766 63.135C68.5441 63.8512 68.3018 63.9509 66.7766 64.9414C65.2156 65.9359 65.0711 66.0681 63.3505 68.0875C60.5977 71.2952 59.4686 72.0092 57.5613 71.7318C56.2646 71.5376 55.3224 70.8254 54.0533 69.0781C52.9778 67.5697 52.3421 66.2362 51.9036 64.4676C51.6948 63.6438 51.56 63.3475 51.4122 63.3859C48.7873 64.131 47.3718 64.1675 45.7366 63.5407C43.8484 62.7904 42.7341 61.902 41.691 60.2958C41.1436 59.4231 40.9744 59.0149 40.8586 58.2457C40.4839 55.6297 41.4953 53.9366 44.1933 52.6835L45.0551 52.2965L44.2378 51.2153C42.2114 48.5973 41.847 45.4949 43.3228 43.4235C44.0856 42.3524 45.6007 41.4644 46.9508 41.2977Z" fill="#ECEFF1"/>
<path d="M45.198 44.5085C44.6998 45.1006 44.4503 46.5484 44.711 47.5114C44.9541 48.4473 45.9089 49.9765 46.6906 50.6779C48.8589 52.628 51.8336 52.8647 53.1614 51.2156C54.3306 49.7655 53.7481 46.9774 51.9379 45.3128C50.2734 43.7839 48.4108 43.1321 46.8616 43.5241C46.0154 43.7282 45.7232 43.8987 45.198 44.5085Z" fill="#ECEFF1"/>
<path d="M55.1769 38.0664C54.9595 38.3227 54.6778 39.1005 54.5034 39.8662C54.1012 41.7586 54.3255 42.7836 55.5391 44.682C56.3631 45.9508 56.5526 46.154 57.2487 46.5462C58.2106 47.1114 59.3839 47.1746 60.2956 46.7169C61.5306 46.1068 62.3397 44.1613 62.1482 42.2707C62.0319 41.1756 61.395 39.5743 60.7307 38.7583C59.0024 36.5992 56.6444 36.3074 55.1769 38.0664Z" fill="#ECEFF1"/>
<path d="M43.1966 56.1131C42.6692 57.2808 42.8105 58.1485 43.7633 59.468C45.3662 61.6702 48.5389 62.5075 50.4826 61.2452C51.8324 60.3687 51.9976 58.8797 50.9195 57.2195C49.8939 55.6403 48.1111 54.6679 46.143 54.6219C44.9022 54.6025 43.5863 55.2652 43.1966 56.1131Z" fill="#ECEFF1"/>
<path d="M65.9255 41.4684C65.6662 41.867 65.3663 42.6759 65.2838 43.2284C64.7115 46.632 67.013 49.7623 69.4389 48.8585C71.4566 48.1239 72.3659 45.269 71.4697 42.5887C70.4353 39.5183 67.5006 38.9295 65.9255 41.4684Z" fill="#ECEFF1"/>
<path d="M56.4685 52.0232C54.2759 54.6752 53.1228 59.6075 53.8466 63.2633C54.4526 66.324 56.2569 69.2206 57.7708 69.5424C58.6613 69.7317 59.2498 69.4263 60.4081 68.1367C64.0957 64.034 64.0552 64.0603 65.432 63.1663C66.8945 62.1973 67.85 61.8071 70.9635 60.8982C72.0161 60.5984 73.1687 60.1569 73.6094 59.8899C74.293 59.4652 74.4017 59.337 74.5382 58.7494C74.7498 57.8636 74.3602 56.85 73.1748 55.2019C71.3305 52.6575 68.8132 51.1451 65.0952 50.3549C61.1324 49.5125 58.0629 50.105 56.4685 52.0232Z" fill="#ECEFF1"/>
<defs>
<filter id="filter0_d_552_487" x="0.400004" y="0.800004" width="119.2" height="131.2" filterUnits="userSpaceOnUse" color-interpolation-filters="sRGB">
<feFlood flood-opacity="0" result="BackgroundImageFix"/>
<feColorMatrix in="SourceAlpha" type="matrix" values="0 0 0 0 0 0 0 0 0 0 0 0 0 0 0 0 0 0 127 0" result="hardAlpha"/>
<feMorphology radius="6.4" operator="erode" in="SourceAlpha" result="effect1_dropShadow_552_487"/>
<feOffset dy="6.4"/>
<feGaussianBlur stdDeviation="16"/>
<feComposite in2="hardAlpha" operator="out"/>
<feColorMatrix type="matrix" values="0 0 0 0 0 0 0 0 0 0 0 0 0 0 0 0 0 0 0.24 0"/>
<feBlend mode="normal" in2="BackgroundImageFix" result="effect1_dropShadow_552_487"/>
<feBlend mode="normal" in="SourceGraphic" in2="effect1_dropShadow_552_487" result="shape"/>
</filter>
</defs>
</svg>
