<svg width="80" height="80" viewBox="0 0 80 80" fill="none" xmlns="http://www.w3.org/2000/svg">
<path d="M34.9399 5.5H33.4399V7V73.26V74.76H34.9399H45.4199H46.9199V73.26V7V5.5H45.4199H34.9399Z" fill="white" stroke="white" stroke-width="3"/>
<path d="M19.1569 35.1032L19.1551 35.0982L17.6551 30.8382L16.1569 26.5832C16.1566 26.5822 16.1562 26.5813 16.1559 26.5804C15.4062 24.4701 16.528 22.1707 18.6168 21.4269L18.6217 21.4252L18.6217 21.4252L52.4055 9.5274C52.4067 9.52698 52.4079 9.52655 52.4091 9.52612C53.3084 9.20589 54.2769 9.22552 55.1426 9.54033L55.1467 9.54181L61.7967 11.9818L61.8046 11.9847C62.9867 12.4261 63.8324 13.3482 64.2145 14.4308C64.596 15.5117 64.5174 16.7706 63.8655 17.853L19.1569 35.1032ZM19.1569 35.1032C19.9007 37.1923 22.2006 38.314 24.311 37.5639C24.3117 37.5636 24.3124 37.5634 24.3131 37.5631L58.0986 25.6547L58.1045 25.6526C58.9805 25.3398 59.7336 24.7384 60.2187 23.9177L63.8646 17.8545L19.1569 35.1032Z" fill="white" stroke="white" stroke-width="3"/>
<path d="M62.32 40.9784V40.68H60.82H25C24.0523 40.68 23.1538 41.0169 22.4399 41.5912L22.4316 41.5978L22.4235 41.6045L16.9635 46.1245L16.9635 46.1245L16.9579 46.1292C15.9953 46.934 15.5 48.0811 15.5 49.24C15.5 50.3989 15.9953 51.546 16.9579 52.3508L16.9579 52.3508L16.9635 52.3554L22.4235 56.8754L22.4247 56.8764C23.1585 57.4826 24.0679 57.8 25 57.8H60.82C63.0484 57.8 64.86 55.9884 64.86 53.76V44.73C64.86 43.0314 63.8074 41.575 62.32 40.9784Z" fill="white" stroke="white" stroke-width="3"/>
<path d="M45.4199 7H34.9399V73.26H45.4199V7Z" fill="#253A73"/>
<path d="M20.57 34.6C21.04 35.92 22.49 36.62 23.81 36.15L57.6 24.24C58.16 24.04 58.63 23.66 58.93 23.15L62.58 17.08C62.99 16.4 63.04 15.61 62.8 14.93C62.56 14.25 62.03 13.67 61.28 13.39L54.63 10.95C54.08 10.75 53.47 10.74 52.91 10.94L19.12 22.84C17.8 23.31 17.1 24.76 17.57 26.08L19.07 30.34L20.57 34.6Z" fill="#87549E"/>
<path d="M60.82 42.18H25C24.41 42.18 23.84 42.39 23.38 42.76L17.92 47.28C17.31 47.79 17 48.51 17 49.24C17 49.97 17.31 50.69 17.92 51.2L23.38 55.72C23.84 56.1 24.41 56.3 25 56.3H60.82C62.22 56.3 63.36 55.16 63.36 53.76V44.73C63.36 43.33 62.22 42.19 60.82 42.19V42.18Z" fill="#7ECDCE"/>
</svg>
