<svg width="15" height="15" viewBox="0 0 15 15" fill="none" xmlns="http://www.w3.org/2000/svg">
<path d="M3.22671 8.82438C3.83905 8.82438 4.34006 8.28162 4.34006 7.61824C4.34006 6.95487 3.83905 6.41211 3.22671 6.41211C2.61436 6.41211 2.11335 6.95487 2.11335 7.61824C2.11335 8.28162 2.61436 8.82438 3.22671 8.82438ZM3.85575 9.48775C3.64978 9.45157 3.44381 9.42744 3.22671 9.42744C2.6756 9.42744 2.15232 9.55409 1.67915 9.77722C1.26721 9.97021 1 10.4044 1 10.8929V11.2366C1 11.5683 1.2505 11.8397 1.55668 11.8397H3.50505V10.8688C3.50505 10.3682 3.63308 9.89784 3.85575 9.48775ZM12.1335 8.82438C12.7459 8.82438 13.2469 8.28162 13.2469 7.61824C13.2469 6.95487 12.7459 6.41211 12.1335 6.41211C11.5212 6.41211 11.0202 6.95487 11.0202 7.61824C11.0202 8.28162 11.5212 8.82438 12.1335 8.82438ZM14.3603 10.8929C14.3603 10.4044 14.0931 9.97021 13.6811 9.77722C13.2079 9.55409 12.6847 9.42744 12.1335 9.42744C11.9164 9.42744 11.7105 9.45157 11.5045 9.48775C11.7272 9.89784 11.8552 10.3682 11.8552 10.8688V11.8397H13.8036C14.1097 11.8397 14.3603 11.5683 14.3603 11.2366V10.8929Z" fill="#B0BEC5"/>
<path d="M7.67993 8.40993C8.66293 8.40993 9.53134 8.66472 10.2369 8.99792C10.8882 9.31151 11.2983 10.0171 11.2983 10.7815V11.1865C11.2983 11.5459 11.0269 11.8399 10.6953 11.8399H4.66459C4.3329 11.8399 4.06152 11.5459 4.06152 11.1865V10.788C4.06152 10.0171 4.47161 9.31151 5.12292 9.00445C5.82851 8.66472 6.69693 8.40993 7.67993 8.40993ZM7.67993 4C8.68102 4 9.48913 4.87545 9.48913 5.95997C9.48913 7.04448 8.68102 7.91994 7.67993 7.91994C6.67883 7.91994 5.87072 7.04448 5.87072 5.95997C5.87072 4.87545 6.67883 4 7.67993 4Z" fill="#607D8B"/>
</svg>
