<svg width="14" height="14" viewBox="0 0 14 14" fill="none" xmlns="http://www.w3.org/2000/svg">
<path d="M6.99992 11.1869C8.19827 10.2602 9.1028 9.3693 9.7135 8.51429C10.3242 7.65929 10.6295 6.8622 10.6295 6.12304C10.6295 5.47213 10.5057 4.92052 10.2579 4.46819C10.0102 4.01587 9.70486 3.64629 9.34189 3.35945C8.97893 3.07261 8.58428 2.86575 8.15794 2.73888C7.73161 2.61201 7.3456 2.54857 6.99992 2.54857C6.65424 2.54857 6.26823 2.61201 5.84189 2.73888C5.41556 2.86575 5.02091 3.07261 4.65794 3.35945C4.29498 3.64629 3.98963 4.01587 3.74189 4.46819C3.49416 4.92052 3.37029 5.47213 3.37029 6.12304C3.37029 6.8622 3.67564 7.65929 4.28634 8.51429C4.89704 9.3693 5.80157 10.2602 6.99992 11.1869ZM6.99992 12.4446C5.42132 11.3082 4.24889 10.2215 3.48263 9.18451C2.71638 8.14747 2.33325 7.12698 2.33325 6.12304C2.33325 5.37284 2.4744 4.71366 2.75671 4.1455C3.03901 3.57733 3.40486 3.10019 3.85424 2.71406C4.30362 2.32793 4.80486 2.03833 5.35794 1.84526C5.91103 1.6522 6.45836 1.55566 6.99992 1.55566C7.54148 1.55566 8.08881 1.6522 8.64189 1.84526C9.19498 2.03833 9.69622 2.32793 10.1456 2.71406C10.595 3.10019 10.9608 3.57733 11.2431 4.1455C11.5254 4.71366 11.6666 5.37284 11.6666 6.12304C11.6666 7.12698 11.2835 8.14747 10.5172 9.18451C9.75095 10.2215 8.57852 11.3082 6.99992 12.4446ZM6.99992 7.18214C7.33408 7.18214 7.61926 7.06906 7.85547 6.8429C8.09169 6.61674 8.2098 6.34369 8.2098 6.02375C8.2098 5.70381 8.09169 5.43076 7.85547 5.2046C7.61926 4.97844 7.33408 4.86536 6.99992 4.86536C6.66576 4.86536 6.38058 4.97844 6.14436 5.2046C5.90815 5.43076 5.79004 5.70381 5.79004 6.02375C5.79004 6.34369 5.90815 6.61674 6.14436 6.8429C6.38058 7.06906 6.66576 7.18214 6.99992 7.18214Z" fill="#455A64"/>
</svg>
