<svg width="360" height="359" viewBox="0 0 360 359" fill="none" xmlns="http://www.w3.org/2000/svg">
<path d="M343.188 241.571C342.432 250.896 340.347 260.066 336.996 268.805C332.86 279.767 326.723 289.87 318.895 298.602C306.353 312.395 283.968 326.144 268.761 331.106C129.24 376.663 55.4399 297.632 49.2551 291.975C37.7351 281.427 28.3319 265.287 22.5215 247.071C21.0178 242.369 19.7704 237.59 18.7847 232.754C14.9892 213.604 14.8256 193.914 18.3023 174.704C20.0929 164.585 23.0502 154.707 27.1151 145.266C36.9935 122.713 52.3151 106.659 67.8671 92.665C102.24 61.7479 139.68 38.0539 178.833 23.7514C193.449 18.4095 211.953 14.7979 228.514 15.2646C233.072 15.3604 237.615 15.8408 242.093 16.7006C261.324 20.5132 280.397 33.8537 291.665 57.1958C292.752 59.4575 293.76 61.7767 294.71 64.1604C300.917 79.8344 304.272 97.8274 309.65 114.27C316.699 135.81 321.465 153.717 329.961 174.086C338.457 194.456 345.089 217.934 343.188 241.571Z" fill="#52ACAC"/>
<g opacity="0.7">
<path d="M343.188 241.571C342.432 250.896 340.347 260.066 336.996 268.805C332.86 279.767 326.723 289.87 318.895 298.602C306.353 312.395 283.968 326.144 268.761 331.106C129.24 376.663 55.4399 297.632 49.2551 291.975C37.7351 281.427 28.3319 265.287 22.5215 247.071C21.0178 242.369 19.7704 237.59 18.7847 232.754C14.9892 213.604 14.8256 193.914 18.3023 174.704C20.0929 164.585 23.0502 154.707 27.1151 145.266C36.9935 122.713 52.3151 106.659 67.8671 92.665C102.24 61.7479 139.68 38.0539 178.833 23.7514C193.449 18.4095 211.953 14.7979 228.514 15.2646C233.072 15.3604 237.615 15.8408 242.093 16.7006C261.324 20.5132 280.397 33.8537 291.665 57.1958C292.752 59.4575 293.76 61.7767 294.71 64.1604C300.917 79.8344 304.272 97.8274 309.65 114.27C316.699 135.81 321.465 153.717 329.961 174.086C338.457 194.456 345.089 217.934 343.188 241.571Z" fill="white"/>
</g>
<path d="M336.449 270.133C332.327 280.834 326.286 290.697 318.622 299.241C306.079 313.048 283.68 326.776 268.488 331.716C128.966 377.302 55.1664 298.271 48.96 292.614C37.44 282.066 28.08 265.925 22.248 247.71L22.2048 247.573L214.106 227.283L336.449 270.133Z" fill="#BFBFBF"/>
<mask id="mask0_517_4651" style="mask-type:luminance" maskUnits="userSpaceOnUse" x="22" y="227" width="315" height="119">
<path d="M336.449 270.133C332.327 280.834 326.286 290.697 318.622 299.241C306.079 313.048 283.68 326.776 268.488 331.716C128.966 377.302 55.1664 298.271 48.96 292.614C37.44 282.066 28.08 265.925 22.248 247.71L22.2048 247.573L214.106 227.283L336.449 270.133Z" fill="white"/>
</mask>
<g mask="url(#mask0_517_4651)">
<path opacity="0.2" d="M94.4065 187.527C87.9265 195.31 87.8545 206.446 88.6465 216.527C89.4385 226.608 90.6265 237.349 85.9321 246.324C85.9077 246.368 85.8722 246.404 85.8292 246.429C85.7862 246.454 85.7372 246.468 85.6873 246.468C88.1666 247.774 90.4318 249.449 92.4049 251.436C93.2761 252.248 94.1545 253.554 93.4633 254.531C93.9745 254.739 93.6937 256.168 94.0177 256.606C94.1864 256.812 94.2712 257.075 94.2552 257.341C94.2392 257.607 94.1236 257.857 93.9313 258.042C93.6688 258.198 93.3649 258.27 93.0601 258.25L89.9425 258.379C89.9462 258.64 90.0526 258.888 90.2385 259.071C90.4244 259.253 90.675 259.356 90.9361 259.356C92.7557 259.405 94.5473 259.815 96.2065 260.562C97.0314 260.946 97.7453 261.531 98.2817 262.265C98.8181 262.998 99.1594 263.855 99.2737 264.755C99.3889 266.557 97.9201 268.453 96.1057 268.395C100.044 267.397 104.789 268.639 108.842 268.977C113.464 269.499 118.011 270.538 122.4 272.072C123.736 272.461 125.037 272.963 126.288 273.572C128.347 274.647 130.086 276.245 131.328 278.203C137.621 276.494 144.036 276.2 150.545 275.741C158.638 275.18 167.062 275.669 174.305 279.295C186.235 285.268 201.125 279.711 214.445 280.515C218.866 280.788 223.351 281.14 227.484 282.727C230.962 284.055 235.296 282.992 238.903 283.904C241.488 284.565 244.217 286.058 244.836 288.643C247.37 287.595 249.962 287.882 252.691 287.616L259.927 286.898C261.677 286.726 263.606 286.597 265.025 287.616C266.09 288.392 268.33 287.875 269.51 287.293C270.691 286.712 271.858 285.95 273.175 285.857C273.852 285.896 274.531 285.884 275.206 285.821C275.86 285.648 276.464 285.323 276.97 284.873C278.558 283.605 279.925 282.084 281.016 280.372C281.715 279.44 282.071 278.296 282.024 277.133C281.743 274.979 279.238 273.867 277.07 273.823C266.645 274.541 255.391 275.417 245.095 273.665C232.135 271.468 219.967 265.401 206.87 264.604C202.824 264.36 198.144 264.504 194.105 264.181L186.696 263.592C184.644 263.427 182.527 263.247 180.713 262.271C175.385 259.399 167.681 261.057 162.079 258.745C156.478 256.433 151.315 252.449 148.91 246.891C148.038 244.672 147.394 242.369 146.988 240.02L144.828 229.48C143.863 224.82 142.963 220.505 141.228 216.06C138.744 209.598 136.188 202.907 131.378 197.859C127.49 193.745 122.4 190.988 117.36 188.274C116.03 187.496 114.614 186.875 113.141 186.421C111.133 186.007 109.073 185.908 107.035 186.127C103.104 186.342 98.3161 187.312 94.4065 187.527Z" fill="black"/>
</g>
<path d="M18 175.343C94.2408 173.189 213.415 169.864 214.078 169.9C215.057 169.95 214.078 227.283 214.078 227.283L22.248 247.71" stroke="#263238" stroke-linecap="round" stroke-linejoin="round"/>
<path d="M22.248 247.71L214.106 227.283L336.722 269.444" stroke="#263238" stroke-linecap="round" stroke-linejoin="round"/>
<path d="M77.6593 250.288C75.0097 250.79 73.3825 247.969 71.6905 246.166C76.4353 232.639 78.6529 211.329 75.7585 203.74C74.3185 199.913 71.4385 196.56 69.2785 193.006C68.6449 191.965 68.0041 190.715 68.6377 189.667C69.2713 188.619 70.8481 188.339 72.1297 188.64C74.0504 189.229 75.8835 190.072 77.5801 191.146L90.2161 187.922C109.656 182.968 132.048 182.896 151.33 188.159C150.797 186.005 154.858 184.684 156.902 186.005C158.947 187.326 158.911 190.126 157.486 191.957C148.435 203.575 155.729 219.959 161.633 232.941C162.353 234.463 163.073 236.021 163.109 237.658C163.21 245.556 150.566 238.714 146.095 238.699C99.4393 238.505 80.3089 249.778 77.6593 250.288Z" fill="white"/>
<mask id="mask1_517_4651" style="mask-type:luminance" maskUnits="userSpaceOnUse" x="68" y="184" width="96" height="67">
<path d="M77.6593 250.288C75.0097 250.79 73.3825 247.969 71.6905 246.166C76.4353 232.639 78.6529 211.329 75.7585 203.74C74.3185 199.913 71.4385 196.56 69.2785 193.006C68.6449 191.965 68.0041 190.715 68.6377 189.667C69.2713 188.619 70.8481 188.339 72.1297 188.64C74.0504 189.229 75.8835 190.072 77.5801 191.146L90.2161 187.922C109.656 182.968 132.048 182.896 151.33 188.159C150.797 186.005 154.858 184.684 156.902 186.005C158.947 187.326 158.911 190.126 157.486 191.957C148.435 203.575 155.729 219.959 161.633 232.941C162.353 234.463 163.073 236.021 163.109 237.658C163.21 245.556 150.566 238.714 146.095 238.699C99.4393 238.505 80.3089 249.778 77.6593 250.288Z" fill="white"/>
</mask>
<g mask="url(#mask1_517_4651)">
<path opacity="0.2" d="M94.4065 187.528C87.9265 195.311 87.8545 206.447 88.6465 216.528C89.4385 226.608 90.6265 237.35 85.9321 246.325C85.9077 246.368 85.8722 246.404 85.8292 246.429C85.7862 246.455 85.7372 246.468 85.6873 246.468C88.1666 247.774 90.4318 249.45 92.4049 251.437C93.2761 252.248 94.1545 253.555 93.4633 254.531C93.9745 254.739 93.6937 256.168 94.0177 256.606C94.1864 256.813 94.2712 257.075 94.2552 257.341C94.2392 257.607 94.1236 257.857 93.9313 258.042C93.6688 258.198 93.3649 258.271 93.0601 258.251L89.9425 258.38C89.9462 258.64 90.0526 258.888 90.2385 259.071C90.4244 259.254 90.675 259.356 90.9361 259.356C92.7557 259.406 94.5473 259.816 96.2065 260.562C97.0314 260.946 97.7453 261.532 98.2817 262.265C98.8181 262.998 99.1594 263.855 99.2737 264.756C99.3889 266.558 97.9201 268.453 96.1057 268.396C100.044 267.398 104.789 268.64 108.842 268.977C113.464 269.5 118.011 270.538 122.4 272.072C123.736 272.462 125.037 272.964 126.288 273.573C128.347 274.648 130.086 276.245 131.328 278.204C137.621 276.495 144.036 276.201 150.545 275.741C158.638 275.181 167.062 275.669 174.305 279.295C186.235 285.269 201.125 279.712 214.445 280.516C218.866 280.789 223.351 281.14 227.484 282.727C230.962 284.055 235.296 282.993 238.903 283.905C241.488 284.565 244.217 286.059 244.836 288.643C247.37 287.595 249.962 287.882 252.691 287.617L259.927 286.899C261.677 286.726 263.606 286.597 265.025 287.617C266.09 288.392 268.33 287.875 269.51 287.294C270.691 286.712 271.858 285.951 273.175 285.858C273.852 285.896 274.531 285.884 275.206 285.822C275.86 285.648 276.464 285.323 276.97 284.874C278.558 283.606 279.925 282.085 281.016 280.372C281.715 279.44 282.071 278.297 282.024 277.134C281.743 274.98 279.238 273.867 277.07 273.824C266.645 274.542 255.391 275.418 245.095 273.666C232.135 271.469 219.967 265.402 206.87 264.605C202.824 264.361 198.144 264.504 194.105 264.181L186.696 263.592C184.644 263.427 182.527 263.248 180.713 262.271C175.385 259.399 167.681 261.058 162.079 258.746C156.478 256.434 151.315 252.449 148.91 246.892C148.038 244.672 147.394 242.37 146.988 240.02L144.828 229.48C143.863 224.82 142.963 220.505 141.228 216.061C138.744 209.599 136.188 202.907 131.378 197.86C127.49 193.745 122.4 190.988 117.36 188.274C116.03 187.497 114.614 186.875 113.141 186.422C111.133 186.008 109.073 185.908 107.035 186.127C103.104 186.343 98.3161 187.312 94.4065 187.528Z" fill="black"/>
</g>
<path d="M77.6593 250.288C75.0097 250.79 73.3825 247.969 71.6905 246.166C76.4353 232.639 78.6529 211.329 75.7585 203.74C74.3185 199.913 71.4385 196.56 69.2785 193.006C68.6449 191.965 68.0041 190.715 68.6377 189.667C69.2713 188.619 70.8481 188.339 72.1297 188.64C74.0504 189.229 75.8835 190.072 77.5801 191.146L90.2161 187.922C109.656 182.968 132.048 182.896 151.33 188.159C150.797 186.005 154.858 184.684 156.902 186.005C158.947 187.326 158.911 190.126 157.486 191.957C148.435 203.575 155.729 219.959 161.633 232.941C162.353 234.463 163.073 236.021 163.109 237.658C163.21 245.556 150.566 238.714 146.095 238.699C99.4393 238.505 80.3089 249.778 77.6593 250.288Z" stroke="#263238" stroke-linecap="round" stroke-linejoin="round"/>
<path d="M87.5808 281.319C116.857 282.066 146.087 278.569 174.355 270.937" stroke="#263238" stroke-linecap="round" stroke-linejoin="round"/>
<path d="M165.362 297.697C183.982 295.098 204.48 290.481 233.87 281.24C248.602 276.602 257.774 280.192 250.43 285.635" stroke="#263238" stroke-linecap="round" stroke-linejoin="round"/>
<path d="M155.29 298.925C157.046 298.738 158.813 298.537 160.589 298.322" stroke="#263238" stroke-linecap="round" stroke-linejoin="round"/>
<path d="M137.11 300.39C142.236 300.074 147.24 299.708 152.23 299.227" stroke="#263238" stroke-linecap="round" stroke-linejoin="round"/>
<path d="M198.562 302.493C212.479 300.296 235.49 293.999 247.45 287.703" stroke="#263238" stroke-linecap="round" stroke-linejoin="round"/>
<path d="M181.555 322.633C211.803 316.684 241.188 306.993 269.028 293.784" stroke="#263238" stroke-linecap="round" stroke-linejoin="round"/>
<path d="M242.302 315.877C239.935 316.581 237.559 317.241 235.174 317.859" stroke="#263238" stroke-linecap="round" stroke-linejoin="round"/>
<path d="M274.99 291.278C281.567 287.394 289.003 285.187 296.64 284.852C297.72 284.809 299.002 284.902 299.57 285.821C300.398 287.171 298.93 288.751 297.619 289.641C282.156 300.135 265.296 308.417 247.529 314.247" stroke="#263238" stroke-linecap="round" stroke-linejoin="round"/>
<path d="M93.3767 268.869C93.3767 268.869 128.758 269.731 161.539 266.227" stroke="#263238" stroke-linecap="round" stroke-linejoin="round"/>
<path d="M88.7329 259.564C94.8175 259.594 100.839 260.796 106.467 263.104" stroke="#263238" stroke-linecap="round" stroke-linejoin="round"/>
<path d="M342.518 225.574L277.632 231.914L222.394 215.4L292.104 210.374C292.104 210.374 340.416 225.28 342.504 225.531L342.518 225.574Z" fill="white" stroke="#263238" stroke-linecap="round" stroke-linejoin="round"/>
<path d="M342.526 225.574V230.844L276.854 239.108L222.394 221.934V215.436L277.632 231.936L342.518 225.574H342.526Z" fill="white" stroke="#263238" stroke-linecap="round" stroke-linejoin="round"/>
<path d="M224.244 222.522V230.794L277.193 249.225L336.722 269.444V231.576L276.854 239.108L224.244 222.522Z" fill="#263238" stroke="#263238" stroke-linecap="round" stroke-linejoin="round"/>
<path d="M164.066 158.958L162.173 158.657C161.91 158.615 161.641 158.625 161.381 158.687C161.122 158.748 160.877 158.86 160.661 159.016C160.445 159.172 160.262 159.369 160.122 159.596C159.983 159.822 159.889 160.074 159.847 160.337L157.133 177.476C157.091 177.738 157.101 178.006 157.163 178.265C157.225 178.524 157.337 178.768 157.494 178.983C157.65 179.198 157.847 179.381 158.075 179.52C158.302 179.659 158.554 179.753 158.818 179.795L160.711 180.089L164.066 158.958Z" fill="#263238"/>
<path d="M164.066 158.958L162.173 158.657C161.91 158.615 161.641 158.625 161.381 158.687C161.122 158.748 160.877 158.86 160.661 159.016C160.445 159.172 160.262 159.369 160.122 159.596C159.983 159.822 159.889 160.074 159.847 160.337L157.133 177.476C157.091 177.738 157.101 178.006 157.163 178.265C157.225 178.524 157.337 178.768 157.494 178.983C157.65 179.198 157.847 179.381 158.075 179.52C158.302 179.659 158.554 179.753 158.818 179.795L160.711 180.089L164.066 158.958Z" fill="#52ACAC" stroke="#263238" stroke-linecap="round" stroke-linejoin="round"/>
<path d="M170.819 160.027L163.423 158.859C162.414 158.7 161.466 159.386 161.306 160.393L158.528 177.888C158.368 178.894 159.056 179.84 160.066 179.999L167.462 181.167C168.471 181.327 169.419 180.64 169.579 179.633L172.357 162.138C172.517 161.132 171.828 160.187 170.819 160.027Z" fill="#263238" stroke="#263238" stroke-linecap="round" stroke-linejoin="round"/>
<path d="M170.094 161.516L167.868 161.164C167.468 161.101 167.091 161.374 167.028 161.773L166.675 163.993C166.612 164.392 166.885 164.767 167.286 164.831L169.512 165.182C169.912 165.246 170.289 164.973 170.352 164.574L170.705 162.354C170.768 161.954 170.495 161.579 170.094 161.516Z" fill="#263238"/>
<path opacity="0.5" d="M170.094 161.516L167.868 161.164C167.468 161.101 167.091 161.374 167.028 161.773L166.675 163.993C166.612 164.392 166.885 164.767 167.286 164.831L169.512 165.182C169.912 165.246 170.289 164.973 170.352 164.574L170.705 162.354C170.768 161.954 170.495 161.579 170.094 161.516Z" fill="white"/>
<path d="M168.581 162.433C168.56 162.564 168.487 162.682 168.379 162.76C168.271 162.838 168.137 162.87 168.005 162.85C167.94 162.84 167.878 162.818 167.822 162.784C167.765 162.75 167.716 162.706 167.678 162.653C167.639 162.6 167.611 162.54 167.595 162.477C167.58 162.413 167.577 162.347 167.587 162.282C167.61 162.152 167.683 162.036 167.791 161.958C167.898 161.88 168.032 161.847 168.163 161.866C168.228 161.876 168.291 161.898 168.347 161.932C168.403 161.966 168.452 162.01 168.491 162.063C168.53 162.116 168.557 162.175 168.573 162.239C168.588 162.303 168.591 162.369 168.581 162.433Z" fill="#263238"/>
<path d="M169.92 163.352C169.905 163.451 169.86 163.542 169.792 163.615C169.725 163.688 169.637 163.74 169.54 163.763C169.443 163.786 169.341 163.78 169.248 163.746C169.154 163.711 169.073 163.65 169.014 163.569C168.956 163.489 168.922 163.392 168.919 163.293C168.915 163.194 168.941 163.095 168.993 163.011C169.045 162.926 169.122 162.859 169.212 162.817C169.303 162.776 169.404 162.762 169.502 162.778C169.634 162.799 169.752 162.871 169.83 162.979C169.909 163.087 169.941 163.221 169.92 163.352Z" fill="#263238"/>
<path d="M168.293 163.912C168.278 164.009 168.234 164.099 168.168 164.171C168.101 164.243 168.015 164.294 167.92 164.317C167.824 164.34 167.724 164.334 167.632 164.301C167.54 164.267 167.46 164.207 167.402 164.128C167.344 164.05 167.31 163.955 167.306 163.858C167.301 163.76 167.326 163.663 167.377 163.579C167.427 163.496 167.502 163.429 167.591 163.387C167.679 163.345 167.778 163.331 167.875 163.345C167.94 163.355 168.003 163.377 168.059 163.411C168.115 163.445 168.164 163.489 168.203 163.542C168.242 163.595 168.269 163.655 168.285 163.718C168.3 163.782 168.303 163.848 168.293 163.912Z" fill="#263238"/>
<path d="M167.307 186.917C167.307 186.917 165.759 184.232 165.6 183.715C164.47 180.06 167.458 177.526 167.458 177.526C167.458 177.526 166.327 179.816 164.578 178.401C163.491 177.504 166.443 174.266 166.443 174.266C166.443 174.266 165.003 171.537 168.66 169.714C168.66 169.714 165.643 168.163 167.019 166.002C167.573 165.14 176.523 169.592 176.566 172.815C176.623 176.764 172.966 188.123 172.966 188.123C172.548 190.651 167.695 209.965 161.525 217.274C153.742 226.486 151.495 217.209 150.408 215.192C150.408 215.192 139.824 193.451 136.267 185.603C135.317 183.779 134.705 181.799 134.46 179.759C134.345 177.712 136.411 174.603 138.147 173.505C141.43 173.792 144.144 176.219 146.067 178.89C147.377 180.735 153.101 193.551 157.104 202.239C161.165 196.301 166.63 188.396 167.307 186.917Z" fill="white" stroke="#263238" stroke-linecap="round" stroke-linejoin="round"/>
<path d="M170.374 178.567C170.446 177.131 167.717 173.239 165.665 175.379" stroke="#263238" stroke-linecap="round" stroke-linejoin="round"/>
<path d="M172.015 175.515C172.015 175.515 168.89 170.927 166.514 173.404" stroke="#263238" stroke-linecap="round" stroke-linejoin="round"/>
<path d="M172.894 172.399C172.894 172.399 171.259 171.121 170.892 170.884C169.524 170.001 168.055 169.017 167.292 168.615" stroke="#263238" stroke-linecap="round" stroke-linejoin="round"/>
<path d="M174.665 169.506L171.742 166.045C171.742 166.045 171.151 167.366 171.324 167.481C172.628 167.778 173.8 168.489 174.665 169.506Z" fill="white" stroke="#263238" stroke-linecap="round" stroke-linejoin="round"/>
<path d="M155.52 214.984C154.879 211.76 155.52 206.303 157.205 202.627" stroke="#263238" stroke-linecap="round" stroke-linejoin="round"/>
<path d="M267.948 269.487C267.948 269.487 266.321 272.646 255.938 273.299C253.476 273.457 247.219 273.005 241.006 274.513C236.016 275.719 236.398 268.001 236.844 267.053C231.084 264.044 211.45 250.173 207.511 246.884C205.877 245.52 200.369 238.936 199.541 236.38C187.366 244.946 164.981 259.959 164.981 259.959C164.981 259.959 133.762 269.293 142.754 242.095C142.754 242.095 190.757 214.359 198.238 214.402C199.839 214.409 201.43 214.651 202.961 215.12C204.892 215.691 206.604 216.832 207.871 218.394C207.943 218.351 235.051 251.12 243.36 261.172C245.331 263.589 248.175 265.137 251.28 265.48C254.16 265.775 257.393 265.832 259.92 266.155C268.222 267.168 267.948 269.487 267.948 269.487Z" fill="white" stroke="#263238" stroke-linecap="round" stroke-linejoin="round"/>
<path d="M120.694 268.618C120.694 268.618 128.391 269.473 137.441 263.994C146.491 258.516 119.563 255.809 119.563 255.809C119.563 255.809 111.55 264.942 120.694 268.618Z" fill="#52ACAC"/>
<mask id="mask2_517_4651" style="mask-type:luminance" maskUnits="userSpaceOnUse" x="116" y="255" width="24" height="14">
<path d="M120.694 268.618C120.694 268.618 128.391 269.473 137.441 263.994C146.491 258.516 119.563 255.809 119.563 255.809C119.563 255.809 111.55 264.942 120.694 268.618Z" fill="white"/>
</mask>
<g mask="url(#mask2_517_4651)">
<path opacity="0.2" d="M129.096 248.306C126.466 252.099 124.954 256.552 124.733 261.158C124.556 262.571 124.838 264.003 125.539 265.244C126.016 265.922 126.695 266.432 127.48 266.703C128.265 266.974 129.115 266.991 129.91 266.752C127.383 268.194 124.483 268.854 121.579 268.647C121.055 267.082 120.993 265.4 121.399 263.801C122.761 258.174 125.169 252.853 128.499 248.112C128.643 248.407 128.225 248.766 127.951 248.593" fill="#263238"/>
</g>
<path d="M120.694 268.618C120.694 268.618 128.391 269.473 137.441 263.994C146.491 258.516 119.563 255.809 119.563 255.809C119.563 255.809 111.55 264.942 120.694 268.618Z" stroke="#263238" stroke-linecap="round" stroke-linejoin="round"/>
<path d="M172.894 237.658C162.094 238.764 163.102 239.46 152.28 240.53C152.935 239.283 153.786 238.149 154.8 237.17C156.672 235.296 158.976 233.817 161.129 232.058C168.854 225.754 174.319 224.382 177.977 222.487C171.554 227.312 172.98 233.077 172.894 237.658Z" fill="#52ACAC"/>
<mask id="mask3_517_4651" style="mask-type:luminance" maskUnits="userSpaceOnUse" x="152" y="222" width="26" height="19">
<path d="M172.894 237.658C162.094 238.764 163.102 239.46 152.28 240.53C152.935 239.283 153.786 238.149 154.8 237.17C156.672 235.296 158.976 233.817 161.129 232.058C168.854 225.754 174.319 224.382 177.977 222.487C171.554 227.312 172.98 233.077 172.894 237.658Z" fill="white"/>
</mask>
<g mask="url(#mask3_517_4651)">
<path opacity="0.2" d="M161.28 232.187C160.157 233.149 160.33 235.023 161.28 236.179C162.231 237.335 163.606 237.96 164.967 238.534C163.123 238.276 161.23 237.407 159.43 236.955C157.63 236.502 155.441 236.646 154.267 238.082C156.113 235.599 158.514 233.581 161.28 232.187Z" fill="#263238"/>
</g>
<path d="M172.894 237.658C162.094 238.764 163.102 239.46 152.28 240.53C152.935 239.283 153.786 238.149 154.8 237.17C156.672 235.296 158.976 233.817 161.129 232.058C168.854 225.754 174.319 224.382 177.977 222.487C171.554 227.312 172.98 233.077 172.894 237.658Z" stroke="#263238" stroke-linecap="round" stroke-linejoin="round"/>
<path d="M159.963 237.565C159.963 237.565 167.616 236.997 169.971 244.062C172.325 251.128 174.197 264.382 162.526 266.263C150.855 268.144 146.023 244.594 159.963 237.543" fill="#52ACAC"/>
<mask id="mask4_517_4651" style="mask-type:luminance" maskUnits="userSpaceOnUse" x="151" y="237" width="21" height="30">
<path d="M159.963 237.565C159.963 237.565 167.616 236.997 169.971 244.062C172.325 251.128 174.197 264.382 162.526 266.263C150.855 268.144 146.023 244.594 159.963 237.543" fill="white"/>
</mask>
<g mask="url(#mask4_517_4651)">
<path opacity="0.2" d="M159.963 237.565C159.963 237.565 167.616 236.997 169.971 244.062C172.325 251.128 174.197 264.382 162.526 266.263C150.855 268.144 146.023 244.594 159.963 237.543" fill="#263238"/>
</g>
<path d="M159.963 237.565C159.963 237.565 167.616 236.997 169.971 244.062C172.325 251.128 174.197 264.382 162.526 266.263C150.855 268.144 146.023 244.594 159.963 237.543" stroke="#263238" stroke-linecap="round" stroke-linejoin="round"/>
<path d="M285.926 257.906C285.835 258.575 285.521 259.195 285.034 259.665C284.786 259.896 284.519 260.105 284.234 260.289C283.615 260.706 282.888 261.144 282.794 261.223C282.226 263.176 280.634 266.249 276.228 270.054C274.414 271.605 272.124 277.026 271.001 279.13C269.878 281.233 269.028 283.919 266.292 283.804C264.132 283.703 260.532 281.779 258.163 279.496C227.981 269.444 209.462 273.831 192.571 255.766C192.571 255.766 187.178 257.166 178.049 259.851C159.826 265.456 140.658 267.349 121.687 265.416C97.416 263.125 105.696 265.48 116.863 242.44C117.857 240.379 149.177 240.867 191.023 235.978C198.749 235.08 202.176 239.891 202.176 239.891C221.465 250.352 241.51 262.709 256.486 268.396C257.835 268.913 259.297 269.069 260.726 268.847C262.155 268.625 263.501 268.034 264.629 267.132C267.192 265.071 269.309 262.924 271.598 261.388L272.815 259.55C273.267 258.865 273.871 258.293 274.579 257.877C274.775 257.877 274.964 257.943 275.117 258.064C275.27 258.185 275.378 258.355 275.422 258.545C275.597 258.155 275.841 257.8 276.142 257.496C276.271 257.333 276.447 257.212 276.645 257.15C276.844 257.087 277.058 257.085 277.258 257.144C277.435 257.218 277.582 257.35 277.675 257.518C277.944 257.141 278.29 256.825 278.69 256.592C278.88 256.496 279.096 256.465 279.305 256.502C279.514 256.54 279.705 256.644 279.85 256.8C279.935 256.921 279.989 257.062 280.008 257.209C280.548 256.534 281.203 255.96 281.794 256.053C281.962 256.087 282.12 256.159 282.257 256.262C282.394 256.365 282.506 256.497 282.586 256.649C282.686 256.973 282.668 257.321 282.535 257.633C283.255 256.642 284.335 255.637 285.25 256.118C285.471 256.252 285.658 256.438 285.793 256.659C285.928 256.88 286.009 257.13 286.027 257.389C286.017 257.565 285.983 257.739 285.926 257.906Z" fill="white" stroke="#263238" stroke-linecap="round" stroke-linejoin="round"/>
<path d="M282.759 261.223C282.888 261.144 283.615 260.706 284.199 260.29C283.766 260.667 283.281 260.982 282.759 261.223Z" fill="white" stroke="#263238" stroke-linecap="round" stroke-linejoin="round"/>
<path d="M285.12 256.161C284.213 255.716 283.176 256.7 282.435 257.683C282.567 257.372 282.585 257.023 282.485 256.7C282.406 256.548 282.294 256.415 282.157 256.312C282.02 256.209 281.861 256.138 281.693 256.104C281.103 256.01 280.447 256.585 279.907 257.26C279.888 257.113 279.834 256.972 279.749 256.85C279.605 256.695 279.413 256.591 279.204 256.553C278.995 256.516 278.779 256.547 278.59 256.642C278.189 256.875 277.843 257.191 277.575 257.568C277.482 257.4 277.334 257.269 277.157 257.195C276.957 257.136 276.744 257.138 276.545 257.2C276.346 257.263 276.17 257.384 276.041 257.547C275.74 257.851 275.497 258.206 275.321 258.595C275.277 258.405 275.17 258.236 275.017 258.115C274.864 257.993 274.674 257.927 274.479 257.927C274.823 257.723 275.19 257.559 275.573 257.439C277.569 256.814 279.6 256.311 281.657 255.931C283.32 255.659 284.4 255.788 285.12 256.161Z" fill="white" stroke="#263238" stroke-linecap="round" stroke-linejoin="round"/>
<path d="M285.178 256.197L285.106 256.161" stroke="#263238" stroke-linecap="round" stroke-linejoin="round"/>
<path d="M285.178 256.197C285.396 256.323 285.578 256.504 285.704 256.722C285.831 256.94 285.897 257.187 285.898 257.439C285.88 257.191 285.806 256.95 285.681 256.735C285.557 256.52 285.384 256.336 285.178 256.197Z" fill="white" stroke="#263238" stroke-linecap="round" stroke-linejoin="round"/>
<path d="M280.49 260.354C280.75 260.031 281.088 259.636 281.405 259.262C281.761 258.876 282.064 258.444 282.305 257.977C282.342 257.893 282.374 257.807 282.398 257.719" stroke="#263238" stroke-linecap="round" stroke-linejoin="round"/>
<path d="M279.893 257.259C279.908 257.466 279.891 257.675 279.843 257.877C279.843 257.877 279.418 258.552 278.201 260.253" stroke="#263238" stroke-linecap="round" stroke-linejoin="round"/>
<path d="M277.56 257.568C277.672 257.769 277.73 257.995 277.73 258.225C277.73 258.455 277.672 258.681 277.56 258.882C277.133 259.434 276.746 260.014 276.401 260.62" stroke="#263238" stroke-linecap="round" stroke-linejoin="round"/>
<path d="M275.328 258.595L275.285 258.688" stroke="#263238" stroke-linecap="round" stroke-linejoin="round"/>
<path d="M275.328 258.595C275.358 258.993 275.298 259.393 275.154 259.766C275.009 260.138 274.784 260.474 274.493 260.749" stroke="#263238" stroke-linecap="round" stroke-linejoin="round"/>
<path d="M274.486 257.927H274.479" stroke="#263238" stroke-linecap="round" stroke-linejoin="round"/>
<path d="M159.963 237.565C159.963 237.565 151.2 245.922 152.82 254.89C154.44 263.858 161.539 266.256 161.539 266.256C161.539 266.256 138.816 269.3 121.608 265.732C104.4 262.163 124.258 240.437 136.145 238.125C148.032 235.813 159.963 237.565 159.963 237.565Z" fill="#52ACAC"/>
<mask id="mask5_517_4651" style="mask-type:luminance" maskUnits="userSpaceOnUse" x="114" y="236" width="48" height="32">
<path d="M159.963 237.565C159.963 237.565 151.2 245.922 152.82 254.89C154.44 263.858 161.539 266.256 161.539 266.256C161.539 266.256 138.816 269.3 121.608 265.732C104.4 262.163 124.258 240.437 136.145 238.125C148.032 235.813 159.963 237.565 159.963 237.565Z" fill="white"/>
</mask>
<g mask="url(#mask5_517_4651)">
<path opacity="0.2" d="M129.096 248.306C126.466 252.099 124.954 256.551 124.733 261.158C124.556 262.571 124.838 264.003 125.539 265.243C126.016 265.921 126.695 266.432 127.48 266.703C128.264 266.973 129.115 266.99 129.91 266.751C127.383 268.193 124.483 268.853 121.579 268.647C121.055 267.082 120.993 265.399 121.399 263.8C122.761 258.174 125.169 252.853 128.498 248.112C128.642 248.406 128.225 248.765 127.951 248.593" fill="#263238"/>
</g>
<path d="M159.963 237.565C159.963 237.565 151.2 245.922 152.82 254.89C154.44 263.858 161.539 266.256 161.539 266.256C161.539 266.256 138.816 269.3 121.608 265.732C104.4 262.163 124.258 240.437 136.145 238.125C148.032 235.813 159.963 237.565 159.963 237.565Z" stroke="#263238" stroke-linecap="round" stroke-linejoin="round"/>
<path d="M139.205 174.288C145.807 174.402 156.161 194.657 156.161 194.657C150.977 198.786 146.376 203.438 145.735 210.03C142.337 205.391 139.543 202.85 137.138 197.594C134.734 192.338 133.33 186.558 134.064 180.864C134.395 178.301 137.038 175.709 139.205 174.288Z" fill="#52ACAC" stroke="#263238" stroke-linecap="round" stroke-linejoin="round"/>
<path d="M156.305 190.492C155.427 190.457 149.825 194.707 147.874 197.098C144.526 201.241 141.675 204.206 141.675 204.206C141.675 204.206 145.404 210.783 145.735 210.029C146.067 209.275 150.178 200.264 157.255 194.276L156.305 190.492Z" fill="#52ACAC"/>
<mask id="mask6_517_4651" style="mask-type:luminance" maskUnits="userSpaceOnUse" x="141" y="190" width="17" height="21">
<path d="M156.305 190.492C155.427 190.457 149.825 194.707 147.874 197.098C144.526 201.241 141.675 204.206 141.675 204.206C141.675 204.206 145.404 210.783 145.735 210.029C146.067 209.275 150.178 200.264 157.255 194.276L156.305 190.492Z" fill="white"/>
</mask>
<g mask="url(#mask6_517_4651)">
<path opacity="0.3" d="M156.305 190.492C155.427 190.457 149.825 194.707 147.874 197.098C144.526 201.241 141.675 204.206 141.675 204.206C141.675 204.206 145.404 210.783 145.735 210.029C146.067 209.275 150.178 200.264 157.255 194.276L156.305 190.492Z" fill="white"/>
</g>
<path d="M156.305 190.492C155.427 190.457 149.825 194.707 147.874 197.098C144.526 201.241 141.675 204.206 141.675 204.206C141.675 204.206 145.404 210.783 145.735 210.029C146.067 209.275 150.178 200.264 157.255 194.276L156.305 190.492Z" stroke="#263238" stroke-linecap="round" stroke-linejoin="round"/>
<path d="M161.129 232.086C158.969 233.845 156.672 235.324 154.8 237.198C152.114 237.486 142.762 238.591 139.298 240.271C119.354 249.979 120.694 268.618 120.694 268.618C120.694 268.618 113.717 269.444 105.264 262.235C99.8857 257.647 101.009 238.728 102.917 229.616C104.659 221.28 98.6617 207.76 95.8249 187.139C95.1049 182.02 99.6697 173.957 104.17 171.387C108.67 168.816 135.713 169.376 139.946 174.503C142.711 177.856 145.548 186.371 146.866 190.507C150.019 200.408 144.706 207.251 145.505 217.604C146.16 226.206 161.129 232.086 161.129 232.086Z" fill="#52ACAC"/>
<mask id="mask7_517_4651" style="mask-type:luminance" maskUnits="userSpaceOnUse" x="95" y="169" width="67" height="100">
<path d="M161.129 232.086C158.969 233.845 156.672 235.324 154.8 237.198C152.114 237.486 142.762 238.591 139.298 240.271C119.354 249.979 120.694 268.618 120.694 268.618C120.694 268.618 113.717 269.444 105.264 262.235C99.8857 257.647 101.009 238.728 102.917 229.616C104.659 221.28 98.6617 207.76 95.8249 187.139C95.1049 182.02 99.6697 173.957 104.17 171.387C108.67 168.816 135.713 169.376 139.946 174.503C142.711 177.856 145.548 186.371 146.866 190.507C150.019 200.408 144.706 207.251 145.505 217.604C146.16 226.206 161.129 232.086 161.129 232.086Z" fill="white"/>
</mask>
<g mask="url(#mask7_517_4651)">
<path opacity="0.2" d="M92.3688 154.65C93.6497 160.74 95.5085 166.695 97.92 172.435C98.3191 173.657 99.0492 174.745 100.03 175.579C101.074 176.297 102.744 176.348 103.471 175.292C101.729 177.295 99.8712 179.528 99.8136 182.185C99.7488 184.224 100.742 186.134 101.714 187.929C105.89 195.676 110.736 204.034 118.994 207.085C120.434 207.624 122.054 208.047 122.947 209.297C123.962 210.733 123.667 212.635 123.854 214.359C124.042 216.082 125.46 218.071 127.123 217.539C125.031 217.767 123.042 218.565 121.375 219.847C119.708 221.129 118.429 222.845 117.677 224.806C124.446 222.681 131.671 222.463 138.557 224.174C135.562 225.545 132.163 225.71 128.866 225.847C125.568 225.983 122.177 226.155 119.189 227.548C116.201 228.941 113.681 231.856 113.81 235.159C122.443 231.478 131.531 228.967 140.832 227.692C137.578 230.413 133.085 230.923 128.952 231.863C124.819 232.804 120.312 234.7 118.829 238.663C128.82 234.79 139.1 231.701 149.573 229.422C149.465 230.858 149.364 232.352 149.256 233.816C144.931 233.405 140.567 233.877 136.431 235.204C132.295 236.531 128.474 238.685 125.201 241.535C118.721 247.279 128.153 239.941 127.958 248.586C127.958 249.778 121.673 267.921 120.701 268.611C119.902 269.171 111.622 268.051 110.664 267.893C103.774 266.55 96.264 264.841 91.944 259.313C88.56 254.969 87.8976 249.16 87.4296 243.682C85.0974 216.308 84.5851 188.811 85.896 161.37C86.0112 158.972 86.184 156.438 87.5376 154.449C88.8912 152.46 91.8576 151.361 93.78 152.812C93.4776 153.271 93.168 153.724 92.8656 154.176L91.8504 153.12" fill="#263238"/>
<path opacity="0.2" d="M113.667 180.584C113.739 182.286 112.81 183.844 112.104 185.395C111.399 186.945 110.88 188.834 111.773 190.27C112.493 191.433 113.847 191.986 115.128 192.424C118.581 193.623 122.104 194.613 125.676 195.389C122.257 197.088 119.409 199.746 117.483 203.036C122.72 204.579 127.479 207.423 131.314 211.3L130.147 212.995L135.756 210.776L119.398 202.627L127.599 194.635L116.719 190.119C115.567 189.638 114.336 189.099 113.659 188.051C112.493 186.263 113.415 183.901 114.343 181.984" fill="#263238"/>
<path opacity="0.2" d="M142.366 204.852C142.959 205.247 143.453 205.773 143.809 206.39C144.165 207.006 144.373 207.697 144.418 208.407C144.546 209.074 144.406 209.765 144.029 210.331C143.741 210.603 143.402 210.816 143.031 210.957C142.66 211.097 142.265 211.163 141.869 211.149C139.826 211.314 137.77 211.186 135.763 210.769C136.973 211.013 137.75 202.217 142.366 204.852Z" fill="#263238"/>
</g>
<path d="M161.129 232.086C158.969 233.845 156.672 235.324 154.8 237.198C152.114 237.486 142.762 238.591 139.298 240.271C119.354 249.979 120.694 268.618 120.694 268.618C120.694 268.618 113.717 269.444 105.264 262.235C99.8857 257.647 101.009 238.728 102.917 229.616C104.659 221.28 98.6617 207.76 95.8249 187.139C95.1049 182.02 99.6697 173.957 104.17 171.387C108.67 168.816 135.713 169.376 139.946 174.503C142.711 177.856 145.548 186.371 146.866 190.507C150.019 200.408 144.706 207.251 145.505 217.604C146.16 226.206 161.129 232.086 161.129 232.086Z" stroke="#263238" stroke-linecap="round" stroke-linejoin="round"/>
<path d="M138.283 133.017C136.786 135.171 135.526 136.255 132.905 135.968C130.284 135.68 127.383 134.647 125.705 132.572C121.385 133.426 108.864 138.423 106.481 141.396C107.496 151.139 110.974 173.318 110.974 173.318C109.599 175.515 100.325 185.323 97.877 181.841C92.4122 143.112 93.0098 136.434 93.0458 136.154C94.169 125.909 128.11 126.95 128.11 126.95C128.11 126.95 136.275 127.23 138.283 133.017Z" fill="white" stroke="#263238" stroke-linecap="round" stroke-linejoin="round"/>
<path d="M134.388 179.701C129.348 177.159 128.491 172.664 131.508 165.046C127.476 163.89 122.566 160.48 118.822 158.584C118.901 159.798 117.324 168.048 116.079 170.46C115.416 171.745 114.934 173.605 115.495 174.941C116.446 176.868 117.633 178.67 119.031 180.304C123.48 184.878 133.243 201.492 133.243 201.492C134.921 198.046 137.823 181.438 134.388 179.701Z" fill="white" stroke="#263238" stroke-linecap="round" stroke-linejoin="round"/>
<path d="M113.242 170.69C113.45 167.739 107.69 149.028 107.302 146.091C104.674 148.303 101.196 149.602 97.9057 150.967C95.9481 151.615 93.9523 152.142 91.9297 152.546C91.9297 152.546 92.1529 158.24 92.3905 160.796C93.3121 170.848 95.8249 187.139 95.8249 187.139C95.9833 187.585 112.262 184.526 113.242 170.69Z" fill="#52ACAC"/>
<mask id="mask8_517_4651" style="mask-type:luminance" maskUnits="userSpaceOnUse" x="91" y="146" width="23" height="42">
<path d="M113.242 170.69C113.45 167.739 107.69 149.028 107.302 146.091C104.674 148.303 101.196 149.602 97.9057 150.967C95.9481 151.615 93.9523 152.142 91.9297 152.546C91.9297 152.546 92.1529 158.24 92.3905 160.796C93.3121 170.848 95.8249 187.139 95.8249 187.139C95.9833 187.585 112.262 184.526 113.242 170.69Z" fill="white"/>
</mask>
<g mask="url(#mask8_517_4651)">
<path opacity="0.2" d="M93.888 158.247C95.7648 165.767 97.6392 173.287 99.5112 180.807C99.6963 181.945 100.17 183.018 100.886 183.923C101.223 184.269 101.629 184.541 102.078 184.719C102.527 184.897 103.01 184.978 103.493 184.957C101.061 185.949 98.5487 186.732 95.9832 187.297C93.564 177.784 91.98 168.558 91.98 158.742C92.4912 158.57 93.3768 158.419 93.888 158.247Z" fill="#263238"/>
</g>
<path d="M113.242 170.69C113.45 167.739 107.69 149.028 107.302 146.091C104.674 148.303 101.196 149.602 97.9057 150.967C95.9481 151.615 93.9523 152.142 91.9297 152.546C91.9297 152.546 92.1529 158.24 92.3905 160.796C93.3121 170.848 95.8249 187.139 95.8249 187.139C95.9833 187.585 112.262 184.526 113.242 170.69Z" stroke="#263238" stroke-linecap="round" stroke-linejoin="round"/>
<path d="M118.944 162.038C118.944 162.038 120.614 169.376 124.704 171.178C128.794 172.98 132.833 168.507 132.833 168.507C132.833 168.507 125.525 170.259 118.944 162.038Z" fill="#263238"/>
<path d="M115.294 148.375C115.294 148.375 120.111 150.744 123.531 145.639C125.007 143.428 128.016 138.811 128.016 138.811C128.058 138.953 128.092 139.096 128.117 139.242C128.26 140.329 128.777 141.332 129.579 142.081C130.381 142.83 131.419 143.278 132.516 143.349C133.956 143.413 135.087 143.514 135.087 143.514C137.682 143.988 140.071 145.24 141.934 147.104C141.358 148.784 140.969 151.455 140.631 157.048C140.184 164.357 136.498 166.045 132.84 168.479C129.183 170.913 122.659 172.026 117.677 156.991C117.677 156.991 111.111 153.889 114.891 148.885L115.294 148.375Z" fill="white" stroke="#263238" stroke-linecap="round" stroke-linejoin="round"/>
<path d="M132.782 147.836C128.203 146.522 125.957 148.712 125.957 148.712" stroke="#263238" stroke-linecap="round" stroke-linejoin="round"/>
<path d="M140.4 150.464C139.932 149.901 139.351 149.441 138.696 149.112C138.04 148.783 137.324 148.593 136.591 148.554" stroke="#263238" stroke-linecap="round" stroke-linejoin="round"/>
<path d="M133.87 159.044C134.482 159.044 136.289 158.326 136.534 157.199C136.545 157.003 136.505 156.808 136.416 156.632C136.328 156.457 136.194 156.308 136.03 156.201C134.59 154.966 134.482 153.329 134.777 151.491L134.813 151.283" stroke="#263238" stroke-linecap="round" stroke-linejoin="round"/>
<path d="M129.334 149.416C128.894 149.322 128.376 150.019 128.174 150.952C127.973 151.886 128.174 152.733 128.606 152.826C129.038 152.919 129.557 152.23 129.758 151.29C129.96 150.349 129.766 149.509 129.334 149.416Z" fill="#263238"/>
<path d="M136.8 152.826C136.606 153.745 136.8 154.571 137.218 154.657C137.635 154.743 138.154 154.076 138.348 153.157C138.542 152.238 138.348 151.412 137.93 151.319C137.513 151.225 136.973 151.907 136.8 152.826Z" fill="#263238"/>
<path d="M120.154 152.216C120.154 152.216 120.874 150.579 120.298 149.631" stroke="#263238" stroke-linecap="round" stroke-linejoin="round"/>
<path d="M132.386 161.277C132.004 161.171 131.604 161.145 131.211 161.201C130.819 161.256 130.442 161.392 130.104 161.6C129.945 161.712 129.812 161.857 129.716 162.025C129.619 162.193 129.561 162.38 129.545 162.574C129.529 162.767 129.556 162.961 129.624 163.143C129.692 163.325 129.8 163.489 129.938 163.625C130.222 163.782 130.553 163.833 130.871 163.769C131.189 163.704 131.474 163.528 131.674 163.273C132.055 162.747 132.302 162.136 132.394 161.492L132.386 161.277Z" fill="#263238"/>
<path d="M114.516 171.76C114.48 178.1 114.739 181.611 112.63 188.389C112.63 188.389 123.25 194.255 126.871 194.851C123.437 196.488 119.851 200.035 117.511 203.05L118.282 203.402C123.905 205.937 135.49 210.632 135.49 210.632C133.877 199.489 126.994 187.262 118.548 179.759C116.61 177.345 115.603 174.319 115.711 171.229C115.834 169.111 114.516 171.76 114.516 171.76Z" fill="#52ACAC" stroke="#263238" stroke-linecap="round" stroke-linejoin="round"/>
<path d="M127.901 133.749C125.741 132.313 122.796 132.608 120.521 133.828C118.246 135.049 116.518 137.074 114.955 139.12C111.931 143.098 109.195 147.736 109.44 152.712C109.598 156.151 110.83 160.739 111.967 163.991C113.105 167.244 113.717 175.953 112.255 179.069C112.514 178.876 114.329 177.892 115.135 177.296C117.547 175.494 116.626 173.605 116.626 173.605C118.231 173.067 118.541 172.679 118.93 171.451C119.124 170.81 119.121 170.126 118.922 169.486C118.723 168.847 118.337 168.281 117.814 167.861C120.182 168.098 120.931 165.054 119.844 164.322L118.562 161.012C118.562 161.012 117.691 157.005 119.491 155.634C122.249 153.544 124.913 148.641 125.863 145.323C126.783 141.699 127.364 137.997 127.598 134.266L127.901 133.749Z" fill="#263238"/>
<path d="M130.478 172.054C130.47 174.307 130.985 176.531 131.983 178.552C133.702 181.553 134.714 184.904 134.942 188.353C135.196 192.711 134.574 197.075 133.114 201.191C134.107 204.414 134.964 207.516 135.72 210.805C137.851 206.521 140.362 202.436 143.222 198.599C143.222 198.599 140.155 195.145 138.283 193.996C139.723 192.359 140.659 191.512 141.66 189.595C141.66 189.595 136.418 175.989 130.478 172.054Z" fill="#52ACAC" stroke="#263238" stroke-linecap="round" stroke-linejoin="round"/>
<path d="M126.958 140.649C128.65 143.112 131.623 144.39 134.554 144.993C136.714 145.431 140.083 146.774 141.588 148.36C141.151 150.427 140.886 152.526 140.796 154.636C140.746 159.992 139.651 163.661 134.899 167.158C133.408 168.208 131.774 169.042 130.046 169.635C130.183 171.559 130.709 175.774 132.595 176.427C135.267 177.339 137.124 175.573 137.261 174.223C134.446 176.003 133.503 174.058 133.733 173.354C135.353 171.717 136.462 173.289 137.808 172.442C140.4 170.805 139.594 169.118 139.594 169.118C136.951 171.451 135.699 169.427 136.26 168.737C136.62 167.768 140.443 168.199 142.229 166.095C145.872 161.787 143.41 160.631 144.166 157.292C145.044 153.394 147.168 148.87 146.023 145.646C144.936 142.559 142.272 135.86 138.427 133.814C134.928 131.954 128.535 128.974 126.411 133.096C125.129 135.544 126.958 140.649 126.958 140.649Z" fill="#263238"/>
<path d="M120.794 168.4C120.794 168.4 122.234 174.74 124.531 176.944" stroke="#263238" stroke-linecap="round" stroke-linejoin="round"/>
<path d="M130.752 190.644C132.235 194.234 132.567 196.057 132.401 199.439" stroke="#263238" stroke-linecap="round" stroke-linejoin="round"/>
<path d="M89.6401 153.444L89.4529 158.9C89.4529 158.9 105.07 155.935 108.497 151.002L108.583 148.461L107.28 146.091C107.28 146.091 94.2481 152.044 91.9081 152.553C88.7617 153.235 89.6401 153.444 89.6401 153.444Z" fill="#52ACAC"/>
<mask id="mask9_517_4651" style="mask-type:luminance" maskUnits="userSpaceOnUse" x="89" y="146" width="20" height="13">
<path d="M89.6401 153.444L89.4529 158.9C89.4529 158.9 105.07 155.935 108.497 151.002L108.583 148.461L107.28 146.091C107.28 146.091 94.2481 152.044 91.9081 152.553C88.7617 153.235 89.6401 153.444 89.6401 153.444Z" fill="white"/>
</mask>
<g mask="url(#mask9_517_4651)">
<path opacity="0.3" d="M89.6401 153.444L89.4529 158.9C89.4529 158.9 105.07 155.935 108.497 151.002L108.583 148.461L107.28 146.091C107.28 146.091 94.2481 152.044 91.9081 152.553C88.7617 153.235 89.6401 153.444 89.6401 153.444Z" fill="white"/>
</g>
<path d="M89.6401 153.444L89.4529 158.9C89.4529 158.9 105.07 155.935 108.497 151.002L108.583 148.461L107.28 146.091C107.28 146.091 94.2481 152.044 91.9081 152.553C88.7617 153.235 89.6401 153.444 89.6401 153.444Z" stroke="#263238" stroke-linecap="round" stroke-linejoin="round"/>
<path d="M135.519 210.64C134.287 213.512 135.087 219.528 136.822 222.128C137.344 222.394 137.775 222.809 138.06 223.321C138.345 223.832 138.47 224.417 138.42 225C138.384 225.765 138.512 226.53 138.796 227.242C139.081 227.954 139.515 228.597 140.069 229.128L140.458 229.458C140.573 230.492 140.019 232.216 140.134 233.242C140.717 233.242 141.279 233.185 141.826 233.127C142.333 233.062 142.848 233.13 143.321 233.323C143.794 233.516 144.209 233.828 144.525 234.229C144.84 234.63 145.046 235.106 145.122 235.61C145.198 236.114 145.141 236.629 144.958 237.105V237.141C145.786 237.687 145.368 236.789 145.786 237.687" stroke="#263238" stroke-linecap="round" stroke-linejoin="round"/>
<path d="M113.242 246.626C123.672 238.964 135.753 233.837 148.522 231.656" stroke="#263238" stroke-linecap="round" stroke-linejoin="round"/>
<path d="M105.264 253.512C106.603 252.176 107.991 250.896 109.426 249.67" stroke="#263238" stroke-linecap="round" stroke-linejoin="round"/>
<path d="M116.51 233.077C122.54 230.8 128.827 229.269 135.23 228.518" stroke="#263238" stroke-linecap="round" stroke-linejoin="round"/>
<path d="M130.961 221.733C134.416 221.955 137.881 221.955 141.336 221.733" stroke="#263238" stroke-linecap="round" stroke-linejoin="round"/>
<path d="M125.179 221.144C126.439 221.309 127.699 221.453 128.966 221.56" stroke="#263238" stroke-linecap="round" stroke-linejoin="round"/>
<path d="M206.64 217.942C207.962 218.969 208.84 220.462 209.095 222.113" stroke="#263238" stroke-linecap="round" stroke-linejoin="round"/>
<path d="M106.56 137.224C106.56 140.194 106.801 143.16 107.28 146.091" stroke="#263238" stroke-linecap="round" stroke-linejoin="round"/>
<path d="M201.6 240.624L203.76 243.603" stroke="#263238" stroke-linecap="round" stroke-linejoin="round"/>
<path d="M117.36 177.784C119.957 178.751 122.697 179.28 125.467 179.349" stroke="#263238" stroke-linecap="round" stroke-linejoin="round"/>
<path d="M124.826 254.89C130.982 255.256 149.443 255.12 149.443 255.12" stroke="#263238" stroke-linecap="round" stroke-linejoin="round"/>
<path d="M234.662 132.184H256.01C256.774 132.184 257.507 132.486 258.047 133.025C258.587 133.563 258.89 134.294 258.89 135.056V161.428H231.782V135.048C231.784 134.288 232.089 133.559 232.629 133.022C233.168 132.485 233.9 132.184 234.662 132.184Z" fill="#52ACAC" stroke="#263238" stroke-linecap="round" stroke-linejoin="round"/>
<path d="M232.762 161.42H259.863V137.174H232.762V161.42Z" fill="white" stroke="#263238" stroke-linecap="round" stroke-linejoin="round"/>
<path d="M259.863 137.167H232.762V136.449C232.764 135.324 233.213 134.247 234.011 133.453C234.808 132.659 235.89 132.212 237.017 132.212H255.6C256.729 132.212 257.811 132.66 258.609 133.455C259.407 134.251 259.855 135.33 259.855 136.456V137.174L259.863 137.167Z" fill="#263238" stroke="#263238" stroke-linecap="round" stroke-linejoin="round"/>
<path d="M232.755 137.174H259.863C259.525 144.824 260.297 152.482 262.152 159.913H234.72C234.72 159.913 232.56 151.699 232.755 137.174Z" fill="white" stroke="#263238" stroke-linecap="round" stroke-linejoin="round"/>
<path d="M255.658 134.675C255.658 134.871 255.716 135.062 255.825 135.225C255.934 135.388 256.09 135.515 256.271 135.59C256.453 135.665 256.652 135.685 256.845 135.647C257.038 135.608 257.215 135.514 257.354 135.376C257.493 135.237 257.587 135.06 257.626 134.868C257.664 134.676 257.644 134.477 257.569 134.296C257.494 134.115 257.367 133.96 257.203 133.851C257.04 133.742 256.848 133.684 256.651 133.684C256.388 133.684 256.135 133.788 255.949 133.974C255.762 134.16 255.658 134.412 255.658 134.675Z" fill="#52ACAC" stroke="#263238" stroke-linecap="round" stroke-linejoin="round"/>
<path d="M234.878 134.675C234.877 134.873 234.934 135.066 235.044 135.231C235.153 135.396 235.308 135.525 235.491 135.602C235.674 135.679 235.875 135.7 236.07 135.662C236.265 135.624 236.444 135.53 236.584 135.39C236.725 135.251 236.821 135.073 236.86 134.879C236.899 134.686 236.88 134.485 236.805 134.302C236.729 134.119 236.601 133.963 236.436 133.853C236.271 133.743 236.077 133.684 235.879 133.684C235.748 133.683 235.618 133.708 235.497 133.757C235.375 133.807 235.265 133.88 235.172 133.972C235.079 134.064 235.005 134.173 234.955 134.294C234.904 134.415 234.878 134.544 234.878 134.675Z" fill="#52ACAC" stroke="#263238" stroke-linecap="round" stroke-linejoin="round"/>
<path d="M246.29 142.164C246.52 142.06 246.716 141.896 246.859 141.69C247.006 141.449 247.126 141.194 247.219 140.929H248.4V152.216H246.614V143.6H245.239V142.336C245.598 142.361 245.958 142.302 246.29 142.164Z" fill="#263238"/>
<path d="M246.24 155.217C245.277 155.213 244.315 155.151 243.36 155.03C241.834 154.844 239.667 154.406 238.565 152.783C237.175 150.744 238.212 148.123 238.716 147.089C239.662 145.203 241.045 143.567 242.75 142.319C244.456 141.071 246.434 140.245 248.523 139.909C249.701 139.639 250.928 139.675 252.089 140.013C253.249 140.351 254.303 140.98 255.15 141.84C255.998 142.699 256.609 143.762 256.928 144.925C257.246 146.087 257.26 147.312 256.968 148.482C256.57 149.818 255.863 151.043 254.904 152.056C253.945 153.07 252.76 153.846 251.446 154.319C249.782 154.939 248.016 155.244 246.24 155.217ZM245.981 141.352C243.116 142.498 240.772 144.652 239.393 147.405C238.939 148.324 238.011 150.651 239.184 152.374C240.127 153.759 242.064 154.147 243.504 154.319C246.097 154.742 248.755 154.513 251.237 153.652C252.446 153.224 253.537 152.517 254.421 151.588C255.304 150.66 255.955 149.537 256.32 148.31C256.584 147.26 256.573 146.161 256.289 145.117C256.006 144.073 255.458 143.119 254.699 142.346C253.94 141.573 252.994 141.007 251.953 140.702C250.912 140.398 249.811 140.364 248.753 140.606H248.652C247.791 140.788 246.98 141.155 246.276 141.683L245.981 141.352Z" fill="#52ACAC"/>
<path d="M274.81 202.39L270 223.643C269.96 223.835 269.882 224.018 269.77 224.18C269.659 224.342 269.517 224.48 269.351 224.587C269.186 224.694 269.001 224.767 268.807 224.802C268.613 224.837 268.414 224.833 268.222 224.791L240.523 218.272L238.99 217.906C238.661 217.801 238.385 217.574 238.22 217.272C238.055 216.969 238.013 216.615 238.104 216.283L242.258 197.206C242.315 196.859 242.502 196.546 242.782 196.331C243.061 196.117 243.412 196.016 243.763 196.05L273.658 200.609C273.844 200.638 274.023 200.704 274.183 200.803C274.444 200.966 274.645 201.208 274.758 201.494C274.871 201.779 274.889 202.093 274.81 202.39Z" fill="#263238" stroke="#263238" stroke-linecap="round" stroke-linejoin="round"/>
<path d="M258.761 214.208L251.662 212.671L253.188 209.807L258.574 210.898L258.761 214.208Z" fill="white"/>
<path d="M259.114 214.617L251.194 212.894L253.03 209.448L258.883 210.632L259.114 214.617ZM252.13 212.463L258.408 213.813L258.264 211.185L253.346 210.173L252.13 212.463Z" fill="white"/>
<path d="M257.458 203.538C257.346 204.089 257.023 204.574 256.558 204.891C256.092 205.207 255.521 205.33 254.967 205.233C254.703 205.183 254.452 205.08 254.23 204.931C254.008 204.781 253.818 204.588 253.673 204.362C253.528 204.137 253.431 203.885 253.387 203.621C253.344 203.357 253.354 203.087 253.419 202.828C253.527 202.28 253.844 201.796 254.304 201.477C254.763 201.159 255.328 201.03 255.881 201.119C256.149 201.165 256.404 201.266 256.631 201.415C256.858 201.564 257.051 201.758 257.199 201.985C257.347 202.212 257.446 202.468 257.491 202.735C257.536 203.002 257.524 203.276 257.458 203.538Z" stroke="#263238" stroke-linecap="round" stroke-linejoin="round"/>
<path d="M254.88 205.542C254.577 205.484 254.289 205.366 254.033 205.194C253.778 205.022 253.56 204.8 253.393 204.542C253.226 204.283 253.113 203.993 253.062 203.69C253.011 203.387 253.022 203.076 253.095 202.777C253.232 202.151 253.601 201.6 254.128 201.234C254.656 200.868 255.302 200.714 255.939 200.803C256.247 200.857 256.54 200.973 256.801 201.145C257.062 201.317 257.285 201.54 257.456 201.802C257.627 202.063 257.742 202.356 257.794 202.664C257.846 202.971 257.835 203.286 257.76 203.589C257.621 204.22 257.245 204.774 256.71 205.137C256.174 205.5 255.52 205.645 254.88 205.542ZM255.795 201.435C255.329 201.367 254.855 201.478 254.468 201.744C254.081 202.011 253.809 202.413 253.707 202.871C253.653 203.091 253.645 203.32 253.682 203.543C253.72 203.766 253.803 203.979 253.927 204.17C254.05 204.36 254.211 204.523 254.4 204.649C254.588 204.775 254.801 204.861 255.024 204.903C255.492 204.976 255.97 204.868 256.361 204.601C256.752 204.334 257.026 203.928 257.127 203.467C257.18 203.247 257.188 203.018 257.151 202.795C257.113 202.571 257.03 202.358 256.906 202.168C256.783 201.978 256.622 201.815 256.433 201.689C256.245 201.563 256.032 201.476 255.809 201.435H255.795Z" fill="white"/>
<path d="M261.634 204.271C261.504 204.83 261.165 205.319 260.685 205.636C260.206 205.954 259.623 206.077 259.056 205.98C258.786 205.931 258.53 205.829 258.301 205.678C258.073 205.527 257.878 205.332 257.728 205.103C257.579 204.874 257.477 204.618 257.431 204.349C257.384 204.08 257.393 203.804 257.458 203.538C257.585 202.983 257.919 202.496 258.392 202.175C258.864 201.854 259.441 201.723 260.006 201.808C260.28 201.853 260.542 201.955 260.775 202.106C261.007 202.257 261.206 202.454 261.359 202.685C261.512 202.916 261.615 203.176 261.662 203.449C261.71 203.722 261.7 204.002 261.634 204.271Z" stroke="#263238" stroke-linecap="round" stroke-linejoin="round"/>
<path d="M258.984 206.303C258.674 206.245 258.378 206.126 258.116 205.951C257.853 205.776 257.629 205.55 257.457 205.286C257.284 205.022 257.167 204.726 257.113 204.416C257.059 204.106 257.068 203.788 257.141 203.481C257.289 202.841 257.674 202.281 258.218 201.911C258.763 201.541 259.427 201.389 260.078 201.485C260.398 201.537 260.703 201.655 260.975 201.83C261.247 202.006 261.479 202.237 261.656 202.507C261.833 202.777 261.953 203.081 262.006 203.4C262.059 203.718 262.045 204.044 261.965 204.357C261.805 204.997 261.41 205.552 260.857 205.913C260.304 206.274 259.635 206.413 258.984 206.303ZM259.927 202.131C259.452 202.057 258.966 202.163 258.566 202.429C258.166 202.695 257.881 203.101 257.767 203.567C257.714 203.793 257.706 204.026 257.746 204.255C257.786 204.483 257.871 204.7 257.998 204.894C258.125 205.088 258.289 205.255 258.482 205.383C258.675 205.512 258.893 205.6 259.121 205.643C259.596 205.717 260.082 205.611 260.482 205.345C260.882 205.079 261.167 204.673 261.281 204.207C261.336 203.981 261.343 203.746 261.304 203.517C261.264 203.288 261.178 203.07 261.05 202.876C260.923 202.681 260.757 202.515 260.562 202.387C260.368 202.259 260.149 202.172 259.92 202.131H259.927Z" fill="white"/>
<path d="M262.08 208.644C261.743 210.132 260.836 211.43 259.553 212.261C258.269 213.091 256.711 213.388 255.211 213.088C254.504 212.934 253.836 212.641 253.243 212.227C252.651 211.813 252.147 211.286 251.76 210.676C251.374 210.066 251.113 209.386 250.992 208.675C250.871 207.964 250.893 207.236 251.057 206.533C251.375 205.073 252.24 203.789 253.475 202.943C254.709 202.097 256.222 201.753 257.702 201.981C258.441 202.106 259.147 202.382 259.774 202.792C260.401 203.201 260.937 203.735 261.348 204.36C261.759 204.986 262.036 205.689 262.162 206.426C262.288 207.163 262.26 207.918 262.08 208.644Z" stroke="#263238" stroke-linecap="round" stroke-linejoin="round"/>
<path d="M255.168 213.397C254.422 213.234 253.716 212.925 253.091 212.488C252.466 212.051 251.934 211.494 251.527 210.85C251.119 210.206 250.845 209.487 250.718 208.736C250.592 207.985 250.616 207.217 250.791 206.475C251.126 204.934 252.038 203.578 253.341 202.684C254.644 201.791 256.24 201.426 257.803 201.665C258.585 201.797 259.331 202.088 259.994 202.521C260.658 202.954 261.224 203.518 261.659 204.179C262.094 204.84 262.387 205.584 262.52 206.363C262.653 207.143 262.623 207.941 262.433 208.708C262.076 210.281 261.116 211.652 259.758 212.528C258.401 213.404 256.753 213.716 255.168 213.397Z" fill="#263238" stroke="white" stroke-linecap="round" stroke-linejoin="round"/>
<path d="M257.378 203.23L256.795 203.122L255.974 207.387L253.426 209.175L253.771 209.72L256.5 207.811L257.378 203.23Z" fill="white"/>
<path d="M276.343 202.749L271.541 224.016C271.501 224.211 271.422 224.396 271.309 224.56C271.197 224.724 271.052 224.864 270.885 224.972C270.717 225.079 270.529 225.152 270.333 225.187C270.137 225.221 269.935 225.216 269.741 225.172L268.229 224.813C268.421 224.855 268.62 224.859 268.814 224.824C269.008 224.789 269.193 224.716 269.358 224.609C269.524 224.502 269.666 224.363 269.778 224.201C269.889 224.039 269.967 223.857 270.007 223.664L274.81 202.411C274.884 202.118 274.863 201.809 274.751 201.528C274.638 201.246 274.44 201.008 274.183 200.846L275.184 201.011C275.377 201.044 275.561 201.116 275.725 201.223C275.89 201.33 276.03 201.468 276.139 201.631C276.247 201.794 276.321 201.977 276.357 202.169C276.392 202.361 276.387 202.559 276.343 202.749Z" fill="white" stroke="#263238" stroke-linecap="round" stroke-linejoin="round"/>
<path d="M274.248 212.025L280.31 222.523L272.304 220.627L274.248 212.025Z" fill="#263238"/>
<path d="M269.899 214.545C270.424 214.545 270.85 214.121 270.85 213.598C270.85 213.074 270.424 212.65 269.899 212.65C269.374 212.65 268.949 213.074 268.949 213.598C268.949 214.121 269.374 214.545 269.899 214.545Z" fill="white"/>
<path d="M247.838 214.294L260.827 217.087" stroke="white" stroke-linecap="round" stroke-linejoin="round"/>
<path d="M247.392 216.312L258.408 218.832" stroke="white" stroke-linecap="round" stroke-linejoin="round"/>
<path d="M315.958 204.824C315.238 206.023 313.423 206.26 311.854 205.348C310.284 204.436 309.557 202.734 310.248 201.542C310.939 200.351 312.782 200.106 314.352 201.018C315.922 201.93 316.649 203.632 315.958 204.824Z" fill="white" stroke="#263238" stroke-linecap="round" stroke-linejoin="round"/>
<path d="M313.553 221.273L314.381 223.24H313.553L311.825 221.977L313.553 221.273Z" fill="white" stroke="#263238" stroke-linecap="round" stroke-linejoin="round"/>
<path d="M305.431 222.386C310.819 222.386 315.187 218.03 315.187 212.657C315.187 207.284 310.819 202.928 305.431 202.928C300.043 202.928 295.675 207.284 295.675 212.657C295.675 218.03 300.043 222.386 305.431 222.386Z" fill="#263238" stroke="#263238" stroke-linecap="round" stroke-linejoin="round"/>
<path d="M318.888 213.512C318.886 216.091 317.857 218.563 316.028 220.386C314.199 222.209 311.718 223.233 309.132 223.233C307.851 223.234 306.583 222.984 305.399 222.495C304.215 222.007 303.14 221.291 302.234 220.389C301.328 219.486 300.609 218.414 300.119 217.234C299.628 216.054 299.376 214.789 299.376 213.512C299.376 210.931 300.404 208.457 302.233 206.632C304.063 204.808 306.545 203.783 309.132 203.783C309.438 203.781 309.743 203.798 310.046 203.833C312.465 204.057 314.712 205.173 316.348 206.964C317.983 208.754 318.889 211.09 318.888 213.512Z" fill="white" stroke="#263238" stroke-linecap="round" stroke-linejoin="round"/>
<path d="M315.094 207.287C316.117 208.64 316.76 210.242 316.957 211.925C317.155 213.609 316.899 215.315 316.217 216.868C315.534 218.42 314.45 219.764 313.074 220.76C311.699 221.757 310.082 222.37 308.39 222.537C308.39 222.537 305.51 223.004 302.263 220.383" stroke="#263238" stroke-linecap="round" stroke-linejoin="round"/>
<path d="M299.29 204.766C300.103 206.166 302.263 206.446 304.121 205.377C305.979 204.307 306.821 202.304 306.007 200.896C305.194 199.489 303.026 199.216 301.176 200.286C299.326 201.356 298.476 203.359 299.29 204.766Z" fill="white" stroke="#263238" stroke-linecap="round" stroke-linejoin="round"/>
<path d="M308.232 213.871C308.582 213.871 308.866 213.588 308.866 213.239C308.866 212.89 308.582 212.607 308.232 212.607C307.882 212.607 307.598 212.89 307.598 213.239C307.598 213.588 307.882 213.871 308.232 213.871Z" fill="#263238"/>
<path d="M308.254 217.461L308.232 213.239L311.695 207.595" stroke="#263238" stroke-linecap="round" stroke-linejoin="round"/>
<path d="M300.917 221.273L300.089 223.24H300.917L302.645 221.977L300.917 221.273Z" fill="white" stroke="#263238" stroke-linecap="round" stroke-linejoin="round"/>
<path d="M312.192 204.256L312.711 203.402L313.229 203.782L312.833 204.464L312.192 204.256Z" fill="white" stroke="#263238" stroke-linecap="round" stroke-linejoin="round"/>
<path d="M302.364 202.828C302.527 202.828 302.659 202.696 302.659 202.533C302.659 202.371 302.527 202.239 302.364 202.239C302.201 202.239 302.069 202.371 302.069 202.533C302.069 202.696 302.201 202.828 302.364 202.828Z" fill="white" stroke="#263238" stroke-linecap="round" stroke-linejoin="round"/>
<path d="M162.727 102.315L67.9248 102.925V109.473L162.943 108.576L162.727 102.315Z" stroke="#263238" stroke-linecap="round" stroke-linejoin="round"/>
<path d="M52.2 100.922L67.9247 102.926V109.474L52.2 107.471V100.922Z" stroke="#263238" stroke-linecap="round" stroke-linejoin="round"/>
<path d="M146.995 100.312L162.727 102.315L67.9247 102.926L52.2 100.922L146.995 100.312Z" fill="#263238" stroke="#263238" stroke-linecap="round" stroke-linejoin="round"/>
<path d="M87.4583 101.403H75.9383L74.6567 98.9979C71.5538 93.1516 69.8811 86.6565 69.7751 80.0427V79.4683H93.5999C93.5993 86.547 91.801 93.5102 88.3727 99.7087L87.4583 101.403Z" fill="white" stroke="#263238" stroke-linecap="round" stroke-linejoin="round"/>
<path d="M62.64 79.9425C64.7645 81.3739 67.2762 82.1253 69.84 82.0965C70.1449 82.1119 70.4489 82.0528 70.7256 81.9242C70.8711 81.8465 70.9925 81.7304 71.0763 81.5885C71.1601 81.4467 71.2032 81.2846 71.2008 81.12C71.1662 80.9356 71.0916 80.761 70.9821 80.6084C70.8727 80.4559 70.731 80.329 70.5672 80.2369C68.9718 79.0498 67.2139 78.0971 65.3472 77.4079C64.4232 77.0654 63.475 76.7918 62.5104 76.5894C61.7357 76.3335 60.9374 76.1555 60.1272 76.0581C59.94 77.7598 61.4736 79.1814 62.64 79.9425Z" fill="#52ACAC"/>
<path d="M93.2688 70.2854C93.7784 69.6172 94.4167 69.0571 95.1461 68.6379C95.8755 68.2187 96.6815 67.9489 97.5168 67.8442C97.5634 67.834 97.6117 67.8332 97.6586 67.8419C97.7056 67.8505 97.7504 67.8684 97.7904 67.8944C97.8383 67.946 97.8742 68.0075 97.8954 68.0745C97.9165 68.1416 97.9225 68.2125 97.9128 68.2821C97.9624 70.4287 97.3215 72.5348 96.084 74.2918C95.5811 75.0759 94.8537 75.6912 93.996 76.0581C93.6867 76.175 93.3561 76.2252 93.026 76.2054C92.6959 76.1856 92.3737 76.0962 92.0808 75.9432C91.5048 75.6129 91.6056 75.139 91.6704 74.5072C91.7862 72.9762 92.341 71.5107 93.2688 70.2854Z" fill="#52ACAC"/>
<path opacity="0.2" d="M93.2688 70.2854C93.7784 69.6172 94.4167 69.0571 95.1461 68.6379C95.8755 68.2187 96.6815 67.9489 97.5168 67.8442C97.5634 67.834 97.6117 67.8332 97.6586 67.8419C97.7056 67.8505 97.7504 67.8684 97.7904 67.8944C97.8383 67.946 97.8742 68.0075 97.8954 68.0745C97.9165 68.1416 97.9225 68.2125 97.9128 68.2821C97.9624 70.4287 97.3215 72.5348 96.084 74.2918C95.5811 75.0759 94.8537 75.6912 93.996 76.0581C93.6867 76.175 93.3561 76.2252 93.026 76.2054C92.6959 76.1856 92.3737 76.0962 92.0808 75.9432C91.5048 75.6129 91.6056 75.139 91.6704 74.5072C91.7862 72.9762 92.341 71.5107 93.2688 70.2854Z" fill="black"/>
<path d="M82.8648 72.2525C83.7349 71.2507 84.2421 69.9863 84.3048 68.6625C84.2967 67.5551 83.9935 66.4698 83.4264 65.5177C82.8714 64.6106 82.2326 63.7573 81.5184 62.9688C81.2952 65.3888 81.2303 67.8208 81.324 70.2493C81.3122 70.7645 81.4027 71.2769 81.5904 71.7571C81.6688 71.9856 81.8225 72.181 82.0264 72.3114C82.2304 72.4417 82.4726 72.4994 82.7136 72.4751L82.8648 72.2525Z" fill="#52ACAC"/>
<path d="M85.9535 64.8569C84.3994 66.4899 83.4847 68.625 83.3759 70.8738C83.2995 71.677 83.4258 72.4866 83.7431 73.2288C83.8845 73.5742 84.1256 73.8699 84.4358 74.0782C84.7461 74.2866 85.1115 74.3983 85.4855 74.3992C85.8629 74.3018 86.214 74.1226 86.514 73.8744C86.8139 73.6262 87.0552 73.3151 87.2207 72.9632C87.9407 71.8 88.7615 70.1486 88.3655 68.7198C87.9741 67.2175 87.1327 65.87 85.9535 64.8569Z" fill="#52ACAC"/>
<path opacity="0.1" d="M85.9535 64.8569C84.3994 66.4899 83.4847 68.625 83.3759 70.8738C83.2995 71.677 83.4258 72.4866 83.7431 73.2288C83.8845 73.5742 84.1256 73.8699 84.4358 74.0782C84.7461 74.2866 85.1115 74.3983 85.4855 74.3992C85.8629 74.3018 86.214 74.1226 86.514 73.8744C86.8139 73.6262 87.0552 73.3151 87.2207 72.9632C87.9407 71.8 88.7615 70.1486 88.3655 68.7198C87.9741 67.2175 87.1327 65.87 85.9535 64.8569Z" fill="black"/>
<path d="M90.5185 72.8844C91.7425 71.7428 92.2465 69.8329 92.1889 68.0379C92.057 66.257 91.679 64.5029 91.0657 62.8252C89.852 64.4941 88.8823 66.3266 88.1857 68.2676C87.8854 69.0196 87.708 69.8147 87.6601 70.6227C87.6023 71.423 87.8607 72.2141 88.3801 72.8269C88.6245 73.1018 88.9632 73.2756 89.3296 73.3141C89.6959 73.3526 90.0635 73.2531 90.3601 73.0352L90.1585 73.1572L90.5185 72.8844Z" fill="#52ACAC"/>
<g opacity="0.2">
<path d="M90.5185 72.8844C91.7425 71.7428 92.2465 69.8329 92.1889 68.0379C92.057 66.257 91.679 64.5029 91.0657 62.8252C89.852 64.4941 88.8823 66.3266 88.1857 68.2676C87.8854 69.0196 87.708 69.8147 87.6601 70.6227C87.6023 71.423 87.8607 72.2141 88.3801 72.8269C88.6245 73.1018 88.9632 73.2756 89.3296 73.3141C89.6959 73.3526 90.0635 73.2531 90.3601 73.0352L90.1585 73.1572L90.5185 72.8844Z" fill="black"/>
</g>
<path d="M93.3192 65.8409C93.7334 68.0472 93.8111 70.3032 93.5496 72.5327C93.168 74.7369 91.98 76.8981 90.1224 77.6807C89.7512 77.8809 89.3231 77.9501 88.9074 77.8771C88.4918 77.8041 88.1131 77.5932 87.8328 77.2787C87.6688 77.0129 87.5634 76.7154 87.5237 76.4059C87.484 76.0964 87.5108 75.782 87.6024 75.4837C87.7863 74.8994 88.0556 74.3453 88.4016 73.8394C89.8848 71.4341 92.9808 65.5968 93.2976 65.8409H93.3192Z" fill="#52ACAC"/>
<path d="M93.3192 65.8409C93.7334 68.0472 93.8111 70.3032 93.5496 72.5327C93.168 74.7369 91.98 76.8981 90.1224 77.6807C89.7512 77.8809 89.3231 77.9501 88.9074 77.8771C88.4918 77.8041 88.1131 77.5932 87.8328 77.2787C87.6688 77.0129 87.5634 76.7154 87.5237 76.4059C87.484 76.0964 87.5108 75.782 87.6024 75.4837C87.7863 74.8994 88.0556 74.3453 88.4016 73.8394C89.8848 71.4341 92.9808 65.5968 93.2976 65.8409H93.3192Z" fill="#52ACAC"/>
<g opacity="0.1">
<path d="M93.3192 65.8409C93.7334 68.0472 93.8111 70.3032 93.5496 72.5327C93.168 74.7369 91.98 76.8981 90.1224 77.6807C89.7512 77.8809 89.3231 77.9501 88.9074 77.8771C88.4918 77.8041 88.1131 77.5932 87.8328 77.2787C87.6688 77.0129 87.5634 76.7154 87.5237 76.4059C87.484 76.0964 87.5108 75.782 87.6024 75.4837C87.7863 74.8994 88.0556 74.3453 88.4016 73.8394C89.8848 71.4341 92.9808 65.5968 93.2976 65.8409H93.3192Z" fill="black"/>
</g>
<path d="M87.5663 68.835C88.3365 70.1551 88.8723 71.5979 89.1503 73.0999C89.437 74.6253 89.2381 76.2019 88.5815 77.6089C88.2868 78.2615 87.8221 78.8235 87.2359 79.2364C86.6496 79.6493 85.9632 79.898 85.2479 79.9568C84.6975 79.9428 84.1605 79.784 83.6915 79.4965C83.2224 79.2091 82.8378 78.8031 82.5767 78.3197C81.9431 77.2068 82.4039 76.1657 82.8863 75.1103C83.9879 72.6404 85.8023 70.7018 87.5663 68.835Z" fill="#52ACAC"/>
<path d="M101.225 72.9419C101.401 73.2709 101.501 73.6345 101.52 74.0069C101.539 74.3792 101.475 74.751 101.333 75.0959C101.058 75.761 100.651 76.3641 100.138 76.8694C98.5822 78.571 96.6484 79.8854 94.4915 80.7071C92.3346 81.5288 90.0146 81.8349 87.7177 81.601C87.5244 81.6053 87.333 81.5616 87.1608 81.4739C86.9886 81.3862 86.841 81.2571 86.7313 81.0984C86.6449 80.887 86.6276 80.6538 86.6819 80.4321C86.7362 80.2103 86.8593 80.0113 87.0337 79.8634C87.3753 79.6118 87.7731 79.4467 88.1929 79.3824C90.5157 78.8022 92.712 77.802 94.6729 76.4314C96.6889 75.0528 99.0793 74.0907 101.225 72.9419Z" fill="#52ACAC"/>
<path opacity="0.1" d="M101.225 72.9419C101.401 73.2709 101.501 73.6345 101.52 74.0069C101.539 74.3792 101.475 74.751 101.333 75.0959C101.058 75.761 100.651 76.3641 100.138 76.8694C98.5822 78.571 96.6484 79.8854 94.4915 80.7071C92.3346 81.5288 90.0146 81.8349 87.7177 81.601C87.5244 81.6053 87.333 81.5616 87.1608 81.4739C86.9886 81.3862 86.841 81.2571 86.7313 81.0984C86.6449 80.887 86.6276 80.6538 86.6819 80.4321C86.7362 80.2103 86.8593 80.0113 87.0337 79.8634C87.3753 79.6118 87.7731 79.4467 88.1929 79.3824C90.5157 78.8022 92.712 77.802 94.6729 76.4314C96.6889 75.0528 99.0793 74.0907 101.225 72.9419Z" fill="black"/>
<path d="M93.2975 72.9347C93.6359 72.4393 94.0175 71.8721 94.5935 71.9367C95.0183 71.9798 95.3135 72.4106 95.5007 72.8486C96.2207 74.622 95.3639 76.7976 94.0031 77.9966C92.6423 79.1957 90.9071 79.6552 89.2223 80.0788L87.4943 80.5096C86.7743 80.6819 85.4351 80.4522 86.0543 79.368C86.4647 78.65 87.8399 78.2336 88.4735 77.8028C90.381 76.5051 92.019 74.8522 93.2975 72.9347Z" fill="#52ACAC"/>
<path d="M100.433 79.9425C98.3082 81.3739 95.7965 82.1253 93.2327 82.0965C92.9279 82.1119 92.6238 82.0528 92.3471 81.9242C92.2016 81.8465 92.0803 81.7304 91.9964 81.5886C91.9126 81.4467 91.8696 81.2846 91.8719 81.12C91.9065 80.9356 91.9811 80.761 92.0906 80.6085C92.2001 80.4559 92.3417 80.3291 92.5055 80.2369C94.1009 79.0498 95.8588 78.0971 97.7255 77.408C98.6495 77.0654 99.5977 76.7918 100.562 76.5895C101.343 76.3497 102.147 76.1885 102.96 76.1084C103.104 77.7598 101.57 79.1814 100.433 79.9425Z" fill="#52ACAC"/>
<path d="M93.4632 86.5907C95.6352 86.3615 97.69 85.4943 99.3672 84.0993C99.7056 83.8408 100.087 83.4172 99.9217 82.9936C99.8563 82.8599 99.7603 82.7435 99.6415 82.6537C99.5227 82.5639 99.3843 82.5032 99.2377 82.4766C97.2289 81.8017 95.1768 81.1268 93.0888 81.2201C92.0887 81.2533 91.107 81.498 90.2089 81.9381C89.4889 82.2899 88.0489 83.1659 87.8401 84.0921C87.6313 85.0183 89.4529 85.7866 90.1297 86.0522C91.1883 86.4715 92.326 86.6553 93.4632 86.5907Z" fill="#52ACAC"/>
<path opacity="0.1" d="M93.4632 86.5907C95.6352 86.3615 97.69 85.4943 99.3672 84.0993C99.7056 83.8408 100.087 83.4172 99.9217 82.9936C99.8563 82.8599 99.7603 82.7435 99.6415 82.6537C99.5227 82.5639 99.3843 82.5032 99.2377 82.4766C97.2289 81.8017 95.1768 81.1268 93.0888 81.2201C92.0887 81.2533 91.107 81.498 90.2089 81.9381C89.4889 82.2899 88.0489 83.1659 87.8401 84.0921C87.6313 85.0183 89.4529 85.7866 90.1297 86.0522C91.1883 86.4715 92.326 86.6553 93.4632 86.5907Z" fill="black"/>
<path d="M85.0896 81.3497C87.1505 80.8828 89.276 80.7687 91.3752 81.0122C91.9049 81.043 92.4212 81.1901 92.8872 81.443C93.1316 81.5897 93.337 81.7928 93.4861 82.0352C93.6352 82.2777 93.7237 82.5523 93.744 82.836C93.7335 83.1188 93.6579 83.3954 93.5231 83.6444C93.3882 83.8934 93.1978 84.1081 92.9664 84.272C92.5154 84.5645 92.0117 84.7669 91.4832 84.8679C90.0026 85.3598 88.439 85.555 86.8824 85.4423C86.2583 85.3779 85.6533 85.1898 85.1031 84.8889C84.5528 84.5881 84.0685 84.1806 83.6784 83.6904C82.728 82.3693 83.9808 81.6082 85.0896 81.3497Z" fill="#52ACAC"/>
<path opacity="0.1" d="M85.0896 81.3497C87.1505 80.8828 89.276 80.7687 91.3752 81.0122C91.9049 81.043 92.4212 81.1901 92.8872 81.443C93.1316 81.5897 93.337 81.7928 93.4861 82.0352C93.6352 82.2777 93.7237 82.5523 93.744 82.836C93.7335 83.1188 93.6579 83.3954 93.5231 83.6444C93.3882 83.8934 93.1978 84.1081 92.9664 84.272C92.5154 84.5645 92.0117 84.7669 91.4832 84.8679C90.0026 85.3598 88.439 85.555 86.8824 85.4423C86.2583 85.3779 85.6533 85.1898 85.1031 84.8889C84.5528 84.5881 84.0685 84.1806 83.6784 83.6904C82.728 82.3693 83.9808 81.6082 85.0896 81.3497Z" fill="white"/>
<path d="M78.7968 81.3354C78.3654 81.0451 78.0099 80.6561 77.76 80.2009C77.6365 79.962 77.5807 79.6941 77.5984 79.4259C77.6162 79.1577 77.7069 78.8994 77.8608 78.6788C78.336 78.1187 81 77.3217 81.6696 77.1638C82.2454 77.0967 82.8272 77.2204 83.3256 77.5156C84.0888 77.8674 84.8376 78.2336 85.5792 78.6572C85.9642 78.8307 86.3133 79.0742 86.6088 79.3752C86.7603 79.5466 86.8708 79.75 86.9319 79.9701C86.993 80.1903 87.0032 80.4214 86.9616 80.6461C86.8672 80.9385 86.7002 81.2024 86.4761 81.4133C86.2521 81.6242 85.9782 81.7752 85.68 81.8523C84.2653 82.3685 82.7651 82.6122 81.2592 82.5703C80.4162 82.2042 79.5942 81.792 78.7968 81.3354Z" fill="#52ACAC"/>
<g opacity="0.1">
<path d="M78.7968 81.3354C78.3654 81.0451 78.0099 80.6561 77.76 80.2009C77.6365 79.962 77.5807 79.6941 77.5984 79.4259C77.6162 79.1577 77.7069 78.8994 77.8608 78.6788C78.336 78.1187 81 77.3217 81.6696 77.1638C82.2454 77.0967 82.8272 77.2204 83.3256 77.5156C84.0888 77.8674 84.8376 78.2336 85.5792 78.6572C85.9642 78.8307 86.3133 79.0742 86.6088 79.3752C86.7603 79.5466 86.8708 79.75 86.9319 79.9701C86.993 80.1903 87.0032 80.4214 86.9616 80.6461C86.8672 80.9385 86.7002 81.2024 86.4761 81.4133C86.2521 81.6242 85.9782 81.7752 85.68 81.8523C84.2653 82.3685 82.7651 82.6122 81.2592 82.5703C80.4162 82.2042 79.5942 81.792 78.7968 81.3354Z" fill="black"/>
</g>
<path d="M84.24 82.3763C84.5835 82.4749 84.9023 82.6449 85.1753 82.875C85.4483 83.1052 85.6694 83.3904 85.824 83.7118C85.9857 84.0527 86.0426 84.4337 85.9875 84.8068C85.9324 85.1799 85.7678 85.5284 85.5144 85.8083C85.1116 86.1096 84.621 86.271 84.1176 86.2679L82.3032 86.4474C82.1129 86.4916 81.9157 86.4978 81.7229 86.4658C81.5302 86.4338 81.3457 86.364 81.18 86.2607C80.995 86.0382 80.859 85.7794 80.7809 85.501C80.7027 85.2227 80.6842 84.9311 80.7264 84.6452C80.6947 84.0848 80.763 83.5232 80.928 82.9866C80.9952 82.6998 81.1679 82.4485 81.4118 82.2823C81.6557 82.1162 81.9532 82.0472 82.2456 82.0891C82.9163 82.1385 83.5827 82.2345 84.24 82.3763Z" fill="#52ACAC"/>
<path d="M69.7752 70.2854C69.2656 69.6172 68.6274 69.0571 67.8979 68.6379C67.1685 68.2187 66.3625 67.9489 65.5272 67.8442C65.4806 67.834 65.4324 67.8332 65.3854 67.8419C65.3384 67.8505 65.2936 67.8684 65.2536 67.8944C65.2057 67.946 65.1698 68.0075 65.1486 68.0745C65.1275 68.1416 65.1215 68.2125 65.1312 68.2821C65.0816 70.4287 65.7225 72.5348 66.96 74.2918C67.4629 75.0759 68.1903 75.6912 69.048 76.0581C69.3573 76.175 69.6879 76.2252 70.018 76.2054C70.3481 76.1856 70.6703 76.0962 70.9632 75.9432C71.5392 75.6129 71.4384 75.139 71.3736 74.5072C71.2578 72.9762 70.703 71.5107 69.7752 70.2854Z" fill="#52ACAC"/>
<path opacity="0.2" d="M69.7752 70.2854C69.2656 69.6172 68.6274 69.0571 67.8979 68.6379C67.1685 68.2187 66.3625 67.9489 65.5272 67.8442C65.4806 67.834 65.4324 67.8332 65.3854 67.8419C65.3384 67.8505 65.2936 67.8684 65.2536 67.8944C65.2057 67.946 65.1698 68.0075 65.1486 68.0745C65.1275 68.1416 65.1215 68.2125 65.1312 68.2821C65.0816 70.4287 65.7225 72.5348 66.96 74.2918C67.4629 75.0759 68.1903 75.6912 69.048 76.0581C69.3573 76.175 69.6879 76.2252 70.018 76.2054C70.3481 76.1856 70.6703 76.0962 70.9632 75.9432C71.5392 75.6129 71.4384 75.139 71.3736 74.5072C71.2578 72.9762 70.703 71.5107 69.7752 70.2854Z" fill="black"/>
<path d="M80.1793 72.2525C79.3091 71.2507 78.802 69.9863 78.7393 68.6625C78.7473 67.5551 79.0505 66.4698 79.6177 65.5177C80.1727 64.6106 80.8114 63.7573 81.5257 62.9688C81.7488 65.3888 81.8137 67.8208 81.7201 70.2493C81.7319 70.7645 81.6413 71.2769 81.4537 71.7571C81.3752 71.9856 81.2215 72.181 81.0176 72.3114C80.8136 72.4417 80.5715 72.4994 80.3305 72.4751L80.1793 72.2525Z" fill="#52ACAC"/>
<path d="M77.0904 64.8569C78.6446 66.4899 79.5592 68.625 79.668 70.8738C79.7444 71.677 79.6182 72.4866 79.3008 73.2288C79.1595 73.5742 78.9184 73.8699 78.6081 74.0782C78.2979 74.2866 77.9325 74.3983 77.5584 74.3992C77.1811 74.3018 76.83 74.1226 76.53 73.8744C76.2301 73.6262 75.9888 73.3151 75.8232 72.9632C75.1032 71.8 74.2824 70.1486 74.6784 68.7198C75.0699 67.2175 75.9113 65.87 77.0904 64.8569Z" fill="#52ACAC"/>
<path opacity="0.1" d="M77.0904 64.8569C78.6446 66.4899 79.5592 68.625 79.668 70.8738C79.7444 71.677 79.6182 72.4866 79.3008 73.2288C79.1595 73.5742 78.9184 73.8699 78.6081 74.0782C78.2979 74.2866 77.9325 74.3983 77.5584 74.3992C77.1811 74.3018 76.83 74.1226 76.53 73.8744C76.2301 73.6262 75.9888 73.3151 75.8232 72.9632C75.1032 71.8 74.2824 70.1486 74.6784 68.7198C75.0699 67.2175 75.9113 65.87 77.0904 64.8569Z" fill="black"/>
<path d="M72.5256 72.8844C71.3016 71.7428 70.7976 69.8329 70.8552 68.0379C70.9941 66.256 71.3793 64.5018 72 62.8252C73.2137 64.4941 74.1834 66.3266 74.88 68.2676C75.1803 69.0196 75.3577 69.8147 75.4056 70.6227C75.4634 71.423 75.205 72.2141 74.6856 72.8269C74.4412 73.1018 74.1025 73.2756 73.7361 73.3141C73.3698 73.3526 73.0022 73.2531 72.7056 73.0352L72.9072 73.1572L72.5256 72.8844Z" fill="#52ACAC"/>
<g opacity="0.2">
<path d="M72.5256 72.8844C71.3016 71.7428 70.7976 69.8329 70.8552 68.0379C70.9941 66.256 71.3793 64.5018 72 62.8252C73.2137 64.4941 74.1834 66.3266 74.88 68.2676C75.1803 69.0196 75.3577 69.8147 75.4056 70.6227C75.4634 71.423 75.205 72.2141 74.6856 72.8269C74.4412 73.1018 74.1025 73.2756 73.7361 73.3141C73.3698 73.3526 73.0022 73.2531 72.7056 73.0352L72.9072 73.1572L72.5256 72.8844Z" fill="black"/>
</g>
<path d="M69.7247 65.8409C69.3106 68.0472 69.2329 70.3032 69.4943 72.5327C69.8759 74.7369 71.0639 76.8981 72.9215 77.6807C73.2928 77.8809 73.7209 77.9501 74.1365 77.8771C74.5521 77.8041 74.9308 77.5932 75.2111 77.2787C75.3752 77.0129 75.4805 76.7154 75.5203 76.4059C75.56 76.0964 75.5332 75.782 75.4415 75.4837C75.2577 74.8994 74.9884 74.3453 74.6423 73.8394C73.1591 71.4341 70.0631 65.5968 69.7463 65.8409H69.7247Z" fill="#52ACAC"/>
<path d="M69.7247 65.8409C69.3106 68.0472 69.2329 70.3032 69.4943 72.5327C69.8759 74.7369 71.0639 76.8981 72.9215 77.6807C73.2928 77.8809 73.7209 77.9501 74.1365 77.8771C74.5521 77.8041 74.9308 77.5932 75.2111 77.2787C75.3752 77.0129 75.4805 76.7154 75.5203 76.4059C75.56 76.0964 75.5332 75.782 75.4415 75.4837C75.2577 74.8994 74.9884 74.3453 74.6423 73.8394C73.1591 71.4341 70.0631 65.5968 69.7463 65.8409H69.7247Z" fill="#52ACAC"/>
<g opacity="0.1">
<path d="M69.7247 65.8409C69.3106 68.0472 69.2329 70.3032 69.4943 72.5327C69.8759 74.7369 71.0639 76.8981 72.9215 77.6807C73.2928 77.8809 73.7209 77.9501 74.1365 77.8771C74.5521 77.8041 74.9308 77.5932 75.2111 77.2787C75.3752 77.0129 75.4805 76.7154 75.5203 76.4059C75.56 76.0964 75.5332 75.782 75.4415 75.4837C75.2577 74.8994 74.9884 74.3453 74.6423 73.8394C73.1591 71.4341 70.0631 65.5968 69.7463 65.8409H69.7247Z" fill="black"/>
</g>
<path d="M75.4776 68.835C74.7074 70.1551 74.1715 71.5979 73.8936 73.0999C73.6068 74.6253 73.8057 76.2019 74.4624 77.6089C74.7571 78.2615 75.2217 78.8235 75.808 79.2364C76.3942 79.6493 77.0807 79.898 77.796 79.9568C78.3464 79.9428 78.8833 79.784 79.3524 79.4965C79.8214 79.2091 80.206 78.8031 80.4672 78.3197C81.1008 77.2068 80.64 76.1657 80.1576 75.1103C79.0632 72.6404 77.2416 70.7018 75.4776 68.835Z" fill="#52ACAC"/>
<path d="M61.8119 73.1143C61.6412 73.4372 61.5432 73.7933 61.5245 74.1578C61.5059 74.5224 61.5671 74.8866 61.7039 75.2252C61.9768 75.8774 62.3784 76.4682 62.8847 76.9627C64.4068 78.6327 66.3008 79.923 68.4142 80.7299C70.5276 81.5367 72.8014 81.8376 75.0527 81.6082C75.2427 81.6097 75.4303 81.5655 75.5995 81.4792C75.7688 81.393 75.9146 81.2673 76.0247 81.1128C76.1094 80.9046 76.1257 80.675 76.0714 80.457C76.0171 80.239 75.8948 80.0438 75.7223 79.8994C75.3902 79.6525 75.0017 79.4921 74.5919 79.4327C72.3138 78.8665 70.1574 77.8934 68.2271 76.5607C66.2399 75.1821 63.9143 74.2415 61.8119 73.1143Z" fill="#52ACAC"/>
<path opacity="0.1" d="M61.8119 73.1143C61.6412 73.4372 61.5432 73.7933 61.5245 74.1578C61.5059 74.5224 61.5671 74.8866 61.7039 75.2252C61.9768 75.8774 62.3784 76.4682 62.8847 76.9627C64.4068 78.6327 66.3008 79.923 68.4142 80.7299C70.5276 81.5367 72.8014 81.8376 75.0527 81.6082C75.2427 81.6097 75.4303 81.5655 75.5995 81.4792C75.7688 81.393 75.9146 81.2673 76.0247 81.1128C76.1094 80.9046 76.1257 80.675 76.0714 80.457C76.0171 80.239 75.8948 80.0438 75.7223 79.8994C75.3902 79.6525 75.0017 79.4921 74.5919 79.4327C72.3138 78.8665 70.1574 77.8934 68.2271 76.5607C66.2399 75.1821 63.9143 74.2415 61.8119 73.1143Z" fill="black"/>
<path d="M69.3646 72.7837C69.0406 72.2955 68.6446 71.7354 68.0974 71.8C67.6798 71.8503 67.3774 72.2667 67.2046 72.6975C66.4846 74.4423 67.3414 76.5747 68.6446 77.7235C69.9478 78.8723 71.6902 79.3462 73.339 79.7627L75.0382 80.1935C75.7078 80.3586 77.0614 80.136 76.4782 79.0734C76.075 78.3554 74.7214 77.9533 74.095 77.5297C72.2287 76.2635 70.623 74.6525 69.3646 72.7837Z" fill="#52ACAC"/>
<path d="M69.5809 86.5907C67.4089 86.3615 65.3541 85.4943 63.6769 84.0993C63.3385 83.8408 62.9569 83.4172 63.1225 82.9936C63.1912 82.8555 63.2928 82.7363 63.4182 82.6462C63.5437 82.5561 63.6893 82.4979 63.8425 82.4766C65.8513 81.8017 67.9033 81.1268 69.9913 81.2201C70.9914 81.2533 71.9731 81.498 72.8713 81.9381C73.5913 82.2899 75.0313 83.1659 75.2401 84.0921C75.4489 85.0183 73.6273 85.7866 72.9505 86.0522C71.8806 86.4767 70.7301 86.6606 69.5809 86.5907Z" fill="#52ACAC"/>
<path opacity="0.1" d="M69.5809 86.5907C67.4089 86.3615 65.3541 85.4943 63.6769 84.0993C63.3385 83.8408 62.9569 83.4172 63.1225 82.9936C63.1912 82.8555 63.2928 82.7363 63.4182 82.6462C63.5437 82.5561 63.6893 82.4979 63.8425 82.4766C65.8513 81.8017 67.9033 81.1268 69.9913 81.2201C70.9914 81.2533 71.9731 81.498 72.8713 81.9381C73.5913 82.2899 75.0313 83.1659 75.2401 84.0921C75.4489 85.0183 73.6273 85.7866 72.9505 86.0522C71.8806 86.4767 70.7301 86.6606 69.5809 86.5907Z" fill="black"/>
<path d="M77.9544 81.3497C75.8936 80.8828 73.7681 80.7687 71.6688 81.0122C71.1392 81.043 70.6229 81.1901 70.1569 81.443C69.9125 81.5897 69.7071 81.7928 69.558 82.0352C69.4089 82.2777 69.3204 82.5523 69.3 82.836C69.3106 83.1188 69.3862 83.3954 69.521 83.6444C69.6558 83.8934 69.8463 84.1081 70.0777 84.272C70.5287 84.5645 71.0324 84.7669 71.5608 84.8679C73.0415 85.3598 74.6051 85.555 76.1616 85.4423C76.7858 85.3779 77.3908 85.1898 77.941 84.8889C78.4912 84.5881 78.9756 84.1806 79.3657 83.6904C80.3161 82.3693 79.0632 81.6082 77.9544 81.3497Z" fill="#52ACAC"/>
<path opacity="0.1" d="M77.9544 81.3497C75.8936 80.8828 73.7681 80.7687 71.6688 81.0122C71.1392 81.043 70.6229 81.1901 70.1569 81.443C69.9125 81.5897 69.7071 81.7928 69.558 82.0352C69.4089 82.2777 69.3204 82.5523 69.3 82.836C69.3106 83.1188 69.3862 83.3954 69.521 83.6444C69.6558 83.8934 69.8463 84.1081 70.0777 84.272C70.5287 84.5645 71.0324 84.7669 71.5608 84.8679C73.0415 85.3598 74.6051 85.555 76.1616 85.4423C76.7858 85.3779 77.3908 85.1898 77.941 84.8889C78.4912 84.5881 78.9756 84.1806 79.3657 83.6904C80.3161 82.3693 79.0632 81.6082 77.9544 81.3497Z" fill="white"/>
<path d="M84.2398 81.3354C84.6686 81.0442 85.0216 80.6553 85.2694 80.2009C85.3929 79.962 85.4488 79.6941 85.431 79.4259C85.4132 79.1577 85.3225 78.8994 85.1686 78.6788C84.6934 78.1187 82.0294 77.3217 81.3598 77.1638C80.7841 77.0967 80.2022 77.2204 79.7038 77.5156C78.9406 77.8674 78.1918 78.2336 77.4502 78.6572C77.0663 78.8325 76.7175 79.0758 76.4206 79.3752C76.2691 79.5466 76.1586 79.75 76.0975 79.9701C76.0364 80.1903 76.0263 80.4214 76.0678 80.6461C76.1713 80.9317 76.3448 81.1871 76.5723 81.389C76.7999 81.5908 77.0745 81.7328 77.371 81.8021C78.7858 82.3182 80.2859 82.5619 81.7918 82.5201C82.6288 82.1699 83.4461 81.7744 84.2398 81.3354Z" fill="#52ACAC"/>
<g opacity="0.1">
<path d="M84.2398 81.3354C84.6686 81.0442 85.0216 80.6553 85.2694 80.2009C85.3929 79.962 85.4488 79.6941 85.431 79.4259C85.4132 79.1577 85.3225 78.8994 85.1686 78.6788C84.6934 78.1187 82.0294 77.3217 81.3598 77.1638C80.7841 77.0967 80.2022 77.2204 79.7038 77.5156C78.9406 77.8674 78.1918 78.2336 77.4502 78.6572C77.0663 78.8325 76.7175 79.0758 76.4206 79.3752C76.2691 79.5466 76.1586 79.75 76.0975 79.9701C76.0364 80.1903 76.0263 80.4214 76.0678 80.6461C76.1713 80.9317 76.3448 81.1871 76.5723 81.389C76.7999 81.5908 77.0745 81.7328 77.371 81.8021C78.7858 82.3182 80.2859 82.5619 81.7918 82.5201C82.6288 82.1699 83.4461 81.7744 84.2398 81.3354Z" fill="black"/>
</g>
<path d="M78.84 82.3763C78.4965 82.4749 78.1777 82.6449 77.9047 82.875C77.6317 83.1052 77.4106 83.3904 77.256 83.7118C77.0943 84.0527 77.0374 84.4337 77.0925 84.8068C77.1476 85.1799 77.3122 85.5284 77.5656 85.8083C77.9683 86.1096 78.459 86.271 78.9624 86.2679L80.7768 86.4474C80.9671 86.4916 81.1643 86.4978 81.3571 86.4658C81.5498 86.4338 81.7343 86.364 81.9 86.2607C82.085 86.0382 82.221 85.7794 82.2991 85.501C82.3773 85.2227 82.3958 84.9311 82.3536 84.6452C82.3853 84.0848 82.317 83.5232 82.152 82.9866C82.0847 82.6998 81.9121 82.4485 81.6682 82.2823C81.4243 82.1162 81.1268 82.0472 80.8344 82.0891C80.1637 82.1385 79.4973 82.2345 78.84 82.3763Z" fill="#52ACAC"/>
<path d="M81.8424 69.4019C81.7456 69.322 81.6392 69.2544 81.5256 69.2008C81.5609 69.1902 81.5984 69.1902 81.6336 69.2008H81.6912L81.7488 69.2511C81.7665 69.2702 81.7811 69.292 81.792 69.3157C81.7958 69.3371 81.7958 69.3589 81.792 69.3803C81.792 69.3803 81.8424 69.3947 81.8424 69.4019Z" fill="#52ACAC"/>
<path opacity="0.1" d="M81.8424 69.4019C81.7456 69.322 81.6392 69.2544 81.5256 69.2008C81.5609 69.1902 81.5984 69.1902 81.6336 69.2008H81.6912L81.7488 69.2511C81.7665 69.2702 81.7811 69.292 81.792 69.3157C81.7958 69.3371 81.7958 69.3589 81.792 69.3803C81.792 69.3803 81.8424 69.3947 81.8424 69.4019Z" fill="#52ACAC"/>
<path d="M84.1103 75.5553C83.9047 76.1653 83.5846 76.7306 83.1671 77.2211C82.9759 77.4556 82.7358 77.6458 82.4635 77.7784C82.1912 77.9111 81.8932 77.9831 81.5903 77.9894H81.4463C81.1435 77.9817 80.846 77.9091 80.5739 77.7765C80.3019 77.6439 80.0616 77.4545 79.8695 77.2211C79.4567 76.7284 79.1393 76.1636 78.9335 75.5553C78.6005 74.7492 78.4671 73.8749 78.5447 73.0064C78.6964 72.074 79.1459 71.2153 79.8263 70.5581C79.9919 70.5581 80.5463 69.9406 80.6903 69.8401H80.7335L80.7911 69.797L81.2015 69.4523L81.4103 69.3159H81.4607H81.5255C81.639 69.3695 81.7454 69.4371 81.8423 69.517C82.0439 69.6677 82.2527 69.8544 82.3535 69.9262C82.4543 69.998 83.0735 70.6442 83.2247 70.6442C83.9003 71.304 84.3469 72.1619 84.4991 73.0926C84.5663 73.9326 84.4331 74.7766 84.1103 75.5553Z" fill="#52ACAC"/>
<path d="M81.5257 69.2012H81.4609H81.4105L81.2017 69.3376C81.2521 69.2156 81.3169 69.1366 81.4177 69.1294C81.4606 69.1408 81.4986 69.166 81.5257 69.2012Z" fill="#52ACAC"/>
<g opacity="0.2">
<path d="M84.1103 75.5551C83.9047 76.165 83.5846 76.7303 83.1671 77.2208C82.9759 77.4553 82.7358 77.6455 82.4635 77.7782C82.1912 77.9109 81.8932 77.9828 81.5903 77.9891H81.4463C81.1435 77.9814 80.846 77.9088 80.5739 77.7762C80.3019 77.6437 80.0616 77.4542 79.8695 77.2208C79.4567 76.7282 79.1393 76.1633 78.9335 75.5551C78.6005 74.7489 78.4671 73.8746 78.5447 73.0062C78.6964 72.0737 79.1459 71.215 79.8263 70.5578C79.9919 70.5578 80.5463 69.9403 80.6903 69.8398C80.8343 69.7393 81.0071 69.5741 81.2015 69.4234C81.2996 69.3436 81.4087 69.2783 81.5255 69.2295C81.64 69.2814 81.7466 69.3491 81.8423 69.4305C82.0439 69.5813 82.2527 69.768 82.3535 69.8398C82.4543 69.9116 83.0735 70.5578 83.2247 70.5578C83.9003 71.2176 84.3469 72.0754 84.4991 73.0062C84.5804 73.8747 84.4469 74.7499 84.1103 75.5551Z" fill="white"/>
<path d="M81.5254 69.2009C81.4087 69.2498 81.2996 69.3151 81.2014 69.3948C81.2518 69.2727 81.3166 69.1937 81.4174 69.1866C81.4541 69.1814 81.4914 69.1863 81.5254 69.2009Z" fill="white"/>
</g>
<path opacity="0.1" d="M81.8424 69.4019C81.7468 69.3204 81.6401 69.2527 81.5256 69.2008C81.5609 69.1902 81.5984 69.1902 81.6336 69.2008C81.7272 69.1936 81.792 69.2726 81.8424 69.4019Z" fill="white"/>
<path d="M121.961 76.0005C121.961 76.0005 118.915 37.7095 127.44 20.5493C127.44 20.5493 128.354 55.3364 126.223 76.0005H121.961Z" fill="#52ACAC"/>
<path opacity="0.2" d="M121.961 76.0005C121.961 76.0005 118.915 37.7095 127.44 20.5493C127.44 20.5493 128.354 55.3364 126.223 76.0005H121.961Z" fill="black"/>
<path d="M117.468 74.3061C117.468 74.3061 120.348 63.7803 108.598 39.519C108.598 39.519 120.838 40.955 121.428 74.3061H117.468Z" fill="#52ACAC"/>
<path d="M124.078 70.7879C124.078 70.7879 126.72 42.4987 131.04 28.2393C131.04 28.2393 132.574 45.6795 126.281 69.8833L124.078 70.7879Z" fill="#52ACAC"/>
<path d="M129.096 76.2805C129.096 76.2805 127.051 66.9465 137.945 41.9673C137.945 41.9673 125.748 42.9222 125.136 76.2805H129.096Z" fill="#52ACAC"/>
<path d="M125.006 76.2803C125.006 76.2803 125.431 25.1803 117.85 21.0518C117.85 21.0518 120.413 67.7218 120.233 76.0003L125.006 76.2803Z" fill="#52ACAC"/>
<path d="M127.771 100.556H119.088L114.588 72.1733H132.264L127.771 100.556Z" fill="white" stroke="#263238" stroke-linecap="round" stroke-linejoin="round"/>
<path d="M115.006 81.7515H131.976C136.346 83.2593 139.241 85.9015 139.241 88.9315C139.241 92.0835 136.051 97.9567 131.321 101.461H115.675C110.938 97.9567 107.755 92.0835 107.755 88.9315C107.741 85.9015 110.642 83.288 115.006 81.7515Z" fill="white" stroke="#263238" stroke-linecap="round" stroke-linejoin="round"/>
<path d="M132.221 89.9152C133.25 89.7357 134.294 89.5131 135.331 89.2402L132.221 89.9152Z" fill="white"/>
<path d="M132.221 89.9152C133.25 89.7357 134.294 89.5131 135.331 89.2402" stroke="#263238" stroke-linecap="round" stroke-linejoin="round"/>
<path d="M112.097 89.2402C117.76 90.5306 123.597 90.892 129.377 90.3101L112.097 89.2402Z" fill="white"/>
<path d="M112.097 89.2402C117.76 90.5306 123.597 90.892 129.377 90.3101" stroke="#263238" stroke-linecap="round" stroke-linejoin="round"/>
<path d="M209.916 125.155V146.996C209.916 147.545 209.698 148.071 209.309 148.458C208.92 148.846 208.392 149.064 207.843 149.064H175.349L167.328 155.239C167.066 155.44 166.744 155.549 166.414 155.548C166.007 155.548 165.617 155.386 165.329 155.1C165.042 154.813 164.88 154.424 164.88 154.018V149.064H163.627C163.077 149.064 162.55 148.846 162.161 148.458C161.772 148.071 161.554 147.545 161.554 146.996V125.147C161.558 124.602 161.778 124.081 162.167 123.697C162.555 123.313 163.08 123.099 163.627 123.101H207.857C208.127 123.101 208.395 123.154 208.645 123.257C208.895 123.361 209.122 123.512 209.313 123.703C209.504 123.893 209.656 124.12 209.759 124.369C209.863 124.618 209.916 124.885 209.916 125.155Z" fill="white" stroke="#263238" stroke-linecap="round" stroke-linejoin="round"/>
<path d="M165.917 132.112H176.4" stroke="#263238" stroke-linecap="round" stroke-linejoin="round"/>
<path d="M165.917 136.154H183.111" stroke="#263238" stroke-linecap="round" stroke-linejoin="round"/>
<path d="M165.917 140.204H177.775" stroke="#263238" stroke-linecap="round" stroke-linejoin="round"/>
<path d="M197.575 144.634C202.271 144.634 206.078 140.838 206.078 136.154C206.078 131.471 202.271 127.675 197.575 127.675C192.879 127.675 189.072 131.471 189.072 136.154C189.072 140.838 192.879 144.634 197.575 144.634Z" fill="white" stroke="#263238" stroke-linecap="round" stroke-linejoin="round"/>
<path d="M197.575 143.105C201.425 143.105 204.545 139.993 204.545 136.154C204.545 132.316 201.425 129.204 197.575 129.204C193.726 129.204 190.606 132.316 190.606 136.154C190.606 139.993 193.726 143.105 197.575 143.105Z" fill="#52ACAC"/>
<g opacity="0.1">
<path d="M204.545 136.154H197.575V129.24C196.195 129.238 194.845 129.645 193.696 130.409C192.548 131.173 191.653 132.26 191.124 133.531C190.595 134.803 190.456 136.202 190.725 137.553C190.994 138.903 191.659 140.143 192.635 141.117C193.611 142.09 194.855 142.753 196.209 143.021C197.563 143.289 198.966 143.151 200.241 142.624C201.516 142.096 202.606 141.203 203.372 140.058C204.138 138.913 204.546 137.567 204.545 136.19V136.154Z" fill="black"/>
</g>
<path d="M197.575 130.015V136.154H200.743" stroke="#263238" stroke-linecap="round" stroke-linejoin="round"/>
<path d="M288.951 98.5453V120.387C288.951 120.935 288.732 121.461 288.343 121.849C287.954 122.237 287.427 122.455 286.877 122.455H254.383L246.363 128.629C246.101 128.831 245.779 128.939 245.448 128.938C245.041 128.938 244.651 128.777 244.364 128.49C244.076 128.203 243.915 127.814 243.915 127.409V122.455H242.64C242.368 122.455 242.099 122.401 241.848 122.297C241.597 122.193 241.368 122.041 241.176 121.849C240.984 121.656 240.832 121.428 240.729 121.178C240.626 120.927 240.573 120.658 240.574 120.387V98.5381C240.574 98.2682 240.627 98.0009 240.731 97.7517C240.835 97.5025 240.988 97.2763 241.18 97.0861C241.372 96.8958 241.6 96.7454 241.85 96.6434C242.101 96.5415 242.369 96.4899 242.64 96.4918H286.87C287.142 96.489 287.412 96.54 287.664 96.6419C287.917 96.7438 288.146 96.8946 288.34 97.0856C288.533 97.2766 288.687 97.5039 288.792 97.7544C288.897 98.005 288.951 98.2738 288.951 98.5453Z" fill="white" stroke="#263238" stroke-linecap="round" stroke-linejoin="round"/>
<path d="M244.951 105.503H261.274" stroke="#263238" stroke-linecap="round" stroke-linejoin="round"/>
<path d="M244.951 109.545H258.891" stroke="#263238" stroke-linecap="round" stroke-linejoin="round"/>
<path d="M244.951 113.595H256.81" stroke="#263238" stroke-linecap="round" stroke-linejoin="round"/>
<path d="M276.61 118.025C281.306 118.025 285.113 114.228 285.113 109.545C285.113 104.862 281.306 101.065 276.61 101.065C271.913 101.065 268.106 104.862 268.106 109.545C268.106 114.228 271.913 118.025 276.61 118.025Z" fill="white" stroke="#263238" stroke-linecap="round" stroke-linejoin="round"/>
<path d="M276.61 116.495C280.459 116.495 283.579 113.383 283.579 109.545C283.579 105.706 280.459 102.595 276.61 102.595C272.761 102.595 269.64 105.706 269.64 109.545C269.64 113.383 272.761 116.495 276.61 116.495Z" fill="#52ACAC"/>
<g opacity="0.1">
<path d="M276.61 116.502V109.545L272.484 103.952C271.591 104.584 270.866 105.424 270.37 106.398C269.875 107.373 269.624 108.453 269.64 109.545C269.639 110.458 269.819 111.363 270.169 112.207C270.518 113.051 271.032 113.818 271.679 114.464C272.326 115.11 273.095 115.623 273.941 115.973C274.787 116.322 275.694 116.502 276.61 116.502Z" fill="black"/>
</g>
<path d="M273.535 105.503L276.61 109.545V112.712" stroke="#263238" stroke-linecap="round" stroke-linejoin="round"/>
<path d="M307.707 165.994V187.836C307.707 188.383 307.489 188.908 307.102 189.296C306.714 189.683 306.189 189.902 305.64 189.904H273.139L265.126 196.086C264.859 196.283 264.536 196.391 264.204 196.395C264.002 196.395 263.802 196.355 263.616 196.277C263.429 196.2 263.26 196.087 263.117 195.944C262.975 195.801 262.862 195.632 262.785 195.445C262.709 195.259 262.67 195.059 262.671 194.858V189.904H261.418C260.869 189.902 260.343 189.683 259.956 189.296C259.569 188.908 259.351 188.383 259.351 187.836V165.994C259.353 165.449 259.572 164.927 259.959 164.542C260.346 164.157 260.871 163.941 261.418 163.941H305.647C306.193 163.941 306.717 164.157 307.103 164.542C307.49 164.927 307.707 165.45 307.707 165.994Z" fill="white" stroke="#263238" stroke-linecap="round" stroke-linejoin="round"/>
<path d="M263.707 172.952H274.19" stroke="#263238" stroke-linecap="round" stroke-linejoin="round"/>
<path d="M263.707 176.994H277.186" stroke="#263238" stroke-linecap="round" stroke-linejoin="round"/>
<path d="M263.707 181.043H280.908" stroke="#263238" stroke-linecap="round" stroke-linejoin="round"/>
<path d="M298.64 184.827C302.974 183.022 305.019 178.056 303.209 173.735C301.399 169.413 296.419 167.374 292.086 169.179C287.752 170.984 285.707 175.95 287.517 180.271C289.327 184.593 294.307 186.632 298.64 184.827Z" fill="white" stroke="#263238" stroke-linecap="round" stroke-linejoin="round"/>
<path d="M298.049 183.416C301.601 181.939 303.28 177.869 301.798 174.326C300.316 170.783 296.235 169.109 292.683 170.587C289.13 172.064 287.451 176.134 288.933 179.677C290.415 183.22 294.496 184.894 298.049 183.416Z" fill="#52ACAC"/>
<g opacity="0.1">
<path d="M295.366 176.994V170.044C293.901 170.043 292.473 170.503 291.286 171.358C290.098 172.212 289.21 173.418 288.749 174.804C288.287 176.19 288.275 177.686 288.715 179.08C289.154 180.473 290.023 181.693 291.197 182.566L295.366 176.994Z" fill="black"/>
</g>
<path d="M295.366 170.855V176.994L293.479 179.708" stroke="#263238" stroke-linecap="round" stroke-linejoin="round"/>
</svg>
