<svg width="46" height="46" viewBox="0 0 46 46" fill="none" xmlns="http://www.w3.org/2000/svg">
<mask id="mask0_533_4716" style="mask-type:alpha" maskUnits="userSpaceOnUse" x="0" y="0" width="46" height="46">
<rect width="46" height="46" fill="white"/>
</mask>
<g mask="url(#mask0_533_4716)">
<path d="M14.75 17.4167V5.91667C14.75 5.37361 14.9337 4.9184 15.301 4.55104C15.6684 4.18368 16.1236 4 16.6667 4C17.2097 4 17.6649 4.18368 18.0323 4.55104C18.3997 4.9184 18.5833 5.37361 18.5833 5.91667V17.4167H20.5V5.91667C20.5 5.37361 20.6837 4.9184 21.051 4.55104C21.4184 4.18368 21.8736 4 22.4167 4C22.9597 4 23.4149 4.18368 23.7823 4.55104C24.1497 4.9184 24.3333 5.37361 24.3333 5.91667V17.4167C24.3333 19.2056 23.7823 20.7708 22.6802 22.1125C21.5781 23.4542 20.2125 24.3486 18.5833 24.7958V40.4167C18.5833 40.9597 18.3997 41.4149 18.0323 41.7823C17.6649 42.1497 17.2097 42.3333 16.6667 42.3333C16.1236 42.3333 15.6684 42.1497 15.301 41.7823C14.9337 41.4149 14.75 40.9597 14.75 40.4167V24.7958C13.1208 24.3486 11.7552 23.4542 10.6531 22.1125C9.55104 20.7708 9 19.2056 9 17.4167V5.91667C9 5.37361 9.18368 4.9184 9.55104 4.55104C9.9184 4.18368 10.3736 4 10.9167 4C11.4597 4 11.9149 4.18368 12.2823 4.55104C12.6497 4.9184 12.8333 5.37361 12.8333 5.91667V17.4167H14.75ZM33.9167 27H30.0833C29.5403 27 29.0851 26.8163 28.7177 26.449C28.3503 26.0816 28.1667 25.6264 28.1667 25.0833V13.5833C28.1667 11.3472 28.9892 9.19097 30.6344 7.11458C32.2795 5.03819 33.9806 4 35.7375 4C36.3125 4 36.7917 4.22361 37.175 4.67083C37.5583 5.11806 37.75 5.64514 37.75 6.25208V40.4167C37.75 40.9597 37.5663 41.4149 37.199 41.7823C36.8316 42.1497 36.3764 42.3333 35.8333 42.3333C35.2903 42.3333 34.8351 42.1497 34.4677 41.7823C34.1003 41.4149 33.9167 40.9597 33.9167 40.4167V27Z" fill="#7ECDCE"/>
</g>
</svg>
