<svg width="1426" height="526" viewBox="0 0 1426 526" fill="none" xmlns="http://www.w3.org/2000/svg">
<g clip-path="url(#clip0_621_4795)">
<path d="M5.23608 280.329L11.1629 277.23" stroke="#253A74" stroke-width="7" stroke-linecap="round" stroke-linejoin="round"/>
<path d="M22.9831 271.068L460.03 42.9823C499.969 22.1429 549.233 37.6332 570.066 77.5735C590.899 117.525 575.413 166.804 535.485 187.643L332.748 293.445C292.809 314.285 277.335 363.564 298.168 403.515C319.001 443.467 368.264 458.946 408.204 438.106L1023.15 117.18C1063.09 96.3401 1112.36 111.83 1133.19 151.771C1154.02 191.711 1138.54 241.001 1098.61 261.841L932.359 348.597C892.42 369.437 876.945 418.716 897.778 458.667C918.611 498.619 967.875 514.098 1007.81 493.258L1414.96 280.786" stroke="#253A74" stroke-width="7" stroke-linecap="round" stroke-linejoin="round" stroke-dasharray="11.97 11.97"/>
<path d="M1420.85 277.698L1426.78 274.611" stroke="#253A74" stroke-width="7" stroke-linecap="round" stroke-linejoin="round"/>
<path d="M333.383 129.828C345.227 129.828 354.829 120.224 354.829 108.376C354.829 96.5284 345.227 86.9238 333.383 86.9238C321.539 86.9238 311.938 96.5284 311.938 108.376C311.938 120.224 321.539 129.828 333.383 129.828Z" fill="#7ECDCE"/>
<path d="M949.46 177.747C961.304 177.747 970.905 168.143 970.905 156.295C970.905 144.447 961.304 134.843 949.46 134.843C937.616 134.843 928.014 144.447 928.014 156.295C928.014 168.143 937.616 177.747 949.46 177.747Z" fill="#7ECDCE"/>
<path d="M456.487 430.161C468.331 430.161 477.933 420.556 477.933 408.708C477.933 396.86 468.331 387.256 456.487 387.256C444.643 387.256 435.041 396.86 435.041 408.708C435.041 420.556 444.643 430.161 456.487 430.161Z" fill="#7ECDCE"/>
<path d="M1082.03 474.18C1093.88 474.18 1103.48 464.576 1103.48 452.728C1103.48 440.88 1093.88 431.275 1082.03 431.275C1070.19 431.275 1060.59 440.88 1060.59 452.728C1060.59 464.576 1070.19 474.18 1082.03 474.18Z" fill="#7ECDCE"/>
<path d="M475.472 440V423.2H483.104C484.928 423.2 486.536 423.552 487.928 424.256C489.32 424.944 490.408 425.912 491.192 427.16C491.976 428.408 492.368 429.888 492.368 431.6C492.368 433.296 491.976 434.776 491.192 436.04C490.408 437.288 489.32 438.264 487.928 438.968C486.536 439.656 484.928 440 483.104 440H475.472ZM479.36 436.808H482.912C484.032 436.808 485 436.6 485.816 436.184C486.648 435.752 487.288 435.144 487.736 434.36C488.2 433.576 488.432 432.656 488.432 431.6C488.432 430.528 488.2 429.608 487.736 428.84C487.288 428.056 486.648 427.456 485.816 427.04C485 426.608 484.032 426.392 482.912 426.392H479.36V436.808ZM495.037 440V427.088H498.781V440H495.037ZM496.909 425.288C496.221 425.288 495.661 425.088 495.229 424.688C494.797 424.288 494.581 423.792 494.581 423.2C494.581 422.608 494.797 422.112 495.229 421.712C495.661 421.312 496.221 421.112 496.909 421.112C497.597 421.112 498.157 421.304 498.589 421.688C499.021 422.056 499.237 422.536 499.237 423.128C499.237 423.752 499.021 424.272 498.589 424.688C498.173 425.088 497.613 425.288 496.909 425.288ZM505.759 440L500.335 427.088H504.199L508.711 438.2H506.791L511.471 427.088H515.071L509.623 440H505.759ZM516.599 440V427.088H520.343V440H516.599ZM518.471 425.288C517.783 425.288 517.223 425.088 516.791 424.688C516.359 424.288 516.143 423.792 516.143 423.2C516.143 422.608 516.359 422.112 516.791 421.712C517.223 421.312 517.783 421.112 518.471 421.112C519.159 421.112 519.719 421.304 520.151 421.688C520.583 422.056 520.799 422.536 520.799 423.128C520.799 423.752 520.583 424.272 520.151 424.688C519.735 425.088 519.175 425.288 518.471 425.288ZM529.362 440.192C528.146 440.192 527.05 439.92 526.074 439.376C525.098 438.816 524.322 438.04 523.746 437.048C523.186 436.056 522.906 434.888 522.906 433.544C522.906 432.184 523.186 431.008 523.746 430.016C524.322 429.024 525.098 428.256 526.074 427.712C527.05 427.168 528.146 426.896 529.362 426.896C530.45 426.896 531.402 427.136 532.218 427.616C533.034 428.096 533.666 428.824 534.114 429.8C534.562 430.776 534.786 432.024 534.786 433.544C534.786 435.048 534.57 436.296 534.138 437.288C533.706 438.264 533.082 438.992 532.266 439.472C531.466 439.952 530.498 440.192 529.362 440.192ZM530.01 437.12C530.618 437.12 531.17 436.976 531.666 436.688C532.162 436.4 532.554 435.992 532.842 435.464C533.146 434.92 533.298 434.28 533.298 433.544C533.298 432.792 533.146 432.152 532.842 431.624C532.554 431.096 532.162 430.688 531.666 430.4C531.17 430.112 530.618 429.968 530.01 429.968C529.386 429.968 528.826 430.112 528.33 430.4C527.834 430.688 527.434 431.096 527.13 431.624C526.842 432.152 526.698 432.792 526.698 433.544C526.698 434.28 526.842 434.92 527.13 435.464C527.434 435.992 527.834 436.4 528.33 436.688C528.826 436.976 529.386 437.12 530.01 437.12ZM533.394 440V437.36L533.466 433.52L533.226 429.704V422.192H536.97V440H533.394ZM546.843 440.192C545.371 440.192 544.075 439.904 542.955 439.328C541.851 438.752 540.995 437.968 540.387 436.976C539.779 435.968 539.475 434.824 539.475 433.544C539.475 432.248 539.771 431.104 540.363 430.112C540.971 429.104 541.795 428.32 542.835 427.76C543.875 427.184 545.051 426.896 546.363 426.896C547.627 426.896 548.763 427.168 549.771 427.712C550.795 428.24 551.603 429.008 552.195 430.016C552.787 431.008 553.083 432.2 553.083 433.592C553.083 433.736 553.075 433.904 553.059 434.096C553.043 434.272 553.027 434.44 553.011 434.6H542.523V432.416H551.043L549.603 433.064C549.603 432.392 549.467 431.808 549.195 431.312C548.923 430.816 548.547 430.432 548.067 430.16C547.587 429.872 547.027 429.728 546.387 429.728C545.747 429.728 545.179 429.872 544.683 430.16C544.203 430.432 543.827 430.824 543.555 431.336C543.283 431.832 543.147 432.424 543.147 433.112V433.688C543.147 434.392 543.299 435.016 543.603 435.56C543.923 436.088 544.363 436.496 544.923 436.784C545.499 437.056 546.171 437.192 546.939 437.192C547.627 437.192 548.227 437.088 548.739 436.88C549.267 436.672 549.747 436.36 550.179 435.944L552.171 438.104C551.579 438.776 550.835 439.296 549.939 439.664C549.043 440.016 548.011 440.192 546.843 440.192ZM568.445 444.848C567.229 444.848 566.053 444.696 564.917 444.392C563.797 444.104 562.861 443.664 562.109 443.072L563.597 440.384C564.141 440.832 564.829 441.184 565.661 441.44C566.509 441.712 567.341 441.848 568.157 441.848C569.485 441.848 570.445 441.552 571.037 440.96C571.645 440.368 571.949 439.488 571.949 438.32V436.376L572.189 433.136L572.141 429.872V427.088H575.693V437.84C575.693 440.24 575.069 442.008 573.821 443.144C572.573 444.28 570.781 444.848 568.445 444.848ZM567.869 439.376C566.669 439.376 565.581 439.12 564.605 438.608C563.645 438.08 562.869 437.352 562.277 436.424C561.701 435.48 561.413 434.384 561.413 433.136C561.413 431.872 561.701 430.776 562.277 429.848C562.869 428.904 563.645 428.176 564.605 427.664C565.581 427.152 566.669 426.896 567.869 426.896C568.957 426.896 569.917 427.12 570.749 427.568C571.581 428 572.229 428.68 572.693 429.608C573.157 430.52 573.389 431.696 573.389 433.136C573.389 434.56 573.157 435.736 572.693 436.664C572.229 437.576 571.581 438.256 570.749 438.704C569.917 439.152 568.957 439.376 567.869 439.376ZM568.613 436.304C569.269 436.304 569.853 436.176 570.365 435.92C570.877 435.648 571.277 435.272 571.565 434.792C571.853 434.312 571.997 433.76 571.997 433.136C571.997 432.496 571.853 431.944 571.565 431.48C571.277 431 570.877 430.632 570.365 430.376C569.853 430.104 569.269 429.968 568.613 429.968C567.957 429.968 567.373 430.104 566.861 430.376C566.349 430.632 565.941 431 565.637 431.48C565.349 431.944 565.205 432.496 565.205 433.136C565.205 433.76 565.349 434.312 565.637 434.792C565.941 435.272 566.349 435.648 566.861 435.92C567.373 436.176 567.957 436.304 568.613 436.304ZM587.097 440V437.48L586.857 436.928V432.416C586.857 431.616 586.609 430.992 586.113 430.544C585.633 430.096 584.889 429.872 583.881 429.872C583.193 429.872 582.513 429.984 581.841 430.208C581.185 430.416 580.625 430.704 580.161 431.072L578.817 428.456C579.521 427.96 580.369 427.576 581.361 427.304C582.353 427.032 583.361 426.896 584.385 426.896C586.353 426.896 587.881 427.36 588.969 428.288C590.057 429.216 590.601 430.664 590.601 432.632V440H587.097ZM583.161 440.192C582.153 440.192 581.289 440.024 580.569 439.688C579.849 439.336 579.297 438.864 578.913 438.272C578.529 437.68 578.337 437.016 578.337 436.28C578.337 435.512 578.521 434.84 578.889 434.264C579.273 433.688 579.873 433.24 580.689 432.92C581.505 432.584 582.569 432.416 583.881 432.416H587.313V434.6H584.289C583.409 434.6 582.801 434.744 582.465 435.032C582.145 435.32 581.985 435.68 581.985 436.112C581.985 436.592 582.169 436.976 582.537 437.264C582.921 437.536 583.441 437.672 584.097 437.672C584.721 437.672 585.281 437.528 585.777 437.24C586.273 436.936 586.633 436.496 586.857 435.92L587.433 437.648C587.161 438.48 586.665 439.112 585.945 439.544C585.225 439.976 584.297 440.192 583.161 440.192ZM598.334 440.192C597.23 440.192 596.166 440.064 595.142 439.808C594.134 439.536 593.334 439.2 592.742 438.8L593.99 436.112C594.582 436.48 595.278 436.784 596.078 437.024C596.894 437.248 597.694 437.36 598.478 437.36C599.342 437.36 599.95 437.256 600.302 437.048C600.67 436.84 600.854 436.552 600.854 436.184C600.854 435.88 600.71 435.656 600.422 435.512C600.15 435.352 599.782 435.232 599.318 435.152C598.854 435.072 598.342 434.992 597.782 434.912C597.238 434.832 596.686 434.728 596.126 434.6C595.566 434.456 595.054 434.248 594.59 433.976C594.126 433.704 593.75 433.336 593.462 432.872C593.19 432.408 593.054 431.808 593.054 431.072C593.054 430.256 593.286 429.536 593.75 428.912C594.23 428.288 594.918 427.8 595.814 427.448C596.71 427.08 597.782 426.896 599.03 426.896C599.91 426.896 600.806 426.992 601.718 427.184C602.63 427.376 603.39 427.656 603.998 428.024L602.75 430.688C602.126 430.32 601.494 430.072 600.854 429.944C600.23 429.8 599.622 429.728 599.03 429.728C598.198 429.728 597.59 429.84 597.206 430.064C596.822 430.288 596.63 430.576 596.63 430.928C596.63 431.248 596.766 431.488 597.038 431.648C597.326 431.808 597.702 431.936 598.166 432.032C598.63 432.128 599.134 432.216 599.678 432.296C600.238 432.36 600.798 432.464 601.358 432.608C601.918 432.752 602.422 432.96 602.87 433.232C603.334 433.488 603.71 433.848 603.998 434.312C604.286 434.76 604.43 435.352 604.43 436.088C604.43 436.888 604.19 437.6 603.71 438.224C603.23 438.832 602.534 439.312 601.622 439.664C600.726 440.016 599.63 440.192 598.334 440.192ZM612.02 440.192C610.5 440.192 609.316 439.808 608.468 439.04C607.62 438.256 607.196 437.096 607.196 435.56V424.232H610.94V435.512C610.94 436.056 611.084 436.48 611.372 436.784C611.66 437.072 612.052 437.216 612.548 437.216C613.14 437.216 613.644 437.056 614.06 436.736L615.068 439.376C614.684 439.648 614.22 439.856 613.676 440C613.148 440.128 612.596 440.192 612.02 440.192ZM605.204 430.256V427.376H614.156V430.256H605.204ZM622.915 440.192C621.539 440.192 620.315 439.904 619.243 439.328C618.187 438.752 617.347 437.968 616.723 436.976C616.115 435.968 615.811 434.824 615.811 433.544C615.811 432.248 616.115 431.104 616.723 430.112C617.347 429.104 618.187 428.32 619.243 427.76C620.315 427.184 621.539 426.896 622.915 426.896C624.275 426.896 625.491 427.184 626.563 427.76C627.635 428.32 628.475 429.096 629.083 430.088C629.691 431.08 629.995 432.232 629.995 433.544C629.995 434.824 629.691 435.968 629.083 436.976C628.475 437.968 627.635 438.752 626.563 439.328C625.491 439.904 624.275 440.192 622.915 440.192ZM622.915 437.12C623.539 437.12 624.099 436.976 624.595 436.688C625.091 436.4 625.483 435.992 625.771 435.464C626.059 434.92 626.203 434.28 626.203 433.544C626.203 432.792 626.059 432.152 625.771 431.624C625.483 431.096 625.091 430.688 624.595 430.4C624.099 430.112 623.539 429.968 622.915 429.968C622.291 429.968 621.731 430.112 621.235 430.4C620.739 430.688 620.339 431.096 620.035 431.624C619.747 432.152 619.603 432.792 619.603 433.544C619.603 434.28 619.747 434.92 620.035 435.464C620.339 435.992 620.739 436.4 621.235 436.688C621.731 436.976 622.291 437.12 622.915 437.12ZM636.842 440.192C635.738 440.192 634.674 440.064 633.65 439.808C632.642 439.536 631.842 439.2 631.25 438.8L632.498 436.112C633.09 436.48 633.786 436.784 634.586 437.024C635.402 437.248 636.202 437.36 636.986 437.36C637.85 437.36 638.458 437.256 638.81 437.048C639.178 436.84 639.362 436.552 639.362 436.184C639.362 435.88 639.218 435.656 638.93 435.512C638.658 435.352 638.29 435.232 637.826 435.152C637.362 435.072 636.85 434.992 636.29 434.912C635.746 434.832 635.194 434.728 634.634 434.6C634.074 434.456 633.562 434.248 633.098 433.976C632.634 433.704 632.258 433.336 631.97 432.872C631.698 432.408 631.562 431.808 631.562 431.072C631.562 430.256 631.794 429.536 632.258 428.912C632.738 428.288 633.426 427.8 634.322 427.448C635.218 427.08 636.29 426.896 637.538 426.896C638.418 426.896 639.314 426.992 640.226 427.184C641.138 427.376 641.898 427.656 642.506 428.024L641.258 430.688C640.634 430.32 640.002 430.072 639.362 429.944C638.738 429.8 638.13 429.728 637.538 429.728C636.706 429.728 636.098 429.84 635.714 430.064C635.33 430.288 635.138 430.576 635.138 430.928C635.138 431.248 635.274 431.488 635.546 431.648C635.834 431.808 636.21 431.936 636.674 432.032C637.138 432.128 637.642 432.216 638.186 432.296C638.746 432.36 639.306 432.464 639.866 432.608C640.426 432.752 640.93 432.96 641.378 433.232C641.842 433.488 642.218 433.848 642.506 434.312C642.794 434.76 642.938 435.352 642.938 436.088C642.938 436.888 642.698 437.6 642.218 438.224C641.738 438.832 641.042 439.312 640.13 439.664C639.234 440.016 638.138 440.192 636.842 440.192Z" fill="#87549F"/>
<path d="M821.869 92.76H829.933V95.88H821.869V92.76ZM822.157 102H818.269V85.2H830.965V88.32H822.157V102ZM840.878 102V99.48L840.638 98.928V94.416C840.638 93.616 840.39 92.992 839.894 92.544C839.414 92.096 838.67 91.872 837.662 91.872C836.974 91.872 836.294 91.984 835.622 92.208C834.966 92.416 834.406 92.704 833.942 93.072L832.598 90.456C833.302 89.96 834.15 89.576 835.142 89.304C836.134 89.032 837.142 88.896 838.166 88.896C840.134 88.896 841.662 89.36 842.75 90.288C843.838 91.216 844.382 92.664 844.382 94.632V102H840.878ZM836.942 102.192C835.934 102.192 835.07 102.024 834.35 101.688C833.63 101.336 833.078 100.864 832.694 100.272C832.31 99.68 832.118 99.016 832.118 98.28C832.118 97.512 832.302 96.84 832.67 96.264C833.054 95.688 833.654 95.24 834.47 94.92C835.286 94.584 836.35 94.416 837.662 94.416H841.094V96.6H838.07C837.19 96.6 836.582 96.744 836.246 97.032C835.926 97.32 835.766 97.68 835.766 98.112C835.766 98.592 835.95 98.976 836.318 99.264C836.702 99.536 837.222 99.672 837.878 99.672C838.502 99.672 839.062 99.528 839.558 99.24C840.054 98.936 840.414 98.496 840.638 97.92L841.214 99.648C840.942 100.48 840.446 101.112 839.726 101.544C839.006 101.976 838.078 102.192 836.942 102.192ZM854.105 102.192C852.713 102.192 851.473 101.912 850.385 101.352C849.297 100.776 848.441 99.984 847.817 98.976C847.209 97.968 846.905 96.824 846.905 95.544C846.905 94.248 847.209 93.104 847.817 92.112C848.441 91.104 849.297 90.32 850.385 89.76C851.473 89.184 852.713 88.896 854.105 88.896C855.465 88.896 856.649 89.184 857.657 89.76C858.665 90.32 859.409 91.128 859.889 92.184L856.985 93.744C856.649 93.136 856.225 92.688 855.713 92.4C855.217 92.112 854.673 91.968 854.081 91.968C853.441 91.968 852.865 92.112 852.353 92.4C851.841 92.688 851.433 93.096 851.129 93.624C850.841 94.152 850.697 94.792 850.697 95.544C850.697 96.296 850.841 96.936 851.129 97.464C851.433 97.992 851.841 98.4 852.353 98.688C852.865 98.976 853.441 99.12 854.081 99.12C854.673 99.12 855.217 98.984 855.713 98.712C856.225 98.424 856.649 97.968 856.985 97.344L859.889 98.928C859.409 99.968 858.665 100.776 857.657 101.352C856.649 101.912 855.465 102.192 854.105 102.192ZM861.974 102V89.088H865.718V102H861.974ZM863.846 87.288C863.158 87.288 862.598 87.088 862.166 86.688C861.734 86.288 861.518 85.792 861.518 85.2C861.518 84.608 861.734 84.112 862.166 83.712C862.598 83.312 863.158 83.112 863.846 83.112C864.534 83.112 865.094 83.304 865.526 83.688C865.958 84.056 866.174 84.536 866.174 85.128C866.174 85.752 865.958 86.272 865.526 86.688C865.11 87.088 864.55 87.288 863.846 87.288ZM869.193 102V84.192H872.937V102H869.193ZM876.412 102V89.088H880.156V102H876.412ZM878.284 87.288C877.596 87.288 877.036 87.088 876.604 86.688C876.172 86.288 875.956 85.792 875.956 85.2C875.956 84.608 876.172 84.112 876.604 83.712C877.036 83.312 877.596 83.112 878.284 83.112C878.972 83.112 879.532 83.304 879.964 83.688C880.396 84.056 880.612 84.536 880.612 85.128C880.612 85.752 880.396 86.272 879.964 86.688C879.548 87.088 878.988 87.288 878.284 87.288ZM888.91 102.192C887.39 102.192 886.206 101.808 885.358 101.04C884.51 100.256 884.086 99.096 884.086 97.56V86.232H887.83V97.512C887.83 98.056 887.974 98.48 888.262 98.784C888.55 99.072 888.942 99.216 889.438 99.216C890.03 99.216 890.534 99.056 890.95 98.736L891.958 101.376C891.574 101.648 891.11 101.856 890.566 102C890.038 102.128 889.486 102.192 888.91 102.192ZM882.094 92.256V89.376H891.046V92.256H882.094ZM901.98 102V99.48L901.74 98.928V94.416C901.74 93.616 901.492 92.992 900.996 92.544C900.516 92.096 899.772 91.872 898.764 91.872C898.076 91.872 897.396 91.984 896.724 92.208C896.068 92.416 895.508 92.704 895.044 93.072L893.7 90.456C894.404 89.96 895.252 89.576 896.244 89.304C897.236 89.032 898.244 88.896 899.268 88.896C901.236 88.896 902.764 89.36 903.852 90.288C904.94 91.216 905.484 92.664 905.484 94.632V102H901.98ZM898.044 102.192C897.036 102.192 896.172 102.024 895.452 101.688C894.732 101.336 894.18 100.864 893.796 100.272C893.412 99.68 893.22 99.016 893.22 98.28C893.22 97.512 893.404 96.84 893.772 96.264C894.156 95.688 894.756 95.24 895.572 94.92C896.388 94.584 897.452 94.416 898.764 94.416H902.196V96.6H899.172C898.292 96.6 897.684 96.744 897.348 97.032C897.028 97.32 896.868 97.68 896.868 98.112C896.868 98.592 897.052 98.976 897.42 99.264C897.804 99.536 898.324 99.672 898.98 99.672C899.604 99.672 900.164 99.528 900.66 99.24C901.156 98.936 901.516 98.496 901.74 97.92L902.316 99.648C902.044 100.48 901.548 101.112 900.828 101.544C900.108 101.976 899.18 102.192 898.044 102.192ZM915.669 102V84.192H919.413V102H915.669ZM930.808 102V99.48L930.568 98.928V94.416C930.568 93.616 930.32 92.992 929.824 92.544C929.344 92.096 928.6 91.872 927.592 91.872C926.904 91.872 926.224 91.984 925.552 92.208C924.896 92.416 924.336 92.704 923.872 93.072L922.528 90.456C923.232 89.96 924.08 89.576 925.072 89.304C926.064 89.032 927.072 88.896 928.096 88.896C930.064 88.896 931.592 89.36 932.68 90.288C933.768 91.216 934.312 92.664 934.312 94.632V102H930.808ZM926.872 102.192C925.864 102.192 925 102.024 924.28 101.688C923.56 101.336 923.008 100.864 922.624 100.272C922.24 99.68 922.048 99.016 922.048 98.28C922.048 97.512 922.232 96.84 922.6 96.264C922.984 95.688 923.584 95.24 924.4 94.92C925.216 94.584 926.28 94.416 927.592 94.416H931.024V96.6H928C927.12 96.6 926.512 96.744 926.176 97.032C925.856 97.32 925.696 97.68 925.696 98.112C925.696 98.592 925.88 98.976 926.248 99.264C926.632 99.536 927.152 99.672 927.808 99.672C928.432 99.672 928.992 99.528 929.488 99.24C929.984 98.936 930.344 98.496 930.568 97.92L931.144 99.648C930.872 100.48 930.376 101.112 929.656 101.544C928.936 101.976 928.008 102.192 926.872 102.192ZM942.045 102.192C940.941 102.192 939.877 102.064 938.853 101.808C937.845 101.536 937.045 101.2 936.453 100.8L937.701 98.112C938.293 98.48 938.989 98.784 939.789 99.024C940.605 99.248 941.405 99.36 942.189 99.36C943.053 99.36 943.661 99.256 944.013 99.048C944.381 98.84 944.565 98.552 944.565 98.184C944.565 97.88 944.421 97.656 944.133 97.512C943.861 97.352 943.493 97.232 943.029 97.152C942.565 97.072 942.053 96.992 941.493 96.912C940.949 96.832 940.397 96.728 939.837 96.6C939.277 96.456 938.765 96.248 938.301 95.976C937.837 95.704 937.461 95.336 937.173 94.872C936.901 94.408 936.765 93.808 936.765 93.072C936.765 92.256 936.997 91.536 937.461 90.912C937.941 90.288 938.629 89.8 939.525 89.448C940.421 89.08 941.493 88.896 942.741 88.896C943.621 88.896 944.517 88.992 945.429 89.184C946.341 89.376 947.101 89.656 947.709 90.024L946.461 92.688C945.837 92.32 945.205 92.072 944.565 91.944C943.941 91.8 943.333 91.728 942.741 91.728C941.909 91.728 941.301 91.84 940.917 92.064C940.533 92.288 940.341 92.576 940.341 92.928C940.341 93.248 940.477 93.488 940.749 93.648C941.037 93.808 941.413 93.936 941.877 94.032C942.341 94.128 942.845 94.216 943.389 94.296C943.949 94.36 944.509 94.464 945.069 94.608C945.629 94.752 946.133 94.96 946.581 95.232C947.045 95.488 947.421 95.848 947.709 96.312C947.997 96.76 948.141 97.352 948.141 98.088C948.141 98.888 947.901 99.6 947.421 100.224C946.941 100.832 946.245 101.312 945.333 101.664C944.437 102.016 943.341 102.192 942.045 102.192ZM821.287 131V118.088H824.863V121.736L824.359 120.68C824.743 119.768 825.359 119.08 826.207 118.616C827.055 118.136 828.087 117.896 829.303 117.896V121.352C829.143 121.336 828.999 121.328 828.871 121.328C828.743 121.312 828.607 121.304 828.463 121.304C827.439 121.304 826.607 121.6 825.967 122.192C825.343 122.768 825.031 123.672 825.031 124.904V131H821.287ZM837.843 131.192C836.371 131.192 835.075 130.904 833.955 130.328C832.851 129.752 831.995 128.968 831.387 127.976C830.779 126.968 830.475 125.824 830.475 124.544C830.475 123.248 830.771 122.104 831.363 121.112C831.971 120.104 832.795 119.32 833.835 118.76C834.875 118.184 836.051 117.896 837.363 117.896C838.627 117.896 839.763 118.168 840.771 118.712C841.795 119.24 842.603 120.008 843.195 121.016C843.787 122.008 844.083 123.2 844.083 124.592C844.083 124.736 844.075 124.904 844.059 125.096C844.043 125.272 844.027 125.44 844.011 125.6H833.523V123.416H842.043L840.603 124.064C840.603 123.392 840.467 122.808 840.195 122.312C839.923 121.816 839.547 121.432 839.067 121.16C838.587 120.872 838.027 120.728 837.387 120.728C836.747 120.728 836.179 120.872 835.683 121.16C835.203 121.432 834.827 121.824 834.555 122.336C834.283 122.832 834.147 123.424 834.147 124.112V124.688C834.147 125.392 834.299 126.016 834.603 126.56C834.923 127.088 835.363 127.496 835.923 127.784C836.499 128.056 837.171 128.192 837.939 128.192C838.627 128.192 839.227 128.088 839.739 127.88C840.267 127.672 840.747 127.36 841.179 126.944L843.171 129.104C842.579 129.776 841.835 130.296 840.939 130.664C840.043 131.016 839.011 131.192 837.843 131.192ZM852.024 131.192C850.952 131.192 849.992 130.984 849.144 130.568C848.312 130.152 847.664 129.52 847.2 128.672C846.736 127.808 846.504 126.712 846.504 125.384V118.088H850.248V124.832C850.248 125.904 850.472 126.696 850.92 127.208C851.384 127.704 852.032 127.952 852.864 127.952C853.44 127.952 853.952 127.832 854.4 127.592C854.848 127.336 855.2 126.952 855.456 126.44C855.712 125.912 855.84 125.256 855.84 124.472V118.088H859.584V131H856.032V127.448L856.68 128.48C856.248 129.376 855.608 130.056 854.76 130.52C853.928 130.968 853.016 131.192 852.024 131.192ZM870.9 117.896C871.924 117.896 872.836 118.104 873.636 118.52C874.452 118.92 875.092 119.544 875.556 120.392C876.02 121.224 876.252 122.296 876.252 123.608V131H872.508V124.184C872.508 123.144 872.276 122.376 871.812 121.88C871.364 121.384 870.724 121.136 869.892 121.136C869.3 121.136 868.764 121.264 868.284 121.52C867.82 121.76 867.452 122.136 867.18 122.648C866.924 123.16 866.796 123.816 866.796 124.616V131H863.052V118.088H866.628V121.664L865.956 120.584C866.42 119.72 867.084 119.056 867.948 118.592C868.812 118.128 869.796 117.896 870.9 117.896ZM879.646 131V118.088H883.39V131H879.646ZM881.518 116.288C880.83 116.288 880.27 116.088 879.838 115.688C879.406 115.288 879.19 114.792 879.19 114.2C879.19 113.608 879.406 113.112 879.838 112.712C880.27 112.312 880.83 112.112 881.518 112.112C882.206 112.112 882.766 112.304 883.198 112.688C883.63 113.056 883.846 113.536 883.846 114.128C883.846 114.752 883.63 115.272 883.198 115.688C882.782 116.088 882.222 116.288 881.518 116.288ZM893.009 131.192C891.633 131.192 890.409 130.904 889.337 130.328C888.281 129.752 887.441 128.968 886.817 127.976C886.209 126.968 885.905 125.824 885.905 124.544C885.905 123.248 886.209 122.104 886.817 121.112C887.441 120.104 888.281 119.32 889.337 118.76C890.409 118.184 891.633 117.896 893.009 117.896C894.369 117.896 895.585 118.184 896.657 118.76C897.729 119.32 898.569 120.096 899.177 121.088C899.785 122.08 900.089 123.232 900.089 124.544C900.089 125.824 899.785 126.968 899.177 127.976C898.569 128.968 897.729 129.752 896.657 130.328C895.585 130.904 894.369 131.192 893.009 131.192ZM893.009 128.12C893.633 128.12 894.193 127.976 894.689 127.688C895.185 127.4 895.577 126.992 895.865 126.464C896.153 125.92 896.297 125.28 896.297 124.544C896.297 123.792 896.153 123.152 895.865 122.624C895.577 122.096 895.185 121.688 894.689 121.4C894.193 121.112 893.633 120.968 893.009 120.968C892.385 120.968 891.825 121.112 891.329 121.4C890.833 121.688 890.433 122.096 890.129 122.624C889.841 123.152 889.697 123.792 889.697 124.544C889.697 125.28 889.841 125.92 890.129 126.464C890.433 126.992 890.833 127.4 891.329 127.688C891.825 127.976 892.385 128.12 893.009 128.12ZM910.439 117.896C911.463 117.896 912.375 118.104 913.175 118.52C913.991 118.92 914.631 119.544 915.095 120.392C915.559 121.224 915.791 122.296 915.791 123.608V131H912.047V124.184C912.047 123.144 911.815 122.376 911.351 121.88C910.903 121.384 910.263 121.136 909.431 121.136C908.839 121.136 908.303 121.264 907.823 121.52C907.359 121.76 906.991 122.136 906.719 122.648C906.463 123.16 906.335 123.816 906.335 124.616V131H902.591V118.088H906.167V121.664L905.495 120.584C905.959 119.72 906.623 119.056 907.487 118.592C908.351 118.128 909.335 117.896 910.439 117.896ZM925.687 131.192C924.215 131.192 922.919 130.904 921.799 130.328C920.695 129.752 919.839 128.968 919.231 127.976C918.623 126.968 918.319 125.824 918.319 124.544C918.319 123.248 918.615 122.104 919.207 121.112C919.815 120.104 920.639 119.32 921.679 118.76C922.719 118.184 923.895 117.896 925.207 117.896C926.471 117.896 927.607 118.168 928.615 118.712C929.639 119.24 930.447 120.008 931.039 121.016C931.631 122.008 931.927 123.2 931.927 124.592C931.927 124.736 931.919 124.904 931.903 125.096C931.887 125.272 931.871 125.44 931.855 125.6H921.367V123.416H929.887L928.447 124.064C928.447 123.392 928.311 122.808 928.039 122.312C927.767 121.816 927.391 121.432 926.911 121.16C926.431 120.872 925.871 120.728 925.231 120.728C924.591 120.728 924.023 120.872 923.527 121.16C923.047 121.432 922.671 121.824 922.399 122.336C922.127 122.832 921.991 123.424 921.991 124.112V124.688C921.991 125.392 922.143 126.016 922.447 126.56C922.767 127.088 923.207 127.496 923.767 127.784C924.343 128.056 925.015 128.192 925.783 128.192C926.471 128.192 927.071 128.088 927.583 127.88C928.111 127.672 928.591 127.36 929.023 126.944L931.015 129.104C930.423 129.776 929.679 130.296 928.783 130.664C927.887 131.016 926.855 131.192 925.687 131.192ZM938.763 131.192C937.659 131.192 936.595 131.064 935.571 130.808C934.563 130.536 933.763 130.2 933.171 129.8L934.419 127.112C935.011 127.48 935.707 127.784 936.507 128.024C937.323 128.248 938.123 128.36 938.907 128.36C939.771 128.36 940.379 128.256 940.731 128.048C941.099 127.84 941.283 127.552 941.283 127.184C941.283 126.88 941.139 126.656 940.851 126.512C940.579 126.352 940.211 126.232 939.747 126.152C939.283 126.072 938.771 125.992 938.211 125.912C937.667 125.832 937.115 125.728 936.555 125.6C935.995 125.456 935.483 125.248 935.019 124.976C934.555 124.704 934.179 124.336 933.891 123.872C933.619 123.408 933.483 122.808 933.483 122.072C933.483 121.256 933.715 120.536 934.179 119.912C934.659 119.288 935.347 118.8 936.243 118.448C937.139 118.08 938.211 117.896 939.459 117.896C940.339 117.896 941.235 117.992 942.147 118.184C943.059 118.376 943.819 118.656 944.427 119.024L943.179 121.688C942.555 121.32 941.923 121.072 941.283 120.944C940.659 120.8 940.051 120.728 939.459 120.728C938.627 120.728 938.019 120.84 937.635 121.064C937.251 121.288 937.059 121.576 937.059 121.928C937.059 122.248 937.195 122.488 937.467 122.648C937.755 122.808 938.131 122.936 938.595 123.032C939.059 123.128 939.563 123.216 940.107 123.296C940.667 123.36 941.227 123.464 941.787 123.608C942.347 123.752 942.851 123.96 943.299 124.232C943.763 124.488 944.139 124.848 944.427 125.312C944.715 125.76 944.859 126.352 944.859 127.088C944.859 127.888 944.619 128.6 944.139 129.224C943.659 129.832 942.963 130.312 942.051 130.664C941.155 131.016 940.059 131.192 938.763 131.192Z" fill="#87549F"/>
<mask id="mask0_621_4795" style="mask-type:alpha" maskUnits="userSpaceOnUse" x="529" y="230" width="145" height="145">
<rect x="530.045" y="278.653" width="106.647" height="106.647" transform="rotate(-26.3004 530.045 278.653)" fill="#FEFEFE" stroke="#253A74"/>
</mask>
<g mask="url(#mask0_621_4795)">
<path d="M573.246 336.796L573.24 336.784L573.229 336.79L565.198 340.759L547.318 304.581C546.226 302.373 546.078 300.094 546.874 297.744C547.669 295.394 549.171 293.673 551.38 292.581L607.669 264.761L643.709 276.96L653.638 297.049L645.607 301.018L645.596 301.023L645.601 301.035C647.256 304.383 647.491 307.807 646.305 311.309C645.12 314.81 642.854 317.388 639.506 319.043C636.158 320.698 632.734 320.932 629.232 319.747C625.73 318.562 623.152 316.295 621.498 312.948L621.492 312.936L621.481 312.942L597.355 324.866L597.344 324.871L597.349 324.883C599.004 328.231 599.239 331.655 598.054 335.157C596.868 338.658 594.602 341.236 591.254 342.891C587.906 344.546 584.482 344.78 580.98 343.595C577.479 342.41 574.901 340.143 573.246 336.796ZM609.551 288.833L609.557 288.844L609.568 288.838L625.652 280.889L625.679 280.876L625.651 280.866L607.626 274.765L607.627 274.76L607.616 274.766L603.595 276.753L603.584 276.759L603.589 276.77L609.551 288.833ZM585.425 300.757L585.431 300.768L585.442 300.762L601.526 292.813L601.537 292.808L601.532 292.796L595.57 280.733L595.564 280.722L595.553 280.728L579.469 288.677L579.458 288.683L579.463 288.694L585.425 300.757ZM561.3 312.681L561.305 312.692L561.316 312.686L577.4 304.737L577.411 304.732L577.406 304.72L571.444 292.657L571.438 292.646L571.427 292.652L555.343 300.601L555.332 300.607L555.338 300.618L561.3 312.681ZM569.249 328.765L569.254 328.776L569.266 328.77L572.482 327.18L572.485 327.186L572.489 327.173C573.031 325.405 573.857 323.789 574.966 322.324C576.075 320.86 577.533 319.681 579.341 318.787C581.149 317.894 582.971 317.451 584.808 317.46C586.645 317.468 588.431 317.794 590.165 318.437L590.163 318.442L590.175 318.436L620.734 303.332L620.737 303.338L620.741 303.325C621.283 301.557 622.109 299.941 623.218 298.476C624.327 297.012 625.785 295.833 627.593 294.939C629.401 294.046 631.223 293.603 633.06 293.612C634.897 293.62 636.683 293.946 638.417 294.589L638.415 294.594L638.427 294.588L641.643 292.998L641.655 292.993L641.649 292.982L637.674 284.94L637.669 284.928L637.658 284.934L565.28 320.706L565.269 320.712L565.274 320.723L569.249 328.765ZM587.787 335.877C589.198 335.18 590.149 334.103 590.642 332.648C591.134 331.193 591.032 329.76 590.335 328.349C589.638 326.939 588.562 325.987 587.107 325.495C585.651 325.002 584.218 325.105 582.808 325.802C581.398 326.499 580.446 327.575 579.953 329.03C579.461 330.485 579.563 331.919 580.26 333.329C580.957 334.739 582.034 335.691 583.489 336.183C584.944 336.676 586.377 336.574 587.787 335.877ZM636.039 312.029C637.449 311.332 638.401 310.255 638.894 308.8C639.386 307.345 639.284 305.912 638.587 304.501C637.89 303.091 636.814 302.139 635.358 301.647C633.903 301.154 632.47 301.257 631.06 301.954C629.65 302.651 628.698 303.727 628.205 305.182C627.713 306.637 627.815 308.071 628.512 309.481C629.209 310.891 630.285 311.843 631.741 312.335C633.196 312.828 634.629 312.726 636.039 312.029Z" fill="#253A74" stroke="#253A74" stroke-width="0.025"/>
</g>
<path d="M136.468 155.567L136.468 155.567C135.551 153.046 135.551 150.528 136.471 148.014C137.39 145.499 139.028 143.625 141.385 142.393C143.742 141.161 146.215 140.885 148.805 141.565C151.394 142.246 153.462 143.682 155.008 145.874L157.362 149.232L161.389 148.922C161.389 148.922 161.389 148.922 161.389 148.922C163.5 148.751 165.504 149.171 167.398 150.181C169.293 151.191 170.734 152.639 171.72 154.524C173.088 157.143 173.336 159.848 172.461 162.639C171.586 165.43 169.839 167.511 167.221 168.879L148.389 178.724C145.771 180.093 143.065 180.34 140.274 179.466C137.483 178.591 135.403 176.844 134.034 174.226C133.048 172.34 132.681 170.331 132.934 168.199C133.186 166.067 133.984 164.182 135.329 162.545L136.468 155.567ZM136.468 155.567L137.882 159.416L135.329 162.545L136.468 155.567ZM170.789 190.993L172.751 189.967L175.287 194.819L165.118 200.135L162.582 195.283L164.511 194.275L164.522 194.269L164.517 194.258L157.953 181.703L157.948 181.692L157.936 181.698L151.659 184.98C147.32 187.248 142.823 187.652 138.166 186.193C133.509 184.734 130.047 181.835 127.779 177.496C126.139 174.359 125.492 171.02 125.837 167.479C126.182 163.937 127.503 160.8 129.802 158.067L129.812 158.076L129.804 158.055C128.225 153.888 128.222 149.713 129.796 145.529C131.369 141.345 134.142 138.215 138.115 136.138C142.088 134.061 146.241 133.571 150.574 134.667C154.908 135.762 158.335 138.147 160.855 141.822L160.844 141.83L160.866 141.827C164.422 141.499 167.752 142.204 170.857 143.942C173.963 145.68 176.335 148.118 177.975 151.254C180.243 155.593 180.647 160.09 179.188 164.747C177.729 169.404 174.83 172.866 170.491 175.135L164.214 178.416L164.203 178.422L164.208 178.433L170.772 190.988L170.778 190.999L170.789 190.993Z" fill="#253A74" stroke="#253A74" stroke-width="0.025"/>
<path d="M757.468 199.567L757.468 199.567C756.551 197.046 756.551 194.528 757.471 192.014C758.39 189.499 760.028 187.625 762.385 186.393C764.742 185.161 767.215 184.885 769.805 185.565C772.394 186.246 774.462 187.682 776.008 189.874L778.362 193.232L782.389 192.922C782.389 192.922 782.389 192.922 782.389 192.922C784.5 192.751 786.504 193.171 788.398 194.181C790.293 195.191 791.734 196.639 792.72 198.524C794.088 201.143 794.336 203.848 793.461 206.639C792.586 209.43 790.839 211.511 788.221 212.879L769.389 222.724C766.771 224.093 764.065 224.34 761.274 223.466C758.483 222.591 756.403 220.844 755.034 218.226C754.048 216.34 753.681 214.331 753.934 212.199C754.186 210.067 754.984 208.182 756.329 206.545L757.468 199.567ZM757.468 199.567L758.882 203.416L756.329 206.545L757.468 199.567ZM791.789 234.993L793.751 233.967L796.287 238.819L786.118 244.135L783.582 239.283L785.511 238.275L785.522 238.269L785.517 238.258L778.953 225.703L778.948 225.692L778.936 225.698L772.659 228.98C768.32 231.248 763.823 231.652 759.166 230.193C754.509 228.734 751.047 225.835 748.779 221.496C747.139 218.359 746.492 215.02 746.837 211.479C747.182 207.937 748.503 204.8 750.802 202.067L750.812 202.076L750.804 202.055C749.225 197.888 749.222 193.713 750.796 189.529C752.369 185.345 755.142 182.215 759.115 180.138C763.088 178.061 767.241 177.571 771.574 178.667C775.908 179.762 779.335 182.147 781.855 185.822L781.844 185.83L781.866 185.827C785.422 185.499 788.752 186.204 791.857 187.942C794.963 189.68 797.335 192.118 798.975 195.254C801.243 199.593 801.647 204.09 800.188 208.747C798.729 213.404 795.83 216.866 791.491 219.135L785.214 222.416L785.203 222.422L785.208 222.433L791.772 234.988L791.778 234.999L791.789 234.993Z" fill="#253A74" stroke="#253A74" stroke-width="0.025"/>
<path d="M899.468 309.567L899.468 309.567C898.551 307.046 898.551 304.528 899.471 302.014C900.39 299.499 902.028 297.625 904.385 296.393C906.742 295.161 909.215 294.885 911.805 295.565C914.394 296.246 916.462 297.682 918.008 299.874L920.362 303.232L924.389 302.922C924.389 302.922 924.389 302.922 924.389 302.922C926.5 302.751 928.504 303.171 930.398 304.181C932.293 305.191 933.734 306.639 934.72 308.524C936.088 311.143 936.336 313.848 935.461 316.639C934.586 319.43 932.839 321.511 930.221 322.879L911.389 332.724C908.771 334.093 906.065 334.34 903.274 333.466C900.483 332.591 898.403 330.844 897.034 328.226C896.048 326.34 895.681 324.331 895.934 322.199C896.186 320.067 896.984 318.182 898.329 316.545L899.468 309.567ZM899.468 309.567L900.882 313.416L898.329 316.545L899.468 309.567ZM933.789 344.993L935.751 343.967L938.287 348.819L928.118 354.135L925.582 349.283L927.511 348.275L927.522 348.269L927.517 348.258L920.953 335.703L920.948 335.692L920.936 335.698L914.659 338.98C910.32 341.248 905.823 341.652 901.166 340.193C896.509 338.734 893.047 335.835 890.779 331.496C889.139 328.359 888.492 325.02 888.837 321.479C889.182 317.937 890.503 314.8 892.802 312.067L892.812 312.076L892.804 312.055C891.225 307.888 891.222 303.713 892.796 299.529C894.369 295.345 897.142 292.215 901.115 290.138C905.088 288.061 909.241 287.571 913.574 288.667C917.908 289.762 921.335 292.147 923.855 295.822L923.844 295.83L923.866 295.827C927.422 295.499 930.752 296.204 933.857 297.942C936.963 299.68 939.335 302.118 940.975 305.254C943.243 309.593 943.647 314.09 942.188 318.747C940.729 323.404 937.83 326.866 933.491 329.135L927.214 332.416L927.203 332.422L927.208 332.433L933.772 344.988L933.778 344.999L933.789 344.993Z" fill="#253A74" stroke="#253A74" stroke-width="0.025"/>
<path d="M1232.47 319.567L1232.47 319.567C1231.55 317.046 1231.55 314.528 1232.47 312.014C1233.39 309.499 1235.03 307.625 1237.38 306.393C1239.74 305.161 1242.22 304.885 1244.8 305.565C1247.39 306.246 1249.46 307.682 1251.01 309.874L1253.36 313.232L1257.39 312.922C1257.39 312.922 1257.39 312.922 1257.39 312.922C1259.5 312.751 1261.5 313.171 1263.4 314.181C1265.29 315.191 1266.73 316.639 1267.72 318.524C1269.09 321.143 1269.34 323.848 1268.46 326.639C1267.59 329.43 1265.84 331.511 1263.22 332.879L1244.39 342.724C1241.77 344.093 1239.07 344.34 1236.27 343.466C1233.48 342.591 1231.4 340.844 1230.03 338.226C1229.05 336.34 1228.68 334.331 1228.93 332.199C1229.19 330.067 1229.98 328.182 1231.33 326.545L1232.47 319.567ZM1232.47 319.567L1233.88 323.416L1231.33 326.545L1232.47 319.567ZM1266.79 354.993L1268.75 353.967L1271.29 358.819L1261.12 364.135L1258.58 359.283L1260.51 358.275L1260.52 358.269L1260.52 358.258L1253.95 345.703L1253.95 345.692L1253.94 345.698L1247.66 348.98C1243.32 351.248 1238.82 351.652 1234.17 350.193C1229.51 348.734 1226.05 345.835 1223.78 341.496C1222.14 338.359 1221.49 335.02 1221.84 331.479C1222.18 327.937 1223.5 324.8 1225.8 322.067L1225.81 322.076L1225.8 322.055C1224.23 317.888 1224.22 313.713 1225.8 309.529C1227.37 305.345 1230.14 302.215 1234.11 300.138C1238.09 298.061 1242.24 297.571 1246.57 298.667C1250.91 299.762 1254.33 302.147 1256.85 305.822L1256.84 305.83L1256.87 305.827C1260.42 305.499 1263.75 306.204 1266.86 307.942C1269.96 309.68 1272.33 312.118 1273.97 315.254C1276.24 319.593 1276.65 324.09 1275.19 328.747C1273.73 333.404 1270.83 336.866 1266.49 339.135L1260.21 342.416L1260.2 342.422L1260.21 342.433L1266.77 354.988L1266.78 354.999L1266.79 354.993Z" fill="#253A74" stroke="#253A74" stroke-width="0.025"/>
<path d="M214.989 53.288C213.693 53.288 212.485 53.08 211.365 52.664C210.261 52.232 209.301 51.624 208.485 50.84C207.669 50.056 207.029 49.136 206.565 48.08C206.117 47.024 205.893 45.864 205.893 44.6C205.893 43.336 206.117 42.176 206.565 41.12C207.029 40.064 207.669 39.144 208.485 38.36C209.317 37.576 210.285 36.976 211.389 36.56C212.493 36.128 213.701 35.912 215.013 35.912C216.469 35.912 217.781 36.168 218.949 36.68C220.133 37.176 221.125 37.912 221.925 38.888L219.429 41.192C218.853 40.536 218.213 40.048 217.509 39.728C216.805 39.392 216.037 39.224 215.205 39.224C214.421 39.224 213.701 39.352 213.045 39.608C212.389 39.864 211.821 40.232 211.341 40.712C210.861 41.192 210.485 41.76 210.213 42.416C209.957 43.072 209.829 43.8 209.829 44.6C209.829 45.4 209.957 46.128 210.213 46.784C210.485 47.44 210.861 48.008 211.341 48.488C211.821 48.968 212.389 49.336 213.045 49.592C213.701 49.848 214.421 49.976 215.205 49.976C216.037 49.976 216.805 49.816 217.509 49.496C218.213 49.16 218.853 48.656 219.429 47.984L221.925 50.288C221.125 51.264 220.133 52.008 218.949 52.52C217.781 53.032 216.461 53.288 214.989 53.288ZM229.985 53.192C228.609 53.192 227.385 52.904 226.313 52.328C225.257 51.752 224.417 50.968 223.793 49.976C223.185 48.968 222.881 47.824 222.881 46.544C222.881 45.248 223.185 44.104 223.793 43.112C224.417 42.104 225.257 41.32 226.313 40.76C227.385 40.184 228.609 39.896 229.985 39.896C231.345 39.896 232.561 40.184 233.633 40.76C234.705 41.32 235.545 42.096 236.153 43.088C236.761 44.08 237.065 45.232 237.065 46.544C237.065 47.824 236.761 48.968 236.153 49.976C235.545 50.968 234.705 51.752 233.633 52.328C232.561 52.904 231.345 53.192 229.985 53.192ZM229.985 50.12C230.609 50.12 231.169 49.976 231.665 49.688C232.161 49.4 232.553 48.992 232.841 48.464C233.129 47.92 233.273 47.28 233.273 46.544C233.273 45.792 233.129 45.152 232.841 44.624C232.553 44.096 232.161 43.688 231.665 43.4C231.169 43.112 230.609 42.968 229.985 42.968C229.361 42.968 228.801 43.112 228.305 43.4C227.809 43.688 227.409 44.096 227.105 44.624C226.817 45.152 226.673 45.792 226.673 46.544C226.673 47.28 226.817 47.92 227.105 48.464C227.409 48.992 227.809 49.4 228.305 49.688C228.801 49.976 229.361 50.12 229.985 50.12ZM256.104 39.896C257.128 39.896 258.032 40.104 258.816 40.52C259.616 40.92 260.24 41.544 260.688 42.392C261.152 43.224 261.384 44.296 261.384 45.608V53H257.64V46.184C257.64 45.144 257.424 44.376 256.992 43.88C256.56 43.384 255.952 43.136 255.168 43.136C254.624 43.136 254.136 43.264 253.704 43.52C253.272 43.76 252.936 44.128 252.696 44.624C252.456 45.12 252.336 45.752 252.336 46.52V53H248.592V46.184C248.592 45.144 248.376 44.376 247.944 43.88C247.528 43.384 246.928 43.136 246.144 43.136C245.6 43.136 245.112 43.264 244.68 43.52C244.248 43.76 243.912 44.128 243.672 44.624C243.432 45.12 243.312 45.752 243.312 46.52V53H239.568V40.088H243.144V43.616L242.472 42.584C242.92 41.704 243.552 41.04 244.368 40.592C245.2 40.128 246.144 39.896 247.2 39.896C248.384 39.896 249.416 40.2 250.296 40.808C251.192 41.4 251.784 42.312 252.072 43.544L250.752 43.184C251.184 42.176 251.872 41.376 252.816 40.784C253.776 40.192 254.872 39.896 256.104 39.896ZM272.372 53.192C271.284 53.192 270.332 52.952 269.516 52.472C268.7 51.992 268.06 51.264 267.596 50.288C267.148 49.296 266.924 48.048 266.924 46.544C266.924 45.024 267.14 43.776 267.572 42.8C268.004 41.824 268.628 41.096 269.444 40.616C270.26 40.136 271.236 39.896 272.372 39.896C273.588 39.896 274.676 40.176 275.636 40.736C276.612 41.28 277.38 42.048 277.94 43.04C278.516 44.032 278.804 45.2 278.804 46.544C278.804 47.904 278.516 49.08 277.94 50.072C277.38 51.064 276.612 51.832 275.636 52.376C274.676 52.92 273.588 53.192 272.372 53.192ZM264.74 57.656V40.088H268.316V42.728L268.244 46.568L268.484 50.384V57.656H264.74ZM271.724 50.12C272.348 50.12 272.9 49.976 273.38 49.688C273.876 49.4 274.268 48.992 274.556 48.464C274.86 47.92 275.012 47.28 275.012 46.544C275.012 45.792 274.86 45.152 274.556 44.624C274.268 44.096 273.876 43.688 273.38 43.4C272.9 43.112 272.348 42.968 271.724 42.968C271.1 42.968 270.54 43.112 270.044 43.4C269.548 43.688 269.156 44.096 268.868 44.624C268.58 45.152 268.436 45.792 268.436 46.544C268.436 47.28 268.58 47.92 268.868 48.464C269.156 48.992 269.548 49.4 270.044 49.688C270.54 49.976 271.1 50.12 271.724 50.12ZM289.019 53V50.48L288.779 49.928V45.416C288.779 44.616 288.531 43.992 288.035 43.544C287.555 43.096 286.811 42.872 285.803 42.872C285.115 42.872 284.435 42.984 283.763 43.208C283.107 43.416 282.547 43.704 282.083 44.072L280.739 41.456C281.443 40.96 282.291 40.576 283.283 40.304C284.275 40.032 285.283 39.896 286.307 39.896C288.275 39.896 289.803 40.36 290.891 41.288C291.979 42.216 292.523 43.664 292.523 45.632V53H289.019ZM285.083 53.192C284.075 53.192 283.211 53.024 282.491 52.688C281.771 52.336 281.219 51.864 280.835 51.272C280.451 50.68 280.259 50.016 280.259 49.28C280.259 48.512 280.443 47.84 280.811 47.264C281.195 46.688 281.795 46.24 282.611 45.92C283.427 45.584 284.491 45.416 285.803 45.416H289.235V47.6H286.211C285.331 47.6 284.723 47.744 284.387 48.032C284.067 48.32 283.907 48.68 283.907 49.112C283.907 49.592 284.091 49.976 284.459 50.264C284.843 50.536 285.363 50.672 286.019 50.672C286.643 50.672 287.203 50.528 287.699 50.24C288.195 49.936 288.555 49.496 288.779 48.92L289.355 50.648C289.083 51.48 288.587 52.112 287.867 52.544C287.147 52.976 286.219 53.192 285.083 53.192ZM295.912 53V40.088H299.488V43.736L298.984 42.68C299.368 41.768 299.984 41.08 300.832 40.616C301.68 40.136 302.712 39.896 303.928 39.896V43.352C303.768 43.336 303.624 43.328 303.496 43.328C303.368 43.312 303.232 43.304 303.088 43.304C302.064 43.304 301.232 43.6 300.592 44.192C299.968 44.768 299.656 45.672 299.656 46.904V53H295.912ZM311.879 53.192C310.359 53.192 309.175 52.808 308.327 52.04C307.479 51.256 307.055 50.096 307.055 48.56V37.232H310.799V48.512C310.799 49.056 310.943 49.48 311.231 49.784C311.519 50.072 311.911 50.216 312.407 50.216C312.999 50.216 313.503 50.056 313.919 49.736L314.927 52.376C314.543 52.648 314.079 52.856 313.535 53C313.007 53.128 312.455 53.192 311.879 53.192ZM305.063 43.256V40.376H314.015V43.256H305.063ZM323.038 53.192C321.566 53.192 320.27 52.904 319.15 52.328C318.046 51.752 317.19 50.968 316.582 49.976C315.974 48.968 315.67 47.824 315.67 46.544C315.67 45.248 315.966 44.104 316.558 43.112C317.166 42.104 317.99 41.32 319.03 40.76C320.07 40.184 321.246 39.896 322.558 39.896C323.822 39.896 324.958 40.168 325.966 40.712C326.99 41.24 327.798 42.008 328.39 43.016C328.982 44.008 329.278 45.2 329.278 46.592C329.278 46.736 329.27 46.904 329.254 47.096C329.238 47.272 329.222 47.44 329.206 47.6H318.718V45.416H327.238L325.798 46.064C325.798 45.392 325.662 44.808 325.39 44.312C325.118 43.816 324.742 43.432 324.262 43.16C323.782 42.872 323.222 42.728 322.582 42.728C321.942 42.728 321.374 42.872 320.878 43.16C320.398 43.432 320.022 43.824 319.75 44.336C319.478 44.832 319.342 45.424 319.342 46.112V46.688C319.342 47.392 319.494 48.016 319.798 48.56C320.118 49.088 320.558 49.496 321.118 49.784C321.694 50.056 322.366 50.192 323.134 50.192C323.822 50.192 324.422 50.088 324.934 49.88C325.462 49.672 325.942 49.36 326.374 48.944L328.366 51.104C327.774 51.776 327.03 52.296 326.134 52.664C325.238 53.016 324.206 53.192 323.038 53.192ZM205.794 82V69.088H209.538V82H205.794ZM207.666 67.288C206.978 67.288 206.418 67.088 205.986 66.688C205.554 66.288 205.338 65.792 205.338 65.2C205.338 64.608 205.554 64.112 205.986 63.712C206.418 63.312 206.978 63.112 207.666 63.112C208.354 63.112 208.914 63.304 209.346 63.688C209.778 64.056 209.994 64.536 209.994 65.128C209.994 65.752 209.778 66.272 209.346 66.688C208.93 67.088 208.37 67.288 207.666 67.288ZM218.293 82.192C216.773 82.192 215.589 81.808 214.741 81.04C213.893 80.256 213.469 79.096 213.469 77.56V66.232H217.213V77.512C217.213 78.056 217.357 78.48 217.645 78.784C217.933 79.072 218.325 79.216 218.821 79.216C219.413 79.216 219.917 79.056 220.333 78.736L221.341 81.376C220.957 81.648 220.493 81.856 219.949 82C219.421 82.128 218.869 82.192 218.293 82.192ZM211.477 72.256V69.376H220.429V72.256H211.477ZM223.443 82V69.088H227.187V82H223.443ZM225.315 67.288C224.627 67.288 224.067 67.088 223.635 66.688C223.203 66.288 222.987 65.792 222.987 65.2C222.987 64.608 223.203 64.112 223.635 63.712C224.067 63.312 224.627 63.112 225.315 63.112C226.003 63.112 226.563 63.304 226.995 63.688C227.427 64.056 227.643 64.536 227.643 65.128C227.643 65.752 227.427 66.272 226.995 66.688C226.579 67.088 226.019 67.288 225.315 67.288ZM238.51 68.896C239.534 68.896 240.446 69.104 241.246 69.52C242.062 69.92 242.702 70.544 243.166 71.392C243.63 72.224 243.862 73.296 243.862 74.608V82H240.118V75.184C240.118 74.144 239.886 73.376 239.422 72.88C238.974 72.384 238.334 72.136 237.502 72.136C236.91 72.136 236.374 72.264 235.894 72.52C235.43 72.76 235.062 73.136 234.79 73.648C234.534 74.16 234.406 74.816 234.406 75.616V82H230.662V69.088H234.238V72.664L233.566 71.584C234.03 70.72 234.694 70.056 235.558 69.592C236.422 69.128 237.406 68.896 238.51 68.896ZM253.757 82.192C252.285 82.192 250.989 81.904 249.869 81.328C248.765 80.752 247.909 79.968 247.301 78.976C246.693 77.968 246.389 76.824 246.389 75.544C246.389 74.248 246.685 73.104 247.277 72.112C247.885 71.104 248.709 70.32 249.749 69.76C250.789 69.184 251.965 68.896 253.277 68.896C254.541 68.896 255.677 69.168 256.685 69.712C257.709 70.24 258.517 71.008 259.109 72.016C259.701 73.008 259.997 74.2 259.997 75.592C259.997 75.736 259.989 75.904 259.973 76.096C259.957 76.272 259.941 76.44 259.925 76.6H249.437V74.416H257.957L256.517 75.064C256.517 74.392 256.381 73.808 256.109 73.312C255.837 72.816 255.461 72.432 254.981 72.16C254.501 71.872 253.941 71.728 253.301 71.728C252.661 71.728 252.093 71.872 251.597 72.16C251.117 72.432 250.741 72.824 250.469 73.336C250.197 73.832 250.061 74.424 250.061 75.112V75.688C250.061 76.392 250.213 77.016 250.517 77.56C250.837 78.088 251.277 78.496 251.837 78.784C252.413 79.056 253.085 79.192 253.853 79.192C254.541 79.192 255.141 79.088 255.653 78.88C256.181 78.672 256.661 78.36 257.093 77.944L259.085 80.104C258.493 80.776 257.749 81.296 256.853 81.664C255.957 82.016 254.925 82.192 253.757 82.192ZM262.49 82V69.088H266.066V72.736L265.562 71.68C265.946 70.768 266.562 70.08 267.41 69.616C268.258 69.136 269.29 68.896 270.506 68.896V72.352C270.346 72.336 270.202 72.328 270.074 72.328C269.946 72.312 269.81 72.304 269.666 72.304C268.642 72.304 267.81 72.6 267.17 73.192C266.546 73.768 266.234 74.672 266.234 75.904V82H262.49ZM279.808 82V79.48L279.568 78.928V74.416C279.568 73.616 279.32 72.992 278.824 72.544C278.344 72.096 277.6 71.872 276.592 71.872C275.904 71.872 275.224 71.984 274.552 72.208C273.896 72.416 273.336 72.704 272.872 73.072L271.528 70.456C272.232 69.96 273.08 69.576 274.072 69.304C275.064 69.032 276.072 68.896 277.096 68.896C279.064 68.896 280.592 69.36 281.68 70.288C282.768 71.216 283.312 72.664 283.312 74.632V82H279.808ZM275.872 82.192C274.864 82.192 274 82.024 273.28 81.688C272.56 81.336 272.008 80.864 271.624 80.272C271.24 79.68 271.048 79.016 271.048 78.28C271.048 77.512 271.232 76.84 271.6 76.264C271.984 75.688 272.584 75.24 273.4 74.92C274.216 74.584 275.28 74.416 276.592 74.416H280.024V76.6H277C276.12 76.6 275.512 76.744 275.176 77.032C274.856 77.32 274.696 77.68 274.696 78.112C274.696 78.592 274.88 78.976 275.248 79.264C275.632 79.536 276.152 79.672 276.808 79.672C277.432 79.672 277.992 79.528 278.488 79.24C278.984 78.936 279.344 78.496 279.568 77.92L280.144 79.648C279.872 80.48 279.376 81.112 278.656 81.544C277.936 81.976 277.008 82.192 275.872 82.192ZM286.701 82V69.088H290.277V72.736L289.773 71.68C290.157 70.768 290.773 70.08 291.621 69.616C292.469 69.136 293.501 68.896 294.717 68.896V72.352C294.557 72.336 294.413 72.328 294.285 72.328C294.157 72.312 294.021 72.304 293.877 72.304C292.853 72.304 292.021 72.6 291.381 73.192C290.757 73.768 290.445 74.672 290.445 75.904V82H286.701ZM296.966 82V69.088H300.71V82H296.966ZM298.838 67.288C298.15 67.288 297.59 67.088 297.158 66.688C296.726 66.288 296.51 65.792 296.51 65.2C296.51 64.608 296.726 64.112 297.158 63.712C297.59 63.312 298.15 63.112 298.838 63.112C299.526 63.112 300.086 63.304 300.518 63.688C300.95 64.056 301.166 64.536 301.166 65.128C301.166 65.752 300.95 66.272 300.518 66.688C300.102 67.088 299.542 67.288 298.838 67.288ZM310.329 82.192C308.953 82.192 307.729 81.904 306.657 81.328C305.601 80.752 304.761 79.968 304.137 78.976C303.529 77.968 303.225 76.824 303.225 75.544C303.225 74.248 303.529 73.104 304.137 72.112C304.761 71.104 305.601 70.32 306.657 69.76C307.729 69.184 308.953 68.896 310.329 68.896C311.689 68.896 312.905 69.184 313.977 69.76C315.049 70.32 315.889 71.096 316.497 72.088C317.105 73.08 317.409 74.232 317.409 75.544C317.409 76.824 317.105 77.968 316.497 78.976C315.889 79.968 315.049 80.752 313.977 81.328C312.905 81.904 311.689 82.192 310.329 82.192ZM310.329 79.12C310.953 79.12 311.513 78.976 312.009 78.688C312.505 78.4 312.897 77.992 313.185 77.464C313.473 76.92 313.617 76.28 313.617 75.544C313.617 74.792 313.473 74.152 313.185 73.624C312.897 73.096 312.505 72.688 312.009 72.4C311.513 72.112 310.953 71.968 310.329 71.968C309.705 71.968 309.145 72.112 308.649 72.4C308.153 72.688 307.753 73.096 307.449 73.624C307.161 74.152 307.017 74.792 307.017 75.544C307.017 76.28 307.161 76.92 307.449 77.464C307.753 77.992 308.153 78.4 308.649 78.688C309.145 78.976 309.705 79.12 310.329 79.12ZM324.256 82.192C323.152 82.192 322.088 82.064 321.064 81.808C320.056 81.536 319.256 81.2 318.664 80.8L319.912 78.112C320.504 78.48 321.2 78.784 322 79.024C322.816 79.248 323.616 79.36 324.4 79.36C325.264 79.36 325.872 79.256 326.224 79.048C326.592 78.84 326.776 78.552 326.776 78.184C326.776 77.88 326.632 77.656 326.344 77.512C326.072 77.352 325.704 77.232 325.24 77.152C324.776 77.072 324.264 76.992 323.704 76.912C323.16 76.832 322.608 76.728 322.048 76.6C321.488 76.456 320.976 76.248 320.512 75.976C320.048 75.704 319.672 75.336 319.384 74.872C319.112 74.408 318.976 73.808 318.976 73.072C318.976 72.256 319.208 71.536 319.672 70.912C320.152 70.288 320.84 69.8 321.736 69.448C322.632 69.08 323.704 68.896 324.952 68.896C325.832 68.896 326.728 68.992 327.64 69.184C328.552 69.376 329.312 69.656 329.92 70.024L328.672 72.688C328.048 72.32 327.416 72.072 326.776 71.944C326.152 71.8 325.544 71.728 324.952 71.728C324.12 71.728 323.512 71.84 323.128 72.064C322.744 72.288 322.552 72.576 322.552 72.928C322.552 73.248 322.688 73.488 322.96 73.648C323.248 73.808 323.624 73.936 324.088 74.032C324.552 74.128 325.056 74.216 325.6 74.296C326.16 74.36 326.72 74.464 327.28 74.608C327.84 74.752 328.344 74.96 328.792 75.232C329.256 75.488 329.632 75.848 329.92 76.312C330.208 76.76 330.352 77.352 330.352 78.088C330.352 78.888 330.112 79.6 329.632 80.224C329.152 80.832 328.456 81.312 327.544 81.664C326.648 82.016 325.552 82.192 324.256 82.192Z" fill="#87549F"/>
<path d="M1161.15 445.288C1159.86 445.288 1158.65 445.08 1157.53 444.664C1156.43 444.232 1155.47 443.624 1154.65 442.84C1153.83 442.056 1153.19 441.136 1152.73 440.08C1152.28 439.024 1152.06 437.864 1152.06 436.6C1152.06 435.336 1152.28 434.176 1152.73 433.12C1153.19 432.064 1153.83 431.144 1154.65 430.36C1155.48 429.576 1156.45 428.976 1157.55 428.56C1158.66 428.128 1159.87 427.912 1161.18 427.912C1162.63 427.912 1163.95 428.168 1165.11 428.68C1166.3 429.176 1167.29 429.912 1168.09 430.888L1165.59 433.192C1165.02 432.536 1164.38 432.048 1163.67 431.728C1162.97 431.392 1162.2 431.224 1161.37 431.224C1160.59 431.224 1159.87 431.352 1159.21 431.608C1158.55 431.864 1157.99 432.232 1157.51 432.712C1157.03 433.192 1156.65 433.76 1156.38 434.416C1156.12 435.072 1155.99 435.8 1155.99 436.6C1155.99 437.4 1156.12 438.128 1156.38 438.784C1156.65 439.44 1157.03 440.008 1157.51 440.488C1157.99 440.968 1158.55 441.336 1159.21 441.592C1159.87 441.848 1160.59 441.976 1161.37 441.976C1162.2 441.976 1162.97 441.816 1163.67 441.496C1164.38 441.16 1165.02 440.656 1165.59 439.984L1168.09 442.288C1167.29 443.264 1166.3 444.008 1165.11 444.52C1163.95 445.032 1162.63 445.288 1161.15 445.288ZM1178.3 445V442.48L1178.06 441.928V437.416C1178.06 436.616 1177.81 435.992 1177.32 435.544C1176.84 435.096 1176.09 434.872 1175.08 434.872C1174.4 434.872 1173.72 434.984 1173.04 435.208C1172.39 435.416 1171.83 435.704 1171.36 436.072L1170.02 433.456C1170.72 432.96 1171.57 432.576 1172.56 432.304C1173.56 432.032 1174.56 431.896 1175.59 431.896C1177.56 431.896 1179.08 432.36 1180.17 433.288C1181.26 434.216 1181.8 435.664 1181.8 437.632V445H1178.3ZM1174.36 445.192C1173.36 445.192 1172.49 445.024 1171.77 444.688C1171.05 444.336 1170.5 443.864 1170.12 443.272C1169.73 442.68 1169.54 442.016 1169.54 441.28C1169.54 440.512 1169.72 439.84 1170.09 439.264C1170.48 438.688 1171.08 438.24 1171.89 437.92C1172.71 437.584 1173.77 437.416 1175.08 437.416H1178.52V439.6H1175.49C1174.61 439.6 1174 439.744 1173.67 440.032C1173.35 440.32 1173.19 440.68 1173.19 441.112C1173.19 441.592 1173.37 441.976 1173.74 442.264C1174.12 442.536 1174.64 442.672 1175.3 442.672C1175.92 442.672 1176.48 442.528 1176.98 442.24C1177.48 441.936 1177.84 441.496 1178.06 440.92L1178.64 442.648C1178.36 443.48 1177.87 444.112 1177.15 444.544C1176.43 444.976 1175.5 445.192 1174.36 445.192ZM1201.73 431.896C1202.75 431.896 1203.66 432.104 1204.44 432.52C1205.24 432.92 1205.86 433.544 1206.31 434.392C1206.78 435.224 1207.01 436.296 1207.01 437.608V445H1203.26V438.184C1203.26 437.144 1203.05 436.376 1202.62 435.88C1202.18 435.384 1201.58 435.136 1200.79 435.136C1200.25 435.136 1199.76 435.264 1199.33 435.52C1198.9 435.76 1198.56 436.128 1198.32 436.624C1198.08 437.12 1197.96 437.752 1197.96 438.52V445H1194.22V438.184C1194.22 437.144 1194 436.376 1193.57 435.88C1193.15 435.384 1192.55 435.136 1191.77 435.136C1191.22 435.136 1190.74 435.264 1190.3 435.52C1189.87 435.76 1189.54 436.128 1189.3 436.624C1189.06 437.12 1188.94 437.752 1188.94 438.52V445H1185.19V432.088H1188.77V435.616L1188.1 434.584C1188.54 433.704 1189.18 433.04 1189.99 432.592C1190.82 432.128 1191.77 431.896 1192.82 431.896C1194.01 431.896 1195.04 432.2 1195.92 432.808C1196.82 433.4 1197.41 434.312 1197.7 435.544L1196.38 435.184C1196.81 434.176 1197.5 433.376 1198.44 432.784C1199.4 432.192 1200.5 431.896 1201.73 431.896ZM1218 445.192C1216.86 445.192 1215.88 444.952 1215.07 444.472C1214.25 443.992 1213.63 443.264 1213.2 442.288C1212.76 441.296 1212.55 440.048 1212.55 438.544C1212.55 437.024 1212.77 435.776 1213.22 434.8C1213.68 433.824 1214.32 433.096 1215.14 432.616C1215.96 432.136 1216.91 431.896 1218 431.896C1219.21 431.896 1220.3 432.168 1221.26 432.712C1222.24 433.256 1223 434.024 1223.56 435.016C1224.14 436.008 1224.43 437.184 1224.43 438.544C1224.43 439.888 1224.14 441.056 1223.56 442.048C1223 443.04 1222.24 443.816 1221.26 444.376C1220.3 444.92 1219.21 445.192 1218 445.192ZM1210.36 445V427.192H1214.11V434.704L1213.87 438.52L1213.94 442.36V445H1210.36ZM1217.35 442.12C1217.97 442.12 1218.52 441.976 1219 441.688C1219.5 441.4 1219.89 440.992 1220.18 440.464C1220.48 439.92 1220.64 439.28 1220.64 438.544C1220.64 437.792 1220.48 437.152 1220.18 436.624C1219.89 436.096 1219.5 435.688 1219 435.4C1218.52 435.112 1217.97 434.968 1217.35 434.968C1216.72 434.968 1216.16 435.112 1215.67 435.4C1215.17 435.688 1214.78 436.096 1214.49 436.624C1214.2 437.152 1214.06 437.792 1214.06 438.544C1214.06 439.28 1214.2 439.92 1214.49 440.464C1214.78 440.992 1215.17 441.4 1215.67 441.688C1216.16 441.976 1216.72 442.12 1217.35 442.12ZM1226.94 445V432.088H1230.68V445H1226.94ZM1228.81 430.288C1228.12 430.288 1227.56 430.088 1227.13 429.688C1226.7 429.288 1226.48 428.792 1226.48 428.2C1226.48 427.608 1226.7 427.112 1227.13 426.712C1227.56 426.312 1228.12 426.112 1228.81 426.112C1229.5 426.112 1230.06 426.304 1230.49 426.688C1230.92 427.056 1231.14 427.536 1231.14 428.128C1231.14 428.752 1230.92 429.272 1230.49 429.688C1230.07 430.088 1229.51 430.288 1228.81 430.288ZM1242.07 445V442.48L1241.83 441.928V437.416C1241.83 436.616 1241.59 435.992 1241.09 435.544C1240.61 435.096 1239.87 434.872 1238.86 434.872C1238.17 434.872 1237.49 434.984 1236.82 435.208C1236.16 435.416 1235.6 435.704 1235.14 436.072L1233.79 433.456C1234.5 432.96 1235.35 432.576 1236.34 432.304C1237.33 432.032 1238.34 431.896 1239.36 431.896C1241.33 431.896 1242.86 432.36 1243.95 433.288C1245.03 434.216 1245.58 435.664 1245.58 437.632V445H1242.07ZM1238.14 445.192C1237.13 445.192 1236.27 445.024 1235.55 444.688C1234.83 444.336 1234.27 443.864 1233.89 443.272C1233.51 442.68 1233.31 442.016 1233.31 441.28C1233.31 440.512 1233.5 439.84 1233.87 439.264C1234.25 438.688 1234.85 438.24 1235.67 437.92C1236.48 437.584 1237.55 437.416 1238.86 437.416H1242.29V439.6H1239.27C1238.39 439.6 1237.78 439.744 1237.44 440.032C1237.12 440.32 1236.96 440.68 1236.96 441.112C1236.96 441.592 1237.15 441.976 1237.51 442.264C1237.9 442.536 1238.42 442.672 1239.07 442.672C1239.7 442.672 1240.26 442.528 1240.75 442.24C1241.25 441.936 1241.61 441.496 1241.83 440.92L1242.41 442.648C1242.14 443.48 1241.64 444.112 1240.92 444.544C1240.2 444.976 1239.27 445.192 1238.14 445.192ZM1255.76 445V427.192H1259.51V445H1255.76ZM1269.13 445.192C1267.75 445.192 1266.53 444.904 1265.45 444.328C1264.4 443.752 1263.56 442.968 1262.93 441.976C1262.33 440.968 1262.02 439.824 1262.02 438.544C1262.02 437.248 1262.33 436.104 1262.93 435.112C1263.56 434.104 1264.4 433.32 1265.45 432.76C1266.53 432.184 1267.75 431.896 1269.13 431.896C1270.49 431.896 1271.7 432.184 1272.77 432.76C1273.85 433.32 1274.69 434.096 1275.29 435.088C1275.9 436.08 1276.21 437.232 1276.21 438.544C1276.21 439.824 1275.9 440.968 1275.29 441.976C1274.69 442.968 1273.85 443.752 1272.77 444.328C1271.7 444.904 1270.49 445.192 1269.13 445.192ZM1269.13 442.12C1269.75 442.12 1270.31 441.976 1270.81 441.688C1271.3 441.4 1271.69 440.992 1271.98 440.464C1272.27 439.92 1272.41 439.28 1272.41 438.544C1272.41 437.792 1272.27 437.152 1271.98 436.624C1271.69 436.096 1271.3 435.688 1270.81 435.4C1270.31 435.112 1269.75 434.968 1269.13 434.968C1268.5 434.968 1267.94 435.112 1267.45 435.4C1266.95 435.688 1266.55 436.096 1266.25 436.624C1265.96 437.152 1265.81 437.792 1265.81 438.544C1265.81 439.28 1265.96 439.92 1266.25 440.464C1266.55 440.992 1266.95 441.4 1267.45 441.688C1267.94 441.976 1268.5 442.12 1269.13 442.12ZM1283.05 445.192C1281.95 445.192 1280.88 445.064 1279.86 444.808C1278.85 444.536 1278.05 444.2 1277.46 443.8L1278.71 441.112C1279.3 441.48 1280 441.784 1280.8 442.024C1281.61 442.248 1282.41 442.36 1283.2 442.36C1284.06 442.36 1284.67 442.256 1285.02 442.048C1285.39 441.84 1285.57 441.552 1285.57 441.184C1285.57 440.88 1285.43 440.656 1285.14 440.512C1284.87 440.352 1284.5 440.232 1284.04 440.152C1283.57 440.072 1283.06 439.992 1282.5 439.912C1281.96 439.832 1281.4 439.728 1280.84 439.6C1280.28 439.456 1279.77 439.248 1279.31 438.976C1278.84 438.704 1278.47 438.336 1278.18 437.872C1277.91 437.408 1277.77 436.808 1277.77 436.072C1277.77 435.256 1278 434.536 1278.47 433.912C1278.95 433.288 1279.64 432.8 1280.53 432.448C1281.43 432.08 1282.5 431.896 1283.75 431.896C1284.63 431.896 1285.52 431.992 1286.44 432.184C1287.35 432.376 1288.11 432.656 1288.72 433.024L1287.47 435.688C1286.84 435.32 1286.21 435.072 1285.57 434.944C1284.95 434.8 1284.34 434.728 1283.75 434.728C1282.92 434.728 1282.31 434.84 1281.92 435.064C1281.54 435.288 1281.35 435.576 1281.35 435.928C1281.35 436.248 1281.48 436.488 1281.76 436.648C1282.04 436.808 1282.42 436.936 1282.88 437.032C1283.35 437.128 1283.85 437.216 1284.4 437.296C1284.96 437.36 1285.52 437.464 1286.08 437.608C1286.64 437.752 1287.14 437.96 1287.59 438.232C1288.05 438.488 1288.43 438.848 1288.72 439.312C1289 439.76 1289.15 440.352 1289.15 441.088C1289.15 441.888 1288.91 442.6 1288.43 443.224C1287.95 443.832 1287.25 444.312 1286.34 444.664C1285.44 445.016 1284.35 445.192 1283.05 445.192ZM1298.26 445V427.192H1302V445H1298.26ZM1310.92 445.192C1309.85 445.192 1308.89 444.984 1308.04 444.568C1307.21 444.152 1306.56 443.52 1306.1 442.672C1305.63 441.808 1305.4 440.712 1305.4 439.384V432.088H1309.15V438.832C1309.15 439.904 1309.37 440.696 1309.82 441.208C1310.28 441.704 1310.93 441.952 1311.76 441.952C1312.34 441.952 1312.85 441.832 1313.3 441.592C1313.75 441.336 1314.1 440.952 1314.35 440.44C1314.61 439.912 1314.74 439.256 1314.74 438.472V432.088H1318.48V445H1314.93V441.448L1315.58 442.48C1315.15 443.376 1314.51 444.056 1313.66 444.52C1312.83 444.968 1311.91 445.192 1310.92 445.192ZM1328.02 449.848C1326.81 449.848 1325.63 449.696 1324.49 449.392C1323.37 449.104 1322.44 448.664 1321.69 448.072L1323.17 445.384C1323.72 445.832 1324.41 446.184 1325.24 446.44C1326.09 446.712 1326.92 446.848 1327.73 446.848C1329.06 446.848 1330.02 446.552 1330.61 445.96C1331.22 445.368 1331.53 444.488 1331.53 443.32V441.376L1331.77 438.136L1331.72 434.872V432.088H1335.27V442.84C1335.27 445.24 1334.65 447.008 1333.4 448.144C1332.15 449.28 1330.36 449.848 1328.02 449.848ZM1327.45 444.376C1326.25 444.376 1325.16 444.12 1324.18 443.608C1323.22 443.08 1322.45 442.352 1321.85 441.424C1321.28 440.48 1320.99 439.384 1320.99 438.136C1320.99 436.872 1321.28 435.776 1321.85 434.848C1322.45 433.904 1323.22 433.176 1324.18 432.664C1325.16 432.152 1326.25 431.896 1327.45 431.896C1328.53 431.896 1329.49 432.12 1330.33 432.568C1331.16 433 1331.81 433.68 1332.27 434.608C1332.73 435.52 1332.97 436.696 1332.97 438.136C1332.97 439.56 1332.73 440.736 1332.27 441.664C1331.81 442.576 1331.16 443.256 1330.33 443.704C1329.49 444.152 1328.53 444.376 1327.45 444.376ZM1328.19 441.304C1328.85 441.304 1329.43 441.176 1329.94 440.92C1330.45 440.648 1330.85 440.272 1331.14 439.792C1331.43 439.312 1331.57 438.76 1331.57 438.136C1331.57 437.496 1331.43 436.944 1331.14 436.48C1330.85 436 1330.45 435.632 1329.94 435.376C1329.43 435.104 1328.85 434.968 1328.19 434.968C1327.53 434.968 1326.95 435.104 1326.44 435.376C1325.93 435.632 1325.52 436 1325.21 436.48C1324.93 436.944 1324.78 437.496 1324.78 438.136C1324.78 438.76 1324.93 439.312 1325.21 439.792C1325.52 440.272 1325.93 440.648 1326.44 440.92C1326.95 441.176 1327.53 441.304 1328.19 441.304ZM1346.68 445V442.48L1346.44 441.928V437.416C1346.44 436.616 1346.19 435.992 1345.69 435.544C1345.21 435.096 1344.47 434.872 1343.46 434.872C1342.77 434.872 1342.09 434.984 1341.42 435.208C1340.76 435.416 1340.2 435.704 1339.74 436.072L1338.4 433.456C1339.1 432.96 1339.95 432.576 1340.94 432.304C1341.93 432.032 1342.94 431.896 1343.96 431.896C1345.93 431.896 1347.46 432.36 1348.55 433.288C1349.64 434.216 1350.18 435.664 1350.18 437.632V445H1346.68ZM1342.74 445.192C1341.73 445.192 1340.87 445.024 1340.15 444.688C1339.43 444.336 1338.88 443.864 1338.49 443.272C1338.11 442.68 1337.92 442.016 1337.92 441.28C1337.92 440.512 1338.1 439.84 1338.47 439.264C1338.85 438.688 1339.45 438.24 1340.27 437.92C1341.08 437.584 1342.15 437.416 1343.46 437.416H1346.89V439.6H1343.87C1342.99 439.6 1342.38 439.744 1342.04 440.032C1341.72 440.32 1341.56 440.68 1341.56 441.112C1341.56 441.592 1341.75 441.976 1342.12 442.264C1342.5 442.536 1343.02 442.672 1343.68 442.672C1344.3 442.672 1344.86 442.528 1345.36 442.24C1345.85 441.936 1346.21 441.496 1346.44 440.92L1347.01 442.648C1346.74 443.48 1346.24 444.112 1345.52 444.544C1344.8 444.976 1343.88 445.192 1342.74 445.192ZM1353.57 445V432.088H1357.14V435.736L1356.64 434.68C1357.02 433.768 1357.64 433.08 1358.49 432.616C1359.34 432.136 1360.37 431.896 1361.58 431.896V435.352C1361.42 435.336 1361.28 435.328 1361.15 435.328C1361.02 435.312 1360.89 435.304 1360.74 435.304C1359.72 435.304 1358.89 435.6 1358.25 436.192C1357.62 436.768 1357.31 437.672 1357.31 438.904V445H1353.57ZM1370.12 445.192C1368.65 445.192 1367.36 444.904 1366.24 444.328C1365.13 443.752 1364.28 442.968 1363.67 441.976C1363.06 440.968 1362.76 439.824 1362.76 438.544C1362.76 437.248 1363.05 436.104 1363.64 435.112C1364.25 434.104 1365.08 433.32 1366.12 432.76C1367.16 432.184 1368.33 431.896 1369.64 431.896C1370.91 431.896 1372.04 432.168 1373.05 432.712C1374.08 433.24 1374.88 434.008 1375.48 435.016C1376.07 436.008 1376.36 437.2 1376.36 438.592C1376.36 438.736 1376.36 438.904 1376.34 439.096C1376.32 439.272 1376.31 439.44 1376.29 439.6H1365.8V437.416H1374.32L1372.88 438.064C1372.88 437.392 1372.75 436.808 1372.48 436.312C1372.2 435.816 1371.83 435.432 1371.35 435.16C1370.87 434.872 1370.31 434.728 1369.67 434.728C1369.03 434.728 1368.46 434.872 1367.96 435.16C1367.48 435.432 1367.11 435.824 1366.84 436.336C1366.56 436.832 1366.43 437.424 1366.43 438.112V438.688C1366.43 439.392 1366.58 440.016 1366.88 440.56C1367.2 441.088 1367.64 441.496 1368.2 441.784C1368.78 442.056 1369.45 442.192 1370.22 442.192C1370.91 442.192 1371.51 442.088 1372.02 441.88C1372.55 441.672 1373.03 441.36 1373.46 440.944L1375.45 443.104C1374.86 443.776 1374.12 444.296 1373.22 444.664C1372.32 445.016 1371.29 445.192 1370.12 445.192ZM1383.2 445.192C1382.1 445.192 1381.03 445.064 1380.01 444.808C1379 444.536 1378.2 444.2 1377.61 443.8L1378.86 441.112C1379.45 441.48 1380.14 441.784 1380.94 442.024C1381.76 442.248 1382.56 442.36 1383.34 442.36C1384.21 442.36 1384.82 442.256 1385.17 442.048C1385.54 441.84 1385.72 441.552 1385.72 441.184C1385.72 440.88 1385.58 440.656 1385.29 440.512C1385.02 440.352 1384.65 440.232 1384.18 440.152C1383.72 440.072 1383.21 439.992 1382.65 439.912C1382.1 439.832 1381.55 439.728 1380.99 439.6C1380.43 439.456 1379.92 439.248 1379.46 438.976C1378.99 438.704 1378.62 438.336 1378.33 437.872C1378.06 437.408 1377.92 436.808 1377.92 436.072C1377.92 435.256 1378.15 434.536 1378.62 433.912C1379.1 433.288 1379.78 432.8 1380.68 432.448C1381.58 432.08 1382.65 431.896 1383.9 431.896C1384.78 431.896 1385.67 431.992 1386.58 432.184C1387.5 432.376 1388.26 432.656 1388.86 433.024L1387.62 435.688C1386.99 435.32 1386.36 435.072 1385.72 434.944C1385.1 434.8 1384.49 434.728 1383.9 434.728C1383.06 434.728 1382.46 434.84 1382.07 435.064C1381.69 435.288 1381.5 435.576 1381.5 435.928C1381.5 436.248 1381.63 436.488 1381.9 436.648C1382.19 436.808 1382.57 436.936 1383.03 437.032C1383.5 437.128 1384 437.216 1384.54 437.296C1385.1 437.36 1385.66 437.464 1386.22 437.608C1386.78 437.752 1387.29 437.96 1387.74 438.232C1388.2 438.488 1388.58 438.848 1388.86 439.312C1389.15 439.76 1389.3 440.352 1389.3 441.088C1389.3 441.888 1389.06 442.6 1388.58 443.224C1388.1 443.832 1387.4 444.312 1386.49 444.664C1385.59 445.016 1384.5 445.192 1383.2 445.192ZM1210.87 478.848C1209.65 478.848 1208.48 478.696 1207.34 478.392C1206.22 478.104 1205.29 477.664 1204.53 477.072L1206.02 474.384C1206.57 474.832 1207.25 475.184 1208.09 475.44C1208.93 475.712 1209.77 475.848 1210.58 475.848C1211.91 475.848 1212.87 475.552 1213.46 474.96C1214.07 474.368 1214.37 473.488 1214.37 472.32V470.376L1214.61 467.136L1214.57 463.872V461.088H1218.12V471.84C1218.12 474.24 1217.49 476.008 1216.25 477.144C1215 478.28 1213.21 478.848 1210.87 478.848ZM1210.29 473.376C1209.09 473.376 1208.01 473.12 1207.03 472.608C1206.07 472.08 1205.29 471.352 1204.7 470.424C1204.13 469.48 1203.84 468.384 1203.84 467.136C1203.84 465.872 1204.13 464.776 1204.7 463.848C1205.29 462.904 1206.07 462.176 1207.03 461.664C1208.01 461.152 1209.09 460.896 1210.29 460.896C1211.38 460.896 1212.34 461.12 1213.17 461.568C1214.01 462 1214.65 462.68 1215.12 463.608C1215.58 464.52 1215.81 465.696 1215.81 467.136C1215.81 468.56 1215.58 469.736 1215.12 470.664C1214.65 471.576 1214.01 472.256 1213.17 472.704C1212.34 473.152 1211.38 473.376 1210.29 473.376ZM1211.04 470.304C1211.69 470.304 1212.28 470.176 1212.79 469.92C1213.3 469.648 1213.7 469.272 1213.99 468.792C1214.28 468.312 1214.42 467.76 1214.42 467.136C1214.42 466.496 1214.28 465.944 1213.99 465.48C1213.7 465 1213.3 464.632 1212.79 464.376C1212.28 464.104 1211.69 463.968 1211.04 463.968C1210.38 463.968 1209.8 464.104 1209.29 464.376C1208.77 464.632 1208.37 465 1208.06 465.48C1207.77 465.944 1207.63 466.496 1207.63 467.136C1207.63 467.76 1207.77 468.312 1208.06 468.792C1208.37 469.272 1208.77 469.648 1209.29 469.92C1209.8 470.176 1210.38 470.304 1211.04 470.304ZM1227.05 474.192C1225.98 474.192 1225.02 473.984 1224.17 473.568C1223.34 473.152 1222.69 472.52 1222.23 471.672C1221.76 470.808 1221.53 469.712 1221.53 468.384V461.088H1225.28V467.832C1225.28 468.904 1225.5 469.696 1225.95 470.208C1226.41 470.704 1227.06 470.952 1227.89 470.952C1228.47 470.952 1228.98 470.832 1229.43 470.592C1229.88 470.336 1230.23 469.952 1230.48 469.44C1230.74 468.912 1230.87 468.256 1230.87 467.472V461.088H1234.61V474H1231.06V470.448L1231.71 471.48C1231.28 472.376 1230.64 473.056 1229.79 473.52C1228.96 473.968 1228.04 474.192 1227.05 474.192ZM1246 474V471.48L1245.76 470.928V466.416C1245.76 465.616 1245.51 464.992 1245.02 464.544C1244.54 464.096 1243.79 463.872 1242.78 463.872C1242.1 463.872 1241.42 463.984 1240.74 464.208C1240.09 464.416 1239.53 464.704 1239.06 465.072L1237.72 462.456C1238.42 461.96 1239.27 461.576 1240.26 461.304C1241.26 461.032 1242.26 460.896 1243.29 460.896C1245.26 460.896 1246.78 461.36 1247.87 462.288C1248.96 463.216 1249.5 464.664 1249.5 466.632V474H1246ZM1242.06 474.192C1241.06 474.192 1240.19 474.024 1239.47 473.688C1238.75 473.336 1238.2 472.864 1237.82 472.272C1237.43 471.68 1237.24 471.016 1237.24 470.28C1237.24 469.512 1237.42 468.84 1237.79 468.264C1238.18 467.688 1238.78 467.24 1239.59 466.92C1240.41 466.584 1241.47 466.416 1242.78 466.416H1246.22V468.6H1243.19C1242.31 468.6 1241.7 468.744 1241.37 469.032C1241.05 469.32 1240.89 469.68 1240.89 470.112C1240.89 470.592 1241.07 470.976 1241.44 471.264C1241.82 471.536 1242.34 471.672 1243 471.672C1243.62 471.672 1244.18 471.528 1244.68 471.24C1245.18 470.936 1245.54 470.496 1245.76 469.92L1246.34 471.648C1246.06 472.48 1245.57 473.112 1244.85 473.544C1244.13 473.976 1243.2 474.192 1242.06 474.192ZM1252.89 474V461.088H1256.47V464.736L1255.96 463.68C1256.35 462.768 1256.96 462.08 1257.81 461.616C1258.66 461.136 1259.69 460.896 1260.91 460.896V464.352C1260.75 464.336 1260.6 464.328 1260.48 464.328C1260.35 464.312 1260.21 464.304 1260.07 464.304C1259.04 464.304 1258.21 464.6 1257.57 465.192C1256.95 465.768 1256.64 466.672 1256.64 467.904V474H1252.89ZM1268.58 474.192C1267.37 474.192 1266.27 473.92 1265.3 473.376C1264.32 472.816 1263.54 472.04 1262.97 471.048C1262.41 470.056 1262.13 468.888 1262.13 467.544C1262.13 466.184 1262.41 465.008 1262.97 464.016C1263.54 463.024 1264.32 462.256 1265.3 461.712C1266.27 461.168 1267.37 460.896 1268.58 460.896C1269.67 460.896 1270.62 461.136 1271.44 461.616C1272.26 462.096 1272.89 462.824 1273.34 463.8C1273.78 464.776 1274.01 466.024 1274.01 467.544C1274.01 469.048 1273.79 470.296 1273.36 471.288C1272.93 472.264 1272.3 472.992 1271.49 473.472C1270.69 473.952 1269.72 474.192 1268.58 474.192ZM1269.23 471.12C1269.84 471.12 1270.39 470.976 1270.89 470.688C1271.38 470.4 1271.78 469.992 1272.06 469.464C1272.37 468.92 1272.52 468.28 1272.52 467.544C1272.52 466.792 1272.37 466.152 1272.06 465.624C1271.78 465.096 1271.38 464.688 1270.89 464.4C1270.39 464.112 1269.84 463.968 1269.23 463.968C1268.61 463.968 1268.05 464.112 1267.55 464.4C1267.06 464.688 1266.66 465.096 1266.35 465.624C1266.06 466.152 1265.92 466.792 1265.92 467.544C1265.92 468.28 1266.06 468.92 1266.35 469.464C1266.66 469.992 1267.06 470.4 1267.55 470.688C1268.05 470.976 1268.61 471.12 1269.23 471.12ZM1272.62 474V471.36L1272.69 467.52L1272.45 463.704V456.192H1276.19V474H1272.62ZM1287.58 474V471.48L1287.34 470.928V466.416C1287.34 465.616 1287.09 464.992 1286.59 464.544C1286.11 464.096 1285.37 463.872 1284.36 463.872C1283.67 463.872 1282.99 463.984 1282.32 464.208C1281.67 464.416 1281.11 464.704 1280.64 465.072L1279.3 462.456C1280 461.96 1280.85 461.576 1281.84 461.304C1282.83 461.032 1283.84 460.896 1284.87 460.896C1286.83 460.896 1288.36 461.36 1289.45 462.288C1290.54 463.216 1291.08 464.664 1291.08 466.632V474H1287.58ZM1283.64 474.192C1282.63 474.192 1281.77 474.024 1281.05 473.688C1280.33 473.336 1279.78 472.864 1279.39 472.272C1279.01 471.68 1278.82 471.016 1278.82 470.28C1278.82 469.512 1279 468.84 1279.37 468.264C1279.75 467.688 1280.35 467.24 1281.17 466.92C1281.99 466.584 1283.05 466.416 1284.36 466.416H1287.79V468.6H1284.77C1283.89 468.6 1283.28 468.744 1282.95 469.032C1282.63 469.32 1282.47 469.68 1282.47 470.112C1282.47 470.592 1282.65 470.976 1283.02 471.264C1283.4 471.536 1283.92 471.672 1284.58 471.672C1285.2 471.672 1285.76 471.528 1286.26 471.24C1286.75 470.936 1287.11 470.496 1287.34 469.92L1287.91 471.648C1287.64 472.48 1287.15 473.112 1286.43 473.544C1285.71 473.976 1284.78 474.192 1283.64 474.192ZM1300.11 474.192C1298.89 474.192 1297.8 473.92 1296.82 473.376C1295.84 472.816 1295.07 472.04 1294.49 471.048C1293.93 470.056 1293.65 468.888 1293.65 467.544C1293.65 466.184 1293.93 465.008 1294.49 464.016C1295.07 463.024 1295.84 462.256 1296.82 461.712C1297.8 461.168 1298.89 460.896 1300.11 460.896C1301.2 460.896 1302.15 461.136 1302.96 461.616C1303.78 462.096 1304.41 462.824 1304.86 463.8C1305.31 464.776 1305.53 466.024 1305.53 467.544C1305.53 469.048 1305.32 470.296 1304.88 471.288C1304.45 472.264 1303.83 472.992 1303.01 473.472C1302.21 473.952 1301.24 474.192 1300.11 474.192ZM1300.76 471.12C1301.36 471.12 1301.92 470.976 1302.41 470.688C1302.91 470.4 1303.3 469.992 1303.59 469.464C1303.89 468.92 1304.04 468.28 1304.04 467.544C1304.04 466.792 1303.89 466.152 1303.59 465.624C1303.3 465.096 1302.91 464.688 1302.41 464.4C1301.92 464.112 1301.36 463.968 1300.76 463.968C1300.13 463.968 1299.57 464.112 1299.08 464.4C1298.58 464.688 1298.18 465.096 1297.88 465.624C1297.59 466.152 1297.44 466.792 1297.44 467.544C1297.44 468.28 1297.59 468.92 1297.88 469.464C1298.18 469.992 1298.58 470.4 1299.08 470.688C1299.57 470.976 1300.13 471.12 1300.76 471.12ZM1304.14 474V471.36L1304.21 467.52L1303.97 463.704V456.192H1307.72V474H1304.14ZM1317.33 474.192C1315.95 474.192 1314.73 473.904 1313.65 473.328C1312.6 472.752 1311.76 471.968 1311.13 470.976C1310.53 469.968 1310.22 468.824 1310.22 467.544C1310.22 466.248 1310.53 465.104 1311.13 464.112C1311.76 463.104 1312.6 462.32 1313.65 461.76C1314.73 461.184 1315.95 460.896 1317.33 460.896C1318.69 460.896 1319.9 461.184 1320.97 461.76C1322.05 462.32 1322.89 463.096 1323.49 464.088C1324.1 465.08 1324.41 466.232 1324.41 467.544C1324.41 468.824 1324.1 469.968 1323.49 470.976C1322.89 471.968 1322.05 472.752 1320.97 473.328C1319.9 473.904 1318.69 474.192 1317.33 474.192ZM1317.33 471.12C1317.95 471.12 1318.51 470.976 1319.01 470.688C1319.5 470.4 1319.89 469.992 1320.18 469.464C1320.47 468.92 1320.61 468.28 1320.61 467.544C1320.61 466.792 1320.47 466.152 1320.18 465.624C1319.89 465.096 1319.5 464.688 1319.01 464.4C1318.51 464.112 1317.95 463.968 1317.33 463.968C1316.7 463.968 1316.14 464.112 1315.65 464.4C1315.15 464.688 1314.75 465.096 1314.45 465.624C1314.16 466.152 1314.01 466.792 1314.01 467.544C1314.01 468.28 1314.16 468.92 1314.45 469.464C1314.75 469.992 1315.15 470.4 1315.65 470.688C1316.14 470.976 1316.7 471.12 1317.33 471.12ZM1331.25 474.192C1330.15 474.192 1329.08 474.064 1328.06 473.808C1327.05 473.536 1326.25 473.2 1325.66 472.8L1326.91 470.112C1327.5 470.48 1328.2 470.784 1329 471.024C1329.81 471.248 1330.61 471.36 1331.4 471.36C1332.26 471.36 1332.87 471.256 1333.22 471.048C1333.59 470.84 1333.77 470.552 1333.77 470.184C1333.77 469.88 1333.63 469.656 1333.34 469.512C1333.07 469.352 1332.7 469.232 1332.24 469.152C1331.77 469.072 1331.26 468.992 1330.7 468.912C1330.16 468.832 1329.6 468.728 1329.04 468.6C1328.48 468.456 1327.97 468.248 1327.51 467.976C1327.04 467.704 1326.67 467.336 1326.38 466.872C1326.11 466.408 1325.97 465.808 1325.97 465.072C1325.97 464.256 1326.2 463.536 1326.67 462.912C1327.15 462.288 1327.84 461.8 1328.73 461.448C1329.63 461.08 1330.7 460.896 1331.95 460.896C1332.83 460.896 1333.72 460.992 1334.64 461.184C1335.55 461.376 1336.31 461.656 1336.92 462.024L1335.67 464.688C1335.04 464.32 1334.41 464.072 1333.77 463.944C1333.15 463.8 1332.54 463.728 1331.95 463.728C1331.12 463.728 1330.51 463.84 1330.12 464.064C1329.74 464.288 1329.55 464.576 1329.55 464.928C1329.55 465.248 1329.68 465.488 1329.96 465.648C1330.24 465.808 1330.62 465.936 1331.08 466.032C1331.55 466.128 1332.05 466.216 1332.6 466.296C1333.16 466.36 1333.72 466.464 1334.28 466.608C1334.84 466.752 1335.34 466.96 1335.79 467.232C1336.25 467.488 1336.63 467.848 1336.92 468.312C1337.2 468.76 1337.35 469.352 1337.35 470.088C1337.35 470.888 1337.11 471.6 1336.63 472.224C1336.15 472.832 1335.45 473.312 1334.54 473.664C1333.64 474.016 1332.55 474.192 1331.25 474.192Z" fill="#87549F"/>
</g>
<defs>
<clipPath id="clip0_621_4795">
<rect width="1426" height="526" fill="white"/>
</clipPath>
</defs>
</svg>
