<svg width="360" height="1148" viewBox="0 0 360 1148" fill="none" xmlns="http://www.w3.org/2000/svg">
<g clip-path="url(#clip0_621_4770)">
<path d="M-124.723 693.534L-54.8873 356.198C-48.5032 325.373 -18.3383 305.566 12.4848 311.954C43.314 318.347 63.1312 348.516 56.752 379.335L24.3551 535.817C17.9711 566.643 37.7931 596.806 68.6223 603.199C99.4515 609.592 129.61 589.78 135.994 558.955L234.26 84.3044C240.644 53.4791 270.809 33.6723 301.632 40.0604C332.455 46.4485 352.278 76.6224 345.899 107.442L319.33 235.76C312.946 266.586 332.768 296.749 363.597 303.142C394.427 309.535 424.585 289.723 430.97 258.898L496.032 -55.3548" stroke="#253A74" stroke-width="7" stroke-linecap="round" stroke-linejoin="round" stroke-dasharray="11.97 11.97"/>
<path d="M-0.559514 1139.23L0.384849 1134.65" stroke="#253A74" stroke-width="7" stroke-linecap="round" stroke-linejoin="round"/>
<path d="M2.27662 1125.53L72.1127 788.198C78.4968 757.373 108.662 737.566 139.485 743.954C170.314 750.347 190.131 780.516 183.752 811.335L151.355 967.817C144.971 998.643 164.793 1028.81 195.622 1035.2C226.452 1041.59 256.61 1021.78 262.994 990.955L361.26 516.304C367.644 485.479 397.809 465.672 428.632 472.06C459.455 478.448 479.278 508.622 472.899 539.442L446.33 667.76C439.946 698.586 459.768 728.749 490.597 735.142C521.427 741.535 551.585 721.723 557.97 690.898L623.032 376.645" stroke="#253A74" stroke-width="7" stroke-linecap="round" stroke-linejoin="round" stroke-dasharray="11.97 11.97"/>
<path d="M42.4457 348.905C54.2898 348.905 63.8914 339.3 63.8914 327.452C63.8914 315.605 54.2898 306 42.4457 306C30.6016 306 21 315.605 21 327.452C21 339.3 30.6016 348.905 42.4457 348.905Z" fill="#7ECDCE"/>
<path d="M247.446 81.9047C259.29 81.9047 268.891 72.3001 268.891 60.4523C268.891 48.6045 259.29 39 247.446 39C235.602 39 226 48.6045 226 60.4523C226 72.3001 235.602 81.9047 247.446 81.9047Z" fill="#7ECDCE"/>
<path d="M338.446 660.905C350.29 660.905 359.891 651.3 359.891 639.452C359.891 627.605 350.29 618 338.446 618C326.602 618 317 627.605 317 639.452C317 651.3 326.602 660.905 338.446 660.905Z" fill="#7ECDCE"/>
<path d="M159.446 1037.9C171.29 1037.9 180.891 1028.3 180.891 1016.45C180.891 1004.6 171.29 995 159.446 995C147.602 995 138 1004.6 138 1016.45C138 1028.3 147.602 1037.9 159.446 1037.9Z" fill="#7ECDCE"/>
<path d="M32.6483 301V289.8H37.7363C38.9523 289.8 40.0243 290.035 40.9523 290.504C41.8803 290.963 42.6056 291.608 43.1283 292.44C43.651 293.272 43.9123 294.259 43.9123 295.4C43.9123 296.531 43.651 297.517 43.1283 298.36C42.6056 299.192 41.8803 299.843 40.9523 300.312C40.0243 300.771 38.9523 301 37.7363 301H32.6483ZM35.2403 298.872H37.6083C38.355 298.872 39.0003 298.733 39.5443 298.456C40.099 298.168 40.5256 297.763 40.8243 297.24C41.1336 296.717 41.2883 296.104 41.2883 295.4C41.2883 294.685 41.1336 294.072 40.8243 293.56C40.5256 293.037 40.099 292.637 39.5443 292.36C39.0003 292.072 38.355 291.928 37.6083 291.928H35.2403V298.872ZM45.6911 301V292.392H48.1871V301H45.6911ZM46.9391 291.192C46.4804 291.192 46.1071 291.059 45.8191 290.792C45.5311 290.525 45.3871 290.195 45.3871 289.8C45.3871 289.405 45.5311 289.075 45.8191 288.808C46.1071 288.541 46.4804 288.408 46.9391 288.408C47.3977 288.408 47.7711 288.536 48.0591 288.792C48.3471 289.037 48.4911 289.357 48.4911 289.752C48.4911 290.168 48.3471 290.515 48.0591 290.792C47.7817 291.059 47.4084 291.192 46.9391 291.192ZM52.8396 301L49.2236 292.392H51.7996L54.8076 299.8H53.5276L56.6476 292.392H59.0476L55.4156 301H52.8396ZM60.0661 301V292.392H62.5621V301H60.0661ZM61.3141 291.192C60.8554 291.192 60.4821 291.059 60.1941 290.792C59.9061 290.525 59.7621 290.195 59.7621 289.8C59.7621 289.405 59.9061 289.075 60.1941 288.808C60.4821 288.541 60.8554 288.408 61.3141 288.408C61.7727 288.408 62.1461 288.536 62.4341 288.792C62.7221 289.037 62.8661 289.357 62.8661 289.752C62.8661 290.168 62.7221 290.515 62.4341 290.792C62.1567 291.059 61.7834 291.192 61.3141 291.192ZM68.5746 301.128C67.7639 301.128 67.0332 300.947 66.3826 300.584C65.7319 300.211 65.2146 299.693 64.8306 299.032C64.4572 298.371 64.2706 297.592 64.2706 296.696C64.2706 295.789 64.4572 295.005 64.8306 294.344C65.2146 293.683 65.7319 293.171 66.3826 292.808C67.0332 292.445 67.7639 292.264 68.5746 292.264C69.2999 292.264 69.9346 292.424 70.4786 292.744C71.0226 293.064 71.4439 293.549 71.7426 294.2C72.0412 294.851 72.1906 295.683 72.1906 296.696C72.1906 297.699 72.0466 298.531 71.7586 299.192C71.4706 299.843 71.0546 300.328 70.5106 300.648C69.9772 300.968 69.3319 301.128 68.5746 301.128ZM69.0066 299.08C69.4119 299.08 69.7799 298.984 70.1106 298.792C70.4412 298.6 70.7026 298.328 70.8946 297.976C71.0972 297.613 71.1986 297.187 71.1986 296.696C71.1986 296.195 71.0972 295.768 70.8946 295.416C70.7026 295.064 70.4412 294.792 70.1106 294.6C69.7799 294.408 69.4119 294.312 69.0066 294.312C68.5906 294.312 68.2172 294.408 67.8866 294.6C67.5559 294.792 67.2892 295.064 67.0866 295.416C66.8946 295.768 66.7986 296.195 66.7986 296.696C66.7986 297.187 66.8946 297.613 67.0866 297.976C67.2892 298.328 67.5559 298.6 67.8866 298.792C68.2172 298.984 68.5906 299.08 69.0066 299.08ZM71.2626 301V299.24L71.3106 296.68L71.1506 294.136V289.128H73.6466V301H71.2626ZM80.2287 301.128C79.2474 301.128 78.3834 300.936 77.6367 300.552C76.9007 300.168 76.33 299.645 75.9247 298.984C75.5194 298.312 75.3167 297.549 75.3167 296.696C75.3167 295.832 75.514 295.069 75.9087 294.408C76.314 293.736 76.8634 293.213 77.5567 292.84C78.25 292.456 79.034 292.264 79.9087 292.264C80.7514 292.264 81.5087 292.445 82.1807 292.808C82.8634 293.16 83.402 293.672 83.7967 294.344C84.1914 295.005 84.3887 295.8 84.3887 296.728C84.3887 296.824 84.3834 296.936 84.3727 297.064C84.362 297.181 84.3514 297.293 84.3407 297.4H77.3487V295.944H83.0287L82.0687 296.376C82.0687 295.928 81.978 295.539 81.7967 295.208C81.6154 294.877 81.3647 294.621 81.0447 294.44C80.7247 294.248 80.3514 294.152 79.9247 294.152C79.498 294.152 79.1194 294.248 78.7887 294.44C78.4687 294.621 78.218 294.883 78.0367 295.224C77.8554 295.555 77.7647 295.949 77.7647 296.408V296.792C77.7647 297.261 77.866 297.677 78.0687 298.04C78.282 298.392 78.5754 298.664 78.9487 298.856C79.3327 299.037 79.7807 299.128 80.2927 299.128C80.7514 299.128 81.1514 299.059 81.4927 298.92C81.8447 298.781 82.1647 298.573 82.4527 298.296L83.7807 299.736C83.386 300.184 82.89 300.531 82.2927 300.776C81.6954 301.011 81.0074 301.128 80.2287 301.128ZM94.6297 304.232C93.819 304.232 93.035 304.131 92.2777 303.928C91.531 303.736 90.907 303.443 90.4057 303.048L91.3977 301.256C91.7604 301.555 92.219 301.789 92.7737 301.96C93.339 302.141 93.8937 302.232 94.4377 302.232C95.323 302.232 95.963 302.035 96.3577 301.64C96.763 301.245 96.9657 300.659 96.9657 299.88V298.584L97.1257 296.424L97.0937 294.248V292.392H99.4617V299.56C99.4617 301.16 99.0457 302.339 98.2137 303.096C97.3817 303.853 96.187 304.232 94.6297 304.232ZM94.2457 300.584C93.4457 300.584 92.7204 300.413 92.0697 300.072C91.4297 299.72 90.9124 299.235 90.5177 298.616C90.1337 297.987 89.9417 297.256 89.9417 296.424C89.9417 295.581 90.1337 294.851 90.5177 294.232C90.9124 293.603 91.4297 293.117 92.0697 292.776C92.7204 292.435 93.4457 292.264 94.2457 292.264C94.971 292.264 95.611 292.413 96.1657 292.712C96.7204 293 97.1524 293.453 97.4617 294.072C97.771 294.68 97.9257 295.464 97.9257 296.424C97.9257 297.373 97.771 298.157 97.4617 298.776C97.1524 299.384 96.7204 299.837 96.1657 300.136C95.611 300.435 94.971 300.584 94.2457 300.584ZM94.7417 298.536C95.179 298.536 95.5684 298.451 95.9097 298.28C96.251 298.099 96.5177 297.848 96.7097 297.528C96.9017 297.208 96.9977 296.84 96.9977 296.424C96.9977 295.997 96.9017 295.629 96.7097 295.32C96.5177 295 96.251 294.755 95.9097 294.584C95.5684 294.403 95.179 294.312 94.7417 294.312C94.3044 294.312 93.915 294.403 93.5737 294.584C93.2324 294.755 92.9604 295 92.7577 295.32C92.5657 295.629 92.4697 295.997 92.4697 296.424C92.4697 296.84 92.5657 297.208 92.7577 297.528C92.9604 297.848 93.2324 298.099 93.5737 298.28C93.915 298.451 94.3044 298.536 94.7417 298.536ZM107.065 301V299.32L106.905 298.952V295.944C106.905 295.411 106.739 294.995 106.409 294.696C106.089 294.397 105.593 294.248 104.921 294.248C104.462 294.248 104.009 294.323 103.561 294.472C103.123 294.611 102.75 294.803 102.441 295.048L101.545 293.304C102.014 292.973 102.579 292.717 103.241 292.536C103.902 292.355 104.574 292.264 105.257 292.264C106.569 292.264 107.587 292.573 108.313 293.192C109.038 293.811 109.401 294.776 109.401 296.088V301H107.065ZM104.441 301.128C103.769 301.128 103.193 301.016 102.713 300.792C102.233 300.557 101.865 300.243 101.609 299.848C101.353 299.453 101.225 299.011 101.225 298.52C101.225 298.008 101.347 297.56 101.593 297.176C101.849 296.792 102.249 296.493 102.793 296.28C103.337 296.056 104.046 295.944 104.921 295.944H107.209V297.4H105.193C104.606 297.4 104.201 297.496 103.977 297.688C103.763 297.88 103.657 298.12 103.657 298.408C103.657 298.728 103.779 298.984 104.025 299.176C104.281 299.357 104.627 299.448 105.065 299.448C105.481 299.448 105.854 299.352 106.185 299.16C106.515 298.957 106.755 298.664 106.905 298.28L107.289 299.432C107.107 299.987 106.777 300.408 106.297 300.696C105.817 300.984 105.198 301.128 104.441 301.128ZM114.556 301.128C113.82 301.128 113.11 301.043 112.428 300.872C111.756 300.691 111.222 300.467 110.828 300.2L111.66 298.408C112.054 298.653 112.518 298.856 113.052 299.016C113.596 299.165 114.129 299.24 114.652 299.24C115.228 299.24 115.633 299.171 115.868 299.032C116.113 298.893 116.236 298.701 116.236 298.456C116.236 298.253 116.14 298.104 115.948 298.008C115.766 297.901 115.521 297.821 115.212 297.768C114.902 297.715 114.561 297.661 114.188 297.608C113.825 297.555 113.457 297.485 113.084 297.4C112.71 297.304 112.369 297.165 112.06 296.984C111.75 296.803 111.5 296.557 111.308 296.248C111.126 295.939 111.036 295.539 111.036 295.048C111.036 294.504 111.19 294.024 111.5 293.608C111.82 293.192 112.278 292.867 112.876 292.632C113.473 292.387 114.188 292.264 115.02 292.264C115.606 292.264 116.204 292.328 116.812 292.456C117.42 292.584 117.926 292.771 118.332 293.016L117.5 294.792C117.084 294.547 116.662 294.381 116.236 294.296C115.82 294.2 115.414 294.152 115.02 294.152C114.465 294.152 114.06 294.227 113.804 294.376C113.548 294.525 113.42 294.717 113.42 294.952C113.42 295.165 113.51 295.325 113.692 295.432C113.884 295.539 114.134 295.624 114.444 295.688C114.753 295.752 115.089 295.811 115.452 295.864C115.825 295.907 116.198 295.976 116.572 296.072C116.945 296.168 117.281 296.307 117.58 296.488C117.889 296.659 118.14 296.899 118.332 297.208C118.524 297.507 118.62 297.901 118.62 298.392C118.62 298.925 118.46 299.4 118.14 299.816C117.82 300.221 117.356 300.541 116.748 300.776C116.15 301.011 115.42 301.128 114.556 301.128ZM123.68 301.128C122.666 301.128 121.877 300.872 121.312 300.36C120.746 299.837 120.464 299.064 120.464 298.04V290.488H122.96V298.008C122.96 298.371 123.056 298.653 123.248 298.856C123.44 299.048 123.701 299.144 124.032 299.144C124.426 299.144 124.762 299.037 125.04 298.824L125.712 300.584C125.456 300.765 125.146 300.904 124.784 301C124.432 301.085 124.064 301.128 123.68 301.128ZM119.136 294.504V292.584H125.104V294.504H119.136ZM130.943 301.128C130.026 301.128 129.21 300.936 128.495 300.552C127.791 300.168 127.231 299.645 126.815 298.984C126.41 298.312 126.207 297.549 126.207 296.696C126.207 295.832 126.41 295.069 126.815 294.408C127.231 293.736 127.791 293.213 128.495 292.84C129.21 292.456 130.026 292.264 130.943 292.264C131.85 292.264 132.661 292.456 133.375 292.84C134.09 293.213 134.65 293.731 135.055 294.392C135.461 295.053 135.663 295.821 135.663 296.696C135.663 297.549 135.461 298.312 135.055 298.984C134.65 299.645 134.09 300.168 133.375 300.552C132.661 300.936 131.85 301.128 130.943 301.128ZM130.943 299.08C131.359 299.08 131.733 298.984 132.063 298.792C132.394 298.6 132.655 298.328 132.847 297.976C133.039 297.613 133.135 297.187 133.135 296.696C133.135 296.195 133.039 295.768 132.847 295.416C132.655 295.064 132.394 294.792 132.063 294.6C131.733 294.408 131.359 294.312 130.943 294.312C130.527 294.312 130.154 294.408 129.823 294.6C129.493 294.792 129.226 295.064 129.023 295.416C128.831 295.768 128.735 296.195 128.735 296.696C128.735 297.187 128.831 297.613 129.023 297.976C129.226 298.328 129.493 298.6 129.823 298.792C130.154 298.984 130.527 299.08 130.943 299.08ZM140.228 301.128C139.492 301.128 138.782 301.043 138.1 300.872C137.428 300.691 136.894 300.467 136.5 300.2L137.332 298.408C137.726 298.653 138.19 298.856 138.724 299.016C139.268 299.165 139.801 299.24 140.324 299.24C140.9 299.24 141.305 299.171 141.54 299.032C141.785 298.893 141.908 298.701 141.908 298.456C141.908 298.253 141.812 298.104 141.62 298.008C141.438 297.901 141.193 297.821 140.884 297.768C140.574 297.715 140.233 297.661 139.86 297.608C139.497 297.555 139.129 297.485 138.756 297.4C138.382 297.304 138.041 297.165 137.732 296.984C137.422 296.803 137.172 296.557 136.98 296.248C136.798 295.939 136.708 295.539 136.708 295.048C136.708 294.504 136.862 294.024 137.172 293.608C137.492 293.192 137.95 292.867 138.548 292.632C139.145 292.387 139.86 292.264 140.692 292.264C141.278 292.264 141.876 292.328 142.484 292.456C143.092 292.584 143.598 292.771 144.004 293.016L143.172 294.792C142.756 294.547 142.334 294.381 141.908 294.296C141.492 294.2 141.086 294.152 140.692 294.152C140.137 294.152 139.732 294.227 139.476 294.376C139.22 294.525 139.092 294.717 139.092 294.952C139.092 295.165 139.182 295.325 139.364 295.432C139.556 295.539 139.806 295.624 140.116 295.688C140.425 295.752 140.761 295.811 141.124 295.864C141.497 295.907 141.87 295.976 142.244 296.072C142.617 296.168 142.953 296.307 143.252 296.488C143.561 296.659 143.812 296.899 144.004 297.208C144.196 297.507 144.292 297.901 144.292 298.392C144.292 298.925 144.132 299.4 143.812 299.816C143.492 300.221 143.028 300.541 142.42 300.776C141.822 301.011 141.092 301.128 140.228 301.128Z" fill="#87549F"/>
<path d="M64.3833 1066.19C63.5193 1066.19 62.714 1066.05 61.9673 1065.78C61.2313 1065.49 60.5913 1065.08 60.0473 1064.56C59.5033 1064.04 59.0766 1063.42 58.7673 1062.72C58.4686 1062.02 58.3193 1061.24 58.3193 1060.4C58.3193 1059.56 58.4686 1058.78 58.7673 1058.08C59.0766 1057.38 59.5033 1056.76 60.0473 1056.24C60.602 1055.72 61.2473 1055.32 61.9833 1055.04C62.7193 1054.75 63.5246 1054.61 64.3993 1054.61C65.37 1054.61 66.2446 1054.78 67.0233 1055.12C67.8126 1055.45 68.474 1055.94 69.0073 1056.59L67.3433 1058.13C66.9593 1057.69 66.5326 1057.37 66.0633 1057.15C65.594 1056.93 65.082 1056.82 64.5273 1056.82C64.0046 1056.82 63.5246 1056.9 63.0873 1057.07C62.65 1057.24 62.2713 1057.49 61.9513 1057.81C61.6313 1058.13 61.3806 1058.51 61.1993 1058.94C61.0286 1059.38 60.9433 1059.87 60.9433 1060.4C60.9433 1060.93 61.0286 1061.42 61.1993 1061.86C61.3806 1062.29 61.6313 1062.67 61.9513 1062.99C62.2713 1063.31 62.65 1063.56 63.0873 1063.73C63.5246 1063.9 64.0046 1063.98 64.5273 1063.98C65.082 1063.98 65.594 1063.88 66.0633 1063.66C66.5326 1063.44 66.9593 1063.1 67.3433 1062.66L69.0073 1064.19C68.474 1064.84 67.8126 1065.34 67.0233 1065.68C66.2446 1066.02 65.3646 1066.19 64.3833 1066.19ZM75.8148 1066V1064.32L75.6548 1063.95V1060.94C75.6548 1060.41 75.4895 1059.99 75.1588 1059.7C74.8388 1059.4 74.3428 1059.25 73.6708 1059.25C73.2121 1059.25 72.7588 1059.32 72.3108 1059.47C71.8735 1059.61 71.5001 1059.8 71.1908 1060.05L70.2948 1058.3C70.7641 1057.97 71.3295 1057.72 71.9908 1057.54C72.6521 1057.35 73.3241 1057.26 74.0068 1057.26C75.3188 1057.26 76.3375 1057.57 77.0628 1058.19C77.7881 1058.81 78.1508 1059.78 78.1508 1061.09V1066H75.8148ZM73.1908 1066.13C72.5188 1066.13 71.9428 1066.02 71.4628 1065.79C70.9828 1065.56 70.6148 1065.24 70.3588 1064.85C70.1028 1064.45 69.9748 1064.01 69.9748 1063.52C69.9748 1063.01 70.0975 1062.56 70.3428 1062.18C70.5988 1061.79 70.9988 1061.49 71.5428 1061.28C72.0868 1061.06 72.7961 1060.94 73.6708 1060.94H75.9588V1062.4H73.9428C73.3561 1062.4 72.9508 1062.5 72.7268 1062.69C72.5135 1062.88 72.4068 1063.12 72.4068 1063.41C72.4068 1063.73 72.5295 1063.98 72.7748 1064.18C73.0308 1064.36 73.3775 1064.45 73.8148 1064.45C74.2308 1064.45 74.6041 1064.35 74.9348 1064.16C75.2655 1063.96 75.5055 1063.66 75.6548 1063.28L76.0388 1064.43C75.8575 1064.99 75.5268 1065.41 75.0468 1065.7C74.5668 1065.98 73.9481 1066.13 73.1908 1066.13ZM91.4338 1057.26C92.1165 1057.26 92.7191 1057.4 93.2418 1057.68C93.7751 1057.95 94.1911 1058.36 94.4898 1058.93C94.7991 1059.48 94.9538 1060.2 94.9538 1061.07V1066H92.4578V1061.46C92.4578 1060.76 92.3138 1060.25 92.0258 1059.92C91.7378 1059.59 91.3325 1059.42 90.8098 1059.42C90.4471 1059.42 90.1218 1059.51 89.8338 1059.68C89.5458 1059.84 89.3218 1060.09 89.1618 1060.42C89.0018 1060.75 88.9218 1061.17 88.9218 1061.68V1066H86.4258V1061.46C86.4258 1060.76 86.2818 1060.25 85.9938 1059.92C85.7165 1059.59 85.3165 1059.42 84.7938 1059.42C84.4311 1059.42 84.1058 1059.51 83.8178 1059.68C83.5298 1059.84 83.3058 1060.09 83.1458 1060.42C82.9858 1060.75 82.9058 1061.17 82.9058 1061.68V1066H80.4098V1057.39H82.7938V1059.74L82.3458 1059.06C82.6445 1058.47 83.0658 1058.03 83.6098 1057.73C84.1645 1057.42 84.7938 1057.26 85.4978 1057.26C86.2871 1057.26 86.9751 1057.47 87.5618 1057.87C88.1591 1058.27 88.5538 1058.87 88.7458 1059.7L87.8658 1059.46C88.1538 1058.78 88.6125 1058.25 89.2418 1057.86C89.8818 1057.46 90.6125 1057.26 91.4338 1057.26ZM102.279 1066.13C101.522 1066.13 100.871 1065.97 100.327 1065.65C99.7831 1065.33 99.3671 1064.84 99.0791 1064.19C98.7911 1063.53 98.6471 1062.7 98.6471 1061.7C98.6471 1060.68 98.7964 1059.85 99.0951 1059.2C99.4044 1058.55 99.8311 1058.06 100.375 1057.74C100.919 1057.42 101.554 1057.26 102.279 1057.26C103.09 1057.26 103.815 1057.45 104.455 1057.81C105.106 1058.17 105.618 1058.68 105.991 1059.34C106.375 1060.01 106.567 1060.79 106.567 1061.7C106.567 1062.59 106.375 1063.37 105.991 1064.03C105.618 1064.69 105.106 1065.21 104.455 1065.58C103.815 1065.95 103.09 1066.13 102.279 1066.13ZM97.1911 1066V1054.13H99.6871V1059.14L99.5271 1061.68L99.5751 1064.24V1066H97.1911ZM101.847 1064.08C102.263 1064.08 102.631 1063.98 102.951 1063.79C103.282 1063.6 103.543 1063.33 103.735 1062.98C103.938 1062.61 104.039 1062.19 104.039 1061.7C104.039 1061.19 103.938 1060.77 103.735 1060.42C103.543 1060.06 103.282 1059.79 102.951 1059.6C102.631 1059.41 102.263 1059.31 101.847 1059.31C101.431 1059.31 101.058 1059.41 100.727 1059.6C100.396 1059.79 100.135 1060.06 99.9431 1060.42C99.7511 1060.77 99.6551 1061.19 99.6551 1061.7C99.6551 1062.19 99.7511 1062.61 99.9431 1062.98C100.135 1063.33 100.396 1063.6 100.727 1063.79C101.058 1063.98 101.431 1064.08 101.847 1064.08ZM108.238 1066V1057.39H110.734V1066H108.238ZM109.486 1056.19C109.027 1056.19 108.654 1056.06 108.366 1055.79C108.078 1055.53 107.934 1055.19 107.934 1054.8C107.934 1054.41 108.078 1054.07 108.366 1053.81C108.654 1053.54 109.027 1053.41 109.486 1053.41C109.945 1053.41 110.318 1053.54 110.606 1053.79C110.894 1054.04 111.038 1054.36 111.038 1054.75C111.038 1055.17 110.894 1055.51 110.606 1055.79C110.329 1056.06 109.955 1056.19 109.486 1056.19ZM118.33 1066V1064.32L118.17 1063.95V1060.94C118.17 1060.41 118.005 1059.99 117.674 1059.7C117.354 1059.4 116.858 1059.25 116.186 1059.25C115.728 1059.25 115.274 1059.32 114.826 1059.47C114.389 1059.61 114.016 1059.8 113.706 1060.05L112.81 1058.3C113.28 1057.97 113.845 1057.72 114.506 1057.54C115.168 1057.35 115.84 1057.26 116.522 1057.26C117.834 1057.26 118.853 1057.57 119.578 1058.19C120.304 1058.81 120.666 1059.78 120.666 1061.09V1066H118.33ZM115.706 1066.13C115.034 1066.13 114.458 1066.02 113.978 1065.79C113.498 1065.56 113.13 1065.24 112.874 1064.85C112.618 1064.45 112.49 1064.01 112.49 1063.52C112.49 1063.01 112.613 1062.56 112.858 1062.18C113.114 1061.79 113.514 1061.49 114.058 1061.28C114.602 1061.06 115.312 1060.94 116.186 1060.94H118.474V1062.4H116.458C115.872 1062.4 115.466 1062.5 115.242 1062.69C115.029 1062.88 114.922 1063.12 114.922 1063.41C114.922 1063.73 115.045 1063.98 115.29 1064.18C115.546 1064.36 115.893 1064.45 116.33 1064.45C116.746 1064.45 117.12 1064.35 117.45 1064.16C117.781 1063.96 118.021 1063.66 118.17 1063.28L118.554 1064.43C118.373 1064.99 118.042 1065.41 117.562 1065.7C117.082 1065.98 116.464 1066.13 115.706 1066.13ZM127.457 1066V1054.13H129.953V1066H127.457ZM136.365 1066.13C135.448 1066.13 134.632 1065.94 133.917 1065.55C133.213 1065.17 132.653 1064.65 132.237 1063.98C131.832 1063.31 131.629 1062.55 131.629 1061.7C131.629 1060.83 131.832 1060.07 132.237 1059.41C132.653 1058.74 133.213 1058.21 133.917 1057.84C134.632 1057.46 135.448 1057.26 136.365 1057.26C137.272 1057.26 138.083 1057.46 138.797 1057.84C139.512 1058.21 140.072 1058.73 140.477 1059.39C140.883 1060.05 141.085 1060.82 141.085 1061.7C141.085 1062.55 140.883 1063.31 140.477 1063.98C140.072 1064.65 139.512 1065.17 138.797 1065.55C138.083 1065.94 137.272 1066.13 136.365 1066.13ZM136.365 1064.08C136.781 1064.08 137.155 1063.98 137.485 1063.79C137.816 1063.6 138.077 1063.33 138.269 1062.98C138.461 1062.61 138.557 1062.19 138.557 1061.7C138.557 1061.19 138.461 1060.77 138.269 1060.42C138.077 1060.06 137.816 1059.79 137.485 1059.6C137.155 1059.41 136.781 1059.31 136.365 1059.31C135.949 1059.31 135.576 1059.41 135.245 1059.6C134.915 1059.79 134.648 1060.06 134.445 1060.42C134.253 1060.77 134.157 1061.19 134.157 1061.7C134.157 1062.19 134.253 1062.61 134.445 1062.98C134.648 1063.33 134.915 1063.6 135.245 1063.79C135.576 1063.98 135.949 1064.08 136.365 1064.08ZM145.65 1066.13C144.914 1066.13 144.204 1066.04 143.522 1065.87C142.85 1065.69 142.316 1065.47 141.922 1065.2L142.754 1063.41C143.148 1063.65 143.612 1063.86 144.146 1064.02C144.69 1064.17 145.223 1064.24 145.746 1064.24C146.322 1064.24 146.727 1064.17 146.962 1064.03C147.207 1063.89 147.33 1063.7 147.33 1063.46C147.33 1063.25 147.234 1063.1 147.042 1063.01C146.86 1062.9 146.615 1062.82 146.306 1062.77C145.996 1062.71 145.655 1062.66 145.282 1062.61C144.919 1062.55 144.551 1062.49 144.178 1062.4C143.804 1062.3 143.463 1062.17 143.154 1061.98C142.844 1061.8 142.594 1061.56 142.402 1061.25C142.22 1060.94 142.13 1060.54 142.13 1060.05C142.13 1059.5 142.284 1059.02 142.594 1058.61C142.914 1058.19 143.372 1057.87 143.97 1057.63C144.567 1057.39 145.282 1057.26 146.114 1057.26C146.7 1057.26 147.298 1057.33 147.906 1057.46C148.514 1057.58 149.02 1057.77 149.426 1058.02L148.594 1059.79C148.178 1059.55 147.756 1059.38 147.33 1059.3C146.914 1059.2 146.508 1059.15 146.114 1059.15C145.559 1059.15 145.154 1059.23 144.898 1059.38C144.642 1059.53 144.514 1059.72 144.514 1059.95C144.514 1060.17 144.604 1060.33 144.786 1060.43C144.978 1060.54 145.228 1060.62 145.538 1060.69C145.847 1060.75 146.183 1060.81 146.546 1060.86C146.919 1060.91 147.292 1060.98 147.666 1061.07C148.039 1061.17 148.375 1061.31 148.674 1061.49C148.983 1061.66 149.234 1061.9 149.426 1062.21C149.618 1062.51 149.714 1062.9 149.714 1063.39C149.714 1063.93 149.554 1064.4 149.234 1064.82C148.914 1065.22 148.45 1065.54 147.842 1065.78C147.244 1066.01 146.514 1066.13 145.65 1066.13ZM155.785 1066V1054.13H158.281V1066H155.785ZM164.229 1066.13C163.515 1066.13 162.875 1065.99 162.309 1065.71C161.755 1065.43 161.323 1065.01 161.013 1064.45C160.704 1063.87 160.549 1063.14 160.549 1062.26V1057.39H163.045V1061.89C163.045 1062.6 163.195 1063.13 163.493 1063.47C163.803 1063.8 164.235 1063.97 164.789 1063.97C165.173 1063.97 165.515 1063.89 165.813 1063.73C166.112 1063.56 166.347 1063.3 166.517 1062.96C166.688 1062.61 166.773 1062.17 166.773 1061.65V1057.39H169.269V1066H166.901V1063.63L167.333 1064.32C167.045 1064.92 166.619 1065.37 166.053 1065.68C165.499 1065.98 164.891 1066.13 164.229 1066.13ZM175.63 1069.23C174.819 1069.23 174.035 1069.13 173.278 1068.93C172.531 1068.74 171.907 1068.44 171.406 1068.05L172.398 1066.26C172.76 1066.55 173.219 1066.79 173.774 1066.96C174.339 1067.14 174.894 1067.23 175.438 1067.23C176.323 1067.23 176.963 1067.03 177.358 1066.64C177.763 1066.25 177.966 1065.66 177.966 1064.88V1063.58L178.126 1061.42L178.094 1059.25V1057.39H180.462V1064.56C180.462 1066.16 180.046 1067.34 179.214 1068.1C178.382 1068.85 177.187 1069.23 175.63 1069.23ZM175.246 1065.58C174.446 1065.58 173.72 1065.41 173.07 1065.07C172.43 1064.72 171.912 1064.23 171.518 1063.62C171.134 1062.99 170.942 1062.26 170.942 1061.42C170.942 1060.58 171.134 1059.85 171.518 1059.23C171.912 1058.6 172.43 1058.12 173.07 1057.78C173.72 1057.43 174.446 1057.26 175.246 1057.26C175.971 1057.26 176.611 1057.41 177.166 1057.71C177.72 1058 178.152 1058.45 178.462 1059.07C178.771 1059.68 178.926 1060.46 178.926 1061.42C178.926 1062.37 178.771 1063.16 178.462 1063.78C178.152 1064.38 177.72 1064.84 177.166 1065.14C176.611 1065.43 175.971 1065.58 175.246 1065.58ZM175.742 1063.54C176.179 1063.54 176.568 1063.45 176.91 1063.28C177.251 1063.1 177.518 1062.85 177.71 1062.53C177.902 1062.21 177.998 1061.84 177.998 1061.42C177.998 1061 177.902 1060.63 177.71 1060.32C177.518 1060 177.251 1059.75 176.91 1059.58C176.568 1059.4 176.179 1059.31 175.742 1059.31C175.304 1059.31 174.915 1059.4 174.574 1059.58C174.232 1059.75 173.96 1060 173.758 1060.32C173.566 1060.63 173.47 1061 173.47 1061.42C173.47 1061.84 173.566 1062.21 173.758 1062.53C173.96 1062.85 174.232 1063.1 174.574 1063.28C174.915 1063.45 175.304 1063.54 175.742 1063.54ZM188.065 1066V1064.32L187.905 1063.95V1060.94C187.905 1060.41 187.739 1059.99 187.409 1059.7C187.089 1059.4 186.593 1059.25 185.921 1059.25C185.462 1059.25 185.009 1059.32 184.561 1059.47C184.123 1059.61 183.75 1059.8 183.441 1060.05L182.545 1058.3C183.014 1057.97 183.579 1057.72 184.241 1057.54C184.902 1057.35 185.574 1057.26 186.257 1057.26C187.569 1057.26 188.587 1057.57 189.313 1058.19C190.038 1058.81 190.401 1059.78 190.401 1061.09V1066H188.065ZM185.441 1066.13C184.769 1066.13 184.193 1066.02 183.713 1065.79C183.233 1065.56 182.865 1065.24 182.609 1064.85C182.353 1064.45 182.225 1064.01 182.225 1063.52C182.225 1063.01 182.347 1062.56 182.593 1062.18C182.849 1061.79 183.249 1061.49 183.793 1061.28C184.337 1061.06 185.046 1060.94 185.921 1060.94H188.209V1062.4H186.193C185.606 1062.4 185.201 1062.5 184.977 1062.69C184.763 1062.88 184.657 1063.12 184.657 1063.41C184.657 1063.73 184.779 1063.98 185.025 1064.18C185.281 1064.36 185.627 1064.45 186.065 1064.45C186.481 1064.45 186.854 1064.35 187.185 1064.16C187.515 1063.96 187.755 1063.66 187.905 1063.28L188.289 1064.43C188.107 1064.99 187.777 1065.41 187.297 1065.7C186.817 1065.98 186.198 1066.13 185.441 1066.13ZM192.66 1066V1057.39H195.044V1059.82L194.708 1059.12C194.964 1058.51 195.374 1058.05 195.94 1057.74C196.505 1057.42 197.193 1057.26 198.004 1057.26V1059.57C197.897 1059.56 197.801 1059.55 197.716 1059.55C197.63 1059.54 197.54 1059.54 197.444 1059.54C196.761 1059.54 196.206 1059.73 195.78 1060.13C195.364 1060.51 195.156 1061.11 195.156 1061.94V1066H192.66ZM203.697 1066.13C202.716 1066.13 201.852 1065.94 201.105 1065.55C200.369 1065.17 199.799 1064.65 199.393 1063.98C198.988 1063.31 198.785 1062.55 198.785 1061.7C198.785 1060.83 198.983 1060.07 199.377 1059.41C199.783 1058.74 200.332 1058.21 201.025 1057.84C201.719 1057.46 202.503 1057.26 203.377 1057.26C204.22 1057.26 204.977 1057.45 205.649 1057.81C206.332 1058.16 206.871 1058.67 207.265 1059.34C207.66 1060.01 207.857 1060.8 207.857 1061.73C207.857 1061.82 207.852 1061.94 207.841 1062.06C207.831 1062.18 207.82 1062.29 207.809 1062.4H200.817V1060.94H206.497L205.537 1061.38C205.537 1060.93 205.447 1060.54 205.265 1060.21C205.084 1059.88 204.833 1059.62 204.513 1059.44C204.193 1059.25 203.82 1059.15 203.393 1059.15C202.967 1059.15 202.588 1059.25 202.257 1059.44C201.937 1059.62 201.687 1059.88 201.505 1060.22C201.324 1060.55 201.233 1060.95 201.233 1061.41V1061.79C201.233 1062.26 201.335 1062.68 201.537 1063.04C201.751 1063.39 202.044 1063.66 202.417 1063.86C202.801 1064.04 203.249 1064.13 203.761 1064.13C204.22 1064.13 204.62 1064.06 204.961 1063.92C205.313 1063.78 205.633 1063.57 205.921 1063.3L207.249 1064.74C206.855 1065.18 206.359 1065.53 205.761 1065.78C205.164 1066.01 204.476 1066.13 203.697 1066.13ZM212.415 1066.13C211.679 1066.13 210.97 1066.04 210.287 1065.87C209.615 1065.69 209.082 1065.47 208.687 1065.2L209.519 1063.41C209.914 1063.65 210.378 1063.86 210.911 1064.02C211.455 1064.17 211.989 1064.24 212.511 1064.24C213.087 1064.24 213.493 1064.17 213.727 1064.03C213.973 1063.89 214.095 1063.7 214.095 1063.46C214.095 1063.25 213.999 1063.1 213.807 1063.01C213.626 1062.9 213.381 1062.82 213.071 1062.77C212.762 1062.71 212.421 1062.66 212.047 1062.61C211.685 1062.55 211.317 1062.49 210.943 1062.4C210.57 1062.3 210.229 1062.17 209.919 1061.98C209.61 1061.8 209.359 1061.56 209.167 1061.25C208.986 1060.94 208.895 1060.54 208.895 1060.05C208.895 1059.5 209.05 1059.02 209.359 1058.61C209.679 1058.19 210.138 1057.87 210.735 1057.63C211.333 1057.39 212.047 1057.26 212.879 1057.26C213.466 1057.26 214.063 1057.33 214.671 1057.46C215.279 1057.58 215.786 1057.77 216.191 1058.02L215.359 1059.79C214.943 1059.55 214.522 1059.38 214.095 1059.3C213.679 1059.2 213.274 1059.15 212.879 1059.15C212.325 1059.15 211.919 1059.23 211.663 1059.38C211.407 1059.53 211.279 1059.72 211.279 1059.95C211.279 1060.17 211.37 1060.33 211.551 1060.43C211.743 1060.54 211.994 1060.62 212.303 1060.69C212.613 1060.75 212.949 1060.81 213.311 1060.86C213.685 1060.91 214.058 1060.98 214.431 1061.07C214.805 1061.17 215.141 1061.31 215.439 1061.49C215.749 1061.66 215.999 1061.9 216.191 1062.21C216.383 1062.51 216.479 1062.9 216.479 1063.39C216.479 1063.93 216.319 1064.4 215.999 1064.82C215.679 1065.22 215.215 1065.54 214.607 1065.78C214.01 1066.01 213.279 1066.13 212.415 1066.13ZM226.598 1069.23C225.788 1069.23 225.004 1069.13 224.246 1068.93C223.5 1068.74 222.876 1068.44 222.374 1068.05L223.366 1066.26C223.729 1066.55 224.188 1066.79 224.742 1066.96C225.308 1067.14 225.862 1067.23 226.406 1067.23C227.292 1067.23 227.932 1067.03 228.326 1066.64C228.732 1066.25 228.934 1065.66 228.934 1064.88V1063.58L229.094 1061.42L229.062 1059.25V1057.39H231.43V1064.56C231.43 1066.16 231.014 1067.34 230.182 1068.1C229.35 1068.85 228.156 1069.23 226.598 1069.23ZM226.214 1065.58C225.414 1065.58 224.689 1065.41 224.038 1065.07C223.398 1064.72 222.881 1064.23 222.486 1063.62C222.102 1062.99 221.91 1062.26 221.91 1061.42C221.91 1060.58 222.102 1059.85 222.486 1059.23C222.881 1058.6 223.398 1058.12 224.038 1057.78C224.689 1057.43 225.414 1057.26 226.214 1057.26C226.94 1057.26 227.58 1057.41 228.134 1057.71C228.689 1058 229.121 1058.45 229.43 1059.07C229.74 1059.68 229.894 1060.46 229.894 1061.42C229.894 1062.37 229.74 1063.16 229.43 1063.78C229.121 1064.38 228.689 1064.84 228.134 1065.14C227.58 1065.43 226.94 1065.58 226.214 1065.58ZM226.71 1063.54C227.148 1063.54 227.537 1063.45 227.878 1063.28C228.22 1063.1 228.486 1062.85 228.678 1062.53C228.87 1062.21 228.966 1061.84 228.966 1061.42C228.966 1061 228.87 1060.63 228.678 1060.32C228.486 1060 228.22 1059.75 227.878 1059.58C227.537 1059.4 227.148 1059.31 226.71 1059.31C226.273 1059.31 225.884 1059.4 225.542 1059.58C225.201 1059.75 224.929 1060 224.726 1060.32C224.534 1060.63 224.438 1061 224.438 1061.42C224.438 1061.84 224.534 1062.21 224.726 1062.53C224.929 1062.85 225.201 1063.1 225.542 1063.28C225.884 1063.45 226.273 1063.54 226.71 1063.54ZM237.386 1066.13C236.671 1066.13 236.031 1065.99 235.466 1065.71C234.911 1065.43 234.479 1065.01 234.17 1064.45C233.86 1063.87 233.706 1063.14 233.706 1062.26V1057.39H236.202V1061.89C236.202 1062.6 236.351 1063.13 236.65 1063.47C236.959 1063.8 237.391 1063.97 237.946 1063.97C238.33 1063.97 238.671 1063.89 238.97 1063.73C239.268 1063.56 239.503 1063.3 239.674 1062.96C239.844 1062.61 239.93 1062.17 239.93 1061.65V1057.39H242.426V1066H240.058V1063.63L240.49 1064.32C240.202 1064.92 239.775 1065.37 239.21 1065.68C238.655 1065.98 238.047 1066.13 237.386 1066.13ZM250.018 1066V1064.32L249.858 1063.95V1060.94C249.858 1060.41 249.693 1059.99 249.362 1059.7C249.042 1059.4 248.546 1059.25 247.874 1059.25C247.415 1059.25 246.962 1059.32 246.514 1059.47C246.077 1059.61 245.703 1059.8 245.394 1060.05L244.498 1058.3C244.967 1057.97 245.533 1057.72 246.194 1057.54C246.855 1057.35 247.527 1057.26 248.21 1057.26C249.522 1057.26 250.541 1057.57 251.266 1058.19C251.991 1058.81 252.354 1059.78 252.354 1061.09V1066H250.018ZM247.394 1066.13C246.722 1066.13 246.146 1066.02 245.666 1065.79C245.186 1065.56 244.818 1065.24 244.562 1064.85C244.306 1064.45 244.178 1064.01 244.178 1063.52C244.178 1063.01 244.301 1062.56 244.546 1062.18C244.802 1061.79 245.202 1061.49 245.746 1061.28C246.29 1061.06 246.999 1060.94 247.874 1060.94H250.162V1062.4H248.146C247.559 1062.4 247.154 1062.5 246.93 1062.69C246.717 1062.88 246.61 1063.12 246.61 1063.41C246.61 1063.73 246.733 1063.98 246.978 1064.18C247.234 1064.36 247.581 1064.45 248.018 1064.45C248.434 1064.45 248.807 1064.35 249.138 1064.16C249.469 1063.96 249.709 1063.66 249.858 1063.28L250.242 1064.43C250.061 1064.99 249.73 1065.41 249.25 1065.7C248.77 1065.98 248.151 1066.13 247.394 1066.13ZM254.613 1066V1057.39H256.997V1059.82L256.661 1059.12C256.917 1058.51 257.328 1058.05 257.893 1057.74C258.458 1057.42 259.146 1057.26 259.957 1057.26V1059.57C259.85 1059.56 259.754 1059.55 259.669 1059.55C259.584 1059.54 259.493 1059.54 259.397 1059.54C258.714 1059.54 258.16 1059.73 257.733 1060.13C257.317 1060.51 257.109 1061.11 257.109 1061.94V1066H254.613ZM265.075 1066.13C264.264 1066.13 263.533 1065.95 262.883 1065.58C262.232 1065.21 261.715 1064.69 261.331 1064.03C260.957 1063.37 260.771 1062.59 260.771 1061.7C260.771 1060.79 260.957 1060.01 261.331 1059.34C261.715 1058.68 262.232 1058.17 262.883 1057.81C263.533 1057.45 264.264 1057.26 265.075 1057.26C265.8 1057.26 266.435 1057.42 266.979 1057.74C267.523 1058.06 267.944 1058.55 268.243 1059.2C268.541 1059.85 268.691 1060.68 268.691 1061.7C268.691 1062.7 268.547 1063.53 268.259 1064.19C267.971 1064.84 267.555 1065.33 267.011 1065.65C266.477 1065.97 265.832 1066.13 265.075 1066.13ZM265.507 1064.08C265.912 1064.08 266.28 1063.98 266.611 1063.79C266.941 1063.6 267.203 1063.33 267.395 1062.98C267.597 1062.61 267.699 1062.19 267.699 1061.7C267.699 1061.19 267.597 1060.77 267.395 1060.42C267.203 1060.06 266.941 1059.79 266.611 1059.6C266.28 1059.41 265.912 1059.31 265.507 1059.31C265.091 1059.31 264.717 1059.41 264.387 1059.6C264.056 1059.79 263.789 1060.06 263.587 1060.42C263.395 1060.77 263.299 1061.19 263.299 1061.7C263.299 1062.19 263.395 1062.61 263.587 1062.98C263.789 1063.33 264.056 1063.6 264.387 1063.79C264.717 1063.98 265.091 1064.08 265.507 1064.08ZM267.763 1066V1064.24L267.811 1061.68L267.651 1059.14V1054.13H270.147V1066H267.763ZM277.737 1066V1064.32L277.577 1063.95V1060.94C277.577 1060.41 277.411 1059.99 277.081 1059.7C276.761 1059.4 276.265 1059.25 275.593 1059.25C275.134 1059.25 274.681 1059.32 274.233 1059.47C273.795 1059.61 273.422 1059.8 273.113 1060.05L272.217 1058.3C272.686 1057.97 273.251 1057.72 273.913 1057.54C274.574 1057.35 275.246 1057.26 275.929 1057.26C277.241 1057.26 278.259 1057.57 278.985 1058.19C279.71 1058.81 280.073 1059.78 280.073 1061.09V1066H277.737ZM275.113 1066.13C274.441 1066.13 273.865 1066.02 273.385 1065.79C272.905 1065.56 272.537 1065.24 272.281 1064.85C272.025 1064.45 271.897 1064.01 271.897 1063.52C271.897 1063.01 272.019 1062.56 272.265 1062.18C272.521 1061.79 272.921 1061.49 273.465 1061.28C274.009 1061.06 274.718 1060.94 275.593 1060.94H277.881V1062.4H275.865C275.278 1062.4 274.873 1062.5 274.649 1062.69C274.435 1062.88 274.329 1063.12 274.329 1063.41C274.329 1063.73 274.451 1063.98 274.697 1064.18C274.953 1064.36 275.299 1064.45 275.737 1064.45C276.153 1064.45 276.526 1064.35 276.857 1064.16C277.187 1063.96 277.427 1063.66 277.577 1063.28L277.961 1064.43C277.779 1064.99 277.449 1065.41 276.969 1065.7C276.489 1065.98 275.87 1066.13 275.113 1066.13ZM286.09 1066.13C285.28 1066.13 284.549 1065.95 283.898 1065.58C283.248 1065.21 282.73 1064.69 282.346 1064.03C281.973 1063.37 281.786 1062.59 281.786 1061.7C281.786 1060.79 281.973 1060.01 282.346 1059.34C282.73 1058.68 283.248 1058.17 283.898 1057.81C284.549 1057.45 285.28 1057.26 286.09 1057.26C286.816 1057.26 287.45 1057.42 287.994 1057.74C288.538 1058.06 288.96 1058.55 289.258 1059.2C289.557 1059.85 289.706 1060.68 289.706 1061.7C289.706 1062.7 289.562 1063.53 289.274 1064.19C288.986 1064.84 288.57 1065.33 288.026 1065.65C287.493 1065.97 286.848 1066.13 286.09 1066.13ZM286.522 1064.08C286.928 1064.08 287.296 1063.98 287.626 1063.79C287.957 1063.6 288.218 1063.33 288.41 1062.98C288.613 1062.61 288.714 1062.19 288.714 1061.7C288.714 1061.19 288.613 1060.77 288.41 1060.42C288.218 1060.06 287.957 1059.79 287.626 1059.6C287.296 1059.41 286.928 1059.31 286.522 1059.31C286.106 1059.31 285.733 1059.41 285.402 1059.6C285.072 1059.79 284.805 1060.06 284.602 1060.42C284.41 1060.77 284.314 1061.19 284.314 1061.7C284.314 1062.19 284.41 1062.61 284.602 1062.98C284.805 1063.33 285.072 1063.6 285.402 1063.79C285.733 1063.98 286.106 1064.08 286.522 1064.08ZM288.778 1066V1064.24L288.826 1061.68L288.666 1059.14V1054.13H291.162V1066H288.778ZM297.568 1066.13C296.651 1066.13 295.835 1065.94 295.12 1065.55C294.416 1065.17 293.856 1064.65 293.44 1063.98C293.035 1063.31 292.832 1062.55 292.832 1061.7C292.832 1060.83 293.035 1060.07 293.44 1059.41C293.856 1058.74 294.416 1058.21 295.12 1057.84C295.835 1057.46 296.651 1057.26 297.568 1057.26C298.475 1057.26 299.286 1057.46 300 1057.84C300.715 1058.21 301.275 1058.73 301.68 1059.39C302.086 1060.05 302.288 1060.82 302.288 1061.7C302.288 1062.55 302.086 1063.31 301.68 1063.98C301.275 1064.65 300.715 1065.17 300 1065.55C299.286 1065.94 298.475 1066.13 297.568 1066.13ZM297.568 1064.08C297.984 1064.08 298.358 1063.98 298.688 1063.79C299.019 1063.6 299.28 1063.33 299.472 1062.98C299.664 1062.61 299.76 1062.19 299.76 1061.7C299.76 1061.19 299.664 1060.77 299.472 1060.42C299.28 1060.06 299.019 1059.79 298.688 1059.6C298.358 1059.41 297.984 1059.31 297.568 1059.31C297.152 1059.31 296.779 1059.41 296.448 1059.6C296.118 1059.79 295.851 1060.06 295.648 1060.42C295.456 1060.77 295.36 1061.19 295.36 1061.7C295.36 1062.19 295.456 1062.61 295.648 1062.98C295.851 1063.33 296.118 1063.6 296.448 1063.79C296.779 1063.98 297.152 1064.08 297.568 1064.08ZM306.853 1066.13C306.117 1066.13 305.407 1066.04 304.725 1065.87C304.053 1065.69 303.519 1065.47 303.125 1065.2L303.957 1063.41C304.351 1063.65 304.815 1063.86 305.349 1064.02C305.893 1064.17 306.426 1064.24 306.949 1064.24C307.525 1064.24 307.93 1064.17 308.165 1064.03C308.41 1063.89 308.533 1063.7 308.533 1063.46C308.533 1063.25 308.437 1063.1 308.245 1063.01C308.063 1062.9 307.818 1062.82 307.509 1062.77C307.199 1062.71 306.858 1062.66 306.485 1062.61C306.122 1062.55 305.754 1062.49 305.381 1062.4C305.007 1062.3 304.666 1062.17 304.357 1061.98C304.047 1061.8 303.797 1061.56 303.605 1061.25C303.423 1060.94 303.333 1060.54 303.333 1060.05C303.333 1059.5 303.487 1059.02 303.797 1058.61C304.117 1058.19 304.575 1057.87 305.173 1057.63C305.77 1057.39 306.485 1057.26 307.317 1057.26C307.903 1057.26 308.501 1057.33 309.109 1057.46C309.717 1057.58 310.223 1057.77 310.629 1058.02L309.797 1059.79C309.381 1059.55 308.959 1059.38 308.533 1059.3C308.117 1059.2 307.711 1059.15 307.317 1059.15C306.762 1059.15 306.357 1059.23 306.101 1059.38C305.845 1059.53 305.717 1059.72 305.717 1059.95C305.717 1060.17 305.807 1060.33 305.989 1060.43C306.181 1060.54 306.431 1060.62 306.741 1060.69C307.05 1060.75 307.386 1060.81 307.749 1060.86C308.122 1060.91 308.495 1060.98 308.869 1061.07C309.242 1061.17 309.578 1061.31 309.877 1061.49C310.186 1061.66 310.437 1061.9 310.629 1062.21C310.821 1062.51 310.917 1062.9 310.917 1063.39C310.917 1063.93 310.757 1064.4 310.437 1064.82C310.117 1065.22 309.653 1065.54 309.045 1065.78C308.447 1066.01 307.717 1066.13 306.853 1066.13Z" fill="#87549F"/>
<mask id="mask0_621_4770" style="mask-type:alpha" maskUnits="userSpaceOnUse" x="66" y="382" width="126" height="126">
<rect x="66.8138" y="487.694" width="106.647" height="106.647" transform="rotate(-79.5563 66.8138 487.694)" fill="#FEFEFE" stroke="#253A74"/>
</mask>
<g mask="url(#mask0_621_4770)">
<path d="M139.249 487.859L139.237 487.857L139.235 487.869L137.611 496.679L97.9242 489.364C95.5015 488.917 93.5867 487.672 92.1794 485.629C90.7721 483.586 90.2918 481.353 90.7384 478.93L102.12 417.182L133.456 395.6L155.493 399.662L153.869 408.472L153.867 408.484L153.879 408.486C157.552 409.163 160.436 411.024 162.533 414.068C164.63 417.113 165.34 420.471 164.663 424.144C163.986 427.816 162.126 430.701 159.081 432.798C156.037 434.894 152.678 435.604 149.006 434.927L148.993 434.925L148.991 434.937L144.113 461.403L144.111 461.416L144.123 461.418C147.796 462.095 150.68 463.955 152.777 467C154.874 470.045 155.584 473.403 154.907 477.075C154.23 480.748 152.369 483.632 149.325 485.729C146.28 487.826 142.922 488.536 139.249 487.859ZM122.535 430.074L122.548 430.076L122.55 430.064L125.802 412.42L125.807 412.39L125.783 412.407L110.111 423.201L110.108 423.197L110.105 423.209L109.292 427.62L109.29 427.632L109.302 427.635L122.535 430.074ZM117.657 456.54L117.669 456.542L117.672 456.53L120.924 438.886L120.926 438.873L120.914 438.871L107.681 436.432L107.668 436.43L107.666 436.442L104.414 454.086L104.412 454.098L104.424 454.101L117.657 456.54ZM112.779 483.006L112.791 483.008L112.793 482.996L116.045 465.352L116.048 465.339L116.035 465.337L102.802 462.898L102.79 462.896L102.788 462.908L99.5357 480.552L99.5335 480.564L99.5458 480.566L112.779 483.006ZM130.423 486.258L130.435 486.26L130.437 486.248L131.088 482.719L131.093 482.72L131.085 482.709C129.993 481.217 129.192 479.588 128.682 477.823C128.172 476.059 128.1 474.185 128.465 472.202C128.831 470.218 129.567 468.494 130.672 467.027C131.778 465.56 133.107 464.324 134.66 463.319L134.663 463.324L134.665 463.311L140.844 429.787L140.85 429.788L140.842 429.777C139.75 428.285 138.949 426.656 138.439 424.891C137.929 423.127 137.856 421.253 138.222 419.27C138.587 417.287 139.323 415.562 140.429 414.095C141.535 412.628 142.864 411.392 144.416 410.387L144.419 410.392L144.422 410.379L145.072 406.85L145.074 406.838L145.062 406.835L136.24 405.209L136.228 405.207L136.225 405.219L121.591 484.617L121.588 484.629L121.601 484.632L130.423 486.258ZM147.212 475.657C147.497 474.11 147.204 472.704 146.333 471.438C145.461 470.173 144.252 469.398 142.705 469.113C141.158 468.827 139.751 469.121 138.486 469.992C137.221 470.863 136.445 472.073 136.16 473.62C135.875 475.167 136.168 476.574 137.039 477.839C137.911 479.104 139.12 479.879 140.667 480.165C142.214 480.45 143.621 480.157 144.886 479.285C146.152 478.414 146.927 477.204 147.212 475.657ZM156.969 422.725C157.254 421.178 156.961 419.772 156.089 418.506C155.218 417.241 154.008 416.466 152.461 416.181C150.914 415.896 149.508 416.189 148.242 417.06C146.977 417.932 146.202 419.141 145.917 420.688C145.631 422.235 145.925 423.642 146.796 424.907C147.667 426.172 148.877 426.948 150.424 427.233C151.971 427.518 153.378 427.225 154.643 426.353C155.908 425.482 156.683 424.272 156.969 422.725Z" fill="#253A74" stroke="#253A74" stroke-width="0.025"/>
</g>
<path d="M162.772 179.34L162.772 179.34C160.242 178.45 158.296 176.851 156.936 174.545C155.577 172.239 155.168 169.784 155.712 167.18C156.255 164.577 157.612 162.49 159.781 160.921C161.95 159.351 164.372 158.665 167.048 158.861L171.136 159.173L173.452 155.864C173.452 155.864 173.452 155.864 173.452 155.864C174.66 154.124 176.256 152.842 178.239 152.019C180.222 151.195 182.255 151.001 184.338 151.436C187.23 152.039 189.478 153.565 191.08 156.013C192.682 158.46 193.181 161.13 192.577 164.023L188.234 184.824C187.63 187.716 186.105 189.964 183.657 191.566C181.21 193.168 178.54 193.667 175.647 193.063C173.565 192.628 171.779 191.637 170.291 190.089C168.804 188.54 167.854 186.727 167.443 184.649L162.772 179.34ZM162.772 179.34L166.644 180.69L167.443 184.649L162.772 179.34ZM211.931 175.299L212.383 173.132L217.743 174.251L215.398 185.483L210.038 184.365L210.483 182.233L210.486 182.221L210.474 182.218L196.606 179.323L196.594 179.32L196.591 179.333L195.144 186.267C194.143 191.059 191.601 194.792 187.518 197.464C183.435 200.137 178.998 200.973 174.205 199.973C170.74 199.249 167.749 197.631 165.231 195.116C162.713 192.602 161.127 189.59 160.474 186.079L160.487 186.077L160.466 186.069C156.244 184.646 153.015 181.998 150.781 178.127C148.546 174.256 147.886 170.126 148.803 165.738C149.719 161.349 151.975 157.829 155.572 155.175C159.169 152.521 163.187 151.387 167.626 151.771L167.625 151.784L167.638 151.766C169.641 148.809 172.299 146.683 175.613 145.386C178.927 144.09 182.316 143.803 185.78 144.526C190.573 145.527 194.305 148.068 196.978 152.152C199.651 156.235 200.487 160.672 199.486 165.465L198.039 172.399L198.036 172.411L198.048 172.414L211.916 175.309L211.928 175.311L211.931 175.299Z" fill="#253A74" stroke="#253A74" stroke-width="0.025"/>
<path d="M259.772 754.34L259.772 754.34C257.242 753.45 255.296 751.851 253.936 749.545C252.577 747.239 252.168 744.784 252.712 742.18C253.255 739.577 254.612 737.49 256.781 735.921C258.95 734.351 261.372 733.665 264.048 733.861L268.136 734.173L270.452 730.864C270.452 730.864 270.452 730.864 270.452 730.864C271.66 729.124 273.256 727.842 275.239 727.019C277.222 726.195 279.255 726.001 281.338 726.436C284.23 727.039 286.478 728.565 288.08 731.013C289.682 733.46 290.181 736.13 289.577 739.023L285.234 759.824C284.63 762.716 283.105 764.964 280.657 766.566C278.21 768.168 275.54 768.667 272.647 768.063C270.565 767.628 268.779 766.637 267.291 765.089C265.804 763.54 264.854 761.727 264.443 759.649L259.772 754.34ZM259.772 754.34L263.644 755.69L264.443 759.649L259.772 754.34ZM308.931 750.299L309.383 748.132L314.743 749.251L312.398 760.483L307.038 759.365L307.483 757.233L307.486 757.221L307.474 757.218L293.606 754.323L293.594 754.32L293.591 754.333L292.144 761.267C291.143 766.059 288.601 769.792 284.518 772.464C280.435 775.137 275.998 775.973 271.205 774.973C267.74 774.249 264.749 772.631 262.231 770.116C259.713 767.602 258.127 764.59 257.474 761.079L257.487 761.077L257.466 761.069C253.244 759.646 250.015 756.998 247.781 753.127C245.546 749.256 244.886 745.126 245.803 740.738C246.719 736.349 248.975 732.829 252.572 730.175C256.169 727.521 260.187 726.387 264.626 726.771L264.625 726.784L264.638 726.766C266.641 723.809 269.299 721.683 272.613 720.386C275.927 719.09 279.316 718.803 282.78 719.526C287.573 720.527 291.305 723.068 293.978 727.152C296.651 731.235 297.487 735.672 296.486 740.465L295.039 747.399L295.036 747.411L295.048 747.414L308.916 750.309L308.928 750.311L308.931 750.299Z" fill="#253A74" stroke="#253A74" stroke-width="0.025"/>
<path d="M10.7722 836.34L10.7721 836.34C8.24156 835.45 6.29619 833.851 4.93645 831.545C3.57665 829.239 3.16841 826.784 3.71189 824.18C4.25537 821.577 5.61178 819.49 7.78075 817.921C9.94961 816.351 12.372 815.665 15.0476 815.861L19.136 816.173L21.452 812.864C21.452 812.864 21.452 812.864 21.452 812.864C22.6604 811.124 24.2562 809.842 26.2391 809.019C28.2222 808.195 30.2552 808.001 32.3378 808.436C35.2301 809.039 37.4776 810.565 39.0796 813.013C40.6816 815.46 41.1807 818.13 40.5769 821.023L36.2342 841.824C35.6304 844.716 34.1046 846.964 31.6572 848.566C29.2098 850.168 26.5396 850.667 23.6473 850.063C21.5647 849.628 19.7793 848.637 18.2914 847.089C16.8036 845.54 15.8539 843.727 15.4426 841.649L10.7722 836.34ZM10.7722 836.34L14.6438 837.69L15.4426 841.649L10.7722 836.34ZM59.9309 832.299L60.3833 830.132L65.7428 831.251L63.3977 842.483L58.0383 841.365L58.4833 839.233L58.4859 839.221L58.4736 839.218L44.6059 836.323L44.5937 836.32L44.5912 836.333L43.1436 843.267C42.143 848.059 39.6014 851.792 35.5182 854.464C31.4351 857.137 26.9975 857.973 22.2048 856.973C18.7403 856.249 15.7491 854.631 13.2309 852.116C10.7128 849.602 9.12728 846.59 8.47428 843.079L8.48721 843.077L8.46599 843.069C4.2438 841.646 1.01547 838.998 -1.21944 835.127C-3.45433 831.256 -4.11365 827.126 -3.19748 822.738C-2.28132 818.349 -0.0248479 814.829 3.57223 812.175C7.16934 809.521 11.1872 808.387 15.6264 808.771L15.6253 808.784L15.6378 808.766C17.6409 805.809 20.2992 803.683 23.6129 802.386C26.9267 801.09 30.3158 800.803 33.7803 801.526C38.573 802.527 42.3054 805.068 44.9781 809.152C47.6508 813.235 48.4869 817.672 47.4863 822.465L46.0387 829.399L46.0362 829.411L46.0484 829.414L59.9161 832.309L59.9283 832.311L59.9309 832.299Z" fill="#253A74" stroke="#253A74" stroke-width="0.025"/>
<path d="M41.853 48.84H47.229V50.92H41.853V48.84ZM42.045 55H39.453V43.8H47.917V45.88H42.045V55ZM54.5258 55V53.32L54.3658 52.952V49.944C54.3658 49.4107 54.2004 48.9947 53.8698 48.696C53.5498 48.3973 53.0538 48.248 52.3818 48.248C51.9231 48.248 51.4698 48.3227 51.0218 48.472C50.5844 48.6107 50.2111 48.8027 49.9018 49.048L49.0058 47.304C49.4751 46.9733 50.0404 46.7173 50.7018 46.536C51.3631 46.3547 52.0351 46.264 52.7178 46.264C54.0298 46.264 55.0484 46.5733 55.7738 47.192C56.4991 47.8107 56.8618 48.776 56.8618 50.088V55H54.5258ZM51.9018 55.128C51.2298 55.128 50.6538 55.016 50.1738 54.792C49.6938 54.5573 49.3258 54.2427 49.0698 53.848C48.8138 53.4533 48.6858 53.0107 48.6858 52.52C48.6858 52.008 48.8084 51.56 49.0538 51.176C49.3098 50.792 49.7098 50.4933 50.2538 50.28C50.7978 50.056 51.5071 49.944 52.3818 49.944H54.6698V51.4H52.6538C52.0671 51.4 51.6618 51.496 51.4378 51.688C51.2244 51.88 51.1178 52.12 51.1178 52.408C51.1178 52.728 51.2404 52.984 51.4858 53.176C51.7418 53.3573 52.0884 53.448 52.5258 53.448C52.9418 53.448 53.3151 53.352 53.6458 53.16C53.9764 52.9573 54.2164 52.664 54.3658 52.28L54.7498 53.432C54.5684 53.9867 54.2378 54.408 53.7578 54.696C53.2778 54.984 52.6591 55.128 51.9018 55.128ZM63.3433 55.128C62.4153 55.128 61.5886 54.9413 60.8633 54.568C60.1379 54.184 59.5673 53.656 59.1513 52.984C58.7459 52.312 58.5433 51.5493 58.5433 50.696C58.5433 49.832 58.7459 49.0693 59.1513 48.408C59.5673 47.736 60.1379 47.2133 60.8633 46.84C61.5886 46.456 62.4153 46.264 63.3433 46.264C64.2499 46.264 65.0393 46.456 65.7113 46.84C66.3833 47.2133 66.8793 47.752 67.1993 48.456L65.2633 49.496C65.0393 49.0907 64.7566 48.792 64.4153 48.6C64.0846 48.408 63.7219 48.312 63.3273 48.312C62.9006 48.312 62.5166 48.408 62.1753 48.6C61.8339 48.792 61.5619 49.064 61.3593 49.416C61.1673 49.768 61.0713 50.1947 61.0713 50.696C61.0713 51.1973 61.1673 51.624 61.3593 51.976C61.5619 52.328 61.8339 52.6 62.1753 52.792C62.5166 52.984 62.9006 53.08 63.3273 53.08C63.7219 53.08 64.0846 52.9893 64.4153 52.808C64.7566 52.616 65.0393 52.312 65.2633 51.896L67.1993 52.952C66.8793 53.6453 66.3833 54.184 65.7113 54.568C65.0393 54.9413 64.2499 55.128 63.3433 55.128ZM68.5895 55V46.392H71.0855V55H68.5895ZM69.8375 45.192C69.3788 45.192 69.0055 45.0587 68.7175 44.792C68.4295 44.5253 68.2855 44.1947 68.2855 43.8C68.2855 43.4053 68.4295 43.0747 68.7175 42.808C69.0055 42.5413 69.3788 42.408 69.8375 42.408C70.2962 42.408 70.6695 42.536 70.9575 42.792C71.2455 43.0373 71.3895 43.3573 71.3895 43.752C71.3895 44.168 71.2455 44.5147 70.9575 44.792C70.6802 45.0587 70.3068 45.192 69.8375 45.192ZM73.402 55V43.128H75.898V55H73.402ZM78.2145 55V46.392H80.7105V55H78.2145ZM79.4625 45.192C79.0038 45.192 78.6305 45.0587 78.3425 44.792C78.0545 44.5253 77.9105 44.1947 77.9105 43.8C77.9105 43.4053 78.0545 43.0747 78.3425 42.808C78.6305 42.5413 79.0038 42.408 79.4625 42.408C79.9212 42.408 80.2945 42.536 80.5825 42.792C80.8705 43.0373 81.0145 43.3573 81.0145 43.752C81.0145 44.168 80.8705 44.5147 80.5825 44.792C80.3052 45.0587 79.9318 45.192 79.4625 45.192ZM86.547 55.128C85.5337 55.128 84.7443 54.872 84.179 54.36C83.6137 53.8373 83.331 53.064 83.331 52.04V44.488H85.827V52.008C85.827 52.3707 85.923 52.6533 86.115 52.856C86.307 53.048 86.5683 53.144 86.899 53.144C87.2937 53.144 87.6297 53.0373 87.907 52.824L88.579 54.584C88.323 54.7653 88.0137 54.904 87.651 55C87.299 55.0853 86.931 55.128 86.547 55.128ZM82.003 48.504V46.584H87.971V48.504H82.003ZM95.2601 55V53.32L95.1001 52.952V49.944C95.1001 49.4107 94.9348 48.9947 94.6041 48.696C94.2841 48.3973 93.7881 48.248 93.1161 48.248C92.6575 48.248 92.2041 48.3227 91.7561 48.472C91.3188 48.6107 90.9455 48.8027 90.6361 49.048L89.7401 47.304C90.2095 46.9733 90.7748 46.7173 91.4361 46.536C92.0975 46.3547 92.7695 46.264 93.4521 46.264C94.7641 46.264 95.7828 46.5733 96.5081 47.192C97.2335 47.8107 97.5961 48.776 97.5961 50.088V55H95.2601ZM92.6361 55.128C91.9641 55.128 91.3881 55.016 90.9081 54.792C90.4281 54.5573 90.0601 54.2427 89.8041 53.848C89.5481 53.4533 89.4201 53.0107 89.4201 52.52C89.4201 52.008 89.5428 51.56 89.7881 51.176C90.0441 50.792 90.4441 50.4933 90.9881 50.28C91.5321 50.056 92.2415 49.944 93.1161 49.944H95.4041V51.4H93.3881C92.8015 51.4 92.3961 51.496 92.1721 51.688C91.9588 51.88 91.8521 52.12 91.8521 52.408C91.8521 52.728 91.9748 52.984 92.2201 53.176C92.4761 53.3573 92.8228 53.448 93.2601 53.448C93.6761 53.448 94.0495 53.352 94.3801 53.16C94.7108 52.9573 94.9508 52.664 95.1001 52.28L95.4841 53.432C95.3028 53.9867 94.9721 54.408 94.4921 54.696C94.0121 54.984 93.3935 55.128 92.6361 55.128ZM104.386 55V43.128H106.882V55H104.386ZM114.479 55V53.32L114.319 52.952V49.944C114.319 49.4107 114.154 48.9947 113.823 48.696C113.503 48.3973 113.007 48.248 112.335 48.248C111.876 48.248 111.423 48.3227 110.975 48.472C110.538 48.6107 110.164 48.8027 109.855 49.048L108.959 47.304C109.428 46.9733 109.994 46.7173 110.655 46.536C111.316 46.3547 111.988 46.264 112.671 46.264C113.983 46.264 115.002 46.5733 115.727 47.192C116.452 47.8107 116.815 48.776 116.815 50.088V55H114.479ZM111.855 55.128C111.183 55.128 110.607 55.016 110.127 54.792C109.647 54.5573 109.279 54.2427 109.023 53.848C108.767 53.4533 108.639 53.0107 108.639 52.52C108.639 52.008 108.762 51.56 109.007 51.176C109.263 50.792 109.663 50.4933 110.207 50.28C110.751 50.056 111.46 49.944 112.335 49.944H114.623V51.4H112.607C112.02 51.4 111.615 51.496 111.391 51.688C111.178 51.88 111.071 52.12 111.071 52.408C111.071 52.728 111.194 52.984 111.439 53.176C111.695 53.3573 112.042 53.448 112.479 53.448C112.895 53.448 113.268 53.352 113.599 53.16C113.93 52.9573 114.17 52.664 114.319 52.28L114.703 53.432C114.522 53.9867 114.191 54.408 113.711 54.696C113.231 54.984 112.612 55.128 111.855 55.128ZM121.97 55.128C121.234 55.128 120.525 55.0427 119.842 54.872C119.17 54.6907 118.637 54.4667 118.242 54.2L119.074 52.408C119.469 52.6533 119.933 52.856 120.466 53.016C121.01 53.1653 121.543 53.24 122.066 53.24C122.642 53.24 123.047 53.1707 123.282 53.032C123.527 52.8933 123.65 52.7013 123.65 52.456C123.65 52.2533 123.554 52.104 123.362 52.008C123.181 51.9013 122.935 51.8213 122.626 51.768C122.317 51.7147 121.975 51.6613 121.602 51.608C121.239 51.5547 120.871 51.4853 120.498 51.4C120.125 51.304 119.783 51.1653 119.474 50.984C119.165 50.8027 118.914 50.5573 118.722 50.248C118.541 49.9387 118.45 49.5387 118.45 49.048C118.45 48.504 118.605 48.024 118.914 47.608C119.234 47.192 119.693 46.8667 120.29 46.632C120.887 46.3867 121.602 46.264 122.434 46.264C123.021 46.264 123.618 46.328 124.226 46.456C124.834 46.584 125.341 46.7707 125.746 47.016L124.914 48.792C124.498 48.5467 124.077 48.3813 123.65 48.296C123.234 48.2 122.829 48.152 122.434 48.152C121.879 48.152 121.474 48.2267 121.218 48.376C120.962 48.5253 120.834 48.7173 120.834 48.952C120.834 49.1653 120.925 49.3253 121.106 49.432C121.298 49.5387 121.549 49.624 121.858 49.688C122.167 49.752 122.503 49.8107 122.866 49.864C123.239 49.9067 123.613 49.976 123.986 50.072C124.359 50.168 124.695 50.3067 124.994 50.488C125.303 50.6587 125.554 50.8987 125.746 51.208C125.938 51.5067 126.034 51.9013 126.034 52.392C126.034 52.9253 125.874 53.4 125.554 53.816C125.234 54.2213 124.77 54.5413 124.162 54.776C123.565 55.0107 122.834 55.128 121.97 55.128ZM132.105 55V46.392H134.489V48.824L134.153 48.12C134.409 47.512 134.82 47.0533 135.385 46.744C135.95 46.424 136.638 46.264 137.449 46.264V48.568C137.342 48.5573 137.246 48.552 137.161 48.552C137.076 48.5413 136.985 48.536 136.889 48.536C136.206 48.536 135.652 48.7333 135.225 49.128C134.809 49.512 134.601 50.1147 134.601 50.936V55H132.105ZM143.143 55.128C142.161 55.128 141.297 54.936 140.551 54.552C139.815 54.168 139.244 53.6453 138.839 52.984C138.433 52.312 138.231 51.5493 138.231 50.696C138.231 49.832 138.428 49.0693 138.823 48.408C139.228 47.736 139.777 47.2133 140.471 46.84C141.164 46.456 141.948 46.264 142.823 46.264C143.665 46.264 144.423 46.4453 145.095 46.808C145.777 47.16 146.316 47.672 146.711 48.344C147.105 49.0053 147.303 49.8 147.303 50.728C147.303 50.824 147.297 50.936 147.287 51.064C147.276 51.1813 147.265 51.2933 147.255 51.4H140.263V49.944H145.943L144.983 50.376C144.983 49.928 144.892 49.5387 144.711 49.208C144.529 48.8773 144.279 48.6213 143.959 48.44C143.639 48.248 143.265 48.152 142.839 48.152C142.412 48.152 142.033 48.248 141.703 48.44C141.383 48.6213 141.132 48.8827 140.951 49.224C140.769 49.5547 140.679 49.9493 140.679 50.408V50.792C140.679 51.2613 140.78 51.6773 140.983 52.04C141.196 52.392 141.489 52.664 141.863 52.856C142.247 53.0373 142.695 53.128 143.207 53.128C143.665 53.128 144.065 53.0587 144.407 52.92C144.759 52.7813 145.079 52.5733 145.367 52.296L146.695 53.736C146.3 54.184 145.804 54.5307 145.207 54.776C144.609 55.0107 143.921 55.128 143.143 55.128ZM152.597 55.128C151.882 55.128 151.242 54.9893 150.677 54.712C150.122 54.4347 149.69 54.0133 149.381 53.448C149.071 52.872 148.917 52.1413 148.917 51.256V46.392H151.413V50.888C151.413 51.6027 151.562 52.1307 151.861 52.472C152.17 52.8027 152.602 52.968 153.157 52.968C153.541 52.968 153.882 52.888 154.181 52.728C154.479 52.5573 154.714 52.3013 154.885 51.96C155.055 51.608 155.141 51.1707 155.141 50.648V46.392H157.637V55H155.269V52.632L155.701 53.32C155.413 53.9173 154.986 54.3707 154.421 54.68C153.866 54.9787 153.258 55.128 152.597 55.128ZM165.181 46.264C165.864 46.264 166.472 46.4027 167.005 46.68C167.549 46.9467 167.976 47.3627 168.285 47.928C168.594 48.4827 168.749 49.1973 168.749 50.072V55H166.253V50.456C166.253 49.7627 166.098 49.2507 165.789 48.92C165.49 48.5893 165.064 48.424 164.509 48.424C164.114 48.424 163.757 48.5093 163.437 48.68C163.128 48.84 162.882 49.0907 162.701 49.432C162.53 49.7733 162.445 50.2107 162.445 50.744V55H159.949V46.392H162.333V48.776L161.885 48.056C162.194 47.48 162.637 47.0373 163.213 46.728C163.789 46.4187 164.445 46.264 165.181 46.264ZM171.011 55V46.392H173.507V55H171.011ZM172.259 45.192C171.801 45.192 171.427 45.0587 171.139 44.792C170.851 44.5253 170.707 44.1947 170.707 43.8C170.707 43.4053 170.851 43.0747 171.139 42.808C171.427 42.5413 171.801 42.408 172.259 42.408C172.718 42.408 173.091 42.536 173.379 42.792C173.667 43.0373 173.811 43.3573 173.811 43.752C173.811 44.168 173.667 44.5147 173.379 44.792C173.102 45.0587 172.729 45.192 172.259 45.192ZM179.92 55.128C179.003 55.128 178.187 54.936 177.472 54.552C176.768 54.168 176.208 53.6453 175.792 52.984C175.387 52.312 175.184 51.5493 175.184 50.696C175.184 49.832 175.387 49.0693 175.792 48.408C176.208 47.736 176.768 47.2133 177.472 46.84C178.187 46.456 179.003 46.264 179.92 46.264C180.827 46.264 181.637 46.456 182.352 46.84C183.067 47.2133 183.627 47.7307 184.032 48.392C184.437 49.0533 184.64 49.8213 184.64 50.696C184.64 51.5493 184.437 52.312 184.032 52.984C183.627 53.6453 183.067 54.168 182.352 54.552C181.637 54.936 180.827 55.128 179.92 55.128ZM179.92 53.08C180.336 53.08 180.709 52.984 181.04 52.792C181.371 52.6 181.632 52.328 181.824 51.976C182.016 51.6133 182.112 51.1867 182.112 50.696C182.112 50.1947 182.016 49.768 181.824 49.416C181.632 49.064 181.371 48.792 181.04 48.6C180.709 48.408 180.336 48.312 179.92 48.312C179.504 48.312 179.131 48.408 178.8 48.6C178.469 48.792 178.203 49.064 178 49.416C177.808 49.768 177.712 50.1947 177.712 50.696C177.712 51.1867 177.808 51.6133 178 51.976C178.203 52.328 178.469 52.6 178.8 52.792C179.131 52.984 179.504 53.08 179.92 53.08ZM191.54 46.264C192.223 46.264 192.831 46.4027 193.364 46.68C193.908 46.9467 194.335 47.3627 194.644 47.928C194.954 48.4827 195.108 49.1973 195.108 50.072V55H192.612V50.456C192.612 49.7627 192.458 49.2507 192.148 48.92C191.85 48.5893 191.423 48.424 190.868 48.424C190.474 48.424 190.116 48.5093 189.796 48.68C189.487 48.84 189.242 49.0907 189.06 49.432C188.89 49.7733 188.804 50.2107 188.804 50.744V55H186.308V46.392H188.692V48.776L188.244 48.056C188.554 47.48 188.996 47.0373 189.572 46.728C190.148 46.4187 190.804 46.264 191.54 46.264ZM201.705 55.128C200.724 55.128 199.86 54.936 199.113 54.552C198.377 54.168 197.807 53.6453 197.401 52.984C196.996 52.312 196.793 51.5493 196.793 50.696C196.793 49.832 196.991 49.0693 197.385 48.408C197.791 47.736 198.34 47.2133 199.033 46.84C199.727 46.456 200.511 46.264 201.385 46.264C202.228 46.264 202.985 46.4453 203.657 46.808C204.34 47.16 204.879 47.672 205.273 48.344C205.668 49.0053 205.865 49.8 205.865 50.728C205.865 50.824 205.86 50.936 205.849 51.064C205.839 51.1813 205.828 51.2933 205.817 51.4H198.825V49.944H204.505L203.545 50.376C203.545 49.928 203.455 49.5387 203.273 49.208C203.092 48.8773 202.841 48.6213 202.521 48.44C202.201 48.248 201.828 48.152 201.401 48.152C200.975 48.152 200.596 48.248 200.265 48.44C199.945 48.6213 199.695 48.8827 199.513 49.224C199.332 49.5547 199.241 49.9493 199.241 50.408V50.792C199.241 51.2613 199.343 51.6773 199.545 52.04C199.759 52.392 200.052 52.664 200.425 52.856C200.809 53.0373 201.257 53.128 201.769 53.128C202.228 53.128 202.628 53.0587 202.969 52.92C203.321 52.7813 203.641 52.5733 203.929 52.296L205.257 53.736C204.863 54.184 204.367 54.5307 203.769 54.776C203.172 55.0107 202.484 55.128 201.705 55.128ZM210.423 55.128C209.687 55.128 208.978 55.0427 208.295 54.872C207.623 54.6907 207.09 54.4667 206.695 54.2L207.527 52.408C207.922 52.6533 208.386 52.856 208.919 53.016C209.463 53.1653 209.996 53.24 210.519 53.24C211.095 53.24 211.5 53.1707 211.735 53.032C211.98 52.8933 212.103 52.7013 212.103 52.456C212.103 52.2533 212.007 52.104 211.815 52.008C211.634 51.9013 211.388 51.8213 211.079 51.768C210.77 51.7147 210.428 51.6613 210.055 51.608C209.692 51.5547 209.324 51.4853 208.951 51.4C208.578 51.304 208.236 51.1653 207.927 50.984C207.618 50.8027 207.367 50.5573 207.175 50.248C206.994 49.9387 206.903 49.5387 206.903 49.048C206.903 48.504 207.058 48.024 207.367 47.608C207.687 47.192 208.146 46.8667 208.743 46.632C209.34 46.3867 210.055 46.264 210.887 46.264C211.474 46.264 212.071 46.328 212.679 46.456C213.287 46.584 213.794 46.7707 214.199 47.016L213.367 48.792C212.951 48.5467 212.53 48.3813 212.103 48.296C211.687 48.2 211.282 48.152 210.887 48.152C210.332 48.152 209.927 48.2267 209.671 48.376C209.415 48.5253 209.287 48.7173 209.287 48.952C209.287 49.1653 209.378 49.3253 209.559 49.432C209.751 49.5387 210.002 49.624 210.311 49.688C210.62 49.752 210.956 49.8107 211.319 49.864C211.692 49.9067 212.066 49.976 212.439 50.072C212.812 50.168 213.148 50.3067 213.447 50.488C213.756 50.6587 214.007 50.8987 214.199 51.208C214.391 51.5067 214.487 51.9013 214.487 52.392C214.487 52.9253 214.327 53.4 214.007 53.816C213.687 54.2213 213.223 54.5413 212.615 54.776C212.018 55.0107 211.287 55.128 210.423 55.128Z" fill="#87549F"/>
</g>
<path d="M135.938 637.192C135.074 637.192 134.269 637.053 133.522 636.776C132.786 636.488 132.146 636.083 131.602 635.56C131.058 635.037 130.631 634.424 130.322 633.72C130.023 633.016 129.874 632.243 129.874 631.4C129.874 630.557 130.023 629.784 130.322 629.08C130.631 628.376 131.058 627.763 131.602 627.24C132.157 626.717 132.802 626.317 133.538 626.04C134.274 625.752 135.079 625.608 135.954 625.608C136.925 625.608 137.799 625.779 138.578 626.12C139.367 626.451 140.029 626.941 140.562 627.592L138.898 629.128C138.514 628.691 138.087 628.365 137.618 628.152C137.149 627.928 136.637 627.816 136.082 627.816C135.559 627.816 135.079 627.901 134.642 628.072C134.205 628.243 133.826 628.488 133.506 628.808C133.186 629.128 132.935 629.507 132.754 629.944C132.583 630.381 132.498 630.867 132.498 631.4C132.498 631.933 132.583 632.419 132.754 632.856C132.935 633.293 133.186 633.672 133.506 633.992C133.826 634.312 134.205 634.557 134.642 634.728C135.079 634.899 135.559 634.984 136.082 634.984C136.637 634.984 137.149 634.877 137.618 634.664C138.087 634.44 138.514 634.104 138.898 633.656L140.562 635.192C140.029 635.843 139.367 636.339 138.578 636.68C137.799 637.021 136.919 637.192 135.938 637.192ZM145.936 637.128C145.018 637.128 144.202 636.936 143.488 636.552C142.784 636.168 142.224 635.645 141.808 634.984C141.402 634.312 141.2 633.549 141.2 632.696C141.2 631.832 141.402 631.069 141.808 630.408C142.224 629.736 142.784 629.213 143.488 628.84C144.202 628.456 145.018 628.264 145.936 628.264C146.842 628.264 147.653 628.456 148.368 628.84C149.082 629.213 149.642 629.731 150.048 630.392C150.453 631.053 150.656 631.821 150.656 632.696C150.656 633.549 150.453 634.312 150.048 634.984C149.642 635.645 149.082 636.168 148.368 636.552C147.653 636.936 146.842 637.128 145.936 637.128ZM145.936 635.08C146.352 635.08 146.725 634.984 147.056 634.792C147.386 634.6 147.648 634.328 147.84 633.976C148.032 633.613 148.128 633.187 148.128 632.696C148.128 632.195 148.032 631.768 147.84 631.416C147.648 631.064 147.386 630.792 147.056 630.6C146.725 630.408 146.352 630.312 145.936 630.312C145.52 630.312 145.146 630.408 144.816 630.6C144.485 630.792 144.218 631.064 144.016 631.416C143.824 631.768 143.728 632.195 143.728 632.696C143.728 633.187 143.824 633.613 144.016 633.976C144.218 634.328 144.485 634.6 144.816 634.792C145.146 634.984 145.52 635.08 145.936 635.08ZM163.348 628.264C164.031 628.264 164.633 628.403 165.156 628.68C165.689 628.947 166.105 629.363 166.404 629.928C166.713 630.483 166.868 631.197 166.868 632.072V637H164.372V632.456C164.372 631.763 164.228 631.251 163.94 630.92C163.652 630.589 163.247 630.424 162.724 630.424C162.361 630.424 162.036 630.509 161.748 630.68C161.46 630.84 161.236 631.085 161.076 631.416C160.916 631.747 160.836 632.168 160.836 632.68V637H158.34V632.456C158.34 631.763 158.196 631.251 157.908 630.92C157.631 630.589 157.231 630.424 156.708 630.424C156.345 630.424 156.02 630.509 155.732 630.68C155.444 630.84 155.22 631.085 155.06 631.416C154.9 631.747 154.82 632.168 154.82 632.68V637H152.324V628.392H154.708V630.744L154.26 630.056C154.559 629.469 154.98 629.027 155.524 628.728C156.079 628.419 156.708 628.264 157.412 628.264C158.201 628.264 158.889 628.467 159.476 628.872C160.073 629.267 160.468 629.875 160.66 630.696L159.78 630.456C160.068 629.784 160.527 629.251 161.156 628.856C161.796 628.461 162.527 628.264 163.348 628.264ZM174.193 637.128C173.468 637.128 172.833 636.968 172.289 636.648C171.745 636.328 171.318 635.843 171.009 635.192C170.71 634.531 170.561 633.699 170.561 632.696C170.561 631.683 170.705 630.851 170.993 630.2C171.281 629.549 171.697 629.064 172.241 628.744C172.785 628.424 173.436 628.264 174.193 628.264C175.004 628.264 175.729 628.451 176.369 628.824C177.02 629.187 177.532 629.699 177.905 630.36C178.289 631.021 178.481 631.8 178.481 632.696C178.481 633.603 178.289 634.387 177.905 635.048C177.532 635.709 177.02 636.221 176.369 636.584C175.729 636.947 175.004 637.128 174.193 637.128ZM169.105 640.104V628.392H171.489V630.152L171.441 632.712L171.601 635.256V640.104H169.105ZM173.761 635.08C174.177 635.08 174.545 634.984 174.865 634.792C175.196 634.6 175.457 634.328 175.649 633.976C175.852 633.613 175.953 633.187 175.953 632.696C175.953 632.195 175.852 631.768 175.649 631.416C175.457 631.064 175.196 630.792 174.865 630.6C174.545 630.408 174.177 630.312 173.761 630.312C173.345 630.312 172.972 630.408 172.641 630.6C172.31 630.792 172.049 631.064 171.857 631.416C171.665 631.768 171.569 632.195 171.569 632.696C171.569 633.187 171.665 633.613 171.857 633.976C172.049 634.328 172.31 634.6 172.641 634.792C172.972 634.984 173.345 635.08 173.761 635.08ZM185.291 637V635.32L185.131 634.952V631.944C185.131 631.411 184.966 630.995 184.635 630.696C184.315 630.397 183.819 630.248 183.147 630.248C182.689 630.248 182.235 630.323 181.787 630.472C181.35 630.611 180.977 630.803 180.667 631.048L179.771 629.304C180.241 628.973 180.806 628.717 181.467 628.536C182.129 628.355 182.801 628.264 183.483 628.264C184.795 628.264 185.814 628.573 186.539 629.192C187.265 629.811 187.627 630.776 187.627 632.088V637H185.291ZM182.667 637.128C181.995 637.128 181.419 637.016 180.939 636.792C180.459 636.557 180.091 636.243 179.835 635.848C179.579 635.453 179.451 635.011 179.451 634.52C179.451 634.008 179.574 633.56 179.819 633.176C180.075 632.792 180.475 632.493 181.019 632.28C181.563 632.056 182.273 631.944 183.147 631.944H185.435V633.4H183.419C182.833 633.4 182.427 633.496 182.203 633.688C181.99 633.88 181.883 634.12 181.883 634.408C181.883 634.728 182.006 634.984 182.251 635.176C182.507 635.357 182.854 635.448 183.291 635.448C183.707 635.448 184.081 635.352 184.411 635.16C184.742 634.957 184.982 634.664 185.131 634.28L185.515 635.432C185.334 635.987 185.003 636.408 184.523 636.696C184.043 636.984 183.425 637.128 182.667 637.128ZM189.886 637V628.392H192.27V630.824L191.934 630.12C192.19 629.512 192.601 629.053 193.166 628.744C193.732 628.424 194.42 628.264 195.23 628.264V630.568C195.124 630.557 195.028 630.552 194.942 630.552C194.857 630.541 194.766 630.536 194.67 630.536C193.988 630.536 193.433 630.733 193.006 631.128C192.59 631.512 192.382 632.115 192.382 632.936V637H189.886ZM200.531 637.128C199.518 637.128 198.729 636.872 198.163 636.36C197.598 635.837 197.315 635.064 197.315 634.04V626.488H199.811V634.008C199.811 634.371 199.907 634.653 200.099 634.856C200.291 635.048 200.553 635.144 200.883 635.144C201.278 635.144 201.614 635.037 201.891 634.824L202.563 636.584C202.307 636.765 201.998 636.904 201.635 637C201.283 637.085 200.915 637.128 200.531 637.128ZM195.987 630.504V628.584H201.955V630.504H195.987ZM207.971 637.128C206.99 637.128 206.126 636.936 205.379 636.552C204.643 636.168 204.072 635.645 203.667 634.984C203.262 634.312 203.059 633.549 203.059 632.696C203.059 631.832 203.256 631.069 203.651 630.408C204.056 629.736 204.606 629.213 205.299 628.84C205.992 628.456 206.776 628.264 207.651 628.264C208.494 628.264 209.251 628.445 209.923 628.808C210.606 629.16 211.144 629.672 211.539 630.344C211.934 631.005 212.131 631.8 212.131 632.728C212.131 632.824 212.126 632.936 212.115 633.064C212.104 633.181 212.094 633.293 212.083 633.4H205.091V631.944H210.771L209.811 632.376C209.811 631.928 209.72 631.539 209.539 631.208C209.358 630.877 209.107 630.621 208.787 630.44C208.467 630.248 208.094 630.152 207.667 630.152C207.24 630.152 206.862 630.248 206.531 630.44C206.211 630.621 205.96 630.883 205.779 631.224C205.598 631.555 205.507 631.949 205.507 632.408V632.792C205.507 633.261 205.608 633.677 205.811 634.04C206.024 634.392 206.318 634.664 206.691 634.856C207.075 635.037 207.523 635.128 208.035 635.128C208.494 635.128 208.894 635.059 209.235 634.92C209.587 634.781 209.907 634.573 210.195 634.296L211.523 635.736C211.128 636.184 210.632 636.531 210.035 636.776C209.438 637.011 208.75 637.128 207.971 637.128ZM218.324 637V628.392H220.82V637H218.324ZM219.572 627.192C219.113 627.192 218.74 627.059 218.452 626.792C218.164 626.525 218.02 626.195 218.02 625.8C218.02 625.405 218.164 625.075 218.452 624.808C218.74 624.541 219.113 624.408 219.572 624.408C220.031 624.408 220.404 624.536 220.692 624.792C220.98 625.037 221.124 625.357 221.124 625.752C221.124 626.168 220.98 626.515 220.692 626.792C220.415 627.059 220.041 627.192 219.572 627.192ZM226.656 637.128C225.643 637.128 224.854 636.872 224.288 636.36C223.723 635.837 223.44 635.064 223.44 634.04V626.488H225.936V634.008C225.936 634.371 226.032 634.653 226.224 634.856C226.416 635.048 226.678 635.144 227.008 635.144C227.403 635.144 227.739 635.037 228.016 634.824L228.688 636.584C228.432 636.765 228.123 636.904 227.76 637C227.408 637.085 227.04 637.128 226.656 637.128ZM222.112 630.504V628.584H228.08V630.504H222.112ZM230.09 637V628.392H232.586V637H230.09ZM231.338 627.192C230.879 627.192 230.506 627.059 230.218 626.792C229.93 626.525 229.786 626.195 229.786 625.8C229.786 625.405 229.93 625.075 230.218 624.808C230.506 624.541 230.879 624.408 231.338 624.408C231.796 624.408 232.17 624.536 232.458 624.792C232.746 625.037 232.89 625.357 232.89 625.752C232.89 626.168 232.746 626.515 232.458 626.792C232.18 627.059 231.807 627.192 231.338 627.192ZM240.134 628.264C240.817 628.264 241.425 628.403 241.958 628.68C242.502 628.947 242.929 629.363 243.238 629.928C243.547 630.483 243.702 631.197 243.702 632.072V637H241.206V632.456C241.206 631.763 241.051 631.251 240.742 630.92C240.443 630.589 240.017 630.424 239.462 630.424C239.067 630.424 238.71 630.509 238.39 630.68C238.081 630.84 237.835 631.091 237.654 631.432C237.483 631.773 237.398 632.211 237.398 632.744V637H234.902V628.392H237.286V630.776L236.838 630.056C237.147 629.48 237.59 629.037 238.166 628.728C238.742 628.419 239.398 628.264 240.134 628.264ZM250.299 637.128C249.318 637.128 248.454 636.936 247.707 636.552C246.971 636.168 246.4 635.645 245.995 634.984C245.59 634.312 245.387 633.549 245.387 632.696C245.387 631.832 245.584 631.069 245.979 630.408C246.384 629.736 246.934 629.213 247.627 628.84C248.32 628.456 249.104 628.264 249.979 628.264C250.822 628.264 251.579 628.445 252.251 628.808C252.934 629.16 253.472 629.672 253.867 630.344C254.262 631.005 254.459 631.8 254.459 632.728C254.459 632.824 254.454 632.936 254.443 633.064C254.432 633.181 254.422 633.293 254.411 633.4H247.419V631.944H253.099L252.139 632.376C252.139 631.928 252.048 631.539 251.867 631.208C251.686 630.877 251.435 630.621 251.115 630.44C250.795 630.248 250.422 630.152 249.995 630.152C249.568 630.152 249.19 630.248 248.859 630.44C248.539 630.621 248.288 630.883 248.107 631.224C247.926 631.555 247.835 631.949 247.835 632.408V632.792C247.835 633.261 247.936 633.677 248.139 634.04C248.352 634.392 248.646 634.664 249.019 634.856C249.403 635.037 249.851 635.128 250.363 635.128C250.822 635.128 251.222 635.059 251.563 634.92C251.915 634.781 252.235 634.573 252.523 634.296L253.851 635.736C253.456 636.184 252.96 636.531 252.363 636.776C251.766 637.011 251.078 637.128 250.299 637.128ZM256.121 637V628.392H258.505V630.824L258.169 630.12C258.425 629.512 258.835 629.053 259.401 628.744C259.966 628.424 260.654 628.264 261.465 628.264V630.568C261.358 630.557 261.262 630.552 261.177 630.552C261.091 630.541 261.001 630.536 260.905 630.536C260.222 630.536 259.667 630.733 259.241 631.128C258.825 631.512 258.617 632.115 258.617 632.936V637H256.121ZM267.666 637V635.32L267.506 634.952V631.944C267.506 631.411 267.341 630.995 267.01 630.696C266.69 630.397 266.194 630.248 265.522 630.248C265.064 630.248 264.61 630.323 264.162 630.472C263.725 630.611 263.352 630.803 263.042 631.048L262.146 629.304C262.616 628.973 263.181 628.717 263.842 628.536C264.504 628.355 265.176 628.264 265.858 628.264C267.17 628.264 268.189 628.573 268.914 629.192C269.64 629.811 270.002 630.776 270.002 632.088V637H267.666ZM265.042 637.128C264.37 637.128 263.794 637.016 263.314 636.792C262.834 636.557 262.466 636.243 262.21 635.848C261.954 635.453 261.826 635.011 261.826 634.52C261.826 634.008 261.949 633.56 262.194 633.176C262.45 632.792 262.85 632.493 263.394 632.28C263.938 632.056 264.648 631.944 265.522 631.944H267.81V633.4H265.794C265.208 633.4 264.802 633.496 264.578 633.688C264.365 633.88 264.258 634.12 264.258 634.408C264.258 634.728 264.381 634.984 264.626 635.176C264.882 635.357 265.229 635.448 265.666 635.448C266.082 635.448 266.456 635.352 266.786 635.16C267.117 634.957 267.357 634.664 267.506 634.28L267.89 635.432C267.709 635.987 267.378 636.408 266.898 636.696C266.418 636.984 265.8 637.128 265.042 637.128ZM272.261 637V628.392H274.645V630.824L274.309 630.12C274.565 629.512 274.976 629.053 275.541 628.744C276.107 628.424 276.795 628.264 277.605 628.264V630.568C277.499 630.557 277.403 630.552 277.317 630.552C277.232 630.541 277.141 630.536 277.045 630.536C276.363 630.536 275.808 630.733 275.381 631.128C274.965 631.512 274.757 632.115 274.757 632.936V637H272.261ZM279.105 637V628.392H281.601V637H279.105ZM280.353 627.192C279.894 627.192 279.521 627.059 279.233 626.792C278.945 626.525 278.801 626.195 278.801 625.8C278.801 625.405 278.945 625.075 279.233 624.808C279.521 624.541 279.894 624.408 280.353 624.408C280.812 624.408 281.185 624.536 281.473 624.792C281.761 625.037 281.905 625.357 281.905 625.752C281.905 626.168 281.761 626.515 281.473 626.792C281.196 627.059 280.822 627.192 280.353 627.192ZM288.014 637.128C287.096 637.128 286.28 636.936 285.566 636.552C284.862 636.168 284.302 635.645 283.886 634.984C283.48 634.312 283.278 633.549 283.278 632.696C283.278 631.832 283.48 631.069 283.886 630.408C284.302 629.736 284.862 629.213 285.566 628.84C286.28 628.456 287.096 628.264 288.014 628.264C288.92 628.264 289.731 628.456 290.446 628.84C291.16 629.213 291.72 629.731 292.126 630.392C292.531 631.053 292.734 631.821 292.734 632.696C292.734 633.549 292.531 634.312 292.126 634.984C291.72 635.645 291.16 636.168 290.446 636.552C289.731 636.936 288.92 637.128 288.014 637.128ZM288.014 635.08C288.43 635.08 288.803 634.984 289.134 634.792C289.464 634.6 289.726 634.328 289.918 633.976C290.11 633.613 290.206 633.187 290.206 632.696C290.206 632.195 290.11 631.768 289.918 631.416C289.726 631.064 289.464 630.792 289.134 630.6C288.803 630.408 288.43 630.312 288.014 630.312C287.598 630.312 287.224 630.408 286.894 630.6C286.563 630.792 286.296 631.064 286.094 631.416C285.902 631.768 285.806 632.195 285.806 632.696C285.806 633.187 285.902 633.613 286.094 633.976C286.296 634.328 286.563 634.6 286.894 634.792C287.224 634.984 287.598 635.08 288.014 635.08ZM297.298 637.128C296.562 637.128 295.853 637.043 295.17 636.872C294.498 636.691 293.965 636.467 293.57 636.2L294.402 634.408C294.797 634.653 295.261 634.856 295.794 635.016C296.338 635.165 296.871 635.24 297.394 635.24C297.97 635.24 298.375 635.171 298.61 635.032C298.855 634.893 298.978 634.701 298.978 634.456C298.978 634.253 298.882 634.104 298.69 634.008C298.509 633.901 298.263 633.821 297.954 633.768C297.645 633.715 297.303 633.661 296.93 633.608C296.567 633.555 296.199 633.485 295.826 633.4C295.453 633.304 295.111 633.165 294.802 632.984C294.493 632.803 294.242 632.557 294.05 632.248C293.869 631.939 293.778 631.539 293.778 631.048C293.778 630.504 293.933 630.024 294.242 629.608C294.562 629.192 295.021 628.867 295.618 628.632C296.215 628.387 296.93 628.264 297.762 628.264C298.349 628.264 298.946 628.328 299.554 628.456C300.162 628.584 300.669 628.771 301.074 629.016L300.242 630.792C299.826 630.547 299.405 630.381 298.978 630.296C298.562 630.2 298.157 630.152 297.762 630.152C297.207 630.152 296.802 630.227 296.546 630.376C296.29 630.525 296.162 630.717 296.162 630.952C296.162 631.165 296.253 631.325 296.434 631.432C296.626 631.539 296.877 631.624 297.186 631.688C297.495 631.752 297.831 631.811 298.194 631.864C298.567 631.907 298.941 631.976 299.314 632.072C299.687 632.168 300.023 632.307 300.322 632.488C300.631 632.659 300.882 632.899 301.074 633.208C301.266 633.507 301.362 633.901 301.362 634.392C301.362 634.925 301.202 635.4 300.882 635.816C300.562 636.221 300.098 636.541 299.49 636.776C298.893 637.011 298.162 637.128 297.298 637.128Z" fill="#87549F"/>
<defs>
<clipPath id="clip0_621_4770">
<rect width="360" height="1148" fill="white"/>
</clipPath>
</defs>
</svg>
