<svg width="360" height="695" viewBox="0 0 360 695" fill="none" xmlns="http://www.w3.org/2000/svg">
<g clip-path="url(#clip0_654_6394)">
<path d="M-116.247 643.12L21.5366 451.349C34.1287 433.826 58.5404 429.833 76.061 442.427C93.5841 455.026 97.5824 479.443 84.9951 496.964L21.0797 585.921C8.48764 603.444 12.4907 627.859 30.0138 640.458C47.5368 653.057 71.9461 649.059 84.5382 631.536L278.408 361.703C291 344.18 315.412 340.187 332.933 352.781C350.453 365.375 354.454 389.797 341.867 407.318L289.453 480.264C276.861 497.788 280.864 522.202 298.387 534.801C315.91 547.4 340.319 543.402 352.911 525.879L481.27 347.232" stroke="#253A74" stroke-width="7" stroke-linecap="round" stroke-linejoin="round" stroke-dasharray="11.97 11.97"/>
<path d="M-20.2466 319.12L117.537 127.349C130.129 109.826 154.54 105.833 172.061 118.427C189.584 131.026 193.582 155.443 180.995 172.964L117.08 261.921C104.488 279.444 108.491 303.859 126.014 316.458C143.537 329.057 167.946 325.059 180.538 307.536L374.408 37.7035C387 20.1803 411.412 16.1874 428.933 28.7813C446.453 41.3753 450.454 65.7973 437.867 83.318L385.453 156.264C372.861 173.788 376.864 198.202 394.387 210.801C411.91 223.4 436.319 219.402 448.911 201.879L577.27 23.2316" stroke="#253A74" stroke-width="7" stroke-linecap="round" stroke-linejoin="round" stroke-dasharray="11.97 11.97"/>
<path d="M307.082 51.6321L307.082 51.632C306.598 48.9932 307.02 46.511 308.347 44.1858C309.674 41.8605 311.603 40.2874 314.133 39.4669C316.662 38.6465 319.147 38.7881 321.586 39.8919C324.025 40.9955 325.824 42.7576 326.982 45.1777L328.74 48.8816L332.762 49.2496C332.762 49.2496 332.762 49.2496 332.762 49.2496C334.873 49.4349 336.778 50.1839 338.477 51.4965C340.176 52.8091 341.354 54.4775 342.011 56.5012C342.922 59.3117 342.713 62.0202 341.384 64.6257C340.055 67.2313 337.984 68.9901 335.174 69.9017L314.96 76.4577C312.15 77.3693 309.441 77.1604 306.836 75.8311C304.23 74.5018 302.472 72.4315 301.56 69.621C300.904 67.5972 300.878 65.5551 301.484 63.495C302.089 61.4349 303.191 59.7105 304.791 58.3218L307.082 51.6321ZM307.082 51.6321L307.832 55.6632L304.791 58.3218L307.082 51.6321ZM334.976 92.2924L336.438 96.7988L329.724 98.9764L328.648 95.659L328.262 94.47L323.892 80.9944L323.888 80.9825L323.876 80.9864L317.138 83.1717C312.481 84.6822 307.979 84.3286 303.632 82.1108C299.285 79.893 296.356 76.4558 294.846 71.7986C293.754 68.4321 293.674 65.0319 294.607 61.5977C295.54 58.1637 297.367 55.2921 300.091 52.9824L300.099 52.9925L300.095 52.9705C299.235 48.5985 299.931 44.4818 302.182 40.62C304.433 36.7583 307.691 34.136 311.955 32.7529C316.219 31.3698 320.396 31.5809 324.485 33.3862C328.574 35.1916 331.554 38.1162 333.424 42.1607L333.412 42.1662L333.434 42.1679C336.995 42.4393 340.16 43.6914 342.931 45.9243C345.701 48.1573 347.633 50.957 348.725 54.3236C350.235 58.9807 349.881 63.4825 347.664 67.8296C345.446 72.1766 342.009 75.1052 337.351 76.6157L330.614 78.801L330.602 78.8049L330.606 78.8168L334.976 92.2924Z" fill="#253A74" stroke="#253A74" stroke-width="0.025"/>
<path d="M86.0816 545.632L86.0816 545.632C85.5984 542.993 86.0204 540.511 87.3474 538.186C88.6744 535.861 90.603 534.287 93.1327 533.467C95.6623 532.646 98.1471 532.788 100.586 533.892C103.025 534.996 104.824 536.758 105.982 539.178L107.74 542.882L111.762 543.25C111.762 543.25 111.762 543.25 111.762 543.25C113.873 543.435 115.778 544.184 117.477 545.496C119.176 546.809 120.354 548.477 121.011 550.501C121.922 553.312 121.713 556.02 120.384 558.626C119.055 561.231 116.984 562.99 114.174 563.902L93.9604 570.458C91.1499 571.369 88.4415 571.16 85.8359 569.831C83.2303 568.502 81.4715 566.432 80.56 563.621C79.9036 561.597 79.8781 559.555 80.4835 557.495C81.0889 555.435 82.1915 553.71 83.7912 552.322L86.0816 545.632ZM86.0816 545.632L86.8315 549.663L83.7913 552.322L86.0816 545.632ZM113.976 586.292L115.438 590.799L108.724 592.976L107.648 589.659L107.262 588.47L102.892 574.994L102.888 574.983L102.876 574.986L96.1381 577.172C91.4809 578.682 86.9792 578.329 82.6321 576.111C78.285 573.893 75.3565 570.456 73.8459 565.799C72.754 562.432 72.6744 559.032 73.607 555.598C74.5395 552.164 76.3675 549.292 79.091 546.982L79.0995 546.992L79.0952 546.971C78.2352 542.598 78.9308 538.482 81.182 534.62C83.4332 530.758 86.6907 528.136 90.955 526.753C95.2194 525.37 99.3959 525.581 103.485 527.386C107.574 529.192 110.554 532.116 112.424 536.161L112.412 536.166L112.434 536.168C115.995 536.439 119.16 537.691 121.931 539.924C124.701 542.157 126.633 544.957 127.725 548.324C129.235 552.981 128.881 557.482 126.664 561.83C124.446 566.177 121.009 569.105 116.351 570.616L109.614 572.801L109.602 572.805L109.606 572.817L113.976 586.292Z" fill="#253A74" stroke="#253A74" stroke-width="0.025"/>
<path d="M118.446 141.905C130.29 141.905 139.891 132.3 139.891 120.452C139.891 108.605 130.29 99 118.446 99C106.602 99 97 108.605 97 120.452C97 132.3 106.602 141.905 118.446 141.905Z" fill="#7ECDCE"/>
<path d="M245.446 241.905C257.29 241.905 266.891 232.3 266.891 220.452C266.891 208.605 257.29 199 245.446 199C233.602 199 224 208.605 224 220.452C224 232.3 233.602 241.905 245.446 241.905Z" fill="#7ECDCE"/>
<path d="M75.4457 475.905C87.2898 475.905 96.8914 466.3 96.8914 454.452C96.8914 442.605 87.2898 433 75.4457 433C63.6016 433 54 442.605 54 454.452C54 466.3 63.6016 475.905 75.4457 475.905Z" fill="#7ECDCE"/>
<path d="M288.446 562.905C300.29 562.905 309.891 553.3 309.891 541.452C309.891 529.605 300.29 520 288.446 520C276.602 520 267 529.605 267 541.452C267 553.3 276.602 562.905 288.446 562.905Z" fill="#7ECDCE"/>
<mask id="mask0_654_6394" style="mask-type:alpha" maskUnits="userSpaceOnUse" x="145" y="321" width="150" height="150">
<rect x="145.696" y="409.155" width="106.647" height="106.647" transform="rotate(-55.0929 145.696 409.155)" fill="#FEFEFE" stroke="#253A74"/>
</mask>
<g mask="url(#mask0_654_6394)">
<path d="M211.56 439.302L211.55 439.295L211.543 439.305L206.417 446.652L173.322 423.559C171.302 422.149 170.075 420.223 169.64 417.78C169.205 415.338 169.692 413.106 171.102 411.086L207.033 359.594L244.493 352.926L262.87 365.75L257.744 373.096L257.736 373.106L257.747 373.113C260.809 375.251 262.664 378.139 263.312 381.778C263.96 385.418 263.215 388.769 261.078 391.831C258.941 394.894 256.053 396.749 252.414 397.396C248.774 398.044 245.423 397.3 242.361 395.163L242.35 395.156L242.343 395.166L226.943 417.236L226.936 417.246L226.946 417.253C230.009 419.39 231.864 422.278 232.512 425.918C233.159 429.557 232.415 432.908 230.278 435.971C228.141 439.033 225.253 440.888 221.613 441.536C217.974 442.184 214.623 441.439 211.56 439.302ZM220.277 379.783L220.287 379.79L220.294 379.78L230.561 365.067L230.578 365.042L230.548 365.047L211.813 368.382L211.812 368.377L211.805 368.387L209.239 372.066L209.231 372.076L209.242 372.083L220.277 379.783ZM204.876 401.853L204.887 401.86L204.894 401.85L215.161 387.137L215.168 387.126L215.158 387.119L204.123 379.419L204.112 379.412L204.105 379.422L193.838 394.135L193.831 394.146L193.842 394.153L204.876 401.853ZM189.476 423.923L189.486 423.93L189.494 423.92L199.76 409.206L199.768 409.196L199.757 409.189L188.722 401.489L188.712 401.482L188.705 401.492L178.438 416.205L178.431 416.215L178.441 416.223L189.476 423.923ZM204.189 434.189L204.2 434.197L204.207 434.186L206.26 431.244L206.265 431.247L206.262 431.234C205.886 429.423 205.832 427.609 206.098 425.791C206.365 423.974 207.075 422.239 208.229 420.585C209.383 418.931 210.766 417.666 212.38 416.789C213.994 415.911 215.716 415.336 217.545 415.064L217.546 415.07L217.554 415.059L237.061 387.104L237.065 387.107L237.063 387.094C236.687 385.284 236.632 383.469 236.898 381.652C237.165 379.834 237.875 378.099 239.029 376.445C240.183 374.791 241.567 373.526 243.18 372.649C244.795 371.772 246.516 371.197 248.346 370.925L248.346 370.93L248.354 370.92L250.407 367.977L250.415 367.967L250.404 367.96L243.048 362.826L243.037 362.819L243.03 362.829L196.83 429.039L196.823 429.049L196.833 429.056L204.189 434.189ZM223.861 431.493C224.762 430.203 225.077 428.802 224.808 427.289C224.539 425.776 223.759 424.57 222.469 423.67C221.179 422.769 219.777 422.454 218.265 422.723C216.752 422.992 215.545 423.772 214.645 425.062C213.745 426.352 213.429 427.754 213.699 429.266C213.968 430.779 214.748 431.986 216.038 432.886C217.328 433.786 218.729 434.102 220.242 433.832C221.755 433.563 222.961 432.783 223.861 431.493ZM254.662 387.354C255.562 386.064 255.878 384.662 255.608 383.149C255.339 381.637 254.559 380.43 253.269 379.53C251.979 378.63 250.578 378.314 249.065 378.583C247.552 378.853 246.346 379.633 245.446 380.923C244.545 382.213 244.23 383.614 244.499 385.127C244.768 386.639 245.548 387.846 246.838 388.746C248.128 389.646 249.53 389.962 251.042 389.693C252.555 389.424 253.762 388.644 254.662 387.354Z" fill="#253A74" stroke="#253A74" stroke-width="0.025"/>
</g>
<path d="M62.027 65.07H68.075V67.41H62.027V65.07ZM62.243 72H59.327V59.4H68.849V61.74H62.243V72ZM76.2839 72V70.11L76.1039 69.696V66.312C76.1039 65.712 75.9179 65.244 75.5459 64.908C75.1859 64.572 74.6279 64.404 73.8719 64.404C73.3559 64.404 72.8459 64.488 72.3419 64.656C71.8499 64.812 71.4299 65.028 71.0819 65.304L70.0739 63.342C70.6019 62.97 71.2379 62.682 71.9819 62.478C72.7259 62.274 73.4819 62.172 74.2499 62.172C75.7259 62.172 76.8719 62.52 77.6879 63.216C78.5039 63.912 78.9119 64.998 78.9119 66.474V72H76.2839ZM73.3319 72.144C72.5759 72.144 71.9279 72.018 71.3879 71.766C70.8479 71.502 70.4339 71.148 70.1459 70.704C69.8579 70.26 69.7139 69.762 69.7139 69.21C69.7139 68.634 69.8519 68.13 70.1279 67.698C70.4159 67.266 70.8659 66.93 71.4779 66.69C72.0899 66.438 72.8879 66.312 73.8719 66.312H76.4459V67.95H74.1779C73.5179 67.95 73.0619 68.058 72.8099 68.274C72.5699 68.49 72.4499 68.76 72.4499 69.084C72.4499 69.444 72.5879 69.732 72.8639 69.948C73.1519 70.152 73.5419 70.254 74.0339 70.254C74.5019 70.254 74.9219 70.146 75.2939 69.93C75.6659 69.702 75.9359 69.372 76.1039 68.94L76.5359 70.236C76.3319 70.86 75.9599 71.334 75.4199 71.658C74.8799 71.982 74.1839 72.144 73.3319 72.144ZM86.2035 72.144C85.1595 72.144 84.2295 71.934 83.4135 71.514C82.5975 71.082 81.9555 70.488 81.4875 69.732C81.0315 68.976 80.8035 68.118 80.8035 67.158C80.8035 66.186 81.0315 65.328 81.4875 64.584C81.9555 63.828 82.5975 63.24 83.4135 62.82C84.2295 62.388 85.1595 62.172 86.2035 62.172C87.2235 62.172 88.1115 62.388 88.8675 62.82C89.6235 63.24 90.1815 63.846 90.5415 64.638L88.3635 65.808C88.1115 65.352 87.7935 65.016 87.4095 64.8C87.0375 64.584 86.6295 64.476 86.1855 64.476C85.7055 64.476 85.2735 64.584 84.8895 64.8C84.5055 65.016 84.1995 65.322 83.9715 65.718C83.7555 66.114 83.6475 66.594 83.6475 67.158C83.6475 67.722 83.7555 68.202 83.9715 68.598C84.1995 68.994 84.5055 69.3 84.8895 69.516C85.2735 69.732 85.7055 69.84 86.1855 69.84C86.6295 69.84 87.0375 69.738 87.4095 69.534C87.7935 69.318 88.1115 68.976 88.3635 68.508L90.5415 69.696C90.1815 70.476 89.6235 71.082 88.8675 71.514C88.1115 71.934 87.2235 72.144 86.2035 72.144ZM92.1056 72V62.316H94.9136V72H92.1056ZM93.5096 60.966C92.9936 60.966 92.5736 60.816 92.2496 60.516C91.9256 60.216 91.7636 59.844 91.7636 59.4C91.7636 58.956 91.9256 58.584 92.2496 58.284C92.5736 57.984 92.9936 57.834 93.5096 57.834C94.0256 57.834 94.4456 57.978 94.7696 58.266C95.0936 58.542 95.2556 58.902 95.2556 59.346C95.2556 59.814 95.0936 60.204 94.7696 60.516C94.4576 60.816 94.0376 60.966 93.5096 60.966ZM97.5196 72V58.644H100.328V72H97.5196ZM102.934 72V62.316H105.742V72H102.934ZM104.338 60.966C103.822 60.966 103.402 60.816 103.078 60.516C102.754 60.216 102.592 59.844 102.592 59.4C102.592 58.956 102.754 58.584 103.078 58.284C103.402 57.984 103.822 57.834 104.338 57.834C104.854 57.834 105.274 57.978 105.598 58.266C105.922 58.542 106.084 58.902 106.084 59.346C106.084 59.814 105.922 60.204 105.598 60.516C105.286 60.816 104.866 60.966 104.338 60.966ZM112.308 72.144C111.168 72.144 110.28 71.856 109.644 71.28C109.008 70.692 108.69 69.822 108.69 68.67V60.174H111.498V68.634C111.498 69.042 111.606 69.36 111.822 69.588C112.038 69.804 112.332 69.912 112.704 69.912C113.148 69.912 113.526 69.792 113.838 69.552L114.594 71.532C114.306 71.736 113.958 71.892 113.55 72C113.154 72.096 112.74 72.144 112.308 72.144ZM107.196 64.692V62.532H113.91V64.692H107.196ZM122.11 72V70.11L121.93 69.696V66.312C121.93 65.712 121.744 65.244 121.372 64.908C121.012 64.572 120.454 64.404 119.698 64.404C119.182 64.404 118.672 64.488 118.168 64.656C117.676 64.812 117.256 65.028 116.908 65.304L115.9 63.342C116.428 62.97 117.064 62.682 117.808 62.478C118.552 62.274 119.308 62.172 120.076 62.172C121.552 62.172 122.698 62.52 123.514 63.216C124.33 63.912 124.738 64.998 124.738 66.474V72H122.11ZM119.158 72.144C118.402 72.144 117.754 72.018 117.214 71.766C116.674 71.502 116.26 71.148 115.972 70.704C115.684 70.26 115.54 69.762 115.54 69.21C115.54 68.634 115.678 68.13 115.954 67.698C116.242 67.266 116.692 66.93 117.304 66.69C117.916 66.438 118.714 66.312 119.698 66.312H122.272V67.95H120.004C119.344 67.95 118.888 68.058 118.636 68.274C118.396 68.49 118.276 68.76 118.276 69.084C118.276 69.444 118.414 69.732 118.69 69.948C118.978 70.152 119.368 70.254 119.86 70.254C120.328 70.254 120.748 70.146 121.12 69.93C121.492 69.702 121.762 69.372 121.93 68.94L122.362 70.236C122.158 70.86 121.786 71.334 121.246 71.658C120.706 71.982 120.01 72.144 119.158 72.144ZM132.377 72V58.644H135.185V72H132.377ZM143.731 72V70.11L143.551 69.696V66.312C143.551 65.712 143.365 65.244 142.993 64.908C142.633 64.572 142.075 64.404 141.319 64.404C140.803 64.404 140.293 64.488 139.789 64.656C139.297 64.812 138.877 65.028 138.529 65.304L137.521 63.342C138.049 62.97 138.685 62.682 139.429 62.478C140.173 62.274 140.929 62.172 141.697 62.172C143.173 62.172 144.319 62.52 145.135 63.216C145.951 63.912 146.359 64.998 146.359 66.474V72H143.731ZM140.779 72.144C140.023 72.144 139.375 72.018 138.835 71.766C138.295 71.502 137.881 71.148 137.593 70.704C137.305 70.26 137.161 69.762 137.161 69.21C137.161 68.634 137.299 68.13 137.575 67.698C137.863 67.266 138.313 66.93 138.925 66.69C139.537 66.438 140.335 66.312 141.319 66.312H143.893V67.95H141.625C140.965 67.95 140.509 68.058 140.257 68.274C140.017 68.49 139.897 68.76 139.897 69.084C139.897 69.444 140.035 69.732 140.311 69.948C140.599 70.152 140.989 70.254 141.481 70.254C141.949 70.254 142.369 70.146 142.741 69.93C143.113 69.702 143.383 69.372 143.551 68.94L143.983 70.236C143.779 70.86 143.407 71.334 142.867 71.658C142.327 71.982 141.631 72.144 140.779 72.144ZM152.158 72.144C151.33 72.144 150.532 72.048 149.764 71.856C149.008 71.652 148.408 71.4 147.964 71.1L148.9 69.084C149.344 69.36 149.866 69.588 150.466 69.768C151.078 69.936 151.678 70.02 152.266 70.02C152.914 70.02 153.37 69.942 153.634 69.786C153.91 69.63 154.048 69.414 154.048 69.138C154.048 68.91 153.94 68.742 153.724 68.634C153.52 68.514 153.244 68.424 152.896 68.364C152.548 68.304 152.164 68.244 151.744 68.184C151.336 68.124 150.922 68.046 150.502 67.95C150.082 67.842 149.698 67.686 149.35 67.482C149.002 67.278 148.72 67.002 148.504 66.654C148.3 66.306 148.198 65.856 148.198 65.304C148.198 64.692 148.372 64.152 148.72 63.684C149.08 63.216 149.596 62.85 150.268 62.586C150.94 62.31 151.744 62.172 152.68 62.172C153.34 62.172 154.012 62.244 154.696 62.388C155.38 62.532 155.95 62.742 156.406 63.018L155.47 65.016C155.002 64.74 154.528 64.554 154.048 64.458C153.58 64.35 153.124 64.296 152.68 64.296C152.056 64.296 151.6 64.38 151.312 64.548C151.024 64.716 150.88 64.932 150.88 65.196C150.88 65.436 150.982 65.616 151.186 65.736C151.402 65.856 151.684 65.952 152.032 66.024C152.38 66.096 152.758 66.162 153.166 66.222C153.586 66.27 154.006 66.348 154.426 66.456C154.846 66.564 155.224 66.72 155.56 66.924C155.908 67.116 156.19 67.386 156.406 67.734C156.622 68.07 156.73 68.514 156.73 69.066C156.73 69.666 156.55 70.2 156.19 70.668C155.83 71.124 155.308 71.484 154.624 71.748C153.952 72.012 153.13 72.144 152.158 72.144ZM61.5899 94V84.316H64.2719V87.052L63.8939 86.26C64.1819 85.576 64.6439 85.06 65.2799 84.712C65.9159 84.352 66.6899 84.172 67.6019 84.172V86.764C67.4819 86.752 67.3739 86.746 67.2779 86.746C67.1819 86.734 67.0799 86.728 66.9719 86.728C66.2039 86.728 65.5799 86.95 65.0999 87.394C64.6319 87.826 64.3979 88.504 64.3979 89.428V94H61.5899ZM74.0073 94.144C72.9033 94.144 71.9313 93.928 71.0913 93.496C70.2633 93.064 69.6213 92.476 69.1653 91.732C68.7093 90.976 68.4813 90.118 68.4813 89.158C68.4813 88.186 68.7033 87.328 69.1473 86.584C69.6033 85.828 70.2213 85.24 71.0013 84.82C71.7813 84.388 72.6633 84.172 73.6473 84.172C74.5953 84.172 75.4473 84.376 76.2033 84.784C76.9713 85.18 77.5773 85.756 78.0213 86.512C78.4653 87.256 78.6873 88.15 78.6873 89.194C78.6873 89.302 78.6813 89.428 78.6693 89.572C78.6573 89.704 78.6453 89.83 78.6333 89.95H70.7673V88.312H77.1573L76.0773 88.798C76.0773 88.294 75.9753 87.856 75.7713 87.484C75.5673 87.112 75.2853 86.824 74.9253 86.62C74.5653 86.404 74.1453 86.296 73.6653 86.296C73.1853 86.296 72.7593 86.404 72.3873 86.62C72.0273 86.824 71.7453 87.118 71.5413 87.502C71.3373 87.874 71.2353 88.318 71.2353 88.834V89.266C71.2353 89.794 71.3493 90.262 71.5773 90.67C71.8173 91.066 72.1473 91.372 72.5673 91.588C72.9993 91.792 73.5033 91.894 74.0793 91.894C74.5953 91.894 75.0453 91.816 75.4293 91.66C75.8253 91.504 76.1853 91.27 76.5093 90.958L78.0033 92.578C77.5593 93.082 77.0013 93.472 76.3293 93.748C75.6573 94.012 74.8833 94.144 74.0073 94.144ZM84.6427 94.144C83.8387 94.144 83.1187 93.988 82.4827 93.676C81.8587 93.364 81.3727 92.89 81.0247 92.254C80.6767 91.606 80.5027 90.784 80.5027 89.788V84.316H83.3107V89.374C83.3107 90.178 83.4787 90.772 83.8147 91.156C84.1627 91.528 84.6487 91.714 85.2727 91.714C85.7047 91.714 86.0887 91.624 86.4247 91.444C86.7607 91.252 87.0247 90.964 87.2167 90.58C87.4087 90.184 87.5047 89.692 87.5047 89.104V84.316H90.3127V94H87.6487V91.336L88.1347 92.11C87.8107 92.782 87.3307 93.292 86.6947 93.64C86.0707 93.976 85.3867 94.144 84.6427 94.144ZM98.8002 84.172C99.5682 84.172 100.252 84.328 100.852 84.64C101.464 84.94 101.944 85.408 102.292 86.044C102.64 86.668 102.814 87.472 102.814 88.456V94H100.006V88.888C100.006 88.108 99.8322 87.532 99.4842 87.16C99.1482 86.788 98.6682 86.602 98.0442 86.602C97.6002 86.602 97.1982 86.698 96.8382 86.89C96.4902 87.07 96.2142 87.352 96.0102 87.736C95.8182 88.12 95.7222 88.612 95.7222 89.212V94H92.9142V84.316H95.5962V86.998L95.0922 86.188C95.4402 85.54 95.9382 85.042 96.5862 84.694C97.2342 84.346 97.9722 84.172 98.8002 84.172ZM105.359 94V84.316H108.167V94H105.359ZM106.763 82.966C106.247 82.966 105.827 82.816 105.503 82.516C105.179 82.216 105.017 81.844 105.017 81.4C105.017 80.956 105.179 80.584 105.503 80.284C105.827 79.984 106.247 79.834 106.763 79.834C107.279 79.834 107.699 79.978 108.023 80.266C108.347 80.542 108.509 80.902 108.509 81.346C108.509 81.814 108.347 82.204 108.023 82.516C107.711 82.816 107.291 82.966 106.763 82.966ZM115.382 94.144C114.35 94.144 113.432 93.928 112.628 93.496C111.836 93.064 111.206 92.476 110.738 91.732C110.282 90.976 110.054 90.118 110.054 89.158C110.054 88.186 110.282 87.328 110.738 86.584C111.206 85.828 111.836 85.24 112.628 84.82C113.432 84.388 114.35 84.172 115.382 84.172C116.402 84.172 117.314 84.388 118.118 84.82C118.922 85.24 119.552 85.822 120.008 86.566C120.464 87.31 120.692 88.174 120.692 89.158C120.692 90.118 120.464 90.976 120.008 91.732C119.552 92.476 118.922 93.064 118.118 93.496C117.314 93.928 116.402 94.144 115.382 94.144ZM115.382 91.84C115.85 91.84 116.27 91.732 116.642 91.516C117.014 91.3 117.308 90.994 117.524 90.598C117.74 90.19 117.848 89.71 117.848 89.158C117.848 88.594 117.74 88.114 117.524 87.718C117.308 87.322 117.014 87.016 116.642 86.8C116.27 86.584 115.85 86.476 115.382 86.476C114.914 86.476 114.494 86.584 114.122 86.8C113.75 87.016 113.45 87.322 113.222 87.718C113.006 88.114 112.898 88.594 112.898 89.158C112.898 89.71 113.006 90.19 113.222 90.598C113.45 90.994 113.75 91.3 114.122 91.516C114.494 91.732 114.914 91.84 115.382 91.84ZM128.454 84.172C129.222 84.172 129.906 84.328 130.506 84.64C131.118 84.94 131.598 85.408 131.946 86.044C132.294 86.668 132.468 87.472 132.468 88.456V94H129.66V88.888C129.66 88.108 129.486 87.532 129.138 87.16C128.802 86.788 128.322 86.602 127.698 86.602C127.254 86.602 126.852 86.698 126.492 86.89C126.144 87.07 125.868 87.352 125.664 87.736C125.472 88.12 125.376 88.612 125.376 89.212V94H122.568V84.316H125.25V86.998L124.746 86.188C125.094 85.54 125.592 85.042 126.24 84.694C126.888 84.346 127.626 84.172 128.454 84.172ZM139.89 94.144C138.786 94.144 137.814 93.928 136.974 93.496C136.146 93.064 135.504 92.476 135.048 91.732C134.592 90.976 134.364 90.118 134.364 89.158C134.364 88.186 134.586 87.328 135.03 86.584C135.486 85.828 136.104 85.24 136.884 84.82C137.664 84.388 138.546 84.172 139.53 84.172C140.478 84.172 141.33 84.376 142.086 84.784C142.854 85.18 143.46 85.756 143.904 86.512C144.348 87.256 144.57 88.15 144.57 89.194C144.57 89.302 144.564 89.428 144.552 89.572C144.54 89.704 144.528 89.83 144.516 89.95H136.65V88.312H143.04L141.96 88.798C141.96 88.294 141.858 87.856 141.654 87.484C141.45 87.112 141.168 86.824 140.808 86.62C140.448 86.404 140.028 86.296 139.548 86.296C139.068 86.296 138.642 86.404 138.27 86.62C137.91 86.824 137.628 87.118 137.424 87.502C137.22 87.874 137.118 88.318 137.118 88.834V89.266C137.118 89.794 137.232 90.262 137.46 90.67C137.7 91.066 138.03 91.372 138.45 91.588C138.882 91.792 139.386 91.894 139.962 91.894C140.478 91.894 140.928 91.816 141.312 91.66C141.708 91.504 142.068 91.27 142.392 90.958L143.886 92.578C143.442 93.082 142.884 93.472 142.212 93.748C141.54 94.012 140.766 94.144 139.89 94.144ZM149.698 94.144C148.87 94.144 148.072 94.048 147.304 93.856C146.548 93.652 145.948 93.4 145.504 93.1L146.44 91.084C146.884 91.36 147.406 91.588 148.006 91.768C148.618 91.936 149.218 92.02 149.806 92.02C150.454 92.02 150.91 91.942 151.174 91.786C151.45 91.63 151.588 91.414 151.588 91.138C151.588 90.91 151.48 90.742 151.264 90.634C151.06 90.514 150.784 90.424 150.436 90.364C150.088 90.304 149.704 90.244 149.284 90.184C148.876 90.124 148.462 90.046 148.042 89.95C147.622 89.842 147.238 89.686 146.89 89.482C146.542 89.278 146.26 89.002 146.044 88.654C145.84 88.306 145.738 87.856 145.738 87.304C145.738 86.692 145.912 86.152 146.26 85.684C146.62 85.216 147.136 84.85 147.808 84.586C148.48 84.31 149.284 84.172 150.22 84.172C150.88 84.172 151.552 84.244 152.236 84.388C152.92 84.532 153.49 84.742 153.946 85.018L153.01 87.016C152.542 86.74 152.068 86.554 151.588 86.458C151.12 86.35 150.664 86.296 150.22 86.296C149.596 86.296 149.14 86.38 148.852 86.548C148.564 86.716 148.42 86.932 148.42 87.196C148.42 87.436 148.522 87.616 148.726 87.736C148.942 87.856 149.224 87.952 149.572 88.024C149.92 88.096 150.298 88.162 150.706 88.222C151.126 88.27 151.546 88.348 151.966 88.456C152.386 88.564 152.764 88.72 153.1 88.924C153.448 89.116 153.73 89.386 153.946 89.734C154.162 90.07 154.27 90.514 154.27 91.066C154.27 91.666 154.09 92.2 153.73 92.668C153.37 93.124 152.848 93.484 152.164 93.748C151.492 94.012 150.67 94.144 149.698 94.144Z" fill="#87549F"/>
<path d="M229.729 273V260.4H235.453C236.821 260.4 238.027 260.664 239.071 261.192C240.115 261.708 240.931 262.434 241.519 263.37C242.107 264.306 242.401 265.416 242.401 266.7C242.401 267.972 242.107 269.082 241.519 270.03C240.931 270.966 240.115 271.698 239.071 272.226C238.027 272.742 236.821 273 235.453 273H229.729ZM232.645 270.606H235.309C236.149 270.606 236.875 270.45 237.487 270.138C238.111 269.814 238.591 269.358 238.927 268.77C239.275 268.182 239.449 267.492 239.449 266.7C239.449 265.896 239.275 265.206 238.927 264.63C238.591 264.042 238.111 263.592 237.487 263.28C236.875 262.956 236.149 262.794 235.309 262.794H232.645V270.606ZM244.402 273V263.316H247.21V273H244.402ZM245.806 261.966C245.29 261.966 244.87 261.816 244.546 261.516C244.222 261.216 244.06 260.844 244.06 260.4C244.06 259.956 244.222 259.584 244.546 259.284C244.87 258.984 245.29 258.834 245.806 258.834C246.322 258.834 246.742 258.978 247.066 259.266C247.39 259.542 247.552 259.902 247.552 260.346C247.552 260.814 247.39 261.204 247.066 261.516C246.754 261.816 246.334 261.966 245.806 261.966ZM252.445 273L248.377 263.316H251.275L254.659 271.65H253.219L256.729 263.316H259.429L255.343 273H252.445ZM260.574 273V263.316H263.382V273H260.574ZM261.978 261.966C261.462 261.966 261.042 261.816 260.718 261.516C260.394 261.216 260.232 260.844 260.232 260.4C260.232 259.956 260.394 259.584 260.718 259.284C261.042 258.984 261.462 258.834 261.978 258.834C262.494 258.834 262.914 258.978 263.238 259.266C263.562 259.542 263.724 259.902 263.724 260.346C263.724 260.814 263.562 261.204 263.238 261.516C262.926 261.816 262.506 261.966 261.978 261.966ZM270.146 273.144C269.234 273.144 268.412 272.94 267.68 272.532C266.948 272.112 266.366 271.53 265.934 270.786C265.514 270.042 265.304 269.166 265.304 268.158C265.304 267.138 265.514 266.256 265.934 265.512C266.366 264.768 266.948 264.192 267.68 263.784C268.412 263.376 269.234 263.172 270.146 263.172C270.962 263.172 271.676 263.352 272.288 263.712C272.9 264.072 273.374 264.618 273.71 265.35C274.046 266.082 274.214 267.018 274.214 268.158C274.214 269.286 274.052 270.222 273.728 270.966C273.404 271.698 272.936 272.244 272.324 272.604C271.724 272.964 270.998 273.144 270.146 273.144ZM270.632 270.84C271.088 270.84 271.502 270.732 271.874 270.516C272.246 270.3 272.54 269.994 272.756 269.598C272.984 269.19 273.098 268.71 273.098 268.158C273.098 267.594 272.984 267.114 272.756 266.718C272.54 266.322 272.246 266.016 271.874 265.8C271.502 265.584 271.088 265.476 270.632 265.476C270.164 265.476 269.744 265.584 269.372 265.8C269 266.016 268.7 266.322 268.472 266.718C268.256 267.114 268.148 267.594 268.148 268.158C268.148 268.71 268.256 269.19 268.472 269.598C268.7 269.994 269 270.3 269.372 270.516C269.744 270.732 270.164 270.84 270.632 270.84ZM273.17 273V271.02L273.224 268.14L273.044 265.278V259.644H275.852V273H273.17ZM283.257 273.144C282.153 273.144 281.181 272.928 280.341 272.496C279.513 272.064 278.871 271.476 278.415 270.732C277.959 269.976 277.731 269.118 277.731 268.158C277.731 267.186 277.953 266.328 278.397 265.584C278.853 264.828 279.471 264.24 280.251 263.82C281.031 263.388 281.913 263.172 282.897 263.172C283.845 263.172 284.697 263.376 285.453 263.784C286.221 264.18 286.827 264.756 287.271 265.512C287.715 266.256 287.937 267.15 287.937 268.194C287.937 268.302 287.931 268.428 287.919 268.572C287.907 268.704 287.895 268.83 287.883 268.95H280.017V267.312H286.407L285.327 267.798C285.327 267.294 285.225 266.856 285.021 266.484C284.817 266.112 284.535 265.824 284.175 265.62C283.815 265.404 283.395 265.296 282.915 265.296C282.435 265.296 282.009 265.404 281.637 265.62C281.277 265.824 280.995 266.118 280.791 266.502C280.587 266.874 280.485 267.318 280.485 267.834V268.266C280.485 268.794 280.599 269.262 280.827 269.67C281.067 270.066 281.397 270.372 281.817 270.588C282.249 270.792 282.753 270.894 283.329 270.894C283.845 270.894 284.295 270.816 284.679 270.66C285.075 270.504 285.435 270.27 285.759 269.958L287.253 271.578C286.809 272.082 286.251 272.472 285.579 272.748C284.907 273.012 284.133 273.144 283.257 273.144ZM299.458 276.636C298.546 276.636 297.664 276.522 296.812 276.294C295.972 276.078 295.27 275.748 294.706 275.304L295.822 273.288C296.23 273.624 296.746 273.888 297.37 274.08C298.006 274.284 298.63 274.386 299.242 274.386C300.238 274.386 300.958 274.164 301.402 273.72C301.858 273.276 302.086 272.616 302.086 271.74V270.282L302.266 267.852L302.23 265.404V263.316H304.894V271.38C304.894 273.18 304.426 274.506 303.49 275.358C302.554 276.21 301.21 276.636 299.458 276.636ZM299.026 272.532C298.126 272.532 297.31 272.34 296.578 271.956C295.858 271.56 295.276 271.014 294.832 270.318C294.4 269.61 294.184 268.788 294.184 267.852C294.184 266.904 294.4 266.082 294.832 265.386C295.276 264.678 295.858 264.132 296.578 263.748C297.31 263.364 298.126 263.172 299.026 263.172C299.842 263.172 300.562 263.34 301.186 263.676C301.81 264 302.296 264.51 302.644 265.206C302.992 265.89 303.166 266.772 303.166 267.852C303.166 268.92 302.992 269.802 302.644 270.498C302.296 271.182 301.81 271.692 301.186 272.028C300.562 272.364 299.842 272.532 299.026 272.532ZM299.584 270.228C300.076 270.228 300.514 270.132 300.898 269.94C301.282 269.736 301.582 269.454 301.798 269.094C302.014 268.734 302.122 268.32 302.122 267.852C302.122 267.372 302.014 266.958 301.798 266.61C301.582 266.25 301.282 265.974 300.898 265.782C300.514 265.578 300.076 265.476 299.584 265.476C299.092 265.476 298.654 265.578 298.27 265.782C297.886 265.974 297.58 266.25 297.352 266.61C297.136 266.958 297.028 267.372 297.028 267.852C297.028 268.32 297.136 268.734 297.352 269.094C297.58 269.454 297.886 269.736 298.27 269.94C298.654 270.132 299.092 270.228 299.584 270.228ZM313.448 273V271.11L313.268 270.696V267.312C313.268 266.712 313.082 266.244 312.71 265.908C312.35 265.572 311.792 265.404 311.036 265.404C310.52 265.404 310.01 265.488 309.506 265.656C309.014 265.812 308.594 266.028 308.246 266.304L307.238 264.342C307.766 263.97 308.402 263.682 309.146 263.478C309.89 263.274 310.646 263.172 311.414 263.172C312.89 263.172 314.036 263.52 314.852 264.216C315.668 264.912 316.076 265.998 316.076 267.474V273H313.448ZM310.496 273.144C309.74 273.144 309.092 273.018 308.552 272.766C308.012 272.502 307.598 272.148 307.31 271.704C307.022 271.26 306.878 270.762 306.878 270.21C306.878 269.634 307.016 269.13 307.292 268.698C307.58 268.266 308.03 267.93 308.642 267.69C309.254 267.438 310.052 267.312 311.036 267.312H313.61V268.95H311.342C310.682 268.95 310.226 269.058 309.974 269.274C309.734 269.49 309.614 269.76 309.614 270.084C309.614 270.444 309.752 270.732 310.028 270.948C310.316 271.152 310.706 271.254 311.198 271.254C311.666 271.254 312.086 271.146 312.458 270.93C312.83 270.702 313.1 270.372 313.268 269.94L313.7 271.236C313.496 271.86 313.124 272.334 312.584 272.658C312.044 272.982 311.348 273.144 310.496 273.144ZM321.875 273.144C321.047 273.144 320.249 273.048 319.481 272.856C318.725 272.652 318.125 272.4 317.681 272.1L318.617 270.084C319.061 270.36 319.583 270.588 320.183 270.768C320.795 270.936 321.395 271.02 321.983 271.02C322.631 271.02 323.087 270.942 323.351 270.786C323.627 270.63 323.765 270.414 323.765 270.138C323.765 269.91 323.657 269.742 323.441 269.634C323.237 269.514 322.961 269.424 322.613 269.364C322.265 269.304 321.881 269.244 321.461 269.184C321.053 269.124 320.639 269.046 320.219 268.95C319.799 268.842 319.415 268.686 319.067 268.482C318.719 268.278 318.437 268.002 318.221 267.654C318.017 267.306 317.915 266.856 317.915 266.304C317.915 265.692 318.089 265.152 318.437 264.684C318.797 264.216 319.313 263.85 319.985 263.586C320.657 263.31 321.461 263.172 322.397 263.172C323.057 263.172 323.729 263.244 324.413 263.388C325.097 263.532 325.667 263.742 326.123 264.018L325.187 266.016C324.719 265.74 324.245 265.554 323.765 265.458C323.297 265.35 322.841 265.296 322.397 265.296C321.773 265.296 321.317 265.38 321.029 265.548C320.741 265.716 320.597 265.932 320.597 266.196C320.597 266.436 320.699 266.616 320.903 266.736C321.119 266.856 321.401 266.952 321.749 267.024C322.097 267.096 322.475 267.162 322.883 267.222C323.303 267.27 323.723 267.348 324.143 267.456C324.563 267.564 324.941 267.72 325.277 267.924C325.625 268.116 325.907 268.386 326.123 268.734C326.339 269.07 326.447 269.514 326.447 270.066C326.447 270.666 326.267 271.2 325.907 271.668C325.547 272.124 325.025 272.484 324.341 272.748C323.669 273.012 322.847 273.144 321.875 273.144ZM332.14 273.144C331 273.144 330.112 272.856 329.476 272.28C328.84 271.692 328.522 270.822 328.522 269.67V261.174H331.33V269.634C331.33 270.042 331.438 270.36 331.654 270.588C331.87 270.804 332.164 270.912 332.536 270.912C332.98 270.912 333.358 270.792 333.67 270.552L334.426 272.532C334.138 272.736 333.79 272.892 333.382 273C332.986 273.096 332.572 273.144 332.14 273.144ZM327.028 265.692V263.532H333.742V265.692H327.028ZM340.311 273.144C339.279 273.144 338.361 272.928 337.557 272.496C336.765 272.064 336.135 271.476 335.667 270.732C335.211 269.976 334.983 269.118 334.983 268.158C334.983 267.186 335.211 266.328 335.667 265.584C336.135 264.828 336.765 264.24 337.557 263.82C338.361 263.388 339.279 263.172 340.311 263.172C341.331 263.172 342.243 263.388 343.047 263.82C343.851 264.24 344.481 264.822 344.937 265.566C345.393 266.31 345.621 267.174 345.621 268.158C345.621 269.118 345.393 269.976 344.937 270.732C344.481 271.476 343.851 272.064 343.047 272.496C342.243 272.928 341.331 273.144 340.311 273.144ZM340.311 270.84C340.779 270.84 341.199 270.732 341.571 270.516C341.943 270.3 342.237 269.994 342.453 269.598C342.669 269.19 342.777 268.71 342.777 268.158C342.777 267.594 342.669 267.114 342.453 266.718C342.237 266.322 341.943 266.016 341.571 265.8C341.199 265.584 340.779 265.476 340.311 265.476C339.843 265.476 339.423 265.584 339.051 265.8C338.679 266.016 338.379 266.322 338.151 266.718C337.935 267.114 337.827 267.594 337.827 268.158C337.827 268.71 337.935 269.19 338.151 269.598C338.379 269.994 338.679 270.3 339.051 270.516C339.423 270.732 339.843 270.84 340.311 270.84ZM350.756 273.144C349.928 273.144 349.13 273.048 348.362 272.856C347.606 272.652 347.006 272.4 346.562 272.1L347.498 270.084C347.942 270.36 348.464 270.588 349.064 270.768C349.676 270.936 350.276 271.02 350.864 271.02C351.512 271.02 351.968 270.942 352.232 270.786C352.508 270.63 352.646 270.414 352.646 270.138C352.646 269.91 352.538 269.742 352.322 269.634C352.118 269.514 351.842 269.424 351.494 269.364C351.146 269.304 350.762 269.244 350.342 269.184C349.934 269.124 349.52 269.046 349.1 268.95C348.68 268.842 348.296 268.686 347.948 268.482C347.6 268.278 347.318 268.002 347.102 267.654C346.898 267.306 346.796 266.856 346.796 266.304C346.796 265.692 346.97 265.152 347.318 264.684C347.678 264.216 348.194 263.85 348.866 263.586C349.538 263.31 350.342 263.172 351.278 263.172C351.938 263.172 352.61 263.244 353.294 263.388C353.978 263.532 354.548 263.742 355.004 264.018L354.068 266.016C353.6 265.74 353.126 265.554 352.646 265.458C352.178 265.35 351.722 265.296 351.278 265.296C350.654 265.296 350.198 265.38 349.91 265.548C349.622 265.716 349.478 265.932 349.478 266.196C349.478 266.436 349.58 266.616 349.784 266.736C350 266.856 350.282 266.952 350.63 267.024C350.978 267.096 351.356 267.162 351.764 267.222C352.184 267.27 352.604 267.348 353.024 267.456C353.444 267.564 353.822 267.72 354.158 267.924C354.506 268.116 354.788 268.386 355.004 268.734C355.22 269.07 355.328 269.514 355.328 270.066C355.328 270.666 355.148 271.2 354.788 271.668C354.428 272.124 353.906 272.484 353.222 272.748C352.55 273.012 351.728 273.144 350.756 273.144Z" fill="#87549F"/>
<path d="M38.1168 396.216C37.1448 396.216 36.2388 396.06 35.3988 395.748C34.5708 395.424 33.8508 394.968 33.2388 394.38C32.6268 393.792 32.1468 393.102 31.7988 392.31C31.4628 391.518 31.2948 390.648 31.2948 389.7C31.2948 388.752 31.4628 387.882 31.7988 387.09C32.1468 386.298 32.6268 385.608 33.2388 385.02C33.8628 384.432 34.5888 383.982 35.4168 383.67C36.2448 383.346 37.1508 383.184 38.1348 383.184C39.2268 383.184 40.2108 383.376 41.0868 383.76C41.9748 384.132 42.7188 384.684 43.3188 385.416L41.4468 387.144C41.0148 386.652 40.5348 386.286 40.0068 386.046C39.4788 385.794 38.9028 385.668 38.2788 385.668C37.6908 385.668 37.1508 385.764 36.6588 385.956C36.1668 386.148 35.7408 386.424 35.3808 386.784C35.0208 387.144 34.7388 387.57 34.5348 388.062C34.3428 388.554 34.2468 389.1 34.2468 389.7C34.2468 390.3 34.3428 390.846 34.5348 391.338C34.7388 391.83 35.0208 392.256 35.3808 392.616C35.7408 392.976 36.1668 393.252 36.6588 393.444C37.1508 393.636 37.6908 393.732 38.2788 393.732C38.9028 393.732 39.4788 393.612 40.0068 393.372C40.5348 393.12 41.0148 392.742 41.4468 392.238L43.3188 393.966C42.7188 394.698 41.9748 395.256 41.0868 395.64C40.2108 396.024 39.2208 396.216 38.1168 396.216ZM49.364 396.144C48.332 396.144 47.414 395.928 46.61 395.496C45.818 395.064 45.188 394.476 44.72 393.732C44.264 392.976 44.036 392.118 44.036 391.158C44.036 390.186 44.264 389.328 44.72 388.584C45.188 387.828 45.818 387.24 46.61 386.82C47.414 386.388 48.332 386.172 49.364 386.172C50.384 386.172 51.296 386.388 52.1 386.82C52.904 387.24 53.534 387.822 53.99 388.566C54.446 389.31 54.674 390.174 54.674 391.158C54.674 392.118 54.446 392.976 53.99 393.732C53.534 394.476 52.904 395.064 52.1 395.496C51.296 395.928 50.384 396.144 49.364 396.144ZM49.364 393.84C49.832 393.84 50.252 393.732 50.624 393.516C50.996 393.3 51.29 392.994 51.506 392.598C51.722 392.19 51.83 391.71 51.83 391.158C51.83 390.594 51.722 390.114 51.506 389.718C51.29 389.322 50.996 389.016 50.624 388.8C50.252 388.584 49.832 388.476 49.364 388.476C48.896 388.476 48.476 388.584 48.104 388.8C47.732 389.016 47.432 389.322 47.204 389.718C46.988 390.114 46.88 390.594 46.88 391.158C46.88 391.71 46.988 392.19 47.204 392.598C47.432 392.994 47.732 393.3 48.104 393.516C48.476 393.732 48.896 393.84 49.364 393.84ZM68.9529 386.172C69.7209 386.172 70.3989 386.328 70.9869 386.64C71.5869 386.94 72.0549 387.408 72.3909 388.044C72.7389 388.668 72.9129 389.472 72.9129 390.456V396H70.1049V390.888C70.1049 390.108 69.9429 389.532 69.6189 389.16C69.2949 388.788 68.8389 388.602 68.2509 388.602C67.8429 388.602 67.4769 388.698 67.1529 388.89C66.8289 389.07 66.5769 389.346 66.3969 389.718C66.2169 390.09 66.1269 390.564 66.1269 391.14V396H63.3189V390.888C63.3189 390.108 63.1569 389.532 62.8329 389.16C62.5209 388.788 62.0709 388.602 61.4829 388.602C61.0749 388.602 60.7089 388.698 60.3849 388.89C60.0609 389.07 59.8089 389.346 59.6289 389.718C59.4489 390.09 59.3589 390.564 59.3589 391.14V396H56.5509V386.316H59.2329V388.962L58.7289 388.188C59.0649 387.528 59.5389 387.03 60.1509 386.694C60.7749 386.346 61.4829 386.172 62.2749 386.172C63.1629 386.172 63.9369 386.4 64.5969 386.856C65.2689 387.3 65.7129 387.984 65.9289 388.908L64.9389 388.638C65.2629 387.882 65.7789 387.282 66.4869 386.838C67.2069 386.394 68.0289 386.172 68.9529 386.172ZM81.1538 396.144C80.3378 396.144 79.6238 395.964 79.0118 395.604C78.3998 395.244 77.9198 394.698 77.5718 393.966C77.2358 393.222 77.0678 392.286 77.0678 391.158C77.0678 390.018 77.2298 389.082 77.5538 388.35C77.8778 387.618 78.3458 387.072 78.9578 386.712C79.5698 386.352 80.3018 386.172 81.1538 386.172C82.0658 386.172 82.8818 386.382 83.6018 386.802C84.3338 387.21 84.9098 387.786 85.3298 388.53C85.7618 389.274 85.9778 390.15 85.9778 391.158C85.9778 392.178 85.7618 393.06 85.3298 393.804C84.9098 394.548 84.3338 395.124 83.6018 395.532C82.8818 395.94 82.0658 396.144 81.1538 396.144ZM75.4298 399.492V386.316H78.1118V388.296L78.0578 391.176L78.2378 394.038V399.492H75.4298ZM80.6678 393.84C81.1358 393.84 81.5498 393.732 81.9098 393.516C82.2818 393.3 82.5758 392.994 82.7918 392.598C83.0198 392.19 83.1338 391.71 83.1338 391.158C83.1338 390.594 83.0198 390.114 82.7918 389.718C82.5758 389.322 82.2818 389.016 81.9098 388.8C81.5498 388.584 81.1358 388.476 80.6678 388.476C80.1998 388.476 79.7798 388.584 79.4078 388.8C79.0358 389.016 78.7418 389.322 78.5258 389.718C78.3098 390.114 78.2018 390.594 78.2018 391.158C78.2018 391.71 78.3098 392.19 78.5258 392.598C78.7418 392.994 79.0358 393.3 79.4078 393.516C79.7798 393.732 80.1998 393.84 80.6678 393.84ZM93.6393 396V394.11L93.4593 393.696V390.312C93.4593 389.712 93.2733 389.244 92.9013 388.908C92.5413 388.572 91.9833 388.404 91.2273 388.404C90.7113 388.404 90.2013 388.488 89.6973 388.656C89.2053 388.812 88.7853 389.028 88.4373 389.304L87.4293 387.342C87.9573 386.97 88.5933 386.682 89.3373 386.478C90.0813 386.274 90.8373 386.172 91.6053 386.172C93.0813 386.172 94.2273 386.52 95.0433 387.216C95.8593 387.912 96.2673 388.998 96.2673 390.474V396H93.6393ZM90.6873 396.144C89.9313 396.144 89.2833 396.018 88.7433 395.766C88.2033 395.502 87.7893 395.148 87.5013 394.704C87.2133 394.26 87.0693 393.762 87.0693 393.21C87.0693 392.634 87.2073 392.13 87.4833 391.698C87.7713 391.266 88.2213 390.93 88.8333 390.69C89.4453 390.438 90.2433 390.312 91.2273 390.312H93.8013V391.95H91.5333C90.8733 391.95 90.4173 392.058 90.1653 392.274C89.9253 392.49 89.8053 392.76 89.8053 393.084C89.8053 393.444 89.9433 393.732 90.2193 393.948C90.5073 394.152 90.8973 394.254 91.3893 394.254C91.8573 394.254 92.2773 394.146 92.6493 393.93C93.0213 393.702 93.2913 393.372 93.4593 392.94L93.8913 394.236C93.6873 394.86 93.3153 395.334 92.7753 395.658C92.2353 395.982 91.5393 396.144 90.6873 396.144ZM98.8087 396V386.316H101.491V389.052L101.113 388.26C101.401 387.576 101.863 387.06 102.499 386.712C103.135 386.352 103.909 386.172 104.821 386.172V388.764C104.701 388.752 104.593 388.746 104.497 388.746C104.401 388.734 104.299 388.728 104.191 388.728C103.423 388.728 102.799 388.95 102.319 389.394C101.851 389.826 101.617 390.504 101.617 391.428V396H98.8087ZM110.784 396.144C109.644 396.144 108.756 395.856 108.12 395.28C107.484 394.692 107.166 393.822 107.166 392.67V384.174H109.974V392.634C109.974 393.042 110.082 393.36 110.298 393.588C110.514 393.804 110.808 393.912 111.18 393.912C111.624 393.912 112.002 393.792 112.314 393.552L113.07 395.532C112.782 395.736 112.434 395.892 112.026 396C111.63 396.096 111.216 396.144 110.784 396.144ZM105.672 388.692V386.532H112.386V388.692H105.672ZM119.154 396.144C118.05 396.144 117.078 395.928 116.238 395.496C115.41 395.064 114.768 394.476 114.312 393.732C113.856 392.976 113.628 392.118 113.628 391.158C113.628 390.186 113.85 389.328 114.294 388.584C114.75 387.828 115.368 387.24 116.148 386.82C116.928 386.388 117.81 386.172 118.794 386.172C119.742 386.172 120.594 386.376 121.35 386.784C122.118 387.18 122.724 387.756 123.168 388.512C123.612 389.256 123.834 390.15 123.834 391.194C123.834 391.302 123.828 391.428 123.816 391.572C123.804 391.704 123.792 391.83 123.78 391.95H115.914V390.312H122.304L121.224 390.798C121.224 390.294 121.122 389.856 120.918 389.484C120.714 389.112 120.432 388.824 120.072 388.62C119.712 388.404 119.292 388.296 118.812 388.296C118.332 388.296 117.906 388.404 117.534 388.62C117.174 388.824 116.892 389.118 116.688 389.502C116.484 389.874 116.382 390.318 116.382 390.834V391.266C116.382 391.794 116.496 392.262 116.724 392.67C116.964 393.066 117.294 393.372 117.714 393.588C118.146 393.792 118.65 393.894 119.226 393.894C119.742 393.894 120.192 393.816 120.576 393.66C120.972 393.504 121.332 393.27 121.656 392.958L123.15 394.578C122.706 395.082 122.148 395.472 121.476 395.748C120.804 396.012 120.03 396.144 119.154 396.144ZM31.2208 418V408.316H34.0288V418H31.2208ZM32.6248 406.966C32.1088 406.966 31.6888 406.816 31.3648 406.516C31.0408 406.216 30.8788 405.844 30.8788 405.4C30.8788 404.956 31.0408 404.584 31.3648 404.284C31.6888 403.984 32.1088 403.834 32.6248 403.834C33.1408 403.834 33.5608 403.978 33.8848 404.266C34.2088 404.542 34.3708 404.902 34.3708 405.346C34.3708 405.814 34.2088 406.204 33.8848 406.516C33.5728 406.816 33.1528 406.966 32.6248 406.966ZM40.5949 418.144C39.4549 418.144 38.5669 417.856 37.9309 417.28C37.2949 416.692 36.9769 415.822 36.9769 414.67V406.174H39.7849V414.634C39.7849 415.042 39.8929 415.36 40.1089 415.588C40.3249 415.804 40.6189 415.912 40.9909 415.912C41.4349 415.912 41.8129 415.792 42.1249 415.552L42.8809 417.532C42.5929 417.736 42.2449 417.892 41.8369 418C41.4409 418.096 41.0269 418.144 40.5949 418.144ZM35.4829 410.692V408.532H42.1969V410.692H35.4829ZM44.4571 418V408.316H47.2651V418H44.4571ZM45.8611 406.966C45.3451 406.966 44.9251 406.816 44.6011 406.516C44.2771 406.216 44.1151 405.844 44.1151 405.4C44.1151 404.956 44.2771 404.584 44.6011 404.284C44.9251 403.984 45.3451 403.834 45.8611 403.834C46.3771 403.834 46.7971 403.978 47.1211 404.266C47.4451 404.542 47.6071 404.902 47.6071 405.346C47.6071 405.814 47.4451 406.204 47.1211 406.516C46.8091 406.816 46.3891 406.966 45.8611 406.966ZM55.7572 408.172C56.5252 408.172 57.2092 408.328 57.8092 408.64C58.4212 408.94 58.9012 409.408 59.2492 410.044C59.5972 410.668 59.7712 411.472 59.7712 412.456V418H56.9632V412.888C56.9632 412.108 56.7892 411.532 56.4412 411.16C56.1052 410.788 55.6252 410.602 55.0012 410.602C54.5572 410.602 54.1552 410.698 53.7952 410.89C53.4472 411.07 53.1712 411.352 52.9672 411.736C52.7752 412.12 52.6792 412.612 52.6792 413.212V418H49.8712V408.316H52.5532V410.998L52.0492 410.188C52.3972 409.54 52.8952 409.042 53.5432 408.694C54.1912 408.346 54.9292 408.172 55.7572 408.172ZM67.1928 418.144C66.0888 418.144 65.1168 417.928 64.2768 417.496C63.4488 417.064 62.8068 416.476 62.3508 415.732C61.8948 414.976 61.6668 414.118 61.6668 413.158C61.6668 412.186 61.8888 411.328 62.3328 410.584C62.7888 409.828 63.4068 409.24 64.1868 408.82C64.9668 408.388 65.8488 408.172 66.8328 408.172C67.7808 408.172 68.6328 408.376 69.3888 408.784C70.1568 409.18 70.7628 409.756 71.2068 410.512C71.6508 411.256 71.8728 412.15 71.8728 413.194C71.8728 413.302 71.8668 413.428 71.8548 413.572C71.8428 413.704 71.8308 413.83 71.8188 413.95H63.9528V412.312H70.3428L69.2628 412.798C69.2628 412.294 69.1608 411.856 68.9568 411.484C68.7528 411.112 68.4708 410.824 68.1108 410.62C67.7508 410.404 67.3308 410.296 66.8508 410.296C66.3708 410.296 65.9448 410.404 65.5728 410.62C65.2128 410.824 64.9308 411.118 64.7268 411.502C64.5228 411.874 64.4208 412.318 64.4208 412.834V413.266C64.4208 413.794 64.5348 414.262 64.7628 414.67C65.0028 415.066 65.3328 415.372 65.7528 415.588C66.1848 415.792 66.6888 415.894 67.2648 415.894C67.7808 415.894 68.2308 415.816 68.6148 415.66C69.0108 415.504 69.3708 415.27 69.6948 414.958L71.1888 416.578C70.7448 417.082 70.1868 417.472 69.5148 417.748C68.8428 418.012 68.0688 418.144 67.1928 418.144ZM73.7423 418V408.316H76.4243V411.052L76.0463 410.26C76.3343 409.576 76.7963 409.06 77.4323 408.712C78.0683 408.352 78.8423 408.172 79.7543 408.172V410.764C79.6343 410.752 79.5263 410.746 79.4303 410.746C79.3343 410.734 79.2323 410.728 79.1243 410.728C78.3563 410.728 77.7323 410.95 77.2523 411.394C76.7843 411.826 76.5503 412.504 76.5503 413.428V418H73.7423ZM86.7311 418V416.11L86.5511 415.696V412.312C86.5511 411.712 86.3651 411.244 85.9931 410.908C85.6331 410.572 85.0751 410.404 84.3191 410.404C83.8031 410.404 83.2931 410.488 82.7891 410.656C82.2971 410.812 81.8771 411.028 81.5291 411.304L80.5211 409.342C81.0491 408.97 81.6851 408.682 82.4291 408.478C83.1731 408.274 83.9291 408.172 84.6971 408.172C86.1731 408.172 87.3191 408.52 88.1351 409.216C88.9511 409.912 89.3591 410.998 89.3591 412.474V418H86.7311ZM83.7791 418.144C83.0231 418.144 82.3751 418.018 81.8351 417.766C81.2951 417.502 80.8811 417.148 80.5931 416.704C80.3051 416.26 80.1611 415.762 80.1611 415.21C80.1611 414.634 80.2991 414.13 80.5751 413.698C80.8631 413.266 81.3131 412.93 81.9251 412.69C82.5371 412.438 83.3351 412.312 84.3191 412.312H86.8931V413.95H84.6251C83.9651 413.95 83.5091 414.058 83.2571 414.274C83.0171 414.49 82.8971 414.76 82.8971 415.084C82.8971 415.444 83.0351 415.732 83.3111 415.948C83.5991 416.152 83.9891 416.254 84.4811 416.254C84.9491 416.254 85.3691 416.146 85.7411 415.93C86.1131 415.702 86.3831 415.372 86.5511 414.94L86.9831 416.236C86.7791 416.86 86.4071 417.334 85.8671 417.658C85.3271 417.982 84.6311 418.144 83.7791 418.144ZM91.9005 418V408.316H94.5825V411.052L94.2045 410.26C94.4925 409.576 94.9545 409.06 95.5905 408.712C96.2265 408.352 97.0005 408.172 97.9125 408.172V410.764C97.7925 410.752 97.6845 410.746 97.5885 410.746C97.4925 410.734 97.3905 410.728 97.2825 410.728C96.5145 410.728 95.8905 410.95 95.4105 411.394C94.9425 411.826 94.7085 412.504 94.7085 413.428V418H91.9005ZM99.5997 418V408.316H102.408V418H99.5997ZM101.004 406.966C100.488 406.966 100.068 406.816 99.7437 406.516C99.4197 406.216 99.2577 405.844 99.2577 405.4C99.2577 404.956 99.4197 404.584 99.7437 404.284C100.068 403.984 100.488 403.834 101.004 403.834C101.52 403.834 101.94 403.978 102.264 404.266C102.588 404.542 102.75 404.902 102.75 405.346C102.75 405.814 102.588 406.204 102.264 406.516C101.952 406.816 101.532 406.966 101.004 406.966ZM109.622 418.144C108.59 418.144 107.672 417.928 106.868 417.496C106.076 417.064 105.446 416.476 104.978 415.732C104.522 414.976 104.294 414.118 104.294 413.158C104.294 412.186 104.522 411.328 104.978 410.584C105.446 409.828 106.076 409.24 106.868 408.82C107.672 408.388 108.59 408.172 109.622 408.172C110.642 408.172 111.554 408.388 112.358 408.82C113.162 409.24 113.792 409.822 114.248 410.566C114.704 411.31 114.932 412.174 114.932 413.158C114.932 414.118 114.704 414.976 114.248 415.732C113.792 416.476 113.162 417.064 112.358 417.496C111.554 417.928 110.642 418.144 109.622 418.144ZM109.622 415.84C110.09 415.84 110.51 415.732 110.882 415.516C111.254 415.3 111.548 414.994 111.764 414.598C111.98 414.19 112.088 413.71 112.088 413.158C112.088 412.594 111.98 412.114 111.764 411.718C111.548 411.322 111.254 411.016 110.882 410.8C110.51 410.584 110.09 410.476 109.622 410.476C109.154 410.476 108.734 410.584 108.362 410.8C107.99 411.016 107.69 411.322 107.462 411.718C107.246 412.114 107.138 412.594 107.138 413.158C107.138 413.71 107.246 414.19 107.462 414.598C107.69 414.994 107.99 415.3 108.362 415.516C108.734 415.732 109.154 415.84 109.622 415.84ZM120.067 418.144C119.239 418.144 118.441 418.048 117.673 417.856C116.917 417.652 116.317 417.4 115.873 417.1L116.809 415.084C117.253 415.36 117.775 415.588 118.375 415.768C118.987 415.936 119.587 416.02 120.175 416.02C120.823 416.02 121.279 415.942 121.543 415.786C121.819 415.63 121.957 415.414 121.957 415.138C121.957 414.91 121.849 414.742 121.633 414.634C121.429 414.514 121.153 414.424 120.805 414.364C120.457 414.304 120.073 414.244 119.653 414.184C119.245 414.124 118.831 414.046 118.411 413.95C117.991 413.842 117.607 413.686 117.259 413.482C116.911 413.278 116.629 413.002 116.413 412.654C116.209 412.306 116.107 411.856 116.107 411.304C116.107 410.692 116.281 410.152 116.629 409.684C116.989 409.216 117.505 408.85 118.177 408.586C118.849 408.31 119.653 408.172 120.589 408.172C121.249 408.172 121.921 408.244 122.605 408.388C123.289 408.532 123.859 408.742 124.315 409.018L123.379 411.016C122.911 410.74 122.437 410.554 121.957 410.458C121.489 410.35 121.033 410.296 120.589 410.296C119.965 410.296 119.509 410.38 119.221 410.548C118.933 410.716 118.789 410.932 118.789 411.196C118.789 411.436 118.891 411.616 119.095 411.736C119.311 411.856 119.593 411.952 119.941 412.024C120.289 412.096 120.667 412.162 121.075 412.222C121.495 412.27 121.915 412.348 122.335 412.456C122.755 412.564 123.133 412.72 123.469 412.924C123.817 413.116 124.099 413.386 124.315 413.734C124.531 414.07 124.639 414.514 124.639 415.066C124.639 415.666 124.459 416.2 124.099 416.668C123.739 417.124 123.217 417.484 122.533 417.748C121.861 418.012 121.039 418.144 120.067 418.144Z" fill="#87549F"/>
<path d="M176.99 592.216C176.018 592.216 175.112 592.06 174.272 591.748C173.444 591.424 172.724 590.968 172.112 590.38C171.5 589.792 171.02 589.102 170.672 588.31C170.336 587.518 170.168 586.648 170.168 585.7C170.168 584.752 170.336 583.882 170.672 583.09C171.02 582.298 171.5 581.608 172.112 581.02C172.736 580.432 173.462 579.982 174.29 579.67C175.118 579.346 176.024 579.184 177.008 579.184C178.1 579.184 179.084 579.376 179.96 579.76C180.848 580.132 181.592 580.684 182.192 581.416L180.32 583.144C179.888 582.652 179.408 582.286 178.88 582.046C178.352 581.794 177.776 581.668 177.152 581.668C176.564 581.668 176.024 581.764 175.532 581.956C175.04 582.148 174.614 582.424 174.254 582.784C173.894 583.144 173.612 583.57 173.408 584.062C173.216 584.554 173.12 585.1 173.12 585.7C173.12 586.3 173.216 586.846 173.408 587.338C173.612 587.83 173.894 588.256 174.254 588.616C174.614 588.976 175.04 589.252 175.532 589.444C176.024 589.636 176.564 589.732 177.152 589.732C177.776 589.732 178.352 589.612 178.88 589.372C179.408 589.12 179.888 588.742 180.32 588.238L182.192 589.966C181.592 590.698 180.848 591.256 179.96 591.64C179.084 592.024 178.094 592.216 176.99 592.216ZM189.85 592V590.11L189.67 589.696V586.312C189.67 585.712 189.484 585.244 189.112 584.908C188.752 584.572 188.194 584.404 187.438 584.404C186.922 584.404 186.412 584.488 185.908 584.656C185.416 584.812 184.996 585.028 184.648 585.304L183.64 583.342C184.168 582.97 184.804 582.682 185.548 582.478C186.292 582.274 187.048 582.172 187.816 582.172C189.292 582.172 190.438 582.52 191.254 583.216C192.07 583.912 192.478 584.998 192.478 586.474V592H189.85ZM186.898 592.144C186.142 592.144 185.494 592.018 184.954 591.766C184.414 591.502 184 591.148 183.712 590.704C183.424 590.26 183.28 589.762 183.28 589.21C183.28 588.634 183.418 588.13 183.694 587.698C183.982 587.266 184.432 586.93 185.044 586.69C185.656 586.438 186.454 586.312 187.438 586.312H190.012V587.95H187.744C187.084 587.95 186.628 588.058 186.376 588.274C186.136 588.49 186.016 588.76 186.016 589.084C186.016 589.444 186.154 589.732 186.43 589.948C186.718 590.152 187.108 590.254 187.6 590.254C188.068 590.254 188.488 590.146 188.86 589.93C189.232 589.702 189.502 589.372 189.67 588.94L190.102 590.236C189.898 590.86 189.526 591.334 188.986 591.658C188.446 591.982 187.75 592.144 186.898 592.144ZM207.422 582.172C208.19 582.172 208.868 582.328 209.456 582.64C210.056 582.94 210.524 583.408 210.86 584.044C211.208 584.668 211.382 585.472 211.382 586.456V592H208.574V586.888C208.574 586.108 208.412 585.532 208.088 585.16C207.764 584.788 207.308 584.602 206.72 584.602C206.312 584.602 205.946 584.698 205.622 584.89C205.298 585.07 205.046 585.346 204.866 585.718C204.686 586.09 204.596 586.564 204.596 587.14V592H201.788V586.888C201.788 586.108 201.626 585.532 201.302 585.16C200.99 584.788 200.54 584.602 199.952 584.602C199.544 584.602 199.178 584.698 198.854 584.89C198.53 585.07 198.278 585.346 198.098 585.718C197.918 586.09 197.828 586.564 197.828 587.14V592H195.02V582.316H197.702V584.962L197.198 584.188C197.534 583.528 198.008 583.03 198.62 582.694C199.244 582.346 199.952 582.172 200.744 582.172C201.632 582.172 202.406 582.4 203.066 582.856C203.738 583.3 204.182 583.984 204.398 584.908L203.408 584.638C203.732 583.882 204.248 583.282 204.956 582.838C205.676 582.394 206.498 582.172 207.422 582.172ZM219.623 592.144C218.771 592.144 218.039 591.964 217.427 591.604C216.815 591.244 216.347 590.698 216.023 589.966C215.699 589.222 215.537 588.286 215.537 587.158C215.537 586.018 215.705 585.082 216.041 584.35C216.389 583.618 216.869 583.072 217.481 582.712C218.093 582.352 218.807 582.172 219.623 582.172C220.535 582.172 221.351 582.376 222.071 582.784C222.803 583.192 223.379 583.768 223.799 584.512C224.231 585.256 224.447 586.138 224.447 587.158C224.447 588.166 224.231 589.042 223.799 589.786C223.379 590.53 222.803 591.112 222.071 591.532C221.351 591.94 220.535 592.144 219.623 592.144ZM213.899 592V578.644H216.707V584.278L216.527 587.14L216.581 590.02V592H213.899ZM219.137 589.84C219.605 589.84 220.019 589.732 220.379 589.516C220.751 589.3 221.045 588.994 221.261 588.598C221.489 588.19 221.603 587.71 221.603 587.158C221.603 586.594 221.489 586.114 221.261 585.718C221.045 585.322 220.751 585.016 220.379 584.8C220.019 584.584 219.605 584.476 219.137 584.476C218.669 584.476 218.249 584.584 217.877 584.8C217.505 585.016 217.211 585.322 216.995 585.718C216.779 586.114 216.671 586.594 216.671 587.158C216.671 587.71 216.779 588.19 216.995 588.598C217.211 588.994 217.505 589.3 217.877 589.516C218.249 589.732 218.669 589.84 219.137 589.84ZM226.326 592V582.316H229.134V592H226.326ZM227.73 580.966C227.214 580.966 226.794 580.816 226.47 580.516C226.146 580.216 225.984 579.844 225.984 579.4C225.984 578.956 226.146 578.584 226.47 578.284C226.794 577.984 227.214 577.834 227.73 577.834C228.246 577.834 228.666 577.978 228.99 578.266C229.314 578.542 229.476 578.902 229.476 579.346C229.476 579.814 229.314 580.204 228.99 580.516C228.678 580.816 228.258 580.966 227.73 580.966ZM237.68 592V590.11L237.5 589.696V586.312C237.5 585.712 237.314 585.244 236.942 584.908C236.582 584.572 236.024 584.404 235.268 584.404C234.752 584.404 234.242 584.488 233.738 584.656C233.246 584.812 232.826 585.028 232.478 585.304L231.47 583.342C231.998 582.97 232.634 582.682 233.378 582.478C234.122 582.274 234.878 582.172 235.646 582.172C237.122 582.172 238.268 582.52 239.084 583.216C239.9 583.912 240.308 584.998 240.308 586.474V592H237.68ZM234.728 592.144C233.972 592.144 233.324 592.018 232.784 591.766C232.244 591.502 231.83 591.148 231.542 590.704C231.254 590.26 231.11 589.762 231.11 589.21C231.11 588.634 231.248 588.13 231.524 587.698C231.812 587.266 232.262 586.93 232.874 586.69C233.486 586.438 234.284 586.312 235.268 586.312H237.842V587.95H235.574C234.914 587.95 234.458 588.058 234.206 588.274C233.966 588.49 233.846 588.76 233.846 589.084C233.846 589.444 233.984 589.732 234.26 589.948C234.548 590.152 234.938 590.254 235.43 590.254C235.898 590.254 236.318 590.146 236.69 589.93C237.062 589.702 237.332 589.372 237.5 588.94L237.932 590.236C237.728 590.86 237.356 591.334 236.816 591.658C236.276 591.982 235.58 592.144 234.728 592.144ZM247.947 592V578.644H250.755V592H247.947ZM257.969 592.144C256.937 592.144 256.019 591.928 255.215 591.496C254.423 591.064 253.793 590.476 253.325 589.732C252.869 588.976 252.641 588.118 252.641 587.158C252.641 586.186 252.869 585.328 253.325 584.584C253.793 583.828 254.423 583.24 255.215 582.82C256.019 582.388 256.937 582.172 257.969 582.172C258.989 582.172 259.901 582.388 260.705 582.82C261.509 583.24 262.139 583.822 262.595 584.566C263.051 585.31 263.279 586.174 263.279 587.158C263.279 588.118 263.051 588.976 262.595 589.732C262.139 590.476 261.509 591.064 260.705 591.496C259.901 591.928 258.989 592.144 257.969 592.144ZM257.969 589.84C258.437 589.84 258.857 589.732 259.229 589.516C259.601 589.3 259.895 588.994 260.111 588.598C260.327 588.19 260.435 587.71 260.435 587.158C260.435 586.594 260.327 586.114 260.111 585.718C259.895 585.322 259.601 585.016 259.229 584.8C258.857 584.584 258.437 584.476 257.969 584.476C257.501 584.476 257.081 584.584 256.709 584.8C256.337 585.016 256.037 585.322 255.809 585.718C255.593 586.114 255.485 586.594 255.485 587.158C255.485 587.71 255.593 588.19 255.809 588.598C256.037 588.994 256.337 589.3 256.709 589.516C257.081 589.732 257.501 589.84 257.969 589.84ZM268.414 592.144C267.586 592.144 266.788 592.048 266.02 591.856C265.264 591.652 264.664 591.4 264.22 591.1L265.156 589.084C265.6 589.36 266.122 589.588 266.722 589.768C267.334 589.936 267.934 590.02 268.522 590.02C269.17 590.02 269.626 589.942 269.89 589.786C270.166 589.63 270.304 589.414 270.304 589.138C270.304 588.91 270.196 588.742 269.98 588.634C269.776 588.514 269.5 588.424 269.152 588.364C268.804 588.304 268.42 588.244 268 588.184C267.592 588.124 267.178 588.046 266.758 587.95C266.338 587.842 265.954 587.686 265.606 587.482C265.258 587.278 264.976 587.002 264.76 586.654C264.556 586.306 264.454 585.856 264.454 585.304C264.454 584.692 264.628 584.152 264.976 583.684C265.336 583.216 265.852 582.85 266.524 582.586C267.196 582.31 268 582.172 268.936 582.172C269.596 582.172 270.268 582.244 270.952 582.388C271.636 582.532 272.206 582.742 272.662 583.018L271.726 585.016C271.258 584.74 270.784 584.554 270.304 584.458C269.836 584.35 269.38 584.296 268.936 584.296C268.312 584.296 267.856 584.38 267.568 584.548C267.28 584.716 267.136 584.932 267.136 585.196C267.136 585.436 267.238 585.616 267.442 585.736C267.658 585.856 267.94 585.952 268.288 586.024C268.636 586.096 269.014 586.162 269.422 586.222C269.842 586.27 270.262 586.348 270.682 586.456C271.102 586.564 271.48 586.72 271.816 586.924C272.164 587.116 272.446 587.386 272.662 587.734C272.878 588.07 272.986 588.514 272.986 589.066C272.986 589.666 272.806 590.2 272.446 590.668C272.086 591.124 271.564 591.484 270.88 591.748C270.208 592.012 269.386 592.144 268.414 592.144ZM279.817 592V578.644H282.625V592H279.817ZM289.317 592.144C288.513 592.144 287.793 591.988 287.157 591.676C286.533 591.364 286.047 590.89 285.699 590.254C285.351 589.606 285.177 588.784 285.177 587.788V582.316H287.985V587.374C287.985 588.178 288.153 588.772 288.489 589.156C288.837 589.528 289.323 589.714 289.947 589.714C290.379 589.714 290.763 589.624 291.099 589.444C291.435 589.252 291.699 588.964 291.891 588.58C292.083 588.184 292.179 587.692 292.179 587.104V582.316H294.987V592H292.323V589.336L292.809 590.11C292.485 590.782 292.005 591.292 291.369 591.64C290.745 591.976 290.061 592.144 289.317 592.144ZM302.142 595.636C301.23 595.636 300.348 595.522 299.496 595.294C298.656 595.078 297.954 594.748 297.39 594.304L298.506 592.288C298.914 592.624 299.43 592.888 300.054 593.08C300.69 593.284 301.314 593.386 301.926 593.386C302.922 593.386 303.642 593.164 304.086 592.72C304.542 592.276 304.77 591.616 304.77 590.74V589.282L304.95 586.852L304.914 584.404V582.316H307.578V590.38C307.578 592.18 307.11 593.506 306.174 594.358C305.238 595.21 303.894 595.636 302.142 595.636ZM301.71 591.532C300.81 591.532 299.994 591.34 299.262 590.956C298.542 590.56 297.96 590.014 297.516 589.318C297.084 588.61 296.868 587.788 296.868 586.852C296.868 585.904 297.084 585.082 297.516 584.386C297.96 583.678 298.542 583.132 299.262 582.748C299.994 582.364 300.81 582.172 301.71 582.172C302.526 582.172 303.246 582.34 303.87 582.676C304.494 583 304.98 583.51 305.328 584.206C305.676 584.89 305.85 585.772 305.85 586.852C305.85 587.92 305.676 588.802 305.328 589.498C304.98 590.182 304.494 590.692 303.87 591.028C303.246 591.364 302.526 591.532 301.71 591.532ZM302.268 589.228C302.76 589.228 303.198 589.132 303.582 588.94C303.966 588.736 304.266 588.454 304.482 588.094C304.698 587.734 304.806 587.32 304.806 586.852C304.806 586.372 304.698 585.958 304.482 585.61C304.266 585.25 303.966 584.974 303.582 584.782C303.198 584.578 302.76 584.476 302.268 584.476C301.776 584.476 301.338 584.578 300.954 584.782C300.57 584.974 300.264 585.25 300.036 585.61C299.82 585.958 299.712 586.372 299.712 586.852C299.712 587.32 299.82 587.734 300.036 588.094C300.264 588.454 300.57 588.736 300.954 588.94C301.338 589.132 301.776 589.228 302.268 589.228ZM316.132 592V590.11L315.952 589.696V586.312C315.952 585.712 315.766 585.244 315.394 584.908C315.034 584.572 314.476 584.404 313.72 584.404C313.204 584.404 312.694 584.488 312.19 584.656C311.698 584.812 311.278 585.028 310.93 585.304L309.922 583.342C310.45 582.97 311.086 582.682 311.83 582.478C312.574 582.274 313.33 582.172 314.098 582.172C315.574 582.172 316.72 582.52 317.536 583.216C318.352 583.912 318.76 584.998 318.76 586.474V592H316.132ZM313.18 592.144C312.424 592.144 311.776 592.018 311.236 591.766C310.696 591.502 310.282 591.148 309.994 590.704C309.706 590.26 309.562 589.762 309.562 589.21C309.562 588.634 309.7 588.13 309.976 587.698C310.264 587.266 310.714 586.93 311.326 586.69C311.938 586.438 312.736 586.312 313.72 586.312H316.294V587.95H314.026C313.366 587.95 312.91 588.058 312.658 588.274C312.418 588.49 312.298 588.76 312.298 589.084C312.298 589.444 312.436 589.732 312.712 589.948C313 590.152 313.39 590.254 313.882 590.254C314.35 590.254 314.77 590.146 315.142 589.93C315.514 589.702 315.784 589.372 315.952 588.94L316.384 590.236C316.18 590.86 315.808 591.334 315.268 591.658C314.728 591.982 314.032 592.144 313.18 592.144ZM321.301 592V582.316H323.983V585.052L323.605 584.26C323.893 583.576 324.355 583.06 324.991 582.712C325.627 582.352 326.401 582.172 327.313 582.172V584.764C327.193 584.752 327.085 584.746 326.989 584.746C326.893 584.734 326.791 584.728 326.683 584.728C325.915 584.728 325.291 584.95 324.811 585.394C324.343 585.826 324.109 586.504 324.109 587.428V592H321.301ZM333.718 592.144C332.614 592.144 331.642 591.928 330.802 591.496C329.974 591.064 329.332 590.476 328.876 589.732C328.42 588.976 328.192 588.118 328.192 587.158C328.192 586.186 328.414 585.328 328.858 584.584C329.314 583.828 329.932 583.24 330.712 582.82C331.492 582.388 332.374 582.172 333.358 582.172C334.306 582.172 335.158 582.376 335.914 582.784C336.682 583.18 337.288 583.756 337.732 584.512C338.176 585.256 338.398 586.15 338.398 587.194C338.398 587.302 338.392 587.428 338.38 587.572C338.368 587.704 338.356 587.83 338.344 587.95H330.478V586.312H336.868L335.788 586.798C335.788 586.294 335.686 585.856 335.482 585.484C335.278 585.112 334.996 584.824 334.636 584.62C334.276 584.404 333.856 584.296 333.376 584.296C332.896 584.296 332.47 584.404 332.098 584.62C331.738 584.824 331.456 585.118 331.252 585.502C331.048 585.874 330.946 586.318 330.946 586.834V587.266C330.946 587.794 331.06 588.262 331.288 588.67C331.528 589.066 331.858 589.372 332.278 589.588C332.71 589.792 333.214 589.894 333.79 589.894C334.306 589.894 334.756 589.816 335.14 589.66C335.536 589.504 335.896 589.27 336.22 588.958L337.714 590.578C337.27 591.082 336.712 591.472 336.04 591.748C335.368 592.012 334.594 592.144 333.718 592.144ZM343.526 592.144C342.698 592.144 341.9 592.048 341.132 591.856C340.376 591.652 339.776 591.4 339.332 591.1L340.268 589.084C340.712 589.36 341.234 589.588 341.834 589.768C342.446 589.936 343.046 590.02 343.634 590.02C344.282 590.02 344.738 589.942 345.002 589.786C345.278 589.63 345.416 589.414 345.416 589.138C345.416 588.91 345.308 588.742 345.092 588.634C344.888 588.514 344.612 588.424 344.264 588.364C343.916 588.304 343.532 588.244 343.112 588.184C342.704 588.124 342.29 588.046 341.87 587.95C341.45 587.842 341.066 587.686 340.718 587.482C340.37 587.278 340.088 587.002 339.872 586.654C339.668 586.306 339.566 585.856 339.566 585.304C339.566 584.692 339.74 584.152 340.088 583.684C340.448 583.216 340.964 582.85 341.636 582.586C342.308 582.31 343.112 582.172 344.048 582.172C344.708 582.172 345.38 582.244 346.064 582.388C346.748 582.532 347.318 582.742 347.774 583.018L346.838 585.016C346.37 584.74 345.896 584.554 345.416 584.458C344.948 584.35 344.492 584.296 344.048 584.296C343.424 584.296 342.968 584.38 342.68 584.548C342.392 584.716 342.248 584.932 342.248 585.196C342.248 585.436 342.35 585.616 342.554 585.736C342.77 585.856 343.052 585.952 343.4 586.024C343.748 586.096 344.126 586.162 344.534 586.222C344.954 586.27 345.374 586.348 345.794 586.456C346.214 586.564 346.592 586.72 346.928 586.924C347.276 587.116 347.558 587.386 347.774 587.734C347.99 588.07 348.098 588.514 348.098 589.066C348.098 589.666 347.918 590.2 347.558 590.668C347.198 591.124 346.676 591.484 345.992 591.748C345.32 592.012 344.498 592.144 343.526 592.144ZM214.278 617.636C213.366 617.636 212.484 617.522 211.632 617.294C210.792 617.078 210.09 616.748 209.526 616.304L210.642 614.288C211.05 614.624 211.566 614.888 212.19 615.08C212.826 615.284 213.45 615.386 214.062 615.386C215.058 615.386 215.778 615.164 216.222 614.72C216.678 614.276 216.906 613.616 216.906 612.74V611.282L217.086 608.852L217.05 606.404V604.316H219.714V612.38C219.714 614.18 219.246 615.506 218.31 616.358C217.374 617.21 216.03 617.636 214.278 617.636ZM213.846 613.532C212.946 613.532 212.13 613.34 211.398 612.956C210.678 612.56 210.096 612.014 209.652 611.318C209.22 610.61 209.004 609.788 209.004 608.852C209.004 607.904 209.22 607.082 209.652 606.386C210.096 605.678 210.678 605.132 211.398 604.748C212.13 604.364 212.946 604.172 213.846 604.172C214.662 604.172 215.382 604.34 216.006 604.676C216.63 605 217.116 605.51 217.464 606.206C217.812 606.89 217.986 607.772 217.986 608.852C217.986 609.92 217.812 610.802 217.464 611.498C217.116 612.182 216.63 612.692 216.006 613.028C215.382 613.364 214.662 613.532 213.846 613.532ZM214.404 611.228C214.896 611.228 215.334 611.132 215.718 610.94C216.102 610.736 216.402 610.454 216.618 610.094C216.834 609.734 216.942 609.32 216.942 608.852C216.942 608.372 216.834 607.958 216.618 607.61C216.402 607.25 216.102 606.974 215.718 606.782C215.334 606.578 214.896 606.476 214.404 606.476C213.912 606.476 213.474 606.578 213.09 606.782C212.706 606.974 212.4 607.25 212.172 607.61C211.956 607.958 211.848 608.372 211.848 608.852C211.848 609.32 211.956 609.734 212.172 610.094C212.4 610.454 212.706 610.736 213.09 610.94C213.474 611.132 213.912 611.228 214.404 611.228ZM226.413 614.144C225.609 614.144 224.889 613.988 224.253 613.676C223.629 613.364 223.143 612.89 222.795 612.254C222.447 611.606 222.273 610.784 222.273 609.788V604.316H225.081V609.374C225.081 610.178 225.249 610.772 225.585 611.156C225.933 611.528 226.419 611.714 227.043 611.714C227.475 611.714 227.859 611.624 228.195 611.444C228.531 611.252 228.795 610.964 228.987 610.58C229.179 610.184 229.275 609.692 229.275 609.104V604.316H232.083V614H229.419V611.336L229.905 612.11C229.581 612.782 229.101 613.292 228.465 613.64C227.841 613.976 227.157 614.144 226.413 614.144ZM240.625 614V612.11L240.445 611.696V608.312C240.445 607.712 240.259 607.244 239.887 606.908C239.527 606.572 238.969 606.404 238.213 606.404C237.697 606.404 237.187 606.488 236.683 606.656C236.191 606.812 235.771 607.028 235.423 607.304L234.415 605.342C234.943 604.97 235.579 604.682 236.323 604.478C237.067 604.274 237.823 604.172 238.591 604.172C240.067 604.172 241.213 604.52 242.029 605.216C242.845 605.912 243.253 606.998 243.253 608.474V614H240.625ZM237.673 614.144C236.917 614.144 236.269 614.018 235.729 613.766C235.189 613.502 234.775 613.148 234.487 612.704C234.199 612.26 234.055 611.762 234.055 611.21C234.055 610.634 234.193 610.13 234.469 609.698C234.757 609.266 235.207 608.93 235.819 608.69C236.431 608.438 237.229 608.312 238.213 608.312H240.787V609.95H238.519C237.859 609.95 237.403 610.058 237.151 610.274C236.911 610.49 236.791 610.76 236.791 611.084C236.791 611.444 236.929 611.732 237.205 611.948C237.493 612.152 237.883 612.254 238.375 612.254C238.843 612.254 239.263 612.146 239.635 611.93C240.007 611.702 240.277 611.372 240.445 610.94L240.877 612.236C240.673 612.86 240.301 613.334 239.761 613.658C239.221 613.982 238.525 614.144 237.673 614.144ZM245.794 614V604.316H248.476V607.052L248.098 606.26C248.386 605.576 248.848 605.06 249.484 604.712C250.12 604.352 250.894 604.172 251.806 604.172V606.764C251.686 606.752 251.578 606.746 251.482 606.746C251.386 606.734 251.284 606.728 251.176 606.728C250.408 606.728 249.784 606.95 249.304 607.394C248.836 607.826 248.602 608.504 248.602 609.428V614H245.794ZM257.563 614.144C256.651 614.144 255.829 613.94 255.097 613.532C254.365 613.112 253.783 612.53 253.351 611.786C252.931 611.042 252.721 610.166 252.721 609.158C252.721 608.138 252.931 607.256 253.351 606.512C253.783 605.768 254.365 605.192 255.097 604.784C255.829 604.376 256.651 604.172 257.563 604.172C258.379 604.172 259.093 604.352 259.705 604.712C260.317 605.072 260.791 605.618 261.127 606.35C261.463 607.082 261.631 608.018 261.631 609.158C261.631 610.286 261.469 611.222 261.145 611.966C260.821 612.698 260.353 613.244 259.741 613.604C259.141 613.964 258.415 614.144 257.563 614.144ZM258.049 611.84C258.505 611.84 258.919 611.732 259.291 611.516C259.663 611.3 259.957 610.994 260.173 610.598C260.401 610.19 260.515 609.71 260.515 609.158C260.515 608.594 260.401 608.114 260.173 607.718C259.957 607.322 259.663 607.016 259.291 606.8C258.919 606.584 258.505 606.476 258.049 606.476C257.581 606.476 257.161 606.584 256.789 606.8C256.417 607.016 256.117 607.322 255.889 607.718C255.673 608.114 255.565 608.594 255.565 609.158C255.565 609.71 255.673 610.19 255.889 610.598C256.117 610.994 256.417 611.3 256.789 611.516C257.161 611.732 257.581 611.84 258.049 611.84ZM260.587 614V612.02L260.641 609.14L260.461 606.278V600.644H263.269V614H260.587ZM271.808 614V612.11L271.628 611.696V608.312C271.628 607.712 271.442 607.244 271.07 606.908C270.71 606.572 270.152 606.404 269.396 606.404C268.88 606.404 268.37 606.488 267.866 606.656C267.374 606.812 266.954 607.028 266.606 607.304L265.598 605.342C266.126 604.97 266.762 604.682 267.506 604.478C268.25 604.274 269.006 604.172 269.774 604.172C271.25 604.172 272.396 604.52 273.212 605.216C274.028 605.912 274.436 606.998 274.436 608.474V614H271.808ZM268.856 614.144C268.1 614.144 267.452 614.018 266.912 613.766C266.372 613.502 265.958 613.148 265.67 612.704C265.382 612.26 265.238 611.762 265.238 611.21C265.238 610.634 265.376 610.13 265.652 609.698C265.94 609.266 266.39 608.93 267.002 608.69C267.614 608.438 268.412 608.312 269.396 608.312H271.97V609.95H269.702C269.042 609.95 268.586 610.058 268.334 610.274C268.094 610.49 267.974 610.76 267.974 611.084C267.974 611.444 268.112 611.732 268.388 611.948C268.676 612.152 269.066 612.254 269.558 612.254C270.026 612.254 270.446 612.146 270.818 611.93C271.19 611.702 271.46 611.372 271.628 610.94L272.06 612.236C271.856 612.86 271.484 613.334 270.944 613.658C270.404 613.982 269.708 614.144 268.856 614.144ZM281.206 614.144C280.294 614.144 279.472 613.94 278.74 613.532C278.008 613.112 277.426 612.53 276.994 611.786C276.574 611.042 276.364 610.166 276.364 609.158C276.364 608.138 276.574 607.256 276.994 606.512C277.426 605.768 278.008 605.192 278.74 604.784C279.472 604.376 280.294 604.172 281.206 604.172C282.022 604.172 282.736 604.352 283.348 604.712C283.96 605.072 284.434 605.618 284.77 606.35C285.106 607.082 285.274 608.018 285.274 609.158C285.274 610.286 285.112 611.222 284.788 611.966C284.464 612.698 283.996 613.244 283.384 613.604C282.784 613.964 282.058 614.144 281.206 614.144ZM281.692 611.84C282.148 611.84 282.562 611.732 282.934 611.516C283.306 611.3 283.6 610.994 283.816 610.598C284.044 610.19 284.158 609.71 284.158 609.158C284.158 608.594 284.044 608.114 283.816 607.718C283.6 607.322 283.306 607.016 282.934 606.8C282.562 606.584 282.148 606.476 281.692 606.476C281.224 606.476 280.804 606.584 280.432 606.8C280.06 607.016 279.76 607.322 279.532 607.718C279.316 608.114 279.208 608.594 279.208 609.158C279.208 609.71 279.316 610.19 279.532 610.598C279.76 610.994 280.06 611.3 280.432 611.516C280.804 611.732 281.224 611.84 281.692 611.84ZM284.23 614V612.02L284.284 609.14L284.104 606.278V600.644H286.912V614H284.23ZM294.119 614.144C293.087 614.144 292.169 613.928 291.365 613.496C290.573 613.064 289.943 612.476 289.475 611.732C289.019 610.976 288.791 610.118 288.791 609.158C288.791 608.186 289.019 607.328 289.475 606.584C289.943 605.828 290.573 605.24 291.365 604.82C292.169 604.388 293.087 604.172 294.119 604.172C295.139 604.172 296.051 604.388 296.855 604.82C297.659 605.24 298.289 605.822 298.745 606.566C299.201 607.31 299.429 608.174 299.429 609.158C299.429 610.118 299.201 610.976 298.745 611.732C298.289 612.476 297.659 613.064 296.855 613.496C296.051 613.928 295.139 614.144 294.119 614.144ZM294.119 611.84C294.587 611.84 295.007 611.732 295.379 611.516C295.751 611.3 296.045 610.994 296.261 610.598C296.477 610.19 296.585 609.71 296.585 609.158C296.585 608.594 296.477 608.114 296.261 607.718C296.045 607.322 295.751 607.016 295.379 606.8C295.007 606.584 294.587 606.476 294.119 606.476C293.651 606.476 293.231 606.584 292.859 606.8C292.487 607.016 292.187 607.322 291.959 607.718C291.743 608.114 291.635 608.594 291.635 609.158C291.635 609.71 291.743 610.19 291.959 610.598C292.187 610.994 292.487 611.3 292.859 611.516C293.231 611.732 293.651 611.84 294.119 611.84ZM304.564 614.144C303.736 614.144 302.938 614.048 302.17 613.856C301.414 613.652 300.814 613.4 300.37 613.1L301.306 611.084C301.75 611.36 302.272 611.588 302.872 611.768C303.484 611.936 304.084 612.02 304.672 612.02C305.32 612.02 305.776 611.942 306.04 611.786C306.316 611.63 306.454 611.414 306.454 611.138C306.454 610.91 306.346 610.742 306.13 610.634C305.926 610.514 305.65 610.424 305.302 610.364C304.954 610.304 304.57 610.244 304.15 610.184C303.742 610.124 303.328 610.046 302.908 609.95C302.488 609.842 302.104 609.686 301.756 609.482C301.408 609.278 301.126 609.002 300.91 608.654C300.706 608.306 300.604 607.856 300.604 607.304C300.604 606.692 300.778 606.152 301.126 605.684C301.486 605.216 302.002 604.85 302.674 604.586C303.346 604.31 304.15 604.172 305.086 604.172C305.746 604.172 306.418 604.244 307.102 604.388C307.786 604.532 308.356 604.742 308.812 605.018L307.876 607.016C307.408 606.74 306.934 606.554 306.454 606.458C305.986 606.35 305.53 606.296 305.086 606.296C304.462 606.296 304.006 606.38 303.718 606.548C303.43 606.716 303.286 606.932 303.286 607.196C303.286 607.436 303.388 607.616 303.592 607.736C303.808 607.856 304.09 607.952 304.438 608.024C304.786 608.096 305.164 608.162 305.572 608.222C305.992 608.27 306.412 608.348 306.832 608.456C307.252 608.564 307.63 608.72 307.966 608.924C308.314 609.116 308.596 609.386 308.812 609.734C309.028 610.07 309.136 610.514 309.136 611.066C309.136 611.666 308.956 612.2 308.596 612.668C308.236 613.124 307.714 613.484 307.03 613.748C306.358 614.012 305.536 614.144 304.564 614.144Z" fill="#87549F"/>
</g>
<defs>
<clipPath id="clip0_654_6394">
<rect width="360" height="695" fill="white"/>
</clipPath>
</defs>
</svg>
