<svg width="360" height="634" viewBox="0 0 360 634" fill="none" xmlns="http://www.w3.org/2000/svg">
<g clip-path="url(#clip0_777_4716)">
<mask id="mask0_777_4716" style="mask-type:luminance" maskUnits="userSpaceOnUse" x="0" y="-5" width="360" height="657">
<path d="M360 -5H0V652H360V-5Z" fill="white"/>
</mask>
<g mask="url(#mask0_777_4716)">
<path d="M-4.62616 629.328L89.3806 430.95C95.0342 418.239 109.915 412.528 122.616 418.192C135.32 423.859 141.035 438.756 135.384 451.465L106.689 515.991C101.036 528.702 106.754 543.597 119.458 549.264C132.161 554.931 147.04 549.217 152.693 536.506L239.731 340.778C245.384 328.068 260.265 322.357 272.967 328.021C285.668 333.685 291.386 348.584 285.735 361.293L262.203 414.206C256.55 426.918 262.268 441.812 274.971 447.479C287.675 453.146 302.553 447.432 308.207 434.721L365.834 305.136" stroke="#253A74" stroke-width="7" stroke-linecap="round" stroke-linejoin="round" stroke-dasharray="11.97 11.97"/>
<path d="M-4.62616 325.328L89.3806 126.95C95.0342 114.239 109.915 108.528 122.616 114.192C135.32 119.859 141.035 134.756 135.384 147.465L106.689 211.991C101.036 224.702 106.754 239.597 119.458 245.264C132.161 250.931 147.04 245.217 152.693 232.506L239.731 36.7785C245.384 24.0676 260.265 18.3567 272.967 24.0206C285.668 29.6847 291.386 44.5843 285.735 57.2933L262.203 110.206C256.55 122.918 262.268 137.812 274.971 143.479C287.675 149.146 302.553 143.432 308.207 130.721L365.834 1.13624" stroke="#253A74" stroke-width="7" stroke-linecap="round" stroke-linejoin="round" stroke-dasharray="11.97 11.97"/>
<path d="M297.616 78.9325C296.332 78.0469 295.493 76.8477 295.098 75.3352C294.704 73.8226 294.87 72.3682 295.597 70.9734C296.324 69.5782 297.427 68.5986 298.905 68.0346C300.382 67.4705 301.86 67.445 303.338 67.9585L305.594 68.7504L307.435 67.2217C308.399 66.416 309.506 65.9287 310.758 65.7595C312.01 65.5908 313.188 65.786 314.293 66.3456C315.828 67.1234 316.849 68.3267 317.358 69.9559C317.866 71.5847 317.716 73.1748 316.908 74.7247L311.096 85.8716C310.288 87.4213 309.064 88.4667 307.424 89.0076C305.785 89.5486 304.197 89.4303 302.663 88.6527C301.558 88.0929 300.711 87.262 300.122 86.1602C299.532 85.0583 299.289 83.8868 299.393 82.6464L297.616 78.9325ZM297.616 78.9325L299.582 80.2804L299.393 82.6464L297.616 78.9325ZM325.996 84.0344L328.456 85.2809L326.525 88.9831L324.715 88.0657L324.065 87.737L316.709 84.0093L316.702 84.0064L316.699 84.0127L314.762 87.7286C313.422 90.2967 311.385 92.032 308.65 92.9342C305.914 93.8364 303.275 93.6435 300.733 92.3554C298.895 91.4241 297.468 90.0562 296.454 88.2514C295.439 86.4467 295.032 84.4994 295.23 82.4095L295.238 82.4101L295.228 82.4032C293.075 80.9604 291.681 78.9736 291.046 76.4415C290.41 73.9094 290.706 71.4679 291.932 69.1164C293.158 66.7648 295 65.1068 297.458 64.1422C299.917 63.1781 302.367 63.1381 304.81 64.0237L304.807 64.0308L304.817 64.0224C306.425 62.6463 308.268 61.84 310.348 61.6025C312.427 61.3654 314.386 61.7121 316.224 62.6434C318.766 63.9317 320.461 65.9345 321.31 68.6525C322.158 71.3706 321.912 74.0132 320.573 76.582L318.636 80.2972L318.633 80.3038L318.639 80.3071L325.996 84.0344Z" fill="#253A74"/>
<path d="M297.616 78.9325C296.332 78.0469 295.493 76.8477 295.098 75.3352C294.704 73.8226 294.87 72.3682 295.597 70.9734C296.324 69.5782 297.427 68.5986 298.905 68.0346C300.382 67.4705 301.86 67.445 303.338 67.9585L305.594 68.7504L307.435 67.2217C308.399 66.416 309.506 65.9287 310.758 65.7595C312.01 65.5908 313.188 65.786 314.293 66.3456C315.828 67.1234 316.849 68.3267 317.358 69.9559C317.866 71.5847 317.716 73.1748 316.908 74.7247L311.096 85.8716C310.288 87.4213 309.064 88.4667 307.424 89.0076C305.785 89.5486 304.197 89.4303 302.663 88.6527C301.558 88.0929 300.711 87.262 300.122 86.1602C299.532 85.0583 299.289 83.8868 299.393 82.6464M297.616 78.9325L299.393 82.6464M297.616 78.9325L299.582 80.2804L299.393 82.6464M325.996 84.0344L328.456 85.2809L326.525 88.9831L324.715 88.0657L324.065 87.737L316.709 84.0093L316.702 84.0064L316.699 84.0127L314.762 87.7286C313.422 90.2967 311.385 92.032 308.65 92.9342C305.914 93.8364 303.275 93.6435 300.733 92.3554C298.895 91.4241 297.468 90.0562 296.454 88.2514C295.439 86.4467 295.032 84.4994 295.23 82.4095L295.238 82.4101L295.228 82.4032C293.075 80.9604 291.681 78.9736 291.046 76.4415C290.41 73.9094 290.706 71.4679 291.932 69.1164C293.158 66.7648 295 65.1068 297.458 64.1422C299.917 63.1781 302.367 63.1381 304.81 64.0237L304.807 64.0308L304.817 64.0224C306.425 62.6463 308.268 61.84 310.348 61.6025C312.427 61.3654 314.386 61.7121 316.224 62.6434C318.766 63.9317 320.461 65.9345 321.31 68.6525C322.158 71.3706 321.912 74.0132 320.573 76.582L318.636 80.2972L318.633 80.3038L318.639 80.3071L325.996 84.0344Z" stroke="#253A74" stroke-width="0.025"/>
<path d="M142.616 179.933C141.332 179.047 140.493 177.848 140.098 176.335C139.704 174.823 139.87 173.368 140.597 171.973C141.324 170.578 142.427 169.599 143.905 169.035C145.382 168.471 146.86 168.445 148.338 168.958L150.594 169.75L152.435 168.222C153.399 167.416 154.506 166.929 155.758 166.76C157.01 166.591 158.188 166.786 159.293 167.346C160.828 168.123 161.849 169.327 162.358 170.956C162.866 172.585 162.716 174.175 161.908 175.725L156.096 186.872C155.288 188.421 154.064 189.467 152.424 190.008C150.785 190.549 149.197 190.43 147.663 189.653C146.558 189.093 145.711 188.262 145.122 187.16C144.532 186.058 144.289 184.887 144.393 183.646L142.616 179.933ZM142.616 179.933L144.582 181.28L144.393 183.646L142.616 179.933ZM170.996 185.034L173.456 186.281L171.525 189.983L169.715 189.066L169.065 188.737L161.709 185.009L161.702 185.006L161.699 185.013L159.762 188.729C158.422 191.297 156.385 193.032 153.65 193.934C150.914 194.836 148.275 194.643 145.733 193.355C143.895 192.424 142.468 191.056 141.454 189.251C140.439 187.447 140.032 185.499 140.23 183.41L140.238 183.41L140.228 183.403C138.075 181.96 136.681 179.974 136.046 177.442C135.41 174.909 135.706 172.468 136.932 170.116C138.158 167.765 140 166.107 142.458 165.142C144.917 164.178 147.367 164.138 149.81 165.024L149.807 165.031L149.817 165.022C151.425 163.646 153.268 162.84 155.348 162.602C157.427 162.365 159.386 162.712 161.224 163.643C163.766 164.932 165.461 166.934 166.31 169.653C167.158 172.371 166.912 175.013 165.573 177.582L163.636 181.297L163.633 181.304L163.639 181.307L170.996 185.034Z" fill="#253A74"/>
<path d="M142.616 179.933C141.332 179.047 140.493 177.848 140.098 176.335C139.704 174.823 139.87 173.368 140.597 171.973C141.324 170.578 142.427 169.599 143.905 169.035C145.382 168.471 146.86 168.445 148.338 168.958L150.594 169.75L152.435 168.222C153.399 167.416 154.506 166.929 155.758 166.76C157.01 166.591 158.188 166.786 159.293 167.346C160.828 168.123 161.849 169.327 162.358 170.956C162.866 172.585 162.716 174.175 161.908 175.725L156.096 186.872C155.288 188.421 154.064 189.467 152.424 190.008C150.785 190.549 149.197 190.43 147.663 189.653C146.558 189.093 145.711 188.262 145.122 187.16C144.532 186.058 144.289 184.887 144.393 183.646M142.616 179.933L144.393 183.646M142.616 179.933L144.582 181.28L144.393 183.646M170.996 185.034L173.456 186.281L171.525 189.983L169.715 189.066L169.065 188.737L161.709 185.009L161.702 185.006L161.699 185.013L159.762 188.729C158.422 191.297 156.385 193.032 153.65 193.934C150.914 194.836 148.275 194.643 145.733 193.355C143.895 192.424 142.468 191.056 141.454 189.251C140.439 187.447 140.032 185.499 140.23 183.41L140.238 183.41L140.228 183.403C138.075 181.96 136.681 179.974 136.046 177.442C135.41 174.909 135.706 172.468 136.932 170.116C138.158 167.765 140 166.107 142.458 165.142C144.917 164.178 147.367 164.138 149.81 165.024L149.807 165.031L149.817 165.022C151.425 163.646 153.268 162.84 155.348 162.602C157.427 162.365 159.386 162.712 161.224 163.643C163.766 164.932 165.461 166.934 166.31 169.653C167.158 172.371 166.912 175.013 165.573 177.582L163.636 181.297L163.633 181.304L163.639 181.307L170.996 185.034Z" stroke="#253A74" stroke-width="0.025"/>
<path d="M307.616 361.933C306.332 361.047 305.493 359.848 305.098 358.335C304.704 356.823 304.87 355.368 305.597 353.973C306.324 352.578 307.427 351.599 308.905 351.035C310.382 350.471 311.86 350.445 313.338 350.958L315.594 351.75L317.435 350.222C318.399 349.416 319.506 348.929 320.758 348.76C322.01 348.591 323.188 348.786 324.293 349.346C325.828 350.123 326.849 351.327 327.358 352.956C327.866 354.585 327.716 356.175 326.908 357.725L321.096 368.872C320.288 370.421 319.064 371.467 317.424 372.008C315.785 372.549 314.197 372.43 312.663 371.653C311.558 371.093 310.711 370.262 310.122 369.16C309.532 368.058 309.289 366.887 309.393 365.646L307.616 361.933ZM307.616 361.933L309.582 363.28L309.393 365.646L307.616 361.933ZM335.996 367.034L338.456 368.281L336.525 371.983L334.715 371.066L334.065 370.737L326.709 367.009L326.702 367.006L326.699 367.013L324.762 370.729C323.422 373.297 321.385 375.032 318.65 375.934C315.914 376.836 313.275 376.643 310.733 375.355C308.895 374.424 307.468 373.056 306.454 371.251C305.439 369.447 305.032 367.499 305.23 365.41L305.238 365.41L305.228 365.403C303.075 363.96 301.681 361.974 301.046 359.442C300.41 356.909 300.706 354.468 301.932 352.116C303.158 349.765 305 348.107 307.458 347.142C309.917 346.178 312.367 346.138 314.81 347.024L314.807 347.031L314.817 347.022C316.425 345.646 318.268 344.84 320.348 344.602C322.427 344.365 324.386 344.712 326.224 345.643C328.766 346.932 330.461 348.934 331.31 351.653C332.158 354.371 331.912 357.013 330.573 359.582L328.636 363.297L328.633 363.304L328.639 363.307L335.996 367.034Z" fill="#253A74"/>
<path d="M307.616 361.933C306.332 361.047 305.493 359.848 305.098 358.335C304.704 356.823 304.87 355.368 305.597 353.973C306.324 352.578 307.427 351.599 308.905 351.035C310.382 350.471 311.86 350.445 313.338 350.958L315.594 351.75L317.435 350.222C318.399 349.416 319.506 348.929 320.758 348.76C322.01 348.591 323.188 348.786 324.293 349.346C325.828 350.123 326.849 351.327 327.358 352.956C327.866 354.585 327.716 356.175 326.908 357.725L321.096 368.872C320.288 370.421 319.064 371.467 317.424 372.008C315.785 372.549 314.197 372.43 312.663 371.653C311.558 371.093 310.711 370.262 310.122 369.16C309.532 368.058 309.289 366.887 309.393 365.646M307.616 361.933L309.393 365.646M307.616 361.933L309.582 363.28L309.393 365.646M335.996 367.034L338.456 368.281L336.525 371.983L334.715 371.066L334.065 370.737L326.709 367.009L326.702 367.006L326.699 367.013L324.762 370.729C323.422 373.297 321.385 375.032 318.65 375.934C315.914 376.836 313.275 376.643 310.733 375.355C308.895 374.424 307.468 373.056 306.454 371.251C305.439 369.447 305.032 367.499 305.23 365.41L305.238 365.41L305.228 365.403C303.075 363.96 301.681 361.974 301.046 359.442C300.41 356.909 300.706 354.468 301.932 352.116C303.158 349.765 305 348.107 307.458 347.142C309.917 346.178 312.367 346.138 314.81 347.024L314.807 347.031L314.817 347.022C316.425 345.646 318.268 344.84 320.348 344.602C322.427 344.365 324.386 344.712 326.224 345.643C328.766 346.932 330.461 348.934 331.31 351.653C332.158 354.371 331.912 357.013 330.573 359.582L328.636 363.297L328.633 363.304L328.639 363.307L335.996 367.034Z" stroke="#253A74" stroke-width="0.025"/>
<path d="M132.616 505.933C131.332 505.047 130.493 503.848 130.098 502.335C129.704 500.823 129.87 499.368 130.597 497.973C131.324 496.578 132.427 495.599 133.905 495.035C135.382 494.471 136.86 494.445 138.338 494.958L140.594 495.75L142.435 494.222C143.399 493.416 144.506 492.929 145.758 492.76C147.01 492.591 148.188 492.786 149.293 493.346C150.828 494.123 151.849 495.327 152.358 496.956C152.866 498.585 152.716 500.175 151.908 501.725L146.096 512.872C145.288 514.421 144.064 515.467 142.424 516.008C140.785 516.549 139.197 516.43 137.663 515.653C136.558 515.093 135.711 514.262 135.122 513.16C134.532 512.058 134.289 510.887 134.393 509.646L132.616 505.933ZM132.616 505.933L134.582 507.28L134.393 509.646L132.616 505.933ZM160.996 511.034L163.456 512.281L161.525 515.983L159.715 515.066L159.065 514.737L151.709 511.009L151.702 511.006L151.699 511.013L149.762 514.729C148.422 517.297 146.385 519.032 143.65 519.934C140.914 520.836 138.275 520.643 135.733 519.355C133.895 518.424 132.468 517.056 131.454 515.251C130.439 513.447 130.032 511.499 130.23 509.41L130.238 509.41L130.228 509.403C128.075 507.96 126.681 505.974 126.046 503.442C125.41 500.909 125.706 498.468 126.932 496.116C128.158 493.765 130 492.107 132.458 491.142C134.917 490.178 137.367 490.138 139.81 491.024L139.807 491.031L139.817 491.022C141.425 489.646 143.268 488.84 145.348 488.602C147.427 488.365 149.386 488.712 151.224 489.643C153.766 490.932 155.461 492.934 156.31 495.653C157.158 498.371 156.912 501.013 155.573 503.582L153.636 507.297L153.633 507.304L153.639 507.307L160.996 511.034Z" fill="#253A74"/>
<path d="M132.616 505.933C131.332 505.047 130.493 503.848 130.098 502.335C129.704 500.823 129.87 499.368 130.597 497.973C131.324 496.578 132.427 495.599 133.905 495.035C135.382 494.471 136.86 494.445 138.338 494.958L140.594 495.75L142.435 494.222C143.399 493.416 144.506 492.929 145.758 492.76C147.01 492.591 148.188 492.786 149.293 493.346C150.828 494.123 151.849 495.327 152.358 496.956C152.866 498.585 152.716 500.175 151.908 501.725L146.096 512.872C145.288 514.421 144.064 515.467 142.424 516.008C140.785 516.549 139.197 516.43 137.663 515.653C136.558 515.093 135.711 514.262 135.122 513.16C134.532 512.058 134.289 510.887 134.393 509.646M132.616 505.933L134.393 509.646M132.616 505.933L134.582 507.28L134.393 509.646M160.996 511.034L163.456 512.281L161.525 515.983L159.715 515.066L159.065 514.737L151.709 511.009L151.702 511.006L151.699 511.013L149.762 514.729C148.422 517.297 146.385 519.032 143.65 519.934C140.914 520.836 138.275 520.643 135.733 519.355C133.895 518.424 132.468 517.056 131.454 515.251C130.439 513.447 130.032 511.499 130.23 509.41L130.238 509.41L130.228 509.403C128.075 507.96 126.681 505.974 126.046 503.442C125.41 500.909 125.706 498.468 126.932 496.116C128.158 493.765 130 492.107 132.458 491.142C134.917 490.178 137.367 490.138 139.81 491.024L139.807 491.031L139.817 491.022C141.425 489.646 143.268 488.84 145.348 488.602C147.427 488.365 149.386 488.712 151.224 489.643C153.766 490.932 155.461 492.934 156.31 495.653C157.158 498.371 156.912 501.013 155.573 503.582L153.636 507.297L153.633 507.304L153.639 507.307L160.996 511.034Z" stroke="#253A74" stroke-width="0.025"/>
<path d="M95.5003 131C102.404 131 108 125.403 108 118.5C108 111.597 102.404 106 95.5003 106C88.5967 106 83 111.597 83 118.5C83 125.403 88.5967 131 95.5003 131Z" fill="#7ECDCE"/>
<path d="M273.5 154C280.404 154 286 148.403 286 141.5C286 134.597 280.404 129 273.5 129C266.597 129 261 134.597 261 141.5C261 148.403 266.597 154 273.5 154Z" fill="#7ECDCE"/>
<path d="M109.5 427C116.404 427 122 421.403 122 414.5C122 407.597 116.404 402 109.5 402C102.597 402 97 407.597 97 414.5C97 421.403 102.597 427 109.5 427Z" fill="#7ECDCE"/>
<path d="M279.5 461C286.404 461 292 455.403 292 448.5C292 441.597 286.404 436 279.5 436C272.597 436 267 441.597 267 448.5C267 455.403 272.597 461 279.5 461Z" fill="#7ECDCE"/>
<mask id="mask1_777_4716" style="mask-type:alpha" maskUnits="userSpaceOnUse" x="170" y="344" width="70" height="71">
<path d="M191.663 345.404L171.212 392.945L218.753 413.396L239.204 365.855L191.663 345.404Z" fill="#FEFEFE" stroke="#253A74"/>
</mask>
<g mask="url(#mask1_777_4716)">
<path d="M205.467 400.83L205.462 400.828L205.459 400.834L203.742 404.827L185.752 397.089C184.654 396.616 183.882 395.821 183.437 394.702C182.991 393.584 183.004 392.476 183.477 391.377L195.517 363.387L212.67 356.553L222.659 360.851L220.941 364.844L220.939 364.849L220.945 364.851C222.609 365.568 223.773 366.759 224.437 368.426C225.101 370.092 225.075 371.758 224.359 373.422C223.643 375.087 222.452 376.252 220.785 376.915C219.119 377.579 217.453 377.553 215.789 376.837L215.783 376.835L215.78 376.84L210.62 388.837L210.618 388.843L210.623 388.845C212.288 389.561 213.452 390.752 214.116 392.419C214.78 394.085 214.754 395.751 214.038 397.416C213.322 399.08 212.131 400.245 210.464 400.909C208.798 401.573 207.132 401.546 205.467 400.83ZM203.787 371.688L203.793 371.69L203.795 371.685L207.236 363.687L207.241 363.673L207.227 363.679L198.649 367.097L198.648 367.095L198.646 367.1L197.786 369.1L197.783 369.105L197.789 369.107L203.787 371.688ZM198.626 383.685L198.632 383.687L198.635 383.681L202.075 375.684L202.077 375.678L202.072 375.675L196.074 373.095L196.068 373.093L196.065 373.098L192.625 381.096L192.623 381.102L192.628 381.104L198.626 383.685ZM193.466 395.681L193.471 395.684L193.474 395.678L196.914 387.68L196.917 387.675L196.911 387.672L190.913 385.092L190.907 385.09L190.905 385.095L187.464 393.093L187.462 393.098L187.467 393.101L193.466 395.681ZM201.463 399.121L201.469 399.124L201.472 399.118L202.16 397.519L202.162 397.52L202.16 397.514C201.804 396.69 201.601 395.833 201.549 394.943C201.498 394.053 201.666 393.159 202.053 392.26C202.439 391.361 202.973 390.624 203.654 390.05C204.336 389.474 205.098 389.033 205.941 388.724L205.942 388.727L205.944 388.721L212.481 373.525L212.483 373.526L212.481 373.52C212.125 372.697 211.922 371.84 211.87 370.95C211.819 370.06 211.987 369.166 212.374 368.266C212.76 367.367 213.294 366.631 213.975 366.056C214.657 365.481 215.419 365.04 216.262 364.731L216.263 364.734L216.265 364.728L216.953 363.128L216.956 363.123L216.95 363.121L212.951 361.4L212.946 361.398L212.943 361.403L197.462 397.393L197.459 397.399L197.465 397.401L201.463 399.121ZM210.55 395.915C210.852 395.214 210.865 394.517 210.589 393.824C210.313 393.132 209.824 392.635 209.123 392.333C208.422 392.031 207.724 392.019 207.032 392.294C206.339 392.57 205.842 393.059 205.54 393.76C205.239 394.461 205.226 395.159 205.502 395.851C205.778 396.544 206.267 397.041 206.968 397.343C207.669 397.644 208.366 397.657 209.059 397.381C209.751 397.105 210.248 396.616 210.55 395.915ZM220.871 371.922C221.173 371.221 221.186 370.524 220.91 369.831C220.634 369.139 220.145 368.641 219.444 368.34C218.743 368.038 218.046 368.025 217.353 368.301C216.66 368.577 216.163 369.066 215.862 369.767C215.56 370.468 215.547 371.165 215.823 371.858C216.099 372.55 216.588 373.048 217.289 373.349C217.99 373.651 218.687 373.664 219.38 373.388C220.073 373.112 220.57 372.623 220.871 371.922Z" fill="#253A74" stroke="#253A74" stroke-width="0.025"/>
</g>
<path d="M52.079 74.58H56.7359V76.3844H52.079V74.58ZM52.2453 79.9239H50V70.2076H57.3319V72.0121H52.2453V79.9239ZM63.0568 79.9239V78.4665L62.9182 78.1472V75.5377C62.9182 75.075 62.7749 74.7141 62.4885 74.455C62.2113 74.1959 61.7816 74.0664 61.1995 74.0664C60.8022 74.0664 60.4095 74.1311 60.0214 74.2607C59.6426 74.381 59.3192 74.5476 59.0512 74.7604L58.2751 73.2474C58.6816 72.9606 59.1714 72.7385 59.7442 72.5812C60.3171 72.4239 60.8992 72.3452 61.4906 72.3452C62.6271 72.3452 63.5095 72.6136 64.1378 73.1503C64.7661 73.687 65.0803 74.5244 65.0803 75.6626V79.9239H63.0568ZM60.7837 80.035C60.2016 80.035 59.7027 79.9378 59.2869 79.7435C58.8711 79.5399 58.5523 79.2669 58.3305 78.9245C58.1088 78.5822 57.9979 78.1981 57.9979 77.7725C57.9979 77.3283 58.1041 76.9396 58.3167 76.6065C58.5384 76.2734 58.8849 76.0143 59.3562 75.8292C59.8274 75.6349 60.4419 75.5377 61.1995 75.5377H63.1815V76.8008H61.4351C60.9269 76.8008 60.5758 76.8841 60.3818 77.0507C60.197 77.2172 60.1046 77.4254 60.1046 77.6753C60.1046 77.9529 60.2109 78.175 60.4234 78.3416C60.6451 78.4989 60.9454 78.5775 61.3243 78.5775C61.6846 78.5775 62.008 78.4942 62.2945 78.3277C62.5809 78.1519 62.7888 77.8974 62.9182 77.5643L63.2508 78.5636C63.0937 79.0448 62.8073 79.4104 62.3915 79.6602C61.9757 79.9101 61.4398 80.035 60.7837 80.035ZM70.6948 80.035C69.8909 80.035 69.1748 79.873 68.5465 79.5492C67.9182 79.216 67.4239 78.758 67.0635 78.175C66.7124 77.592 66.5368 76.9304 66.5368 76.1901C66.5368 75.4405 66.7124 74.7789 67.0635 74.2052C67.4239 73.6222 67.9182 73.1688 68.5465 72.8449C69.1748 72.5118 69.8909 72.3452 70.6948 72.3452C71.4802 72.3452 72.164 72.5118 72.7461 72.8449C73.3282 73.1688 73.7579 73.6361 74.0351 74.2468L72.358 75.149C72.164 74.7974 71.9191 74.5383 71.6234 74.3717C71.337 74.2052 71.0228 74.1219 70.681 74.1219C70.3114 74.1219 69.9787 74.2052 69.683 74.3717C69.3874 74.5383 69.1517 74.7743 68.9762 75.0796C68.8099 75.385 68.7267 75.7552 68.7267 76.1901C68.7267 76.625 68.8099 76.9952 68.9762 77.3005C69.1517 77.6059 69.3874 77.8419 69.683 78.0084C69.9787 78.175 70.3114 78.2583 70.681 78.2583C71.0228 78.2583 71.337 78.1796 71.6234 78.0223C71.9191 77.8557 72.164 77.592 72.358 77.2311L74.0351 78.1472C73.7579 78.7487 73.3282 79.216 72.7461 79.5492C72.164 79.873 71.4802 80.035 70.6948 80.035ZM75.2394 79.9239V72.4562H77.4016V79.9239H75.2394ZM76.3205 71.4152C75.9232 71.4152 75.5998 71.2995 75.3503 71.0682C75.1008 70.8368 74.9761 70.55 74.9761 70.2076C74.9761 69.8652 75.1008 69.5784 75.3503 69.347C75.5998 69.1157 75.9232 69 76.3205 69C76.7178 69 77.0412 69.111 77.2907 69.3331C77.5402 69.546 77.6649 69.8236 77.6649 70.166C77.6649 70.5269 77.5402 70.8276 77.2907 71.0682C77.0505 71.2995 76.7271 71.4152 76.3205 71.4152ZM79.4082 79.9239V69.6246H81.5706V79.9239H79.4082ZM83.5773 79.9239V72.4562H85.7394V79.9239H83.5773ZM84.6583 71.4152C84.261 71.4152 83.9376 71.2995 83.6881 71.0682C83.4387 70.8368 83.3139 70.55 83.3139 70.2076C83.3139 69.8652 83.4387 69.5784 83.6881 69.347C83.9376 69.1157 84.261 69 84.6583 69C85.0556 69 85.379 69.111 85.6285 69.3331C85.878 69.546 86.0027 69.8236 86.0027 70.166C86.0027 70.5269 85.878 70.8276 85.6285 71.0682C85.3883 71.2995 85.0649 71.4152 84.6583 71.4152ZM90.7952 80.035C89.9174 80.035 89.2336 79.8129 88.7439 79.3687C88.2542 78.9153 88.0094 78.2444 88.0094 77.356V70.8045H90.1715V77.3283C90.1715 77.6429 90.2547 77.8881 90.421 78.0639C90.5873 78.2305 90.8137 78.3138 91.1001 78.3138C91.442 78.3138 91.7331 78.2213 91.9733 78.0362L92.5554 79.563C92.3337 79.7204 92.0657 79.8407 91.7515 79.9239C91.4466 79.998 91.1278 80.035 90.7952 80.035ZM86.859 74.2885V72.6228H92.0287V74.2885H86.859ZM98.3427 79.9239V78.4665L98.2041 78.1472V75.5377C98.2041 75.075 98.0609 74.7141 97.7745 74.455C97.4973 74.1959 97.0676 74.0664 96.4855 74.0664C96.0882 74.0664 95.6955 74.1311 95.3074 74.2607C94.9285 74.381 94.6051 74.5476 94.3372 74.7604L93.561 73.2474C93.9676 72.9606 94.4573 72.7385 95.0302 72.5812C95.6031 72.4239 96.1852 72.3452 96.7765 72.3452C97.913 72.3452 98.7955 72.6136 99.4238 73.1503C100.052 73.687 100.366 74.5244 100.366 75.6626V79.9239H98.3427ZM96.0697 80.035C95.4876 80.035 94.9886 79.9378 94.5728 79.7435C94.157 79.5399 93.8382 79.2669 93.6165 78.9245C93.3947 78.5822 93.2838 78.1981 93.2838 77.7725C93.2838 77.3283 93.3901 76.9396 93.6026 76.6065C93.8244 76.2734 94.1709 76.0143 94.6421 75.8292C95.1133 75.6349 95.7278 75.5377 96.4855 75.5377H98.4675V76.8008H96.7211C96.2129 76.8008 95.8618 76.8841 95.6677 77.0507C95.4829 77.2172 95.3905 77.4254 95.3905 77.6753C95.3905 77.9529 95.4968 78.175 95.7093 78.3416C95.9311 78.4989 96.2314 78.5775 96.6102 78.5775C96.9706 78.5775 97.294 78.4942 97.5804 78.3277C97.8669 78.1519 98.0748 77.8974 98.2041 77.5643L98.5367 78.5636C98.3797 79.0448 98.0932 79.4104 97.6774 79.6602C97.2616 79.9101 96.7257 80.035 96.0697 80.035ZM106.248 79.9239V69.6246H108.41V79.9239H106.248ZM114.991 79.9239V78.4665L114.852 78.1472V75.5377C114.852 75.075 114.709 74.7141 114.423 74.455C114.145 74.1959 113.716 74.0664 113.134 74.0664C112.736 74.0664 112.344 74.1311 111.955 74.2607C111.577 74.381 111.253 74.5476 110.985 74.7604L110.209 73.2474C110.616 72.9606 111.105 72.7385 111.678 72.5812C112.251 72.4239 112.833 72.3452 113.425 72.3452C114.561 72.3452 115.444 72.6136 116.072 73.1503C116.7 73.687 117.014 74.5244 117.014 75.6626V79.9239H114.991ZM112.718 80.035C112.136 80.035 111.637 79.9378 111.221 79.7435C110.805 79.5399 110.486 79.2669 110.265 78.9245C110.043 78.5822 109.932 78.1981 109.932 77.7725C109.932 77.3283 110.038 76.9396 110.251 76.6065C110.472 76.2734 110.819 76.0143 111.29 75.8292C111.761 75.6349 112.376 75.5377 113.134 75.5377H115.116V76.8008H113.369C112.861 76.8008 112.51 76.8841 112.316 77.0507C112.131 77.2172 112.039 77.4254 112.039 77.6753C112.039 77.9529 112.145 78.175 112.357 78.3416C112.579 78.4989 112.879 78.5775 113.258 78.5775C113.619 78.5775 113.942 78.4942 114.229 78.3277C114.515 78.1519 114.723 77.8974 114.852 77.5643L115.185 78.5636C115.028 79.0448 114.741 79.4104 114.326 79.6602C113.91 79.9101 113.374 80.035 112.718 80.035ZM121.48 80.035C120.842 80.035 120.228 79.961 119.636 79.8129C119.054 79.6556 118.592 79.4613 118.25 79.2299L118.971 77.6753C119.313 77.8881 119.715 78.0639 120.177 78.2028C120.648 78.3323 121.11 78.3971 121.563 78.3971C122.062 78.3971 122.413 78.3369 122.616 78.2166C122.829 78.0963 122.935 77.9298 122.935 77.7169C122.935 77.5411 122.852 77.4116 122.685 77.3283C122.528 77.2358 122.316 77.1663 122.048 77.1201C121.78 77.0738 121.484 77.0275 121.161 76.9813C120.847 76.935 120.528 76.8749 120.204 76.8008C119.881 76.7175 119.585 76.5972 119.317 76.4399C119.049 76.2826 118.832 76.0698 118.666 75.8014C118.509 75.5331 118.43 75.1861 118.43 74.7604C118.43 74.2885 118.564 73.872 118.832 73.5112C119.11 73.1503 119.507 72.868 120.024 72.6644C120.542 72.4516 121.161 72.3452 121.882 72.3452C122.39 72.3452 122.907 72.4007 123.434 72.5118C123.961 72.6228 124.399 72.7847 124.751 72.9976L124.03 74.5383C123.669 74.3255 123.304 74.182 122.935 74.108C122.575 74.0247 122.223 73.9831 121.882 73.9831C121.401 73.9831 121.05 74.0479 120.828 74.1774C120.606 74.307 120.496 74.4735 120.496 74.6771C120.496 74.8622 120.574 75.001 120.731 75.0935C120.897 75.1861 121.115 75.2601 121.383 75.3156C121.651 75.3711 121.942 75.422 122.256 75.4683C122.579 75.5053 122.903 75.5655 123.226 75.6487C123.549 75.732 123.84 75.8523 124.099 76.0096C124.367 76.1577 124.584 76.3659 124.751 76.6343C124.917 76.8934 125 77.2357 125 77.6614C125 78.1241 124.861 78.5359 124.584 78.8968C124.307 79.2484 123.905 79.526 123.378 79.7296C122.861 79.9332 122.228 80.035 121.48 80.035ZM51.7424 96.889V89.4213H53.8076V91.5311L53.5165 90.9204C53.7383 90.3929 54.094 89.995 54.5837 89.7266C55.0734 89.449 55.6694 89.3102 56.3716 89.3102V91.309C56.2792 91.2998 56.1961 91.2951 56.1222 91.2951C56.0482 91.2859 55.9697 91.2812 55.8865 91.2812C55.2952 91.2812 54.8147 91.4524 54.4451 91.7948C54.0848 92.128 53.9046 92.6508 53.9046 93.3633V96.889H51.7424ZM61.3038 97C60.4537 97 59.7053 96.8334 59.0585 96.5003C58.4209 96.1672 57.9266 95.7137 57.5755 95.14C57.2243 94.557 57.0488 93.8954 57.0488 93.1551C57.0488 92.4056 57.2197 91.7439 57.5616 91.1702C57.9127 90.5872 58.3886 90.1338 58.9892 89.8099C59.5898 89.4768 60.2689 89.3102 61.0266 89.3102C61.7565 89.3102 62.4126 89.4675 62.9947 89.7822C63.5861 90.0875 64.0527 90.5317 64.3946 91.1147C64.7364 91.6884 64.9074 92.3778 64.9074 93.1829C64.9074 93.2662 64.9027 93.3633 64.8935 93.4744C64.8843 93.5762 64.875 93.6733 64.8658 93.7658H58.809V92.5027H63.7293L62.8977 92.8775C62.8977 92.4888 62.8191 92.1511 62.6621 91.8642C62.505 91.5774 62.2878 91.3553 62.0106 91.198C61.7334 91.0314 61.41 90.9481 61.0404 90.9481C60.6708 90.9481 60.3428 91.0314 60.0564 91.198C59.7792 91.3553 59.5621 91.582 59.405 91.8781C59.2479 92.165 59.1694 92.5074 59.1694 92.9053V93.2384C59.1694 93.6456 59.2571 94.0064 59.4327 94.3211C59.6175 94.6264 59.8716 94.8624 60.195 95.029C60.5276 95.1863 60.9157 95.2649 61.3592 95.2649C61.7565 95.2649 62.103 95.2048 62.3987 95.0845C62.7036 94.9642 62.9808 94.7838 63.2303 94.5432L64.3807 95.7924C64.0388 96.1811 63.6092 96.4818 63.0917 96.6946C62.5743 96.8982 61.9783 97 61.3038 97ZM69.493 97C68.8739 97 68.3195 96.8797 67.8298 96.6391C67.3493 96.3985 66.9751 96.033 66.7072 95.5426C66.4392 95.0429 66.3052 94.409 66.3052 93.6409V89.4213H68.4674V93.3217C68.4674 93.9417 68.5967 94.3997 68.8554 94.6958C69.1234 94.9827 69.4976 95.1261 69.9781 95.1261C70.3107 95.1261 70.6064 95.0567 70.8651 94.9179C71.1239 94.7699 71.3271 94.5478 71.475 94.2517C71.6228 93.9463 71.6967 93.5669 71.6967 93.1135V89.4213H73.8589V96.889H71.8076V94.8346L72.1818 95.4315C71.9324 95.9497 71.5628 96.343 71.073 96.6113C70.5926 96.8705 70.0659 97 69.493 97ZM80.3942 89.3102C80.9856 89.3102 81.5121 89.4305 81.9741 89.6711C82.4454 89.9025 82.815 90.2633 83.0829 90.7538C83.3509 91.235 83.4849 91.855 83.4849 92.6138V96.889H81.3227V92.9469C81.3227 92.3454 81.1889 91.9012 80.9209 91.6144C80.6622 91.3275 80.2926 91.1841 79.8121 91.1841C79.4702 91.1841 79.1607 91.2581 78.8835 91.4062C78.6155 91.545 78.403 91.7624 78.2459 92.0586C78.0981 92.3547 78.0242 92.7341 78.0242 93.1968V96.889H75.862V89.4213H77.9272V91.4895L77.5391 90.8648C77.8071 90.3651 78.1905 89.9811 78.6895 89.7128C79.1884 89.4444 79.7567 89.3102 80.3942 89.3102ZM85.4445 96.889V89.4213H87.6066V96.889H85.4445ZM86.5256 88.3802C86.1283 88.3802 85.8049 88.2646 85.5554 88.0332C85.3059 87.8019 85.1812 87.515 85.1812 87.1726C85.1812 86.8302 85.3059 86.5434 85.5554 86.312C85.8049 86.0807 86.1283 85.965 86.5256 85.965C86.9229 85.965 87.2463 86.0761 87.4958 86.2982C87.7452 86.511 87.87 86.7886 87.87 87.131C87.87 87.4919 87.7452 87.7926 87.4958 88.0332C87.2555 88.2646 86.9321 88.3802 86.5256 88.3802ZM93.1622 97C92.3675 97 91.6607 96.8334 91.0416 96.5003C90.4318 96.1672 89.9467 95.7137 89.5863 95.14C89.2352 94.557 89.0596 93.8954 89.0596 93.1551C89.0596 92.4056 89.2352 91.7439 89.5863 91.1702C89.9467 90.5872 90.4318 90.1338 91.0416 89.8099C91.6607 89.4768 92.3675 89.3102 93.1622 89.3102C93.9476 89.3102 94.6498 89.4768 95.2689 89.8099C95.888 90.1338 96.3731 90.5826 96.7242 91.1563C97.0753 91.73 97.2509 92.3963 97.2509 93.1551C97.2509 93.8954 97.0753 94.557 96.7242 95.14C96.3731 95.7137 95.888 96.1672 95.2689 96.5003C94.6498 96.8334 93.9476 97 93.1622 97ZM93.1622 95.2233C93.5225 95.2233 93.8459 95.14 94.1324 94.9735C94.4188 94.8069 94.6452 94.5709 94.8115 94.2655C94.9778 93.9509 95.061 93.5808 95.061 93.1551C95.061 92.7202 94.9778 92.35 94.8115 92.0447C94.6452 91.7393 94.4188 91.5033 94.1324 91.3368C93.8459 91.1702 93.5225 91.0869 93.1622 91.0869C92.8018 91.0869 92.4784 91.1702 92.192 91.3368C91.9055 91.5033 91.6745 91.7393 91.499 92.0447C91.3327 92.35 91.2495 92.7202 91.2495 93.1551C91.2495 93.5808 91.3327 93.9509 91.499 94.2655C91.6745 94.5709 91.9055 94.8069 92.192 94.9735C92.4784 95.14 92.8018 95.2233 93.1622 95.2233ZM103.228 89.3102C103.819 89.3102 104.346 89.4305 104.808 89.6711C105.279 89.9025 105.648 90.2633 105.916 90.7538C106.184 91.235 106.318 91.855 106.318 92.6138V96.889H104.156V92.9469C104.156 92.3454 104.022 91.9012 103.754 91.6144C103.496 91.3275 103.126 91.1841 102.645 91.1841C102.304 91.1841 101.994 91.2581 101.717 91.4062C101.449 91.545 101.236 91.7624 101.079 92.0586C100.931 92.3547 100.858 92.7341 100.858 93.1968V96.889H98.6954V89.4213H100.761V91.4895L100.372 90.8648C100.64 90.3651 101.024 89.9811 101.523 89.7128C102.022 89.4444 102.59 89.3102 103.228 89.3102ZM112.033 97C111.183 97 110.435 96.8334 109.788 96.5003C109.15 96.1672 108.656 95.7137 108.305 95.14C107.954 94.557 107.778 93.8954 107.778 93.1551C107.778 92.4056 107.949 91.7439 108.291 91.1702C108.642 90.5872 109.118 90.1338 109.719 89.8099C110.319 89.4768 110.998 89.3102 111.756 89.3102C112.486 89.3102 113.142 89.4675 113.724 89.7822C114.316 90.0875 114.782 90.5317 115.124 91.1147C115.466 91.6884 115.637 92.3778 115.637 93.1829C115.637 93.2662 115.632 93.3633 115.623 93.4744C115.614 93.5762 115.605 93.6733 115.595 93.7658H109.538V92.5027H114.459L113.627 92.8775C113.627 92.4888 113.549 92.1511 113.392 91.8642C113.234 91.5774 113.017 91.3553 112.74 91.198C112.463 91.0314 112.14 90.9481 111.77 90.9481C111.4 90.9481 111.072 91.0314 110.786 91.198C110.509 91.3553 110.292 91.582 110.134 91.8781C109.977 92.165 109.899 92.5074 109.899 92.9053V93.2384C109.899 93.6456 109.987 94.0064 110.162 94.3211C110.347 94.6264 110.601 94.8624 110.924 95.029C111.257 95.1863 111.645 95.2649 112.089 95.2649C112.486 95.2649 112.833 95.2048 113.128 95.0845C113.433 94.9642 113.71 94.7838 113.96 94.5432L115.11 95.7924C114.768 96.1811 114.339 96.4818 113.821 96.6946C113.304 96.8982 112.708 97 112.033 97ZM119.585 97C118.948 97 118.333 96.926 117.742 96.7779C117.16 96.6206 116.698 96.4263 116.356 96.1949L117.077 94.6403C117.419 94.8532 117.821 95.029 118.283 95.1678C118.754 95.2973 119.216 95.3621 119.669 95.3621C120.168 95.3621 120.519 95.302 120.722 95.1817C120.934 95.0614 121.041 94.8948 121.041 94.682C121.041 94.5061 120.958 94.3766 120.791 94.2933C120.634 94.2008 120.422 94.1314 120.154 94.0851C119.886 94.0388 119.59 93.9926 119.267 93.9463C118.952 93.9 118.634 93.8399 118.31 93.7658C117.987 93.6826 117.691 93.5623 117.423 93.405C117.155 93.2476 116.938 93.0348 116.772 92.7665C116.615 92.4981 116.536 92.1511 116.536 91.7254C116.536 91.2535 116.67 90.8371 116.938 90.4762C117.215 90.1153 117.613 89.833 118.13 89.6295C118.648 89.4166 119.267 89.3102 119.987 89.3102C120.496 89.3102 121.013 89.3657 121.54 89.4768C122.066 89.5878 122.505 89.7498 122.856 89.9626L122.136 91.5033C121.775 91.2905 121.41 91.1471 121.041 91.073C120.68 90.9898 120.329 90.9481 119.987 90.9481C119.507 90.9481 119.156 91.0129 118.934 91.1424C118.712 91.272 118.601 91.4386 118.601 91.6421C118.601 91.8272 118.68 91.966 118.837 92.0586C119.003 92.1511 119.22 92.2251 119.488 92.2806C119.756 92.3362 120.047 92.3871 120.362 92.4333C120.685 92.4703 121.008 92.5305 121.332 92.6138C121.655 92.6971 121.946 92.8174 122.205 92.9747C122.473 93.1227 122.69 93.3309 122.856 93.5993C123.023 93.8584 123.106 94.2008 123.106 94.6264C123.106 95.0891 122.967 95.5009 122.69 95.8618C122.413 96.2134 122.011 96.4911 121.484 96.6946C120.967 96.8982 120.334 97 119.585 97Z" fill="#87549F"/>
<path d="M225 168.345V159.144H229.375C230.421 159.144 231.342 159.336 232.14 159.722C232.938 160.099 233.562 160.629 234.012 161.312C234.461 161.996 234.686 162.807 234.686 163.744C234.686 164.673 234.461 165.484 234.012 166.176C233.562 166.859 232.938 167.394 232.14 167.78C231.342 168.156 230.421 168.345 229.375 168.345H225ZM227.229 166.597H229.265C229.907 166.597 230.462 166.483 230.93 166.255C231.407 166.018 231.774 165.685 232.03 165.256C232.296 164.826 232.429 164.323 232.429 163.744C232.429 163.157 232.296 162.653 232.03 162.233C231.774 161.803 231.407 161.475 230.93 161.247C230.462 161.01 229.907 160.892 229.265 160.892H227.229V166.597ZM236.215 168.345V161.273H238.361V168.345H236.215ZM237.288 160.287C236.894 160.287 236.573 160.178 236.325 159.959C236.078 159.739 235.954 159.468 235.954 159.144C235.954 158.819 236.078 158.548 236.325 158.329C236.573 158.11 236.894 158 237.288 158C237.683 158 238.004 158.105 238.251 158.315C238.499 158.517 238.623 158.78 238.623 159.104C238.623 159.446 238.499 159.731 238.251 159.959C238.013 160.178 237.692 160.287 237.288 160.287ZM242.363 168.345L239.253 161.273H241.468L244.055 167.359H242.954L245.637 161.273H247.701L244.578 168.345H242.363ZM248.576 168.345V161.273H250.722V168.345H248.576ZM249.649 160.287C249.255 160.287 248.934 160.178 248.686 159.959C248.438 159.739 248.315 159.468 248.315 159.144C248.315 158.819 248.438 158.548 248.686 158.329C248.934 158.11 249.255 158 249.649 158C250.044 158 250.365 158.105 250.612 158.315C250.86 158.517 250.984 158.78 250.984 159.104C250.984 159.446 250.86 159.731 250.612 159.959C250.374 160.178 250.053 160.287 249.649 160.287ZM255.892 168.45C255.195 168.45 254.567 168.301 254.007 168.003C253.448 167.696 253.003 167.271 252.673 166.728C252.352 166.185 252.191 165.545 252.191 164.809C252.191 164.064 252.352 163.42 252.673 162.877C253.003 162.333 253.448 161.913 254.007 161.615C254.567 161.317 255.195 161.168 255.892 161.168C256.516 161.168 257.062 161.299 257.529 161.562C257.997 161.825 258.359 162.224 258.616 162.758C258.873 163.293 259.002 163.976 259.002 164.809C259.002 165.633 258.878 166.316 258.63 166.859C258.382 167.394 258.025 167.793 257.557 168.056C257.098 168.319 256.543 168.45 255.892 168.45ZM256.264 166.767C256.612 166.767 256.929 166.689 257.213 166.531C257.497 166.373 257.722 166.15 257.887 165.86C258.061 165.563 258.149 165.212 258.149 164.809C258.149 164.397 258.061 164.047 257.887 163.757C257.722 163.468 257.497 163.245 257.213 163.087C256.929 162.929 256.612 162.85 256.264 162.85C255.906 162.85 255.585 162.929 255.301 163.087C255.016 163.245 254.787 163.468 254.613 163.757C254.448 164.047 254.365 164.397 254.365 164.809C254.365 165.212 254.448 165.563 254.613 165.86C254.787 166.15 255.016 166.373 255.301 166.531C255.585 166.689 255.906 166.767 256.264 166.767ZM258.204 168.345V166.899L258.245 164.796L258.107 162.706V158.592H260.254V168.345H258.204ZM265.913 168.45C265.07 168.45 264.327 168.292 263.685 167.977C263.052 167.661 262.561 167.232 262.213 166.689C261.864 166.136 261.69 165.51 261.69 164.809C261.69 164.099 261.859 163.473 262.199 162.929C262.547 162.377 263.02 161.948 263.616 161.641C264.212 161.326 264.886 161.168 265.638 161.168C266.363 161.168 267.014 161.317 267.592 161.615C268.179 161.904 268.642 162.325 268.981 162.877C269.321 163.42 269.491 164.073 269.491 164.835C269.491 164.914 269.486 165.006 269.477 165.111C269.468 165.208 269.458 165.3 269.449 165.387H263.437V164.191H268.321L267.496 164.546C267.496 164.178 267.418 163.858 267.262 163.586C267.106 163.315 266.89 163.104 266.615 162.956C266.34 162.798 266.019 162.719 265.652 162.719C265.285 162.719 264.96 162.798 264.675 162.956C264.4 163.104 264.185 163.319 264.029 163.6C263.873 163.871 263.795 164.195 263.795 164.572V164.888C263.795 165.273 263.882 165.615 264.056 165.913C264.24 166.202 264.492 166.426 264.813 166.583C265.143 166.732 265.528 166.807 265.968 166.807C266.363 166.807 266.707 166.75 267 166.636C267.303 166.522 267.578 166.351 267.826 166.123L268.968 167.306C268.628 167.674 268.202 167.959 267.688 168.161C267.175 168.354 266.583 168.45 265.913 168.45ZM278.296 171C277.599 171 276.925 170.917 276.274 170.75C275.632 170.593 275.095 170.352 274.664 170.027L275.517 168.555C275.829 168.8 276.224 168.993 276.701 169.133C277.187 169.282 277.664 169.357 278.131 169.357C278.893 169.357 279.443 169.195 279.782 168.871C280.131 168.546 280.305 168.064 280.305 167.425V166.36L280.443 164.585L280.415 162.798V161.273H282.451V167.162C282.451 168.476 282.094 169.445 281.378 170.067C280.663 170.689 279.636 171 278.296 171ZM277.966 168.003C277.278 168.003 276.655 167.863 276.095 167.582C275.545 167.293 275.1 166.895 274.761 166.386C274.43 165.869 274.265 165.269 274.265 164.585C274.265 163.893 274.43 163.293 274.761 162.785C275.1 162.268 275.545 161.869 276.095 161.588C276.655 161.308 277.278 161.168 277.966 161.168C278.59 161.168 279.14 161.291 279.617 161.536C280.094 161.772 280.466 162.145 280.732 162.653C280.998 163.153 281.131 163.797 281.131 164.585C281.131 165.365 280.998 166.009 280.732 166.518C280.466 167.017 280.094 167.39 279.617 167.635C279.14 167.88 278.59 168.003 277.966 168.003ZM278.393 166.321C278.769 166.321 279.104 166.25 279.397 166.11C279.691 165.961 279.92 165.755 280.085 165.492C280.25 165.23 280.333 164.927 280.333 164.585C280.333 164.235 280.25 163.933 280.085 163.678C279.92 163.416 279.691 163.214 279.397 163.074C279.104 162.925 278.769 162.85 278.393 162.85C278.017 162.85 277.682 162.925 277.388 163.074C277.095 163.214 276.861 163.416 276.687 163.678C276.522 163.933 276.439 164.235 276.439 164.585C276.439 164.927 276.522 165.23 276.687 165.492C276.861 165.755 277.095 165.961 277.388 166.11C277.682 166.25 278.017 166.321 278.393 166.321ZM288.99 168.345V166.965L288.852 166.662V164.191C288.852 163.753 288.71 163.411 288.425 163.166C288.15 162.92 287.724 162.798 287.146 162.798C286.752 162.798 286.362 162.859 285.977 162.982C285.6 163.096 285.279 163.253 285.013 163.455L284.243 162.022C284.647 161.751 285.133 161.54 285.701 161.391C286.27 161.242 286.848 161.168 287.435 161.168C288.563 161.168 289.439 161.422 290.063 161.93C290.686 162.438 290.998 163.232 290.998 164.309V168.345H288.99ZM286.733 168.45C286.155 168.45 285.66 168.358 285.247 168.174C284.835 167.981 284.518 167.723 284.298 167.398C284.078 167.074 283.968 166.71 283.968 166.307C283.968 165.887 284.073 165.519 284.284 165.203C284.504 164.888 284.848 164.642 285.316 164.467C285.784 164.283 286.394 164.191 287.146 164.191H289.113V165.387H287.38C286.875 165.387 286.527 165.466 286.334 165.624C286.151 165.782 286.059 165.979 286.059 166.215C286.059 166.478 286.165 166.689 286.376 166.846C286.596 166.995 286.894 167.07 287.27 167.07C287.628 167.07 287.949 166.991 288.233 166.833C288.517 166.667 288.724 166.426 288.852 166.11L289.182 167.057C289.026 167.512 288.742 167.858 288.329 168.095C287.916 168.332 287.384 168.45 286.733 168.45ZM295.431 168.45C294.798 168.45 294.188 168.38 293.601 168.24C293.023 168.091 292.564 167.907 292.225 167.688L292.94 166.215C293.28 166.417 293.679 166.583 294.137 166.715C294.605 166.838 295.064 166.899 295.513 166.899C296.008 166.899 296.357 166.842 296.559 166.728C296.77 166.614 296.875 166.456 296.875 166.255C296.875 166.088 296.793 165.966 296.628 165.887C296.472 165.799 296.261 165.733 295.995 165.69C295.729 165.646 295.435 165.602 295.114 165.558C294.802 165.514 294.486 165.457 294.165 165.387C293.844 165.308 293.55 165.194 293.284 165.045C293.018 164.897 292.803 164.695 292.638 164.441C292.482 164.187 292.404 163.858 292.404 163.455C292.404 163.008 292.537 162.614 292.803 162.272C293.078 161.93 293.472 161.663 293.986 161.47C294.5 161.269 295.114 161.168 295.83 161.168C296.334 161.168 296.848 161.22 297.371 161.326C297.893 161.431 298.329 161.584 298.678 161.786L297.962 163.245C297.604 163.043 297.242 162.907 296.875 162.837C296.518 162.758 296.169 162.719 295.83 162.719C295.353 162.719 295.004 162.78 294.784 162.903C294.564 163.026 294.454 163.183 294.454 163.376C294.454 163.551 294.532 163.683 294.688 163.77C294.853 163.858 295.068 163.928 295.334 163.981C295.6 164.033 295.889 164.082 296.201 164.125C296.522 164.16 296.843 164.217 297.164 164.296C297.485 164.375 297.774 164.489 298.031 164.638C298.297 164.778 298.512 164.975 298.678 165.23C298.843 165.475 298.925 165.799 298.925 166.202C298.925 166.64 298.788 167.03 298.512 167.372C298.237 167.705 297.838 167.968 297.315 168.161C296.802 168.354 296.174 168.45 295.431 168.45ZM303.277 168.45C302.405 168.45 301.726 168.24 301.24 167.819C300.754 167.39 300.511 166.754 300.511 165.913V159.709H302.657V165.887C302.657 166.185 302.74 166.417 302.905 166.583C303.07 166.741 303.295 166.82 303.579 166.82C303.919 166.82 304.208 166.732 304.446 166.557L305.024 168.003C304.804 168.152 304.538 168.266 304.226 168.345C303.923 168.415 303.607 168.45 303.277 168.45ZM299.369 163.008V161.431H304.501V163.008H299.369ZM309.522 168.45C308.733 168.45 308.031 168.292 307.417 167.977C306.812 167.661 306.33 167.232 305.972 166.689C305.624 166.136 305.45 165.51 305.45 164.809C305.45 164.099 305.624 163.473 305.972 162.929C306.33 162.377 306.812 161.948 307.417 161.641C308.031 161.326 308.733 161.168 309.522 161.168C310.302 161.168 310.999 161.326 311.613 161.641C312.228 161.948 312.709 162.373 313.058 162.916C313.406 163.459 313.581 164.09 313.581 164.809C313.581 165.51 313.406 166.136 313.058 166.689C312.709 167.232 312.228 167.661 311.613 167.977C310.999 168.292 310.302 168.45 309.522 168.45ZM309.522 166.767C309.88 166.767 310.201 166.689 310.485 166.531C310.769 166.373 310.994 166.15 311.159 165.86C311.324 165.563 311.407 165.212 311.407 164.809C311.407 164.397 311.324 164.047 311.159 163.757C310.994 163.468 310.769 163.245 310.485 163.087C310.201 162.929 309.88 162.85 309.522 162.85C309.164 162.85 308.843 162.929 308.559 163.087C308.275 163.245 308.045 163.468 307.871 163.757C307.706 164.047 307.623 164.397 307.623 164.809C307.623 165.212 307.706 165.563 307.871 165.86C308.045 166.15 308.275 166.373 308.559 166.531C308.843 166.689 309.164 166.767 309.522 166.767ZM317.505 168.45C316.873 168.45 316.263 168.38 315.676 168.24C315.098 168.091 314.639 167.907 314.3 167.688L315.015 166.215C315.355 166.417 315.754 166.583 316.212 166.715C316.68 166.838 317.139 166.899 317.588 166.899C318.083 166.899 318.432 166.842 318.634 166.728C318.845 166.614 318.95 166.456 318.95 166.255C318.95 166.088 318.867 165.966 318.702 165.887C318.546 165.799 318.336 165.733 318.07 165.69C317.804 165.646 317.51 165.602 317.189 165.558C316.877 165.514 316.561 165.457 316.24 165.387C315.919 165.308 315.625 165.194 315.359 165.045C315.093 164.897 314.878 164.695 314.713 164.441C314.557 164.187 314.479 163.858 314.479 163.455C314.479 163.008 314.612 162.614 314.878 162.272C315.153 161.93 315.547 161.663 316.061 161.47C316.574 161.269 317.189 161.168 317.904 161.168C318.409 161.168 318.923 161.22 319.445 161.326C319.968 161.431 320.404 161.584 320.752 161.786L320.037 163.245C319.679 163.043 319.317 162.907 318.95 162.837C318.592 162.758 318.244 162.719 317.904 162.719C317.427 162.719 317.079 162.78 316.859 162.903C316.639 163.026 316.529 163.183 316.529 163.376C316.529 163.551 316.607 163.683 316.763 163.77C316.928 163.858 317.143 163.928 317.409 163.981C317.675 164.033 317.964 164.082 318.276 164.125C318.597 164.16 318.918 164.217 319.239 164.296C319.56 164.375 319.849 164.489 320.106 164.638C320.372 164.778 320.587 164.975 320.752 165.23C320.917 165.475 321 165.799 321 166.202C321 166.64 320.862 167.03 320.587 167.372C320.312 167.705 319.913 167.968 319.39 168.161C318.877 168.354 318.248 168.45 317.505 168.45Z" fill="#87549F"/>
<path d="M77.5582 381.065C76.8118 381.065 76.116 380.944 75.471 380.703C74.8351 380.453 74.2822 380.101 73.8123 379.647C73.3423 379.193 72.9737 378.66 72.7065 378.048C72.4485 377.436 72.3195 376.765 72.3195 376.032C72.3195 375.3 72.4485 374.628 72.7065 374.017C72.9737 373.405 73.3423 372.872 73.8123 372.418C74.2915 371.964 74.849 371.616 75.4848 371.375C76.1206 371.125 76.8164 371 77.572 371C78.4106 371 79.1662 371.148 79.8389 371.445C80.5208 371.732 81.0921 372.158 81.5529 372.724L80.1153 374.058C79.7836 373.678 79.415 373.396 79.0095 373.21C78.6041 373.016 78.1618 372.918 77.6826 372.918C77.231 372.918 76.8164 372.993 76.4386 373.141C76.0607 373.289 75.7336 373.502 75.4572 373.78C75.1807 374.058 74.9642 374.387 74.8075 374.767C74.6601 375.147 74.5863 375.569 74.5863 376.032C74.5863 376.496 74.6601 376.917 74.8075 377.297C74.9642 377.677 75.1807 378.006 75.4572 378.284C75.7336 378.562 76.0607 378.776 76.4386 378.924C76.8164 379.072 77.231 379.146 77.6826 379.146C78.1618 379.146 78.6041 379.054 79.0095 378.868C79.415 378.674 79.7836 378.382 80.1153 377.993L81.5529 379.327C81.0921 379.892 80.5208 380.323 79.8389 380.62C79.1662 380.916 78.406 381.065 77.5582 381.065ZM86.1951 381.009C85.4026 381.009 84.6977 380.842 84.0802 380.509C83.4721 380.175 82.9883 379.721 82.6289 379.146C82.2787 378.562 82.1036 377.9 82.1036 377.158C82.1036 376.408 82.2787 375.745 82.6289 375.17C82.9883 374.587 83.4721 374.133 84.0802 373.808C84.6977 373.474 85.4026 373.308 86.1951 373.308C86.9784 373.308 87.6787 373.474 88.2961 373.808C88.9135 374.133 89.3973 374.582 89.7475 375.157C90.0976 375.731 90.2727 376.398 90.2727 377.158C90.2727 377.9 90.0976 378.562 89.7475 379.146C89.3973 379.721 88.9135 380.175 88.2961 380.509C87.6787 380.842 86.9784 381.009 86.1951 381.009ZM86.1951 379.23C86.5545 379.23 86.877 379.146 87.1627 378.98C87.4483 378.813 87.6741 378.576 87.84 378.271C88.0058 377.955 88.0888 377.585 88.0888 377.158C88.0888 376.723 88.0058 376.352 87.84 376.046C87.6741 375.74 87.4483 375.504 87.1627 375.337C86.877 375.17 86.5545 375.087 86.1951 375.087C85.8357 375.087 85.5132 375.17 85.2275 375.337C84.9418 375.504 84.7115 375.74 84.5364 376.046C84.3705 376.352 84.2876 376.723 84.2876 377.158C84.2876 377.585 84.3705 377.955 84.5364 378.271C84.7115 378.576 84.9418 378.813 85.2275 378.98C85.5132 379.146 85.8357 379.23 86.1951 379.23ZM101.238 373.308C101.827 373.308 102.348 373.428 102.8 373.669C103.26 373.901 103.62 374.262 103.878 374.753C104.145 375.235 104.279 375.856 104.279 376.616V380.898H102.122V376.95C102.122 376.347 101.998 375.903 101.749 375.615C101.5 375.328 101.15 375.184 100.699 375.184C100.385 375.184 100.104 375.259 99.8555 375.407C99.6067 375.546 99.4132 375.759 99.2749 376.046C99.1367 376.334 99.0676 376.7 99.0676 377.145V380.898H96.9113V376.95C96.9113 376.347 96.7869 375.903 96.5381 375.615C96.2985 375.328 95.9529 375.184 95.5014 375.184C95.1881 375.184 94.907 375.259 94.6582 375.407C94.4094 375.546 94.2159 375.759 94.0777 376.046C93.9394 376.334 93.8703 376.7 93.8703 377.145V380.898H91.714V373.419H93.7736V375.462L93.3866 374.865C93.6446 374.355 94.0086 373.97 94.4785 373.711C94.9577 373.442 95.5014 373.308 96.1096 373.308C96.7915 373.308 97.3859 373.484 97.8927 373.836C98.4087 374.179 98.7497 374.707 98.9155 375.421L98.1553 375.212C98.4041 374.628 98.8004 374.165 99.344 373.822C99.8969 373.479 100.528 373.308 101.238 373.308ZM110.607 381.009C109.98 381.009 109.432 380.87 108.962 380.592C108.492 380.314 108.124 379.892 107.856 379.327C107.598 378.752 107.469 378.03 107.469 377.158C107.469 376.278 107.594 375.555 107.843 374.99C108.091 374.424 108.451 374.003 108.921 373.725C109.391 373.447 109.953 373.308 110.607 373.308C111.307 373.308 111.934 373.47 112.487 373.794C113.049 374.109 113.491 374.554 113.814 375.129C114.146 375.703 114.311 376.38 114.311 377.158C114.311 377.946 114.146 378.627 113.814 379.202C113.491 379.777 113.049 380.221 112.487 380.537C111.934 380.852 111.307 381.009 110.607 381.009ZM106.211 383.595V373.419H108.271V374.948L108.23 377.172L108.368 379.383V383.595H106.211ZM110.234 379.23C110.593 379.23 110.911 379.146 111.188 378.98C111.473 378.813 111.699 378.576 111.865 378.271C112.04 377.955 112.127 377.585 112.127 377.158C112.127 376.723 112.04 376.352 111.865 376.046C111.699 375.74 111.473 375.504 111.188 375.337C110.911 375.17 110.593 375.087 110.234 375.087C109.874 375.087 109.552 375.17 109.266 375.337C108.981 375.504 108.755 375.74 108.589 376.046C108.423 376.352 108.34 376.723 108.34 377.158C108.34 377.585 108.423 377.955 108.589 378.271C108.755 378.576 108.981 378.813 109.266 378.98C109.552 379.146 109.874 379.23 110.234 379.23ZM120.195 380.898V379.438L120.057 379.119V376.505C120.057 376.042 119.914 375.68 119.628 375.421C119.352 375.161 118.923 375.031 118.343 375.031C117.946 375.031 117.555 375.096 117.168 375.226C116.79 375.347 116.467 375.513 116.2 375.727L115.426 374.211C115.832 373.924 116.32 373.702 116.891 373.544C117.463 373.386 118.043 373.308 118.633 373.308C119.766 373.308 120.646 373.576 121.273 374.114C121.9 374.651 122.213 375.49 122.213 376.63V380.898H120.195ZM117.928 381.009C117.347 381.009 116.85 380.912 116.435 380.717C116.02 380.513 115.703 380.24 115.481 379.897C115.26 379.554 115.15 379.17 115.15 378.743C115.15 378.298 115.256 377.909 115.468 377.575C115.689 377.242 116.034 376.982 116.504 376.797C116.974 376.602 117.587 376.505 118.343 376.505H120.319V377.77H118.578C118.071 377.77 117.721 377.853 117.527 378.02C117.343 378.187 117.251 378.396 117.251 378.646C117.251 378.924 117.357 379.146 117.569 379.313C117.79 379.471 118.089 379.549 118.467 379.549C118.826 379.549 119.149 379.466 119.435 379.299C119.72 379.123 119.928 378.868 120.057 378.535L120.388 379.536C120.232 380.018 119.946 380.384 119.531 380.634C119.117 380.884 118.582 381.009 117.928 381.009ZM124.164 380.898V373.419H126.224V375.532L125.934 374.92C126.155 374.392 126.51 373.993 126.998 373.725C127.487 373.447 128.081 373.308 128.781 373.308V375.31C128.689 375.3 128.606 375.296 128.533 375.296C128.459 375.286 128.381 375.282 128.298 375.282C127.708 375.282 127.229 375.453 126.86 375.796C126.501 376.13 126.321 376.653 126.321 377.367V380.898H124.164ZM133.361 381.009C132.485 381.009 131.803 380.787 131.315 380.342C130.826 379.888 130.582 379.216 130.582 378.326V371.765H132.739V378.298C132.739 378.613 132.821 378.859 132.987 379.035C133.153 379.202 133.379 379.285 133.665 379.285C134.006 379.285 134.296 379.193 134.535 379.007L135.116 380.537C134.895 380.694 134.628 380.815 134.314 380.898C134.01 380.972 133.692 381.009 133.361 381.009ZM129.435 375.254V373.586H134.591V375.254H129.435ZM139.788 381.009C138.94 381.009 138.194 380.842 137.549 380.509C136.913 380.175 136.42 379.721 136.07 379.146C135.72 378.562 135.544 377.9 135.544 377.158C135.544 376.408 135.715 375.745 136.056 375.17C136.406 374.587 136.881 374.133 137.48 373.808C138.079 373.474 138.756 373.308 139.512 373.308C140.24 373.308 140.894 373.465 141.474 373.78C142.064 374.086 142.529 374.531 142.87 375.115C143.211 375.689 143.382 376.38 143.382 377.186C143.382 377.27 143.377 377.367 143.368 377.478C143.359 377.58 143.35 377.677 143.34 377.77H137.3V376.505H142.207L141.378 376.88C141.378 376.491 141.299 376.153 141.143 375.866C140.986 375.578 140.769 375.356 140.493 375.198C140.216 375.031 139.894 374.948 139.525 374.948C139.157 374.948 138.83 375.031 138.544 375.198C138.268 375.356 138.051 375.583 137.894 375.879C137.738 376.167 137.659 376.51 137.659 376.908V377.242C137.659 377.65 137.747 378.011 137.922 378.326C138.106 378.632 138.36 378.868 138.682 379.035C139.014 379.193 139.401 379.271 139.843 379.271C140.24 379.271 140.585 379.211 140.88 379.091C141.184 378.97 141.46 378.79 141.709 378.549L142.857 379.8C142.516 380.189 142.087 380.49 141.571 380.703C141.055 380.907 140.461 381.009 139.788 381.009ZM72.2626 397.889V390.41H74.4189V397.889H72.2626ZM73.3408 389.367C72.9445 389.367 72.622 389.251 72.3732 389.02C72.1244 388.788 72 388.501 72 388.158C72 387.815 72.1244 387.527 72.3732 387.296C72.622 387.064 72.9445 386.948 73.3408 386.948C73.737 386.948 74.0596 387.059 74.3084 387.282C74.5572 387.495 74.6816 387.773 74.6816 388.116C74.6816 388.477 74.5572 388.779 74.3084 389.02C74.0688 389.251 73.7462 389.367 73.3408 389.367ZM79.4612 398C78.5857 398 77.9038 397.778 77.4154 397.333C76.927 396.879 76.6828 396.207 76.6828 395.317V388.755H78.8391V395.289C78.8391 395.604 78.9221 395.85 79.0879 396.026C79.2538 396.193 79.4796 396.276 79.7652 396.276C80.1062 396.276 80.3965 396.184 80.6361 395.998L81.2166 397.527C80.9955 397.685 80.7282 397.805 80.4149 397.889C80.1108 397.963 79.7929 398 79.4612 398ZM75.5356 392.245V390.577H80.6914V392.245H75.5356ZM82.427 397.889V390.41H84.5833V397.889H82.427ZM83.5052 389.367C83.1089 389.367 82.7864 389.251 82.5376 389.02C82.2888 388.788 82.1644 388.501 82.1644 388.158C82.1644 387.815 82.2888 387.527 82.5376 387.296C82.7864 387.064 83.1089 386.948 83.5052 386.948C83.9014 386.948 84.2239 387.059 84.4727 387.282C84.7215 387.495 84.8459 387.773 84.8459 388.116C84.8459 388.477 84.7215 388.779 84.4727 389.02C84.2331 389.251 83.9106 389.367 83.5052 389.367ZM91.1045 390.299C91.6943 390.299 92.2195 390.419 92.6803 390.66C93.1503 390.892 93.5189 391.253 93.7861 391.744C94.0533 392.226 94.1869 392.847 94.1869 393.607V397.889H92.0306V393.941C92.0306 393.338 91.897 392.893 91.6298 392.606C91.3718 392.319 91.0032 392.175 90.524 392.175C90.183 392.175 89.8743 392.249 89.5979 392.398C89.3306 392.537 89.1187 392.754 88.962 393.051C88.8146 393.348 88.7409 393.728 88.7409 394.191V397.889H86.5846V390.41H88.6441V392.481L88.2571 391.855C88.5243 391.355 88.9068 390.97 89.4044 390.702C89.902 390.433 90.4687 390.299 91.1045 390.299ZM99.8861 398C99.0383 398 98.2919 397.833 97.6469 397.5C97.011 397.166 96.518 396.712 96.1679 396.137C95.8177 395.553 95.6426 394.891 95.6426 394.149C95.6426 393.399 95.8131 392.736 96.154 392.161C96.5042 391.577 96.9788 391.123 97.5778 390.799C98.1767 390.465 98.854 390.299 99.6097 390.299C100.338 390.299 100.992 390.456 101.572 390.771C102.162 391.077 102.628 391.522 102.969 392.106C103.309 392.68 103.48 393.371 103.48 394.177C103.48 394.26 103.475 394.358 103.466 394.469C103.457 394.571 103.448 394.668 103.439 394.761H97.3981V393.496H102.305L101.476 393.871C101.476 393.482 101.397 393.144 101.241 392.856C101.084 392.569 100.868 392.347 100.591 392.189C100.315 392.022 99.9921 391.939 99.6235 391.939C99.2549 391.939 98.9278 392.022 98.6421 392.189C98.3656 392.347 98.1491 392.574 97.9924 392.87C97.8358 393.158 97.7575 393.501 97.7575 393.899V394.233C97.7575 394.64 97.845 395.002 98.0201 395.317C98.2044 395.623 98.4578 395.859 98.7803 396.026C99.1121 396.184 99.4991 396.262 99.9414 396.262C100.338 396.262 100.683 396.202 100.978 396.082C101.282 395.961 101.559 395.78 101.807 395.539L102.955 396.791C102.614 397.18 102.185 397.481 101.669 397.694C101.153 397.898 100.559 398 99.8861 398ZM104.916 397.889V390.41H106.975V392.523L106.685 391.911C106.906 391.383 107.261 390.984 107.749 390.716C108.238 390.438 108.832 390.299 109.532 390.299V392.3C109.44 392.291 109.357 392.286 109.283 392.286C109.21 392.277 109.131 392.273 109.049 392.273C108.459 392.273 107.98 392.444 107.611 392.787C107.252 393.121 107.072 393.644 107.072 394.358V397.889H104.916ZM114.89 397.889V396.429L114.752 396.109V393.496C114.752 393.032 114.609 392.671 114.323 392.412C114.047 392.152 113.618 392.022 113.038 392.022C112.641 392.022 112.25 392.087 111.863 392.217C111.485 392.337 111.162 392.504 110.895 392.717L110.121 391.202C110.527 390.915 111.015 390.692 111.586 390.535C112.158 390.377 112.738 390.299 113.328 390.299C114.461 390.299 115.341 390.567 115.968 391.105C116.595 391.642 116.908 392.481 116.908 393.621V397.889H114.89ZM112.623 398C112.042 398 111.545 397.903 111.13 397.708C110.716 397.504 110.398 397.231 110.176 396.888C109.955 396.545 109.845 396.16 109.845 395.734C109.845 395.289 109.951 394.9 110.163 394.566C110.384 394.233 110.729 393.973 111.199 393.788C111.669 393.593 112.282 393.496 113.038 393.496H115.014V394.761H113.273C112.766 394.761 112.416 394.844 112.222 395.011C112.038 395.178 111.946 395.387 111.946 395.637C111.946 395.915 112.052 396.137 112.264 396.304C112.485 396.462 112.784 396.54 113.162 396.54C113.521 396.54 113.844 396.457 114.13 396.29C114.415 396.114 114.623 395.859 114.752 395.526L115.083 396.526C114.927 397.008 114.641 397.374 114.226 397.625C113.812 397.875 113.277 398 112.623 398ZM118.86 397.889V390.41H120.919V392.523L120.629 391.911C120.85 391.383 121.205 390.984 121.693 390.716C122.182 390.438 122.776 390.299 123.476 390.299V392.3C123.384 392.291 123.301 392.286 123.227 392.286C123.154 392.277 123.075 392.273 122.992 392.273C122.403 392.273 121.924 392.444 121.555 392.787C121.196 393.121 121.016 393.644 121.016 394.358V397.889H118.86ZM124.772 397.889V390.41H126.928V397.889H124.772ZM125.85 389.367C125.454 389.367 125.132 389.251 124.882 389.02C124.634 388.788 124.509 388.501 124.509 388.158C124.509 387.815 124.634 387.527 124.882 387.296C125.132 387.064 125.454 386.948 125.85 386.948C126.247 386.948 126.569 387.059 126.818 387.282C127.067 387.495 127.191 387.773 127.191 388.116C127.191 388.477 127.067 388.779 126.818 389.02C126.578 389.251 126.256 389.367 125.85 389.367ZM132.468 398C131.676 398 130.971 397.833 130.353 397.5C129.745 397.166 129.261 396.712 128.902 396.137C128.552 395.553 128.377 394.891 128.377 394.149C128.377 393.399 128.552 392.736 128.902 392.161C129.261 391.577 129.745 391.123 130.353 390.799C130.971 390.465 131.676 390.299 132.468 390.299C133.251 390.299 133.952 390.465 134.569 390.799C135.187 391.123 135.67 391.573 136.021 392.147C136.371 392.722 136.546 393.389 136.546 394.149C136.546 394.891 136.371 395.553 136.021 396.137C135.67 396.712 135.187 397.166 134.569 397.5C133.952 397.833 133.251 398 132.468 398ZM132.468 396.221C132.828 396.221 133.15 396.137 133.436 395.97C133.721 395.804 133.947 395.567 134.113 395.261C134.279 394.946 134.362 394.576 134.362 394.149C134.362 393.714 134.279 393.343 134.113 393.037C133.947 392.731 133.721 392.495 133.436 392.328C133.15 392.161 132.828 392.078 132.468 392.078C132.109 392.078 131.786 392.161 131.501 392.328C131.215 392.495 130.985 392.731 130.809 393.037C130.644 393.343 130.561 393.714 130.561 394.149C130.561 394.576 130.644 394.946 130.809 395.261C130.985 395.567 131.215 395.804 131.501 395.97C131.786 396.137 132.109 396.221 132.468 396.221ZM140.489 398C139.853 398 139.24 397.926 138.651 397.778C138.07 397.62 137.609 397.425 137.268 397.194L137.987 395.637C138.328 395.85 138.729 396.026 139.19 396.165C139.66 396.295 140.12 396.36 140.572 396.36C141.07 396.36 141.42 396.299 141.623 396.179C141.834 396.058 141.94 395.892 141.94 395.678C141.94 395.502 141.858 395.373 141.692 395.289C141.535 395.197 141.323 395.127 141.056 395.081C140.789 395.034 140.494 394.988 140.171 394.942C139.858 394.895 139.54 394.835 139.217 394.761C138.895 394.678 138.6 394.557 138.333 394.399C138.066 394.242 137.849 394.029 137.683 393.76C137.526 393.491 137.448 393.144 137.448 392.717C137.448 392.245 137.582 391.828 137.849 391.466C138.125 391.105 138.522 390.822 139.038 390.618C139.554 390.405 140.171 390.299 140.89 390.299C141.397 390.299 141.913 390.354 142.438 390.465C142.963 390.577 143.401 390.739 143.751 390.952L143.032 392.495C142.673 392.282 142.309 392.138 141.94 392.064C141.581 391.981 141.231 391.939 140.89 391.939C140.411 391.939 140.061 392.004 139.839 392.134C139.618 392.263 139.508 392.43 139.508 392.634C139.508 392.819 139.586 392.958 139.743 393.051C139.909 393.144 140.125 393.218 140.392 393.273C140.66 393.329 140.95 393.38 141.263 393.426C141.586 393.463 141.908 393.524 142.231 393.607C142.553 393.69 142.844 393.811 143.102 393.969C143.369 394.117 143.585 394.325 143.751 394.594C143.917 394.854 144 395.197 144 395.623C144 396.086 143.862 396.499 143.585 396.86C143.309 397.212 142.908 397.49 142.383 397.694C141.867 397.898 141.236 398 140.489 398Z" fill="#87549F"/>
<path d="M219.253 479.202C218.504 479.202 217.807 479.08 217.16 478.837C216.522 478.585 215.968 478.23 215.497 477.772C215.026 477.314 214.656 476.776 214.388 476.159C214.129 475.542 214 474.865 214 474.126C214 473.388 214.129 472.711 214.388 472.094C214.656 471.477 215.026 470.939 215.497 470.481C215.977 470.023 216.536 469.673 217.174 469.43C217.811 469.178 218.509 469.051 219.267 469.051C220.107 469.051 220.865 469.201 221.54 469.5C222.223 469.79 222.796 470.22 223.258 470.79L221.817 472.136C221.484 471.753 221.114 471.467 220.708 471.281C220.301 471.084 219.858 470.986 219.377 470.986C218.925 470.986 218.509 471.061 218.13 471.21C217.751 471.36 217.423 471.575 217.146 471.855C216.869 472.136 216.652 472.468 216.495 472.851C216.347 473.234 216.273 473.659 216.273 474.126C216.273 474.594 216.347 475.019 216.495 475.402C216.652 475.785 216.869 476.117 217.146 476.398C217.423 476.678 217.751 476.893 218.13 477.042C218.509 477.192 218.925 477.267 219.377 477.267C219.858 477.267 220.301 477.173 220.708 476.986C221.114 476.79 221.484 476.496 221.817 476.103L223.258 477.449C222.796 478.019 222.223 478.454 221.54 478.753C220.865 479.052 220.103 479.202 219.253 479.202ZM229.154 479.033V477.561L229.016 477.239V474.603C229.016 474.136 228.873 473.771 228.586 473.51C228.309 473.248 227.879 473.117 227.297 473.117C226.9 473.117 226.507 473.183 226.119 473.313C225.74 473.435 225.417 473.603 225.149 473.818L224.373 472.29C224.78 472 225.269 471.776 225.842 471.617C226.415 471.458 226.997 471.379 227.588 471.379C228.725 471.379 229.607 471.65 230.235 472.192C230.864 472.734 231.178 473.58 231.178 474.729V479.033H229.154ZM226.882 479.145C226.299 479.145 225.8 479.047 225.385 478.851C224.969 478.645 224.65 478.37 224.428 478.024C224.207 477.678 224.096 477.29 224.096 476.86C224.096 476.412 224.202 476.019 224.415 475.683C224.636 475.346 224.983 475.084 225.454 474.898C225.925 474.701 226.54 474.603 227.297 474.603H229.279V475.879H227.533C227.025 475.879 226.674 475.963 226.48 476.131C226.295 476.299 226.202 476.51 226.202 476.762C226.202 477.043 226.309 477.267 226.521 477.435C226.743 477.594 227.043 477.673 227.422 477.673C227.782 477.673 228.106 477.589 228.392 477.421C228.679 477.243 228.887 476.986 229.016 476.65L229.349 477.659C229.191 478.145 228.905 478.515 228.489 478.767C228.073 479.019 227.538 479.145 226.882 479.145ZM242.684 471.379C243.276 471.379 243.798 471.5 244.25 471.743C244.712 471.977 245.073 472.341 245.331 472.837C245.599 473.323 245.733 473.949 245.733 474.715V479.033H243.571V475.052C243.571 474.444 243.447 473.996 243.197 473.706C242.948 473.416 242.597 473.271 242.144 473.271C241.83 473.271 241.548 473.346 241.298 473.496C241.049 473.636 240.855 473.851 240.716 474.141C240.578 474.43 240.508 474.799 240.508 475.248V479.033H238.346V475.052C238.346 474.444 238.222 473.996 237.972 473.706C237.732 473.416 237.385 473.271 236.933 473.271C236.619 473.271 236.337 473.346 236.087 473.496C235.838 473.636 235.644 473.851 235.505 474.141C235.367 474.43 235.297 474.799 235.297 475.248V479.033H233.135V471.491H235.2V473.552L234.812 472.949C235.071 472.435 235.436 472.047 235.907 471.785C236.388 471.514 236.933 471.379 237.542 471.379C238.226 471.379 238.822 471.556 239.33 471.911C239.848 472.257 240.19 472.79 240.356 473.51L239.594 473.299C239.843 472.711 240.24 472.243 240.786 471.897C241.34 471.552 241.973 471.379 242.684 471.379ZM252.079 479.145C251.423 479.145 250.859 479.005 250.388 478.725C249.917 478.444 249.556 478.019 249.307 477.449C249.057 476.87 248.933 476.141 248.933 475.262C248.933 474.374 249.062 473.645 249.321 473.075C249.589 472.505 249.958 472.08 250.429 471.799C250.901 471.519 251.45 471.379 252.079 471.379C252.781 471.379 253.409 471.538 253.964 471.855C254.527 472.173 254.971 472.622 255.294 473.201C255.627 473.781 255.793 474.468 255.793 475.262C255.793 476.047 255.627 476.729 255.294 477.309C254.971 477.888 254.527 478.342 253.964 478.669C253.409 478.987 252.781 479.145 252.079 479.145ZM247.671 479.033V468.631H249.833V473.019L249.695 475.248L249.736 477.491V479.033H247.671ZM251.704 477.351C252.065 477.351 252.384 477.267 252.661 477.099C252.947 476.93 253.174 476.692 253.34 476.384C253.515 476.066 253.603 475.692 253.603 475.262C253.603 474.823 253.515 474.449 253.34 474.141C253.174 473.832 252.947 473.594 252.661 473.426C252.384 473.257 252.065 473.173 251.704 473.173C251.344 473.173 251.021 473.257 250.734 473.426C250.448 473.594 250.221 473.832 250.055 474.141C249.889 474.449 249.806 474.823 249.806 475.262C249.806 475.692 249.889 476.066 250.055 476.384C250.221 476.692 250.448 476.93 250.734 477.099C251.021 477.267 251.344 477.351 251.704 477.351ZM257.24 479.033V471.491H259.402V479.033H257.24ZM258.321 470.439C257.923 470.439 257.6 470.323 257.351 470.089C257.101 469.855 256.976 469.566 256.976 469.22C256.976 468.874 257.101 468.584 257.351 468.35C257.6 468.117 257.923 468 258.321 468C258.718 468 259.041 468.112 259.291 468.336C259.54 468.551 259.665 468.832 259.665 469.178C259.665 469.542 259.54 469.846 259.291 470.089C259.051 470.323 258.727 470.439 258.321 470.439ZM265.982 479.033V477.561L265.843 477.239V474.603C265.843 474.136 265.7 473.771 265.414 473.51C265.137 473.248 264.707 473.117 264.125 473.117C263.727 473.117 263.335 473.183 262.947 473.313C262.568 473.435 262.245 473.603 261.977 473.818L261.2 472.29C261.607 472 262.097 471.776 262.67 471.617C263.242 471.458 263.824 471.379 264.416 471.379C265.552 471.379 266.435 471.65 267.063 472.192C267.691 472.734 268.005 473.58 268.005 474.729V479.033H265.982ZM263.709 479.145C263.127 479.145 262.628 479.047 262.212 478.851C261.796 478.645 261.478 478.37 261.256 478.024C261.034 477.678 260.923 477.29 260.923 476.86C260.923 476.412 261.03 476.019 261.242 475.683C261.464 475.346 261.81 475.084 262.281 474.898C262.753 474.701 263.367 474.603 264.125 474.603H266.107V475.879H264.36C263.852 475.879 263.501 475.963 263.307 476.131C263.122 476.299 263.03 476.51 263.03 476.762C263.03 477.043 263.136 477.267 263.349 477.435C263.57 477.594 263.871 477.673 264.25 477.673C264.61 477.673 264.933 477.589 265.22 477.421C265.506 477.243 265.714 476.986 265.843 476.65L266.176 477.659C266.019 478.145 265.732 478.515 265.317 478.767C264.901 479.019 264.365 479.145 263.709 479.145ZM273.887 479.033V468.631H276.049V479.033H273.887ZM281.604 479.145C280.809 479.145 280.102 478.977 279.483 478.641C278.873 478.304 278.388 477.846 278.028 477.267C277.677 476.678 277.501 476.01 277.501 475.262C277.501 474.505 277.677 473.837 278.028 473.257C278.388 472.668 278.873 472.211 279.483 471.883C280.102 471.547 280.809 471.379 281.604 471.379C282.389 471.379 283.091 471.547 283.71 471.883C284.329 472.211 284.815 472.664 285.166 473.243C285.517 473.823 285.692 474.496 285.692 475.262C285.692 476.01 285.517 476.678 285.166 477.267C284.815 477.846 284.329 478.304 283.71 478.641C283.091 478.977 282.389 479.145 281.604 479.145ZM281.604 477.351C281.964 477.351 282.287 477.267 282.574 477.099C282.86 476.93 283.087 476.692 283.253 476.384C283.419 476.066 283.502 475.692 283.502 475.262C283.502 474.823 283.419 474.449 283.253 474.141C283.087 473.832 282.86 473.594 282.574 473.426C282.287 473.257 281.964 473.173 281.604 473.173C281.243 473.173 280.92 473.257 280.634 473.426C280.347 473.594 280.116 473.832 279.941 474.141C279.774 474.449 279.691 474.823 279.691 475.262C279.691 475.692 279.774 476.066 279.941 476.384C280.116 476.692 280.347 476.93 280.634 477.099C280.92 477.267 281.243 477.351 281.604 477.351ZM289.646 479.145C289.009 479.145 288.394 479.071 287.803 478.921C287.221 478.762 286.759 478.566 286.417 478.332L287.138 476.762C287.479 476.977 287.881 477.155 288.343 477.295C288.814 477.426 289.276 477.491 289.729 477.491C290.228 477.491 290.579 477.43 290.783 477.309C290.995 477.187 291.101 477.019 291.101 476.804C291.101 476.627 291.018 476.496 290.852 476.412C290.695 476.318 290.482 476.248 290.214 476.201C289.946 476.155 289.651 476.108 289.327 476.061C289.013 476.014 288.694 475.954 288.371 475.879C288.048 475.795 287.752 475.673 287.484 475.514C287.216 475.356 286.999 475.141 286.833 474.87C286.676 474.598 286.597 474.248 286.597 473.818C286.597 473.341 286.731 472.921 286.999 472.556C287.276 472.192 287.673 471.907 288.191 471.701C288.708 471.486 289.327 471.379 290.048 471.379C290.556 471.379 291.074 471.435 291.6 471.547C292.127 471.659 292.566 471.823 292.917 472.038L292.196 473.594C291.836 473.379 291.471 473.234 291.101 473.159C290.741 473.075 290.39 473.033 290.048 473.033C289.568 473.033 289.216 473.098 288.995 473.229C288.773 473.36 288.662 473.528 288.662 473.734C288.662 473.921 288.741 474.061 288.898 474.155C289.064 474.248 289.281 474.323 289.549 474.379C289.817 474.435 290.108 474.486 290.422 474.533C290.746 474.57 291.069 474.631 291.392 474.715C291.716 474.799 292.007 474.921 292.265 475.08C292.533 475.229 292.751 475.44 292.917 475.711C293.083 475.972 293.166 476.318 293.166 476.748C293.166 477.215 293.028 477.631 292.751 477.996C292.473 478.351 292.071 478.631 291.545 478.837C291.027 479.043 290.394 479.145 289.646 479.145ZM298.426 479.033V468.631H300.588V479.033H298.426ZM305.741 479.145C305.122 479.145 304.567 479.024 304.078 478.781C303.597 478.538 303.223 478.169 302.955 477.673C302.687 477.169 302.553 476.528 302.553 475.753V471.491H304.715V475.43C304.715 476.057 304.844 476.519 305.103 476.818C305.371 477.108 305.745 477.253 306.226 477.253C306.558 477.253 306.854 477.183 307.113 477.042C307.371 476.893 307.575 476.669 307.723 476.37C307.87 476.061 307.944 475.678 307.944 475.22V471.491H310.106V479.033H308.055V476.958L308.429 477.561C308.18 478.085 307.81 478.482 307.321 478.753C306.84 479.015 306.313 479.145 305.741 479.145ZM315.615 481.865C314.913 481.865 314.234 481.776 313.578 481.599C312.931 481.431 312.391 481.174 311.957 480.828L312.816 479.258C313.13 479.519 313.527 479.725 314.008 479.874C314.497 480.033 314.978 480.113 315.449 480.113C316.216 480.113 316.77 479.94 317.112 479.594C317.463 479.248 317.639 478.734 317.639 478.052V476.916L317.778 475.024L317.75 473.117V471.491H319.801V477.772C319.801 479.173 319.441 480.206 318.72 480.87C317.999 481.533 316.964 481.865 315.615 481.865ZM315.283 478.669C314.59 478.669 313.962 478.519 313.398 478.22C312.844 477.912 312.395 477.486 312.054 476.944C311.721 476.393 311.555 475.753 311.555 475.024C311.555 474.285 311.721 473.645 312.054 473.103C312.395 472.552 312.844 472.126 313.398 471.827C313.962 471.528 314.59 471.379 315.283 471.379C315.911 471.379 316.466 471.51 316.946 471.771C317.426 472.024 317.801 472.421 318.069 472.963C318.337 473.496 318.471 474.183 318.471 475.024C318.471 475.856 318.337 476.542 318.069 477.085C317.801 477.617 317.426 478.015 316.946 478.276C316.466 478.538 315.911 478.669 315.283 478.669ZM315.712 476.874C316.091 476.874 316.429 476.8 316.724 476.65C317.02 476.491 317.251 476.271 317.417 475.991C317.583 475.711 317.667 475.388 317.667 475.024C317.667 474.65 317.583 474.327 317.417 474.056C317.251 473.776 317.02 473.561 316.724 473.411C316.429 473.253 316.091 473.173 315.712 473.173C315.334 473.173 314.996 473.253 314.701 473.411C314.405 473.561 314.169 473.776 313.994 474.056C313.828 474.327 313.744 474.65 313.744 475.024C313.744 475.388 313.828 475.711 313.994 475.991C314.169 476.271 314.405 476.491 314.701 476.65C314.996 476.8 315.334 476.874 315.712 476.874ZM326.387 479.033V477.561L326.249 477.239V474.603C326.249 474.136 326.105 473.771 325.819 473.51C325.542 473.248 325.112 473.117 324.53 473.117C324.133 473.117 323.74 473.183 323.352 473.313C322.973 473.435 322.65 473.603 322.382 473.818L321.606 472.29C322.012 472 322.502 471.776 323.075 471.617C323.648 471.458 324.23 471.379 324.821 471.379C325.958 471.379 326.84 471.65 327.468 472.192C328.097 472.734 328.411 473.58 328.411 474.729V479.033H326.387ZM324.114 479.145C323.532 479.145 323.033 479.047 322.618 478.851C322.202 478.645 321.883 478.37 321.661 478.024C321.439 477.678 321.329 477.29 321.329 476.86C321.329 476.412 321.435 476.019 321.647 475.683C321.869 475.346 322.216 475.084 322.687 474.898C323.158 474.701 323.772 474.603 324.53 474.603H326.512V475.879H324.766C324.258 475.879 323.906 475.963 323.712 476.131C323.528 476.299 323.435 476.51 323.435 476.762C323.435 477.043 323.541 477.267 323.754 477.435C323.976 477.594 324.276 477.673 324.655 477.673C325.015 477.673 325.339 477.589 325.625 477.421C325.911 477.243 326.119 476.986 326.249 476.65L326.581 477.659C326.424 478.145 326.138 478.515 325.722 478.767C325.306 479.019 324.77 479.145 324.114 479.145ZM330.367 479.033V471.491H332.432V473.622L332.141 473.005C332.363 472.472 332.719 472.07 333.208 471.799C333.698 471.519 334.294 471.379 334.996 471.379V473.397C334.904 473.388 334.821 473.383 334.747 473.383C334.673 473.374 334.594 473.369 334.511 473.369C333.92 473.369 333.439 473.542 333.07 473.888C332.709 474.225 332.529 474.753 332.529 475.472V479.033H330.367ZM339.928 479.145C339.078 479.145 338.329 478.977 337.683 478.641C337.045 478.304 336.551 477.846 336.2 477.267C335.849 476.678 335.673 476.01 335.673 475.262C335.673 474.505 335.844 473.837 336.186 473.257C336.537 472.668 337.013 472.211 337.613 471.883C338.214 471.547 338.893 471.379 339.651 471.379C340.381 471.379 341.037 471.538 341.619 471.855C342.21 472.164 342.677 472.612 343.019 473.201C343.36 473.781 343.531 474.477 343.531 475.29C343.531 475.374 343.527 475.472 343.517 475.585C343.508 475.687 343.499 475.785 343.49 475.879H337.433V474.603H342.353L341.522 474.982C341.522 474.589 341.443 474.248 341.286 473.958C341.129 473.669 340.912 473.444 340.635 473.285C340.358 473.117 340.034 473.033 339.665 473.033C339.295 473.033 338.967 473.117 338.681 473.285C338.403 473.444 338.186 473.673 338.029 473.972C337.872 474.262 337.794 474.608 337.794 475.01V475.346C337.794 475.757 337.881 476.122 338.057 476.44C338.242 476.748 338.496 476.986 338.819 477.155C339.152 477.314 339.54 477.393 339.983 477.393C340.381 477.393 340.727 477.332 341.023 477.211C341.328 477.089 341.605 476.907 341.854 476.664L343.005 477.926C342.663 478.318 342.233 478.622 341.716 478.837C341.198 479.043 340.602 479.145 339.928 479.145ZM347.48 479.145C346.842 479.145 346.228 479.071 345.636 478.921C345.054 478.762 344.592 478.566 344.25 478.332L344.971 476.762C345.313 476.977 345.715 477.155 346.177 477.295C346.648 477.426 347.11 477.491 347.563 477.491C348.062 477.491 348.413 477.43 348.616 477.309C348.829 477.187 348.935 477.019 348.935 476.804C348.935 476.627 348.852 476.496 348.686 476.412C348.528 476.318 348.316 476.248 348.048 476.201C347.78 476.155 347.484 476.108 347.161 476.061C346.847 476.014 346.528 475.954 346.205 475.879C345.881 475.795 345.586 475.673 345.318 475.514C345.05 475.356 344.833 475.141 344.666 474.87C344.509 474.598 344.431 474.248 344.431 473.818C344.431 473.341 344.565 472.921 344.833 472.556C345.11 472.192 345.507 471.907 346.024 471.701C346.542 471.486 347.161 471.379 347.882 471.379C348.39 471.379 348.907 471.435 349.434 471.547C349.961 471.659 350.399 471.823 350.751 472.038L350.03 473.594C349.67 473.379 349.305 473.234 348.935 473.159C348.575 473.075 348.224 473.033 347.882 473.033C347.401 473.033 347.05 473.098 346.828 473.229C346.607 473.36 346.496 473.528 346.496 473.734C346.496 473.921 346.574 474.061 346.731 474.155C346.898 474.248 347.115 474.323 347.383 474.379C347.651 474.435 347.942 474.486 348.256 474.533C348.579 474.57 348.903 474.631 349.226 474.715C349.549 474.799 349.84 474.921 350.099 475.08C350.367 475.229 350.584 475.44 350.751 475.711C350.917 475.972 351 476.318 351 476.748C351 477.215 350.861 477.631 350.584 477.996C350.307 478.351 349.905 478.631 349.378 478.837C348.861 479.043 348.228 479.145 347.48 479.145ZM247.963 499C247.261 499 246.582 498.911 245.926 498.734C245.279 498.565 244.739 498.308 244.304 497.963L245.164 496.392C245.478 496.654 245.875 496.86 246.356 497.009C246.845 497.168 247.326 497.248 247.797 497.248C248.564 497.248 249.118 497.075 249.46 496.729C249.811 496.383 249.987 495.869 249.987 495.187V494.051L250.125 492.159L250.098 490.252V488.626H252.149V494.906C252.149 496.308 251.788 497.341 251.068 498.005C250.347 498.668 249.312 499 247.963 499ZM247.631 495.804C246.938 495.804 246.309 495.654 245.746 495.355C245.191 495.047 244.743 494.621 244.401 494.079C244.069 493.528 243.902 492.888 243.902 492.159C243.902 491.42 244.069 490.78 244.401 490.238C244.743 489.686 245.191 489.261 245.746 488.962C246.309 488.663 246.938 488.514 247.631 488.514C248.259 488.514 248.813 488.644 249.294 488.906C249.774 489.158 250.148 489.556 250.416 490.098C250.684 490.63 250.818 491.317 250.818 492.159C250.818 492.99 250.684 493.677 250.416 494.219C250.148 494.752 249.774 495.149 249.294 495.411C248.813 495.673 248.259 495.804 247.631 495.804ZM248.06 494.009C248.439 494.009 248.776 493.934 249.072 493.785C249.368 493.626 249.599 493.406 249.765 493.126C249.931 492.845 250.014 492.523 250.014 492.159C250.014 491.785 249.931 491.462 249.765 491.191C249.599 490.911 249.368 490.696 249.072 490.546C248.776 490.387 248.439 490.308 248.06 490.308C247.681 490.308 247.344 490.387 247.048 490.546C246.753 490.696 246.517 490.911 246.342 491.191C246.175 491.462 246.092 491.785 246.092 492.159C246.092 492.523 246.175 492.845 246.342 493.126C246.517 493.406 246.753 493.626 247.048 493.785C247.344 493.934 247.681 494.009 248.06 494.009ZM257.307 496.28C256.688 496.28 256.133 496.159 255.644 495.916C255.163 495.673 254.789 495.304 254.521 494.808C254.253 494.304 254.119 493.663 254.119 492.888V488.626H256.281V492.565C256.281 493.191 256.41 493.654 256.669 493.953C256.937 494.243 257.311 494.388 257.792 494.388C258.124 494.388 258.42 494.318 258.679 494.177C258.938 494.028 259.141 493.804 259.289 493.504C259.436 493.196 259.51 492.813 259.51 492.355V488.626H261.672V496.168H259.621V494.093L259.995 494.696C259.746 495.219 259.376 495.617 258.887 495.888C258.406 496.149 257.88 496.28 257.307 496.28ZM268.249 496.168V494.696L268.111 494.374V491.738C268.111 491.271 267.968 490.906 267.681 490.644C267.404 490.383 266.974 490.252 266.392 490.252C265.995 490.252 265.602 490.317 265.214 490.448C264.835 490.57 264.512 490.738 264.244 490.953L263.468 489.425C263.875 489.135 264.364 488.911 264.937 488.752C265.51 488.593 266.092 488.514 266.683 488.514C267.82 488.514 268.702 488.785 269.331 489.327C269.959 489.869 270.273 490.715 270.273 491.864V496.168H268.249ZM265.977 496.28C265.394 496.28 264.896 496.182 264.48 495.986C264.064 495.78 263.745 495.504 263.523 495.159C263.302 494.813 263.191 494.425 263.191 493.995C263.191 493.546 263.297 493.154 263.51 492.817C263.731 492.481 264.078 492.219 264.549 492.032C265.02 491.836 265.635 491.738 266.392 491.738H268.374V493.014H266.628C266.12 493.014 265.769 493.098 265.575 493.266C265.39 493.434 265.297 493.645 265.297 493.897C265.297 494.177 265.404 494.402 265.616 494.57C265.838 494.729 266.138 494.808 266.517 494.808C266.877 494.808 267.201 494.724 267.487 494.556C267.774 494.378 267.982 494.121 268.111 493.785L268.444 494.794C268.286 495.28 268 495.649 267.584 495.902C267.168 496.154 266.633 496.28 265.977 496.28ZM272.229 496.168V488.626H274.294V490.757L274.003 490.14C274.225 489.607 274.581 489.205 275.071 488.934C275.56 488.654 276.156 488.514 276.858 488.514V490.532C276.766 490.523 276.683 490.518 276.609 490.518C276.535 490.509 276.457 490.504 276.373 490.504C275.782 490.504 275.302 490.677 274.932 491.023C274.572 491.359 274.391 491.887 274.391 492.607V496.168H272.229ZM281.291 496.28C280.589 496.28 279.956 496.121 279.392 495.804C278.829 495.476 278.381 495.023 278.048 494.444C277.725 493.864 277.563 493.182 277.563 492.397C277.563 491.602 277.725 490.916 278.048 490.336C278.381 489.757 278.829 489.308 279.392 488.99C279.956 488.672 280.589 488.514 281.291 488.514C281.919 488.514 282.469 488.654 282.94 488.934C283.412 489.214 283.777 489.64 284.035 490.21C284.294 490.78 284.423 491.509 284.423 492.397C284.423 493.275 284.299 494.004 284.049 494.584C283.8 495.154 283.439 495.579 282.968 495.86C282.506 496.14 281.947 496.28 281.291 496.28ZM281.665 494.486C282.016 494.486 282.335 494.402 282.622 494.233C282.908 494.065 283.134 493.827 283.301 493.518C283.476 493.201 283.564 492.827 283.564 492.397C283.564 491.958 283.476 491.584 283.301 491.275C283.134 490.967 282.908 490.729 282.622 490.56C282.335 490.392 282.016 490.308 281.665 490.308C281.305 490.308 280.982 490.392 280.695 490.56C280.409 490.729 280.178 490.967 280.002 491.275C279.836 491.584 279.753 491.958 279.753 492.397C279.753 492.827 279.836 493.201 280.002 493.518C280.178 493.827 280.409 494.065 280.695 494.233C280.982 494.402 281.305 494.486 281.665 494.486ZM283.62 496.168V494.626L283.661 492.383L283.523 490.154V485.766H285.685V496.168H283.62ZM292.259 496.168V494.696L292.121 494.374V491.738C292.121 491.271 291.978 490.906 291.691 490.644C291.414 490.383 290.984 490.252 290.402 490.252C290.005 490.252 289.612 490.317 289.224 490.448C288.845 490.57 288.522 490.738 288.254 490.953L287.478 489.425C287.884 489.135 288.374 488.911 288.947 488.752C289.52 488.593 290.102 488.514 290.693 488.514C291.83 488.514 292.712 488.785 293.34 489.327C293.969 489.869 294.283 490.715 294.283 491.864V496.168H292.259ZM289.986 496.28C289.404 496.28 288.905 496.182 288.49 495.986C288.074 495.78 287.755 495.504 287.533 495.159C287.312 494.813 287.201 494.425 287.201 493.995C287.201 493.546 287.307 493.154 287.519 492.817C287.741 492.481 288.088 492.219 288.559 492.032C289.03 491.836 289.645 491.738 290.402 491.738H292.384V493.014H290.638C290.13 493.014 289.779 493.098 289.584 493.266C289.4 493.434 289.307 493.645 289.307 493.897C289.307 494.177 289.414 494.402 289.626 494.57C289.848 494.729 290.148 494.808 290.527 494.808C290.887 494.808 291.211 494.724 291.497 494.556C291.783 494.378 291.991 494.121 292.121 493.785L292.453 494.794C292.296 495.28 292.01 495.649 291.594 495.902C291.178 496.154 290.642 496.28 289.986 496.28ZM299.495 496.28C298.793 496.28 298.16 496.121 297.597 495.804C297.033 495.476 296.585 495.023 296.252 494.444C295.929 493.864 295.767 493.182 295.767 492.397C295.767 491.602 295.929 490.916 296.252 490.336C296.585 489.757 297.033 489.308 297.597 488.99C298.16 488.672 298.793 488.514 299.495 488.514C300.124 488.514 300.674 488.654 301.145 488.934C301.616 489.214 301.981 489.64 302.24 490.21C302.498 490.78 302.628 491.509 302.628 492.397C302.628 493.275 302.503 494.004 302.253 494.584C302.004 495.154 301.644 495.579 301.172 495.86C300.71 496.14 300.151 496.28 299.495 496.28ZM299.87 494.486C300.221 494.486 300.54 494.402 300.826 494.233C301.112 494.065 301.339 493.827 301.505 493.518C301.681 493.201 301.768 492.827 301.768 492.397C301.768 491.958 301.681 491.584 301.505 491.275C301.339 490.967 301.112 490.729 300.826 490.56C300.54 490.392 300.221 490.308 299.87 490.308C299.509 490.308 299.186 490.392 298.9 490.56C298.613 490.729 298.382 490.967 298.207 491.275C298.04 491.584 297.957 491.958 297.957 492.397C297.957 492.827 298.04 493.201 298.207 493.518C298.382 493.827 298.613 494.065 298.9 494.233C299.186 494.402 299.509 494.486 299.87 494.486ZM301.824 496.168V494.626L301.865 492.383L301.727 490.154V485.766H303.889V496.168H301.824ZM309.438 496.28C308.643 496.28 307.937 496.112 307.318 495.776C306.708 495.439 306.223 494.981 305.862 494.402C305.511 493.813 305.336 493.145 305.336 492.397C305.336 491.64 305.511 490.972 305.862 490.392C306.223 489.803 306.708 489.345 307.318 489.018C307.937 488.682 308.643 488.514 309.438 488.514C310.223 488.514 310.926 488.682 311.545 489.018C312.164 489.345 312.649 489.799 313 490.378C313.351 490.958 313.527 491.63 313.527 492.397C313.527 493.145 313.351 493.813 313 494.402C312.649 494.981 312.164 495.439 311.545 495.776C310.926 496.112 310.223 496.28 309.438 496.28ZM309.438 494.486C309.798 494.486 310.122 494.402 310.408 494.233C310.695 494.065 310.921 493.827 311.087 493.518C311.254 493.201 311.337 492.827 311.337 492.397C311.337 491.958 311.254 491.584 311.087 491.275C310.921 490.967 310.695 490.729 310.408 490.56C310.122 490.392 309.798 490.308 309.438 490.308C309.078 490.308 308.754 490.392 308.468 490.56C308.181 490.729 307.95 490.967 307.775 491.275C307.609 491.584 307.525 491.958 307.525 492.397C307.525 492.827 307.609 493.201 307.775 493.518C307.95 493.827 308.181 494.065 308.468 494.233C308.754 494.402 309.078 494.486 309.438 494.486ZM317.48 496.28C316.843 496.28 316.228 496.205 315.637 496.056C315.055 495.897 314.593 495.701 314.251 495.467L314.972 493.897C315.314 494.112 315.716 494.289 316.178 494.43C316.649 494.561 317.111 494.626 317.563 494.626C318.062 494.626 318.414 494.565 318.617 494.444C318.829 494.322 318.936 494.154 318.936 493.939C318.936 493.761 318.852 493.631 318.686 493.546C318.529 493.453 318.317 493.383 318.049 493.336C317.781 493.289 317.485 493.243 317.162 493.196C316.847 493.149 316.529 493.089 316.205 493.014C315.882 492.93 315.586 492.808 315.318 492.649C315.05 492.49 314.833 492.275 314.667 492.004C314.51 491.733 314.431 491.383 314.431 490.953C314.431 490.476 314.565 490.056 314.833 489.691C315.11 489.327 315.508 489.042 316.025 488.836C316.543 488.621 317.162 488.514 317.882 488.514C318.39 488.514 318.908 488.57 319.434 488.682C319.961 488.794 320.4 488.957 320.751 489.172L320.03 490.729C319.67 490.514 319.305 490.369 318.936 490.294C318.575 490.21 318.224 490.168 317.882 490.168C317.402 490.168 317.051 490.233 316.829 490.364C316.607 490.495 316.496 490.663 316.496 490.869C316.496 491.056 316.575 491.196 316.732 491.289C316.898 491.383 317.115 491.458 317.383 491.514C317.651 491.57 317.942 491.621 318.256 491.668C318.58 491.705 318.903 491.766 319.227 491.85C319.55 491.934 319.841 492.056 320.1 492.215C320.368 492.364 320.585 492.574 320.751 492.846C320.917 493.107 321.001 493.453 321.001 493.883C321.001 494.35 320.862 494.766 320.585 495.131C320.308 495.486 319.906 495.766 319.379 495.972C318.862 496.177 318.229 496.28 317.48 496.28Z" fill="#87549F"/>
</g>
</g>
<defs>
<clipPath id="clip0_777_4716">
<rect width="360" height="634" fill="white"/>
</clipPath>
</defs>
</svg>
