<svg width="18" height="18" viewBox="0 0 18 18" fill="none" xmlns="http://www.w3.org/2000/svg">
<g clip-path="url(#clip0_313_6138)">
<path d="M10.125 0H12.3525C12.5145 0.804375 12.96 1.81913 13.7419 2.826C14.5069 3.81263 15.5216 4.5 16.875 4.5V6.75C14.9029 6.75 13.4213 5.83425 12.375 4.69238V12.375C12.375 13.4875 12.0451 14.5751 11.427 15.5001C10.8089 16.4251 9.93043 17.1461 8.9026 17.5718C7.87476 17.9976 6.74376 18.109 5.65262 17.8919C4.56148 17.6749 3.5592 17.1391 2.77253 16.3525C1.98586 15.5658 1.45013 14.5635 1.23309 13.4724C1.01604 12.3812 1.12744 11.2502 1.55318 10.2224C1.97892 9.19457 2.69989 8.31607 3.62492 7.69798C4.54995 7.0799 5.63748 6.75 6.75 6.75V9C6.08249 9 5.42997 9.19794 4.87495 9.56879C4.31994 9.93964 3.88736 10.4667 3.63191 11.0834C3.37646 11.7001 3.30963 12.3787 3.43985 13.0334C3.57008 13.6881 3.89152 14.2895 4.36352 14.7615C4.83552 15.2335 5.43689 15.5549 6.09157 15.6852C6.74626 15.8154 7.42486 15.7485 8.04156 15.4931C8.65826 15.2376 9.18536 14.8051 9.55621 14.2501C9.92706 13.695 10.125 13.0425 10.125 12.375V0Z" fill="white"/>
</g>
<defs>
<clipPath id="clip0_313_6138">
<rect width="18" height="18" fill="white"/>
</clipPath>
</defs>
</svg>
