<svg width="357" height="357" viewBox="0 0 357 357" fill="none" xmlns="http://www.w3.org/2000/svg">
<path d="M55.0282 318.165C55.6494 315.709 54.0286 313.252 52.215 311.482C50.4015 309.711 48.2309 308.133 47.2813 305.77C45.739 301.964 47.7525 297.009 45.1393 293.846C43.6042 291.982 40.8553 291.368 39.4987 289.376C38.8675 288.273 38.4462 287.063 38.2563 285.806C36.7774 279.482 33.6258 273.672 29.1314 268.984C28.8644 274.631 30.1196 280.246 32.7657 285.242C33.8295 287.241 35.129 289.183 35.4931 291.411C36.0786 295.038 34.0651 298.78 34.9862 302.335C36.0286 306.405 40.6197 309.104 40.8624 313.295C41.0623 316.865 38.0064 319.964 38.242 323.505C38.4316 325.019 38.9799 326.466 39.8414 327.725C42.6117 332.266 46.653 335.379 52.7505 335.244L60.2261 335.465L55.0282 318.165Z" fill="#F5F5F5"/>
<path d="M61.7396 335.623C62.423 335.725 63.1192 335.705 63.7959 335.566C64.6235 335.439 65.4366 335.23 66.2235 334.944C67.3057 334.559 68.3167 333.997 69.2152 333.281C69.7498 332.838 70.1688 332.272 70.4361 331.631C70.6585 330.907 70.7716 330.154 70.7717 329.397C70.7816 328.587 70.8365 327.779 70.9359 326.976C71.0775 326.123 71.3831 325.306 71.8355 324.57C72.7066 323.013 74.1632 321.543 74.6202 319.436C75.0771 317.33 74.7415 315.152 74.3845 312.889C74.0275 310.625 73.6705 308.212 74.5202 305.87C75.3699 303.528 76.9335 301.408 77.7332 298.766C78.5329 296.124 78.1402 293.247 78.2973 290.419C78.3421 288.986 78.6646 287.575 79.2469 286.264C79.8466 284.936 80.6749 283.686 81.3246 282.294C82.6312 279.438 82.8454 276.275 83.1953 273.148C83.3619 271.572 83.5309 269.98 83.7022 268.371C83.8055 266.753 84.0759 265.15 84.509 263.587C85.0019 262.009 85.5884 260.462 86.2655 258.953C86.618 258.172 86.9046 257.362 87.1223 256.533C87.2435 255.681 87.3198 254.823 87.3508 253.962C87.4208 252.234 87.3444 250.502 87.1223 248.786C86.9081 247.065 86.5868 245.359 86.4083 243.631C86.4083 243.524 86.4083 243.424 86.4083 243.331L86.3654 242.988L86.0584 243.145C84.4788 243.96 83.1081 245.128 82.0529 246.558C81.0293 247.96 80.2074 249.498 79.611 251.128C78.3829 254.348 77.9474 257.711 77.3405 260.931C76.7336 264.151 75.9125 267.307 74.3203 269.985C73.5063 271.32 72.5281 272.541 71.6642 273.84C70.7443 275.115 70.1199 276.578 69.8363 278.124C69.4079 281.287 71.1715 284.058 70.8217 286.856C70.6558 288.232 70.1982 289.556 69.4793 290.741C68.8082 291.94 68.0513 293.054 67.2659 294.168C66.4997 295.259 65.8353 296.418 65.281 297.631C64.761 298.817 64.4564 300.086 64.3814 301.379C64.2172 303.9 64.5884 306.292 64.4171 308.519C64.2206 310.67 63.6044 312.761 62.6035 314.674C61.711 316.516 60.7186 318.18 59.8832 319.8C59.4687 320.575 59.0945 321.371 58.7622 322.185C58.4681 322.951 58.2528 323.746 58.1196 324.556C57.9146 325.976 57.9146 327.419 58.1196 328.84C58.3206 330.811 59.0619 332.689 60.2616 334.266C60.4422 334.502 60.6455 334.72 60.8685 334.916C61.0166 335.072 61.1819 335.211 61.3612 335.33C61.6396 335.537 61.7896 335.63 61.7896 335.63C61.2656 335.204 60.7871 334.726 60.3616 334.202C59.2023 332.623 58.4918 330.761 58.3053 328.811C58.1273 327.413 58.1513 325.997 58.3766 324.606C58.5074 323.813 58.7253 323.037 59.0264 322.292C59.3588 321.488 59.7329 320.701 60.1474 319.936C60.9899 318.337 61.9966 316.673 62.9105 314.817C63.9413 312.873 64.5771 310.745 64.7812 308.555C64.9669 306.249 64.6027 303.857 64.7812 301.415C64.827 300.151 65.0978 298.906 65.5809 297.738C66.1335 296.551 66.7906 295.416 67.5444 294.346C68.2941 293.24 69.0938 292.126 69.7864 290.898C70.5457 289.668 71.0327 288.29 71.2144 286.856C71.5571 283.872 69.7864 281.087 70.2433 278.146C70.5219 276.669 71.1269 275.274 72.014 274.062C72.8566 272.783 73.849 271.563 74.6844 270.192C76.3623 267.436 77.1691 264.215 77.7689 260.988C78.3686 257.761 78.8185 254.419 80.0251 251.271C80.6064 249.683 81.4093 248.185 82.4099 246.822C83.4158 245.447 84.7286 244.325 86.2441 243.545L85.9013 243.352C85.9013 243.452 85.9013 243.552 85.9013 243.659C86.0941 245.402 86.4154 247.115 86.6153 248.815C86.8371 250.504 86.9136 252.21 86.8438 253.912C86.801 254.741 86.751 255.619 86.6296 256.404C86.4165 257.203 86.1395 257.984 85.8014 258.739C85.1187 260.265 84.525 261.829 84.0235 263.423C83.5868 265.012 83.314 266.641 83.2096 268.285C83.0453 269.899 82.874 271.491 82.7098 273.069C82.367 276.211 82.1528 279.352 80.8891 282.08C80.2679 283.436 79.4611 284.693 78.8256 286.057C78.2269 287.409 77.8948 288.863 77.8474 290.341C77.6975 293.197 78.0902 296.053 77.3262 298.602C76.5622 301.151 74.9486 303.278 74.1346 305.692C73.3207 308.105 73.6491 310.654 74.0204 312.889C74.3917 315.124 74.7701 317.323 74.2988 319.315C73.8276 321.307 72.4639 322.785 71.5714 324.377C71.1074 325.164 70.8063 326.035 70.686 326.94C70.5884 327.753 70.5384 328.571 70.5361 329.389C70.5398 330.114 70.4388 330.836 70.2362 331.531C69.9878 332.145 69.5902 332.688 69.0795 333.109C68.2059 333.821 67.2219 334.386 66.1664 334.78C65.3912 335.075 64.5905 335.297 63.7745 335.444C63.2726 335.536 62.7639 335.586 62.2537 335.594L61.7396 335.623Z" fill="#E0E0E0"/>
<path d="M84.8518 247.458C84.8147 247.527 84.7906 247.602 84.7804 247.679C84.7376 247.858 84.6876 248.079 84.6162 248.358C84.4734 248.943 84.302 249.836 84.0307 250.942C83.7594 252.049 83.074 253.313 82.5028 254.855C81.9316 256.397 81.3032 258.168 80.7535 260.167C80.2037 262.166 79.7039 264.38 79.1898 266.75C78.7463 269.284 77.9559 271.744 76.8407 274.062C76.2338 275.283 75.5484 276.518 75.0129 277.86C74.4833 279.238 74.1283 280.678 73.9562 282.144C73.5975 285.185 73.0779 288.205 72.3997 291.191L68.2727 308.484C66.9733 313.781 65.7952 318.558 64.8098 322.585C63.8245 326.612 63.0677 329.868 62.5179 332.117C62.2609 333.217 62.0609 334.08 61.9181 334.709C61.861 334.987 61.811 335.209 61.7753 335.423C61.7676 335.501 61.7676 335.58 61.7753 335.658C61.8116 335.589 61.8381 335.514 61.8539 335.437L62.0467 334.766C62.2109 334.145 62.4465 333.288 62.7607 332.196C63.3461 329.918 64.1887 326.691 65.2025 322.714C66.2164 318.737 67.4302 313.931 68.7725 308.641C70.1149 303.35 71.4001 297.445 72.8709 291.312C73.5492 288.314 74.0688 285.282 74.4274 282.23C74.5843 280.796 74.9226 279.387 75.4342 278.039C75.9554 276.725 76.6265 275.497 77.2334 274.269C78.3587 271.916 79.1471 269.416 79.5754 266.843C80.0752 264.466 80.5464 262.252 81.0819 260.267C81.6174 258.282 82.1815 256.497 82.7527 254.962C83.3239 253.427 83.945 252.149 84.1807 250.999C84.4163 249.85 84.5734 248.979 84.6876 248.379C84.7304 248.108 84.7661 247.879 84.8018 247.701C84.8286 247.622 84.8454 247.541 84.8518 247.458Z" fill="#E0E0E0"/>
<path d="M63.0606 335.636C67.9229 332.709 69.2724 323.891 67.2089 318.607C65.1454 313.324 61.554 308.49 60.9685 302.842C60.5187 298.501 61.9182 294.039 60.8829 289.797C59.4549 284.085 53.8642 279.666 53.8999 273.775C53.8999 270.469 55.7778 267.349 55.6064 264.051C55.3993 260.002 52.272 256.804 50.3299 253.248C47.3526 247.807 47.1241 241.331 46.0816 235.234C45.0392 229.136 42.6687 222.567 37.2209 219.59C36.4498 224.795 35.0789 228.365 35.5716 235.405C35.7429 237.933 38.706 242.759 39.1416 248.3C39.3986 251.606 39.5842 254.926 39.8056 258.239C40.0269 261.552 40.2411 264.75 41.4121 267.749C42.3117 270.055 43.7469 272.147 44.418 274.532C45.6818 279.016 44.0824 283.893 45.132 288.441C46.0031 292.289 48.702 295.581 49.2589 299.501C50.0586 304.991 46.5315 310.718 48.3807 315.923C49.3018 318.515 51.4509 320.592 52.0721 323.27C52.5576 325.355 52.0721 327.554 52.4934 329.653C53.2074 333.023 59.6334 335.601 63.082 335.365" fill="#E0E0E0"/>
<path d="M38.5989 224.745C38.5894 224.842 38.5894 224.941 38.5989 225.038C38.5989 225.259 38.6632 225.538 38.7132 225.895C38.8274 226.644 38.9631 227.744 39.2201 229.165C39.4771 230.586 40.2483 232.206 40.8552 234.163C41.4621 236.119 42.1189 238.34 42.683 240.839C43.2471 243.338 43.7326 246.108 44.2395 249.093C44.7465 252.077 45.2962 255.319 46.7956 258.417C47.5096 259.974 48.2665 261.53 48.852 263.187C49.4304 264.894 49.7926 266.666 49.9301 268.463C50.2198 272.266 50.7132 276.051 51.4081 279.802C52.9432 287.499 54.414 294.796 55.7421 301.5C57.0701 308.205 58.4338 314.159 59.4977 319.157C60.5616 324.155 61.4469 328.218 62.0538 331.06L62.7678 334.294C62.8535 334.637 62.9178 334.915 62.9677 335.13C62.9861 335.225 63.0148 335.319 63.0534 335.408C63.0613 335.311 63.0613 335.213 63.0534 335.115C63.0106 334.901 62.9606 334.623 62.8963 334.273C62.7464 333.494 62.5393 332.409 62.268 331.024C61.6968 328.168 60.84 324.105 59.8618 319.086C58.8837 314.067 57.5913 308.055 56.2276 301.4C54.8638 294.746 53.4573 287.406 51.9436 279.716C51.2447 275.97 50.7442 272.19 50.4442 268.392C50.3063 266.561 49.9368 264.754 49.3446 263.016C48.7449 261.316 47.9595 259.753 47.2597 258.21C45.7746 255.162 45.2391 251.97 44.6965 249C44.1538 246.029 43.6683 243.245 43.0757 240.739C42.5527 238.483 41.9165 236.255 41.1693 234.063C40.541 232.114 39.7413 230.493 39.47 229.122C39.1987 227.751 39.0202 226.609 38.8702 225.866C38.806 225.516 38.7489 225.238 38.7132 225.024C38.683 224.928 38.6447 224.835 38.5989 224.745Z" fill="#EBEBEB"/>
<path d="M150.161 39.4338C154.331 34.5715 165.155 37.6274 172.595 41.5758C172.595 41.5758 177.707 43.9892 179.607 45.2387H179.671L197.035 43.0967C198.447 42.9152 199.88 43.1641 201.148 43.8107L202.576 44.5247C202.737 44.6076 202.871 44.7345 202.963 44.8907C203.054 45.0468 203.1 45.2257 203.094 45.4067C203.088 45.5876 203.031 45.7631 202.929 45.9129C202.827 46.0626 202.685 46.1804 202.519 46.2525L189.731 51.7146V51.8717L202.355 60.1684L202.547 60.2898C204.928 61.8163 207.797 62.3875 210.58 61.8891L217.342 60.6753C217.683 60.6102 218.036 60.6398 218.363 60.761C218.636 60.8723 218.876 61.0523 219.06 61.2837C219.243 61.515 219.363 61.7898 219.409 62.0814C219.455 62.3731 219.425 62.6716 219.322 62.9482C219.219 63.2247 219.046 63.4699 218.82 63.6599L210.966 70.2001C210.366 70.7036 209.635 71.026 208.859 71.1297C208.082 71.2334 207.293 71.114 206.582 70.7856L202.912 69.1005L184.348 60.2684L186.49 70.8284C186.504 70.9302 186.496 71.0339 186.467 71.1324C186.438 71.231 186.387 71.322 186.319 71.3993C186.252 71.4765 186.168 71.5383 186.074 71.5802C185.98 71.6222 185.878 71.6434 185.776 71.6424H184.905C184.32 71.6175 183.751 71.4446 183.252 71.1399C182.752 70.8352 182.338 70.4086 182.049 69.9002L174.573 55.6202L152.667 45.203C149.747 43.8606 148.705 41.3545 150.161 39.4338Z" fill="#E0E0E0"/>
<path d="M28.5601 86.187L83.6166 84.9661C83.6166 84.9661 78.5401 76.191 64.4029 77.8261C50.894 79.3612 50.08 73.7848 43.1756 73.2565C36.2713 72.7281 30.6592 78.1045 28.5601 86.187Z" fill="#F5F5F5"/>
<path d="M286.014 115.968H337.886C337.886 115.968 333.302 107.614 319.951 108.828C307.191 109.984 306.549 104.715 300.059 104.072C293.568 103.43 288.17 108.399 286.014 115.968Z" fill="#F5F5F5"/>
<path d="M59.9119 58.8622H99.4817C99.4817 58.8622 95.9831 52.4933 85.7944 53.4215C76.0697 54.3068 75.577 50.287 70.629 49.7872C65.681 49.2874 61.5612 53.0859 59.9119 58.8622Z" fill="#F5F5F5"/>
<path d="M286.064 142.143H311.946C311.946 142.143 309.662 137.973 303 138.573C296.631 139.152 296.31 136.524 293.075 136.203C289.841 135.881 287.142 138.366 286.064 142.143Z" fill="#F5F5F5"/>
<path d="M273.119 70.4859H299.009C299.009 70.4859 296.717 66.3162 290.055 66.9159C283.686 67.4943 283.365 64.8668 280.131 64.5455C276.896 64.2242 274.176 66.7089 273.119 70.4859Z" fill="#FAFAFA"/>
<path d="M289.42 209.773C289.368 209.273 289.133 208.811 288.759 208.476C288.386 208.141 287.901 207.956 287.399 207.959H272.155C271.858 207.96 271.564 208.026 271.296 208.154C271.027 208.281 270.79 208.467 270.602 208.697C270.413 208.927 270.278 209.196 270.206 209.484C270.134 209.773 270.127 210.074 270.185 210.365C270.274 210.831 270.527 211.25 270.897 211.547C271.267 211.844 271.731 212 272.205 211.986H287.406C287.688 211.985 287.966 211.926 288.223 211.812C288.48 211.697 288.711 211.531 288.901 211.323C289.09 211.115 289.234 210.869 289.323 210.602C289.413 210.335 289.446 210.053 289.42 209.773Z" fill="#263238"/>
<path d="M322.671 330.682C322.531 331.633 322.677 332.605 323.09 333.474C323.502 334.343 324.164 335.07 324.989 335.563C325.815 336.056 326.769 336.293 327.73 336.244C328.69 336.195 329.615 335.862 330.386 335.287C331.158 334.713 331.741 333.922 332.063 333.016C332.385 332.11 332.431 331.128 332.196 330.196C331.96 329.263 331.453 328.421 330.738 327.777C330.024 327.133 329.135 326.715 328.183 326.576C326.908 326.39 325.611 326.718 324.577 327.488C323.544 328.258 322.858 329.407 322.671 330.682Z" fill="#263238"/>
<path d="M326.469 331.417L323.506 325.291L325.063 324.299L327.933 330.696L326.469 331.417Z" fill="#455A64"/>
<path d="M299.009 255.997L280.595 207.952L277.096 209.709L294.939 257.318L299.009 255.997Z" fill="#263238"/>
<path d="M341.527 319.458L314.321 330.268C313.836 330.461 313.293 330.453 312.813 330.246C312.333 330.039 311.955 329.65 311.762 329.164L284.704 261.065C283.682 258.492 283.723 255.619 284.82 253.077C285.916 250.534 287.977 248.532 290.55 247.51L302.016 242.954C304.589 241.931 307.463 241.973 310.005 243.069C312.547 244.166 314.549 246.227 315.572 248.8L342.63 316.899C342.823 317.385 342.815 317.927 342.608 318.407C342.401 318.887 342.012 319.265 341.527 319.458Z" fill="#7ECDCE"/>
<path d="M311.732 329.475C311.732 329.475 311.69 329.332 311.59 329.061L311.14 327.854L309.369 323.22L302.779 306.22C299.973 299.044 296.646 290.512 292.947 281.023L287.128 266.15C286.628 264.865 286.114 263.566 285.607 262.252C285.07 260.967 284.873 259.565 285.036 258.182C285.212 256.772 285.764 255.436 286.636 254.315C287.507 253.193 288.665 252.327 289.987 251.808C291.309 251.289 292.747 251.136 294.149 251.366C295.551 251.595 296.865 252.199 297.952 253.113C299.008 254.019 299.816 255.179 300.301 256.483L301.829 260.388C303.857 265.543 305.813 270.513 307.67 275.254L317.587 300.415C320.443 307.555 322.707 313.346 324.306 317.366L326.148 321.971C326.362 322.478 326.519 322.878 326.641 323.163C326.762 323.449 326.819 323.563 326.819 323.563C326.819 323.563 326.776 323.42 326.676 323.142L326.227 321.935C325.82 320.864 325.22 319.308 324.456 317.308L317.866 300.308L308.034 275.111C306.185 270.37 304.235 265.393 302.215 260.238C301.715 258.946 301.201 257.647 300.687 256.333C300.187 254.95 299.339 253.72 298.223 252.763C297.078 251.799 295.694 251.163 294.216 250.92C292.739 250.678 291.224 250.839 289.831 251.385C288.437 251.932 287.217 252.845 286.299 254.027C285.381 255.21 284.799 256.618 284.615 258.104C284.442 259.559 284.649 261.035 285.214 262.388L286.742 266.322C288.77 271.47 290.726 276.446 292.583 281.18C296.31 290.633 299.673 299.166 302.493 306.306L309.212 323.263L311.061 327.861C311.268 328.375 311.432 328.768 311.554 329.054C311.605 329.198 311.664 329.338 311.732 329.475Z" fill="#263238"/>
<path d="M309.976 281.08C310.033 281.265 313.589 279.859 317.923 277.952C322.257 276.046 325.719 274.339 325.662 274.161C325.605 273.982 322.042 275.375 317.716 277.288C313.389 279.202 309.919 280.894 309.976 281.08Z" fill="#263238"/>
<path d="M285.914 207.952L282.737 201.669C282.381 200.967 281.786 200.415 281.059 200.113L276.061 198.028L262.595 179.764L261.324 193.751L269.892 202.597C269.892 202.597 275.268 213.921 279.659 213.343C279.551 212.323 279.25 211.332 278.774 210.423C277.346 207.952 278.867 207.952 279.067 207.967H282.744L285.914 207.952Z" fill="#FFBE9D"/>
<path d="M263.93 198.292C264.337 198.899 267.664 203.411 267.664 203.411L277.096 196.55L273.669 193.201L263.93 198.292Z" fill="#7ECDCE"/>
<path d="M278.803 210.423C278.803 210.423 281.259 211.851 281.566 213.008V213.722L278.624 213.293L278.803 210.423Z" fill="#FFBE9D"/>
<path d="M282.094 211.765C281.659 211.425 281.319 210.977 281.109 210.466C281.014 210.208 281.019 209.924 281.122 209.669C281.225 209.414 281.419 209.207 281.666 209.088C282.173 208.916 282.694 209.28 283.094 209.644C283.596 210.094 284.072 210.571 284.522 211.072C284.735 211.255 284.901 211.486 285.008 211.745C285.115 212.004 285.158 212.285 285.136 212.565C285.07 212.782 284.938 212.973 284.759 213.112C284.58 213.252 284.363 213.332 284.136 213.343C283.908 213.348 283.682 213.306 283.471 213.22C283.259 213.134 283.068 213.006 282.908 212.843C282.59 212.523 282.336 212.145 282.159 211.729" fill="#FFBE9D"/>
<path d="M284.586 211.55C284.151 211.21 283.811 210.762 283.601 210.251C283.506 209.993 283.51 209.709 283.613 209.454C283.716 209.2 283.91 208.992 284.158 208.873C284.664 208.701 285.186 209.066 285.586 209.43C286.087 209.879 286.564 210.356 287.014 210.858C287.226 211.04 287.393 211.271 287.5 211.53C287.606 211.789 287.65 212.07 287.628 212.35C287.562 212.567 287.43 212.758 287.251 212.897C287.072 213.037 286.855 213.117 286.628 213.128C286.4 213.133 286.174 213.091 285.962 213.005C285.751 212.919 285.56 212.791 285.4 212.628C285.082 212.308 284.827 211.93 284.65 211.515" fill="#FFBE9D"/>
<path d="M277.096 200.826C277.096 200.74 277.732 200.769 278.467 201.405C278.809 201.822 279.095 202.283 279.317 202.775C279.649 203.373 279.817 204.048 279.802 204.732C279.7 205.404 279.435 206.041 279.031 206.588C278.758 207.028 278.56 207.511 278.446 208.016C278.342 208.485 278.308 208.966 278.346 209.444C278.222 209.221 278.144 208.975 278.117 208.721C278.09 208.467 278.114 208.21 278.189 207.966C278.275 207.425 278.461 206.904 278.738 206.431C279.101 205.92 279.345 205.335 279.452 204.717C279.46 204.097 279.316 203.484 279.031 202.932C278.843 202.458 278.604 202.005 278.317 201.583C278.072 201.34 277.793 201.133 277.489 200.969C277.361 200.914 277.23 200.866 277.096 200.826Z" fill="#EB996E"/>
<path d="M175.487 136.381L165.477 168.382L194.922 199.134L221.904 192.123L175.487 136.381Z" fill="#F5F5F5"/>
<path d="M175.48 136.374L175.708 136.638L176.387 137.438L179.014 140.565L188.803 152.239L222.054 192.009L222.24 192.23L221.961 192.302L206.753 196.257L194.979 199.313H194.872L194.801 199.235L165.37 168.504L165.312 168.44V168.361C168.411 158.558 170.953 150.554 172.717 144.985C173.588 142.229 174.273 140.08 174.744 138.609L175.273 136.952C175.394 136.588 175.451 136.403 175.451 136.403C175.109 137.524 171.589 148.969 165.591 168.447L165.555 168.304L195.022 199.006L194.844 198.956L206.617 195.893L221.826 191.938L221.733 192.237L188.782 152.482L179.028 140.701L176.401 137.509L175.687 136.681L175.48 136.374Z" fill="#263238"/>
<path d="M176.401 157.487C176.775 156.906 177.262 156.406 177.834 156.018C178.405 155.63 179.05 155.361 179.728 155.227C180.406 155.094 181.104 155.099 181.78 155.242C182.456 155.385 183.096 155.663 183.662 156.059C185.504 157.487 186.354 160.179 188.567 160.893C190.167 161.407 191.93 160.657 193.565 160.95C195.5 161.3 196.943 163.092 197.5 164.948C198.056 166.805 197.907 168.854 197.749 170.817L188.175 170.946L176.401 157.487Z" fill="#E0E0E0"/>
<path d="M158.694 139.301L220.74 203.239L195.457 200.676L160.093 163.341L158.694 139.301Z" fill="#F5F5F5"/>
<path d="M158.701 139.301C158.758 140.236 159.272 148.461 160.214 163.334V163.255C169.261 172.78 181.634 185.796 195.622 200.555L195.507 200.498L214.907 202.454L220.79 203.054L220.64 203.368C186.14 167.668 160.1 140.722 158.736 139.301L220.904 203.111L221.261 203.475L220.754 203.425L214.864 202.825L195.472 200.855H195.407L195.357 200.812C181.392 186.025 169.054 172.966 160.036 163.434V163.391C159.179 148.469 158.744 140.236 158.701 139.301Z" fill="#263238"/>
<path d="M182.977 164.712C181.063 166.918 181.342 170.424 182.977 172.859C184.612 175.293 187.311 176.764 190.038 177.814C192.245 178.663 194.965 179.199 196.793 177.7" fill="#E0E0E0"/>
<path d="M179.749 161.235C179.864 161.77 179.193 162.17 178.65 162.12C178.107 162.07 177.607 161.763 177.058 161.735C175.565 161.649 174.751 163.42 173.538 164.284C172.806 164.762 171.916 164.936 171.058 164.77C170.199 164.603 169.439 164.109 168.939 163.391C168.126 162.127 168.147 160.257 166.862 159.479C166.105 159.109 165.238 159.03 164.427 159.257C163.624 159.481 162.789 159.568 161.957 159.514C161.542 159.476 161.153 159.296 160.855 159.005C160.557 158.714 160.369 158.329 160.321 157.915L159.872 157.201L158.815 139.551L179.749 161.235Z" fill="#E0E0E0"/>
<path d="M209.987 201.947C210.306 202.028 210.637 202.043 210.961 201.991C211.286 201.939 211.596 201.821 211.873 201.644C212.15 201.467 212.388 201.236 212.572 200.964C212.756 200.692 212.882 200.385 212.943 200.063C213.023 199.354 212.828 198.642 212.399 198.072C211.97 197.503 211.34 197.119 210.637 196.999C209.373 196.835 208.067 197.571 206.853 197.192C205.468 196.757 204.897 195.15 204.547 193.744C204.197 192.337 203.704 190.731 202.362 190.174C200.141 189.274 197.799 192.123 195.479 191.495C193.758 191.03 193.094 188.96 191.745 187.796C191.199 187.333 190.543 187.018 189.841 186.881C189.138 186.743 188.412 186.788 187.732 187.011C187.114 187.162 186.554 187.489 186.119 187.953C185.684 188.417 185.394 188.998 185.283 189.624L195.529 200.427L209.987 201.947Z" fill="#E0E0E0"/>
<path d="M193.023 310.004L190.474 324.698C190.474 324.698 174.68 327.04 173.945 329.696L202.262 335.665L207.174 312.931L193.023 310.004Z" fill="#7ECDCE"/>
<g opacity="0.6">
<path d="M199.492 325.319C199.746 325.459 199.941 325.688 200.037 325.962C200.133 326.236 200.124 326.536 200.013 326.804C199.882 327.064 199.657 327.264 199.383 327.362C199.109 327.46 198.808 327.45 198.542 327.333C198.272 327.184 198.067 326.94 197.966 326.648C197.866 326.357 197.878 326.038 197.999 325.755C198.164 325.498 198.422 325.314 198.719 325.244C199.016 325.173 199.329 325.221 199.592 325.376" fill="white"/>
</g>
<path opacity="0.6" d="M202.262 335.679L202.776 333.437L175.387 328.539C175.387 328.539 174.016 328.825 173.959 329.739L202.262 335.679Z" fill="white"/>
<path d="M190.045 324.455C190.045 324.598 190.702 324.805 191.288 325.39C191.873 325.976 192.116 326.64 192.252 326.611C192.387 326.583 192.352 325.74 191.63 325.041C190.909 324.341 190.045 324.327 190.045 324.455Z" fill="#263238"/>
<path d="M186.818 325.062C186.761 325.191 187.311 325.548 187.653 326.233C187.996 326.919 188.003 327.561 188.146 327.59C188.289 327.619 188.539 326.876 188.089 326.005C187.639 325.134 186.847 324.927 186.818 325.062Z" fill="#263238"/>
<path d="M184.383 328.261C184.505 328.318 184.84 327.669 184.648 326.833C184.455 325.998 183.869 325.562 183.784 325.669C183.698 325.776 184.012 326.262 184.169 326.947C184.326 327.633 184.248 328.218 184.383 328.261Z" fill="#263238"/>
<path d="M191.002 321.171C191.002 321.314 191.716 321.257 192.48 321.471C193.244 321.685 193.801 322.064 193.908 321.964C194.015 321.864 193.523 321.25 192.616 321C191.709 320.75 190.952 321.05 191.002 321.171Z" fill="#263238"/>
<path opacity="0.3" d="M192.523 312.917L192.066 315.53L206.01 318.336L206.524 316.001L192.523 312.917Z" fill="black"/>
<path d="M191.566 318.216C192.008 318.439 192.501 318.54 192.994 318.508C193.526 318.529 194.059 318.481 194.579 318.366C194.884 318.298 195.184 318.212 195.479 318.108C195.657 318.054 195.826 317.972 195.979 317.866C196.088 317.787 196.169 317.675 196.209 317.546C196.249 317.417 196.246 317.279 196.2 317.152C196.15 317.041 196.074 316.944 195.98 316.867C195.886 316.79 195.776 316.736 195.657 316.709C195.479 316.67 195.296 316.658 195.115 316.673C194.255 316.698 193.417 316.944 192.68 317.387C191.895 317.859 191.559 318.323 191.602 318.366C191.645 318.408 192.066 318.058 192.837 317.694C193.554 317.363 194.332 317.183 195.122 317.166C195.436 317.166 195.693 317.202 195.743 317.352C195.793 317.502 195.743 317.43 195.679 317.509C195.565 317.582 195.443 317.642 195.315 317.687C195.038 317.789 194.757 317.878 194.472 317.951C193.986 318.079 193.489 318.16 192.987 318.194C192.513 318.169 192.039 318.176 191.566 318.216Z" fill="#263238"/>
<path d="M191.709 318.443C191.752 318.479 192.13 318.044 192.373 317.158C192.504 316.638 192.547 316.1 192.501 315.566C192.479 315.246 192.419 314.93 192.323 314.624C192.286 314.421 192.197 314.231 192.066 314.073C191.935 313.914 191.765 313.791 191.573 313.717C191.446 313.697 191.316 313.711 191.197 313.759C191.077 313.807 190.973 313.886 190.895 313.988C190.787 314.14 190.701 314.306 190.638 314.481C190.522 314.785 190.454 315.105 190.438 315.43C190.404 315.979 190.505 316.528 190.731 317.03C191.131 317.879 191.673 318.165 191.695 318.122C191.716 318.079 191.33 317.694 191.059 316.894C190.898 316.436 190.839 315.949 190.888 315.466C190.918 315.187 190.985 314.913 191.088 314.652C191.195 314.366 191.359 314.145 191.466 314.202C191.573 314.259 191.802 314.502 191.866 314.766C191.957 315.033 192.024 315.308 192.066 315.587C192.135 316.078 192.135 316.575 192.066 317.065C191.895 317.929 191.637 318.443 191.709 318.443Z" fill="#263238"/>
<path d="M286.071 310.896L279.952 302.899L279.631 302.485L269.178 310.247L278.838 320.857L278.489 331.602C273.105 332.987 272.298 335.679 272.298 335.679H283.479L293.64 316.116L286.071 310.896Z" fill="#7ECDCE"/>
<path opacity="0.6" d="M293.661 316.102L283.501 335.665L272.32 335.68L273.576 333.995L282.673 333.488L292.047 314.995L293.661 316.102Z" fill="white"/>
<path d="M278.574 326.676C278.66 326.79 279.288 326.426 280.166 326.447C281.045 326.469 281.666 326.833 281.751 326.719C281.837 326.604 281.23 326.005 280.173 325.955C279.117 325.905 278.46 326.59 278.574 326.676Z" fill="#263238"/>
<path d="M278.753 324.013C278.867 324.091 279.36 323.435 280.252 323.256C281.145 323.078 281.859 323.492 281.93 323.377C282.001 323.263 281.844 323.135 281.53 322.963C281.106 322.754 280.625 322.691 280.161 322.784C279.697 322.877 279.277 323.121 278.967 323.477C278.746 323.763 278.696 323.984 278.753 324.013Z" fill="#263238"/>
<path d="M278.681 320.585C278.803 320.65 279.181 320 279.959 319.729C280.738 319.457 281.437 319.729 281.494 319.586C281.552 319.443 281.387 319.379 281.073 319.264C280.66 319.116 280.208 319.116 279.795 319.264C279.385 319.414 279.036 319.695 278.803 320.064C278.631 320.357 278.617 320.585 278.681 320.585Z" fill="#263238"/>
<path d="M275.682 317.943C275.818 317.986 276.132 317.351 276.825 316.901C277.517 316.451 278.21 316.387 278.253 316.244C278.296 316.101 277.418 315.923 276.582 316.494C275.747 317.065 275.547 317.929 275.682 317.943Z" fill="#263238"/>
<path d="M274.226 315.645C274.283 315.681 274.647 315.231 275.197 314.474L276.147 313.132C276.36 312.855 276.534 312.55 276.661 312.225C276.699 312.108 276.713 311.984 276.702 311.861C276.691 311.738 276.655 311.619 276.596 311.511C276.528 311.394 276.428 311.3 276.308 311.238C276.188 311.176 276.053 311.149 275.918 311.161C275.525 311.236 275.163 311.425 274.876 311.704C274.601 311.924 274.36 312.184 274.162 312.475C273.844 312.963 273.644 313.517 273.576 314.095C273.459 314.616 273.549 315.161 273.826 315.616C273.829 315.125 273.86 314.634 273.919 314.145C274.025 313.633 274.234 313.147 274.533 312.717C274.709 312.471 274.915 312.248 275.147 312.053C275.367 311.853 275.631 311.709 275.918 311.632C275.96 311.627 276.003 311.634 276.042 311.653C276.08 311.672 276.111 311.702 276.132 311.739C276.169 311.841 276.169 311.952 276.132 312.053C276.017 312.328 275.871 312.59 275.697 312.832C275.411 313.31 275.126 313.774 274.84 314.26C274.563 314.686 274.355 315.153 274.226 315.645Z" fill="#263238"/>
<path d="M273.826 315.981C273.876 315.981 273.826 315.388 273.226 314.717C272.814 314.271 272.268 313.971 271.67 313.863C271.073 313.755 270.456 313.844 269.913 314.117C269.856 314.167 269.811 314.228 269.78 314.297C269.749 314.366 269.734 314.441 269.735 314.517C269.742 314.647 269.789 314.772 269.871 314.874C269.987 315.009 270.121 315.127 270.27 315.224C270.519 315.4 270.784 315.551 271.063 315.674C271.529 315.888 272.025 316.027 272.534 316.088C272.998 316.187 273.481 316.142 273.919 315.959C273.919 315.881 273.391 315.916 272.591 315.745C272.129 315.644 271.683 315.483 271.263 315.267C271.013 315.142 270.774 314.996 270.549 314.831C270.44 314.762 270.341 314.678 270.256 314.581C270.206 314.481 270.256 314.51 270.256 314.481C270.357 314.42 270.468 314.378 270.585 314.36C270.721 314.331 270.86 314.309 270.999 314.296C271.264 314.278 271.531 314.297 271.791 314.353C272.238 314.454 272.653 314.665 272.998 314.967C273.583 315.495 273.748 316.009 273.826 315.981Z" fill="#263238"/>
<path opacity="0.6" d="M284.736 315.767C284.736 316.029 284.814 316.286 284.96 316.504C285.106 316.723 285.313 316.893 285.556 316.993C285.799 317.094 286.066 317.12 286.323 317.069C286.581 317.018 286.817 316.891 287.003 316.706C287.189 316.52 287.315 316.283 287.367 316.026C287.418 315.768 287.392 315.501 287.291 315.258C287.191 315.016 287.02 314.808 286.802 314.662C286.584 314.516 286.327 314.438 286.064 314.438C285.712 314.438 285.374 314.578 285.125 314.827C284.876 315.076 284.736 315.414 284.736 315.767Z" fill="white"/>
<path opacity="0.3" d="M270.17 311.311L272.32 313.674L281.352 304.728L280.095 303.093L270.17 311.311Z" fill="black"/>
<path d="M242.367 125.1C248.342 123.023 254.793 122.731 260.931 124.257C263.652 124.936 266.415 126.064 268.157 128.263C270.22 130.862 270.477 134.403 270.799 137.709C271.444 144.433 272.682 151.087 274.497 157.594C276.011 163.006 277.924 168.304 278.746 173.895C279.567 179.485 279.188 185.404 276.354 190.259C271.984 197.742 262.695 201.048 254.034 201.198C249.479 201.269 244.809 200.605 240.768 198.492C236.727 196.378 233.364 192.687 232.378 188.239" fill="#AA7FBE"/>
<g opacity="0.5">
<path d="M242.367 125.1C248.342 123.023 254.793 122.731 260.931 124.257C263.652 124.936 266.415 126.064 268.157 128.263C270.22 130.862 270.477 134.403 270.799 137.709C271.444 144.433 272.682 151.087 274.497 157.594C276.011 163.006 277.924 168.304 278.746 173.895C279.567 179.485 279.188 185.404 276.354 190.259C271.984 197.742 262.695 201.048 254.034 201.198C249.479 201.269 244.809 200.605 240.768 198.492C236.727 196.378 233.364 192.687 232.378 188.239" fill="black"/>
</g>
<path d="M254.277 131.954C255.215 132.773 256.047 133.706 256.754 134.732C257.49 135.869 258.134 137.063 258.682 138.302C259.354 139.84 260.124 141.333 260.988 142.771C261.877 144.229 263.101 145.453 264.558 146.341C265.777 147.069 267.211 147.35 268.614 147.134C269.554 146.999 270.434 146.595 271.149 145.97C271.339 145.799 271.507 145.604 271.648 145.392C271.748 145.249 271.791 145.17 271.777 145.163C271.763 145.156 271.534 145.434 271.063 145.827C270.346 146.371 269.495 146.712 268.6 146.812C267.275 146.97 265.935 146.673 264.801 145.97C263.413 145.094 262.248 143.909 261.395 142.507C260.543 141.084 259.773 139.613 259.089 138.102C258.513 136.853 257.827 135.659 257.04 134.532C256.505 133.768 255.868 133.081 255.148 132.49C254.89 132.262 254.596 132.081 254.277 131.954Z" fill="#E0E0E0"/>
<path d="M266.822 198.834C266.84 198.647 266.84 198.458 266.822 198.27C266.822 197.856 266.822 197.328 266.822 196.671C266.822 195.286 266.722 193.272 266.615 190.795C266.393 185.797 266.008 178.971 265.408 171.417C264.808 163.863 264.13 157.022 263.573 152.089C263.288 149.618 263.045 147.619 262.859 146.248C262.773 145.598 262.695 145.07 262.638 144.663C262.62 144.477 262.584 144.293 262.531 144.113C262.509 144.298 262.509 144.485 262.531 144.67C262.566 145.084 262.616 145.613 262.666 146.262C262.809 147.69 263.002 149.69 263.23 152.117C263.709 157.065 264.344 163.898 264.937 171.452C265.529 179.006 265.972 185.854 266.272 190.809C266.422 193.244 266.543 195.236 266.629 196.678L266.743 198.277C266.753 198.465 266.779 198.651 266.822 198.834Z" fill="#E0E0E0"/>
<path d="M265.044 168.504C265.044 168.625 267.779 168.597 271.12 168.175C274.462 167.754 277.118 167.126 277.096 167.011C277.075 166.897 274.39 167.311 271.063 167.725C267.736 168.14 265.037 168.347 265.044 168.504Z" fill="#E0E0E0"/>
<path d="M267.25 168.411C267.033 168.812 266.906 169.256 266.879 169.711C266.796 170.195 266.746 170.684 266.729 171.174C266.704 171.494 266.758 171.815 266.886 172.11C266.966 172.289 267.095 172.441 267.258 172.55C267.421 172.659 267.611 172.719 267.807 172.724C267.918 172.728 268.03 172.707 268.131 172.661C268.233 172.615 268.322 172.546 268.393 172.46C268.516 172.304 268.588 172.115 268.6 171.917C268.609 171.607 268.566 171.298 268.471 171.003C268.352 170.514 268.189 170.036 267.986 169.575C267.636 168.811 267.307 168.404 267.272 168.433C267.372 168.867 267.516 169.29 267.7 169.696C267.85 170.146 267.976 170.604 268.078 171.067C268.144 171.321 268.173 171.583 268.164 171.845C268.164 172.088 268.021 172.238 267.821 172.238C267.343 172.238 267.15 171.66 267.172 171.146C267.193 170.632 267.172 170.125 267.214 169.718C267.281 169.285 267.293 168.846 267.25 168.411Z" fill="#E0E0E0"/>
<path d="M236.478 127.684L265.164 124.334C268.92 123.896 271.61 120.495 271.171 116.739L270.549 111.413C270.111 107.657 266.71 104.968 262.954 105.406L234.268 108.756C230.512 109.194 227.822 112.595 228.261 116.351L228.883 121.677C229.321 125.433 232.722 128.122 236.478 127.684Z" fill="#455A64"/>
<path d="M262.473 105.864C262.473 105.864 262.388 105.807 262.202 105.75C261.928 105.671 261.645 105.628 261.36 105.621C260.293 105.625 259.258 105.985 258.418 106.642C257.132 107.547 256.111 108.78 255.462 110.212C254.736 111.983 254.457 113.905 254.648 115.81C254.751 117.731 255.425 119.578 256.583 121.115C257.534 122.37 258.84 123.31 260.331 123.814C261.324 124.156 262.38 124.273 263.423 124.157C263.706 124.125 263.986 124.068 264.258 123.985C264.444 123.928 264.537 123.892 264.53 123.878C264.523 123.864 264.13 123.935 263.409 123.978C262.397 124.022 261.387 123.862 260.438 123.507C259.031 122.987 257.807 122.066 256.918 120.858C255.836 119.374 255.209 117.608 255.112 115.774C254.916 113.946 255.161 112.097 255.826 110.383C256.435 109.012 257.387 107.819 258.589 106.921C259.366 106.278 260.325 105.893 261.331 105.821C262.074 105.771 262.466 105.907 262.473 105.864Z" fill="#263238"/>
<path d="M246.08 107.313L250.507 106.878C249.324 107.24 248.31 108.015 247.651 109.063C247.009 110.104 246.595 111.27 246.437 112.483C245.645 117.574 248.351 123.043 252.699 125.799L249.129 126.27C249.129 126.27 238.919 117.152 246.052 107.313" fill="#263238"/>
<path d="M241.068 116.681C242.209 116.997 243.408 117.041 244.569 116.811C245.73 116.58 246.821 116.081 247.754 115.353C248.687 114.625 249.437 113.688 249.944 112.618C250.451 111.548 250.7 110.375 250.671 109.191C250.621 106.999 249.622 104.757 250.307 102.665C250.778 101.237 251.978 100.109 252.385 98.6599C252.985 96.4822 251.671 94.2902 250.421 92.4195C249.677 91.1766 248.751 90.0526 247.672 89.0852C247.13 88.6032 246.488 88.2466 245.792 88.0405C245.096 87.8345 244.363 87.784 243.645 87.8928" fill="#263238"/>
<path d="M220.79 88.0859C220.911 89.7424 219.819 91.2275 218.712 92.4699C217.606 93.7123 216.385 95.0189 216.142 96.6611C215.721 99.5813 218.577 102.287 217.991 105.179C217.67 106.728 216.406 107.971 216.178 109.534C215.949 111.098 216.77 112.533 217.777 113.683C218.784 114.832 220.005 115.825 220.897 117.039C221.745 118.411 222.462 119.86 223.039 121.365C223.616 122.883 224.664 124.174 226.031 125.05C228.173 126.206 231.143 125.664 232.771 127.456C234.399 129.248 236.284 129.455 238.226 130.762" fill="#263238"/>
<path d="M246.33 90.62C246.373 89.1206 244.981 87.9568 243.581 87.407C242.182 86.8572 240.618 86.643 239.369 85.8005C238.262 85.0865 237.519 83.9013 236.584 82.9445C235.427 81.7781 233.982 80.9395 232.395 80.5144C230.808 80.0893 229.137 80.0929 227.552 80.5249C225.967 80.9569 224.525 81.8018 223.374 82.9732C222.222 84.1447 221.402 85.6008 220.997 87.1928C220.462 89.3348 220.826 91.8695 222.518 93.2975C224.482 94.9469 227.388 94.5827 229.901 94.0686C232.414 93.5546 235.256 93.0476 237.355 94.5256C238.619 95.411 239.34 96.8604 240.118 98.2027C240.897 99.545 241.86 100.909 243.324 101.409C244.788 101.908 246.773 101.044 246.83 99.5022" fill="#263238"/>
<path d="M240.368 90.9348C240.995 91.001 241.573 91.3008 241.989 91.7745C242.404 92.2482 242.626 92.8611 242.61 93.4909L241.111 127.506C241.046 131.526 235.177 133.782 230.872 133.682C226.531 133.582 226.388 131.447 226.338 127.627C226.245 121.244 226.252 118.845 226.252 118.881C226.252 118.916 220.762 117.96 219.641 110.798C219.084 107.228 219.277 101.395 219.591 96.6254C219.869 92.3414 222.725 87.0649 227.009 87.5219L240.368 90.9348Z" fill="#FFBE9D"/>
<path d="M220.947 100.716C220.944 100.956 221.034 101.188 221.2 101.362C221.366 101.536 221.593 101.637 221.833 101.645C221.949 101.652 222.065 101.637 222.175 101.599C222.285 101.562 222.386 101.503 222.473 101.426C222.56 101.349 222.631 101.255 222.682 101.151C222.732 101.046 222.762 100.932 222.768 100.816C222.772 100.578 222.682 100.347 222.518 100.173C222.354 99.9998 222.128 99.8975 221.89 99.8882C221.773 99.8795 221.656 99.8941 221.545 99.9312C221.435 99.9683 221.332 100.027 221.245 100.104C221.157 100.181 221.085 100.275 221.034 100.38C220.983 100.486 220.954 100.6 220.947 100.716Z" fill="#263238"/>
<path d="M220.847 99.6599C220.962 99.7813 221.661 99.2672 222.647 99.2743C223.632 99.2815 224.36 99.7741 224.467 99.6528C224.574 99.5314 224.403 99.3814 224.089 99.1529C223.668 98.8638 223.171 98.7072 222.661 98.7031C222.149 98.7019 221.649 98.8618 221.233 99.1601C220.897 99.3957 220.79 99.6099 220.847 99.6599Z" fill="#263238"/>
<path d="M230.786 100.966C230.782 101.206 230.873 101.438 231.039 101.612C231.204 101.786 231.432 101.887 231.672 101.895C231.788 101.904 231.905 101.891 232.015 101.854C232.126 101.818 232.229 101.76 232.316 101.683C232.404 101.607 232.476 101.513 232.527 101.409C232.578 101.304 232.608 101.19 232.614 101.074C232.618 100.834 232.529 100.602 232.365 100.428C232.201 100.253 231.975 100.149 231.736 100.138C231.619 100.129 231.501 100.144 231.39 100.181C231.279 100.218 231.176 100.277 231.088 100.354C231 100.431 230.927 100.525 230.876 100.63C230.824 100.735 230.793 100.849 230.786 100.966Z" fill="#263238"/>
<path d="M230.565 99.8671C230.679 99.9885 231.372 99.4744 232.364 99.4815C233.357 99.4887 234.071 99.9813 234.178 99.86C234.285 99.7386 234.121 99.5886 233.799 99.3602C233.381 99.0661 232.882 98.909 232.371 98.9103C231.858 98.9041 231.357 99.0645 230.943 99.3673C230.622 99.5958 230.508 99.8171 230.565 99.8671Z" fill="#263238"/>
<path d="M226.959 107.192C226.438 107.025 225.899 106.925 225.353 106.892C225.103 106.892 224.867 106.821 224.824 106.649C224.799 106.388 224.856 106.126 224.989 105.9L225.745 103.979C226.437 102.36 227.001 100.689 227.431 98.9811C227.316 98.9382 226.381 101.123 225.346 103.851C225.089 104.565 224.853 105.171 224.632 105.786C224.47 106.087 224.422 106.437 224.496 106.771C224.533 106.86 224.589 106.939 224.661 107.004C224.732 107.068 224.818 107.115 224.91 107.142C225.05 107.181 225.194 107.203 225.339 107.206C225.877 107.266 226.422 107.261 226.959 107.192Z" fill="#263238"/>
<path d="M226.252 118.881C229.621 118.95 232.942 118.085 235.849 116.382C235.849 116.382 233.478 121.258 226.338 120.573L226.252 118.881Z" fill="#EB996E"/>
<path d="M227.373 109.57C227.563 109.335 227.809 109.152 228.089 109.037C228.368 108.922 228.672 108.88 228.973 108.914C229.19 108.935 229.402 109 229.594 109.104C229.786 109.208 229.956 109.35 230.093 109.52C230.225 109.686 230.302 109.887 230.315 110.098C230.328 110.309 230.275 110.519 230.165 110.699C230.006 110.875 229.798 110.999 229.568 111.056C229.338 111.114 229.095 111.101 228.873 111.02C228.405 110.855 227.975 110.597 227.609 110.263C227.497 110.186 227.402 110.086 227.33 109.97C227.291 109.917 227.271 109.854 227.271 109.788C227.271 109.723 227.291 109.659 227.33 109.606" fill="#EB996E"/>
<path d="M229.865 107.878C229.708 107.878 229.701 108.942 228.78 109.699C227.859 110.456 226.716 110.341 226.709 110.491C226.702 110.641 226.966 110.698 227.423 110.713C228.052 110.725 228.665 110.513 229.151 110.113C229.622 109.734 229.924 109.185 229.994 108.585C230.058 108.142 229.908 107.871 229.865 107.878Z" fill="#263238"/>
<path d="M230.122 98.1389C230.215 98.403 231.207 98.2817 232.364 98.4245C233.521 98.5673 234.463 98.8814 234.613 98.6458C234.685 98.5244 234.52 98.2745 234.142 98.0103C233.641 97.6869 233.071 97.4863 232.478 97.4249C231.885 97.3535 231.284 97.422 230.722 97.6248C230.293 97.8176 230.079 98.0103 230.122 98.1389Z" fill="#263238"/>
<path d="M221.219 96.8034C221.39 97.0248 222.076 96.8034 222.889 96.8034C223.703 96.8034 224.403 96.9534 224.56 96.7178C224.632 96.6107 224.525 96.3822 224.225 96.168C223.818 95.9115 223.344 95.782 222.863 95.7959C222.383 95.8099 221.917 95.9668 221.526 96.2465C221.24 96.4607 221.14 96.6963 221.219 96.8034Z" fill="#263238"/>
<path d="M245.366 114.49C244.377 114.689 243.354 114.65 242.382 114.376C241.411 114.102 240.518 113.601 239.779 112.914C239.039 112.227 238.474 111.373 238.13 110.424C237.785 109.476 237.671 108.458 237.798 107.457C238.026 105.7 238.969 103.887 238.362 102.245C237.555 100.046 234.47 99.3887 233.649 97.1753C233.178 95.8973 233.607 94.405 233.064 93.1555C232.521 91.906 231.322 91.2991 230.115 90.8636C228.874 90.5434 227.691 90.0302 226.609 89.3427C225.595 88.5573 224.967 87.0722 225.617 85.9727C230.967 86.6099 236.221 87.8851 241.268 89.7711C242.432 90.2067 243.66 90.735 244.352 91.7703C245.045 92.8056 245.066 94.2908 244.988 95.6117L244.088 114.89" fill="#263238"/>
<path d="M249.222 120.444C249.219 119.83 249.092 119.223 248.85 118.659C248.554 118.006 248.14 117.413 247.63 116.91C246.943 116.254 246.164 115.703 245.316 115.275C244.381 114.768 243.303 114.304 242.203 113.675C240.992 113.031 239.97 112.081 239.24 110.919C238.857 110.27 238.65 109.531 238.64 108.777C238.672 108.012 238.779 107.251 238.962 106.507C239.16 105.774 239.211 105.01 239.112 104.258C239.034 103.888 238.875 103.539 238.647 103.238C238.418 102.937 238.126 102.69 237.791 102.515C237.077 102.116 236.363 101.866 235.613 101.523C234.846 101.212 234.198 100.664 233.764 99.9593C233.402 99.2598 233.216 98.4832 233.221 97.696C233.221 96.9463 233.221 96.2251 233.221 95.554C233.238 94.8833 233.141 94.2146 232.935 93.5762C232.727 92.9912 232.349 92.4815 231.85 92.1125C230.883 91.4916 229.804 91.0671 228.673 90.863C227.716 90.6724 226.801 90.3095 225.974 89.792C225.35 89.3675 224.893 88.7389 224.682 88.0141C224.536 87.5639 224.536 87.0792 224.682 86.629C224.737 86.4776 224.819 86.3374 224.924 86.2148C224.924 86.2148 224.846 86.3648 224.753 86.6575C224.632 87.0919 224.647 87.5528 224.796 87.9784C225.02 88.6527 225.465 89.2315 226.06 89.6206C226.878 90.1028 227.775 90.4387 228.709 90.6131C229.88 90.8086 231.001 91.2332 232.007 91.8626C232.559 92.2649 232.978 92.8214 233.214 93.4619C233.435 94.1345 233.544 94.8389 233.535 95.5468C233.535 96.2608 233.535 96.9748 233.535 97.6888C233.533 98.4182 233.705 99.1376 234.035 99.788C234.433 100.431 235.026 100.931 235.727 101.216C236.441 101.552 237.205 101.794 237.941 102.223C238.31 102.44 238.638 102.721 238.912 103.051C239.173 103.39 239.352 103.787 239.433 104.208C239.541 105.01 239.487 105.825 239.276 106.607C239.095 107.325 238.987 108.059 238.954 108.799C238.957 109.497 239.145 110.181 239.497 110.784C240.191 111.9 241.163 112.818 242.317 113.447C243.388 114.075 244.459 114.553 245.402 115.082C246.263 115.533 247.051 116.113 247.737 116.803C248.254 117.33 248.664 117.954 248.943 118.638C249.119 119.069 249.213 119.529 249.222 119.994C249.231 120.115 249.231 120.237 249.222 120.358C249.236 120.401 249.229 120.444 249.222 120.444Z" fill="#263238"/>
<path d="M228.351 125.357C228.241 125.411 228.123 125.447 228.002 125.464C227.856 125.499 227.708 125.523 227.559 125.535C227.358 125.565 227.155 125.58 226.952 125.578C225.634 125.579 224.348 125.175 223.268 124.421C222.513 123.911 221.879 123.24 221.411 122.458C220.913 121.545 220.588 120.547 220.455 119.516C220.326 118.417 220.012 117.348 219.526 116.353C218.969 115.361 217.934 114.704 216.999 113.854C216.043 113.026 215.419 111.879 215.242 110.627C215.076 109.463 215.31 108.277 215.906 107.264C216.488 106.438 216.988 105.558 217.399 104.636C217.679 103.813 217.783 102.94 217.706 102.073C217.564 100.804 217.259 99.5585 216.799 98.3674C216.62 97.9313 216.465 97.4856 216.335 97.0322C216.409 97.1304 216.469 97.2386 216.513 97.3535C216.613 97.5749 216.763 97.8962 216.935 98.3174C217.455 99.5068 217.804 100.764 217.97 102.052C218.067 102.959 217.972 103.876 217.691 104.743C217.287 105.688 216.79 106.59 216.206 107.435C215.654 108.383 215.442 109.492 215.607 110.577C215.771 111.745 216.355 112.813 217.249 113.583C218.141 114.397 219.227 115.082 219.841 116.167C220.346 117.198 220.668 118.31 220.79 119.452C220.908 120.45 221.209 121.418 221.676 122.308C222.111 123.062 222.706 123.712 223.418 124.214C224.449 124.963 225.679 125.388 226.952 125.435C227.852 125.457 228.344 125.314 228.351 125.357Z" fill="#263238"/>
<path d="M249.186 91.227C249.255 91.3099 249.298 91.412 249.307 91.5197C249.323 91.674 249.306 91.8299 249.258 91.9773C249.21 92.1248 249.132 92.2607 249.029 92.3765C248.87 92.5669 248.675 92.7227 248.453 92.8344C248.232 92.9462 247.991 93.0115 247.744 93.0263C247.105 92.9873 246.485 92.8016 245.93 92.4836C245.29 92.1258 244.577 91.916 243.845 91.8696C242.994 91.8471 242.144 91.9238 241.31 92.0981C240.371 92.3016 239.415 92.4234 238.454 92.4622C237.374 92.5051 236.319 92.1203 235.52 91.3912C234.803 90.631 234.231 89.7451 233.835 88.778C233.47 87.9113 233.01 87.0876 232.464 86.3218C231.998 85.6954 231.359 85.2185 230.626 84.9496C229.893 84.6807 229.098 84.6316 228.337 84.8081C227.301 85.0837 226.409 85.7454 225.845 86.6574C225.647 86.9982 225.471 87.3511 225.317 87.7141C225.317 87.7141 225.317 87.607 225.374 87.4071C225.452 87.1175 225.568 86.8392 225.717 86.5789C226.172 85.7378 226.904 85.0807 227.79 84.72C228.675 84.3592 229.659 84.3172 230.572 84.6011C231.426 84.8674 232.175 85.3942 232.714 86.1076C233.282 86.8899 233.761 87.7328 234.142 88.6209C234.525 89.5444 235.071 90.391 235.756 91.1199C236.483 91.7879 237.446 92.1397 238.433 92.0981C239.374 92.0618 240.31 91.9471 241.232 91.7553C242.092 91.5848 242.969 91.5177 243.845 91.5554C244.615 91.6315 245.358 91.8752 246.023 92.2694C246.54 92.5831 247.121 92.7782 247.722 92.8406C247.944 92.8338 248.163 92.7829 248.365 92.691C248.567 92.5991 248.749 92.4679 248.9 92.3051C248.999 92.2059 249.078 92.0878 249.13 91.9578C249.183 91.8278 249.209 91.6886 249.207 91.5483C249.186 91.327 249.129 91.2341 249.186 91.227Z" fill="#455A64"/>
<path d="M245.138 89.1639C243.956 88.8927 242.905 88.2217 242.162 87.2644C241.419 86.3071 241.03 85.1224 241.06 83.9109C241.09 82.6995 241.538 81.5357 242.328 80.6167C243.118 79.6976 244.201 79.0799 245.395 78.868C245.958 78.7296 246.549 78.7483 247.103 78.922C247.657 79.0957 248.152 79.4178 248.536 79.8533C249.193 80.7458 249.15 82.081 249.964 82.8093C250.778 83.5376 252.235 83.252 253.391 83.5233C254.278 83.7761 255.046 84.3355 255.558 85.1018C256.071 85.868 256.295 86.7914 256.19 87.7073C256.045 88.6178 255.663 89.4741 255.083 90.1908C254.503 90.9075 253.745 91.4594 252.884 91.7914C251.142 92.4272 249.237 92.4624 247.472 91.8914C245.722 91.324 244.06 90.5166 242.531 89.4923" fill="#263238"/>
<path d="M253.741 83.987C253.673 84.4598 253.495 84.91 253.22 85.3008C252.626 86.2918 251.803 87.1266 250.821 87.7355C249.839 88.3484 248.726 88.7203 247.572 88.8208C247.094 88.8947 246.606 88.8581 246.144 88.7137C246.144 88.6494 246.687 88.7137 247.522 88.5566C248.614 88.3907 249.661 88.0045 250.6 87.4213C251.535 86.8331 252.344 86.0635 252.977 85.158C253.47 84.4654 253.684 83.9656 253.741 83.987Z" fill="#455A64"/>
<path d="M249.957 91.906C249.037 90.6936 247.883 89.6784 246.563 88.9204C245.244 88.1624 243.785 87.6772 242.274 87.4935C242.725 87.4058 243.188 87.4058 243.638 87.4935C245.849 87.8176 247.855 88.9684 249.25 90.7136C249.566 91.0577 249.807 91.4637 249.957 91.906Z" fill="#AA7FBE"/>
<path d="M197.928 169.668L186.354 167.426L188.439 170.389L183.498 172.859L179.364 170.924C179.685 171.769 180.089 172.58 180.57 173.345C181.477 174.851 182.712 176.065 183.469 176.122C183.723 177.165 184.251 178.122 184.997 178.893C185.669 179.562 186.503 180.046 187.418 180.296C188.333 180.547 189.297 180.555 190.217 180.321L197.992 177.507L197.928 169.668Z" fill="#FFBE9D"/>
<path d="M186.254 175.472C186.063 175.711 185.821 175.905 185.545 176.04C185.27 176.174 184.968 176.246 184.662 176.25C184.361 176.313 184.051 176.31 183.752 176.242C183.452 176.175 183.171 176.043 182.927 175.857C182.97 175.75 183.705 175.993 184.619 175.857C185.533 175.722 186.197 175.379 186.254 175.472Z" fill="#EB996E"/>
<path d="M187.782 177.936C187.853 178.007 187.354 178.564 186.497 178.785C186.248 178.881 185.982 178.921 185.716 178.901C185.451 178.882 185.193 178.803 184.962 178.671C184.962 178.564 185.676 178.628 186.39 178.428C187.104 178.228 187.696 177.857 187.782 177.936Z" fill="#EB996E"/>
<path d="M190.688 169.218C190.371 169.446 190.034 169.645 189.681 169.81C189.06 170.16 188.253 170.746 187.346 171.374C186.57 171.937 185.706 172.369 184.79 172.652C184.412 172.795 184.002 172.832 183.605 172.759C183.605 172.702 184.048 172.652 184.712 172.402C185.569 172.051 186.384 171.603 187.139 171.067C187.907 170.509 188.716 170.01 189.56 169.575C189.904 169.371 190.289 169.249 190.688 169.218Z" fill="#EB996E"/>
<path d="M260.896 188.881C260.896 188.881 261.288 189.131 262.274 190.88C265.294 196.271 266.515 209.187 255.134 220.718C240.411 235.612 223.168 259.988 223.168 259.988L209.602 317.222L189.153 312.788L199.691 253.305L228.587 199.698L260.896 188.881Z" fill="#263238"/>
<path d="M283.451 299.651L251.949 251.442L242.396 209.83L218.063 221.79L230.265 264.023L269.199 312.518L283.451 299.651Z" fill="#263238"/>
<path d="M209.616 317.222C209.621 317.125 209.638 317.029 209.666 316.937C209.709 316.737 209.766 316.465 209.838 316.116C210.009 315.402 210.245 314.323 210.552 312.967L213.229 301.414C215.521 291.647 218.684 278.188 222.183 263.322C222.454 262.166 222.725 261.016 222.982 259.945V259.895C231.907 248.471 240.04 238.368 246.023 231.192C249.022 227.622 251.471 224.766 253.206 222.81C254.056 221.832 254.755 221.104 255.219 220.604L255.748 220.04C255.869 219.911 255.933 219.847 255.941 219.854C255.892 219.928 255.837 219.997 255.776 220.061L255.269 220.647C254.827 221.168 254.148 221.91 253.306 222.903C251.607 224.866 249.193 227.751 246.223 231.357C240.29 238.575 232.193 248.707 223.275 260.124V260.052C223.025 261.123 222.754 262.273 222.475 263.429L213.486 301.479C212.308 306.327 211.344 310.261 210.694 313.002C210.359 314.345 210.102 315.402 209.916 316.13C209.83 316.48 209.759 316.744 209.709 316.944C209.687 317.039 209.656 317.132 209.616 317.222Z" fill="#455A64"/>
<path d="M246.559 204.096C246.413 204.217 246.246 204.309 246.066 204.367C245.594 204.572 245.104 204.732 244.602 204.846C242.933 205.227 241.194 205.175 239.549 204.697C237.905 204.218 236.41 203.328 235.206 202.111C234.844 201.746 234.514 201.349 234.221 200.926C234.021 200.619 233.928 200.44 233.949 200.426C233.971 200.412 234.449 201.054 235.377 201.918C236.591 203.046 238.051 203.875 239.641 204.339C241.232 204.803 242.909 204.888 244.538 204.589C245.802 204.36 246.537 204.039 246.559 204.096Z" fill="#455A64"/>
<path d="M263.93 191.351C251.606 197.841 231.607 201.718 225.21 199.084L224.989 175.343C224.989 175.343 216.228 160.899 216.192 155.437C216.142 147.583 225.945 129.612 225.945 129.612L240.661 125.663C243.624 125.6 246.556 126.283 249.186 127.648C251.938 129.173 254.178 131.478 255.622 134.274C257.067 137.069 257.652 140.229 257.304 143.356L253.599 166.975L263.93 191.351Z" fill="#7ECDCE"/>
<g opacity="0.3">
<path d="M248.136 127.627C248.993 127.498 249.307 128.891 248.7 129.505C248.094 130.119 247.13 130.147 246.28 130.276C242.446 130.876 239.483 134.16 238.09 137.78C236.698 141.4 236.562 145.356 236.334 149.204C236.105 153.052 235.727 157.058 233.906 160.492C232.206 157.479 231.199 154.124 230.957 150.673C230.715 147.221 231.244 143.759 232.507 140.537C233.77 137.316 235.734 134.416 238.257 132.048C240.78 129.681 243.799 127.904 247.094 126.849" fill="black"/>
</g>
<path d="M249.186 127.648C249.186 127.648 247.044 124.157 239.961 125.671C235.22 126.684 224.853 136.645 227.745 152.645C230.636 168.646 238.39 174.315 238.39 174.315C238.39 174.315 231.25 149.818 235.22 139.129C236.259 136.112 238.115 133.441 240.58 131.415C243.045 129.388 246.024 128.084 249.186 127.648Z" fill="#263238"/>
<g opacity="0.3">
<path d="M225.26 180.384C228.194 181.327 231.007 182.526 234.063 182.912C237.121 183.414 240.258 183.086 243.145 181.962C247.065 180.292 249.978 176.722 251.478 172.73C252.977 168.739 253.184 164.369 252.784 160.121C250.107 163.434 250.428 168.339 248.151 171.945C246.723 174.194 244.402 175.729 242.017 176.943C236.799 179.452 231.045 180.641 225.26 180.406" fill="black"/>
</g>
<path d="M234.085 156.13C234.085 156.13 233.128 174.151 255.112 170.567L257.325 175.779C257.325 175.779 234.213 180.663 230.907 161.499L234.085 156.13Z" fill="#263238"/>
<path d="M254.12 133.732C255.045 135.107 255.668 136.662 255.949 138.295C256.229 139.928 256.161 141.602 255.748 143.207L250.271 167.718C247.922 174.616 241.218 178.807 237.048 179.364L197.999 183.498V168.925L234.249 163.542L235.948 143.692C236.098 141.022 237.412 136.224 239.111 134.153C241.011 131.847 243.931 128.705 248.7 129.505C251.621 129.991 252.863 131.94 254.12 133.732Z" fill="#7ECDCE"/>
<path d="M255.248 144.163C255.254 144.347 255.242 144.531 255.212 144.713C255.169 145.077 255.105 145.605 255.012 146.291C254.827 147.662 254.541 149.632 254.105 152.06C253.67 154.488 253.113 157.379 252.378 160.557C252.013 162.142 251.621 163.812 251.142 165.555C250.675 167.338 250.034 169.072 249.229 170.731C248.415 172.4 247.297 173.901 245.93 175.158C244.656 176.323 243.212 177.286 241.646 178.014C238.991 179.204 236.155 179.94 233.257 180.192C230.793 180.441 228.794 180.456 227.416 180.47H225.824C225.641 180.487 225.457 180.487 225.274 180.47C225.456 180.438 225.64 180.423 225.824 180.427L227.409 180.363C228.787 180.306 230.786 180.249 233.228 179.963C236.088 179.681 238.882 178.928 241.496 177.735C243.031 177.026 244.449 176.087 245.702 174.951C247.029 173.715 248.118 172.246 248.915 170.617C249.707 168.979 250.34 167.27 250.807 165.512C251.285 163.812 251.685 162.149 252.063 160.564C252.777 157.394 253.406 154.523 253.863 152.103C254.32 149.682 254.655 147.719 254.884 146.391C254.998 145.741 255.084 145.22 255.148 144.827C255.164 144.604 255.198 144.382 255.248 144.163Z" fill="#263238"/>
<path d="M235.299 167.719C234.892 167.057 234.595 166.333 234.42 165.577C234.124 164.865 233.945 164.111 233.892 163.342C234.597 164.706 235.08 166.174 235.32 167.69L235.299 167.719Z" fill="#263238"/>
<path d="M237.519 167.161C236.748 166.8 236.067 166.27 235.527 165.612C234.9 165.039 234.411 164.331 234.099 163.541C234.709 164.11 235.282 164.718 235.813 165.362C236.422 165.922 236.992 166.523 237.519 167.161Z" fill="#263238"/>
<path d="M201.398 168.425L201.562 168.382L202.048 168.289L203.918 167.982L210.866 166.89L234.192 163.362L234.035 163.527C234.163 162.17 234.299 160.742 234.442 159.286C234.906 154.138 235.399 149.232 235.641 144.756C235.81 142.627 236.218 140.524 236.855 138.487C237.367 136.683 238.237 135 239.411 133.539C241.725 131.018 244.316 129.683 246.223 129.44C246.951 129.337 247.691 129.351 248.415 129.483C248.658 129.533 248.843 129.59 248.965 129.626L249.15 129.69C248.197 129.471 247.211 129.435 246.244 129.583C244.388 129.862 241.86 131.211 239.611 133.717C238.473 135.156 237.638 136.81 237.155 138.58C236.532 140.597 236.14 142.679 235.984 144.784C235.763 149.261 235.27 154.173 234.806 159.321C234.67 160.749 234.535 162.177 234.399 163.562V163.705H234.256L210.88 167.118L203.918 168.089L202.033 168.339L201.548 168.396L201.398 168.425Z" fill="#263238"/>
<path d="M223.746 180.299C223.646 180.299 223.232 177.007 222.825 172.93C222.418 168.853 222.168 165.526 222.268 165.512C222.705 167.953 223.015 170.414 223.196 172.887C223.506 175.347 223.69 177.82 223.746 180.299Z" fill="#FAFAFA"/>
<path d="M252.335 158.172C251.508 158.243 250.678 158.255 249.85 158.208C248.315 158.208 246.201 158.122 243.86 158.036C241.518 157.951 239.404 157.851 237.876 157.758C237.048 157.745 236.223 157.671 235.406 157.537C236.232 157.456 237.062 157.441 237.89 157.494C239.418 157.494 241.539 157.58 243.874 157.665C246.209 157.751 248.322 157.851 249.857 157.944C250.688 157.954 251.516 158.03 252.335 158.172Z" fill="#FAFAFA"/>
<path d="M227.545 153.51C227.015 153.646 226.471 153.718 225.924 153.724C224.924 153.795 223.532 153.845 221.997 153.817C220.462 153.788 219.069 153.681 218.07 153.567C217.525 153.542 216.985 153.449 216.463 153.288C217.005 153.235 217.55 153.235 218.091 153.288C219.091 153.338 220.476 153.395 222.004 153.424C223.532 153.452 224.917 153.424 225.917 153.424C226.461 153.392 227.007 153.421 227.545 153.51Z" fill="#FAFAFA"/>
<path d="M230.772 136.573C230.715 136.666 229.215 135.859 227.273 135.145C225.331 134.431 223.703 133.996 223.703 133.889C226.242 134.199 228.668 135.12 230.772 136.573Z" fill="#FAFAFA"/>
<path d="M259.132 181.12C259.034 181.19 258.925 181.246 258.811 181.284L257.868 181.67C257.054 182.005 255.855 182.448 254.363 182.969C250.468 184.31 246.505 185.44 242.489 186.354C238.473 187.289 234.409 188.004 230.315 188.496C228.744 188.674 227.459 188.796 226.588 188.853L225.574 188.91C225.456 188.929 225.335 188.929 225.217 188.91C225.33 188.87 225.448 188.846 225.567 188.838L226.574 188.71C227.452 188.61 228.716 188.453 230.286 188.239C233.407 187.81 237.712 187.103 242.424 186.032C247.137 184.961 251.299 183.719 254.298 182.741C255.798 182.255 257.011 181.848 257.868 181.556L258.832 181.234C258.928 181.187 259.029 181.149 259.132 181.12Z" fill="#FAFAFA"/>
<path d="M256.804 138.423C256.804 138.523 252.592 138.473 247.401 138.302C242.21 138.13 238.012 137.916 238.012 137.816C238.012 137.716 242.225 137.766 247.415 137.93C252.606 138.094 256.804 138.316 256.804 138.423Z" fill="#FAFAFA"/>
<path d="M206.489 182.42C206.214 180.049 206.061 177.666 206.032 175.28C205.877 172.903 205.848 170.519 205.946 168.14C206.221 170.51 206.374 172.893 206.403 175.28C206.558 177.656 206.587 180.04 206.489 182.42Z" fill="#FAFAFA"/>
<path d="M126.613 109.399C132.97 108.219 139.533 108.909 145.506 111.384C148.155 112.491 150.782 114.054 152.21 116.546C153.91 119.488 153.638 123.115 153.446 126.507C153.072 133.416 153.311 140.345 154.16 147.213C154.874 152.925 155.995 158.637 155.973 164.349C155.952 170.061 154.667 176.072 151.061 180.556C145.499 187.461 135.596 189.403 126.785 188.225C122.158 187.611 117.539 186.226 113.761 183.47C109.984 180.713 107.157 176.465 106.836 171.81" fill="#455A64"/>
<path d="M137.624 118.152C138.447 119.126 139.147 120.198 139.708 121.344C140.288 122.606 140.765 123.912 141.136 125.25C141.582 126.908 142.133 128.537 142.786 130.126C143.466 131.743 144.524 133.172 145.87 134.296C146.993 135.219 148.401 135.724 149.854 135.724C150.82 135.733 151.767 135.463 152.582 134.946C152.8 134.802 152.999 134.632 153.174 134.439C153.296 134.31 153.353 134.232 153.339 134.224C153.324 134.217 153.053 134.46 152.482 134.789C151.674 135.23 150.76 135.443 149.84 135.403C148.474 135.36 147.163 134.857 146.12 133.975C144.85 132.879 143.853 131.503 143.207 129.955C142.558 128.384 142 126.777 141.536 125.142C141.142 123.791 140.631 122.477 140.008 121.215C139.58 120.364 139.04 119.574 138.402 118.866C138.185 118.586 137.922 118.344 137.624 118.152Z" fill="#263238"/>
<path d="M140.144 187.781C140.199 187.6 140.235 187.413 140.251 187.225C140.308 186.806 140.38 186.263 140.465 185.597C140.644 184.169 140.879 182.141 141.179 179.613C141.715 174.551 142.357 167.554 142.914 159.814C143.471 152.074 143.807 145.049 143.992 139.958C144.085 137.416 144.142 135.36 144.164 133.939C144.164 133.268 144.164 132.725 144.164 132.304C144.186 132.114 144.186 131.922 144.164 131.732C144.124 131.918 144.102 132.107 144.099 132.296C144.099 132.725 144.035 133.26 143.992 133.932C143.914 135.41 143.807 137.452 143.671 139.943C143.4 145.027 143 152.039 142.457 159.778C141.915 167.518 141.308 174.515 140.858 179.578C140.637 182.069 140.458 184.104 140.33 185.575C140.272 186.246 140.23 186.789 140.201 187.21C140.16 187.398 140.141 187.589 140.144 187.781Z" fill="#263238"/>
<path d="M142.964 156.773C142.964 156.895 145.72 157.28 149.169 157.366C152.617 157.452 155.402 157.223 155.395 157.095C155.388 156.966 152.61 156.987 149.183 156.895C145.756 156.802 142.978 156.638 142.964 156.773Z" fill="#263238"/>
<path d="M145.206 157.08C144.927 157.453 144.733 157.882 144.635 158.337C144.48 158.804 144.356 159.281 144.264 159.765C144.185 160.084 144.185 160.417 144.264 160.736C144.318 160.93 144.425 161.106 144.574 161.242C144.723 161.378 144.908 161.47 145.106 161.507C145.218 161.524 145.332 161.516 145.441 161.484C145.55 161.452 145.65 161.396 145.734 161.321C145.887 161.185 145.99 161.001 146.027 160.8C146.077 160.488 146.077 160.17 146.027 159.858C145.977 159.355 145.882 158.858 145.742 158.372C145.658 157.911 145.467 157.476 145.185 157.101C145.213 157.559 145.292 158.011 145.42 158.451C145.506 158.923 145.563 159.4 145.592 159.879C145.631 160.144 145.631 160.414 145.592 160.679C145.535 160.921 145.385 161.057 145.192 161.028C144.699 160.943 144.592 160.314 144.692 159.822C144.792 159.329 144.871 158.787 144.956 158.394C145.095 157.968 145.179 157.527 145.206 157.08Z" fill="#263238"/>
<path d="M120.087 111.132L149.966 112.118C153.746 112.243 156.911 109.28 157.035 105.5L157.227 99.6914C157.352 95.9118 154.389 92.7468 150.609 92.6221L120.73 91.6361C116.951 91.5114 113.786 94.4742 113.661 98.2538L113.469 104.063C113.345 107.842 116.308 111.007 120.087 111.132Z" fill="#263238"/>
<path d="M149.897 92.9912C149.897 92.9912 149.818 92.9198 149.64 92.8341C149.375 92.71 149.094 92.6235 148.805 92.5771C147.726 92.4154 146.624 92.6217 145.677 93.1625C144.24 93.8753 143.019 94.9601 142.143 96.3041C141.136 97.9847 140.56 99.8879 140.465 101.845C140.277 103.807 140.677 105.78 141.615 107.514C142.386 108.93 143.565 110.082 144.999 110.82C145.952 111.315 147.003 111.593 148.076 111.634C148.367 111.646 148.659 111.631 148.947 111.591C149.049 111.588 149.149 111.564 149.24 111.519C149.24 111.477 148.826 111.519 148.091 111.448C147.059 111.343 146.06 111.027 145.156 110.52C143.81 109.781 142.711 108.664 141.993 107.307C141.121 105.639 140.754 103.754 140.936 101.88C141.028 99.9984 141.566 98.1651 142.507 96.5326C143.334 95.2387 144.48 94.179 145.834 93.4553C146.718 92.9144 147.75 92.6646 148.783 92.7413C149.511 92.8198 149.883 93.034 149.897 92.9912Z" fill="#455A64"/>
<path d="M133.082 91.9629L137.624 92.1914C136.375 92.3825 135.237 93.016 134.418 93.9764C133.608 94.9322 133.012 96.0494 132.668 97.2536C131.09 102.252 132.997 108.235 136.952 111.684L133.275 111.626C133.275 111.626 124.329 100.831 133.054 91.9629" fill="#455A64"/>
<path d="M110.891 83.4093C109.035 78.9182 108.935 71.1214 111.769 66.9873C114.604 62.8532 119.916 60.1757 124.793 59.1333C125.595 58.8866 126.454 58.8866 127.256 59.1333C127.647 59.2804 127.968 59.5691 128.156 59.9421C128.344 60.3151 128.385 60.7452 128.27 61.1468C129.218 60.4962 130.267 60.0088 131.376 59.7045C131.933 59.5471 132.521 59.5299 133.086 59.6545C133.652 59.7791 134.178 60.0415 134.617 60.4185C134.829 60.6124 135 60.8469 135.119 61.1082C135.239 61.3694 135.305 61.6519 135.313 61.939C135.321 62.2261 135.271 62.5119 135.166 62.7793C135.061 63.0468 134.904 63.2904 134.703 63.4958C135.39 63.241 136.137 63.194 136.851 63.3607C137.565 63.5274 138.213 63.9004 138.717 64.4333C139.22 64.9661 139.555 65.6353 139.681 66.3573C139.806 67.0794 139.716 67.8224 139.423 68.4938C138.755 69.8689 137.829 71.1027 136.695 72.1281C135.674 73.0706 135.503 74.0416 135.674 75.4196" fill="#263238"/>
<path d="M112.055 75.1766L110.77 102.651C110.717 103.759 110.889 104.865 111.277 105.904C111.665 106.943 112.26 107.891 113.026 108.693C113.792 109.494 114.713 110.132 115.733 110.566C116.753 111 117.851 111.223 118.96 111.219C121.058 111.209 123.072 110.392 124.586 108.938C126.1 107.484 126.997 105.505 127.092 103.408C127.185 101.338 127.27 99.6097 127.292 99.4026C127.292 99.4026 134.318 99.0742 135.146 92.177C135.546 88.8426 135.817 81.9096 135.981 75.6336C136.068 72.3829 134.928 69.2188 132.787 66.7711C130.646 64.3234 127.662 62.7716 124.429 62.4246L123.765 62.3532C116.553 61.9962 112.212 67.9367 112.055 75.1766Z" fill="#FFBE9D"/>
<path d="M127.335 99.3026C124.14 99.0203 121.103 97.7923 118.61 95.7754C118.61 95.7754 119.988 100.095 126.942 100.216L127.335 99.3026Z" fill="#EB996E"/>
<path d="M133.518 80.0391C133.492 80.2975 133.367 80.5356 133.168 80.7024C132.969 80.8693 132.713 80.9515 132.454 80.9316C132.328 80.928 132.203 80.8991 132.089 80.8465C131.974 80.7939 131.87 80.7187 131.785 80.6255C131.7 80.5322 131.634 80.4228 131.592 80.3036C131.55 80.1845 131.532 80.0581 131.54 79.932C131.565 79.675 131.69 79.438 131.887 79.2714C132.085 79.1047 132.339 79.0215 132.597 79.0395C132.723 79.0441 132.847 79.0737 132.962 79.1265C133.077 79.1793 133.18 79.2544 133.266 79.3473C133.351 79.4403 133.418 79.5493 133.461 79.668C133.504 79.7867 133.524 79.9129 133.518 80.0391Z" fill="#263238"/>
<path d="M134.153 78.8612C134.018 78.9754 133.332 78.3471 132.268 78.2328C131.205 78.1186 130.376 78.5684 130.276 78.4256C130.176 78.2828 130.369 78.14 130.741 77.933C131.234 77.6657 131.797 77.556 132.354 77.6188C132.907 77.677 133.427 77.9095 133.839 78.2828C134.139 78.5399 134.232 78.8112 134.153 78.8612Z" fill="#263238"/>
<path d="M123.044 79.2535C123.018 79.5105 122.894 79.7475 122.696 79.9141C122.499 80.0808 122.245 80.164 121.987 80.146C121.861 80.1414 121.737 80.1118 121.622 80.059C121.507 80.0062 121.404 79.9311 121.318 79.8382C121.232 79.7452 121.166 79.6362 121.123 79.5175C121.08 79.3988 121.06 79.2726 121.066 79.1464C121.09 78.8886 121.214 78.6505 121.411 78.4835C121.609 78.3165 121.865 78.234 122.123 78.2539C122.25 78.2565 122.375 78.2848 122.49 78.337C122.606 78.3891 122.71 78.4642 122.796 78.5575C122.882 78.6509 122.948 78.7606 122.991 78.8802C123.033 78.9998 123.051 79.1268 123.044 79.2535Z" fill="#263238"/>
<path d="M123.7 77.9331C123.565 78.0473 122.879 77.419 121.815 77.3047C120.752 77.1905 119.916 77.6403 119.816 77.4975C119.716 77.3547 119.916 77.2191 120.28 77.0049C120.776 76.7383 121.341 76.6287 121.901 76.6907C122.453 76.7522 122.972 76.9843 123.386 77.3547C123.679 77.6403 123.765 77.8831 123.7 77.9331Z" fill="#263238"/>
<path d="M126.706 86.2223C127.284 86.1026 127.874 86.0594 128.463 86.0937C128.734 86.0937 128.998 86.0937 129.062 85.8938C129.118 85.6171 129.086 85.33 128.97 85.0727L128.391 82.9307C127.592 79.8748 127.049 77.3687 127.17 77.3401C127.292 77.3115 128.041 79.7606 128.841 82.8236C129.027 83.5376 129.212 84.2945 129.384 84.9656C129.51 85.314 129.51 85.6954 129.384 86.0438C129.336 86.136 129.267 86.2157 129.183 86.2765C129.098 86.3372 129.001 86.3774 128.898 86.3936C128.744 86.4144 128.588 86.4144 128.434 86.3936C127.853 86.4121 127.272 86.3545 126.706 86.2223Z" fill="#263238"/>
<path d="M123.522 86.6226C123.693 86.6226 123.572 87.7793 124.472 88.7075C125.371 89.6357 126.614 89.6357 126.614 89.7999C126.614 89.9641 126.321 89.9927 125.8 89.9498C125.122 89.8882 124.489 89.5869 124.015 89.1002C123.559 88.6374 123.303 88.0146 123.301 87.3652C123.265 86.8796 123.422 86.6083 123.522 86.6226Z" fill="#263238"/>
<path d="M124.422 73.8061C124.286 74.0845 123.244 73.8061 121.98 73.8489C120.716 73.8917 119.674 74.0917 119.538 73.8489C119.481 73.7132 119.681 73.4633 120.116 73.2277C120.694 72.9357 121.333 72.7863 121.98 72.7922C122.625 72.786 123.263 72.9302 123.843 73.2134C124.279 73.4205 124.486 73.6704 124.422 73.8061Z" fill="#263238"/>
<path d="M134.096 75.7482C133.882 75.9695 133.182 75.6411 132.304 75.534C131.426 75.4269 130.662 75.534 130.519 75.2484C130.455 75.1198 130.598 74.8914 130.948 74.6986C131.411 74.4795 131.928 74.4006 132.435 74.4717C132.943 74.5427 133.418 74.7606 133.804 75.0984C134.118 75.3769 134.189 75.6411 134.096 75.7482Z" fill="#263238"/>
<path d="M112.098 80.3531C111.984 80.2889 107.507 78.4396 107.143 83.1734C106.779 87.9073 111.62 87.3004 111.634 87.1647C111.648 87.0291 112.098 80.3531 112.098 80.3531Z" fill="#FFBE9D"/>
<path d="M110.299 85.2587C110.299 85.2587 110.213 85.3087 110.063 85.3658C109.865 85.4424 109.646 85.4424 109.449 85.3658C109.157 85.1483 108.929 84.857 108.787 84.522C108.645 84.187 108.595 83.8202 108.642 83.4594C108.662 83.0526 108.772 82.6551 108.963 82.2956C109.019 82.1521 109.109 82.024 109.224 81.9221C109.34 81.8203 109.478 81.7476 109.627 81.7101C109.725 81.692 109.825 81.7085 109.911 81.7567C109.997 81.805 110.064 81.882 110.099 81.9743C110.156 82.11 110.099 82.2028 110.142 82.2099C110.184 82.2171 110.249 82.1385 110.227 81.9458C110.208 81.8261 110.15 81.7159 110.063 81.6316C109.939 81.5222 109.778 81.4658 109.613 81.4745C109.416 81.4985 109.228 81.5729 109.068 81.6904C108.908 81.808 108.781 81.9648 108.699 82.1457C108.464 82.5399 108.332 82.9866 108.314 83.4452C108.256 83.8653 108.324 84.2931 108.51 84.6744C108.695 85.0558 108.99 85.3734 109.356 85.5872C109.481 85.6345 109.616 85.6533 109.749 85.6422C109.882 85.631 110.012 85.5903 110.127 85.5229C110.277 85.373 110.313 85.2659 110.299 85.2587Z" fill="#EB996E"/>
<path d="M139.708 66.9234C139.794 73.1067 132.033 75.0916 128.998 71.4073C127.57 69.7009 126.392 67.6089 124.357 66.7378C123.661 66.4672 122.918 66.3386 122.171 66.3594C121.424 66.3803 120.689 66.5502 120.009 66.8592H119.966C117.938 67.7231 116.61 69.8937 116.139 72.0499C115.489 75.0559 115.768 77.7619 114.768 80.4966C114.666 80.9065 114.429 81.2707 114.097 81.5319C113.497 81.896 112.669 81.4747 112.262 80.9107C111.638 79.953 111.308 78.8336 111.313 77.6905C111.092 75.1067 111.388 72.5048 112.184 70.0365C112.99 67.5616 114.505 65.3772 116.539 63.7533C119.162 61.8178 122.433 60.9756 125.664 61.4042C128.884 61.8541 131.882 63.3053 134.232 65.5525C135.368 66.5413 136.239 67.7978 136.767 69.2082" fill="#263238"/>
<path d="M134.946 63.1601C135.168 63.1305 135.394 63.1575 135.603 63.2387C136.184 63.4332 136.698 63.7869 137.088 64.2597C137.69 64.947 138.042 65.8175 138.088 66.7301C138.096 67.8559 137.686 68.9448 136.938 69.786C136.219 70.627 135.279 71.2503 134.225 71.5853C133.376 71.8571 132.488 71.985 131.597 71.9637C131.003 71.953 130.41 71.8908 129.827 71.7781C129.607 71.757 129.394 71.694 129.198 71.5925C129.198 71.5282 130.119 71.7353 131.59 71.7067C132.45 71.6901 133.302 71.5433 134.118 71.2712C135.103 70.9338 135.98 70.3398 136.66 69.5504C137.349 68.777 137.734 67.7802 137.745 66.7444C137.723 65.8988 137.424 65.0838 136.895 64.4239C136.542 63.972 136.077 63.6201 135.546 63.4029C135.182 63.2172 134.946 63.1958 134.946 63.1601Z" fill="#455A64"/>
<path d="M131.947 60.7465C131.947 60.7465 132.126 60.7037 132.397 60.8608C132.579 60.9801 132.731 61.1379 132.845 61.323C132.959 61.5081 133.03 61.716 133.054 61.9318C133.1 62.5668 132.924 63.1981 132.554 63.7168C132.164 64.3543 131.683 64.9316 131.126 65.4304C130.111 66.3455 128.884 66.9934 127.556 67.3153C127.019 67.4824 126.452 67.5359 125.893 67.4724C125.893 67.401 126.521 67.3725 127.485 67.0654C128.736 66.6833 129.888 66.0327 130.862 65.1591C131.397 64.6829 131.87 64.1407 132.269 63.5454C132.612 63.0913 132.798 62.5371 132.797 61.9675C132.785 61.7793 132.736 61.5954 132.653 61.4263C132.569 61.2572 132.453 61.1062 132.311 60.9822C132.09 60.8108 131.94 60.7751 131.947 60.7465Z" fill="#455A64"/>
<path d="M111.869 128.213L114.09 111.976L82.1814 118.402L53.143 108.313L45.2961 116.382L76.1981 132.297C78.9542 133.613 82.0598 134.011 85.0588 133.432L111.869 128.213Z" fill="#FFBE9D"/>
<path d="M53.1429 108.314C53.1429 108.314 42.0402 103.001 41.3262 102.816C40.7765 102.673 32.3941 102.23 28.5742 102.03C28.2748 102.028 27.9853 102.137 27.7625 102.337C27.5398 102.537 27.3999 102.814 27.3704 103.112C27.3408 103.409 27.4238 103.708 27.603 103.948C27.7821 104.187 28.0445 104.352 28.3386 104.408H28.4814C30.6234 104.586 35.3072 105.657 35.3072 105.657L33.1652 110.655C33.0614 110.903 33.0437 111.178 33.1149 111.437C33.1861 111.696 33.3421 111.924 33.5579 112.083L40.0196 116.86C40.8657 117.245 41.7982 117.4 42.7232 117.31C43.6482 117.219 44.5332 116.887 45.2889 116.346L48.1449 116.932L53.1429 108.314Z" fill="#FFBE9D"/>
<path d="M33.1438 110.97C33.3437 111.905 35.5714 113.826 37.2636 113.826C37.6368 113.832 37.9995 113.703 38.2846 113.462C38.4199 113.335 38.5145 113.171 38.5565 112.991C38.5984 112.81 38.5858 112.621 38.5202 112.448C38.401 112.235 38.232 112.053 38.0276 111.92L34.2719 108.971" fill="#FFBE9D"/>
<path d="M34.2719 108.971C34.8315 109.27 35.3601 109.624 35.8498 110.027L37.4992 111.263C37.8133 111.505 38.1275 111.712 38.4702 112.027C38.5688 112.118 38.6479 112.228 38.7031 112.351C38.7583 112.474 38.7884 112.606 38.7915 112.741C38.7923 113 38.7041 113.252 38.5416 113.455C38.3775 113.639 38.1729 113.784 37.9438 113.877C37.7147 113.97 37.4673 114.009 37.2207 113.99C36.7938 113.968 36.3748 113.867 35.9855 113.69C35.339 113.412 34.7431 113.028 34.2219 112.555C33.8664 112.241 33.5606 111.875 33.3151 111.47C33.1509 111.17 33.1438 110.97 33.1652 110.97C33.1866 110.97 33.2437 111.134 33.4365 111.391C33.7156 111.75 34.0368 112.073 34.3933 112.355C34.9138 112.778 35.4935 113.122 36.114 113.376C36.4699 113.525 36.8495 113.61 37.235 113.626C37.4232 113.64 37.6122 113.612 37.7878 113.542C37.9634 113.473 38.1211 113.365 38.2489 113.226C38.3634 113.096 38.4265 112.928 38.4265 112.755C38.4265 112.581 38.3634 112.414 38.2489 112.284C37.9776 112.027 37.6134 111.777 37.3278 111.57L35.6999 110.234C35.1799 109.866 34.7012 109.442 34.2719 108.971Z" fill="#EB996E"/>
<path d="M42.1259 113.855C42.1259 113.855 41.876 113.726 41.6475 113.369C41.3492 112.895 41.1817 112.351 41.162 111.791C41.1333 111.236 41.2489 110.682 41.4976 110.185C41.6975 109.806 41.8974 109.628 41.9331 109.656C41.692 110.346 41.5572 111.068 41.5333 111.798C41.6239 112.51 41.8238 113.204 42.1259 113.855Z" fill="#EB996E"/>
<path d="M37.6705 111.291C37.8246 111.581 38.0741 111.81 38.3769 111.937C38.6798 112.065 39.0174 112.084 39.3328 111.992C39.6483 111.9 39.9222 111.702 40.1085 111.431C40.2947 111.16 40.3818 110.833 40.3551 110.506C40.2916 110.108 40.1473 109.727 39.9312 109.387C39.7151 109.047 39.4317 108.755 39.0985 108.528L36.321 106.015" fill="#FFBE9D"/>
<path d="M36.321 105.986C36.7422 106.232 37.1328 106.527 37.4849 106.865L38.6772 107.886C39.1972 108.297 39.6755 108.759 40.1052 109.264C40.3263 109.552 40.4734 109.89 40.5336 110.249C40.59 110.596 40.5244 110.952 40.348 111.256C40.2109 111.513 40.0046 111.727 39.7522 111.874C39.4999 112.02 39.2116 112.093 38.92 112.084C38.5378 112.066 38.1762 111.905 37.9061 111.634C37.7205 111.441 37.6776 111.298 37.6919 111.291C37.7062 111.284 37.8062 111.384 37.9989 111.527C38.2689 111.722 38.5943 111.824 38.9271 111.82C39.1608 111.812 39.388 111.741 39.5852 111.616C39.7824 111.49 39.9422 111.314 40.0481 111.106C40.1687 110.842 40.21 110.549 40.1668 110.263C40.1237 109.976 39.9981 109.708 39.8054 109.492C39.3949 109.014 38.9485 108.567 38.4702 108.157L37.3278 107.072C36.9445 106.757 36.6058 106.392 36.321 105.986Z" fill="#EB996E"/>
<path d="M42.4331 105.564C40.1929 106.1 38.0541 106.994 36.0999 108.213C35.9749 108.274 35.8761 108.378 35.8215 108.506C35.7643 108.692 35.9071 108.87 36.0571 108.992C36.6724 109.408 37.4213 109.579 38.1562 109.47C38.8799 109.355 39.6092 109.278 40.3411 109.242C41.612 109.242 42.783 109.877 44.011 110.22C45.2391 110.562 46.7242 110.548 47.581 109.591" fill="#FFBE9D"/>
<path d="M47.5666 109.591C47.5666 109.591 47.5666 109.663 47.4524 109.763C47.317 109.909 47.1606 110.034 46.9883 110.134C46.3345 110.49 45.5824 110.623 44.8463 110.512C43.798 110.332 42.7698 110.05 41.7761 109.67C41.2011 109.491 40.6002 109.409 39.9982 109.427C39.3699 109.463 38.7202 109.62 38.0062 109.663C37.2941 109.746 36.5755 109.574 35.9784 109.177C35.805 109.067 35.678 108.897 35.6214 108.699C35.5934 108.575 35.6138 108.444 35.6785 108.335C35.7349 108.25 35.8077 108.177 35.8927 108.121C36.1712 107.942 36.4282 107.799 36.6924 107.649C37.6062 107.127 38.5614 106.68 39.5484 106.314C40.2178 106.064 40.9022 105.857 41.5976 105.693C41.8501 105.615 42.1118 105.572 42.3758 105.564C42.3758 105.629 41.2977 105.879 39.6412 106.557C38.6737 106.955 37.7339 107.418 36.8281 107.942C36.5782 108.092 36.3068 108.256 36.0641 108.413C35.9498 108.499 35.9141 108.549 35.9356 108.62C35.9773 108.731 36.0553 108.824 36.1569 108.885C36.6892 109.223 37.3226 109.367 37.949 109.292C38.6131 109.249 39.2771 109.099 39.9411 109.07C40.585 109.051 41.2274 109.143 41.8403 109.342C42.8127 109.729 43.8158 110.035 44.8391 110.255C45.522 110.372 46.224 110.288 46.8598 110.013C47.1031 109.886 47.3392 109.745 47.5666 109.591Z" fill="#EB996E"/>
<path d="M82.6739 124C82.0519 122.155 81.9947 120.166 82.5097 118.288C82.6168 118.288 82.5097 119.588 82.5097 121.144C82.5097 122.701 82.781 123.979 82.6739 124Z" fill="#EB996E"/>
<path d="M110.599 104.444L101.545 114.647C101.545 114.647 96.7042 149.883 96.3614 152.653C96.0187 155.423 95.0976 164.263 95.0976 166.683C95.0976 169.104 93.0913 186.404 93.0913 186.404C93.0913 186.404 131.512 194.386 137.945 186.404L135.938 171.588L137.681 134.839C137.681 134.839 140.537 109.328 127.113 103.423C127.092 103.409 118.61 108.528 110.599 104.444Z" fill="#7ECDCE"/>
<path d="M133.282 107.022C133.282 107.022 130.633 104.408 122.165 106.6C113.247 108.907 108.542 117.253 110.741 140.872C112.569 160.365 120.273 163.164 120.273 163.164C120.273 163.164 116.053 133.768 116.782 121.473C117.696 105.944 133.268 109.806 133.268 109.806C135.496 109.107 133.282 107.022 133.282 107.022Z" fill="#263238"/>
<path d="M110.599 104.443L102.773 106.6L85.166 117.381L90.1783 133.303L100.517 132.168L110.599 104.443Z" fill="#7ECDCE"/>
<path d="M100.41 115.496C100.517 115.496 100.067 121.208 99.4174 128.205C98.7676 135.203 98.1536 140.9 98.0536 140.886C97.9537 140.872 98.3964 135.174 99.0461 128.177C99.6958 121.18 100.31 115.489 100.41 115.496Z" fill="#263238"/>
<path d="M136.253 164.984C136.253 164.984 133.754 173.016 124.921 159.75C116.089 146.484 117.324 152.417 117.324 152.417L115.518 154.559C115.518 154.559 125.236 176.444 136.138 173.016L136.253 164.984Z" fill="#263238"/>
<path opacity="0.3" d="M100.053 119.323L93.0913 132.982L98.8461 132.354L100.053 119.323Z" fill="black"/>
<g opacity="0.3">
<path d="M96.8611 155.587C101.985 161.163 108.036 165.809 114.747 169.318C117.553 170.788 120.659 172.081 123.8 171.674C127.256 171.231 130.226 168.732 131.847 165.655C133.468 162.577 133.275 161.092 133.639 157.637C134.068 153.824 134.068 148.733 134.268 145.256C134.268 144.642 134.31 143.928 134.31 143.249C134.31 142.515 134.547 141.8 134.986 141.211C135.424 140.622 136.041 140.19 136.745 139.979C136.745 139.979 134.603 138.987 133.225 139.187C131.847 139.387 130.748 140.565 130.012 141.779C126.092 148.24 127.799 157.715 120.323 161.771C117.852 163.033 115.034 163.447 112.305 162.949C106.186 161.949 101.502 157.951 96.9896 154.009" fill="black"/>
</g>
<path d="M105.315 142.214C107.188 142.214 108.706 137.649 108.706 132.018C108.706 126.387 107.188 121.822 105.315 121.822C103.442 121.822 101.923 126.387 101.923 132.018C101.923 137.649 103.442 142.214 105.315 142.214Z" fill="#FAFAFA"/>
<path d="M107.1 309.348L107.878 326.134C107.878 326.134 91.0778 332.56 90.9136 335.68L123.515 335.344L123.379 309.141L107.1 309.348Z" fill="#7ECDCE"/>
<g opacity="0.6">
<path d="M117.974 324.62C118.287 324.713 118.556 324.918 118.728 325.196C118.9 325.474 118.965 325.805 118.909 326.127C118.828 326.445 118.628 326.719 118.351 326.895C118.073 327.07 117.739 327.132 117.417 327.069C117.086 326.967 116.803 326.747 116.622 326.452C116.441 326.156 116.373 325.805 116.432 325.463C116.553 325.141 116.793 324.877 117.103 324.727C117.412 324.577 117.768 324.552 118.095 324.656" fill="white"/>
</g>
<path opacity="0.6" d="M123.522 335.344V332.73L92.2058 334.016C92.2058 334.016 90.7778 334.658 90.9349 335.679L123.522 335.344Z" fill="white"/>
<path d="M107.371 325.977C107.371 326.134 108.178 326.198 108.964 326.691C109.749 327.183 110.177 327.854 110.327 327.79C110.477 327.726 110.227 326.812 109.256 326.219C108.285 325.627 107.336 325.827 107.371 325.977Z" fill="#263238"/>
<path d="M103.973 327.425C103.937 327.583 104.629 327.847 105.172 328.511C105.715 329.175 105.886 329.889 106.043 329.882C106.2 329.874 106.293 328.968 105.6 328.154C104.908 327.34 103.973 327.275 103.973 327.425Z" fill="#263238"/>
<path d="M102.102 331.539C102.245 331.539 102.459 330.775 102.038 329.904C101.617 329.033 100.874 328.697 100.81 328.833C100.745 328.968 101.21 329.425 101.524 330.147C101.838 330.868 101.909 331.525 102.102 331.539Z" fill="#263238"/>
<path d="M107.621 322.128C107.693 322.278 108.421 322.05 109.321 322.128C110.22 322.207 110.92 322.457 111.006 322.321C111.091 322.185 110.406 321.607 109.342 321.571C108.278 321.536 107.543 322.014 107.621 322.128Z" fill="#263238"/>
<path opacity="0.3" d="M107.286 312.675L107.421 315.666L123.443 315.352L123.436 312.653L107.286 312.675Z" fill="black"/>
<path d="M107.528 318.743C108.063 318.891 108.628 318.891 109.163 318.743C109.749 318.63 110.32 318.448 110.863 318.201C111.185 318.053 111.498 317.883 111.798 317.694C111.976 317.587 112.139 317.458 112.284 317.308C112.384 317.192 112.445 317.047 112.456 316.894C112.468 316.741 112.43 316.588 112.348 316.459C112.266 316.346 112.159 316.255 112.035 316.193C111.91 316.131 111.773 316.099 111.634 316.102C111.425 316.1 111.218 316.131 111.02 316.195C110.673 316.279 110.336 316.398 110.013 316.552C109.463 316.802 108.957 317.14 108.514 317.551C107.764 318.265 107.514 318.858 107.571 318.893C107.628 318.929 108.007 318.436 108.771 317.851C109.211 317.515 109.69 317.234 110.199 317.016C110.503 316.894 110.816 316.794 111.134 316.716C111.477 316.623 111.777 316.623 111.848 316.773C111.919 316.923 111.848 316.851 111.812 316.958C111.709 317.07 111.588 317.164 111.455 317.237C111.179 317.422 110.893 317.591 110.599 317.744C110.095 317.998 109.569 318.206 109.028 318.365C108.52 318.456 108.019 318.583 107.528 318.743Z" fill="#263238"/>
<path d="M107.735 318.965C108.044 318.499 108.189 317.944 108.15 317.387C108.173 316.783 108.091 316.179 107.907 315.602C107.801 315.26 107.66 314.93 107.485 314.617C107.396 314.402 107.252 314.214 107.068 314.072C106.884 313.929 106.666 313.836 106.436 313.803C106.29 313.8 106.146 313.843 106.025 313.925C105.904 314.006 105.81 314.123 105.758 314.26C105.674 314.451 105.619 314.653 105.593 314.86C105.536 315.224 105.536 315.595 105.593 315.959C105.689 316.571 105.935 317.15 106.307 317.644C106.95 318.48 107.621 318.665 107.628 318.608C107.635 318.551 107.129 318.23 106.629 317.423C106.344 316.958 106.163 316.436 106.1 315.895C106.058 315.58 106.058 315.26 106.1 314.945C106.15 314.603 106.279 314.317 106.407 314.353C106.536 314.388 106.85 314.61 106.986 314.881C107.15 315.163 107.288 315.459 107.4 315.766C107.584 316.289 107.694 316.834 107.728 317.387C107.814 318.344 107.65 318.944 107.735 318.965Z" fill="#263238"/>
<path d="M138.716 299.165L151.896 309.583C151.896 309.583 145.734 326.483 147.984 328.647L169.104 303.814L149.226 286.728L138.716 299.165Z" fill="#7ECDCE"/>
<g opacity="0.6">
<path d="M157.351 300.987C157.627 300.809 157.959 300.74 158.283 300.791C158.606 300.842 158.9 301.011 159.108 301.265C159.294 301.534 159.37 301.865 159.321 302.189C159.272 302.512 159.101 302.805 158.843 303.007C158.549 303.19 158.199 303.259 157.858 303.203C157.516 303.146 157.207 302.968 156.987 302.7C156.819 302.399 156.776 302.044 156.865 301.711C156.954 301.378 157.17 301.092 157.465 300.915" fill="white"/>
</g>
<path opacity="0.6" d="M169.104 303.807L167.126 302.101L147.555 326.591C147.555 326.591 147.098 328.104 147.984 328.64L169.104 303.807Z" fill="white"/>
<path d="M151.425 309.876C151.554 309.976 152.139 309.412 153.024 309.162C153.91 308.912 154.702 309.012 154.745 308.862C154.788 308.712 153.938 308.291 152.86 308.634C151.782 308.977 151.296 309.805 151.425 309.876Z" fill="#263238"/>
<path d="M150.29 313.396C150.383 313.525 151.004 313.175 151.903 313.196C152.803 313.218 153.41 313.568 153.503 313.439C153.596 313.311 152.982 312.654 151.911 312.647C150.84 312.639 150.176 313.296 150.29 313.396Z" fill="#263238"/>
<path d="M152.146 317.523C152.268 317.437 151.803 316.752 150.875 316.502C149.947 316.252 149.205 316.588 149.262 316.723C149.319 316.859 149.976 316.816 150.732 317.038C151.489 317.259 152.032 317.637 152.146 317.523Z" fill="#263238"/>
<path d="M148.69 307.162C148.84 307.205 149.147 306.512 149.776 305.863C150.404 305.213 151.075 304.87 151.025 304.713C150.975 304.556 150.104 304.713 149.376 305.484C148.647 306.255 148.512 307.141 148.69 307.162Z" fill="#263238"/>
<path opacity="0.3" d="M141.329 301.215L143.678 303.079L153.945 290.776L151.903 289.013L141.329 301.215Z" fill="black"/>
<path d="M146.07 305.013C146.113 305.056 146.598 304.642 147.12 303.764C147.423 303.247 147.663 302.696 147.834 302.122C147.931 301.782 148.007 301.436 148.062 301.086C148.092 300.88 148.092 300.671 148.062 300.465C148.041 300.313 147.971 300.172 147.863 300.062C147.755 299.953 147.614 299.881 147.462 299.858C147.329 299.85 147.195 299.871 147.071 299.922C146.948 299.973 146.837 300.051 146.748 300.151C146.612 300.308 146.499 300.484 146.413 300.672C146.255 300.994 146.124 301.329 146.02 301.672C145.853 302.254 145.778 302.859 145.799 303.464C145.762 304.019 145.897 304.573 146.184 305.049C146.277 305.049 146.134 304.428 146.184 303.464C146.239 302.576 146.483 301.709 146.898 300.922C147.055 300.601 147.241 300.38 147.412 300.408C147.584 300.437 147.498 300.408 147.534 300.551C147.554 300.705 147.554 300.861 147.534 301.015C147.488 301.342 147.426 301.666 147.348 301.986C147.211 302.536 147.022 303.071 146.784 303.585C146.508 304.041 146.269 304.519 146.07 305.013Z" fill="#263238"/>
<path d="M146.37 305.006C146.42 305.006 146.192 304.364 145.449 303.657C145.007 303.243 144.497 302.908 143.942 302.665C143.612 302.521 143.267 302.411 142.914 302.336C142.693 302.265 142.458 302.251 142.23 302.298C142.002 302.344 141.79 302.448 141.615 302.6C141.523 302.713 141.465 302.849 141.448 302.993C141.43 303.137 141.453 303.283 141.515 303.414C141.607 303.601 141.725 303.774 141.865 303.928C142.106 304.207 142.388 304.447 142.7 304.642C143.224 304.967 143.82 305.161 144.435 305.206C145.492 305.263 146.07 304.885 146.034 304.835C145.519 304.872 145.001 304.872 144.485 304.835C143.946 304.744 143.432 304.54 142.979 304.235C142.712 304.058 142.472 303.844 142.265 303.6C142.036 303.336 141.908 303.057 142.015 302.979C142.131 302.91 142.26 302.867 142.395 302.853C142.529 302.838 142.664 302.852 142.793 302.893C143.112 302.955 143.424 303.043 143.728 303.157C144.239 303.363 144.719 303.637 145.156 303.971C145.956 304.535 146.299 305.056 146.37 305.006Z" fill="#263238"/>
<path d="M102.166 238.333C102.166 238.333 103.037 198.235 102.166 198.235C101.295 198.235 95.112 194.708 95.112 194.708L87.3865 254.291C87.3865 254.291 86.6725 260.981 94.9692 265.715C103.266 270.449 140.258 303.336 140.258 303.336L152.796 288.064C152.796 288.064 128.441 262.681 118.524 254.291C110.67 247.758 102.166 238.333 102.166 238.333Z" fill="#263238"/>
<path d="M124.85 228.986L125.7 222.639C125.7 222.639 131.797 209.787 132.668 204.318C133.539 198.849 132.968 186.996 132.968 186.996H94.4478C94.4478 186.996 94.612 230.486 99.2601 242.688C99.2601 242.688 101.616 266.036 101.966 267.992C102.68 272.148 105.272 314.659 105.272 314.659L124.693 313.945C124.693 313.945 126.378 274.861 125.028 263.765C124.364 258.268 124.05 252.413 123.9 247.572C123.717 241.361 124.035 235.146 124.85 228.986Z" fill="#263238"/>
<path d="M95.4974 199.685C95.5047 199.746 95.5047 199.809 95.4974 199.87C95.4974 200.02 95.4974 200.206 95.5331 200.434C95.5331 200.955 95.5903 201.684 95.6331 202.576C95.7045 204.454 95.8473 207.174 96.0401 210.53C96.4256 217.242 97.1468 226.502 98.1821 236.705C99.2174 246.909 100.381 256.126 101.202 262.802C101.609 266.115 101.916 268.807 102.166 270.706C102.273 271.62 102.359 272.334 102.416 272.848C102.416 273.077 102.459 273.262 102.473 273.412C102.487 273.562 102.473 273.605 102.473 273.605C102.45 273.545 102.433 273.483 102.423 273.419L102.338 272.862L102.016 270.72C101.759 268.828 101.388 266.137 100.931 262.831C100.046 256.162 98.8675 246.944 97.8036 236.734C96.7398 226.524 96.0686 217.256 95.7473 210.537C95.5831 207.174 95.4903 204.454 95.4617 202.576C95.4617 201.655 95.4617 200.934 95.426 200.434V199.877C95.4431 199.811 95.467 199.746 95.4974 199.685Z" fill="#455A64"/>
<path d="M123.865 251.156C123.92 251.362 123.958 251.572 123.979 251.785C124.036 252.227 124.122 252.834 124.229 253.598C124.422 255.183 124.664 257.475 124.886 260.31C125.343 265.986 125.685 273.876 125.814 282.529C125.942 291.183 125.814 299.087 125.471 304.771C125.328 307.627 125.143 309.911 124.993 311.496C124.907 312.26 124.836 312.867 124.786 313.317C124.771 313.531 124.74 313.743 124.693 313.953C124.674 313.739 124.674 313.524 124.693 313.31C124.729 312.86 124.771 312.253 124.829 311.482C124.936 309.897 125.078 307.598 125.193 304.756C125.428 299.08 125.528 291.19 125.421 282.537C125.314 273.883 124.993 266 124.6 260.331C124.414 257.475 124.214 255.197 124.065 253.612C123.986 252.848 123.922 252.242 123.879 251.792C123.857 251.581 123.852 251.368 123.865 251.156Z" fill="#455A64"/>
<path d="M131.44 106.129C131.44 106.129 137.745 107.807 139.087 117.203C140.429 126.599 137.945 129.284 137.945 129.284C137.945 129.284 138.966 111.791 131.133 109.406L131.44 106.472" fill="#263238"/>
<path d="M88.486 136.816L55.9419 136.181L56.3203 137.759L88.3289 138.23L88.486 136.816Z" fill="#263238"/>
<path d="M127.949 109.078C126.728 108.78 125.443 108.893 124.293 109.399C121.658 110.506 116.832 113.683 116.489 122.708L115.932 137.252L136.745 139.98C136.745 139.98 138.516 111.891 127.949 109.078Z" fill="#7ECDCE"/>
<path d="M89.6426 139.894L116.061 147.833L116.453 137.209L132.261 139.508L131.376 156.787C131.286 159.253 130.388 161.621 128.821 163.526C127.253 165.432 125.103 166.769 122.701 167.333C119.938 167.978 117.034 167.558 114.568 166.155L86.5295 150.211L89.6426 139.894Z" fill="#FFBE9D"/>
<path d="M136.745 139.979C136.745 139.979 136.745 139.887 136.745 139.73C136.745 139.572 136.745 139.315 136.709 139.016C136.709 138.38 136.659 137.488 136.617 136.345C136.545 134.025 136.438 130.712 136.31 126.62C136.245 124.578 136.181 122.336 136.117 119.937C136.117 119.338 136.081 118.724 136.06 118.102C136.06 117.803 136.003 117.496 135.967 117.181C135.931 116.867 135.86 116.567 135.774 116.26C135.248 114.269 134.098 112.497 132.494 111.205C130.89 109.913 128.914 109.167 126.856 109.078C125.378 109.063 123.927 109.477 122.679 110.27C121.39 111.091 120.29 112.177 119.452 113.454C118.255 115.292 117.446 117.355 117.074 119.516C116.71 121.588 116.492 123.683 116.425 125.785C116.31 129.883 116.203 133.739 116.103 137.245L115.968 137.081L131.012 139.137L135.239 139.73L136.374 139.944L135.281 139.822L131.076 139.308L115.903 137.409H115.768V137.266C115.854 133.753 115.918 129.905 116.053 125.799C116.11 123.678 116.323 121.564 116.689 119.473C117.067 117.262 117.896 115.153 119.124 113.276C119.991 111.954 121.13 110.832 122.465 109.984C123.772 109.153 125.293 108.721 126.842 108.742C128.293 108.804 129.712 109.182 131.001 109.851C132.29 110.519 133.417 111.462 134.303 112.612C135.132 113.668 135.735 114.883 136.074 116.182C136.153 116.496 136.203 116.817 136.267 117.139C136.331 117.46 136.331 117.774 136.36 118.095C136.36 118.717 136.36 119.338 136.402 119.945C136.452 122.372 136.495 124.636 136.538 126.699C136.609 130.797 136.667 134.117 136.709 136.438C136.709 137.559 136.709 138.444 136.745 139.066V139.78C136.752 139.846 136.752 139.913 136.745 139.979Z" fill="#263238"/>
<path d="M90.1781 140.208L83.8377 135.517C82.6811 134.66 80.8818 134.803 79.4466 134.71C76.5906 134.453 71.9282 136.138 71.7497 136.467L73.6632 137.995L61.3396 137.616C61.7625 138.455 62.4047 139.163 63.198 139.666C63.9913 140.169 64.906 140.448 65.8449 140.472C65.8449 140.472 66.2376 143.257 69.8148 143.785C69.8148 143.785 70.743 146.041 72.735 146.698C72.735 146.698 73.1277 149.219 76.305 149.083L87.1079 150.29L90.1781 140.208Z" fill="#FFBE9D"/>
<path d="M73.5419 140.908C72.2417 141.021 70.9336 141.007 69.6363 140.865C68.3334 140.856 67.0347 140.717 65.7593 140.451C67.0573 140.346 68.3623 140.361 69.6577 140.494C70.9624 140.512 72.2626 140.651 73.5419 140.908Z" fill="#EB996E"/>
<path d="M76.6693 143.878C75.5416 144.061 74.3974 144.123 73.2564 144.064C72.1154 144.123 70.9713 144.061 69.8435 143.878C70.9708 143.691 72.1154 143.628 73.2564 143.692C74.3974 143.628 75.542 143.691 76.6693 143.878Z" fill="#EB996E"/>
<path d="M80.0179 146.677C78.8906 146.864 77.746 146.926 76.605 146.862C75.4664 146.926 74.3241 146.864 73.1992 146.677C74.3246 146.493 75.4664 146.431 76.605 146.491C77.746 146.431 78.8901 146.493 80.0179 146.677Z" fill="#EB996E"/>
<path d="M117.81 153.224C117.289 152.425 116.894 151.551 116.639 150.632C116.256 149.757 116.015 148.827 115.925 147.876C116.36 148.716 116.707 149.599 116.96 150.511C117.339 151.382 117.624 152.292 117.81 153.224Z" fill="#EB996E"/>
<path d="M119.688 152.196C118.954 151.517 118.287 150.768 117.696 149.962C117.008 149.238 116.394 148.449 115.861 147.605C116.68 148.205 117.403 148.928 118.003 149.747C118.681 150.477 119.249 151.302 119.688 152.196Z" fill="#EB996E"/>
</svg>
