<svg width="360" height="1280" viewBox="0 0 360 1280" fill="none" xmlns="http://www.w3.org/2000/svg">
<g clip-path="url(#clip0_376_22)">
<path d="M-124.723 736.534L-54.8872 399.198C-48.5031 368.373 -18.3382 348.566 12.485 354.954C43.3142 361.347 63.1313 391.516 56.7522 422.335L24.3553 578.817C17.9712 609.643 37.7933 639.806 68.6224 646.199C99.4516 652.592 129.61 632.78 135.995 601.955L234.26 127.304C240.644 96.4791 270.809 76.6723 301.632 83.0604C332.455 89.4485 352.279 119.622 345.899 150.442L319.33 278.76C312.946 309.586 332.768 339.749 363.598 346.142C394.427 352.535 424.586 332.723 430.97 301.898L496.032 -12.3548" stroke="#253A74" stroke-width="7" stroke-linecap="round" stroke-linejoin="round" stroke-dasharray="11.97 11.97"/>
<path d="M-0.559514 1182.23L0.384849 1177.65" stroke="#253A74" stroke-width="7" stroke-linecap="round" stroke-linejoin="round"/>
<path d="M2.27675 1168.53L72.1128 831.198C78.4969 800.373 108.662 780.566 139.485 786.954C170.314 793.347 190.131 823.516 183.752 854.335L151.355 1010.82C144.971 1041.64 164.793 1071.81 195.622 1078.2C226.452 1084.59 256.61 1064.78 262.995 1033.95L361.26 559.304C367.644 528.479 397.809 508.672 428.632 515.06C459.455 521.448 479.279 551.622 472.899 582.442L446.33 710.76C439.946 741.586 459.768 771.749 490.598 778.142C521.427 784.535 551.586 764.723 557.97 733.898L623.032 419.645" stroke="#253A74" stroke-width="7" stroke-linecap="round" stroke-linejoin="round" stroke-dasharray="11.97 11.97"/>
<path d="M42.4457 391.905C54.2898 391.905 63.8914 382.3 63.8914 370.452C63.8914 358.605 54.2898 349 42.4457 349C30.6016 349 21 358.605 21 370.452C21 382.3 30.6016 391.905 42.4457 391.905Z" fill="#7ECDCE"/>
<path d="M247.446 124.905C259.29 124.905 268.891 115.3 268.891 103.452C268.891 91.6045 259.29 82 247.446 82C235.602 82 226 91.6045 226 103.452C226 115.3 235.602 124.905 247.446 124.905Z" fill="#7ECDCE"/>
<path d="M338.446 703.905C350.29 703.905 359.891 694.3 359.891 682.452C359.891 670.605 350.29 661 338.446 661C326.602 661 317 670.605 317 682.452C317 694.3 326.602 703.905 338.446 703.905Z" fill="#7ECDCE"/>
<path d="M159.446 1080.9C171.29 1080.9 180.891 1071.3 180.891 1059.45C180.891 1047.6 171.29 1038 159.446 1038C147.602 1038 138 1047.6 138 1059.45C138 1071.3 147.602 1080.9 159.446 1080.9Z" fill="#7ECDCE"/>
<path d="M52.8084 304V287.2H60.4404C62.2644 287.2 63.8724 287.552 65.2644 288.256C66.6564 288.944 67.7444 289.912 68.5284 291.16C69.3124 292.408 69.7044 293.888 69.7044 295.6C69.7044 297.296 69.3124 298.776 68.5284 300.04C67.7444 301.288 66.6564 302.264 65.2644 302.968C63.8724 303.656 62.2644 304 60.4404 304H52.8084ZM56.6964 300.808H60.2484C61.3684 300.808 62.3364 300.6 63.1524 300.184C63.9844 299.752 64.6244 299.144 65.0724 298.36C65.5364 297.576 65.7684 296.656 65.7684 295.6C65.7684 294.528 65.5364 293.608 65.0724 292.84C64.6244 292.056 63.9844 291.456 63.1524 291.04C62.3364 290.608 61.3684 290.392 60.2484 290.392H56.6964V300.808ZM72.3725 304V291.088H76.1165V304H72.3725ZM74.2445 289.288C73.5565 289.288 72.9965 289.088 72.5645 288.688C72.1325 288.288 71.9165 287.792 71.9165 287.2C71.9165 286.608 72.1325 286.112 72.5645 285.712C72.9965 285.312 73.5565 285.112 74.2445 285.112C74.9325 285.112 75.4925 285.304 75.9245 285.688C76.3565 286.056 76.5725 286.536 76.5725 287.128C76.5725 287.752 76.3565 288.272 75.9245 288.688C75.5085 289.088 74.9485 289.288 74.2445 289.288ZM83.0953 304L77.6713 291.088H81.5353L86.0473 302.2H84.1273L88.8073 291.088H92.4073L86.9593 304H83.0953ZM93.935 304V291.088H97.679V304H93.935ZM95.807 289.288C95.119 289.288 94.559 289.088 94.127 288.688C93.695 288.288 93.479 287.792 93.479 287.2C93.479 286.608 93.695 286.112 94.127 285.712C94.559 285.312 95.119 285.112 95.807 285.112C96.495 285.112 97.055 285.304 97.487 285.688C97.919 286.056 98.135 286.536 98.135 287.128C98.135 287.752 97.919 288.272 97.487 288.688C97.071 289.088 96.511 289.288 95.807 289.288ZM106.698 304.192C105.482 304.192 104.386 303.92 103.41 303.376C102.434 302.816 101.658 302.04 101.082 301.048C100.522 300.056 100.242 298.888 100.242 297.544C100.242 296.184 100.522 295.008 101.082 294.016C101.658 293.024 102.434 292.256 103.41 291.712C104.386 291.168 105.482 290.896 106.698 290.896C107.786 290.896 108.738 291.136 109.554 291.616C110.37 292.096 111.002 292.824 111.45 293.8C111.898 294.776 112.122 296.024 112.122 297.544C112.122 299.048 111.906 300.296 111.474 301.288C111.042 302.264 110.418 302.992 109.602 303.472C108.802 303.952 107.834 304.192 106.698 304.192ZM107.346 301.12C107.954 301.12 108.506 300.976 109.002 300.688C109.498 300.4 109.89 299.992 110.178 299.464C110.482 298.92 110.634 298.28 110.634 297.544C110.634 296.792 110.482 296.152 110.178 295.624C109.89 295.096 109.498 294.688 109.002 294.4C108.506 294.112 107.954 293.968 107.346 293.968C106.722 293.968 106.162 294.112 105.666 294.4C105.17 294.688 104.77 295.096 104.466 295.624C104.178 296.152 104.034 296.792 104.034 297.544C104.034 298.28 104.178 298.92 104.466 299.464C104.77 299.992 105.17 300.4 105.666 300.688C106.162 300.976 106.722 301.12 107.346 301.12ZM110.73 304V301.36L110.802 297.52L110.562 293.704V286.192H114.306V304H110.73ZM124.179 304.192C122.707 304.192 121.411 303.904 120.291 303.328C119.187 302.752 118.331 301.968 117.723 300.976C117.115 299.968 116.811 298.824 116.811 297.544C116.811 296.248 117.107 295.104 117.699 294.112C118.307 293.104 119.131 292.32 120.171 291.76C121.211 291.184 122.387 290.896 123.699 290.896C124.963 290.896 126.099 291.168 127.107 291.712C128.131 292.24 128.939 293.008 129.531 294.016C130.123 295.008 130.419 296.2 130.419 297.592C130.419 297.736 130.411 297.904 130.395 298.096C130.379 298.272 130.363 298.44 130.347 298.6H119.859V296.416H128.379L126.939 297.064C126.939 296.392 126.803 295.808 126.531 295.312C126.259 294.816 125.883 294.432 125.403 294.16C124.923 293.872 124.363 293.728 123.723 293.728C123.083 293.728 122.515 293.872 122.019 294.16C121.539 294.432 121.163 294.824 120.891 295.336C120.619 295.832 120.483 296.424 120.483 297.112V297.688C120.483 298.392 120.635 299.016 120.939 299.56C121.259 300.088 121.699 300.496 122.259 300.784C122.835 301.056 123.507 301.192 124.275 301.192C124.963 301.192 125.563 301.088 126.075 300.88C126.603 300.672 127.083 300.36 127.515 299.944L129.507 302.104C128.915 302.776 128.171 303.296 127.275 303.664C126.379 304.016 125.347 304.192 124.179 304.192ZM57.3625 337.848C56.1465 337.848 54.9705 337.696 53.8345 337.392C52.7145 337.104 51.7785 336.664 51.0265 336.072L52.5145 333.384C53.0585 333.832 53.7465 334.184 54.5785 334.44C55.4265 334.712 56.2585 334.848 57.0745 334.848C58.4025 334.848 59.3625 334.552 59.9545 333.96C60.5625 333.368 60.8665 332.488 60.8665 331.32V329.376L61.1065 326.136L61.0585 322.872V320.088H64.6105V330.84C64.6105 333.24 63.9865 335.008 62.7385 336.144C61.4905 337.28 59.6985 337.848 57.3625 337.848ZM56.7865 332.376C55.5865 332.376 54.4985 332.12 53.5225 331.608C52.5625 331.08 51.7865 330.352 51.1945 329.424C50.6185 328.48 50.3305 327.384 50.3305 326.136C50.3305 324.872 50.6185 323.776 51.1945 322.848C51.7865 321.904 52.5625 321.176 53.5225 320.664C54.4985 320.152 55.5865 319.896 56.7865 319.896C57.8745 319.896 58.8345 320.12 59.6665 320.568C60.4985 321 61.1465 321.68 61.6105 322.608C62.0745 323.52 62.3065 324.696 62.3065 326.136C62.3065 327.56 62.0745 328.736 61.6105 329.664C61.1465 330.576 60.4985 331.256 59.6665 331.704C58.8345 332.152 57.8745 332.376 56.7865 332.376ZM57.5305 329.304C58.1865 329.304 58.7705 329.176 59.2825 328.92C59.7945 328.648 60.1945 328.272 60.4825 327.792C60.7705 327.312 60.9145 326.76 60.9145 326.136C60.9145 325.496 60.7705 324.944 60.4825 324.48C60.1945 324 59.7945 323.632 59.2825 323.376C58.7705 323.104 58.1865 322.968 57.5305 322.968C56.8745 322.968 56.2905 323.104 55.7785 323.376C55.2665 323.632 54.8585 324 54.5545 324.48C54.2665 324.944 54.1225 325.496 54.1225 326.136C54.1225 326.76 54.2665 327.312 54.5545 327.792C54.8585 328.272 55.2665 328.648 55.7785 328.92C56.2905 329.176 56.8745 329.304 57.5305 329.304ZM76.0152 333V330.48L75.7752 329.928V325.416C75.7752 324.616 75.5272 323.992 75.0312 323.544C74.5512 323.096 73.8072 322.872 72.7992 322.872C72.1112 322.872 71.4312 322.984 70.7592 323.208C70.1032 323.416 69.5432 323.704 69.0792 324.072L67.7352 321.456C68.4392 320.96 69.2872 320.576 70.2792 320.304C71.2712 320.032 72.2792 319.896 73.3032 319.896C75.2712 319.896 76.7992 320.36 77.8872 321.288C78.9752 322.216 79.5192 323.664 79.5192 325.632V333H76.0152ZM72.0792 333.192C71.0712 333.192 70.2072 333.024 69.4872 332.688C68.7672 332.336 68.2152 331.864 67.8312 331.272C67.4472 330.68 67.2552 330.016 67.2552 329.28C67.2552 328.512 67.4392 327.84 67.8072 327.264C68.1912 326.688 68.7912 326.24 69.6072 325.92C70.4232 325.584 71.4872 325.416 72.7992 325.416H76.2312V327.6H73.2072C72.3272 327.6 71.7192 327.744 71.3832 328.032C71.0632 328.32 70.9032 328.68 70.9032 329.112C70.9032 329.592 71.0872 329.976 71.4552 330.264C71.8392 330.536 72.3592 330.672 73.0152 330.672C73.6392 330.672 74.1992 330.528 74.6952 330.24C75.1912 329.936 75.5512 329.496 75.7752 328.92L76.3512 330.648C76.0792 331.48 75.5832 332.112 74.8632 332.544C74.1432 332.976 73.2152 333.192 72.0792 333.192ZM87.2517 333.192C86.1477 333.192 85.0837 333.064 84.0597 332.808C83.0517 332.536 82.2517 332.2 81.6597 331.8L82.9077 329.112C83.4997 329.48 84.1957 329.784 84.9957 330.024C85.8117 330.248 86.6117 330.36 87.3957 330.36C88.2597 330.36 88.8677 330.256 89.2197 330.048C89.5877 329.84 89.7717 329.552 89.7717 329.184C89.7717 328.88 89.6277 328.656 89.3397 328.512C89.0677 328.352 88.6997 328.232 88.2357 328.152C87.7717 328.072 87.2597 327.992 86.6997 327.912C86.1557 327.832 85.6037 327.728 85.0437 327.6C84.4837 327.456 83.9717 327.248 83.5077 326.976C83.0437 326.704 82.6677 326.336 82.3797 325.872C82.1077 325.408 81.9717 324.808 81.9717 324.072C81.9717 323.256 82.2037 322.536 82.6677 321.912C83.1477 321.288 83.8357 320.8 84.7317 320.448C85.6277 320.08 86.6997 319.896 87.9477 319.896C88.8277 319.896 89.7237 319.992 90.6357 320.184C91.5477 320.376 92.3077 320.656 92.9157 321.024L91.6677 323.688C91.0437 323.32 90.4117 323.072 89.7717 322.944C89.1477 322.8 88.5397 322.728 87.9477 322.728C87.1157 322.728 86.5077 322.84 86.1237 323.064C85.7397 323.288 85.5477 323.576 85.5477 323.928C85.5477 324.248 85.6837 324.488 85.9557 324.648C86.2437 324.808 86.6197 324.936 87.0837 325.032C87.5477 325.128 88.0517 325.216 88.5957 325.296C89.1557 325.36 89.7157 325.464 90.2757 325.608C90.8357 325.752 91.3397 325.96 91.7877 326.232C92.2517 326.488 92.6277 326.848 92.9157 327.312C93.2037 327.76 93.3477 328.352 93.3477 329.088C93.3477 329.888 93.1077 330.6 92.6277 331.224C92.1477 331.832 91.4517 332.312 90.5397 332.664C89.6437 333.016 88.5477 333.192 87.2517 333.192ZM100.938 333.192C99.4177 333.192 98.2337 332.808 97.3857 332.04C96.5377 331.256 96.1137 330.096 96.1137 328.56V317.232H99.8577V328.512C99.8577 329.056 100.002 329.48 100.29 329.784C100.578 330.072 100.97 330.216 101.466 330.216C102.058 330.216 102.562 330.056 102.978 329.736L103.986 332.376C103.602 332.648 103.138 332.856 102.594 333C102.066 333.128 101.514 333.192 100.938 333.192ZM94.1217 323.256V320.376H103.074V323.256H94.1217ZM111.833 333.192C110.457 333.192 109.233 332.904 108.161 332.328C107.105 331.752 106.265 330.968 105.641 329.976C105.033 328.968 104.729 327.824 104.729 326.544C104.729 325.248 105.033 324.104 105.641 323.112C106.265 322.104 107.105 321.32 108.161 320.76C109.233 320.184 110.457 319.896 111.833 319.896C113.193 319.896 114.409 320.184 115.481 320.76C116.553 321.32 117.393 322.096 118.001 323.088C118.609 324.08 118.913 325.232 118.913 326.544C118.913 327.824 118.609 328.968 118.001 329.976C117.393 330.968 116.553 331.752 115.481 332.328C114.409 332.904 113.193 333.192 111.833 333.192ZM111.833 330.12C112.457 330.12 113.017 329.976 113.513 329.688C114.009 329.4 114.401 328.992 114.689 328.464C114.977 327.92 115.121 327.28 115.121 326.544C115.121 325.792 114.977 325.152 114.689 324.624C114.401 324.096 114.009 323.688 113.513 323.4C113.017 323.112 112.457 322.968 111.833 322.968C111.209 322.968 110.649 323.112 110.153 323.4C109.657 323.688 109.257 324.096 108.953 324.624C108.665 325.152 108.521 325.792 108.521 326.544C108.521 327.28 108.665 327.92 108.953 328.464C109.257 328.992 109.657 329.4 110.153 329.688C110.649 329.976 111.209 330.12 111.833 330.12ZM125.76 333.192C124.656 333.192 123.592 333.064 122.568 332.808C121.56 332.536 120.76 332.2 120.168 331.8L121.416 329.112C122.008 329.48 122.704 329.784 123.504 330.024C124.32 330.248 125.12 330.36 125.904 330.36C126.768 330.36 127.376 330.256 127.728 330.048C128.096 329.84 128.28 329.552 128.28 329.184C128.28 328.88 128.136 328.656 127.848 328.512C127.576 328.352 127.208 328.232 126.743 328.152C126.28 328.072 125.768 327.992 125.208 327.912C124.664 327.832 124.112 327.728 123.552 327.6C122.992 327.456 122.48 327.248 122.016 326.976C121.552 326.704 121.176 326.336 120.888 325.872C120.616 325.408 120.479 324.808 120.479 324.072C120.479 323.256 120.712 322.536 121.176 321.912C121.656 321.288 122.344 320.8 123.24 320.448C124.136 320.08 125.208 319.896 126.456 319.896C127.336 319.896 128.232 319.992 129.144 320.184C130.056 320.376 130.816 320.656 131.424 321.024L130.176 323.688C129.552 323.32 128.92 323.072 128.28 322.944C127.656 322.8 127.048 322.728 126.456 322.728C125.624 322.728 125.016 322.84 124.632 323.064C124.248 323.288 124.056 323.576 124.056 323.928C124.056 324.248 124.192 324.488 124.464 324.648C124.752 324.808 125.128 324.936 125.592 325.032C126.056 325.128 126.56 325.216 127.104 325.296C127.664 325.36 128.224 325.464 128.784 325.608C129.344 325.752 129.848 325.96 130.296 326.232C130.76 326.488 131.136 326.848 131.424 327.312C131.712 327.76 131.856 328.352 131.856 329.088C131.856 329.888 131.616 330.6 131.136 331.224C130.656 331.832 129.96 332.312 129.048 332.664C128.152 333.016 127.056 333.192 125.76 333.192Z" fill="#87549F"/>
<path d="M112.219 1126.29C110.875 1126.29 109.587 1126.11 108.355 1125.76C107.123 1125.39 106.131 1124.92 105.379 1124.34L106.699 1121.42C107.419 1121.93 108.267 1122.35 109.243 1122.69C110.235 1123.01 111.235 1123.17 112.243 1123.17C113.011 1123.17 113.627 1123.1 114.091 1122.95C114.571 1122.79 114.923 1122.58 115.147 1122.3C115.371 1122.03 115.483 1121.72 115.483 1121.37C115.483 1120.92 115.307 1120.57 114.955 1120.31C114.603 1120.04 114.139 1119.82 113.563 1119.66C112.987 1119.49 112.347 1119.33 111.643 1119.18C110.955 1119.02 110.259 1118.83 109.555 1118.61C108.867 1118.38 108.235 1118.1 107.659 1117.74C107.083 1117.39 106.611 1116.93 106.243 1116.35C105.891 1115.78 105.715 1115.04 105.715 1114.14C105.715 1113.18 105.971 1112.31 106.483 1111.53C107.011 1110.73 107.795 1110.1 108.835 1109.63C109.891 1109.15 111.211 1108.91 112.795 1108.91C113.851 1108.91 114.891 1109.04 115.915 1109.3C116.939 1109.54 117.843 1109.9 118.627 1110.4L117.427 1113.35C116.643 1112.9 115.859 1112.58 115.075 1112.37C114.291 1112.14 113.523 1112.03 112.771 1112.03C112.019 1112.03 111.403 1112.12 110.923 1112.3C110.443 1112.47 110.099 1112.7 109.891 1112.99C109.683 1113.26 109.579 1113.58 109.579 1113.95C109.579 1114.38 109.755 1114.74 110.107 1115.01C110.459 1115.26 110.923 1115.47 111.499 1115.63C112.075 1115.79 112.707 1115.95 113.395 1116.11C114.099 1116.27 114.795 1116.46 115.483 1116.66C116.187 1116.87 116.827 1117.15 117.403 1117.5C117.979 1117.86 118.443 1118.32 118.795 1118.9C119.163 1119.47 119.347 1120.2 119.347 1121.08C119.347 1122.02 119.083 1122.89 118.555 1123.67C118.027 1124.46 117.235 1125.09 116.179 1125.57C115.139 1126.05 113.819 1126.29 112.219 1126.29ZM121.74 1126V1113.09H125.484V1126H121.74ZM123.612 1111.29C122.924 1111.29 122.364 1111.09 121.932 1110.69C121.5 1110.29 121.284 1109.79 121.284 1109.2C121.284 1108.61 121.5 1108.11 121.932 1107.71C122.364 1107.31 122.924 1107.11 123.612 1107.11C124.3 1107.11 124.86 1107.3 125.292 1107.69C125.724 1108.06 125.94 1108.54 125.94 1109.13C125.94 1109.75 125.724 1110.27 125.292 1110.69C124.876 1111.09 124.316 1111.29 123.612 1111.29ZM145.494 1112.9C146.518 1112.9 147.422 1113.1 148.206 1113.52C149.006 1113.92 149.63 1114.54 150.078 1115.39C150.542 1116.22 150.774 1117.3 150.774 1118.61V1126H147.03V1119.18C147.03 1118.14 146.814 1117.38 146.382 1116.88C145.95 1116.38 145.342 1116.14 144.558 1116.14C144.014 1116.14 143.526 1116.26 143.094 1116.52C142.662 1116.76 142.326 1117.13 142.086 1117.62C141.846 1118.12 141.726 1118.75 141.726 1119.52V1126H137.982V1119.18C137.982 1118.14 137.766 1117.38 137.334 1116.88C136.918 1116.38 136.318 1116.14 135.534 1116.14C134.99 1116.14 134.502 1116.26 134.07 1116.52C133.638 1116.76 133.302 1117.13 133.062 1117.62C132.822 1118.12 132.702 1118.75 132.702 1119.52V1126H128.958V1113.09H132.534V1116.62L131.862 1115.58C132.31 1114.7 132.942 1114.04 133.758 1113.59C134.59 1113.13 135.534 1112.9 136.59 1112.9C137.774 1112.9 138.806 1113.2 139.686 1113.81C140.582 1114.4 141.174 1115.31 141.462 1116.54L140.142 1116.18C140.574 1115.18 141.262 1114.38 142.206 1113.78C143.166 1113.19 144.262 1112.9 145.494 1112.9ZM161.762 1126.19C160.674 1126.19 159.722 1125.95 158.906 1125.47C158.09 1124.99 157.45 1124.26 156.986 1123.29C156.538 1122.3 156.314 1121.05 156.314 1119.54C156.314 1118.02 156.53 1116.78 156.962 1115.8C157.394 1114.82 158.018 1114.1 158.834 1113.62C159.65 1113.14 160.626 1112.9 161.762 1112.9C162.978 1112.9 164.066 1113.18 165.026 1113.74C166.002 1114.28 166.77 1115.05 167.33 1116.04C167.906 1117.03 168.194 1118.2 168.194 1119.54C168.194 1120.9 167.906 1122.08 167.33 1123.07C166.77 1124.06 166.002 1124.83 165.026 1125.38C164.066 1125.92 162.978 1126.19 161.762 1126.19ZM154.13 1130.66V1113.09H157.706V1115.73L157.634 1119.57L157.874 1123.38V1130.66H154.13ZM161.114 1123.12C161.738 1123.12 162.29 1122.98 162.77 1122.69C163.266 1122.4 163.658 1121.99 163.946 1121.46C164.25 1120.92 164.402 1120.28 164.402 1119.54C164.402 1118.79 164.25 1118.15 163.946 1117.62C163.658 1117.1 163.266 1116.69 162.77 1116.4C162.29 1116.11 161.738 1115.97 161.114 1115.97C160.49 1115.97 159.93 1116.11 159.434 1116.4C158.938 1116.69 158.546 1117.1 158.258 1117.62C157.97 1118.15 157.826 1118.79 157.826 1119.54C157.826 1120.28 157.97 1120.92 158.258 1121.46C158.546 1121.99 158.938 1122.4 159.434 1122.69C159.93 1122.98 160.49 1123.12 161.114 1123.12ZM170.701 1126V1108.19H174.445V1126H170.701ZM177.919 1126V1113.09H181.663V1126H177.919ZM179.791 1111.29C179.103 1111.29 178.543 1111.09 178.111 1110.69C177.679 1110.29 177.463 1109.79 177.463 1109.2C177.463 1108.61 177.679 1108.11 178.111 1107.71C178.543 1107.31 179.103 1107.11 179.791 1107.11C180.479 1107.11 181.039 1107.3 181.471 1107.69C181.903 1108.06 182.119 1108.54 182.119 1109.13C182.119 1109.75 181.903 1110.27 181.471 1110.69C181.055 1111.09 180.495 1111.29 179.791 1111.29ZM185.594 1126V1112.8C185.594 1111.34 186.026 1110.18 186.89 1109.32C187.754 1108.44 188.986 1108 190.586 1108C191.13 1108 191.65 1108.06 192.146 1108.17C192.658 1108.28 193.09 1108.46 193.442 1108.7L192.458 1111.41C192.25 1111.26 192.018 1111.15 191.762 1111.07C191.506 1110.99 191.234 1110.95 190.946 1110.95C190.402 1110.95 189.978 1111.11 189.674 1111.43C189.386 1111.74 189.242 1112.2 189.242 1112.82V1114.02L189.338 1115.63V1126H185.594ZM183.602 1116.26V1113.38H192.554V1116.26H183.602ZM194.666 1126V1113.09H198.41V1126H194.666ZM196.538 1111.29C195.85 1111.29 195.29 1111.09 194.858 1110.69C194.426 1110.29 194.21 1109.79 194.21 1109.2C194.21 1108.61 194.426 1108.11 194.858 1107.71C195.29 1107.31 195.85 1107.11 196.538 1107.11C197.226 1107.11 197.786 1107.3 198.218 1107.69C198.65 1108.06 198.866 1108.54 198.866 1109.13C198.866 1109.75 198.65 1110.27 198.218 1110.69C197.802 1111.09 197.242 1111.29 196.538 1111.29ZM208.113 1126.19C206.721 1126.19 205.481 1125.91 204.393 1125.35C203.305 1124.78 202.449 1123.98 201.825 1122.98C201.217 1121.97 200.913 1120.82 200.913 1119.54C200.913 1118.25 201.217 1117.1 201.825 1116.11C202.449 1115.1 203.305 1114.32 204.393 1113.76C205.481 1113.18 206.721 1112.9 208.113 1112.9C209.473 1112.9 210.657 1113.18 211.665 1113.76C212.673 1114.32 213.417 1115.13 213.897 1116.18L210.993 1117.74C210.657 1117.14 210.233 1116.69 209.721 1116.4C209.225 1116.11 208.681 1115.97 208.089 1115.97C207.449 1115.97 206.873 1116.11 206.361 1116.4C205.849 1116.69 205.441 1117.1 205.137 1117.62C204.849 1118.15 204.705 1118.79 204.705 1119.54C204.705 1120.3 204.849 1120.94 205.137 1121.46C205.441 1121.99 205.849 1122.4 206.361 1122.69C206.873 1122.98 207.449 1123.12 208.089 1123.12C208.681 1123.12 209.225 1122.98 209.721 1122.71C210.233 1122.42 210.657 1121.97 210.993 1121.34L213.897 1122.93C213.417 1123.97 212.673 1124.78 211.665 1125.35C210.657 1125.91 209.473 1126.19 208.113 1126.19ZM223.972 1126V1123.48L223.732 1122.93V1118.42C223.732 1117.62 223.484 1116.99 222.988 1116.54C222.508 1116.1 221.764 1115.87 220.756 1115.87C220.068 1115.87 219.388 1115.98 218.716 1116.21C218.06 1116.42 217.5 1116.7 217.036 1117.07L215.692 1114.46C216.396 1113.96 217.244 1113.58 218.236 1113.3C219.228 1113.03 220.236 1112.9 221.26 1112.9C223.228 1112.9 224.756 1113.36 225.844 1114.29C226.932 1115.22 227.476 1116.66 227.476 1118.63V1126H223.972ZM220.036 1126.19C219.028 1126.19 218.164 1126.02 217.444 1125.69C216.724 1125.34 216.172 1124.86 215.788 1124.27C215.404 1123.68 215.212 1123.02 215.212 1122.28C215.212 1121.51 215.396 1120.84 215.764 1120.26C216.148 1119.69 216.748 1119.24 217.564 1118.92C218.38 1118.58 219.444 1118.42 220.756 1118.42H224.188V1120.6H221.164C220.284 1120.6 219.676 1120.74 219.34 1121.03C219.02 1121.32 218.86 1121.68 218.86 1122.11C218.86 1122.59 219.044 1122.98 219.412 1123.26C219.796 1123.54 220.316 1123.67 220.972 1123.67C221.596 1123.67 222.156 1123.53 222.652 1123.24C223.148 1122.94 223.508 1122.5 223.732 1121.92L224.308 1123.65C224.036 1124.48 223.54 1125.11 222.82 1125.54C222.1 1125.98 221.172 1126.19 220.036 1126.19ZM244.07 1126.19C242.598 1126.19 241.302 1125.9 240.182 1125.33C239.078 1124.75 238.222 1123.97 237.614 1122.98C237.006 1121.97 236.702 1120.82 236.702 1119.54C236.702 1118.25 236.998 1117.1 237.59 1116.11C238.198 1115.1 239.022 1114.32 240.062 1113.76C241.102 1113.18 242.278 1112.9 243.59 1112.9C244.854 1112.9 245.99 1113.17 246.998 1113.71C248.022 1114.24 248.83 1115.01 249.422 1116.02C250.014 1117.01 250.31 1118.2 250.31 1119.59C250.31 1119.74 250.302 1119.9 250.286 1120.1C250.27 1120.27 250.254 1120.44 250.238 1120.6H239.75V1118.42H248.27L246.83 1119.06C246.83 1118.39 246.694 1117.81 246.422 1117.31C246.15 1116.82 245.774 1116.43 245.294 1116.16C244.814 1115.87 244.254 1115.73 243.614 1115.73C242.974 1115.73 242.406 1115.87 241.91 1116.16C241.43 1116.43 241.054 1116.82 240.782 1117.34C240.51 1117.83 240.374 1118.42 240.374 1119.11V1119.69C240.374 1120.39 240.526 1121.02 240.83 1121.56C241.15 1122.09 241.59 1122.5 242.15 1122.78C242.726 1123.06 243.398 1123.19 244.166 1123.19C244.854 1123.19 245.454 1123.09 245.966 1122.88C246.494 1122.67 246.974 1122.36 247.406 1121.94L249.398 1124.1C248.806 1124.78 248.062 1125.3 247.166 1125.66C246.27 1126.02 245.238 1126.19 244.07 1126.19ZM252.802 1126V1108.19H256.546V1126H252.802ZM80.425 1155.19C79.033 1155.19 77.793 1154.91 76.705 1154.35C75.617 1153.78 74.761 1152.98 74.137 1151.98C73.529 1150.97 73.225 1149.82 73.225 1148.54C73.225 1147.25 73.529 1146.1 74.137 1145.11C74.761 1144.1 75.617 1143.32 76.705 1142.76C77.793 1142.18 79.033 1141.9 80.425 1141.9C81.785 1141.9 82.969 1142.18 83.977 1142.76C84.985 1143.32 85.729 1144.13 86.209 1145.18L83.305 1146.74C82.969 1146.14 82.545 1145.69 82.033 1145.4C81.537 1145.11 80.993 1144.97 80.401 1144.97C79.761 1144.97 79.185 1145.11 78.673 1145.4C78.161 1145.69 77.753 1146.1 77.449 1146.62C77.161 1147.15 77.017 1147.79 77.017 1148.54C77.017 1149.3 77.161 1149.94 77.449 1150.46C77.753 1150.99 78.161 1151.4 78.673 1151.69C79.185 1151.98 79.761 1152.12 80.401 1152.12C80.993 1152.12 81.537 1151.98 82.033 1151.71C82.545 1151.42 82.969 1150.97 83.305 1150.34L86.209 1151.93C85.729 1152.97 84.985 1153.78 83.977 1154.35C82.969 1154.91 81.785 1155.19 80.425 1155.19ZM94.3447 1155.19C92.9687 1155.19 91.7447 1154.9 90.6727 1154.33C89.6167 1153.75 88.7767 1152.97 88.1527 1151.98C87.5447 1150.97 87.2407 1149.82 87.2407 1148.54C87.2407 1147.25 87.5447 1146.1 88.1527 1145.11C88.7767 1144.1 89.6167 1143.32 90.6727 1142.76C91.7447 1142.18 92.9687 1141.9 94.3447 1141.9C95.7047 1141.9 96.9207 1142.18 97.9927 1142.76C99.0647 1143.32 99.9047 1144.1 100.513 1145.09C101.121 1146.08 101.425 1147.23 101.425 1148.54C101.425 1149.82 101.121 1150.97 100.513 1151.98C99.9047 1152.97 99.0647 1153.75 97.9927 1154.33C96.9207 1154.9 95.7047 1155.19 94.3447 1155.19ZM94.3447 1152.12C94.9687 1152.12 95.5287 1151.98 96.0247 1151.69C96.5207 1151.4 96.9127 1150.99 97.2007 1150.46C97.4887 1149.92 97.6327 1149.28 97.6327 1148.54C97.6327 1147.79 97.4887 1147.15 97.2007 1146.62C96.9127 1146.1 96.5207 1145.69 96.0247 1145.4C95.5287 1145.11 94.9687 1144.97 94.3447 1144.97C93.7207 1144.97 93.1607 1145.11 92.6647 1145.4C92.1687 1145.69 91.7687 1146.1 91.4647 1146.62C91.1767 1147.15 91.0327 1147.79 91.0327 1148.54C91.0327 1149.28 91.1767 1149.92 91.4647 1150.46C91.7687 1150.99 92.1687 1151.4 92.6647 1151.69C93.1607 1151.98 93.7207 1152.12 94.3447 1152.12ZM111.775 1141.9C112.799 1141.9 113.711 1142.1 114.511 1142.52C115.327 1142.92 115.967 1143.54 116.431 1144.39C116.895 1145.22 117.127 1146.3 117.127 1147.61V1155H113.383V1148.18C113.383 1147.14 113.151 1146.38 112.687 1145.88C112.239 1145.38 111.599 1145.14 110.767 1145.14C110.175 1145.14 109.639 1145.26 109.159 1145.52C108.695 1145.76 108.327 1146.14 108.055 1146.65C107.799 1147.16 107.671 1147.82 107.671 1148.62V1155H103.927V1142.09H107.503V1145.66L106.831 1144.58C107.295 1143.72 107.959 1143.06 108.823 1142.59C109.687 1142.13 110.671 1141.9 111.775 1141.9ZM125.801 1155.19C124.281 1155.19 123.097 1154.81 122.249 1154.04C121.401 1153.26 120.977 1152.1 120.977 1150.56V1139.23H124.721V1150.51C124.721 1151.06 124.865 1151.48 125.153 1151.78C125.441 1152.07 125.833 1152.22 126.329 1152.22C126.921 1152.22 127.425 1152.06 127.841 1151.74L128.849 1154.38C128.465 1154.65 128.001 1154.86 127.457 1155C126.929 1155.13 126.377 1155.19 125.801 1155.19ZM118.985 1145.26V1142.38H127.937V1145.26H118.985ZM130.951 1155V1142.09H134.527V1145.74L134.023 1144.68C134.407 1143.77 135.023 1143.08 135.871 1142.62C136.719 1142.14 137.751 1141.9 138.967 1141.9V1145.35C138.807 1145.34 138.663 1145.33 138.535 1145.33C138.407 1145.31 138.271 1145.3 138.127 1145.3C137.103 1145.3 136.271 1145.6 135.631 1146.19C135.007 1146.77 134.695 1147.67 134.695 1148.9V1155H130.951ZM147.243 1155.19C145.867 1155.19 144.643 1154.9 143.571 1154.33C142.515 1153.75 141.675 1152.97 141.051 1151.98C140.443 1150.97 140.139 1149.82 140.139 1148.54C140.139 1147.25 140.443 1146.1 141.051 1145.11C141.675 1144.1 142.515 1143.32 143.571 1142.76C144.643 1142.18 145.867 1141.9 147.243 1141.9C148.603 1141.9 149.819 1142.18 150.891 1142.76C151.963 1143.32 152.803 1144.1 153.411 1145.09C154.019 1146.08 154.323 1147.23 154.323 1148.54C154.323 1149.82 154.019 1150.97 153.411 1151.98C152.803 1152.97 151.963 1153.75 150.891 1154.33C149.819 1154.9 148.603 1155.19 147.243 1155.19ZM147.243 1152.12C147.867 1152.12 148.427 1151.98 148.923 1151.69C149.419 1151.4 149.811 1150.99 150.099 1150.46C150.387 1149.92 150.531 1149.28 150.531 1148.54C150.531 1147.79 150.387 1147.15 150.099 1146.62C149.811 1146.1 149.419 1145.69 148.923 1145.4C148.427 1145.11 147.867 1144.97 147.243 1144.97C146.619 1144.97 146.059 1145.11 145.563 1145.4C145.067 1145.69 144.667 1146.1 144.363 1146.62C144.075 1147.15 143.931 1147.79 143.931 1148.54C143.931 1149.28 144.075 1149.92 144.363 1150.46C144.667 1150.99 145.067 1151.4 145.563 1151.69C146.059 1151.98 146.619 1152.12 147.243 1152.12ZM156.826 1155V1137.19H160.57V1155H156.826ZM176.385 1155.19C175.169 1155.19 174.073 1154.92 173.097 1154.38C172.121 1153.82 171.345 1153.04 170.769 1152.05C170.209 1151.06 169.929 1149.89 169.929 1148.54C169.929 1147.18 170.209 1146.01 170.769 1145.02C171.345 1144.02 172.121 1143.26 173.097 1142.71C174.073 1142.17 175.169 1141.9 176.385 1141.9C177.473 1141.9 178.425 1142.14 179.241 1142.62C180.057 1143.1 180.689 1143.82 181.137 1144.8C181.585 1145.78 181.809 1147.02 181.809 1148.54C181.809 1150.05 181.593 1151.3 181.161 1152.29C180.729 1153.26 180.105 1153.99 179.289 1154.47C178.489 1154.95 177.521 1155.19 176.385 1155.19ZM177.033 1152.12C177.641 1152.12 178.193 1151.98 178.689 1151.69C179.185 1151.4 179.577 1150.99 179.865 1150.46C180.169 1149.92 180.321 1149.28 180.321 1148.54C180.321 1147.79 180.169 1147.15 179.865 1146.62C179.577 1146.1 179.185 1145.69 178.689 1145.4C178.193 1145.11 177.641 1144.97 177.033 1144.97C176.409 1144.97 175.849 1145.11 175.353 1145.4C174.857 1145.69 174.457 1146.1 174.153 1146.62C173.865 1147.15 173.721 1147.79 173.721 1148.54C173.721 1149.28 173.865 1149.92 174.153 1150.46C174.457 1150.99 174.857 1151.4 175.353 1151.69C175.849 1151.98 176.409 1152.12 177.033 1152.12ZM180.417 1155V1152.36L180.489 1148.52L180.249 1144.7V1137.19H183.993V1155H180.417ZM193.866 1155.19C192.394 1155.19 191.098 1154.9 189.978 1154.33C188.874 1153.75 188.018 1152.97 187.41 1151.98C186.802 1150.97 186.498 1149.82 186.498 1148.54C186.498 1147.25 186.794 1146.1 187.386 1145.11C187.994 1144.1 188.818 1143.32 189.858 1142.76C190.898 1142.18 192.074 1141.9 193.386 1141.9C194.65 1141.9 195.786 1142.17 196.794 1142.71C197.818 1143.24 198.626 1144.01 199.218 1145.02C199.81 1146.01 200.106 1147.2 200.106 1148.59C200.106 1148.74 200.098 1148.9 200.082 1149.1C200.066 1149.27 200.05 1149.44 200.034 1149.6H189.546V1147.42H198.066L196.626 1148.06C196.626 1147.39 196.49 1146.81 196.218 1146.31C195.946 1145.82 195.57 1145.43 195.09 1145.16C194.61 1144.87 194.05 1144.73 193.41 1144.73C192.77 1144.73 192.202 1144.87 191.706 1145.16C191.226 1145.43 190.85 1145.82 190.578 1146.34C190.306 1146.83 190.17 1147.42 190.17 1148.11V1148.69C190.17 1149.39 190.322 1150.02 190.626 1150.56C190.946 1151.09 191.386 1151.5 191.946 1151.78C192.522 1152.06 193.194 1152.19 193.962 1152.19C194.65 1152.19 195.25 1152.09 195.762 1151.88C196.29 1151.67 196.77 1151.36 197.202 1150.94L199.194 1153.1C198.602 1153.78 197.858 1154.3 196.962 1154.66C196.066 1155.02 195.034 1155.19 193.866 1155.19ZM215.468 1159.85C214.252 1159.85 213.076 1159.7 211.94 1159.39C210.82 1159.1 209.884 1158.66 209.132 1158.07L210.62 1155.38C211.164 1155.83 211.852 1156.18 212.684 1156.44C213.532 1156.71 214.364 1156.85 215.18 1156.85C216.508 1156.85 217.468 1156.55 218.06 1155.96C218.668 1155.37 218.972 1154.49 218.972 1153.32V1151.38L219.212 1148.14L219.164 1144.87V1142.09H222.716V1152.84C222.716 1155.24 222.092 1157.01 220.844 1158.14C219.596 1159.28 217.804 1159.85 215.468 1159.85ZM214.892 1154.38C213.692 1154.38 212.604 1154.12 211.628 1153.61C210.668 1153.08 209.892 1152.35 209.3 1151.42C208.724 1150.48 208.436 1149.38 208.436 1148.14C208.436 1146.87 208.724 1145.78 209.3 1144.85C209.892 1143.9 210.668 1143.18 211.628 1142.66C212.604 1142.15 213.692 1141.9 214.892 1141.9C215.98 1141.9 216.94 1142.12 217.772 1142.57C218.604 1143 219.252 1143.68 219.716 1144.61C220.18 1145.52 220.412 1146.7 220.412 1148.14C220.412 1149.56 220.18 1150.74 219.716 1151.66C219.252 1152.58 218.604 1153.26 217.772 1153.7C216.94 1154.15 215.98 1154.38 214.892 1154.38ZM215.636 1151.3C216.292 1151.3 216.876 1151.18 217.388 1150.92C217.9 1150.65 218.3 1150.27 218.588 1149.79C218.876 1149.31 219.02 1148.76 219.02 1148.14C219.02 1147.5 218.876 1146.94 218.588 1146.48C218.3 1146 217.9 1145.63 217.388 1145.38C216.876 1145.1 216.292 1144.97 215.636 1144.97C214.98 1144.97 214.396 1145.1 213.884 1145.38C213.372 1145.63 212.964 1146 212.66 1146.48C212.372 1146.94 212.228 1147.5 212.228 1148.14C212.228 1148.76 212.372 1149.31 212.66 1149.79C212.964 1150.27 213.372 1150.65 213.884 1150.92C214.396 1151.18 214.98 1151.3 215.636 1151.3ZM234.121 1155V1152.48L233.881 1151.93V1147.42C233.881 1146.62 233.633 1145.99 233.137 1145.54C232.657 1145.1 231.913 1144.87 230.905 1144.87C230.217 1144.87 229.537 1144.98 228.865 1145.21C228.209 1145.42 227.649 1145.7 227.185 1146.07L225.841 1143.46C226.545 1142.96 227.393 1142.58 228.385 1142.3C229.377 1142.03 230.385 1141.9 231.409 1141.9C233.377 1141.9 234.905 1142.36 235.993 1143.29C237.081 1144.22 237.625 1145.66 237.625 1147.63V1155H234.121ZM230.185 1155.19C229.177 1155.19 228.313 1155.02 227.593 1154.69C226.873 1154.34 226.321 1153.86 225.937 1153.27C225.553 1152.68 225.361 1152.02 225.361 1151.28C225.361 1150.51 225.545 1149.84 225.913 1149.26C226.297 1148.69 226.897 1148.24 227.713 1147.92C228.529 1147.58 229.593 1147.42 230.905 1147.42H234.337V1149.6H231.313C230.433 1149.6 229.825 1149.74 229.489 1150.03C229.169 1150.32 229.009 1150.68 229.009 1151.11C229.009 1151.59 229.193 1151.98 229.561 1152.26C229.945 1152.54 230.465 1152.67 231.121 1152.67C231.745 1152.67 232.305 1152.53 232.801 1152.24C233.297 1151.94 233.657 1151.5 233.881 1150.92L234.457 1152.65C234.185 1153.48 233.689 1154.11 232.969 1154.54C232.249 1154.98 231.321 1155.19 230.185 1155.19ZM245.357 1155.19C244.253 1155.19 243.189 1155.06 242.165 1154.81C241.157 1154.54 240.357 1154.2 239.765 1153.8L241.013 1151.11C241.605 1151.48 242.301 1151.78 243.101 1152.02C243.917 1152.25 244.717 1152.36 245.501 1152.36C246.365 1152.36 246.973 1152.26 247.325 1152.05C247.693 1151.84 247.877 1151.55 247.877 1151.18C247.877 1150.88 247.733 1150.66 247.445 1150.51C247.173 1150.35 246.805 1150.23 246.341 1150.15C245.877 1150.07 245.365 1149.99 244.805 1149.91C244.261 1149.83 243.709 1149.73 243.149 1149.6C242.589 1149.46 242.077 1149.25 241.613 1148.98C241.149 1148.7 240.773 1148.34 240.485 1147.87C240.213 1147.41 240.077 1146.81 240.077 1146.07C240.077 1145.26 240.309 1144.54 240.773 1143.91C241.253 1143.29 241.941 1142.8 242.837 1142.45C243.733 1142.08 244.805 1141.9 246.053 1141.9C246.933 1141.9 247.829 1141.99 248.741 1142.18C249.653 1142.38 250.413 1142.66 251.021 1143.02L249.773 1145.69C249.149 1145.32 248.517 1145.07 247.877 1144.94C247.253 1144.8 246.645 1144.73 246.053 1144.73C245.221 1144.73 244.613 1144.84 244.229 1145.06C243.845 1145.29 243.653 1145.58 243.653 1145.93C243.653 1146.25 243.789 1146.49 244.061 1146.65C244.349 1146.81 244.725 1146.94 245.189 1147.03C245.653 1147.13 246.157 1147.22 246.701 1147.3C247.261 1147.36 247.821 1147.46 248.381 1147.61C248.941 1147.75 249.445 1147.96 249.893 1148.23C250.357 1148.49 250.733 1148.85 251.021 1149.31C251.309 1149.76 251.453 1150.35 251.453 1151.09C251.453 1151.89 251.213 1152.6 250.733 1153.22C250.253 1153.83 249.557 1154.31 248.645 1154.66C247.749 1155.02 246.653 1155.19 245.357 1155.19ZM259.043 1155.19C257.523 1155.19 256.339 1154.81 255.491 1154.04C254.643 1153.26 254.219 1152.1 254.219 1150.56V1139.23H257.963V1150.51C257.963 1151.06 258.107 1151.48 258.395 1151.78C258.683 1152.07 259.075 1152.22 259.571 1152.22C260.163 1152.22 260.667 1152.06 261.083 1151.74L262.091 1154.38C261.707 1154.65 261.243 1154.86 260.699 1155C260.171 1155.13 259.619 1155.19 259.043 1155.19ZM252.227 1145.26V1142.38H261.179V1145.26H252.227ZM269.938 1155.19C268.562 1155.19 267.338 1154.9 266.266 1154.33C265.21 1153.75 264.37 1152.97 263.746 1151.98C263.138 1150.97 262.834 1149.82 262.834 1148.54C262.834 1147.25 263.138 1146.1 263.746 1145.11C264.37 1144.1 265.21 1143.32 266.266 1142.76C267.338 1142.18 268.562 1141.9 269.938 1141.9C271.298 1141.9 272.514 1142.18 273.586 1142.76C274.658 1143.32 275.498 1144.1 276.106 1145.09C276.714 1146.08 277.018 1147.23 277.018 1148.54C277.018 1149.82 276.714 1150.97 276.106 1151.98C275.498 1152.97 274.658 1153.75 273.586 1154.33C272.514 1154.9 271.298 1155.19 269.938 1155.19ZM269.938 1152.12C270.562 1152.12 271.122 1151.98 271.618 1151.69C272.114 1151.4 272.506 1150.99 272.794 1150.46C273.082 1149.92 273.226 1149.28 273.226 1148.54C273.226 1147.79 273.082 1147.15 272.794 1146.62C272.506 1146.1 272.114 1145.69 271.618 1145.4C271.122 1145.11 270.562 1144.97 269.938 1144.97C269.314 1144.97 268.754 1145.11 268.258 1145.4C267.762 1145.69 267.362 1146.1 267.058 1146.62C266.77 1147.15 266.626 1147.79 266.626 1148.54C266.626 1149.28 266.77 1149.92 267.058 1150.46C267.362 1150.99 267.762 1151.4 268.258 1151.69C268.754 1151.98 269.314 1152.12 269.938 1152.12ZM283.865 1155.19C282.761 1155.19 281.697 1155.06 280.673 1154.81C279.665 1154.54 278.865 1154.2 278.273 1153.8L279.521 1151.11C280.113 1151.48 280.809 1151.78 281.609 1152.02C282.425 1152.25 283.225 1152.36 284.009 1152.36C284.873 1152.36 285.481 1152.26 285.833 1152.05C286.201 1151.84 286.385 1151.55 286.385 1151.18C286.385 1150.88 286.241 1150.66 285.953 1150.51C285.681 1150.35 285.313 1150.23 284.849 1150.15C284.385 1150.07 283.873 1149.99 283.313 1149.91C282.769 1149.83 282.217 1149.73 281.657 1149.6C281.097 1149.46 280.585 1149.25 280.121 1148.98C279.657 1148.7 279.281 1148.34 278.993 1147.87C278.721 1147.41 278.585 1146.81 278.585 1146.07C278.585 1145.26 278.817 1144.54 279.281 1143.91C279.761 1143.29 280.449 1142.8 281.345 1142.45C282.241 1142.08 283.313 1141.9 284.561 1141.9C285.441 1141.9 286.337 1141.99 287.249 1142.18C288.161 1142.38 288.921 1142.66 289.529 1143.02L288.281 1145.69C287.657 1145.32 287.025 1145.07 286.385 1144.94C285.761 1144.8 285.153 1144.73 284.561 1144.73C283.729 1144.73 283.121 1144.84 282.737 1145.06C282.353 1145.29 282.161 1145.58 282.161 1145.93C282.161 1146.25 282.297 1146.49 282.569 1146.65C282.857 1146.81 283.233 1146.94 283.697 1147.03C284.161 1147.13 284.665 1147.22 285.209 1147.3C285.769 1147.36 286.329 1147.46 286.889 1147.61C287.449 1147.75 287.953 1147.96 288.401 1148.23C288.865 1148.49 289.241 1148.85 289.529 1149.31C289.817 1149.76 289.961 1150.35 289.961 1151.09C289.961 1151.89 289.721 1152.6 289.241 1153.22C288.761 1153.83 288.065 1154.31 287.153 1154.66C286.257 1155.02 285.161 1155.19 283.865 1155.19Z" fill="#87549F"/>
<mask id="mask0_376_22" style="mask-type:alpha" maskUnits="userSpaceOnUse" x="66" y="425" width="126" height="126">
<rect x="66.8138" y="530.694" width="106.647" height="106.647" transform="rotate(-79.5563 66.8138 530.694)" fill="#FEFEFE" stroke="#253A74"/>
</mask>
<g mask="url(#mask0_376_22)">
<path d="M139.249 530.859L139.237 530.857L139.235 530.869L137.611 539.679L97.9243 532.364C95.5016 531.917 93.5868 530.672 92.1795 528.629C90.7722 526.586 90.2919 524.353 90.7385 521.93L102.12 460.182L133.456 438.6L155.493 442.662L153.87 451.472L153.867 451.484L153.88 451.486C157.552 452.163 160.437 454.024 162.533 457.068C164.63 460.113 165.34 463.471 164.663 467.144C163.986 470.816 162.126 473.701 159.081 475.798C156.037 477.894 152.678 478.604 149.006 477.927L148.994 477.925L148.991 477.937L144.113 504.403L144.111 504.416L144.123 504.418C147.796 505.095 150.68 506.955 152.777 510C154.874 513.045 155.584 516.403 154.907 520.075C154.23 523.748 152.369 526.632 149.325 528.729C146.28 530.826 142.922 531.536 139.249 530.859ZM122.535 473.074L122.548 473.076L122.55 473.064L125.802 455.42L125.808 455.39L125.783 455.407L110.111 466.201L110.108 466.197L110.105 466.209L109.292 470.62L109.29 470.632L109.302 470.635L122.535 473.074ZM117.657 499.54L117.669 499.542L117.672 499.53L120.924 481.886L120.926 481.873L120.914 481.871L107.681 479.432L107.669 479.43L107.666 479.442L104.414 497.086L104.412 497.098L104.424 497.101L117.657 499.54ZM112.779 526.006L112.791 526.008L112.793 525.996L116.046 508.352L116.048 508.339L116.036 508.337L102.803 505.898L102.79 505.896L102.788 505.908L99.5359 523.552L99.5336 523.564L99.5459 523.566L112.779 526.006ZM130.423 529.258L130.435 529.26L130.437 529.248L131.088 525.719L131.093 525.72L131.086 525.709C129.994 524.217 129.192 522.588 128.682 520.823C128.172 519.059 128.1 517.185 128.466 515.202C128.831 513.218 129.567 511.494 130.672 510.027C131.778 508.56 133.107 507.324 134.66 506.319L134.663 506.324L134.665 506.311L140.844 472.787L140.85 472.788L140.842 472.777C139.75 471.285 138.949 469.656 138.439 467.891C137.929 466.127 137.856 464.253 138.222 462.27C138.588 460.287 139.323 458.562 140.429 457.095C141.535 455.628 142.864 454.392 144.416 453.387L144.419 453.392L144.422 453.379L145.072 449.85L145.074 449.838L145.062 449.835L136.24 448.209L136.228 448.207L136.226 448.219L121.591 527.617L121.589 527.629L121.601 527.632L130.423 529.258ZM147.212 518.657C147.497 517.11 147.204 515.704 146.333 514.438C145.461 513.173 144.252 512.398 142.705 512.113C141.158 511.827 139.751 512.121 138.486 512.992C137.221 513.863 136.445 515.073 136.16 516.62C135.875 518.167 136.168 519.574 137.04 520.839C137.911 522.104 139.121 522.879 140.668 523.165C142.215 523.45 143.621 523.157 144.886 522.285C146.152 521.414 146.927 520.204 147.212 518.657ZM156.969 465.725C157.254 464.178 156.961 462.772 156.089 461.506C155.218 460.241 154.008 459.466 152.461 459.181C150.914 458.896 149.508 459.189 148.242 460.06C146.977 460.932 146.202 462.141 145.917 463.688C145.632 465.235 145.925 466.642 146.796 467.907C147.668 469.172 148.877 469.948 150.424 470.233C151.971 470.518 153.378 470.225 154.643 469.353C155.908 468.482 156.684 467.272 156.969 465.725Z" fill="#253A74" stroke="#253A74" stroke-width="0.025"/>
</g>
<path d="M162.772 222.34L162.772 222.34C160.242 221.45 158.296 219.851 156.936 217.545C155.577 215.239 155.168 212.784 155.712 210.18C156.255 207.577 157.612 205.49 159.781 203.921C161.95 202.351 164.372 201.665 167.048 201.861L171.136 202.173L173.452 198.864C173.452 198.864 173.452 198.864 173.452 198.864C174.66 197.124 176.256 195.842 178.239 195.019C180.222 194.195 182.255 194.001 184.338 194.436C187.23 195.039 189.478 196.565 191.08 199.013C192.682 201.46 193.181 204.13 192.577 207.023L188.234 227.824C187.63 230.716 186.105 232.964 183.657 234.566C181.21 236.168 178.54 236.667 175.647 236.063C173.565 235.628 171.779 234.637 170.291 233.089C168.804 231.54 167.854 229.727 167.443 227.649L162.772 222.34ZM162.772 222.34L166.644 223.69L167.443 227.649L162.772 222.34ZM211.931 218.299L212.383 216.132L217.743 217.251L215.398 228.483L210.038 227.365L210.483 225.233L210.486 225.221L210.474 225.218L196.606 222.323L196.594 222.32L196.591 222.333L195.144 229.267C194.143 234.059 191.601 237.792 187.518 240.464C183.435 243.137 178.998 243.973 174.205 242.973C170.74 242.249 167.749 240.631 165.231 238.116C162.713 235.602 161.127 232.59 160.474 229.079L160.487 229.077L160.466 229.069C156.244 227.646 153.015 224.998 150.781 221.127C148.546 217.256 147.886 213.126 148.803 208.738C149.719 204.349 151.975 200.829 155.572 198.175C159.169 195.521 163.187 194.387 167.626 194.771L167.625 194.784L167.638 194.766C169.641 191.809 172.299 189.683 175.613 188.386C178.927 187.09 182.316 186.803 185.78 187.526C190.573 188.527 194.305 191.068 196.978 195.152C199.651 199.235 200.487 203.672 199.486 208.465L198.039 215.399L198.036 215.411L198.048 215.414L211.916 218.309L211.928 218.311L211.931 218.299Z" fill="#253A74" stroke="#253A74" stroke-width="0.025"/>
<path d="M259.772 797.34L259.772 797.34C257.242 796.45 255.296 794.851 253.936 792.545C252.577 790.239 252.168 787.784 252.712 785.18C253.255 782.577 254.612 780.49 256.781 778.921C258.95 777.351 261.372 776.665 264.048 776.861L268.136 777.173L270.452 773.864C270.452 773.864 270.452 773.864 270.452 773.864C271.66 772.124 273.256 770.842 275.239 770.019C277.222 769.195 279.255 769.001 281.338 769.436C284.23 770.039 286.478 771.565 288.08 774.013C289.682 776.46 290.181 779.13 289.577 782.023L285.234 802.824C284.63 805.716 283.105 807.964 280.657 809.566C278.21 811.168 275.54 811.667 272.647 811.063C270.565 810.628 268.779 809.637 267.291 808.089C265.804 806.54 264.854 804.727 264.443 802.649L259.772 797.34ZM259.772 797.34L263.644 798.69L264.443 802.649L259.772 797.34ZM308.931 793.299L309.383 791.132L314.743 792.251L312.398 803.483L307.038 802.365L307.483 800.233L307.486 800.221L307.474 800.218L293.606 797.323L293.594 797.32L293.591 797.333L292.144 804.267C291.143 809.059 288.601 812.792 284.518 815.464C280.435 818.137 275.998 818.973 271.205 817.973C267.74 817.249 264.749 815.631 262.231 813.116C259.713 810.602 258.127 807.59 257.474 804.079L257.487 804.077L257.466 804.069C253.244 802.646 250.015 799.998 247.781 796.127C245.546 792.256 244.886 788.126 245.803 783.738C246.719 779.349 248.975 775.829 252.572 773.175C256.169 770.521 260.187 769.387 264.626 769.771L264.625 769.784L264.638 769.766C266.641 766.809 269.299 764.683 272.613 763.386C275.927 762.09 279.316 761.803 282.78 762.526C287.573 763.527 291.305 766.068 293.978 770.152C296.651 774.235 297.487 778.672 296.486 783.465L295.039 790.399L295.036 790.411L295.048 790.414L308.916 793.309L308.928 793.311L308.931 793.299Z" fill="#253A74" stroke="#253A74" stroke-width="0.025"/>
<path d="M10.7722 879.34L10.7721 879.34C8.24156 878.45 6.29619 876.851 4.93645 874.545C3.57665 872.239 3.16841 869.784 3.71189 867.18C4.25537 864.577 5.61178 862.49 7.78075 860.921C9.94961 859.351 12.372 858.665 15.0476 858.861L19.136 859.173L21.452 855.864C21.452 855.864 21.452 855.864 21.452 855.864C22.6604 854.124 24.2562 852.842 26.2391 852.019C28.2222 851.195 30.2552 851.001 32.3378 851.436C35.2301 852.039 37.4776 853.565 39.0796 856.013C40.6816 858.46 41.1807 861.13 40.5769 864.023L36.2342 884.824C35.6304 887.716 34.1046 889.964 31.6572 891.566C29.2098 893.168 26.5396 893.667 23.6473 893.063C21.5647 892.628 19.7793 891.637 18.2914 890.089C16.8036 888.54 15.8539 886.727 15.4426 884.649L10.7722 879.34ZM10.7722 879.34L14.6438 880.69L15.4426 884.649L10.7722 879.34ZM59.9309 875.299L60.3833 873.132L65.7428 874.251L63.3977 885.483L58.0383 884.365L58.4833 882.233L58.4859 882.221L58.4736 882.218L44.6059 879.323L44.5937 879.32L44.5912 879.333L43.1436 886.267C42.143 891.059 39.6014 894.792 35.5182 897.464C31.4351 900.137 26.9975 900.973 22.2048 899.973C18.7403 899.249 15.7491 897.631 13.2309 895.116C10.7128 892.602 9.12728 889.59 8.47428 886.079L8.48721 886.077L8.46599 886.069C4.2438 884.646 1.01547 881.998 -1.21944 878.127C-3.45433 874.256 -4.11365 870.126 -3.19748 865.738C-2.28132 861.349 -0.0248479 857.829 3.57223 855.175C7.16934 852.521 11.1872 851.387 15.6264 851.771L15.6253 851.784L15.6378 851.766C17.6409 848.809 20.2992 846.683 23.6129 845.386C26.9267 844.09 30.3158 843.803 33.7803 844.526C38.573 845.527 42.3054 848.068 44.9781 852.152C47.6508 856.235 48.4869 860.672 47.4863 865.465L46.0387 872.399L46.0362 872.411L46.0484 872.414L59.9161 875.309L59.9283 875.311L59.9309 875.299Z" fill="#253A74" stroke="#253A74" stroke-width="0.025"/>
</g>
<path d="M184.869 13.76H192.933V16.88H184.869V13.76ZM185.157 23H181.269V6.2H193.965V9.32H185.157V23ZM203.878 23V20.48L203.638 19.928V15.416C203.638 14.616 203.39 13.992 202.894 13.544C202.414 13.096 201.67 12.872 200.662 12.872C199.974 12.872 199.294 12.984 198.622 13.208C197.966 13.416 197.406 13.704 196.942 14.072L195.598 11.456C196.302 10.96 197.15 10.576 198.142 10.304C199.134 10.032 200.142 9.896 201.166 9.896C203.134 9.896 204.662 10.36 205.75 11.288C206.838 12.216 207.382 13.664 207.382 15.632V23H203.878ZM199.942 23.192C198.934 23.192 198.07 23.024 197.35 22.688C196.63 22.336 196.078 21.864 195.694 21.272C195.31 20.68 195.118 20.016 195.118 19.28C195.118 18.512 195.302 17.84 195.67 17.264C196.054 16.688 196.654 16.24 197.47 15.92C198.286 15.584 199.35 15.416 200.662 15.416H204.094V17.6H201.07C200.19 17.6 199.582 17.744 199.246 18.032C198.926 18.32 198.766 18.68 198.766 19.112C198.766 19.592 198.95 19.976 199.318 20.264C199.702 20.536 200.222 20.672 200.878 20.672C201.502 20.672 202.062 20.528 202.558 20.24C203.054 19.936 203.414 19.496 203.638 18.92L204.214 20.648C203.942 21.48 203.446 22.112 202.726 22.544C202.006 22.976 201.078 23.192 199.942 23.192ZM217.105 23.192C215.713 23.192 214.473 22.912 213.385 22.352C212.297 21.776 211.441 20.984 210.817 19.976C210.209 18.968 209.905 17.824 209.905 16.544C209.905 15.248 210.209 14.104 210.817 13.112C211.441 12.104 212.297 11.32 213.385 10.76C214.473 10.184 215.713 9.896 217.105 9.896C218.465 9.896 219.649 10.184 220.657 10.76C221.665 11.32 222.409 12.128 222.889 13.184L219.985 14.744C219.649 14.136 219.225 13.688 218.713 13.4C218.217 13.112 217.673 12.968 217.081 12.968C216.441 12.968 215.865 13.112 215.353 13.4C214.841 13.688 214.433 14.096 214.129 14.624C213.841 15.152 213.697 15.792 213.697 16.544C213.697 17.296 213.841 17.936 214.129 18.464C214.433 18.992 214.841 19.4 215.353 19.688C215.865 19.976 216.441 20.12 217.081 20.12C217.673 20.12 218.217 19.984 218.713 19.712C219.225 19.424 219.649 18.968 219.985 18.344L222.889 19.928C222.409 20.968 221.665 21.776 220.657 22.352C219.649 22.912 218.465 23.192 217.105 23.192ZM224.974 23V10.088H228.718V23H224.974ZM226.846 8.288C226.158 8.288 225.598 8.088 225.166 7.688C224.734 7.288 224.518 6.792 224.518 6.2C224.518 5.608 224.734 5.112 225.166 4.712C225.598 4.312 226.158 4.112 226.846 4.112C227.534 4.112 228.094 4.304 228.526 4.688C228.958 5.056 229.174 5.536 229.174 6.128C229.174 6.752 228.958 7.272 228.526 7.688C228.11 8.088 227.55 8.288 226.846 8.288ZM232.193 23V5.192H235.937V23H232.193ZM239.412 23V10.088H243.156V23H239.412ZM241.284 8.288C240.596 8.288 240.036 8.088 239.604 7.688C239.172 7.288 238.956 6.792 238.956 6.2C238.956 5.608 239.172 5.112 239.604 4.712C240.036 4.312 240.596 4.112 241.284 4.112C241.972 4.112 242.532 4.304 242.964 4.688C243.396 5.056 243.612 5.536 243.612 6.128C243.612 6.752 243.396 7.272 242.964 7.688C242.548 8.088 241.988 8.288 241.284 8.288ZM251.91 23.192C250.39 23.192 249.206 22.808 248.358 22.04C247.51 21.256 247.086 20.096 247.086 18.56V7.232H250.83V18.512C250.83 19.056 250.974 19.48 251.262 19.784C251.55 20.072 251.942 20.216 252.438 20.216C253.03 20.216 253.534 20.056 253.95 19.736L254.958 22.376C254.574 22.648 254.11 22.856 253.566 23C253.038 23.128 252.486 23.192 251.91 23.192ZM245.094 13.256V10.376H254.046V13.256H245.094ZM264.98 23V20.48L264.74 19.928V15.416C264.74 14.616 264.492 13.992 263.996 13.544C263.516 13.096 262.772 12.872 261.764 12.872C261.076 12.872 260.396 12.984 259.724 13.208C259.068 13.416 258.508 13.704 258.044 14.072L256.7 11.456C257.404 10.96 258.252 10.576 259.244 10.304C260.236 10.032 261.244 9.896 262.268 9.896C264.236 9.896 265.764 10.36 266.852 11.288C267.94 12.216 268.484 13.664 268.484 15.632V23H264.98ZM261.044 23.192C260.036 23.192 259.172 23.024 258.452 22.688C257.732 22.336 257.18 21.864 256.796 21.272C256.412 20.68 256.22 20.016 256.22 19.28C256.22 18.512 256.404 17.84 256.772 17.264C257.156 16.688 257.756 16.24 258.572 15.92C259.388 15.584 260.452 15.416 261.764 15.416H265.196V17.6H262.172C261.292 17.6 260.684 17.744 260.348 18.032C260.028 18.32 259.868 18.68 259.868 19.112C259.868 19.592 260.052 19.976 260.42 20.264C260.804 20.536 261.324 20.672 261.98 20.672C262.604 20.672 263.164 20.528 263.66 20.24C264.156 19.936 264.516 19.496 264.74 18.92L265.316 20.648C265.044 21.48 264.548 22.112 263.828 22.544C263.108 22.976 262.18 23.192 261.044 23.192ZM278.669 23V5.192H282.413V23H278.669ZM293.808 23V20.48L293.568 19.928V15.416C293.568 14.616 293.32 13.992 292.824 13.544C292.344 13.096 291.6 12.872 290.592 12.872C289.904 12.872 289.224 12.984 288.552 13.208C287.896 13.416 287.336 13.704 286.872 14.072L285.528 11.456C286.232 10.96 287.08 10.576 288.072 10.304C289.064 10.032 290.072 9.896 291.096 9.896C293.064 9.896 294.592 10.36 295.68 11.288C296.768 12.216 297.312 13.664 297.312 15.632V23H293.808ZM289.872 23.192C288.864 23.192 288 23.024 287.28 22.688C286.56 22.336 286.008 21.864 285.624 21.272C285.24 20.68 285.048 20.016 285.048 19.28C285.048 18.512 285.232 17.84 285.6 17.264C285.984 16.688 286.584 16.24 287.4 15.92C288.216 15.584 289.28 15.416 290.592 15.416H294.024V17.6H291C290.12 17.6 289.512 17.744 289.176 18.032C288.856 18.32 288.696 18.68 288.696 19.112C288.696 19.592 288.88 19.976 289.248 20.264C289.632 20.536 290.152 20.672 290.808 20.672C291.432 20.672 291.992 20.528 292.488 20.24C292.984 19.936 293.344 19.496 293.568 18.92L294.144 20.648C293.872 21.48 293.376 22.112 292.656 22.544C291.936 22.976 291.008 23.192 289.872 23.192ZM305.045 23.192C303.941 23.192 302.877 23.064 301.853 22.808C300.845 22.536 300.045 22.2 299.453 21.8L300.701 19.112C301.293 19.48 301.989 19.784 302.789 20.024C303.605 20.248 304.405 20.36 305.189 20.36C306.053 20.36 306.661 20.256 307.013 20.048C307.381 19.84 307.565 19.552 307.565 19.184C307.565 18.88 307.421 18.656 307.133 18.512C306.861 18.352 306.493 18.232 306.029 18.152C305.565 18.072 305.053 17.992 304.493 17.912C303.949 17.832 303.397 17.728 302.837 17.6C302.277 17.456 301.765 17.248 301.301 16.976C300.837 16.704 300.461 16.336 300.173 15.872C299.901 15.408 299.765 14.808 299.765 14.072C299.765 13.256 299.997 12.536 300.461 11.912C300.941 11.288 301.629 10.8 302.525 10.448C303.421 10.08 304.493 9.896 305.741 9.896C306.621 9.896 307.517 9.992 308.429 10.184C309.341 10.376 310.101 10.656 310.709 11.024L309.461 13.688C308.837 13.32 308.205 13.072 307.565 12.944C306.941 12.8 306.333 12.728 305.741 12.728C304.909 12.728 304.301 12.84 303.917 13.064C303.533 13.288 303.341 13.576 303.341 13.928C303.341 14.248 303.477 14.488 303.749 14.648C304.037 14.808 304.413 14.936 304.877 15.032C305.341 15.128 305.845 15.216 306.389 15.296C306.949 15.36 307.509 15.464 308.069 15.608C308.629 15.752 309.133 15.96 309.581 16.232C310.045 16.488 310.421 16.848 310.709 17.312C310.997 17.76 311.141 18.352 311.141 19.088C311.141 19.888 310.901 20.6 310.421 21.224C309.941 21.832 309.245 22.312 308.333 22.664C307.437 23.016 306.341 23.192 305.045 23.192ZM184.287 52V39.088H187.863V42.736L187.359 41.68C187.743 40.768 188.359 40.08 189.207 39.616C190.055 39.136 191.087 38.896 192.303 38.896V42.352C192.143 42.336 191.999 42.328 191.871 42.328C191.743 42.312 191.607 42.304 191.463 42.304C190.439 42.304 189.607 42.6 188.967 43.192C188.343 43.768 188.031 44.672 188.031 45.904V52H184.287ZM200.843 52.192C199.371 52.192 198.075 51.904 196.955 51.328C195.851 50.752 194.995 49.968 194.387 48.976C193.779 47.968 193.475 46.824 193.475 45.544C193.475 44.248 193.771 43.104 194.363 42.112C194.971 41.104 195.795 40.32 196.835 39.76C197.875 39.184 199.051 38.896 200.363 38.896C201.627 38.896 202.763 39.168 203.771 39.712C204.795 40.24 205.603 41.008 206.195 42.016C206.787 43.008 207.083 44.2 207.083 45.592C207.083 45.736 207.075 45.904 207.059 46.096C207.043 46.272 207.027 46.44 207.011 46.6H196.523V44.416H205.043L203.603 45.064C203.603 44.392 203.467 43.808 203.195 43.312C202.923 42.816 202.547 42.432 202.067 42.16C201.587 41.872 201.027 41.728 200.387 41.728C199.747 41.728 199.179 41.872 198.683 42.16C198.203 42.432 197.827 42.824 197.555 43.336C197.283 43.832 197.147 44.424 197.147 45.112V45.688C197.147 46.392 197.299 47.016 197.603 47.56C197.923 48.088 198.363 48.496 198.923 48.784C199.499 49.056 200.171 49.192 200.939 49.192C201.627 49.192 202.227 49.088 202.739 48.88C203.267 48.672 203.747 48.36 204.179 47.944L206.171 50.104C205.579 50.776 204.835 51.296 203.939 51.664C203.043 52.016 202.011 52.192 200.843 52.192ZM215.024 52.192C213.952 52.192 212.992 51.984 212.144 51.568C211.312 51.152 210.664 50.52 210.2 49.672C209.736 48.808 209.504 47.712 209.504 46.384V39.088H213.248V45.832C213.248 46.904 213.472 47.696 213.92 48.208C214.384 48.704 215.032 48.952 215.864 48.952C216.44 48.952 216.952 48.832 217.4 48.592C217.848 48.336 218.2 47.952 218.456 47.44C218.712 46.912 218.84 46.256 218.84 45.472V39.088H222.584V52H219.032V48.448L219.68 49.48C219.248 50.376 218.608 51.056 217.76 51.52C216.928 51.968 216.016 52.192 215.024 52.192ZM233.9 38.896C234.924 38.896 235.836 39.104 236.636 39.52C237.452 39.92 238.092 40.544 238.556 41.392C239.02 42.224 239.252 43.296 239.252 44.608V52H235.508V45.184C235.508 44.144 235.276 43.376 234.812 42.88C234.364 42.384 233.724 42.136 232.892 42.136C232.3 42.136 231.764 42.264 231.284 42.52C230.82 42.76 230.452 43.136 230.18 43.648C229.924 44.16 229.796 44.816 229.796 45.616V52H226.052V39.088H229.628V42.664L228.956 41.584C229.42 40.72 230.084 40.056 230.948 39.592C231.812 39.128 232.796 38.896 233.9 38.896ZM242.646 52V39.088H246.39V52H242.646ZM244.518 37.288C243.83 37.288 243.27 37.088 242.838 36.688C242.406 36.288 242.19 35.792 242.19 35.2C242.19 34.608 242.406 34.112 242.838 33.712C243.27 33.312 243.83 33.112 244.518 33.112C245.206 33.112 245.766 33.304 246.198 33.688C246.63 34.056 246.846 34.536 246.846 35.128C246.846 35.752 246.63 36.272 246.198 36.688C245.782 37.088 245.222 37.288 244.518 37.288ZM256.009 52.192C254.633 52.192 253.409 51.904 252.337 51.328C251.281 50.752 250.441 49.968 249.817 48.976C249.209 47.968 248.905 46.824 248.905 45.544C248.905 44.248 249.209 43.104 249.817 42.112C250.441 41.104 251.281 40.32 252.337 39.76C253.409 39.184 254.633 38.896 256.009 38.896C257.369 38.896 258.585 39.184 259.657 39.76C260.729 40.32 261.569 41.096 262.177 42.088C262.785 43.08 263.089 44.232 263.089 45.544C263.089 46.824 262.785 47.968 262.177 48.976C261.569 49.968 260.729 50.752 259.657 51.328C258.585 51.904 257.369 52.192 256.009 52.192ZM256.009 49.12C256.633 49.12 257.193 48.976 257.689 48.688C258.185 48.4 258.577 47.992 258.865 47.464C259.153 46.92 259.297 46.28 259.297 45.544C259.297 44.792 259.153 44.152 258.865 43.624C258.577 43.096 258.185 42.688 257.689 42.4C257.193 42.112 256.633 41.968 256.009 41.968C255.385 41.968 254.825 42.112 254.329 42.4C253.833 42.688 253.433 43.096 253.129 43.624C252.841 44.152 252.697 44.792 252.697 45.544C252.697 46.28 252.841 46.92 253.129 47.464C253.433 47.992 253.833 48.4 254.329 48.688C254.825 48.976 255.385 49.12 256.009 49.12ZM273.439 38.896C274.463 38.896 275.375 39.104 276.175 39.52C276.991 39.92 277.631 40.544 278.095 41.392C278.559 42.224 278.791 43.296 278.791 44.608V52H275.047V45.184C275.047 44.144 274.815 43.376 274.351 42.88C273.903 42.384 273.263 42.136 272.431 42.136C271.839 42.136 271.303 42.264 270.823 42.52C270.359 42.76 269.991 43.136 269.719 43.648C269.463 44.16 269.335 44.816 269.335 45.616V52H265.591V39.088H269.167V42.664L268.495 41.584C268.959 40.72 269.623 40.056 270.487 39.592C271.351 39.128 272.335 38.896 273.439 38.896ZM288.687 52.192C287.215 52.192 285.919 51.904 284.799 51.328C283.695 50.752 282.839 49.968 282.231 48.976C281.623 47.968 281.319 46.824 281.319 45.544C281.319 44.248 281.615 43.104 282.207 42.112C282.815 41.104 283.639 40.32 284.679 39.76C285.719 39.184 286.895 38.896 288.207 38.896C289.471 38.896 290.607 39.168 291.615 39.712C292.639 40.24 293.447 41.008 294.039 42.016C294.631 43.008 294.927 44.2 294.927 45.592C294.927 45.736 294.919 45.904 294.903 46.096C294.887 46.272 294.871 46.44 294.855 46.6H284.367V44.416H292.887L291.447 45.064C291.447 44.392 291.311 43.808 291.039 43.312C290.767 42.816 290.391 42.432 289.911 42.16C289.431 41.872 288.871 41.728 288.231 41.728C287.591 41.728 287.023 41.872 286.527 42.16C286.047 42.432 285.671 42.824 285.399 43.336C285.127 43.832 284.991 44.424 284.991 45.112V45.688C284.991 46.392 285.143 47.016 285.447 47.56C285.767 48.088 286.207 48.496 286.767 48.784C287.343 49.056 288.015 49.192 288.783 49.192C289.471 49.192 290.071 49.088 290.583 48.88C291.111 48.672 291.591 48.36 292.023 47.944L294.015 50.104C293.423 50.776 292.679 51.296 291.783 51.664C290.887 52.016 289.855 52.192 288.687 52.192ZM301.763 52.192C300.659 52.192 299.595 52.064 298.571 51.808C297.563 51.536 296.763 51.2 296.171 50.8L297.419 48.112C298.011 48.48 298.707 48.784 299.507 49.024C300.323 49.248 301.123 49.36 301.907 49.36C302.771 49.36 303.379 49.256 303.731 49.048C304.099 48.84 304.283 48.552 304.283 48.184C304.283 47.88 304.139 47.656 303.851 47.512C303.579 47.352 303.211 47.232 302.747 47.152C302.283 47.072 301.771 46.992 301.211 46.912C300.667 46.832 300.115 46.728 299.555 46.6C298.995 46.456 298.483 46.248 298.019 45.976C297.555 45.704 297.179 45.336 296.891 44.872C296.619 44.408 296.483 43.808 296.483 43.072C296.483 42.256 296.715 41.536 297.179 40.912C297.659 40.288 298.347 39.8 299.243 39.448C300.139 39.08 301.211 38.896 302.459 38.896C303.339 38.896 304.235 38.992 305.147 39.184C306.059 39.376 306.819 39.656 307.427 40.024L306.179 42.688C305.555 42.32 304.923 42.072 304.283 41.944C303.659 41.8 303.051 41.728 302.459 41.728C301.627 41.728 301.019 41.84 300.635 42.064C300.251 42.288 300.059 42.576 300.059 42.928C300.059 43.248 300.195 43.488 300.467 43.648C300.755 43.808 301.131 43.936 301.595 44.032C302.059 44.128 302.563 44.216 303.107 44.296C303.667 44.36 304.227 44.464 304.787 44.608C305.347 44.752 305.851 44.96 306.299 45.232C306.763 45.488 307.139 45.848 307.427 46.312C307.715 46.76 307.859 47.352 307.859 48.088C307.859 48.888 307.619 49.6 307.139 50.224C306.659 50.832 305.963 51.312 305.051 51.664C304.155 52.016 303.059 52.192 301.763 52.192Z" fill="#87549F"/>
<path d="M206.989 619.288C205.693 619.288 204.485 619.08 203.365 618.664C202.261 618.232 201.301 617.624 200.485 616.84C199.669 616.056 199.029 615.136 198.565 614.08C198.117 613.024 197.893 611.864 197.893 610.6C197.893 609.336 198.117 608.176 198.565 607.12C199.029 606.064 199.669 605.144 200.485 604.36C201.317 603.576 202.285 602.976 203.389 602.56C204.493 602.128 205.701 601.912 207.013 601.912C208.469 601.912 209.781 602.168 210.949 602.68C212.133 603.176 213.125 603.912 213.925 604.888L211.429 607.192C210.853 606.536 210.213 606.048 209.509 605.728C208.805 605.392 208.037 605.224 207.205 605.224C206.421 605.224 205.701 605.352 205.045 605.608C204.389 605.864 203.821 606.232 203.341 606.712C202.861 607.192 202.485 607.76 202.213 608.416C201.957 609.072 201.829 609.8 201.829 610.6C201.829 611.4 201.957 612.128 202.213 612.784C202.485 613.44 202.861 614.008 203.341 614.488C203.821 614.968 204.389 615.336 205.045 615.592C205.701 615.848 206.421 615.976 207.205 615.976C208.037 615.976 208.805 615.816 209.509 615.496C210.213 615.16 210.853 614.656 211.429 613.984L213.925 616.288C213.125 617.264 212.133 618.008 210.949 618.52C209.781 619.032 208.461 619.288 206.989 619.288ZM221.985 619.192C220.609 619.192 219.385 618.904 218.313 618.328C217.257 617.752 216.417 616.968 215.793 615.976C215.185 614.968 214.881 613.824 214.881 612.544C214.881 611.248 215.185 610.104 215.793 609.112C216.417 608.104 217.257 607.32 218.313 606.76C219.385 606.184 220.609 605.896 221.985 605.896C223.345 605.896 224.561 606.184 225.633 606.76C226.705 607.32 227.545 608.096 228.153 609.088C228.761 610.08 229.065 611.232 229.065 612.544C229.065 613.824 228.761 614.968 228.153 615.976C227.545 616.968 226.705 617.752 225.633 618.328C224.561 618.904 223.345 619.192 221.985 619.192ZM221.985 616.12C222.609 616.12 223.169 615.976 223.665 615.688C224.161 615.4 224.553 614.992 224.841 614.464C225.129 613.92 225.273 613.28 225.273 612.544C225.273 611.792 225.129 611.152 224.841 610.624C224.553 610.096 224.161 609.688 223.665 609.4C223.169 609.112 222.609 608.968 221.985 608.968C221.361 608.968 220.801 609.112 220.305 609.4C219.809 609.688 219.409 610.096 219.105 610.624C218.817 611.152 218.673 611.792 218.673 612.544C218.673 613.28 218.817 613.92 219.105 614.464C219.409 614.992 219.809 615.4 220.305 615.688C220.801 615.976 221.361 616.12 221.985 616.12ZM248.104 605.896C249.128 605.896 250.032 606.104 250.816 606.52C251.616 606.92 252.24 607.544 252.688 608.392C253.152 609.224 253.384 610.296 253.384 611.608V619H249.64V612.184C249.64 611.144 249.424 610.376 248.992 609.88C248.56 609.384 247.952 609.136 247.168 609.136C246.624 609.136 246.136 609.264 245.704 609.52C245.272 609.76 244.936 610.128 244.696 610.624C244.456 611.12 244.336 611.752 244.336 612.52V619H240.592V612.184C240.592 611.144 240.376 610.376 239.944 609.88C239.528 609.384 238.928 609.136 238.144 609.136C237.6 609.136 237.112 609.264 236.68 609.52C236.248 609.76 235.912 610.128 235.672 610.624C235.432 611.12 235.312 611.752 235.312 612.52V619H231.568V606.088H235.144V609.616L234.472 608.584C234.92 607.704 235.552 607.04 236.368 606.592C237.2 606.128 238.144 605.896 239.2 605.896C240.384 605.896 241.416 606.2 242.296 606.808C243.192 607.4 243.784 608.312 244.072 609.544L242.752 609.184C243.184 608.176 243.872 607.376 244.816 606.784C245.776 606.192 246.872 605.896 248.104 605.896ZM264.372 619.192C263.284 619.192 262.332 618.952 261.516 618.472C260.7 617.992 260.06 617.264 259.596 616.288C259.148 615.296 258.924 614.048 258.924 612.544C258.924 611.024 259.14 609.776 259.572 608.8C260.004 607.824 260.628 607.096 261.444 606.616C262.26 606.136 263.236 605.896 264.372 605.896C265.588 605.896 266.676 606.176 267.636 606.736C268.612 607.28 269.38 608.048 269.94 609.04C270.516 610.032 270.804 611.2 270.804 612.544C270.804 613.904 270.516 615.08 269.94 616.072C269.38 617.064 268.612 617.832 267.636 618.376C266.676 618.92 265.588 619.192 264.372 619.192ZM256.74 623.656V606.088H260.316V608.728L260.244 612.568L260.484 616.384V623.656H256.74ZM263.724 616.12C264.348 616.12 264.9 615.976 265.38 615.688C265.876 615.4 266.268 614.992 266.556 614.464C266.86 613.92 267.012 613.28 267.012 612.544C267.012 611.792 266.86 611.152 266.556 610.624C266.268 610.096 265.876 609.688 265.38 609.4C264.9 609.112 264.348 608.968 263.724 608.968C263.1 608.968 262.54 609.112 262.044 609.4C261.548 609.688 261.156 610.096 260.868 610.624C260.58 611.152 260.436 611.792 260.436 612.544C260.436 613.28 260.58 613.92 260.868 614.464C261.156 614.992 261.548 615.4 262.044 615.688C262.54 615.976 263.1 616.12 263.724 616.12ZM281.019 619V616.48L280.779 615.928V611.416C280.779 610.616 280.531 609.992 280.035 609.544C279.555 609.096 278.811 608.872 277.803 608.872C277.115 608.872 276.435 608.984 275.763 609.208C275.107 609.416 274.547 609.704 274.083 610.072L272.739 607.456C273.443 606.96 274.291 606.576 275.283 606.304C276.275 606.032 277.283 605.896 278.307 605.896C280.275 605.896 281.803 606.36 282.891 607.288C283.979 608.216 284.523 609.664 284.523 611.632V619H281.019ZM277.083 619.192C276.075 619.192 275.211 619.024 274.491 618.688C273.771 618.336 273.219 617.864 272.835 617.272C272.451 616.68 272.259 616.016 272.259 615.28C272.259 614.512 272.443 613.84 272.811 613.264C273.195 612.688 273.795 612.24 274.611 611.92C275.427 611.584 276.491 611.416 277.803 611.416H281.235V613.6H278.211C277.331 613.6 276.723 613.744 276.387 614.032C276.067 614.32 275.907 614.68 275.907 615.112C275.907 615.592 276.091 615.976 276.459 616.264C276.843 616.536 277.363 616.672 278.019 616.672C278.643 616.672 279.203 616.528 279.699 616.24C280.195 615.936 280.555 615.496 280.779 614.92L281.355 616.648C281.083 617.48 280.587 618.112 279.867 618.544C279.147 618.976 278.219 619.192 277.083 619.192ZM287.912 619V606.088H291.488V609.736L290.984 608.68C291.368 607.768 291.984 607.08 292.832 606.616C293.68 606.136 294.712 605.896 295.928 605.896V609.352C295.768 609.336 295.624 609.328 295.496 609.328C295.368 609.312 295.232 609.304 295.088 609.304C294.064 609.304 293.232 609.6 292.592 610.192C291.968 610.768 291.656 611.672 291.656 612.904V619H287.912ZM303.879 619.192C302.359 619.192 301.175 618.808 300.327 618.04C299.479 617.256 299.055 616.096 299.055 614.56V603.232H302.799V614.512C302.799 615.056 302.943 615.48 303.231 615.784C303.519 616.072 303.911 616.216 304.407 616.216C304.999 616.216 305.503 616.056 305.919 615.736L306.927 618.376C306.543 618.648 306.079 618.856 305.535 619C305.007 619.128 304.455 619.192 303.879 619.192ZM297.063 609.256V606.376H306.015V609.256H297.063ZM315.038 619.192C313.566 619.192 312.27 618.904 311.15 618.328C310.046 617.752 309.19 616.968 308.582 615.976C307.974 614.968 307.67 613.824 307.67 612.544C307.67 611.248 307.966 610.104 308.558 609.112C309.166 608.104 309.99 607.32 311.03 606.76C312.07 606.184 313.246 605.896 314.558 605.896C315.822 605.896 316.958 606.168 317.966 606.712C318.99 607.24 319.798 608.008 320.39 609.016C320.982 610.008 321.278 611.2 321.278 612.592C321.278 612.736 321.27 612.904 321.254 613.096C321.238 613.272 321.222 613.44 321.206 613.6H310.718V611.416H319.238L317.798 612.064C317.798 611.392 317.662 610.808 317.39 610.312C317.118 609.816 316.742 609.432 316.262 609.16C315.782 608.872 315.222 608.728 314.582 608.728C313.942 608.728 313.374 608.872 312.878 609.16C312.398 609.432 312.022 609.824 311.75 610.336C311.478 610.832 311.342 611.424 311.342 612.112V612.688C311.342 613.392 311.494 614.016 311.798 614.56C312.118 615.088 312.558 615.496 313.118 615.784C313.694 616.056 314.366 616.192 315.134 616.192C315.822 616.192 316.422 616.088 316.934 615.88C317.462 615.672 317.942 615.36 318.374 614.944L320.366 617.104C319.774 617.776 319.03 618.296 318.134 618.664C317.238 619.016 316.206 619.192 315.038 619.192ZM197.794 648V635.088H201.538V648H197.794ZM199.666 633.288C198.978 633.288 198.418 633.088 197.986 632.688C197.554 632.288 197.338 631.792 197.338 631.2C197.338 630.608 197.554 630.112 197.986 629.712C198.418 629.312 198.978 629.112 199.666 629.112C200.354 629.112 200.914 629.304 201.346 629.688C201.778 630.056 201.994 630.536 201.994 631.128C201.994 631.752 201.778 632.272 201.346 632.688C200.93 633.088 200.37 633.288 199.666 633.288ZM210.293 648.192C208.773 648.192 207.589 647.808 206.741 647.04C205.893 646.256 205.469 645.096 205.469 643.56V632.232H209.213V643.512C209.213 644.056 209.357 644.48 209.645 644.784C209.933 645.072 210.325 645.216 210.821 645.216C211.413 645.216 211.917 645.056 212.333 644.736L213.341 647.376C212.957 647.648 212.493 647.856 211.949 648C211.421 648.128 210.869 648.192 210.293 648.192ZM203.477 638.256V635.376H212.429V638.256H203.477ZM215.443 648V635.088H219.187V648H215.443ZM217.315 633.288C216.627 633.288 216.067 633.088 215.635 632.688C215.203 632.288 214.987 631.792 214.987 631.2C214.987 630.608 215.203 630.112 215.635 629.712C216.067 629.312 216.627 629.112 217.315 629.112C218.003 629.112 218.563 629.304 218.995 629.688C219.427 630.056 219.643 630.536 219.643 631.128C219.643 631.752 219.427 632.272 218.995 632.688C218.579 633.088 218.019 633.288 217.315 633.288ZM230.51 634.896C231.534 634.896 232.446 635.104 233.246 635.52C234.062 635.92 234.702 636.544 235.166 637.392C235.63 638.224 235.862 639.296 235.862 640.608V648H232.118V641.184C232.118 640.144 231.886 639.376 231.422 638.88C230.974 638.384 230.334 638.136 229.502 638.136C228.91 638.136 228.374 638.264 227.894 638.52C227.43 638.76 227.062 639.136 226.79 639.648C226.534 640.16 226.406 640.816 226.406 641.616V648H222.662V635.088H226.238V638.664L225.566 637.584C226.03 636.72 226.694 636.056 227.558 635.592C228.422 635.128 229.406 634.896 230.51 634.896ZM245.757 648.192C244.285 648.192 242.989 647.904 241.869 647.328C240.765 646.752 239.909 645.968 239.301 644.976C238.693 643.968 238.389 642.824 238.389 641.544C238.389 640.248 238.685 639.104 239.277 638.112C239.885 637.104 240.709 636.32 241.749 635.76C242.789 635.184 243.965 634.896 245.277 634.896C246.541 634.896 247.677 635.168 248.685 635.712C249.709 636.24 250.517 637.008 251.109 638.016C251.701 639.008 251.997 640.2 251.997 641.592C251.997 641.736 251.989 641.904 251.973 642.096C251.957 642.272 251.941 642.44 251.925 642.6H241.437V640.416H249.957L248.517 641.064C248.517 640.392 248.381 639.808 248.109 639.312C247.837 638.816 247.461 638.432 246.981 638.16C246.501 637.872 245.941 637.728 245.301 637.728C244.661 637.728 244.093 637.872 243.597 638.16C243.117 638.432 242.741 638.824 242.469 639.336C242.197 639.832 242.061 640.424 242.061 641.112V641.688C242.061 642.392 242.213 643.016 242.517 643.56C242.837 644.088 243.277 644.496 243.837 644.784C244.413 645.056 245.085 645.192 245.853 645.192C246.541 645.192 247.141 645.088 247.653 644.88C248.181 644.672 248.661 644.36 249.093 643.944L251.085 646.104C250.493 646.776 249.749 647.296 248.853 647.664C247.957 648.016 246.925 648.192 245.757 648.192ZM254.49 648V635.088H258.066V638.736L257.562 637.68C257.946 636.768 258.562 636.08 259.41 635.616C260.258 635.136 261.29 634.896 262.506 634.896V638.352C262.346 638.336 262.202 638.328 262.074 638.328C261.946 638.312 261.81 638.304 261.666 638.304C260.642 638.304 259.81 638.6 259.17 639.192C258.546 639.768 258.234 640.672 258.234 641.904V648H254.49ZM271.808 648V645.48L271.568 644.928V640.416C271.568 639.616 271.32 638.992 270.824 638.544C270.344 638.096 269.6 637.872 268.592 637.872C267.904 637.872 267.224 637.984 266.552 638.208C265.896 638.416 265.336 638.704 264.872 639.072L263.528 636.456C264.232 635.96 265.08 635.576 266.072 635.304C267.064 635.032 268.072 634.896 269.096 634.896C271.064 634.896 272.592 635.36 273.68 636.288C274.768 637.216 275.312 638.664 275.312 640.632V648H271.808ZM267.872 648.192C266.864 648.192 266 648.024 265.28 647.688C264.56 647.336 264.008 646.864 263.624 646.272C263.24 645.68 263.048 645.016 263.048 644.28C263.048 643.512 263.232 642.84 263.6 642.264C263.984 641.688 264.584 641.24 265.4 640.92C266.216 640.584 267.28 640.416 268.592 640.416H272.024V642.6H269C268.12 642.6 267.512 642.744 267.176 643.032C266.856 643.32 266.696 643.68 266.696 644.112C266.696 644.592 266.88 644.976 267.248 645.264C267.632 645.536 268.152 645.672 268.808 645.672C269.432 645.672 269.992 645.528 270.488 645.24C270.984 644.936 271.344 644.496 271.568 643.92L272.144 645.648C271.872 646.48 271.376 647.112 270.656 647.544C269.936 647.976 269.008 648.192 267.872 648.192ZM278.701 648V635.088H282.277V638.736L281.773 637.68C282.157 636.768 282.773 636.08 283.621 635.616C284.469 635.136 285.501 634.896 286.717 634.896V638.352C286.557 638.336 286.413 638.328 286.285 638.328C286.157 638.312 286.021 638.304 285.877 638.304C284.853 638.304 284.021 638.6 283.381 639.192C282.757 639.768 282.445 640.672 282.445 641.904V648H278.701ZM288.966 648V635.088H292.71V648H288.966ZM290.838 633.288C290.15 633.288 289.59 633.088 289.158 632.688C288.726 632.288 288.51 631.792 288.51 631.2C288.51 630.608 288.726 630.112 289.158 629.712C289.59 629.312 290.15 629.112 290.838 629.112C291.526 629.112 292.086 629.304 292.518 629.688C292.95 630.056 293.166 630.536 293.166 631.128C293.166 631.752 292.95 632.272 292.518 632.688C292.102 633.088 291.542 633.288 290.838 633.288ZM302.329 648.192C300.953 648.192 299.729 647.904 298.657 647.328C297.601 646.752 296.761 645.968 296.137 644.976C295.529 643.968 295.225 642.824 295.225 641.544C295.225 640.248 295.529 639.104 296.137 638.112C296.761 637.104 297.601 636.32 298.657 635.76C299.729 635.184 300.953 634.896 302.329 634.896C303.689 634.896 304.905 635.184 305.977 635.76C307.049 636.32 307.889 637.096 308.497 638.088C309.105 639.08 309.409 640.232 309.409 641.544C309.409 642.824 309.105 643.968 308.497 644.976C307.889 645.968 307.049 646.752 305.977 647.328C304.905 647.904 303.689 648.192 302.329 648.192ZM302.329 645.12C302.953 645.12 303.513 644.976 304.009 644.688C304.505 644.4 304.897 643.992 305.185 643.464C305.473 642.92 305.617 642.28 305.617 641.544C305.617 640.792 305.473 640.152 305.185 639.624C304.897 639.096 304.505 638.688 304.009 638.4C303.513 638.112 302.953 637.968 302.329 637.968C301.705 637.968 301.145 638.112 300.649 638.4C300.153 638.688 299.753 639.096 299.449 639.624C299.161 640.152 299.017 640.792 299.017 641.544C299.017 642.28 299.161 642.92 299.449 643.464C299.753 643.992 300.153 644.4 300.649 644.688C301.145 644.976 301.705 645.12 302.329 645.12ZM316.256 648.192C315.152 648.192 314.088 648.064 313.064 647.808C312.056 647.536 311.256 647.2 310.664 646.8L311.912 644.112C312.504 644.48 313.2 644.784 314 645.024C314.816 645.248 315.616 645.36 316.4 645.36C317.264 645.36 317.872 645.256 318.224 645.048C318.592 644.84 318.776 644.552 318.776 644.184C318.776 643.88 318.632 643.656 318.344 643.512C318.072 643.352 317.704 643.232 317.24 643.152C316.776 643.072 316.264 642.992 315.704 642.912C315.16 642.832 314.608 642.728 314.048 642.6C313.488 642.456 312.976 642.248 312.512 641.976C312.048 641.704 311.672 641.336 311.384 640.872C311.112 640.408 310.976 639.808 310.976 639.072C310.976 638.256 311.208 637.536 311.672 636.912C312.152 636.288 312.84 635.8 313.736 635.448C314.632 635.08 315.704 634.896 316.952 634.896C317.832 634.896 318.728 634.992 319.64 635.184C320.552 635.376 321.312 635.656 321.92 636.024L320.672 638.688C320.048 638.32 319.416 638.072 318.776 637.944C318.152 637.8 317.544 637.728 316.952 637.728C316.12 637.728 315.512 637.84 315.128 638.064C314.744 638.288 314.552 638.576 314.552 638.928C314.552 639.248 314.688 639.488 314.96 639.648C315.248 639.808 315.624 639.936 316.088 640.032C316.552 640.128 317.056 640.216 317.6 640.296C318.16 640.36 318.72 640.464 319.28 640.608C319.84 640.752 320.344 640.96 320.792 641.232C321.256 641.488 321.632 641.848 321.92 642.312C322.208 642.76 322.352 643.352 322.352 644.088C322.352 644.888 322.112 645.6 321.632 646.224C321.152 646.832 320.456 647.312 319.544 647.664C318.648 648.016 317.552 648.192 316.256 648.192Z" fill="#87549F"/>
<defs>
<clipPath id="clip0_376_22">
<rect width="360" height="1237" fill="white" transform="translate(0 43)"/>
</clipPath>
</defs>
</svg>
