<svg width="18" height="18" viewBox="0 0 18 18" fill="none" xmlns="http://www.w3.org/2000/svg">
<path d="M9.05738 2.24805H9.1575C10.0823 2.25142 14.7679 2.28517 16.0313 2.62492C16.4132 2.72861 16.7612 2.93072 17.0406 3.21106C17.3199 3.49139 17.5208 3.84013 17.6231 4.22242C17.7368 4.64992 17.8166 5.2158 17.8706 5.79967L17.8819 5.91667L17.9066 6.20917L17.9156 6.32617C17.9888 7.35442 17.9978 8.31742 17.9989 8.5278V8.61217C17.9978 8.83042 17.9876 9.85867 17.9066 10.9297L17.8976 11.0478L17.8875 11.1648C17.8313 11.8083 17.748 12.4473 17.6231 12.9175C17.5208 13.2998 17.3199 13.6486 17.0406 13.9289C16.7612 14.2092 16.4132 14.4114 16.0313 14.515C14.7263 14.866 9.76613 14.8908 9.07875 14.8919H8.919C8.57138 14.8919 7.13363 14.8852 5.62613 14.8334L5.43488 14.8267L5.337 14.8222L5.14463 14.8143L4.95225 14.8064C3.7035 14.7513 2.51438 14.6624 1.9665 14.5139C1.58471 14.4103 1.23677 14.2084 0.957433 13.9283C0.678097 13.6481 0.477139 13.2996 0.374625 12.9175C0.24975 12.4484 0.1665 11.8083 0.11025 11.1648L0.10125 11.0467L0.09225 10.9297C0.0364089 10.1674 0.00564223 9.40348 0 8.63917L0 8.5008C0.00225 8.25892 0.01125 7.42305 0.072 6.50055L0.079875 6.38467L0.08325 6.32617L0.09225 6.20917L0.117 5.91667L0.12825 5.79967C0.18225 5.2158 0.262125 4.6488 0.37575 4.22242C0.478092 3.84013 0.678974 3.49139 0.95832 3.21106C1.23767 2.93072 1.5857 2.72861 1.96763 2.62492C2.5155 2.47867 3.70463 2.38867 4.95338 2.33242L5.14463 2.32455L5.33813 2.3178L5.43488 2.31442L5.62725 2.30655C6.69792 2.27213 7.76903 2.253 8.84025 2.24917L9.05738 2.24805ZM7.2 5.8593V11.2795L11.8766 8.57055L7.2 5.8593Z" fill="white"/>
</svg>
